<?xml version="1.0" encoding="utf-8"?>
<!-- Generator: Adobe Illustrator 24.1.1, SVG Export Plug-In . SVG Version: 6.00 Build 0)  -->
<svg version="1.1" id="Layer_1" xmlns="http://www.w3.org/2000/svg" xmlns:xlink="http://www.w3.org/1999/xlink" x="0px" y="0px"
	 width="48.7px" height="48.7px" viewBox="0 0 48.7 48.7" style="enable-background:new 0 0 48.7 48.7;" xml:space="preserve">
<style type="text/css">
	.st0{fill:none;stroke:#0071BC;stroke-miterlimit:10;}
	.st1{fill:#0071BC;}
</style>
<g>
	<circle class="st0" cx="24.4" cy="24.4" r="22.1"/>
	<g>
		<path class="st1" d="M9.2,34.7c0-0.7,0-1.4,0-2.2c0.6,0,1.2,0,1.8,0c0-0.2,0-0.4,0-0.6c0-4,0-8,0-12.1c0-0.1,0-0.2,0-0.3
			c0.1-0.5,0.5-0.9,1-0.9c1.9,0,3.9,0,5.8,0c0,0,0.1,0,0.1,0c0,0.1,0,0.3,0,0.4c0,4.2,0,8.3,0,12.5c0,0.1,0,0.3,0,0.4
			c0,0.6,0.1,0.7,0.7,0.6c0-0.7,0-1.4,0-2c0-5,0-10.1,0-15.1c0-0.2,0-0.4,0-0.6c0.1-0.4,0.4-0.7,0.9-0.8c0.1,0,0.2,0,0.3,0
			c3,0,6,0,9,0c0.5,0,0.9,0.2,1.1,0.7c0.1,0.2,0.1,0.4,0.1,0.6c0,1.3,0,2.7,0,4c0,4,0,8,0,12.1c0,0.4,0,0.8,0,1.2c0.2,0,0.4,0,0.7,0
			c0-0.3,0.1-0.5,0.1-0.8c0-4.2,0-8.4,0-12.6c0-0.1,0-0.3,0-0.4c0.1,0,0.2,0,0.3,0c1.8,0,3.6,0,5.5,0c0.8,0,1.3,0.4,1.3,1.3
			c0,4,0,8.1,0,12.1c0,0.2,0,0.3,0,0.6c0.6,0,1.1,0,1.7,0c0,0.7,0,1.5,0,2.2C29.4,34.7,19.3,34.7,9.2,34.7z M24.4,22
			c2.1,0,3.8-1.7,3.8-3.8c0-2.1-1.7-3.8-3.8-3.8c-2.1,0-3.8,1.7-3.8,3.8C20.6,20.3,22.2,22,24.4,22z M26.7,32.5c0-1.9,0-3.7,0-5.6
			c-1.5,0-3,0-4.5,0c0,1.9,0,3.7,0,5.6C23.7,32.5,25.2,32.5,26.7,32.5z M14.2,21.3c-0.5,0-1,0-1.5,0c0,0.5,0,1,0,1.5
			c0.5,0,1,0,1.5,0C14.2,22.3,14.2,21.8,14.2,21.3z M15,22.8c0.5,0,1,0,1.5,0c0-0.5,0-1,0-1.5c-0.5,0-1,0-1.5,0
			C15,21.9,15,22.3,15,22.8z M36.5,22.8c0-0.5,0-1,0-1.5c-0.5,0-1,0-1.5,0c0,0.5,0,1,0,1.5C35.5,22.8,36,22.8,36.5,22.8z M34.1,21.3
			c-0.5,0-1,0-1.5,0c0,0.5,0,1,0,1.5c0.5,0,1,0,1.5,0C34.1,22.3,34.1,21.8,34.1,21.3z M14.2,23.9c-0.5,0-1,0-1.5,0c0,0.5,0,1,0,1.5
			c0.5,0,0.9,0,1.4,0c0,0,0.1-0.1,0.1-0.2C14.2,24.9,14.2,24.4,14.2,23.9z M15,23.9c0,0.5,0,1,0,1.5c0.5,0,1,0,1.5,0
			c0-0.5,0-1,0-1.5C16,23.9,15.6,23.9,15,23.9z M35,23.9c0,0.5,0,1,0,1.5c0.5,0,1,0,1.5,0c0-0.5,0-1,0-1.5
			C36,23.9,35.5,23.9,35,23.9z M14.2,26.7c-0.5,0-1,0-1.5,0c0,0.5,0,1,0,1.5c0.5,0,1,0,1.5,0C14.2,27.6,14.2,27.1,14.2,26.7z
			 M16.5,28.1c0-0.5,0-1,0-1.5c-0.5,0-1,0-1.5,0c0,0.5,0,1,0,1.5C15.6,28.1,16,28.1,16.5,28.1z M36.5,26.6c-0.5,0-1,0-1.5,0
			c0,0.5,0,1,0,1.5c0.5,0,1,0,1.5,0C36.5,27.6,36.5,27.2,36.5,26.6z M32.6,25.4c0.5,0,1,0,1.5,0c0-0.5,0-1,0-1.5c-0.5,0-1,0-1.5,0
			C32.6,24.5,32.6,24.9,32.6,25.4z M34.1,28.1c0-0.5,0-1,0-1.5c-0.5,0-1,0-1.5,0c0,0.5,0,1,0,1.5C33.1,28.1,33.6,28.1,34.1,28.1z"/>
		<path class="st1" d="M22,17.3c0.5,0,0.9,0,1.4,0c0-0.5,0-1,0-1.4c0.6,0,1.2,0,1.9,0c0,0.5,0,0.9,0,1.4c0.5,0,1,0,1.4,0
			c0,0.6,0,1.2,0,1.9c-0.5,0-0.9,0-1.4,0c0,0.5,0,1,0,1.4c-0.6,0-1.2,0-1.9,0c0-0.5,0-0.9,0-1.4c-0.5,0-0.9,0-1.4,0
			C22,18.5,22,17.9,22,17.3z"/>
	</g>
</g>
</svg>
