<?xml version="1.0" encoding="utf-8"?>
<!-- Generator: Adobe Illustrator 24.1.1, SVG Export Plug-In . SVG Version: 6.00 Build 0)  -->
<svg version="1.1" id="Layer_1" xmlns="http://www.w3.org/2000/svg" xmlns:xlink="http://www.w3.org/1999/xlink" x="0px" y="0px"
	 width="48.7px" height="48.7px" viewBox="0 0 48.7 48.7" style="enable-background:new 0 0 48.7 48.7;" xml:space="preserve">
<style type="text/css">
	.st0{fill:none;stroke:#0071BC;stroke-miterlimit:10;}
	.st1{fill:#0071BC;}
</style>
<g>
	<circle class="st0" cx="24.4" cy="24.4" r="22.1"/>
	<g>
		<path class="st1" d="M19.7,33.5c0.1-0.1,0.3-0.3,0.3-0.4c0.1-1.8-1-3.6-2.8-4.2c0.2-2.4,0.8-4.6,3.2-5.8c-1.6-2.1-2.2-4.5-2.2-7.2
			c0.1-3,2.1-5.4,5-6.1c0.1,0,0.2-0.1,0.3-0.1c0.6,0,1.2,0,1.7,0c0.6,0.2,1.3,0.4,1.9,0.7c2.5,1.3,3.8,4,3.3,7.2
			c-0.3,2.3-0.7,3.4-2.1,5.4c0.6,0.7,1.3,1.3,1.9,2.1c0.5,0.7,0.8,1.6,1.2,2.5c-0.8,0.4-1.4,0.8-1.4,1.7c-0.1,0.9,0.5,1.8,1.4,2
			c0.9,0.2,1.9-0.3,2.2-1.2c0.3-0.9-0.1-1.9-1-2.2c-0.5-0.2-0.6-0.4-0.8-0.8c-0.4-1-1-2-1.4-2.9c1.5,0.8,2.9,2,4,3.5
			c1.2,1.7,2,3.6,2.2,5.6c0,0.3-0.1,0.6-0.3,0.8c-1.6,2.2-3.9,3.5-6.5,4.2c-4.4,1.1-8.9,1-13.1-0.8c-1.7-0.7-3.2-1.9-4.3-3.4
			c-0.1-0.2-0.3-0.5-0.2-0.7c0.5-3.9,2.3-6.9,5.7-9c0.1-0.1,0.2-0.1,0.4-0.1c-1,1.4-1.5,2.9-1.7,4.6c0,0.2-0.2,0.4-0.4,0.4
			c-1.4,0.6-2.2,2.6-2.1,4c0,0.4,0.3,0.8,0.5,1.2c0.1,0.1,0.3,0.2,0.5,0.2c0.1,0,0.3-0.3,0.3-0.4c0-0.1-0.2-0.4-0.3-0.4
			c-1-0.1-0.9-0.7-0.7-1.3c0.2-0.7,0.5-1.5,0.9-2.2c0.9-1.3,2.4-1.2,3.4,0C19.5,31.2,19.8,32.3,19.7,33.5c-0.2,0.1-0.5,0.1-0.7,0.2
			c-0.2,0.1-0.3,0.3-0.4,0.5c0,0.1,0.2,0.4,0.3,0.3c0.2,0,0.4-0.2,0.5-0.3C19.6,34,19.6,33.7,19.7,33.5z M19,17.5
			c0.3,2.4,1,4.4,2.8,5.9c1.6,1.3,3.5,1.3,5.1,0c1.1-0.9,1.9-2.1,2.3-3.5c0.3-1,0.5-2.1,0.7-3.1c-0.1,0-0.1,0-0.2-0.1
			c-0.2,0.2-0.4,0.3-0.5,0.4c-0.5-1.1-0.9-2.3-1.4-3.4c-2.2,1.4-4.3,1.1-6.5,0.3c-1-0.3-1.3-0.2-1.5,0.9c-0.1,0.6-0.1,1.3-0.1,1.9
			c0,0.3,0.1,0.6,0.1,1C19.6,17.7,19.4,17.6,19,17.5z M21.2,24.2c1,1.4,2,2.7,3,4.2c0.6-0.8,1.1-1.4,1.6-2.1c0.5-0.6,1-1.3,1.5-2
			C25.2,25.6,23.2,25.5,21.2,24.2z M28.2,32.8c0-0.4-0.1-0.8-0.1-1.2c-0.4,0-0.6,0-1,0c0,0.4-0.1,0.7-0.1,1.1
			c-0.4,0-0.8,0.1-1.2,0.1c0,0.3,0,0.6,0,0.9c0.4,0,0.8,0.1,1.2,0.1c0,0.4,0,0.8,0.1,1.1c0.4,0,0.7,0,1,0c0-0.4,0.1-0.8,0.1-1.1
			c0.4,0,0.7,0,1.1-0.1c0-0.3,0-0.6,0-1C28.9,32.9,28.6,32.9,28.2,32.8z"/>
		<path class="st1" d="M31.8,28.4c0.7,0,1.2,0.5,1.1,1.2c0,0.6-0.5,1.1-1.2,1.1c-0.7,0-1.2-0.5-1.2-1.2
			C30.6,28.9,31.1,28.4,31.8,28.4z"/>
	</g>
</g>
</svg>
