<?xml version="1.0" encoding="utf-8"?>
<!-- Generator: Adobe Illustrator 24.1.1, SVG Export Plug-In . SVG Version: 6.00 Build 0)  -->
<svg version="1.1" id="Layer_1" xmlns="http://www.w3.org/2000/svg" xmlns:xlink="http://www.w3.org/1999/xlink" x="0px" y="0px"
	 width="47.5px" height="47.5px" viewBox="0 0 47.5 47.5" style="enable-background:new 0 0 47.5 47.5;" xml:space="preserve">
<style type="text/css">
	.st0{fill:none;stroke:#0071BC;stroke-miterlimit:10;}
	.st1{fill:#0071BC;}
</style>
<g>
	<circle class="st0" cx="23.8" cy="23.8" r="22.1"/>
	<path class="st1" d="M29.3,29.1c0-0.6-0.1-1.2-0.1-1.9c-0.1-0.7-0.3-1.3-0.7-1.9c-0.7-1.3-1.8-2.1-3.1-2.7
		c-0.2-0.1-0.4-0.1-0.6-0.2c0,1.1,0.1,2.1,0.1,3.2c0.2,0.1,0.3,0.1,0.5,0.2c0.5,0.1,1,0.4,1.4,0.8c0.4,0.4,0.7,0.9,0.7,1.5
		c0,0.5,0,1,0,1.5c0,0.7,0,1.3,0,1.9c-0.3,0.4-0.6,0.6-0.9,0.5c-0.3-0.1-0.5-0.3-0.5-0.7c0.1-0.2,0.2-0.4,0.4-0.6c0-0.8,0-1.5,0-2.3
		c0-0.6-0.3-1.1-0.8-1.4c-1.1-0.7-2.6-0.3-3.2,0.7c0,0.4-0.1,0.9-0.1,1.4c0,0.5,0,1.1,0,1.6c0.1,0.1,0.2,0.2,0.2,0.3
		c0.2,0.3,0.2,0.5,0,0.7c-0.2,0.2-0.5,0.2-0.7,0.2c-0.4-0.1-0.6-0.4-0.6-0.9c0-1,0-2.1,0-3.1c0-0.5,0.2-0.9,0.5-1.3
		c0.4-0.5,0.9-0.8,1.5-1c0.2-0.1,0.3-0.1,0.5-0.2c0-0.7,0-1.4,0-2c0-0.4-0.1-0.8-0.1-1.2c0-0.3-0.2-0.5-0.6-0.6
		c-1,1.3-2.1,2.5-3.2,3.9c-1.1-1.3-2.1-2.6-3.2-3.9c-0.3,0.1-0.5,0.1-0.8,0.2c-0.1,0.5-0.3,0.9-0.3,1.4c0,1.5,0,2.9,0,4.4
		c0,0,0,0.1,0.1,0.1c0.6,0.3,0.9,0.8,1,1.5c-0.3,1-0.8,1.6-1.5,1.6c-0.6,0-1.3-0.4-1.6-1c-0.3-0.7-0.1-1.3,0.9-2.1
		c0-0.3,0.1-0.6,0.1-1c0-1.3,0-2.6,0-3.9c0-0.1,0-0.3,0-0.4c-1.2,0.5-2.2,1.1-3,2.1c-0.8,1-1.2,2.1-1.2,3.3c0,2.2,0,4.3,0,6.5
		c0,0.2,0,0.4,0,0.6c0.7,0.1,14.1,0.1,17.9,0c-0.4-0.7-0.5-1.5-0.5-2.3C27.7,31.3,28.3,30,29.3,29.1z"/>
	<path class="st1" d="M19.6,20.8c2.9,0.1,5.5-2.4,5.4-5.3c0.1-2.9-2.4-5.2-5-5.4c-2.9-0.2-5.5,2.2-5.6,5.3
		C14.4,18.4,16.8,20.7,19.6,20.8z"/>
	<g>
		<path class="st1" d="M32.7,28.8c2.2,0,4,1.8,4,4s-1.8,4-4,4c-1.5,0-2.9-0.8-3.6-2.2c-0.3-0.6-0.4-1.2-0.4-1.8
			c0-1.1,0.5-2.2,1.3-2.9C30.7,29.1,31.7,28.8,32.7,28.8 M32.7,28.2c-1.2,0-2.3,0.5-3.1,1.2c-0.9,0.8-1.4,2-1.4,3.3
			c0,0.7,0.2,1.4,0.5,2.1c0.8,1.5,2.3,2.5,4,2.5c2.5,0,4.5-2,4.5-4.5S35.2,28.2,32.7,28.2L32.7,28.2z"/>
	</g>
	<g>
		<path class="st1" d="M35.2,34.2c-0.3-0.2-0.5,0.2-0.7,0c0,0.1-0.1,0.2-0.1,0.4c-0.1,0-0.1,0-0.1-0.1c-0.2-0.3-0.2-0.3-0.5-0.1
			c-0.2,0.1-0.5,0.1-0.7,0c-0.1,0.1-0.2,0.1-0.3,0.2c0.2,0.1,0.4,0.2,0.6,0.2c0.3-0.2,0.3-0.2,0.5-0.1c0,0,0,0.1-0.1,0.1
			c-0.1,0.1-0.1,0.1-0.1,0.3c0,0.1,0.1,0.2-0.1,0.2c0,0-0.1-0.1-0.1-0.1c-0.1-0.2-0.2-0.2-0.4-0.3c-0.2-0.1-0.4-0.1-0.6-0.3
			c-0.1-0.1-0.3,0-0.4,0c-0.2,0-0.4,0.1-0.6,0.1c-0.5,0-0.7-0.3-0.7-0.7c0-0.1,0-0.1,0-0.2c-0.2,0-0.3,0-0.4-0.1
			c-0.2-0.1-0.3-0.2-0.4-0.3c-0.2-0.2-0.3-0.4-0.4-0.7c0,0-0.1-0.1-0.1-0.1c-0.3-0.3-0.2-0.7,0.1-1c0.1-0.1,0.2-0.2,0.3-0.4
			c0.1-0.3,0.3-0.4,0.5-0.5c0.1,0,0.2-0.1,0.2-0.2c0.2-0.3,0.5-0.4,0.9-0.3c0.2,0,0.3,0,0.5,0c0.4,0,0.7,0,1.1-0.1
			c0.2-0.1,1.2,0.2,1.4,0.3c0.1,0.1,0.2,0.1,0.2,0.2c0.2,0.2,0.3,0.4,0.5,0.6c0.1,0.1,0.1,0.3,0.2,0.4c0,0.2,0.1,0.4,0.3,0.5
			c0.3,0.1,0.4,0.4,0.3,0.7c0,0.1,0,0.3,0,0.4c0.1,0.4,0,0.7-0.4,0.9c-0.1,0-0.2,0.1-0.2,0.2c-0.1,0.3-0.3,0.4-0.6,0.5
			c-0.2,0-0.3,0.1-0.5,0.1c0,0-0.1,0-0.2-0.1c0,0,0-0.1,0.1-0.1c0.2,0,0.3-0.1,0.5-0.1C35,34.6,35.2,34.5,35.2,34.2z M35.9,32.7
			c-0.1-0.1-0.1-0.3-0.2-0.3c-0.4-0.1-0.4-0.4-0.5-0.7c0-0.1-0.1-0.2-0.2-0.3c-0.2-0.1-0.4-0.1-0.5-0.1c-0.1,0.1-0.1,0.2-0.1,0.3
			c-0.1-0.1-0.2-0.1-0.2-0.2c-0.1-0.2-0.1-0.4,0.1-0.5c0,0,0.1,0,0.1,0c0,0.1,0.1,0.1,0.1,0.2c0.1,0,0.1,0,0.2-0.1
			c-0.2-0.2-0.4-0.3-0.6-0.4c-0.2,0-0.4-0.1-0.6-0.1c-0.3-0.1-0.5,0-0.6,0.2c0,0,0,0-0.1,0c-0.1,0-0.1,0-0.1-0.1
			c-0.3-0.1-0.7-0.2-1,0.1c0,0-0.1,0-0.2,0c0,0,0-0.1,0-0.1c0,0,0-0.1,0-0.1c-0.3,0-0.5,0.1-0.6,0.3c0,0.1-0.1,0.1-0.2,0.2
			c-0.1,0.1-0.2,0.1-0.4,0.2c0,0,0,0.1,0,0.1c0.1,0,0.2,0,0.3,0c0.1,0,0.1,0,0.2,0.1c0,0.1,0,0.1-0.1,0.1c-0.1,0-0.1,0.1-0.2,0.1
			c-0.1,0-0.2,0-0.3,0c-0.1,0.2-0.2,0.3-0.3,0.4c0.3,0.2,0.4,0.3,0.3,0.5c-0.1-0.1-0.1-0.1-0.2-0.2c-0.1-0.1-0.2-0.1-0.3-0.1
			c-0.1,0.1-0.1,0.2,0,0.3c0,0,0,0.1,0,0.1c0.1,0,0.2,0,0.3,0.1c0,0.1-0.1,0.2-0.1,0.3c0.3,0.2,0.3,0.2,0.6-0.2c0-0.1,0-0.1,0-0.2
			c0-0.1,0-0.3,0.2-0.3c0,0,0.1,0,0.2,0c0,0.1,0,0.1,0,0.2c0,0.1-0.1,0.1-0.1,0.1c0.1,0.3,0.4,0.1,0.5,0.4c-0.1,0-0.2,0-0.3,0
			c-0.1,0-0.2,0-0.2,0.1c-0.1,0.2-0.3,0.3-0.5,0.4c0.2,0.2,0.3,0.3,0.5,0.4c0.2,0,0.3,0,0.5-0.1c0.2-0.2,0.2-0.1,0.3,0
			c-0.1,0-0.1,0.1-0.2,0.1c-0.2,0.1-0.2,0.4-0.2,0.6c0.1,0.2,0.2,0.3,0.5,0.3c0.1,0,0.3,0,0.4-0.1c0.1,0,0.3-0.1,0.4-0.1
			c0.2,0,0.5,0,0.6-0.3c0.1,0.1,0.2,0.1,0.3,0.1c0.1,0,0.1,0,0.2,0c0-0.1,0-0.1-0.1-0.2c0,0-0.1-0.1-0.2-0.1c0.1,0,0.2-0.1,0.2-0.1
			c0.2,0,0.2,0.2,0.3,0.4c0.2-0.1,0.3-0.1,0.5-0.2c0.2,0,0.3,0,0.5,0c0,0,0,0,0-0.1c0-0.1-0.1-0.2,0-0.2c0.1-0.1,0.1,0,0.2,0
			c0.1,0.1,0.2,0.1,0.3,0.2c0.2,0.1,0.4,0.1,0.6-0.1c0.2-0.2,0.2-0.4,0.1-0.6c0-0.1-0.1-0.2-0.1-0.3c0-0.1-0.1-0.1-0.1-0.2
			c0-0.1,0-0.2,0.1-0.3C35.7,32.5,35.8,32.6,35.9,32.7z"/>
		<path class="st1" d="M33.6,32.5c0.3,0.2,0.4,0.3,0.2,0.4c-0.1,0-0.1-0.1-0.2-0.1c-0.2,0.1-0.5,0.2-0.7,0.3c0,0,0,0.1,0,0.1
			c0,0-0.1,0.1-0.1,0.1c0,0-0.1-0.1-0.1-0.1c0-0.1,0-0.2,0-0.3c-0.1-0.2-0.3-0.3-0.2-0.5c-0.1-0.1-0.1-0.1-0.3-0.2
			c0.1,0,0.2-0.1,0.2-0.1c0.1,0,0.2,0,0.3,0c0.1,0,0.2-0.1,0.3-0.2c0.1-0.4,0.1-0.4,0.5-0.4c0,0,0.1,0,0.1,0c0.2,0,0.3-0.1,0.1-0.3
			c0-0.1-0.1-0.1-0.1-0.2c0-0.1,0-0.1,0.2-0.2c0.1,0.3,0.5,0.6,0.1,0.9c0.1,0.4,0.1,0.4-0.1,0.5c0-0.1,0-0.1-0.1-0.2
			c0-0.1-0.1-0.2-0.2-0.2c-0.1,0-0.2,0-0.2,0.2c0,0.2-0.1,0.3-0.3,0.4c-0.1,0.1-0.2,0.1-0.2,0.3c0,0.1,0.2,0.2,0.3,0.2
			c0.2,0,0.3-0.1,0.3-0.2c0-0.1,0-0.1,0-0.2c0-0.1,0.1-0.1,0.1-0.1c0,0,0.1,0.1,0.1,0.1C33.6,32.4,33.6,32.5,33.6,32.5z"/>
		<path class="st1" d="M33.5,33.4c-0.1,0.1-0.2,0.1-0.3,0.2c-0.1,0.1-0.2,0.1-0.3,0.2c0,0.1,0,0.2,0,0.4c0,0,0,0-0.1,0
			c-0.1-0.1-0.1-0.1-0.1-0.2c0-0.2-0.1-0.3-0.3-0.4c0-0.2,0.1-0.1,0.2-0.1c0.2,0,0.3,0,0.5-0.1c0.1-0.1,0.2-0.1,0.4-0.1
			c0.5-0.1,0.6-0.2,0.7-0.8c0-0.1,0-0.3,0-0.4c0.1-0.2,0.2-0.3,0.4-0.3c0.1,0,0.2,0,0.3,0c0.1,0,0.1,0,0.2,0
			c0.1,0.2-0.1,0.2-0.2,0.3c0,0.1,0,0.2,0,0.3c0,0-0.1,0.1-0.1,0.1c0,0-0.1,0-0.1-0.1c0-0.1,0-0.1,0-0.2c0-0.1-0.1-0.2-0.2-0.1
			c0,0.1,0,0.3,0,0.4c0,0.4-0.1,0.7-0.4,0.9c-0.1,0.1-0.1,0.2-0.1,0.3c0,0,0,0.1-0.1,0.2c-0.1,0-0.1,0-0.2-0.1
			C33.6,33.6,33.6,33.5,33.5,33.4z"/>
		<path class="st1" d="M31.4,32.4C31.4,32.4,31.4,32.3,31.4,32.4c0-0.5-0.2-0.7-0.6-0.6c-0.1,0-0.2,0-0.3,0c0-0.3,0.2-0.2,0.4-0.3
			c0.1-0.5,0.4-0.7,0.9-0.6c0.1,0,0.2,0.1,0.2,0.1c0,0.1-0.1,0.1-0.2,0.1c-0.1,0-0.2,0-0.3,0c-0.1,0-0.2,0.1-0.2,0.2
			c0,0.1,0.1,0.2,0.2,0.2c0.2,0.1,0.3,0.3,0.3,0.6C31.6,32.4,31.6,32.4,31.4,32.4z"/>
		<path class="st1" d="M34.1,33.8c-0.1-0.2-0.1-0.3,0.6-0.6c-0.1-0.3,0-0.4,0.3-0.6c0.1-0.1,0-0.2,0.1-0.4c0-0.1,0.1,0,0.2,0.1
			c0.1,0.1,0.1,0.3,0,0.4c0,0.1-0.1,0.1-0.2,0.2c-0.2,0.2-0.2,0.3,0,0.4c0.1,0.1,0.2,0.1,0.3,0.2c0,0,0,0.1,0,0.2c0,0-0.1,0-0.1,0
			C34.8,33.4,34.5,33.5,34.1,33.8C34.2,33.8,34.2,33.8,34.1,33.8z"/>
		<path class="st1" d="M32,30.7c0.2-0.2,0.3,0,0.4,0c0.2,0.1,0.3,0.3,0.2,0.6c0,0.1,0.1,0.2,0.1,0.3c0,0.1,0,0.1-0.1,0.2
			c0,0-0.1,0-0.1-0.1c-0.2-0.3-0.3-0.3-0.7-0.2c0,0,0,0,0,0c0,0.1,0,0.1,0,0.2c0,0-0.1,0-0.1,0c-0.1-0.1-0.1-0.1-0.2-0.2
			c0-0.2,0.1-0.3,0.3-0.3c0.1,0,0.2,0,0.3,0c0.1,0,0.2,0,0.2-0.1c0-0.1-0.1-0.2-0.1-0.2C32.2,30.9,32.1,30.8,32,30.7
			C32,30.8,32,30.8,32,30.7z"/>
		<path class="st1" d="M31.7,32.7c-0.1-0.2-0.1-0.4,0.1-0.5c0.1-0.1,0.1-0.2,0.2-0.3c0.1-0.1,0.2,0,0.2,0.1c0,0.1-0.1,0.2-0.1,0.3
			c0,0.1-0.1,0.1-0.2,0.2c0.1,0.1,0.2,0.1,0.3,0.2c0.1,0.1,0.2,0.2,0.2,0.4c0,0.1,0,0.2-0.2,0.2c0-0.1-0.1-0.2-0.1-0.3
			c-0.2,0-0.2,0.1-0.2,0.3c0,0.1,0,0.2-0.1,0.2c-0.1,0-0.1-0.1-0.1-0.2C31.6,33,31.7,32.9,31.7,32.7z"/>
		<path class="st1" d="M31.7,33.6c0.1-0.1,0.2-0.1,0.2-0.1c0.1,0.2,0.3,0.4,0.5,0.4c0,0,0,0,0,0c0,0,0,0.1,0,0.1c0,0-0.1,0-0.1,0
			c-0.2-0.2-0.3-0.1-0.5,0c-0.2,0.1-0.4,0.1-0.5-0.1c-0.1-0.1-0.1-0.2-0.1-0.2c0-0.1,0.1-0.2,0.1-0.2c0.1,0,0.1,0.1,0.1,0.2
			c0,0,0,0,0,0.1c0.1,0.1,0.3,0,0.4-0.1C31.8,33.8,31.8,33.7,31.7,33.6z"/>
		<path class="st1" d="M33.5,30.6c-0.1,0.1-0.2,0.1-0.4,0.2c0.2,0.1,0.3,0.2,0.4,0.2c0,0,0,0.1,0,0.1c-0.2,0.1-0.4,0.1-0.5,0.3
			c0,0-0.1,0-0.2,0c0,0-0.1-0.1-0.1-0.1c0,0,0-0.1,0.1-0.1c0.1,0,0.2-0.1,0.2-0.1c0-0.2,0-0.3,0-0.4c0-0.1,0.1-0.1,0.1-0.2
			C33.2,30.5,33.4,30.4,33.5,30.6z"/>
		<path class="st1" d="M30.9,33.3c-0.1,0-0.2,0-0.2-0.1c0,0-0.1-0.1-0.1-0.2c0,0,0.1-0.1,0.1,0c0.2,0.1,0.3,0,0.5-0.1
			c0,0,0.1,0,0.1,0c0,0.1,0,0.1,0,0.2C31.2,33.2,31.1,33.3,30.9,33.3z"/>
	</g>
</g>
</svg>
