<svg id="Layer_1" data-name="Layer 1" xmlns="http://www.w3.org/2000/svg" viewBox="0 0 2865.58 278.61"><defs><style>.cls-1{fill:#f96731;}.cls-2{fill:#2b9af3;}.cls-3{fill:#005979;}</style></defs><path d="M53,253.26a26.24,26.24,0,0,1-10.85,2c-11.59,0-20.31-7.32-20.31-20.79,0-12.87,8.72-21.59,21.46-21.59,5.12,0,8.35,1.1,9.76,1.83L51.74,219a19.25,19.25,0,0,0-8.29-1.71c-9.63,0-16,6.16-16,16.95,0,10.06,5.79,16.53,15.79,16.53a21.21,21.21,0,0,0,8.66-1.71Z"/><path d="M88.22,239.6c0,10.91-7.56,15.67-14.69,15.67-8,0-14.15-5.85-14.15-15.18,0-9.88,6.46-15.67,14.63-15.67C82.49,224.42,88.22,230.58,88.22,239.6Zm-23.42.3c0,6.46,3.72,11.34,9,11.34s9-4.82,9-11.46c0-5-2.5-11.34-8.84-11.34S64.8,234.3,64.8,239.9Z"/><path d="M97.08,233.08c0-3.05-.06-5.55-.24-8h4.76l.3,4.88H102a10.84,10.84,0,0,1,9.76-5.55c4.08,0,10.43,2.44,10.43,12.56V254.6h-5.37v-17c0-4.76-1.77-8.72-6.83-8.72a7.61,7.61,0,0,0-7.19,5.49,7.85,7.85,0,0,0-.36,2.5v17.75H97.09V233.08Z"/><path d="M133,233.08c0-3.05-.06-5.55-.24-8h4.76l.31,4.88H138a10.84,10.84,0,0,1,9.76-5.55c4.08,0,10.43,2.44,10.43,12.56V254.6h-5.37v-17c0-4.76-1.77-8.72-6.83-8.72a7.61,7.61,0,0,0-7.19,5.49,7.85,7.85,0,0,0-.36,2.5v17.75H133V233.08Z"/><path d="M171.94,240.82c.12,7.26,4.76,10.24,10.12,10.24a19.46,19.46,0,0,0,8.17-1.52l.92,3.84a24,24,0,0,1-9.82,1.83c-9.09,0-14.51-6-14.51-14.88s5.25-15.91,13.84-15.91c9.63,0,12.2,8.48,12.2,13.9a20.54,20.54,0,0,1-.18,2.5ZM187.67,237c.06-3.41-1.4-8.72-7.44-8.72-5.43,0-7.81,5-8.23,8.72Z"/><path d="M222.63,253.5a19.77,19.77,0,0,1-8.48,1.71c-8.9,0-14.7-6-14.7-15.06s6.22-15.67,15.86-15.67a18,18,0,0,1,7.44,1.52l-1.22,4.15a12.46,12.46,0,0,0-6.22-1.4c-6.77,0-10.43,5-10.43,11.16,0,6.83,4.39,11,10.25,11a15.3,15.3,0,0,0,6.59-1.46Z"/><path d="M237.47,216.61v8.48h7.68v4.08h-7.68v15.92c0,3.66,1,5.73,4,5.73a12.13,12.13,0,0,0,3.11-.36l.24,4a13.08,13.08,0,0,1-4.76.73,7.41,7.41,0,0,1-5.79-2.26c-1.52-1.59-2.07-4.21-2.07-7.68v-16.1h-4.57v-4.08h4.57V218Z"/><path d="M259.25,216.79a3.32,3.32,0,0,1-6.64,0,3.26,3.26,0,0,1,3.35-3.35A3.19,3.19,0,0,1,259.25,216.79Zm-6,37.81V225.09h5.37V254.6Z"/><path d="M269.62,233.08c0-3.05-.06-5.55-.24-8h4.76l.3,4.88h.12a10.84,10.84,0,0,1,9.76-5.55c4.08,0,10.43,2.44,10.43,12.56V254.6h-5.37v-17c0-4.76-1.77-8.72-6.83-8.72a7.61,7.61,0,0,0-7.19,5.49,7.85,7.85,0,0,0-.36,2.5v17.75h-5.37V233.08Z"/><path d="M331,225.09c-.12,2.13-.25,4.51-.25,8.11v17.13c0,6.77-1.34,10.91-4.21,13.48s-7,3.54-10.73,3.54c-3.54,0-7.44-.85-9.82-2.44l1.34-4.09a16.63,16.63,0,0,0,8.66,2.32c5.49,0,9.51-2.87,9.51-10.31v-3.29h-.12a10.53,10.53,0,0,1-9.39,4.94c-7.32,0-12.56-6.22-12.56-14.39,0-10,6.53-15.67,13.29-15.67,5.12,0,7.93,2.68,9.21,5.12H326l.24-4.45Zm-5.55,11.64a7.83,7.83,0,0,0-7.8-8.11c-5.12,0-8.78,4.33-8.78,11.16,0,5.79,2.93,10.61,8.72,10.61A7.84,7.84,0,0,0,325,244.9a9.21,9.21,0,0,0,.43-2.87v-5.3Z"/><path d="M356.93,213.5h5.31v36.65H379.8v4.45H356.93Z"/><path d="M393.59,216.79a3.32,3.32,0,0,1-6.64,0,3.26,3.26,0,0,1,3.35-3.35A3.19,3.19,0,0,1,393.59,216.79Zm-6,37.81V225.09H393V254.6Z"/><path d="M404.51,254.6V229.17h-4.15v-4.08h4.15v-1.4c0-4.15.92-7.93,3.42-10.31a10.26,10.26,0,0,1,7.19-2.75,12.55,12.55,0,0,1,4.57.85l-.73,4.15a7.93,7.93,0,0,0-3.41-.67c-4.57,0-5.73,4-5.73,8.54v1.59H417v4.08h-7.13V254.6Z"/><path d="M426.84,240.82c.12,7.26,4.75,10.24,10.12,10.24a19.46,19.46,0,0,0,8.17-1.52l.92,3.84a24,24,0,0,1-9.82,1.83c-9.09,0-14.51-6-14.51-14.88s5.25-15.91,13.84-15.91c9.63,0,12.2,8.48,12.2,13.9a20.54,20.54,0,0,1-.18,2.5ZM442.57,237c.06-3.41-1.4-8.72-7.44-8.72-5.43,0-7.81,5-8.23,8.72Z"/><path d="M471,248.14a18.83,18.83,0,0,0,9.51,2.68c5.43,0,8.6-2.86,8.6-7,0-3.84-2.19-6-7.74-8.17-6.71-2.38-10.86-5.85-10.86-11.65,0-6.4,5.31-11.16,13.29-11.16a18.77,18.77,0,0,1,9.09,2l-1.46,4.33a16.37,16.37,0,0,0-7.81-1.95c-5.61,0-7.74,3.35-7.74,6.16,0,3.84,2.5,5.73,8.17,7.93,6.95,2.68,10.49,6,10.49,12.07,0,6.34-4.69,11.83-14.39,11.83-4,0-8.29-1.16-10.49-2.62Z"/><path d="M524.69,253.5a19.77,19.77,0,0,1-8.48,1.71c-8.9,0-14.7-6-14.7-15.06s6.22-15.67,15.86-15.67a18,18,0,0,1,7.44,1.52l-1.22,4.15a12.46,12.46,0,0,0-6.22-1.4c-6.77,0-10.43,5-10.43,11.16,0,6.83,4.39,11,10.25,11a15.3,15.3,0,0,0,6.59-1.46Z"/><path d="M539,216.79a3.32,3.32,0,0,1-6.64,0,3.26,3.26,0,0,1,3.35-3.35A3.19,3.19,0,0,1,539,216.79Zm-6,37.81V225.09h5.37V254.6Z"/><path d="M552.4,240.82c.12,7.26,4.75,10.24,10.12,10.24a19.46,19.46,0,0,0,8.17-1.52l.92,3.84a24,24,0,0,1-9.82,1.83c-9.09,0-14.51-6-14.51-14.88s5.25-15.91,13.84-15.91c9.63,0,12.2,8.48,12.2,13.9a20.54,20.54,0,0,1-.18,2.5ZM568.13,237c.06-3.41-1.4-8.72-7.44-8.72-5.43,0-7.81,5-8.23,8.72Z"/><path d="M582.05,233.08c0-3.05-.06-5.55-.24-8h4.76l.31,4.88H587a10.84,10.84,0,0,1,9.76-5.55c4.08,0,10.43,2.44,10.43,12.56V254.6h-5.37v-17c0-4.76-1.77-8.72-6.83-8.72a7.61,7.61,0,0,0-7.19,5.49,7.85,7.85,0,0,0-.36,2.5v17.75h-5.37V233.08Z"/><path d="M639,253.5a19.77,19.77,0,0,1-8.48,1.71c-8.9,0-14.7-6-14.7-15.06s6.22-15.67,15.86-15.67a18,18,0,0,1,7.44,1.52l-1.22,4.15a12.46,12.46,0,0,0-6.22-1.4c-6.77,0-10.43,5-10.43,11.16,0,6.83,4.39,11,10.25,11a15.3,15.3,0,0,0,6.59-1.46Z"/><path d="M650.38,240.82c.12,7.26,4.76,10.24,10.12,10.24a19.46,19.46,0,0,0,8.17-1.52l.92,3.84a24,24,0,0,1-9.82,1.83c-9.09,0-14.51-6-14.51-14.88s5.25-15.91,13.84-15.91c9.63,0,12.2,8.48,12.2,13.9a20.54,20.54,0,0,1-.18,2.5ZM666.12,237c.06-3.41-1.4-8.72-7.44-8.72-5.43,0-7.81,5-8.23,8.72Z"/><path d="M679.3,249.11a14,14,0,0,0,7.08,2.13c3.9,0,5.73-2,5.73-4.39s-1.52-4-5.49-5.43c-5.31-1.89-7.81-4.82-7.81-8.35,0-4.75,3.84-8.66,10.18-8.66a14.7,14.7,0,0,1,7.26,1.83l-1.34,3.9a11.5,11.5,0,0,0-6-1.71c-3.17,0-4.94,1.83-4.94,4,0,2.44,1.77,3.54,5.61,5,5.12,2,7.74,4.51,7.74,8.9,0,5.18-4,8.84-11,8.84a16.81,16.81,0,0,1-8.29-2Z"/><path d="M724.27,240.82c.12,7.26,4.75,10.24,10.12,10.24a19.46,19.46,0,0,0,8.17-1.52l.92,3.84a24,24,0,0,1-9.82,1.83c-9.09,0-14.51-6-14.51-14.88s5.25-15.91,13.84-15.91c9.63,0,12.2,8.48,12.2,13.9a20.54,20.54,0,0,1-.18,2.5ZM740,237c.06-3.41-1.4-8.72-7.44-8.72-5.43,0-7.81,5-8.23,8.72Z"/><path d="M756.42,225.09l4.21,6.34c1.1,1.65,2,3.17,3,4.82h.18c1-1.77,2-3.29,2.93-4.88l4.15-6.28h5.79l-10.06,14.27L777,254.61h-6.1L766.55,248c-1.16-1.71-2.14-3.35-3.17-5.12h-.12c-1,1.77-2,3.35-3.11,5.12l-4.27,6.65H750l10.49-15.06-10-14.45h6Z"/><path d="M784.24,234.72c0-3.78-.12-6.83-.24-9.63h4.82l.25,5.06h.12a11.59,11.59,0,0,1,10.49-5.73c7.13,0,12.5,6,12.5,15,0,10.61-6.46,15.85-13.42,15.85a10.37,10.37,0,0,1-9.09-4.63h-.12v16h-5.31Zm5.31,7.87a12.23,12.23,0,0,0,.24,2.19,8.28,8.28,0,0,0,8.05,6.28c5.67,0,9-4.63,9-11.4,0-5.91-3.11-11-8.78-11a8.56,8.56,0,0,0-8.11,6.65,8.8,8.8,0,0,0-.36,2.19Z"/><path d="M824,240.82c.12,7.26,4.76,10.24,10.12,10.24a19.46,19.46,0,0,0,8.17-1.52l.92,3.84a24,24,0,0,1-9.82,1.83c-9.09,0-14.51-6-14.51-14.88s5.25-15.91,13.84-15.91c9.63,0,12.2,8.48,12.2,13.9a20.54,20.54,0,0,1-.18,2.5ZM839.75,237c.06-3.41-1.4-8.72-7.44-8.72-5.43,0-7.81,5-8.23,8.72Z"/><path d="M853.67,234.3c0-3.48-.06-6.46-.24-9.21h4.69l.18,5.79h.24c1.34-4,4.57-6.46,8.17-6.46a5.82,5.82,0,0,1,1.52.18v5.06a8.21,8.21,0,0,0-1.83-.18c-3.78,0-6.46,2.87-7.2,6.89a15.26,15.26,0,0,0-.24,2.5V254.6h-5.31V234.3Z"/><path d="M882.16,216.61v8.48h7.68v4.08h-7.68v15.92c0,3.66,1,5.73,4,5.73a12.13,12.13,0,0,0,3.11-.36l.24,4a13.08,13.08,0,0,1-4.76.73A7.41,7.41,0,0,1,879,253c-1.52-1.59-2.07-4.21-2.07-7.68v-16.1h-4.57v-4.08h4.57V218Z"/><path d="M897.23,249.11a14,14,0,0,0,7.08,2.13c3.9,0,5.73-2,5.73-4.39s-1.52-4-5.49-5.43c-5.31-1.89-7.81-4.82-7.81-8.35,0-4.75,3.84-8.66,10.18-8.66a14.7,14.7,0,0,1,7.26,1.83l-1.34,3.9a11.5,11.5,0,0,0-6-1.71c-3.17,0-4.94,1.83-4.94,4,0,2.44,1.77,3.54,5.61,5,5.12,2,7.74,4.51,7.74,8.9,0,5.18-4,8.84-11,8.84a16.81,16.81,0,0,1-8.29-2Z"/><path d="M21.8,188.53V11.31H43.56V112.37l51.5-52.22h28.17L74.15,107.78l54,80.75H101.35L58.92,122.89,43.57,137.64v50.89Z"/><path d="M283.15,188.53V60.15h19.58V78.4q14.14-21.15,40.86-21.16a53.62,53.62,0,0,1,21.34,4.17q9.74,4.17,14.57,10.94a42,42,0,0,1,6.77,16.08q1.2,6,1.21,21.16v78.94H365.72V110.44q0-13.29-2.54-19.89a20.88,20.88,0,0,0-9-10.51A28.64,28.64,0,0,0,339,76.11a35.27,35.27,0,0,0-24,8.82q-10.1,8.82-10.09,33.49v70.11Z"/><path d="M508.73,147.19,531.21,150q-5.33,19.71-19.7,30.58t-36.75,10.88q-28.17,0-44.67-17.35t-16.5-48.66q0-32.4,16.68-50.29t43.28-17.89q25.76,0,42.07,17.53t16.32,49.32c0,1.29,0,3.22-.12,5.8H436.08q1.2,21.15,12,32.4t26.84,11.24q12,0,20.43-6.29T508.73,147.19ZM437.29,112H509q-1.46-16.2-8.22-24.3-10.39-12.57-27-12.57-15,0-25.2,10T437.29,112Z"/><path d="M642.31,141.5l21.4,2.78q-3.51,22.13-18,34.64t-35.48,12.51q-26.35,0-42.37-17.23t-16-49.38q0-20.79,6.89-36.39a48,48,0,0,1,21-23.39,62.2,62.2,0,0,1,30.64-7.8q20.91,0,34.21,10.58t17,30l-21.16,3.26q-3-12.93-10.7-19.46a27.7,27.7,0,0,0-18.56-6.53q-16.44,0-26.71,11.79t-10.28,37.29q0,25.88,9.91,37.6T610,173.54q12.81,0,21.4-7.86T642.31,141.5Z"/><path d="M729.83,169.07,733,188.29a80.72,80.72,0,0,1-16.44,1.93q-11.85,0-18.37-3.75a21,21,0,0,1-9.19-9.85q-2.65-6.1-2.66-25.69V77.07h-16V60.15h16V28.35L708,15.29V60.14h21.88V77.06H708v75.07q0,9.31,1.15,12a9,9,0,0,0,3.75,4.23q2.6,1.57,7.43,1.57A69.37,69.37,0,0,0,729.83,169.07Z"/><path d="M834.88,172.69Q822.79,183,811.61,187.2a67.31,67.31,0,0,1-24,4.23q-21.15,0-32.52-10.33t-11.36-26.41A35.15,35.15,0,0,1,748,137.46,35.5,35.5,0,0,1,759.26,125a52.85,52.85,0,0,1,15.65-7.13,153.89,153.89,0,0,1,19.34-3.26q26.36-3.14,38.8-7.49c.08-3,.12-4.88.12-5.68q0-13.29-6.17-18.74-8.34-7.37-24.78-7.37-15.36,0-22.67,5.38t-10.82,19l-21.28-2.9q2.89-13.67,9.55-22.06T776.22,61.8q12.57-4.53,29.13-4.53t26.72,3.87q10.27,3.87,15.11,9.73A34.25,34.25,0,0,1,854,85.68Q855,91.25,855,105.75v29q0,30.35,1.39,38.38a48.43,48.43,0,0,0,5.5,15.41H839.2A47.3,47.3,0,0,1,834.88,172.69Zm-1.81-48.59q-11.85,4.83-35.54,8.22-13.42,1.94-19,4.35a18.88,18.88,0,0,0-8.58,7.07,19.25,19.25,0,0,0,3.57,24.85q6.59,5.81,19.28,5.8a44.81,44.81,0,0,0,22.36-5.5,33.91,33.91,0,0,0,14.39-15q3.51-7.36,3.51-21.76v-8Z"/><path d="M888.55,188.53V60.15h19.58V79.61q7.5-13.67,13.84-18a24.15,24.15,0,0,1,14-4.35q11,0,22.36,7L950.8,84.45a31.17,31.17,0,0,0-16-4.71A20.69,20.69,0,0,0,922,84a23.22,23.22,0,0,0-8.1,11.91,84.71,84.71,0,0,0-3.63,25.39v67.21H888.55Z"/><circle class="cls-1" cx="197.48" cy="176.26" r="12.21"/><circle class="cls-1" cx="197.48" cy="69.46" r="12.21"/><path class="cls-2" d="M185.39,162.87a41.79,41.79,0,0,1,0-80A18,18,0,0,1,182,60.21a0,0,0,0,0,0-.05,64.59,64.59,0,0,0,0,125.4s.05,0,0-.05a18,18,0,0,1,3.41-22.64Z"/><path class="cls-2" d="M212.92,60.14a18,18,0,0,1-3.35,22.71,41.79,41.79,0,0,1,0,80,18,18,0,0,1,3.36,22.71,64.59,64.59,0,0,0,0-125.44Z"/><path d="M1014.83,39.42c0,16-12.53,28.5-28.84,28.5-16.14,0-29-12.53-29-28.5,0-15.62,12.88-28.15,29-28.15C1002.3,11.26,1014.83,23.79,1014.83,39.42Zm-50.64,0c0,12.53,9.27,22.49,22,22.49,12.36,0,21.46-10,21.46-22.32,0-12.53-9.1-22.66-21.63-22.66S964.19,27.06,964.19,39.42Zm17.34,14.76H975V26a57.35,57.35,0,0,1,10.81-.86c5.32,0,7.72.86,9.79,2.06a7.82,7.82,0,0,1,2.75,6.18c0,3.09-2.4,5.49-5.84,6.52v.34c2.75,1,4.29,3.09,5.15,6.87.86,4.29,1.37,6,2.06,7h-7c-.86-1-1.37-3.6-2.23-6.87-.51-3.09-2.23-4.46-5.84-4.46h-3.09V54.18Zm.17-16h3.09c3.61,0,6.52-1.2,6.52-4.12,0-2.58-1.89-4.29-6-4.29a15.82,15.82,0,0,0-3.61.34v8.07Z"/><path class="cls-3" d="M1149.3,76.34a25.72,25.72,0,0,1-.2,3.38,9.89,9.89,0,0,1-.61,2.42,3,3,0,0,1-1,1.36,2.3,2.3,0,0,1-1.31.4c-.81,0-2.15-.64-4-1.92a63.68,63.68,0,0,0-7.57-4.24,71.06,71.06,0,0,0-11.35-4.24,56.67,56.67,0,0,0-15.69-1.92,45.87,45.87,0,0,0-19.38,3.94,41.87,41.87,0,0,0-14.53,10.9,48.74,48.74,0,0,0-9.13,16.55,65.65,65.65,0,0,0-3.18,20.79,65.48,65.48,0,0,0,3.48,22.2,47.2,47.2,0,0,0,9.64,16.35,40,40,0,0,0,14.68,10.09,49.62,49.62,0,0,0,18.72,3.43,53.58,53.58,0,0,0,12.26-1.46,45.77,45.77,0,0,0,11.56-4.39v-38h-30.28a2.73,2.73,0,0,1-2.57-1.72,12.59,12.59,0,0,1-.86-5.35,23.51,23.51,0,0,1,.2-3.28,6.64,6.64,0,0,1,.66-2.22,3.38,3.38,0,0,1,1.06-1.26,2.65,2.65,0,0,1,1.51-.4h41.48a6.68,6.68,0,0,1,2.22.4,6.25,6.25,0,0,1,2,1.21,5.18,5.18,0,0,1,1.41,2.22,9.49,9.49,0,0,1,.5,3.23v49.75a10.45,10.45,0,0,1-.91,4.54,7.88,7.88,0,0,1-3.83,3.38,75.7,75.7,0,0,1-7.57,3.18,89.68,89.68,0,0,1-9.59,2.93,84.61,84.61,0,0,1-20,2.43,73.31,73.31,0,0,1-27-4.69,55.08,55.08,0,0,1-20.13-13.37,58.55,58.55,0,0,1-12.57-20.79,79.82,79.82,0,0,1-4.34-27.05,80.25,80.25,0,0,1,4.69-28.16,61.55,61.55,0,0,1,13.22-21.5,59,59,0,0,1,20.49-13.78,69.35,69.35,0,0,1,26.49-4.89,71.9,71.9,0,0,1,14,1.31,90,90,0,0,1,11.66,3.08,47.81,47.81,0,0,1,8.58,3.83,26.43,26.43,0,0,1,4.79,3.38,7.13,7.13,0,0,1,1.82,3A18.64,18.64,0,0,1,1149.3,76.34Z"/><path class="cls-3" d="M1279.38,183a12.63,12.63,0,0,1,.86,3.58,2.48,2.48,0,0,1-.76,2.07,4.93,4.93,0,0,1-2.67.91c-1.25.13-2.91.2-5,.2s-3.75-.05-5-.15a11.54,11.54,0,0,1-2.83-.5,2.9,2.9,0,0,1-1.41-1,8,8,0,0,1-.86-1.51l-11.2-31.79h-54.3l-10.7,31.39a5,5,0,0,1-.81,1.56,4,4,0,0,1-1.46,1.11,9.21,9.21,0,0,1-2.72.66,43.35,43.35,0,0,1-4.59.2,36.68,36.68,0,0,1-4.79-.25,4.79,4.79,0,0,1-2.62-1,2.58,2.58,0,0,1-.71-2.07,12.29,12.29,0,0,1,.86-3.58l43.8-121.31a5.36,5.36,0,0,1,1.06-1.82,4.43,4.43,0,0,1,1.92-1.11,14.42,14.42,0,0,1,3.23-.55c1.31-.1,3-.15,5-.15s3.94.05,5.35.15a16.37,16.37,0,0,1,3.43.55,4.59,4.59,0,0,1,2,1.16,5.4,5.4,0,0,1,1.11,1.87ZM1223.17,75.93h-.1L1200.56,141H1246Z"/><path class="cls-3" d="M1371.33,152.53a38,38,0,0,1-3.38,16.35,35,35,0,0,1-9.39,12.16,40.59,40.59,0,0,1-14.13,7.52,58.82,58.82,0,0,1-17.51,2.52,62.58,62.58,0,0,1-12.16-1.11,66.29,66.29,0,0,1-10-2.73,49.15,49.15,0,0,1-7.37-3.33,19.17,19.17,0,0,1-4.14-2.93,7.45,7.45,0,0,1-1.72-3.08,18.08,18.08,0,0,1-.56-5,28.48,28.48,0,0,1,.2-3.68,8.72,8.72,0,0,1,.61-2.37,2.6,2.6,0,0,1,1-1.26,2.68,2.68,0,0,1,1.41-.35,8.23,8.23,0,0,1,4,1.72,60.26,60.26,0,0,0,6.61,3.73,63.7,63.7,0,0,0,9.74,3.78,44.47,44.47,0,0,0,13.17,1.77,33.45,33.45,0,0,0,10.34-1.51,24.3,24.3,0,0,0,8.07-4.29,18.56,18.56,0,0,0,5.2-6.81,22.15,22.15,0,0,0,1.82-9.18,17.25,17.25,0,0,0-2.52-9.49,25.35,25.35,0,0,0-6.66-6.91,58.66,58.66,0,0,0-9.44-5.45l-10.85-5a120.81,120.81,0,0,1-10.8-5.7,45.56,45.56,0,0,1-9.39-7.37,34.19,34.19,0,0,1-6.71-9.94,33,33,0,0,1-2.57-13.68,34.13,34.13,0,0,1,3-14.58,30,30,0,0,1,8.28-10.75,36.91,36.91,0,0,1,12.62-6.61,53.14,53.14,0,0,1,15.79-2.27,50.82,50.82,0,0,1,8.73.76,59.32,59.32,0,0,1,8.28,2,44.86,44.86,0,0,1,6.91,2.83,17.8,17.8,0,0,1,4,2.52,7.58,7.58,0,0,1,1.26,1.51,5.6,5.6,0,0,1,.5,1.41,14,14,0,0,1,.3,2.07c.07.81.1,1.85.1,3.13a30.91,30.91,0,0,1-.15,3.23,12.52,12.52,0,0,1-.45,2.37,2.86,2.86,0,0,1-.86,1.41,2,2,0,0,1-1.26.46,8.14,8.14,0,0,1-3.48-1.41c-1.58-.94-3.52-2-5.8-3.18a51.58,51.58,0,0,0-8.12-3.23,35.54,35.54,0,0,0-10.55-1.46,28,28,0,0,0-9.49,1.46,19.46,19.46,0,0,0-6.66,3.89,15.52,15.52,0,0,0-3.94,5.75,19,19,0,0,0-1.31,7.06,17.07,17.07,0,0,0,2.52,9.39,25.7,25.7,0,0,0,6.71,7,59.24,59.24,0,0,0,9.54,5.55q5.36,2.52,10.9,5.1t10.9,5.65a45.38,45.38,0,0,1,9.54,7.27,33,33,0,0,1,6.76,9.89A32.44,32.44,0,0,1,1371.33,152.53Z"/><path class="cls-3" d="M1476.59,66a24.6,24.6,0,0,1-.2,3.33,7,7,0,0,1-.66,2.27,3.14,3.14,0,0,1-1.11,1.26,2.74,2.74,0,0,1-1.46.4h-36.74V186.54a2.53,2.53,0,0,1-.4,1.41,2.75,2.75,0,0,1-1.41,1,14.88,14.88,0,0,1-2.67.61,34.82,34.82,0,0,1-8.33,0,15,15,0,0,1-2.72-.61,2.71,2.71,0,0,1-1.41-1,2.46,2.46,0,0,1-.4-1.41V73.31h-36.74a2.69,2.69,0,0,1-1.46-.4,2.85,2.85,0,0,1-1.06-1.26,9.28,9.28,0,0,1-.66-2.27,19,19,0,0,1-.25-3.33,19.85,19.85,0,0,1,.25-3.38,10.25,10.25,0,0,1,.66-2.37,2.79,2.79,0,0,1,1.06-1.31,2.72,2.72,0,0,1,1.46-.4h90.83a2.78,2.78,0,0,1,1.46.4,3.12,3.12,0,0,1,1.11,1.31,7.94,7.94,0,0,1,.66,2.37A27.57,27.57,0,0,1,1476.59,66Z"/><path class="cls-3" d="M1582.56,186.54a3.12,3.12,0,0,1-.3,1.41,2.37,2.37,0,0,1-1.31,1,11.34,11.34,0,0,1-2.83.61,47.32,47.32,0,0,1-4.84.2,38.07,38.07,0,0,1-4.29-.2,9,9,0,0,1-2.67-.66,3.58,3.58,0,0,1-1.56-1.26,8.09,8.09,0,0,1-1-2l-12-30.78q-2.11-5.25-4.39-9.64a30.73,30.73,0,0,0-5.4-7.57,22.25,22.25,0,0,0-7.37-4.95,26.4,26.4,0,0,0-10.19-1.77h-11.61v55.61a2.23,2.23,0,0,1-.46,1.41,3,3,0,0,1-1.41,1,13.63,13.63,0,0,1-2.62.61,35.24,35.24,0,0,1-8.38,0,14.88,14.88,0,0,1-2.67-.61,2.75,2.75,0,0,1-1.41-1,2.46,2.46,0,0,1-.4-1.41V65.64c0-2.62.69-4.46,2.07-5.5a7.17,7.17,0,0,1,4.39-1.56h27.75q4.95,0,8.23.25c2.19.17,4.15.35,5.9.56a49.85,49.85,0,0,1,13.37,4.14,31.48,31.48,0,0,1,9.74,7.17,28.93,28.93,0,0,1,5.9,9.94,37.13,37.13,0,0,1,2,12.36,36.41,36.41,0,0,1-1.77,11.76,28.36,28.36,0,0,1-5.1,9.18,33.73,33.73,0,0,1-8,6.91,51.47,51.47,0,0,1-10.39,5,24.8,24.8,0,0,1,5.85,3.58,30.13,30.13,0,0,1,4.89,5.2,49.41,49.41,0,0,1,4.29,7c1.35,2.62,2.69,5.59,4,8.88l11.71,28.76q1.41,3.63,1.82,5.1A9.92,9.92,0,0,1,1582.56,186.54ZM1556.42,94.8a23.35,23.35,0,0,0-3.43-13q-3.43-5.3-11.51-7.62a32.58,32.58,0,0,0-5.7-1c-2.12-.2-4.89-.3-8.33-.3h-14.63v44h17a37.33,37.33,0,0,0,11.86-1.67,23.51,23.51,0,0,0,8.33-4.64,18.11,18.11,0,0,0,4.9-7A24.33,24.33,0,0,0,1556.42,94.8Z"/><path class="cls-3" d="M1715.07,122.36a101.65,101.65,0,0,1-3.73,28.56,59.89,59.89,0,0,1-11.15,21.65,48.71,48.71,0,0,1-18.62,13.73q-11.21,4.78-26.14,4.79-14.73,0-25.48-4.39a44.74,44.74,0,0,1-17.76-12.77,54.44,54.44,0,0,1-10.45-20.79,107.48,107.48,0,0,1-3.43-28.56A98.74,98.74,0,0,1,1602,96.52a58.42,58.42,0,0,1,11.2-21.45,49.47,49.47,0,0,1,18.67-13.62q11.21-4.79,26.14-4.79,14.43,0,25.13,4.34A45.48,45.48,0,0,1,1701,73.67a53.82,53.82,0,0,1,10.6,20.59A103,103,0,0,1,1715.07,122.36Zm-18.37,1.21a102.3,102.3,0,0,0-2-20.64,47.38,47.38,0,0,0-6.55-16.55,31.55,31.55,0,0,0-12.25-10.95q-7.67-3.93-19-3.94t-19,4.24A35.63,35.63,0,0,0,1625.58,87a47.11,47.11,0,0,0-6.86,16.5,92.32,92.32,0,0,0-2.07,19.83,109.88,109.88,0,0,0,1.91,21.19,47.32,47.32,0,0,0,6.45,16.7,30.85,30.85,0,0,0,12.15,10.9q7.6,3.89,19.1,3.89t19.15-4.24a34.46,34.46,0,0,0,12.5-11.46,48.38,48.38,0,0,0,6.75-16.7A96.57,96.57,0,0,0,1696.7,123.57Z"/><path class="cls-3" d="M1815.18,182a22.7,22.7,0,0,1-.2,3.18,6.67,6.67,0,0,1-.71,2.27,3.43,3.43,0,0,1-1.16,1.31,2.74,2.74,0,0,1-1.46.4H1749a7.17,7.17,0,0,1-4.39-1.56c-1.38-1-2.07-2.88-2.07-5.5V65.64c0-2.62.69-4.46,2.07-5.5a7.17,7.17,0,0,1,4.39-1.56h62a2.81,2.81,0,0,1,1.46.4,2.84,2.84,0,0,1,1.06,1.31,10.33,10.33,0,0,1,.66,2.27,18.9,18.9,0,0,1,.25,3.38,18.48,18.48,0,0,1-.25,3.18,9.23,9.23,0,0,1-.66,2.22,2.85,2.85,0,0,1-1.06,1.26,2.72,2.72,0,0,1-1.46.4h-51.07v41h43.8a2.5,2.5,0,0,1,1.46.45,3.61,3.61,0,0,1,1.11,1.26,6.66,6.66,0,0,1,.66,2.22,24.6,24.6,0,0,1,.2,3.33,21.65,21.65,0,0,1-.2,3.13,6.24,6.24,0,0,1-.66,2.12,2.77,2.77,0,0,1-1.11,1.16,3,3,0,0,1-1.46.35h-43.8v46.73h51.77a2.78,2.78,0,0,1,1.46.4,3.57,3.57,0,0,1,1.16,1.26,6.17,6.17,0,0,1,.71,2.22A25,25,0,0,1,1815.18,182Z"/><path class="cls-3" d="M1942.14,182a7.88,7.88,0,0,1-.68,3.43,6.69,6.69,0,0,1-1.77,2.32,6.84,6.84,0,0,1-2.45,1.31,9.46,9.46,0,0,1-2.71.4h-5.74a18.62,18.62,0,0,1-4.75-.55,10.56,10.56,0,0,1-3.86-2,19.75,19.75,0,0,1-3.65-4,52.15,52.15,0,0,1-3.88-6.46l-39.84-74.28q-3.12-5.75-6.3-12.06t-5.91-12.26h-.2c.13,4.84.24,9.79.3,14.84s.1,10.06.1,15v78.82a2.4,2.4,0,0,1-.43,1.36,2.67,2.67,0,0,1-1.44,1,15,15,0,0,1-2.66.61,35.57,35.57,0,0,1-8.42,0,13.69,13.69,0,0,1-2.61-.61,2.66,2.66,0,0,1-1.38-1,2.51,2.51,0,0,1-.43-1.36V66q0-4,2.29-5.75a8.19,8.19,0,0,1,5-1.72h8.54a21.71,21.71,0,0,1,5,.5,10.57,10.57,0,0,1,3.65,1.67,14.23,14.23,0,0,1,3.13,3.23,43.27,43.27,0,0,1,3.17,5.2l30.63,57.32q2.83,5.25,5.46,10.24c1.75,3.33,3.45,6.61,5.07,9.84s3.24,6.41,4.83,9.54,3.17,6.27,4.73,9.44h.1q-.21-8-.25-16.6t0-16.6V61.5a2.19,2.19,0,0,1,.43-1.31,3.38,3.38,0,0,1,1.44-1.06,9.62,9.62,0,0,1,2.66-.66,38.08,38.08,0,0,1,4.31-.2,36.22,36.22,0,0,1,4.05.2,8.7,8.7,0,0,1,2.66.66,3.41,3.41,0,0,1,1.38,1.06,2.25,2.25,0,0,1,.43,1.31V182Z"/><path class="cls-3" d="M2058.71,66a24.6,24.6,0,0,1-.2,3.33,7,7,0,0,1-.66,2.27,3.14,3.14,0,0,1-1.11,1.26,2.74,2.74,0,0,1-1.46.4h-36.74V186.54a2.53,2.53,0,0,1-.4,1.41,2.75,2.75,0,0,1-1.41,1,14.88,14.88,0,0,1-2.67.61,34.82,34.82,0,0,1-8.33,0,15,15,0,0,1-2.72-.61,2.71,2.71,0,0,1-1.41-1,2.46,2.46,0,0,1-.4-1.41V73.31h-36.74a2.69,2.69,0,0,1-1.46-.4,2.85,2.85,0,0,1-1.06-1.26,9.28,9.28,0,0,1-.66-2.27,19,19,0,0,1-.25-3.33,19.85,19.85,0,0,1,.25-3.38,10.25,10.25,0,0,1,.66-2.37A2.79,2.79,0,0,1,1963,59a2.72,2.72,0,0,1,1.46-.4h90.83a2.78,2.78,0,0,1,1.46.4,3.12,3.12,0,0,1,1.11,1.31,7.94,7.94,0,0,1,.66,2.37A27.57,27.57,0,0,1,2058.71,66Z"/><path class="cls-3" d="M2150.24,182a22.7,22.7,0,0,1-.2,3.18,6.67,6.67,0,0,1-.71,2.27,3.43,3.43,0,0,1-1.16,1.31,2.74,2.74,0,0,1-1.46.4H2084a7.17,7.17,0,0,1-4.39-1.56c-1.38-1-2.07-2.88-2.07-5.5V65.64c0-2.62.69-4.46,2.07-5.5a7.17,7.17,0,0,1,4.39-1.56h62a2.81,2.81,0,0,1,1.46.4,2.84,2.84,0,0,1,1.06,1.31,10.33,10.33,0,0,1,.66,2.27,18.9,18.9,0,0,1,.25,3.38,18.48,18.48,0,0,1-.25,3.18,9.23,9.23,0,0,1-.66,2.22,2.85,2.85,0,0,1-1.06,1.26,2.72,2.72,0,0,1-1.46.4h-51.07v41h43.8a2.5,2.5,0,0,1,1.46.45,3.61,3.61,0,0,1,1.11,1.26,6.66,6.66,0,0,1,.66,2.22,24.6,24.6,0,0,1,.2,3.33,21.65,21.65,0,0,1-.2,3.13,6.24,6.24,0,0,1-.66,2.12,2.77,2.77,0,0,1-1.11,1.16,3,3,0,0,1-1.46.35h-43.8v46.73h51.77a2.78,2.78,0,0,1,1.46.4,3.57,3.57,0,0,1,1.16,1.26,6.17,6.17,0,0,1,.71,2.22A23.45,23.45,0,0,1,2150.24,182Z"/><path class="cls-3" d="M2265.6,186.54a3.12,3.12,0,0,1-.3,1.41,2.37,2.37,0,0,1-1.31,1,11.34,11.34,0,0,1-2.83.61,47.32,47.32,0,0,1-4.84.2,38.07,38.07,0,0,1-4.29-.2,9,9,0,0,1-2.67-.66,3.58,3.58,0,0,1-1.56-1.26,8.09,8.09,0,0,1-1-2l-12-30.78q-2.11-5.25-4.39-9.64a30.73,30.73,0,0,0-5.4-7.57,22.25,22.25,0,0,0-7.37-4.95,26.4,26.4,0,0,0-10.19-1.77h-11.61v55.61a2.23,2.23,0,0,1-.46,1.41,3,3,0,0,1-1.41,1,13.63,13.63,0,0,1-2.62.61,35.24,35.24,0,0,1-8.38,0,14.88,14.88,0,0,1-2.67-.61,2.75,2.75,0,0,1-1.41-1,2.46,2.46,0,0,1-.4-1.41V65.64c0-2.62.69-4.46,2.07-5.5a7.17,7.17,0,0,1,4.39-1.56h27.75q5,0,8.23.25c2.19.17,4.15.35,5.9.56a49.85,49.85,0,0,1,13.37,4.14A31.48,31.48,0,0,1,2250,70.7a28.93,28.93,0,0,1,5.9,9.94,37.13,37.13,0,0,1,2,12.36,36.41,36.41,0,0,1-1.77,11.76,28.36,28.36,0,0,1-5.1,9.18,33.73,33.73,0,0,1-8,6.91,51.47,51.47,0,0,1-10.39,5,24.8,24.8,0,0,1,5.85,3.58,30.13,30.13,0,0,1,4.89,5.2,49.41,49.41,0,0,1,4.29,7c1.35,2.62,2.69,5.59,4,8.88l11.71,28.76q1.41,3.63,1.82,5.1A9.92,9.92,0,0,1,2265.6,186.54ZM2239.46,94.8a23.35,23.35,0,0,0-3.43-13q-3.44-5.3-11.51-7.62a32.58,32.58,0,0,0-5.7-1c-2.12-.2-4.89-.3-8.33-.3h-14.63v44h16.95a37.33,37.33,0,0,0,11.86-1.67,23.51,23.51,0,0,0,8.33-4.64,18.11,18.11,0,0,0,4.9-7A24.12,24.12,0,0,0,2239.46,94.8Z"/><path class="cls-3" d="M2398.11,122.36a101.65,101.65,0,0,1-3.73,28.56,59.89,59.89,0,0,1-11.15,21.65,48.71,48.71,0,0,1-18.62,13.73q-11.21,4.78-26.14,4.79-14.73,0-25.48-4.39a44.74,44.74,0,0,1-17.76-12.77,54.44,54.44,0,0,1-10.45-20.79,107.48,107.48,0,0,1-3.43-28.56,98.74,98.74,0,0,1,3.73-28.06,58.42,58.42,0,0,1,11.2-21.45A49.47,49.47,0,0,1,2315,61.45q11.21-4.79,26.14-4.79,14.43,0,25.13,4.34A45.48,45.48,0,0,1,2384,73.67a53.82,53.82,0,0,1,10.6,20.59A103,103,0,0,1,2398.11,122.36Zm-18.37,1.21a102.3,102.3,0,0,0-2-20.64,47.38,47.38,0,0,0-6.55-16.55A31.55,31.55,0,0,0,2359,75.43q-7.66-3.93-18.95-3.94t-18.95,4.24A35.63,35.63,0,0,0,2308.62,87a47.11,47.11,0,0,0-6.86,16.5,92.32,92.32,0,0,0-2.07,19.83,109.88,109.88,0,0,0,1.91,21.19,47.32,47.32,0,0,0,6.45,16.7,30.85,30.85,0,0,0,12.15,10.9q7.61,3.89,19.1,3.89t19.15-4.24a34.46,34.46,0,0,0,12.5-11.46,48.38,48.38,0,0,0,6.75-16.7A96.57,96.57,0,0,0,2379.74,123.57Z"/><path class="cls-3" d="M2493.28,181.6a24.34,24.34,0,0,1-.2,3.38,8.18,8.18,0,0,1-.66,2.32,3.39,3.39,0,0,1-1.11,1.41,2.7,2.7,0,0,1-1.56.45H2432a7.17,7.17,0,0,1-4.39-1.56c-1.38-1-2.07-2.88-2.07-5.5V61.2a2.46,2.46,0,0,1,.4-1.41,2.75,2.75,0,0,1,1.41-1,15.77,15.77,0,0,1,2.73-.61,34.82,34.82,0,0,1,8.33,0,14.88,14.88,0,0,1,2.67.61,2.75,2.75,0,0,1,1.41,1,2.48,2.48,0,0,1,.4,1.41V174.13h46.83a2.66,2.66,0,0,1,1.56.45,3.54,3.54,0,0,1,1.11,1.31,7.23,7.23,0,0,1,.66,2.27A24,24,0,0,1,2493.28,181.6Z"/><path class="cls-3" d="M2617.31,122.36a101.65,101.65,0,0,1-3.73,28.56,59.89,59.89,0,0,1-11.15,21.65,48.71,48.71,0,0,1-18.62,13.73q-11.2,4.78-26.14,4.79-14.73,0-25.48-4.39a44.74,44.74,0,0,1-17.76-12.77A54.44,54.44,0,0,1,2504,153.14a107.48,107.48,0,0,1-3.43-28.56,98.74,98.74,0,0,1,3.73-28.06,58.42,58.42,0,0,1,11.2-21.45,49.47,49.47,0,0,1,18.67-13.62q11.2-4.79,26.14-4.79,14.43,0,25.13,4.34a45.48,45.48,0,0,1,17.81,12.67,53.82,53.82,0,0,1,10.6,20.59A103,103,0,0,1,2617.31,122.36ZM2599,123.57a102.3,102.3,0,0,0-2-20.64,47.38,47.38,0,0,0-6.55-16.55,31.55,31.55,0,0,0-12.25-10.95q-7.66-3.93-18.95-3.94t-18.95,4.24A35.63,35.63,0,0,0,2527.83,87a47.11,47.11,0,0,0-6.86,16.5,92.32,92.32,0,0,0-2.07,19.83,109.88,109.88,0,0,0,1.91,21.19,47.32,47.32,0,0,0,6.45,16.7,30.85,30.85,0,0,0,12.15,10.9q7.61,3.89,19.1,3.89t19.15-4.24a34.46,34.46,0,0,0,12.5-11.46,48.38,48.38,0,0,0,6.75-16.7A96.57,96.57,0,0,0,2599,123.57Z"/><path class="cls-3" d="M2742.86,76.34a25.72,25.72,0,0,1-.2,3.38,9.89,9.89,0,0,1-.61,2.42,3,3,0,0,1-1,1.36,2.3,2.3,0,0,1-1.31.4c-.81,0-2.15-.64-4-1.92a63.68,63.68,0,0,0-7.57-4.24,71.06,71.06,0,0,0-11.35-4.24,56.67,56.67,0,0,0-15.69-1.92,45.87,45.87,0,0,0-19.38,3.94,41.87,41.87,0,0,0-14.53,10.9A48.74,48.74,0,0,0,2658,103a65.65,65.65,0,0,0-3.18,20.79,65.48,65.48,0,0,0,3.48,22.2,47.2,47.2,0,0,0,9.64,16.35,40,40,0,0,0,14.68,10.09,49.62,49.62,0,0,0,18.72,3.43,53.58,53.58,0,0,0,12.26-1.46A45.77,45.77,0,0,0,2725.2,170v-38h-30.28a2.73,2.73,0,0,1-2.57-1.72,12.59,12.59,0,0,1-.86-5.35,23.51,23.51,0,0,1,.2-3.28,6.64,6.64,0,0,1,.66-2.22,3.38,3.38,0,0,1,1.06-1.26,2.65,2.65,0,0,1,1.51-.4h41.48a6.68,6.68,0,0,1,2.22.4,6.25,6.25,0,0,1,2,1.21,5.18,5.18,0,0,1,1.41,2.22,9.49,9.49,0,0,1,.5,3.23v49.75a10.45,10.45,0,0,1-.91,4.54,7.88,7.88,0,0,1-3.83,3.38,75.7,75.7,0,0,1-7.57,3.18,89.68,89.68,0,0,1-9.59,2.93,84.61,84.61,0,0,1-20,2.43,73.31,73.31,0,0,1-27.05-4.69,55.08,55.08,0,0,1-20.13-13.37,58.55,58.55,0,0,1-12.57-20.79,79.82,79.82,0,0,1-4.34-27.05,80.25,80.25,0,0,1,4.69-28.16,61.55,61.55,0,0,1,13.22-21.5A59,59,0,0,1,2675,61.63a69.35,69.35,0,0,1,26.49-4.89,71.9,71.9,0,0,1,14,1.31,90,90,0,0,1,11.66,3.08,47.81,47.81,0,0,1,8.58,3.83,26.43,26.43,0,0,1,4.79,3.38,7.13,7.13,0,0,1,1.82,3A18.64,18.64,0,0,1,2742.86,76.34Z"/><path class="cls-3" d="M2813.71,138.4v48.14a2.46,2.46,0,0,1-.4,1.41,2.76,2.76,0,0,1-1.4,1,14.82,14.82,0,0,1-2.71.61,28.45,28.45,0,0,1-4.11.25,28.15,28.15,0,0,1-4.16-.25,16.33,16.33,0,0,1-2.71-.61,2.79,2.79,0,0,1-1.46-1,2.46,2.46,0,0,1-.4-1.41V138.4l-36.94-73.67a16.07,16.07,0,0,1-1.36-3.63,2.06,2.06,0,0,1,.5-2,4.79,4.79,0,0,1,2.73-.91c1.31-.13,3.08-.2,5.3-.2,2,0,3.65.07,4.9.2a16.87,16.87,0,0,1,3,.55,3.6,3.6,0,0,1,1.67,1,8.46,8.46,0,0,1,1.06,1.67l18.07,37.54q2.52,5.36,5,11.2t5.12,11.81h.2c1.54-3.83,3.12-7.65,4.77-11.45s3.3-7.55,5-11.25l18.17-37.75a5.24,5.24,0,0,1,.86-1.72,3.36,3.36,0,0,1,1.51-1.06,12.29,12.29,0,0,1,2.67-.55,39.43,39.43,0,0,1,4.34-.2,49.49,49.49,0,0,1,5.7.25,5.52,5.52,0,0,1,2.88,1,2,2,0,0,1,.56,2,14.8,14.8,0,0,1-1.36,3.53Z"/></svg>