<?xml version="1.0" encoding="utf-8"?>
<!-- Generator: Adobe Illustrator 24.1.1, SVG Export Plug-In . SVG Version: 6.00 Build 0)  -->
<svg version="1.1" id="Layer_1" xmlns="http://www.w3.org/2000/svg" xmlns:xlink="http://www.w3.org/1999/xlink" x="0px" y="0px"
	 width="118.8px" height="118.8px" viewBox="0 0 118.8 118.8" style="enable-background:new 0 0 118.8 118.8;" xml:space="preserve"
	>
<style type="text/css">
	.st0{fill:#FFFFFF;}
	.st1{fill:#0066B3;}
</style>
<circle class="st0" cx="59.4" cy="59.4" r="55"/>
<g>
	<g>
		<path class="st1" d="M23.9,28.7c1.1-0.4,2.1-1.1,3.2-1.1c21.6-0.1,43.1-0.1,64.7,0c2.8,0,3.2,0.5,3.2,3.2c0,12.6,0,25.1,0,37.7
			c0,2.7-0.6,3.3-3.2,3.3c-21.6,0-43.2,0-64.8-0.1c-1,0-2-0.9-3-1.3C23.9,56.4,23.9,42.5,23.9,28.7z M89.9,66.6
			c0-11.5,0-22.7,0-34.1c-20.4,0-40.7,0-61,0c0,11.5,0,22.8,0,34.1C49.3,66.6,69.5,66.6,89.9,66.6z"/>
		<path class="st1" d="M63,77.8c0,4.4,0,8.8,0,13.3c-1.6,0-3,0-4.7,0c0-4.5,0-8.9,0-13.9c-0.6,0.7-0.9,1-1.2,1.4
			c-2.5,3.5-5.1,7-7.5,10.6c-1,1.6-2.2,2.4-4,2c-0.6-0.1-1.3,0-2.1,0c0.3-0.5,0.4-0.8,0.6-1.1c3.5-5,7.1-9.9,10.7-14.9
			c0.4-0.6,1.3-1,2-1.1c2.7-0.1,5.4-0.1,8.2,0c0.5,0,1.2,0.2,1.5,0.6c3.9,5.4,7.7,10.7,11.6,16.2c-3.4,0.9-4.5,0.5-6.4-2.1
			c-2.4-3.3-4.7-6.7-7.1-10c-0.3-0.4-0.6-0.8-0.9-1.2C63.3,77.6,63.1,77.7,63,77.8z"/>
		<path class="st1" d="M43.3,56.8c-5.5-0.1-9.7-4.5-9.6-10c0.1-5.4,4.5-9.7,9.8-9.6c5.4,0.1,9.8,4.6,9.7,9.9
			C53.2,52.6,48.8,56.9,43.3,56.8z M52.4,47.9c-2.8,0-5.4,0-8.1,0c0,2.7,0,5.4,0,8.1C48.6,55.8,52.1,52.3,52.4,47.9z"/>
		<path class="st1" d="M82.6,37.4c0,1.5,0,3,0,4.7c-7.3,0-14.5,0-21.8,0c0-1.5,0-3,0-4.7C68,37.4,75.2,37.4,82.6,37.4z"/>
		<path class="st1" d="M60.7,49.5c0-0.8,0-1.5,0-2.2c7.3,0,14.5,0,21.9,0c0,0.7,0,1.4,0,2.2C75.3,49.5,68.1,49.5,60.7,49.5z"/>
		<path class="st1" d="M60.7,54.3c0-0.8,0-1.4,0-2.2c7.3,0,14.5,0,21.9,0c0,0.7,0,1.4,0,2.2C75.3,54.3,68.1,54.3,60.7,54.3z"/>
		<path class="st1" d="M75.4,59.2c-5,0-9.7,0-14.6,0c0-0.7,0-1.4,0-2.2c4.8,0,9.6,0,14.5,0C75.3,57.6,75.3,58.3,75.4,59.2z"/>
	</g>
</g>
</svg>
