<?xml version="1.0" encoding="utf-8"?>
<!-- Generator: Adobe Illustrator 24.1.1, SVG Export Plug-In . SVG Version: 6.00 Build 0)  -->
<svg version="1.1" id="Layer_1" xmlns="http://www.w3.org/2000/svg" xmlns:xlink="http://www.w3.org/1999/xlink" x="0px" y="0px"
	 width="118.8px" height="118.8px" viewBox="0 0 118.8 118.8" style="enable-background:new 0 0 118.8 118.8;" xml:space="preserve"
	>
<style type="text/css">
	.st0{fill:#FFFFFF;}
	.st1{fill:#0066B3;}
</style>
<g>
	<circle class="st0" cx="59.4" cy="59.4" r="55"/>
	<g>
		<g>
			<path class="st1" d="M76.2,36.5c1.2-0.9,2-1.6,1.5-3.4c-0.6-2.1,0.8-4.1,2.8-4.9c2-0.8,4.3,0,5.4,2c0.5,0.9,1,1.2,2,1.1
				c1.7-0.1,3.5,0,5.3,0c0,0.7,0,1.3,0,2.2c-1.8,0-3.7-0.1-5.5,0c-0.6,0-1.3,0.4-1.7,0.9c-1.3,2-3.1,2.8-5.5,2.1
				C79,36.1,78.7,37.5,78,38c-0.2,0.2-0.1,1,0.1,1.4c5.4,9.7,5.3,19.3-0.2,28.9c-0.1,0.2-0.2,0.4-0.4,0.7c2.5,2.5,5,4.9,7.4,7.4
				c2,2,4.1,4.1,6.1,6.1c2.8,2.8,2.9,6.3,0.5,8.7c-2.4,2.4-6.1,2.3-8.8-0.4c-4.5-4.5-9-9.1-13.5-13.7c-7.7,4.6-15.6,5.8-24,3.3
				c-6.7-2.1-11.9-6.2-15.6-12.1C22.3,56.5,25,41,35.8,32.1C46.7,23,65.1,22.8,76.2,36.5z M79.8,53.8c0-14.4-11.6-26-26.1-26.1
				c-14.2,0-26,11.7-26.1,25.9c-0.1,14.2,11.7,26,25.9,26.1C68,79.8,79.7,68.2,79.8,53.8z M75.9,80.9c3,3,6,6.1,9,9
				c1.5,1.5,3.8,1.4,5.2-0.1c1.4-1.4,1.5-3.5,0-5.1c-3-3.1-6-6.1-9-9.1C79.3,77.5,77.6,79.2,75.9,80.9z M74,79
				c1.7-1.7,3.4-3.4,5-5.1c-0.9-0.9-1.9-2-2.5-2.7c-1.8,1.7-3.5,3.4-5.1,5C72.2,77.1,73.1,78.1,74,79z M82,34.6c1.2,0,2.3-1,2.3-2.2
				c0.1-1.2-1.1-2.4-2.3-2.4c-1.2,0-2.3,1.1-2.3,2.3C79.7,33.6,80.7,34.6,82,34.6z"/>
			<path class="st1" d="M77.4,53.8C77.4,67,66.8,77.4,53.7,77.4c-13,0-23.6-10.7-23.6-23.6C30.1,40.7,40.8,30,54,30.2
				C67,30.3,77.5,40.9,77.4,53.8z M72.5,43.5c-1.3,1.2-2.6,1.9-2,4.2c0.8,3.1-2.4,5.5-5.6,4.8c-0.6-0.1-1.4,0.1-1.9,0.5
				c-1.9,1.7-3.6,3.6-5.5,5.4c-0.7,0.7-1,1.3-0.7,2.3c0.6,1.8,0,3.4-1.5,4.5c-1.4,1.2-3.1,1.4-4.8,0.6c-1.7-0.8-2.9-2.4-2.4-4.1
				c0.8-2.4-0.7-3.4-1.9-4.6c-0.7-0.7-1.3-1.4-2.1-2c-0.3-0.2-0.8-0.5-1.1-0.4c-3.5,0.6-4.3,0.2-6.3-2.9c-1.5,0-2.9,0-4.4,0
				c-1.2,8.7,3.9,17.7,12.2,21.5c8.5,4,18.8,1.9,25.1-5C75.8,61.4,77.1,51.2,72.5,43.5z M32.9,49.2c2,0,3.9,0.8,5.1-1.7
				c0.8-1.6,3.3-2,5-1.3c1.8,0.7,3.2,2.7,2.7,4.4c-0.7,2,0.3,2.9,1.5,4c0.6,0.6,1.2,1.2,1.8,1.8c0.8,0.8,1.5,1.4,2.7,0.9
				c0.6-0.3,1.4,0.1,2.2,0c0.6-0.1,1.4-0.1,1.9-0.4c2-1.8,3.9-3.7,5.7-5.6c0.4-0.4,0.6-1.3,0.4-1.8c-0.8-3.6,2.1-6.5,5.6-5.6
				C68,44,68.6,44,69,43.7c0.9-0.6,1.6-1.3,2.4-2c-4.5-7.1-13.5-10.6-22-9C41.3,34.4,34.2,41.3,32.9,49.2z M54.9,61.6
				c0-1.3-1-2.3-2.3-2.2c-1.2,0-2.2,1.1-2.2,2.3c0,1.2,1,2.3,2.3,2.2C53.9,63.9,54.9,62.9,54.9,61.6z M43.6,50.4
				c0-1.3-0.9-2.3-2.2-2.3c-1.3,0-2.3,1-2.3,2.2c0,1.3,1,2.3,2.2,2.3C42.6,52.7,43.6,51.7,43.6,50.4z M68.5,48.1
				c0-1.2-1.1-2.3-2.3-2.3c-1.2,0-2.2,1-2.3,2.3c0,1.3,1.1,2.4,2.3,2.3C67.5,50.4,68.5,49.3,68.5,48.1z"/>
		</g>
	</g>
</g>
</svg>
