<?xml version="1.0" encoding="utf-8"?>
<!-- Generator: Adobe Illustrator 24.1.1, SVG Export Plug-In . SVG Version: 6.00 Build 0)  -->
<svg version="1.1" id="Layer_1" xmlns="http://www.w3.org/2000/svg" xmlns:xlink="http://www.w3.org/1999/xlink" x="0px" y="0px"
	 width="118.8px" height="118.8px" viewBox="0 0 118.8 118.8" style="enable-background:new 0 0 118.8 118.8;" xml:space="preserve"
	>
<style type="text/css">
	.st0{fill:#FFFFFF;}
	.st1{fill:#0066B3;}
</style>
<g>
	<circle class="st0" cx="59.4" cy="59.4" r="55"/>
	<g>
		<g>
			<path class="st1" d="M39.6,36.7c0.4,1,0.7,2,1.1,3.1c-0.3,0-0.5,0-0.7,0c-2.5,0-5,0-7.5,0c-1.2,0-1.7,0.5-1.7,1.7
				c0,9.2,0,18.4,0,27.6c0,0.2,0,0.4,0,0.6c0.5,0,0.9,0,1.4,0c0-0.4,0-0.7,0-1.1c0-2.1,1.2-3.7,3.3-4.3c1.2-0.4,2.4-0.7,3.6-1
				c0.7-0.2,0.9-0.9,0.5-1.5c-0.4-0.7-0.8-1.5-1.3-2.2c-0.1-0.2-0.2-0.4-0.4-0.5c-0.6-0.4-0.9-0.9-1-1.5c-0.1-0.7-0.4-1.5-0.2-2
				c0.5-1.1,0.2-2.3,0.5-3.3c0.3-1,0.6-2.1,1.2-3c1.8-2.5,6.4-3.6,9-1.2c1.7,1.5,2.8,3.5,2.4,6c0,0.2,0,0.4,0.1,0.6
				c0.8,1.4,0.3,3.5-0.9,4.5c-0.1,0.1-0.2,0.3-0.3,0.5c-0.4,0.7-0.7,1.4-1.1,2c-0.5,0.7-0.3,1.4,0.5,1.7c1.2,0.3,2.4,0.7,3.6,1
				c2.1,0.6,3.2,2.2,3.3,4.4c0,0.3,0,0.6,0,0.9c2.9,0,5.7,0,8.6,0c0-0.5,0-1.1,0.1-1.6c0.2-1.8,1.4-3.2,3.1-3.7
				c1.2-0.4,2.5-0.7,3.7-1.1c0.7-0.2,0.9-0.9,0.5-1.5c-0.5-0.7-0.8-1.5-1.2-2.2c-0.1-0.2-0.2-0.3-0.3-0.4c-0.6-0.3-0.9-0.8-1-1.5
				c-0.2-1.1-0.6-2.2,0.3-3.2c0.1-0.1,0-0.3,0-0.4c-0.3-1.9,0.2-3.8,1.5-5.2c2-2.1,6-3.2,8.7-0.8c1.7,1.5,2.8,3.5,2.4,6
				c0,0.2,0,0.4,0.1,0.6c0.5,0.6,0.5,1.3,0.3,2.1c-0.1,0.5-0.2,1.1-0.3,1.6c0,0.1-0.1,0.2-0.2,0.3C80,59.4,80.1,61,79.1,62
				c-0.5,0.4-0.1,1.2,0.5,1.4c1.2,0.3,2.4,0.7,3.6,1c2.2,0.6,3.3,2.2,3.4,4.5c0,0.3,0,0.6,0,0.9c0.5,0,1,0,1.5,0c0-0.2,0-0.4,0-0.7
				c0-9.1,0-18.2,0-27.3c0-1.6-0.4-1.9-2-1.9c-2.6,0-5.3,0-8,0c0.4-1.1,0.8-2.1,1.2-3.1c2.6,0,5.3-0.1,7.9,0
				c2.5,0.1,4.1,2.2,4.1,4.7c0,10.9,0,21.7,0,32.6c0,1.5,0,3,0,4.6c0,2.7-2,4.7-4.7,4.7c-18,0-36,0-54,0c-2.8,0-4.8-1.9-4.8-4.8
				c0-12.4,0-24.7,0-37.1c0-2.9,1.9-4.8,4.8-4.8c2.3,0,4.7,0,7,0C39.5,36.7,39.6,36.7,39.6,36.7z M30.8,72.1c0,2,0,4,0,6
				c0,1.7,0.4,2.1,2.1,2.1c7.1,0,14.2,0,21.4,0c10.7,0,21.3,0,32,0c1.3,0,1.8-0.5,1.8-1.8c0-1.2,0-2.4,0-3.7c0-0.9,0-1.7,0-2.6
				C68.9,72.1,49.9,72.1,30.8,72.1z M43.8,61.4c0.1,0,0.5-0.1,0.8-0.2c1.2-0.5,2-1.2,2.2-2.6c0.1-0.6,0.3-1.2,1-1.5
				c0.2-0.1,0.3-0.9,0.2-0.9c-0.7-0.4-0.7-1.2-0.9-1.8c-0.3-0.6-0.6-1.1-1.4-1c-1,0.1-1.9-0.3-2.8-0.8c-0.2-0.1-0.4-0.3-0.5-0.2
				c-0.9,0.4-2.1,0.4-2.3,1.7c0,0.3-0.1,0.6-0.3,0.9c-0.1,0.4-0.3,0.7-0.5,1c-0.4,0.4-0.2,1,0,1.1c1,0.3,1,1.2,1.2,2
				C40.9,60.4,42.3,61.4,43.8,61.4z M75.1,61.4c1.3,0,2.7-1,3.1-2.3c0.2-0.8,0.2-1.7,1.2-2c0.1,0,0.3-0.8,0.2-0.9
				c-0.7-0.4-0.7-1.1-0.9-1.8c-0.2-0.7-0.6-1.1-1.5-1c-1,0.1-1.9-0.3-2.8-0.8c-0.2-0.1-0.4-0.3-0.5-0.2c-0.9,0.4-2.1,0.4-2.2,1.7
				c-0.1,0.3-0.1,0.7-0.3,1c-0.1,0.3-0.2,0.6-0.4,0.8c-0.4,0.5-0.4,0.9,0.2,1.3c0.3,0.2,0.5,0.5,0.7,0.8c0.2,0.3,0.2,0.7,0.3,1.1
				C72.4,60.3,73.8,61.4,75.1,61.4z M66,69.8c6.1,0,12.1,0,18.2,0c0.3-2-0.2-2.8-2-3.3c-0.7-0.2-1.4-0.4-2.2-0.6
				c-0.2,0-0.6,0-0.7,0.2c-2.5,2.6-5.9,2.6-8.3,0c-0.1-0.2-0.5-0.2-0.7-0.2c-0.7,0.1-1.4,0.4-2.1,0.6C66.3,67,65.8,67.7,66,69.8z
				 M73.1,65c1.3,1,2.9,1,4,0c-0.2-0.5-0.4-1-0.5-1.4c-1,0-2,0-3,0C73.5,64,73.3,64.5,73.1,65z M45.1,63.6c-1,0-2,0-3,0
				C42,64,41.8,64.5,41.6,65c1.3,1,2.9,1,4,0C45.4,64.5,45.3,64,45.1,63.6z M41.9,49.7c0.4,0.1,0.9,0.2,1.3,0.4
				c0.4,0.2,0.7,0.5,1.1,0.7c0.8,0.5,1.7,0.5,2.6,0.3C45.6,49,43.4,48.5,41.9,49.7z"/>
			<path class="st1" d="M68.1,43.5c0,1.3,0,2.5,0,3.8c0,0.7-0.1,1.2-0.9,1.4c-0.7,0.2-1.1-0.3-1.4-0.8c-0.8-1.4-1.6-2.7-2.4-4.1
				c-0.2-0.4-0.4-0.5-0.8-0.5c-1.8,0-3.6,0-5.3,0c-0.3,0-0.7,0.2-0.9,0.4c-1.2,1.4-2.3,2.8-3.4,4.2c-0.4,0.5-0.8,1-1.5,0.7
				c-0.7-0.3-0.8-0.9-0.8-1.5c0-1.2,0-2.5,0-3.8c-0.8,0-1.5,0-2.3-0.1c-6.7-1.1-9.7-9.2-5.4-14.4c1.7-2.1,3.9-3.2,6.7-3.2
				c6.5,0,12.9,0,19.4,0c4.4,0,8.1,3.3,8.6,7.6c0.6,4.6-2.2,8.8-6.5,9.8C70.2,43.4,69.2,43.4,68.1,43.5z M65.7,43.3
				c0,0,0.1,0,0.1-0.1c0-0.1,0-0.2,0-0.3c0-1.4,0.3-1.7,1.8-1.7c0.9,0,1.8,0.1,2.7-0.1c3.3-0.6,5.5-3.7,5.2-7
				c-0.3-3.6-3-6.1-6.4-6.1c-6.5,0-12.9,0-19.4,0c-3.2,0-6,2.5-6.3,5.7C43,37.2,45,40.3,48.3,41c1.1,0.2,2.2,0.1,3.3,0.2
				c1,0,1.4,0.4,1.4,1.4c0,0.6,0,1.2,0,2c0.8-1,1.5-1.9,2.3-2.7c0.3-0.3,0.8-0.6,1.2-0.6c2.4-0.1,4.9,0,7.3,0c0.6,0,1,0.2,1.2,0.8
				C65.2,42.4,65.5,42.8,65.7,43.3z"/>
			<path class="st1" d="M55.1,84.9c-0.5,1.8-1,3.4-1.4,5.1c4.5,0,9,0,13.5,0c-0.5-1.7-0.9-3.3-1.4-5.1c1,0,2,0,3,0
				c0.1,0,0.3,0.2,0.4,0.4c0.6,1.9,1.1,3.9,1.7,5.9c0.3,1.1-0.5,2-1.7,2c-2.9,0-5.8,0-8.6,0c-2.9,0-5.7,0-8.6,0
				c-1.6,0-2.2-0.9-1.8-2.4c0.5-1.8,1-3.5,1.5-5.3c0.1-0.4,0.3-0.6,0.7-0.6C53.3,84.9,54.1,84.9,55.1,84.9z"/>
			<path class="st1" d="M61.5,76.3c0,1.2-0.9,2.2-2.1,2.2c-1.1,0-2.1-0.9-2.1-2.1c0-1.2,0.9-2.2,2.1-2.2
				C60.6,74.2,61.5,75.2,61.5,76.3z"/>
			<path class="st1" d="M53.5,36.4c-1,0-1.9-0.9-1.9-1.9c0-1.1,0.9-2,2-2c1,0,1.9,0.9,1.9,2C55.4,35.6,54.5,36.4,53.5,36.4z"/>
			<path class="st1" d="M65.3,32.6c1.1,0,2,0.9,2,1.9c0,1-0.9,1.9-1.9,1.9c-1,0-1.9-0.9-1.9-1.9C63.4,33.5,64.2,32.6,65.3,32.6z"/>
			<path class="st1" d="M59.4,36.4c-1,0-1.9-0.9-1.9-1.9c0-1.1,0.9-2,2-1.9c1,0,1.9,0.9,1.9,2C61.3,35.6,60.4,36.5,59.4,36.4z"/>
		</g>
	</g>
</g>
</svg>
