<?xml version="1.0" encoding="utf-8"?>
<!-- Generator: Adobe Illustrator 24.1.1, SVG Export Plug-In . SVG Version: 6.00 Build 0)  -->
<svg version="1.1" id="Layer_1" xmlns="http://www.w3.org/2000/svg" xmlns:xlink="http://www.w3.org/1999/xlink" x="0px" y="0px"
	 width="118.8px" height="118.8px" viewBox="0 0 118.8 118.8" style="enable-background:new 0 0 118.8 118.8;" xml:space="preserve"
	>
<style type="text/css">
	.st0{fill:#FFFFFF;}
	.st1{fill:#0066B3;}
</style>
<g>
	<circle class="st0" cx="59.4" cy="59.4" r="55"/>
	<g>
		<g>
			<path class="st1" d="M27.2,91.6c0-21.4,0-42.8,0-64.4c1.6,0,3.2,0,4.8,0c0,1.7,0,3.4,0,5.3c11.1,0,22,0,33.1,0
				c0,5.4,0,10.6,0,16.1c-11,0-21.9,0-33,0c0,1,0,1.8,0,2.7c14.1,0,28.2,0,42.3,0c0,5.4,0,10.7,0,16.1c-14.1,0-28.2,0-42.3,0
				c0,1,0,1.7,0,2.7c7.9,0,15.7,0,23.6,0c0,5.4,0,10.6,0,16.1c-7.9,0-15.7,0-23.7,0c0,1.9,0,3.7,0,5.4
				C30.4,91.6,28.8,91.6,27.2,91.6z M32.2,56.3c0,2.2,0,4.2,0,6.2c12.6,0,25,0,37.4,0c0-2.1,0-4.1,0-6.2
				C57,56.3,44.7,56.3,32.2,56.3z M32.2,37.5c0,2.1,0,4.1,0,6c9.4,0,18.7,0,28.1,0c0-2.1,0-4,0-6C50.8,37.5,41.5,37.5,32.2,37.5z
				 M50.8,75.2c-6.3,0-12.5,0-18.7,0c0,2.1,0,4,0,6c6.3,0,12.5,0,18.7,0C50.8,79.1,50.8,77.2,50.8,75.2z"/>
			<path class="st1" d="M91.6,63.6c-0.2,0.2-0.4,0.5-0.6,0.7c-1,1.3-2.3,1.6-3.7,1.1c-1.3-0.5-2-1.6-1.9-3c0.1-1.5,0.9-2.4,2.2-2.8
				c1.4-0.4,2.6,0.1,3.5,1.3c0.2,0.3,0.3,0.5,0.5,0.8C91.6,62.3,91.6,62.9,91.6,63.6z"/>
			<path class="st1" d="M60.4,84.3c2-3.9,3.8-7.9,6-11.7c0.4-0.6,1.9-0.6,3-0.8c0.1,0.1,0.2,0.3,0.2,0.4c-0.8,1.7-1.7,3.4-2.5,5.1
				c-0.8,1.6-1.8,3.2-2.4,4.9C63.9,84.1,62.7,85,60.4,84.3z"/>
			<path class="st1" d="M79,34.4c-1.2,2.4-2.3,4.7-3.5,7.1c-0.5,1-1,2-1.5,3c-1.2,2.4-1.2,2.4-4.2,2.2c0.6-1.2,1.1-2.3,1.7-3.5
				c1.1-2.3,2.3-4.6,3.4-6.9C76.1,34,76.1,34,79,34.4z"/>
			<path class="st1" d="M79.3,65.4c0.8-1.7,1.6-3.3,2.4-4.9c0.9-1.8,1.8-3.6,2.7-5.3c1.1-2.2,1.1-2.2,4.1-1.9c-0.5,1-1,2-1.5,3
				c-1.2,2.5-2.5,5-3.7,7.5C82.1,65.9,81.9,65.9,79.3,65.4z"/>
			<path class="st1" d="M66.5,37.3c0.1-1.7,1.6-3.1,3.3-3c1.7,0.1,3,1.6,3,3.2c-0.1,1.7-1.5,3.1-3.2,3C67.9,40.5,66.5,39,66.5,37.3z
				"/>
			<path class="st1" d="M72.8,81.3c0,1.6-1.4,3.1-3,3.2c-1.7,0.1-3.2-1.4-3.2-3.1c0-1.7,1.4-3.1,3-3.2
				C71.3,78.1,72.8,79.6,72.8,81.3z"/>
			<path class="st1" d="M79.1,40.6c1.7,0,3.1,1.3,3.1,3c0,1.7-1.4,3.2-3.2,3.2c-1.7,0-3.2-1.5-3.1-3.2C76,41.9,77.4,40.6,79.1,40.6z
				"/>
			<path class="st1" d="M82.2,56.2c0,1.6-1.4,3.1-3,3.2C77.5,59.4,76,58,76,56.3c0-1.7,1.3-3.1,3-3.1C80.7,53.1,82.2,54.4,82.2,56.2
				z"/>
			<path class="st1" d="M63.4,75c0,1.7-1.3,3.1-3,3.2c-1.8,0.1-3.2-1.3-3.3-3c0-1.7,1.3-3.1,3-3.2C61.9,71.8,63.4,73.2,63.4,75z"/>
		</g>
	</g>
</g>
</svg>
