<?xml version="1.0" encoding="utf-8"?>
<!-- Generator: Adobe Illustrator 24.1.1, SVG Export Plug-In . SVG Version: 6.00 Build 0)  -->
<svg version="1.1" id="Layer_1" xmlns="http://www.w3.org/2000/svg" xmlns:xlink="http://www.w3.org/1999/xlink" x="0px" y="0px"
	 width="118.8px" height="118.8px" viewBox="0 0 118.8 118.8" style="enable-background:new 0 0 118.8 118.8;" xml:space="preserve"
	>
<style type="text/css">
	.st0{fill:#FFFFFF;}
	.st1{fill:#0066B3;}
</style>
<g>
	<circle class="st0" cx="59.4" cy="59.4" r="55"/>
	<g>
		<g>
			<g>
				<path class="st1" d="M37.5,57.1c9,0,17.9,0,26.9,0l5.6,0c-0.2,0.3-0.3,0.5-0.4,0.8c-0.6-0.3-1.3-0.4-1.9-0.4
					c-1.2,0-2.3,0.5-3.2,1.3c-1.1,1.1-2.2,2.2-3.3,3.3c-1.4,1.5-1.7,3.5-0.9,5.3c-1.9,0.7-3.1,2.4-3.1,4.5c0,1.1,0,2.1,0,3.2l0,0.9
					c0,1.1,0.2,2,0.7,2.7H29.4l0.3-0.9l1.6-4.2C33.4,68.2,35.4,62.7,37.5,57.1 M37.2,55.4c-0.7,0-0.9,0.2-1.2,0.8
					c-2.6,7-5.2,14.1-7.8,21.1c-0.4,1-0.8,2-1.2,3.1c11.9,0,23.8,0,35.7,0c-0.2-0.8-0.2-0.8-1.1-1c-1.9-0.3-2.9-1.5-2.9-3.4
					c0-1.3,0-2.7,0-4c0-1.8,1.3-3.1,3.2-3.2c0.2,0,0.6-0.2,0.6-0.3c0.1-0.2,0-0.5-0.2-0.7c-1.2-1.3-1.3-3.2,0-4.5
					c1.1-1.1,2.1-2.2,3.3-3.3c0.6-0.6,1.3-0.8,2-0.8c0.7,0,1.5,0.3,2.1,0.9c0.2,0.2,0.3,0.4,0.6,0.4c0.1,0,0.2,0,0.3-0.1
					c0.4-0.2,0.3-0.4,0.4-0.7c0.1-1.8,1.4-3.1,3.2-3.1c0.7,0,1.4,0,2.1,0c0.8,0,1.7,0,2.5,0c1.8,0,3.2,1.3,3.2,3.1
					c0,0.6,0.3,0.8,0.9,0.9c0.4-1.1,0.8-2.2,1.2-3.3c0.5-1.3,0.1-1.8-1.2-1.8h0c-6.1,0-12.2,0-18.4,0C55.3,55.5,46.2,55.5,37.2,55.4
					C37.2,55.4,37.2,55.4,37.2,55.4L37.2,55.4z"/>
			</g>
			<g>
				<path class="st1" d="M49.7,30.5l16.4,0c0,5.5,0,11,0,16.5v4.3l-7.2,0l-22.5,0c-2.1,0-3.1,0.7-3.8,2.7c-0.1,0.2-0.1,0.3-0.2,0.5
					l0-5.8l0-18.2L49.7,30.5 M55.1,31.7l-3,0l-2.9,0l-3.2,0l-3.2,0l-5.6,0c-2.2,0-3.3,1.4-3.3,2.8c0,0.7,0.3,1.4,0.7,1.9
					c0.6,0.6,1.4,0.9,2.5,0.9l8.4,0l3.9,0l3.9,0l2.2,0l2.2,0c1.2,0,2.4,0,3.6,0c1.1,0,2-0.5,2.5-1.3c0.5-0.8,0.6-1.8,0.2-2.6
					c-0.3-0.8-1.1-1.7-2.8-1.7C59.3,31.7,57.2,31.7,55.1,31.7 M37,44l0.2,0l0.1,0l2.6,0l9.3,0l0.7,0l0.7,0l0.8,0l2.6,0l3.7,0l3.7,0
					c1.3,0,2.3-0.7,2.7-1.8c0.5-1.2,0.1-2.5-1-3.2c-0.5-0.4-1.2-0.6-1.9-0.6c-4.9,0-9.8,0-14.6,0l-2.9,0l-2.9,0l-0.6,0l-1,0l-1.1,0
					c-0.5,0-0.9,0-1.4,0c-0.8,0-1.5,0.3-2.1,0.9c-0.5,0.5-0.8,1.2-0.8,2c0,1.5,1.2,2.7,2.8,2.7C36.8,44,36.9,44,37,44 M49,50.7
					c4,0,8.1,0,12.1,0c0.4,0,0.9,0,1.3-0.2c1.3-0.4,2-1.5,2-2.8c-0.1-1.4-1-2.4-2.3-2.6c-0.3,0-0.5-0.1-0.7-0.1l-0.1,0l-0.1,0
					l-7.5,0l-2.2,0l-2.2,0l-2.2,0l-2.2,0l-7.5,0l-0.1,0l-0.1,0c-0.2,0-0.5,0-0.8,0.1c-1.3,0.2-2.2,1.2-2.3,2.6
					c-0.1,1.3,0.7,2.5,2,2.9c0.5,0.1,0.9,0.1,1.3,0.1C41.2,50.7,45.1,50.7,49,50.7 M49.7,28.9c-5.8,0-11.7,0-17.5,0
					c-1.2,0-1.4,0.2-1.4,1.4c0,8.2,0,16.5,0,24.7c0,2.9,0,5.8,0,8.7c0.1,0,0.1,0,0.2,0c1.1-3,2.2-6,3.3-9c0.5-1.3,0.9-1.6,2.3-1.6
					c10.1,0,20.1,0,30.2,0c0.2,0,0.3,0,0.5,0c0.2,0,0.4,0,0.7,0c0-0.3,0-0.5,0-0.7c0-7.3,0-14.6,0-22c0-1.2-0.3-1.4-1.4-1.4
					C60.8,28.9,55.2,28.9,49.7,28.9L49.7,28.9z M55.1,33.4c2.1,0,4.1,0,6.2,0c0,0,0,0,0,0c0.6,0,1,0.1,1.3,0.7
					c0.4,0.8-0.2,1.6-1.2,1.6c-1.2,0-2.4,0-3.6,0c-1.5,0-3,0-4.5,0c0,0,0,0,0,0c-2.6,0-5.1,0-7.7,0c-2.8,0-5.6,0-8.4,0
					c-1,0-1.6-0.4-1.6-1.1c0-0.7,0.6-1.2,1.6-1.2c1.9,0,3.7,0,5.6,0c2.1,0,4.3,0,6.4,0C51.2,33.4,53.1,33.4,55.1,33.4L55.1,33.4z
					 M37,42.3c-0.1,0-0.1,0-0.2,0c-0.7,0-1.2-0.5-1.2-1.1c0-0.6,0.5-1.1,1.2-1.2c0.5,0,0.9,0,1.4,0c0.7,0,1.4,0,2.1,0
					c0.2,0,0.4,0,0.6,0c1.9,0,3.9,0,5.8,0c4.9,0,9.8,0,14.6,0c0.3,0,0.7,0.1,1,0.3c0.4,0.3,0.5,0.8,0.3,1.2
					c-0.2,0.5-0.6,0.7-1.1,0.7c0,0,0,0,0,0c-1.2,0-2.5,0-3.7,0c-2.1,0-4.2,0-6.3,0c-0.3,0-0.6,0-0.8,0c-0.5,0-1,0-1.5,0
					c-3.1,0-6.2,0-9.3,0c-0.9,0-1.7,0-2.6,0C37.2,42.3,37.1,42.3,37,42.3L37,42.3z M49,49c-3.9,0-7.8,0-11.7,0c-0.3,0-0.6,0-0.8-0.1
					c-0.5-0.1-0.8-0.5-0.8-1.1c0.1-0.5,0.3-1,0.9-1.1c0.1,0,0.3,0,0.5,0c0.1,0,0.2,0,0.3,0c0,0,0,0,0,0c2.5,0,5,0,7.5,0
					c1.5,0,2.9,0,4.4,0c1.5,0,2.9,0,4.4,0c2.5,0,5,0,7.5,0c0,0,0,0,0,0c0.1,0,0.2,0,0.3,0c0.2,0,0.3,0,0.5,0c0.6,0.1,0.9,0.5,0.9,1
					c0,0.5-0.2,0.9-0.8,1.1C61.7,49,61.4,49,61.1,49C57.1,49,53,49,49,49L49,49z"/>
			</g>
			<g>
				<path class="st1" d="M76.5,60.1c0.6,0,1.1,0,1.7,0c0,0.3,0,0.5,0,0.8l0,0.6v1.1l1,0.4l0.7,0.3c0.7,0.3,1.4,0.6,2.1,0.9
					c0.2,0.1,0.5,0.1,0.8,0.1c0.5,0,1-0.2,1.4-0.5c0.3-0.2,0.6-0.5,0.9-0.8c0,0,0.1-0.1,0.1-0.1c0.8,0.7,1.5,1.5,2.3,2.3
					c0,0,0,0,0,0c-0.5,0.4-1.1,1-1.2,1.9c-0.2,0.9,0.2,1.6,0.5,2c0.1,0.1,0.1,0.2,0.2,0.3c0.2,1.1,1,2.9,3.6,2.9c0,0,0.1,0,0.1,0
					v1.2c0,0.7,0,1.4,0,2.1c-2.8,0-3.6,2-3.8,3.2c0,0.1-0.1,0.3-0.2,0.4c-0.1,0.2-0.2,0.4-0.3,0.6l-0.5,1l0.7,0.9l0.4,0.5
					c0.2,0.2,0.4,0.5,0.6,0.7c-0.8,0.8-1.5,1.5-2.3,2.3c-0.2-0.2-0.4-0.4-0.7-0.6l-0.5-0.4l-0.8-0.7l-1,0.4l-0.7,0.3
					c-0.8,0.3-1.5,0.6-2.2,0.9c-0.8,0.3-1.2,1.1-1.3,1.8c0,0.4-0.1,0.8-0.1,1.2c0,0,0,0.1,0,0.1c-0.5,0-1.1,0-1.6,0
					c-0.5,0-1,0-1.5,0c0-0.3,0-0.7,0-1c0-1.1-0.6-1.9-1.6-2.2c-0.6-0.2-1.2-0.5-2.1-0.9c-0.4-0.2-0.7-0.3-1.1-0.3
					c-0.4,0-1,0.1-1.6,0.7c-0.2,0.2-0.5,0.5-0.8,0.7c-0.8-0.7-1.5-1.5-2.3-2.3c0.2-0.2,0.4-0.4,0.6-0.7l0.4-0.5l0.7-0.8l-0.4-1
					l-0.6-1.3l-0.8-1.8L65.1,76l-1-0.1l-0.6,0c-0.3,0-0.6,0-0.9-0.1c0-1.2,0-2.3,0-3.3c0,0,0.1,0,0.1,0l0.4,0c0.2,0,0.5,0,0.7,0
					l0.3,0l1-0.1l0.4-0.9l0.3-0.7c0.3-0.7,0.6-1.4,0.9-2.1c0.3-0.8,0-1.7-0.4-2.2c-0.2-0.3-0.5-0.6-0.7-0.8c0,0-0.1-0.1-0.1-0.1
					c0.8-0.8,1.5-1.6,2.3-2.3c0.2,0.2,0.4,0.4,0.5,0.6l0.3,0.4l0.8,0.8l1.1-0.4l0.8-0.3c0.8-0.3,1.5-0.6,2.2-0.9
					c0.8-0.3,1.2-1.2,1.3-1.8c0-0.4,0.1-0.8,0.1-1.2c0,0,0-0.1,0-0.1C75.4,60.1,75.9,60.1,76.5,60.1 M76.5,82.5l0.1,0
					c4.6-0.1,8.3-3.9,8.3-8.5c-0.1-4.6-3.8-8.4-8.4-8.4l-0.1,0c-4.7,0.1-8.4,3.9-8.4,8.5C68.1,78.8,71.9,82.5,76.5,82.5 M76.5,58.4
					c-0.7,0-1.5,0-2.2,0c-0.7,0-1,0.4-1.1,1.1c0,0.6,0,1.1-0.1,1.7c0,0.2-0.2,0.4-0.3,0.5c-0.9,0.4-1.9,0.8-2.9,1.2
					c-0.4-0.4-0.8-0.9-1.2-1.3c-0.3-0.3-0.6-0.4-0.9-0.4c-0.3,0-0.5,0.1-0.8,0.4c-1,1-2,2-3,3c-0.5,0.5-0.5,1,0,1.5
					c0.4,0.5,0.8,0.9,1.2,1.3c0.1,0.1,0.2,0.4,0.1,0.6c-0.4,0.9-0.8,1.8-1.2,2.8c-0.3,0-0.6,0-1,0.1c-0.3,0-0.7,0-1,0.1
					c-0.7,0.1-1.1,0.4-1.1,1.1c0,1.5,0,2.9,0,4.4c0,0.7,0.3,1,1,1.1c0.7,0.1,1.4,0.1,2,0.1c0.5,1.1,0.9,2.1,1.3,3.1
					c-0.4,0.5-0.9,1-1.3,1.5c-0.4,0.5-0.4,1,0,1.5c1,1.1,2.1,2.1,3.1,3.1c0.2,0.2,0.5,0.4,0.7,0.4c0.2,0,0.5-0.1,0.7-0.3
					c0.4-0.4,0.9-0.7,1.3-1.1c0.1-0.1,0.3-0.2,0.4-0.2c0.1,0,0.2,0,0.4,0.1c0.7,0.4,1.5,0.7,2.2,1c0.4,0.1,0.5,0.3,0.5,0.7
					c0,0.5,0,1.1,0.1,1.6c0.1,0.7,0.5,1.1,1.1,1.1c0.7,0,1.4,0,2.1,0c0.7,0,1.5,0,2.2,0c0.6,0,1-0.4,1.1-1c0-0.6,0.1-1.2,0.1-1.8
					c0-0.2,0.1-0.4,0.3-0.4c0.9-0.4,1.9-0.8,2.9-1.2c0.5,0.4,1,0.9,1.5,1.3c0.3,0.2,0.5,0.3,0.7,0.3c0.2,0,0.5-0.1,0.7-0.4
					c1-1,2.1-2,3.1-3.1c0.5-0.5,0.5-0.9,0-1.5c-0.5-0.5-0.9-1.1-1.4-1.6c0.3-0.5,0.6-0.9,0.7-1.4c0.2-1.4,1-1.8,2.2-1.8
					c0.1,0,0.2,0,0.3,0c0,0,0.1,0,0.1,0c0.8,0,1.1-0.5,1.1-1.4c0-1.2,0-2.4,0-3.6c0-1.2-0.3-1.6-1.4-1.6c0,0-0.1,0-0.2,0
					c-0.1,0-0.1,0-0.2,0c-1.1,0-1.8-0.3-2-1.6c-0.1-0.6-0.7-1.2-0.6-1.7c0.1-0.5,0.8-1,1.2-1.5c0.5-0.6,0.5-1.1,0-1.6c-1-1-2-2-3-3
					c-0.3-0.2-0.5-0.4-0.7-0.4c-0.2,0-0.5,0.1-0.7,0.3c-0.5,0.4-0.9,0.8-1.4,1.2c-0.1,0.1-0.2,0.1-0.4,0.1c-0.1,0-0.1,0-0.2,0
					c-0.9-0.4-1.8-0.8-2.8-1.2c0-0.6,0-1.3,0-1.9c0-0.7-0.4-1.1-1.1-1.1C78,58.4,77.3,58.4,76.5,58.4L76.5,58.4z M76.5,80.9
					c-3.7,0-6.8-3-6.8-6.7c0-3.7,3-6.8,6.7-6.8c0,0,0.1,0,0.1,0c3.6,0,6.7,3,6.7,6.7C83.3,77.7,80.3,80.8,76.5,80.9
					C76.6,80.9,76.5,80.9,76.5,80.9L76.5,80.9z"/>
			</g>
			<g>
				<path class="st1" d="M27.7,42.7c-0.8,0-1.2,0.5-1.2,1.6c0,10.1,0,20.1,0,30.2c0,0.2,0,0.4,0,0.5c0.7-1.6,1.3-3.1,1.9-4.7
					c0.1-0.2,0-0.4,0-0.6c0-8.7,0-17.4,0-26.1c0-0.3,0-0.6,0-0.8C28.2,42.7,27.9,42.7,27.7,42.7L27.7,42.7z"/>
			</g>
			<g>
				<path class="st1" d="M72.4,44.4c0.3,0,0.6,0,0.9,0c0,1.4,0,2.8,0,4.2l0,1.9v0.8h-1.5v-6.9C72,44.4,72.2,44.4,72.4,44.4
					 M72.4,42.7c-0.8,0-1.5,0-2.3,0c0,3.5,0,6.9,0,10.3c1.6,0,3.2,0,4.9,0c0-0.9,0-1.7,0-2.5c0-2.2,0-4.4,0-6.5
					c0-0.8-0.3-1.2-0.9-1.2C73.5,42.7,72.9,42.7,72.4,42.7L72.4,42.7z"/>
			</g>
		</g>
	</g>
</g>
</svg>
