<?xml version="1.0" encoding="utf-8"?>
<!-- Generator: Adobe Illustrator 24.1.1, SVG Export Plug-In . SVG Version: 6.00 Build 0)  -->
<svg version="1.1" id="Layer_1" xmlns="http://www.w3.org/2000/svg" xmlns:xlink="http://www.w3.org/1999/xlink" x="0px" y="0px"
	 width="76.5px" height="80.9px" viewBox="0 0 76.5 80.9" style="enable-background:new 0 0 76.5 80.9;" xml:space="preserve">
<style type="text/css">
	.st0{fill:#1A1A1A;}
</style>
<g>
	<path class="st0" d="M3.2,25.4c0.3-1.5,0.8-2.8,1.8-4c1.7-2.2,4-3.4,6.8-3.4c11.7,0,23.4,0,35.1,0c4.6,0,8.4,3.8,8.4,8.4
		c0,0.9,0,1.9,0,2.9c0.3-0.2,0.6-0.3,0.9-0.4c5.6-2.8,11.1-5.5,16.7-8.3c0.2-0.1,0.4-0.1,0.6-0.2c0,13.3,0,26.6,0,39.9
		c-1.1-0.5-2.2-1-3.3-1.6c-4.7-2.3-9.4-4.6-14-6.9c-0.2-0.1-0.4-0.2-0.7-0.3c0,0.9,0,1.8,0,2.6c0,2.9-1.1,5.2-3.4,6.9
		c-1.5,1.2-3.2,1.8-5.1,1.8c-11.7,0-23.5,0-35.2,0c-3.9,0-7.4-2.9-8.3-6.7c0-0.2-0.1-0.4-0.2-0.6C3.2,45.6,3.2,35.5,3.2,25.4z
		 M52.4,47c3.5,1.7,6.9,3.4,10.3,5.1c0-7.8,0-15.5,0-23.3c-3.4,1.7-6.8,3.4-10.3,5.1c0-0.4,0-0.7,0-0.9c0-2.1,0-4.3,0-6.4
		c0-3.5-2.1-5.7-5.7-5.7c-11.7,0-23.4,0-35.1,0C8.1,20.9,6,23,6,26.5c0,9.3,0,18.7,0,28c0,0.7,0.1,1.4,0.3,2C7,58.8,8.9,60,11.5,60
		c6.8,0,13.6,0,20.3,0c5,0,10,0,15.1,0c2.9,0,4.9-1.6,5.4-4.3c0.1-0.6,0.1-1.1,0.1-1.7C52.4,51.8,52.4,49.5,52.4,47z M70.4,25
		c-1.6,0.8-3.1,1.5-4.5,2.3c-0.2,0.1-0.3,0.4-0.3,0.6c0,1,0,2.1,0,3.1c0,7.4,0,14.7,0,22.1c0,0.2,0.1,0.6,0.2,0.7
		c1.5,0.8,3,1.5,4.6,2.3C70.4,45.6,70.4,35.3,70.4,25z"/>
	<path class="st0" d="M23.1,50.6c0-6.8,0-13.4,0-20.2c5.3,3.4,10.6,6.7,15.9,10.1C33.7,43.8,28.5,47.2,23.1,50.6z M25.9,35.5
		c0,3.4,0,6.6,0,9.9c2.6-1.7,5.2-3.3,7.8-5C31.1,38.8,28.6,37.2,25.9,35.5z"/>
</g>
</svg>
