<?xml version="1.0" encoding="utf-8"?>
<!-- Generator: Adobe Illustrator 24.1.1, SVG Export Plug-In . SVG Version: 6.00 Build 0)  -->
<svg version="1.1" id="Layer_1" xmlns="http://www.w3.org/2000/svg" xmlns:xlink="http://www.w3.org/1999/xlink" x="0px" y="0px"
	 width="76.5px" height="80.9px" viewBox="0 0 76.5 80.9" style="enable-background:new 0 0 76.5 80.9;" xml:space="preserve">
<style type="text/css">
	.st0{fill:#1A1A1A;}
</style>
<g>
	<path class="st0" d="M38.6,10.2c9.5,1.8,28.9-5.8,30.2,8.5c-0.1,14.6,0,29.2,0,43.8c-0.5,12.4-16,7.4-24.2,8.4
		C12.3,68.9,5.9,81,8.1,41.7C7.9,8.2,3.8,9.4,38.6,10.2z M38.2,69.6c41.2,1.3,26.7,0.5,29.2-50.6c0-4.9-2.7-7.6-7.6-7.6
		c-10.3,0-20.5,0-30.8,0C22.3,12,9.3,8.3,9.3,18.8c0,14.4,0,28.8,0,43.2C9.6,75,29.8,67.9,38.2,69.6z"/>
	<path class="st0" d="M38.4,60.6c-8.1,0-16.1,0-24.2,0c-2.9,0.5-2.1-1.9-2.1-3.9c0.5-1.4,2.1-0.6,1.8-2.5c0-9.8,0-19.5,0-29.3
		c0-2.1,0.5-2.6,2.5-2.6c3,0.3,6.6-0.8,9.3,0.5c-2.3,2.2-9.5-1.3-10.7,1.8c0,10,0,19.9,0,29.9c-0.1,1.1,0.7,1.3,1.6,1.2
		c14.4,0,28.8,0,43.2,0c1.6,0,1.7-0.1,1.7-1.7c0-9.7,0-19.3,0-29c0.3-3.2-6.5-1.1-8.7-1.7c-0.6-0.1-1.9,0.3-1.9-0.7
		c2.6-1.3,6.5-0.2,9.5-0.5c1.8,0,2.3,0.6,2.3,2.5c0,9.9,0,19.8,0,29.7c0,0.7,0.2,1,0.9,1.3c1.8,0.8,0.7,2.5,0.8,3.8
		c0.1,1.1-0.9,0.9-1.6,0.9C54.8,60.6,46.6,60.6,38.4,60.6C38.4,60.6,38.4,60.6,38.4,60.6z M63.2,57.1c-7,0.5-14.6-1.2-21.3,0.6
		c-1,0.6-5.9,0.8-6.7,0c-6.4-1.9-13.9-0.1-20.7-0.7c-1.4-0.2-1.5,2.3-0.1,2.3c15.8,0.1,31.6,0,47.5,0C63.5,59.3,63.7,59,63.2,57.1z"
		/>
	<path class="st0" d="M51.4,25.6c2.1,0,8-1.7,7.7,1.5c0,8.1,0,16.2,0,24.3c0.2,1.6-0.3,2.7-2.1,2.4c-12.9,0-25.7,0-38.6,0
		c-1.9,0-2-0.1-2-2c0-8.2,0-16.3,0-24.5c0-1.9,0.1-2,2-2c2.3,0.5,5.8-1.2,7.3,1c-2.3,1.1-7.3-1.3-8.1,1.5c0.2,8.2-0.3,16.6,0.2,24.7
		c13.2,0,26.4,0,39.9,0c0.4-8,0-16.1,0.2-24.2c0.4-3.7-4.7-0.7-6.6-2.3C51.3,25.9,51.3,25.8,51.4,25.6z"/>
	<path class="st0" d="M27.1,21.6C24.7,9.8,39,15.3,46,14.2c5.6,0,3.2,7.5,3.7,11.1c-0.1,6.7-8.8,1.2-11.3,5.7
		c-0.5,0.6-1.2,0.7-1.5,0c-3.9-5.3-10.8,2.7-9.7-9.3C27.2,21.6,27.1,21.6,27.1,21.6z M37.8,29.4c2.2-4.1,9.4,0.7,10.5-3.8
		c-0.5-3.3,2-10.5-3.4-10c-11.7,1.4-18.2-5.2-16.3,10.1C29.4,29.7,35.5,25.5,37.8,29.4z"/>
	<path class="st0" d="M37.7,34.3c4.1,0,5,4.9,3.1,8c-1.9,3.5,7,1,4.4,9c-2.6-2.7,0.7-4.3-4.8-5.8c-4-1.9,3.4-9.4-2.9-9.6
		c-3,0.2-2.6,3.9-1.6,5.9c2.4,4.4-4.3,3.4-4.6,6.7c-0.2,1.1,0,2.3-1.2,2.8c-1.2-1.2,0-3.2,0.2-4.7c0.7-2.1,5.7-1.4,4.1-4.3
		C32.9,39.3,33.5,34.3,37.7,34.3z"/>
	<path class="st0" d="M19.3,51.3c-1.8-8,5.9-5.4,4.6-8.8c-5-10.5,10.8-10.8,6.3-0.5c-1.1,1.3,0.4,2,0.4,3.4c-1.9,0.5-3-2.3-2-3.5
		c0.8-1,0.9-2.3,0.8-3.5c0-3.3-4.9-3.3-5-0.1c-0.1,1.3,0.1,2.6,0.8,3.7c2.1,4.3-5.5,3.3-4.8,7.4C20.4,50.1,20.4,50.9,19.3,51.3z"/>
	<path class="st0" d="M52.6,39c-0.4,2.2-2.9,5.4,0.7,5.9c2.7,0.5,3.8,4.2,2.6,6.4c-1.9-1.2-0.3-4.5-3-5.1c-5.8-1.2-1.4-4.9-2-8.4
		c-0.4-2.8-5.1-2.5-5,0.4c-0.2,2.3,3.1,7.3-1.1,7.3c0.1-0.4,0-0.9,0.2-1c1.6-1.7-1.3-4-0.5-6.2c0.2-5.5,8.6-4.6,7.8,0.8
		C52.5,38.9,52.5,38.9,52.6,39z"/>
</g>
</svg>
