<?xml version="1.0" encoding="utf-8"?>
<!-- Generator: Adobe Illustrator 24.1.1, SVG Export Plug-In . SVG Version: 6.00 Build 0)  -->
<svg version="1.1" id="Layer_1" xmlns="http://www.w3.org/2000/svg" xmlns:xlink="http://www.w3.org/1999/xlink" x="0px" y="0px"
	 width="76.5px" height="68.9px" viewBox="0 0 76.5 68.9" style="enable-background:new 0 0 76.5 68.9;" xml:space="preserve">
<style type="text/css">
	.st0{fill:#1A1A1A;}
</style>
<g>
	<path class="st0" d="M74,4.5c-1.4-2.2-3.3-2.3-5.3-2.3c-20.5,0-40.9,0-61.4,0c-2,0-3.7,0.4-4.8,2.4c0-0.1,0-0.1,0-0.2v37.3
		c1.3,2.7,3.8,2.3,6.1,2.3c20.2,0,40.3,0,60.5,0c1.9,0,3.6-0.1,4.9-2.2c0,0,0,0,0,0c0,0,0-0.1,0.1-0.1V4.5z M69.4,41.2
		c-20.7,0-41.4,0-62,0c-1.5,0-1.9-0.5-1.9-1.9c1-4.5-2.3-35.8,2-34.2c20.6,0.1,41.1,0,61.7,0c2.1,0,2.1,0,2.1,2.2
		C70.3,11.9,73.5,42.5,69.4,41.2z"/>
	<path class="st0" d="M74,66.7C74,66.7,74,66.7,74,66.7V66C74,66.2,74,66.5,74,66.7z"/>
	<path class="st0" d="M73.9,55.3C73.9,55.3,73.9,55.3,73.9,55.3L73.9,55.3L73.9,55.3z"/>
	<path class="st0" d="M73.9,52.8c-9.2-0.6-18.5-0.1-27.7-0.2c-1.1,0-1.8-0.2-2.4-1.3c-1-2.1-2.9-3.1-5.2-3c-2.3,0.1-4,1.1-5,3.1
		c-0.5,1-1.1,1.2-2.1,1.2C21.9,52.8,12.1,52,2.5,53v2.2c9.6,0.7,19.2,0.2,28.9,0.3c1.2,0,1.8,0.2,2.5,1.4c2.1,4,7.8,4,10,0
		c0.7-1.2,1.4-1.4,2.6-1.4c9.2-0.1,18.4,0.3,27.6-0.2L73.9,52.8z M38.8,56.9c-3.7,0.1-3.9-5.7-0.2-5.8
		C42.5,50.9,42.6,56.9,38.8,56.9z"/>
	<path class="st0" d="M29.9,23.2c0.6-2.6-2.1-13.2,2.9-10.7c2,2.5,17.6,9.4,12.8,12.2C35.4,30.3,28.2,43.7,29.9,23.2z M33,30.2
		c3.4-2.4,6.5-4.6,9.8-7c-3.4-2.4-6.5-4.6-9.8-7C33,21,33,25.4,33,30.2z"/>
</g>
</svg>
