<?xml version="1.0" encoding="utf-8"?>
<!-- Generator: Adobe Illustrator 24.1.1, SVG Export Plug-In . SVG Version: 6.00 Build 0)  -->
<svg version="1.1" id="Layer_1" xmlns="http://www.w3.org/2000/svg" xmlns:xlink="http://www.w3.org/1999/xlink" x="0px" y="0px"
	 width="76.5px" height="80.9px" viewBox="0 0 76.5 80.9" style="enable-background:new 0 0 76.5 80.9;" xml:space="preserve">
<style type="text/css">
	.st0{fill:#1A1A1A;}
</style>
<g>
	<path class="st0" d="M32.4,51.1c5.8-3.4,5.8-3.4,11.3,0c0.4-0.2,0.8-0.5,1.1-0.8c6.3-4.6,12.5-9.2,18.8-13.8c1.3-0.9,0.8-1.5,0-2.3
		c-0.9-0.9-2-1.7-2.7-2.7c-0.3-0.5-0.2-1.7,0.2-2.2c0.3-0.4,1.7-0.5,2.1-0.1c2.9,2.4,5.7,4.9,4.7,9.3c-0.1,0.5,0,1.1,0,1.6
		c0,9.9,0,19.8,0,29.6c0,3-1.8,4.8-4.7,4.8c-16.7,0-33.5,0-50.2,0c-3,0-4.7-1.8-4.8-4.7c0-11.3,0-22.6,0-33.8c0-1.7,0.6-3,2-4
		c0.8-0.6,1.7-1.2,2.4-1.9c0.9-0.8,1.7-0.8,2.4,0.1c0.7,0.9,0.8,1.9-0.2,2.7c-0.8,0.6-1.7,1.2-2.4,1.8c-0.8,0.7-0.7,1.4,0.1,2
		c6.2,4.5,12.5,9.1,18.7,13.6C31.5,50.5,31.9,50.8,32.4,51.1z M64.4,70.5c-0.3-0.3-0.5-0.5-0.8-0.7c-8-5.8-16.1-11.5-24.1-17.3
		c-1.2-0.8-2-0.5-3,0.2C28.7,58.2,20.8,63.8,13,69.5c-0.4,0.3-0.8,0.6-1.3,1C13.3,71.3,63.1,71.2,64.4,70.5z M64.3,66
		c0-8.6,0-17,0-25.6c-6,4.4-11.7,8.6-17.6,12.9C52.7,57.6,58.4,61.7,64.3,66z M11.9,40.4c0,8.7,0,17,0,25.6
		c6-4.3,11.7-8.4,17.6-12.7C23.6,49,17.9,44.8,11.9,40.4z"/>
	<path class="st0" d="M38.2,6.4c5,0,9.9,0,14.9,0c3.6,0,5.5,1.9,5.5,5.5c0,7.9,0,15.9,0.1,23.8c0,1.3-0.4,2.1-1.8,2.1
		c-1.3,0-1.7-1-1.7-2.1c0-0.6,0-1.2,0-1.8c0-7.1,0-14.2,0-21.4c0-2.5-0.2-2.7-2.6-2.7c-9.7,0-19.4,0-29.2,0c-2.1,0-2.4,0.3-2.4,2.5
		c0,7.6,0,15.1,0,22.7c0,0.4,0.1,0.9-0.1,1.1c-0.5,0.6-1.1,1.5-1.8,1.7c-1,0.2-1.6-0.7-1.6-1.8c0-3.5,0-7-0.1-10.5
		c0-4.5,0-9.1,0-13.6c0-3.6,1.9-5.5,5.5-5.5C28,6.4,33.1,6.4,38.2,6.4z"/>
	<path class="st0" d="M38.1,23.6c3.7,0,7.4,0,11.2,0c0.6,0,1.3,0,1.7,0.3c0.5,0.4,1.1,1.2,1,1.7c-0.2,0.6-1,1.4-1.6,1.4
		c-5,0.1-9.9,0.1-14.9,0.1c-2.6,0-5.3,0-7.9,0c-0.5,0-1.1,0-1.6,0c-1-0.1-2-0.5-2-1.7c0-1.3,1-1.7,2.1-1.7c0.5,0,1,0,1.5,0
		C31.1,23.6,34.6,23.6,38.1,23.6z"/>
	<path class="st0" d="M38.1,19.4c-3.8,0-7.7,0-11.5,0c-1.2,0-2.4-0.2-2.4-1.7c0-1.5,1.1-1.8,2.3-1.8c7.7,0,15.4,0,23.2,0
		c1,0,2,0.2,2.3,1.3c0.4,1.2-0.5,2.2-2.1,2.2C45.9,19.4,42,19.4,38.1,19.4z"/>
	<path class="st0" d="M29.3,31.1c4.6,0,9.1,0,13.7,0c2.4,0,4.8,0.1,7.3,0c1.2,0,1.9,0.6,1.9,1.7c0,1.1-0.7,1.7-1.9,1.7
		c-4.7,0-9.3,0-14,0c-2.9,0-5.8,0-8.7,0c-0.5,0-1,0-1.5,0c-1.1-0.1-2.1-0.5-2-1.8c0-1.2,1-1.6,2-1.6C27.1,31,28.2,31.1,29.3,31.1z"
		/>
</g>
</svg>
