<?xml version="1.0" encoding="utf-8"?>
<!-- Generator: Adobe Illustrator 24.1.1, SVG Export Plug-In . SVG Version: 6.00 Build 0)  -->
<svg version="1.1" id="Layer_1" xmlns="http://www.w3.org/2000/svg" xmlns:xlink="http://www.w3.org/1999/xlink" x="0px" y="0px"
	 width="76.5px" height="80.9px" viewBox="0 0 76.5 80.9" style="enable-background:new 0 0 76.5 80.9;" xml:space="preserve">
<style type="text/css">
	.st0{fill:#1A1A1A;}
</style>
<g>
	<path class="st0" d="M26.7,79c-1.8-4.5,7.5-1.8,10-2.5c0-0.9,0-1.8,0-2.8c-8.6-1.6-26.7,5.1-28.2-7.4c1.6-8.2-4.9-32,6.7-32.2
		c3.4,0.7,13.2-1.8,14.5,1.4c0,0.8-0.6,1.4-1.6,1.4c-24.6-1.4-14.9,2.9-16.8,25.4c17.9,0,35.7,0,53.7,0C63.2,38.6,73,35.7,48.2,37
		c-7.5-4.2,13.3-2.9,15.1-2.5c8.6,1.5,3.2,24.5,4.6,31.9c-1.5,12.5-19.6,5.7-28.2,7.3c0,1,0,1.8,0,2.8c2.6,0.8,12.2-2.1,10.5,2.5
		C42.4,79,34.6,79,26.7,79z M11.5,65.3c-0.5,3.5,1.3,5.6,4.8,5.6c14.7,0,29.4,0,44,0c3.4,0,5.2-2.1,4.7-5.6
		C47.1,65.3,29.3,65.3,11.5,65.3z"/>
	<path class="st0" d="M39.6,6.7c0,12.5,0,25,0,37.5c0.1,1.1,0,2.7-1.4,2.7c-1.4,0.1-1.5-1.5-1.4-2.6c0-12.6,0-25.1,0-37.7
		c-1.7,1.1-16.5,18.5-13.4,9.3c3.4-2.1,13.2-16.1,16-13.7C44,6.8,48.6,11.4,53.2,16c2.3,8.6-11.7-8.1-13.3-9.5
		C39.8,6.6,39.7,6.7,39.6,6.7z"/>
</g>
</svg>
