<?xml version="1.0" encoding="utf-8"?>
<!-- Generator: Adobe Illustrator 24.1.1, SVG Export Plug-In . SVG Version: 6.00 Build 0)  -->
<svg version="1.1" id="Layer_1" xmlns="http://www.w3.org/2000/svg" xmlns:xlink="http://www.w3.org/1999/xlink" x="0px" y="0px"
	 width="76.5px" height="80.9px" viewBox="0 0 76.5 80.9" style="enable-background:new 0 0 76.5 80.9;" xml:space="preserve">
<style type="text/css">
	.st0{fill:#1A1A1A;}
</style>
<g>
	<g>
		<path class="st0" d="M14.1,37.9c9.9,0,19.8,0,29.6,0l6.2,0c-0.2,0.3-0.3,0.6-0.5,0.9c-0.7-0.3-1.4-0.5-2.1-0.5
			c-1.3,0-2.5,0.5-3.5,1.4c-1.2,1.2-2.5,2.4-3.7,3.7c-1.6,1.6-1.9,3.9-1,5.9c-2.1,0.8-3.4,2.6-3.4,5c0,1.2,0,2.4,0,3.5l0,1
			c0,1.2,0.3,2.2,0.7,3H5.2l0.4-0.9l1.8-4.8C9.6,50.1,11.9,44,14.1,37.9 M13.7,36.1c-0.7,0-1,0.2-1.3,0.9
			c-2.8,7.8-5.7,15.5-8.6,23.2c-0.4,1.1-0.8,2.2-1.3,3.4c13.1,0,26.2,0,39.3,0c-0.2-0.9-0.2-0.9-1.2-1.1c-2.1-0.4-3.2-1.6-3.2-3.8
			c0-1.5,0-3,0-4.4c0-2,1.4-3.4,3.5-3.5c0.3,0,0.6-0.2,0.7-0.4c0.1-0.2,0-0.6-0.2-0.8c-1.3-1.5-1.4-3.5,0-4.9
			c1.2-1.2,2.4-2.4,3.6-3.6c0.7-0.6,1.4-0.9,2.2-0.9c0.8,0,1.6,0.3,2.3,1c0.2,0.2,0.3,0.4,0.6,0.4c0.1,0,0.2,0,0.3-0.1
			c0.4-0.2,0.4-0.5,0.4-0.8c0.1-2,1.5-3.4,3.5-3.4c0.8,0,1.5,0,2.3,0c0.9,0,1.8,0,2.7,0c2,0,3.5,1.4,3.5,3.4c0,0.7,0.3,0.9,0.9,1
			c0.5-1.2,0.9-2.4,1.4-3.6c0.5-1.4,0.1-1.9-1.4-1.9c0,0,0,0,0,0c-6.7,0-13.5,0-20.2,0C33.7,36.1,23.7,36.1,13.7,36.1
			C13.7,36.1,13.7,36.1,13.7,36.1L13.7,36.1z"/>
	</g>
	<g>
		<path class="st0" d="M27.6,8.7l18,0c0,6,0,12.1,0,18.1l0,4.8l-6.9,0l-25.8,0c-2.3,0-3.4,0.8-4.2,3c-0.1,0.2-0.1,0.3-0.2,0.5l0-3.6
			l0-22.9L27.6,8.7 M27.6,6.8c-6.4,0-12.9,0-19.3,0c-1.3,0-1.6,0.3-1.6,1.6c0,9.1,0,18.1,0,27.2c0,3.2,0,6.4,0,9.6
			c0.1,0,0.1,0,0.2,0c1.2-3.3,2.4-6.6,3.6-9.9c0.5-1.4,1-1.8,2.5-1.8c11.1,0,22.2,0,33.3,0c0.2,0,0.3,0,0.5,0c0.2,0,0.5,0,0.7,0
			c0-0.3,0-0.6,0-0.8c0-8.1,0-16.1,0-24.2c0-1.3-0.3-1.6-1.6-1.6C39.7,6.8,33.6,6.8,27.6,6.8L27.6,6.8z"/>
	</g>
	<g>
		<path class="st0" d="M14.9,19.2c-0.5,0-1,0-1.5,0c-0.8,0-1.3,0.6-1.3,1.3c0,0.7,0.5,1.2,1.3,1.2c0.1,0,0.1,0,0.2,0
			c0.1,0,0.2,0,0.3,0c0.9,0,1.9,0,2.8,0c3.4,0,6.9,0,10.3,0c0.5,0,1.1,0,1.6,0c0.3,0,0.6,0,0.9,0c2.3,0,4.6,0,6.9,0
			c1.4,0,2.7,0,4.1,0c0,0,0,0,0,0c0.6,0,1-0.2,1.2-0.8c0.2-0.5,0.1-1-0.4-1.4c-0.3-0.2-0.7-0.3-1.1-0.3c-5.4,0-10.7,0-16.1,0
			c-2.1,0-4.3,0-6.4,0c-0.2,0-0.4,0-0.6,0C16.4,19.2,15.6,19.2,14.9,19.2L14.9,19.2z"/>
	</g>
	<g>
		<path class="st0" d="M13.4,12.4C13.4,12.4,13.4,12.4,13.4,12.4S13.4,12.4,13.4,12.4 M40.4,11.8C40.4,11.8,40.4,11.8,40.4,11.8
			c-2.3,0-4.6,0-6.9,0c-2.2,0-4.3,0-6.5,0c-2.3,0-4.7,0-7,0c-2.1,0-4.1,0-6.2,0c-1.1,0-1.7,0.5-1.7,1.3c0,0.8,0.6,1.2,1.7,1.2
			c3.1,0,6.2,0,9.3,0c2.8,0,5.6,0,8.5,0c0,0,0,0,0,0c1.6,0,3.3,0,4.9,0c1.3,0,2.7,0,4,0c1,0,1.7-0.9,1.3-1.7
			C41.5,11.9,41,11.8,40.4,11.8L40.4,11.8z"/>
	</g>
	<g>
		<path class="st0" d="M13.6,26.5c-0.2,0-0.3,0-0.5,0c-0.6,0.1-1,0.6-1,1.2c-0.1,0.6,0.3,1,0.9,1.2c0.3,0.1,0.6,0.1,0.9,0.1
			c4.3,0,8.6,0,12.9,0c4.4,0,8.9,0,13.3,0c0.3,0,0.6,0,0.9-0.1c0.6-0.2,0.9-0.6,0.8-1.2c0-0.6-0.4-1-1-1.1c-0.2,0-0.3,0-0.5,0
			c-0.1,0-0.2,0-0.3,0c0,0,0,0,0,0c-2.8,0-5.5,0-8.3,0c-1.6,0-3.2,0-4.8,0c-1.6,0-3.2,0-4.8,0c-2.8,0-5.5,0-8.3,0c0,0,0,0,0,0
			C13.8,26.5,13.7,26.5,13.6,26.5L13.6,26.5z"/>
	</g>
	<g>
		<path class="st0" d="M57,41.2c0.6,0,1.2,0,1.8,0c0,0.3,0,0.6,0,0.9l0,0.6v1.2l1.1,0.5l0.8,0.3c0.8,0.4,1.6,0.7,2.4,1
			c0.3,0.1,0.6,0.2,0.9,0.2c0.6,0,1.1-0.2,1.6-0.5c0.4-0.3,0.7-0.6,1-0.8c0,0,0.1-0.1,0.1-0.1c0.8,0.8,1.7,1.7,2.5,2.5c0,0,0,0,0,0
			c-0.5,0.5-1.2,1.1-1.4,2.1c-0.2,1,0.3,1.7,0.6,2.2c0.1,0.1,0.1,0.2,0.2,0.3c0.2,1.2,1.1,3.2,4,3.2c0,0,0.1,0,0.1,0l0,1.2
			c0,0.8,0,1.6,0,2.3c-3.1,0-3.9,2.2-4.1,3.5c0,0.1-0.2,0.3-0.3,0.5c-0.1,0.2-0.2,0.4-0.3,0.6l-0.6,1.1l0.8,0.9l0.5,0.5
			c0.2,0.3,0.5,0.5,0.7,0.8c-0.8,0.9-1.7,1.7-2.5,2.5c-0.3-0.2-0.5-0.4-0.7-0.6l-0.5-0.4l-0.9-0.7l-1.1,0.4l-0.8,0.3
			c-0.8,0.3-1.6,0.6-2.4,1c-0.9,0.4-1.3,1.3-1.4,2c0,0.5-0.1,0.9-0.1,1.3c0,0,0,0.1,0,0.1c-0.6,0-1.2,0-1.8,0c-0.6,0-1.1,0-1.7,0
			c0-0.4,0-0.8,0-1.1c0-1.2-0.6-2.1-1.7-2.5c-0.7-0.2-1.4-0.5-2.3-1c-0.4-0.2-0.8-0.3-1.2-0.3c-0.4,0-1.1,0.1-1.7,0.7
			c-0.3,0.3-0.6,0.5-0.9,0.8c-0.8-0.8-1.7-1.7-2.5-2.5c0.2-0.2,0.4-0.5,0.6-0.7l0.5-0.5l0.8-0.9l-0.5-1.1l-0.7-1.6L45,59.7l-0.4-1
			l-1.1-0.1l-0.6,0c-0.3,0-0.7,0-1-0.1c0-1.3,0-2.5,0-3.7c0,0,0.1,0,0.1,0c0.2,0,0.3,0,0.5,0c0.3,0,0.5,0,0.8-0.1l0.3,0l1.1-0.1
			l0.4-1l0.3-0.8c0.3-0.8,0.7-1.6,1-2.4c0.4-0.9,0.1-1.9-0.4-2.4c-0.3-0.3-0.5-0.6-0.8-0.9c0-0.1-0.1-0.1-0.1-0.2
			c0.9-0.9,1.7-1.7,2.5-2.5c0.2,0.2,0.4,0.4,0.6,0.6l0.4,0.4l0.9,0.9l1.2-0.5l0.8-0.3c0.8-0.3,1.6-0.6,2.4-1c0.9-0.4,1.4-1.3,1.4-2
			c0.1-0.4,0.1-0.9,0.1-1.3c0-0.1,0-0.1,0-0.2C55.8,41.2,56.4,41.2,57,41.2 M57.1,65.9l0.1,0c5.1-0.1,9.2-4.3,9.1-9.4
			c-0.1-5.1-4.2-9.2-9.2-9.2l-0.1,0c-5.1,0.1-9.3,4.3-9.2,9.4C47.8,61.8,52,65.9,57.1,65.9 M57,39.4c-0.8,0-1.6,0-2.4,0
			c-0.7,0-1.1,0.4-1.2,1.2c0,0.6-0.1,1.3-0.1,1.9c0,0.2-0.2,0.5-0.3,0.5c-1,0.4-2,0.8-3.2,1.3c-0.4-0.4-0.9-0.9-1.4-1.4
			c-0.3-0.3-0.6-0.5-1-0.5c-0.3,0-0.6,0.1-0.9,0.4c-1.1,1.1-2.2,2.2-3.3,3.3c-0.5,0.5-0.5,1,0,1.6c0.4,0.5,0.9,1,1.3,1.5
			c0.1,0.2,0.2,0.4,0.1,0.6c-0.4,1-0.9,2-1.3,3.1c-0.3,0-0.7,0-1,0.1c-0.4,0-0.7,0-1.1,0.1c-0.8,0.1-1.2,0.5-1.2,1.2
			c0,1.6,0,3.2,0,4.9c0,0.8,0.4,1.1,1.1,1.2c0.8,0.1,1.5,0.1,2.2,0.1c0.5,1.2,1,2.3,1.5,3.5c-0.5,0.6-1,1.1-1.5,1.7
			c-0.5,0.6-0.5,1.1,0,1.6c1.1,1.2,2.3,2.3,3.4,3.4c0.3,0.3,0.5,0.4,0.8,0.4c0.3,0,0.5-0.1,0.8-0.4c0.5-0.4,1-0.8,1.4-1.2
			c0.2-0.1,0.3-0.2,0.4-0.2c0.1,0,0.2,0,0.4,0.1c0.8,0.4,1.6,0.8,2.5,1.1c0.4,0.1,0.5,0.3,0.5,0.7c0,0.6,0,1.2,0.1,1.7
			c0.1,0.7,0.5,1.2,1.2,1.2c0.8,0,1.5,0,2.3,0c0.8,0,1.6,0,2.4,0c0.7,0,1.1-0.4,1.2-1.1c0-0.7,0.1-1.3,0.1-2c0-0.2,0.2-0.4,0.3-0.5
			c1-0.4,2.1-0.9,3.2-1.3c0.5,0.5,1.1,1,1.7,1.5c0.3,0.2,0.5,0.4,0.8,0.4c0.3,0,0.5-0.1,0.8-0.4c1.1-1.1,2.3-2.2,3.4-3.4
			c0.6-0.6,0.6-1,0-1.7c-0.5-0.6-1-1.2-1.5-1.8c0.3-0.5,0.7-1,0.8-1.6c0.3-1.5,1.1-2,2.4-2c0.1,0,0.2,0,0.4,0c0.1,0,0.1,0,0.2,0
			c0.9,0,1.2-0.5,1.2-1.5c0-1.3,0-2.7,0-4c0-1.3-0.4-1.8-1.6-1.8c-0.1,0-0.1,0-0.2,0c-0.1,0-0.2,0-0.2,0c-1.2,0-2-0.4-2.2-1.7
			c-0.1-0.7-0.8-1.3-0.7-1.9c0.1-0.6,0.8-1.1,1.3-1.6c0.5-0.6,0.6-1.2,0-1.8c-1.1-1.1-2.2-2.2-3.3-3.3c-0.3-0.3-0.5-0.4-0.8-0.4
			c-0.3,0-0.5,0.1-0.8,0.4c-0.5,0.4-1,0.9-1.5,1.3c-0.1,0.1-0.3,0.1-0.4,0.1c-0.1,0-0.1,0-0.2,0c-1-0.4-2-0.9-3.1-1.3
			c0-0.7,0-1.4,0-2.1c0-0.7-0.5-1.2-1.2-1.2C58.7,39.4,57.9,39.4,57,39.4L57,39.4z M57.1,64.1c-4.1,0-7.5-3.3-7.5-7.4
			c0-4,3.3-7.4,7.4-7.5c0,0,0.1,0,0.1,0c4,0,7.3,3.3,7.4,7.4c0.1,4.1-3.2,7.4-7.3,7.5C57.1,64.1,57.1,64.1,57.1,64.1L57.1,64.1z"/>
	</g>
	<g>
		<path class="st0" d="M3.3,22C2.4,22,2,22.5,2,23.8C2,34.8,2,45.9,2,57c0,0.2,0,0.4,0,0.6c0.8-1.7,1.5-3.4,2.1-5.2
			c0.1-0.2,0.1-0.4,0.1-0.6c0-9.6,0-19.2,0-28.7c0-0.3,0-0.6,0-0.9C3.9,22.1,3.6,22,3.3,22L3.3,22z"/>
	</g>
	<g>
		<path class="st0" d="M52.5,23.9c0.3,0,0.6,0,1,0c0,1.6,0,3.1,0,4.7l0,2v0.9h-1.6v-7.6C52.1,23.9,52.3,23.9,52.5,23.9 M52.5,22
			c-0.8,0-1.7,0-2.5,0c0,3.8,0,7.6,0,11.3c1.8,0,3.6,0,5.3,0c0-1,0-1.8,0-2.7c0-2.4,0-4.8,0-7.2c0-0.8-0.3-1.3-1-1.4
			C53.7,22,53.1,22,52.5,22L52.5,22z"/>
	</g>
</g>
</svg>
