<?xml version="1.0" encoding="utf-8"?>
<!-- Generator: Adobe Illustrator 24.1.1, SVG Export Plug-In . SVG Version: 6.00 Build 0)  -->
<svg version="1.1" id="Layer_1" xmlns="http://www.w3.org/2000/svg" xmlns:xlink="http://www.w3.org/1999/xlink" x="0px" y="0px"
	 width="147px" height="152.1px" viewBox="0 0 147 152.1" style="enable-background:new 0 0 147 152.1;" xml:space="preserve">
<style type="text/css">
	.st0{fill:none;}
</style>
<g>
	<g>
		<path d="M67.9,75.7c-0.2,0.3-0.5,0.6-0.7,1c-0.6,0.9-0.8,1.8-0.9,2.8c0,0.1-0.1,0.2-0.1,0.3c-0.1,0.1-0.2,0.2-0.3,0.3
			c-0.2,0.3-0.4,0.4-0.7,0.6c-1,0.7-1.6,1.6-2,2.7c0,0.1-0.1,0.2-0.1,0.3c0.1,0.3-0.1,0.6-0.2,0.9c-0.4,1.3-0.5,2.6-0.3,3.9
			c0.1,0.7,0.6,1.1,1.2,1.3c0.5,0.2,1,0.2,1.5,0.2c0.5,0,0.9-0.4,0.9-0.9c0-0.5-0.4-0.8-0.9-0.8c-0.4,0-0.8,0-1.1,0
			c-0.2,0-0.2-0.1-0.2-0.3c0-0.5-0.1-1,0-1.5c0.1-0.6,0.2-1.2,0.4-1.8c0-0.1,0.1-0.2,0.1-0.2c0.3-0.2,0.4-0.5,0.5-0.7
			c0.3-0.5,0.6-1,1.1-1.4c0.6-0.5,1-0.5,1.6,0c0.5,0.4,0.8,0.9,1.1,1.5c0.1,0.2,0.3,0.3,0.4,0.5c0,0.1,0.1,0.1,0.1,0.2
			c0.4,1.1,0.6,2.3,0.4,3.5c0,0.2-0.1,0.3-0.3,0.2c-0.4,0-0.8,0-1.2,0c-0.4,0-0.7,0.4-0.7,0.8c0,0.4,0.2,0.8,0.6,0.9
			c0.6,0.1,1.2,0.2,1.7-0.1c0,0,0,0,0.1,0c0.9-0.2,1.2-0.9,1.3-1.7c0.1-1.4,0-2.7-0.5-4c0-0.1,0-0.2,0-0.3c0-0.2,0-0.3,0-0.5
			c-0.5-1-1.1-2-2.1-2.6c-0.4-0.2-0.6-0.7-1-0.9c0,0,0-0.1,0-0.2c0.1-1.7,1-3,2.5-3.8c0.1-0.1,0.2,0,0.3,0.1
			c1.2,1.1,2.4,2.2,3.6,3.4c1,0.9,1.9,1.8,2.9,2.7c0.1,0.1,0.1,0.1,0.2,0.2c0.5-0.5,1-0.9,1.4-1.3c1.7-1.6,3.4-3.2,5.1-4.8
			c0.1-0.1,0.2-0.1,0.4,0c1.3,0.8,2,2,2.2,3.5c-0.1,0-0.2,0.1-0.3,0.1c-1.4,0.5-2.2,2-1.9,3.5c0.4,1.5,1.9,2.4,3.3,2.1
			c1.5-0.3,2.6-1.7,2.4-3.2c-0.2-1.2-0.9-2.1-2.1-2.5c-0.2-0.1-0.2-0.1-0.2-0.3c-0.1-1.2-0.6-2.3-1.4-3.2c-0.1-0.1-0.1-0.2-0.2-0.3
			c0.3,0.1,0.6,0.2,1,0.3c4.6,1.6,7.3,4.8,8.2,9.5c0.2,1.2,0.2,2.4,0,3.7c-0.4,2.1-1.6,3.3-3.6,3.9c-1.2,0.4-2.5,0.5-3.8,0.5
			c-1.5,0-3,0-4.4,0c-5,0-10,0-15,0c-1.5,0-3.1,0-4.6-0.3c-0.5-0.1-1-0.2-1.5-0.4c-1.8-0.7-2.9-2-3.2-3.9c-0.8-5,1.9-10.1,6.5-12.4
			C66.3,76.2,67.1,75.9,67.9,75.7z M80.4,88.8c0,0.6,0,1.1,0,1.6c0,0.3,0.1,0.4,0.4,0.4c0.5,0,0.9,0,1.4,0c0.4,0,0.5-0.1,0.5-0.5
			c0-0.5,0-1,0-1.5c0.6,0,1.1,0,1.6,0c0.3,0,0.4-0.1,0.4-0.4c0-0.4,0-0.9,0-1.3c0-0.5,0-0.5-0.5-0.5c-0.5,0-1,0-1.5,0
			c0-0.6,0-1.1,0-1.6c0-0.3-0.1-0.4-0.4-0.4c-0.4,0-0.9,0-1.3,0c-0.4,0-0.5,0.1-0.5,0.5c0,0.5,0,1,0,1.5c-0.6,0-1.1,0-1.6,0
			c-0.3,0-0.4,0.1-0.4,0.4c0,0.5,0,1,0,1.4c0,0.3,0.1,0.4,0.4,0.4C79.4,88.8,79.9,88.8,80.4,88.8z"/>
		<path d="M77.1,52.8c5.7,0,10.3,4.6,10.3,10.4c0,5.7-4.6,10.3-10.4,10.3c-5.7,0-10.3-4.7-10.3-10.4C66.7,57.5,71.4,52.8,77.1,52.8z
			"/>
		<path d="M86.8,83.5c-0.7,0-1.3-0.6-1.3-1.4c0-0.8,0.6-1.3,1.4-1.3c0.7,0,1.3,0.6,1.3,1.4C88.2,82.9,87.6,83.5,86.8,83.5z"/>
	</g>
	<g>
		
			<ellipse transform="matrix(9.853818e-02 -0.9951 0.9951 9.853818e-02 -3.3343 141.321)" class="st0" cx="76.3" cy="72.5" rx="33.1" ry="33.1"/>
		<path d="M145.9,114.4c-1.4-8.5-9.6-14.4-18-12.8c-2.6,0.5-5.1,1.9-7.9,2.9c-3.8-3.1-8-6.6-12.1-9.9c9.6-16,8.9-31.4-2-46.1
			c3.2-3.2,6.4-6.5,9.6-9.7c9.1,5.4,17.7,1.1,21.4-4.2c4.4-6.2,3.8-14.7-1.6-20.2c-5.4-5.5-13.8-6.4-20.2-2
			c-5.3,3.6-9.9,12.2-4.5,21.6c-3.3,3.2-6.5,6.5-9.8,9.7c-11.2-8.8-23.7-11-37.4-6.4c-0.9-1.9-1.7-3.7-2.5-5.4
			c0.1-0.2,0.1-0.2,0.1-0.3c0.3-0.2,0.6-0.5,0.8-0.7c4.2-4,6-8.8,5.1-14.5C65.5,7.6,56.8,1.7,48.1,3.6c-8.6,1.9-14.1,10.7-11.9,19.3
			c2.1,8,9.6,13,17.7,11.8c0.5-0.1,1.4,0.2,1.6,0.6c0.9,1.5,1.5,3.1,2.2,4.6C42.1,50.4,36.1,64.8,40.1,83.3
			c-2.8,0.9-5.7,1.7-8.5,2.7c-1.2,0.4-1.9,0.2-2.7-0.9c-4.5-5.8-12.3-7.6-18.9-4.5C3.3,83.9-0.3,91.1,1.3,98.4
			c1.5,7,7.9,12.3,15,12.4c9.4,0.2,16.8-7.7,16.2-17.1c0-0.5,0.2-1.3,0.6-1.4c3.1-1.1,6.3-2,9.5-3c5.3,10.5,13.7,17.3,24.9,20.4
			c-0.3,2.5-0.6,5-1,7.4c-0.8,0.1-1.4,0.2-2,0.3c-8,1.3-13.9,8.9-13,17c0.8,8.4,8,14.6,16.4,14.4c8.1-0.3,14.9-7,15.1-15.2
			c0.1-6.8-3-11.7-8.9-14.8c-0.5-0.3-1.1-0.8-1.1-1.2c0.2-2.2,0.5-4.5,0.8-6.8c11.7,0.6,21.6-3.1,30-11.3c4.1,3.3,8.1,6.6,12,9.9
			c0.3,0.2,0.3,1.1,0.2,1.6c-2.3,5.8-1.7,11.2,2.2,16.1c3.8,4.8,8.9,6.7,15,5.7C141.6,131.3,147.3,123.1,145.9,114.4z M124.2,12.9
			c6.8,0,12.4,5.5,12.4,12.4c0,6.8-5.5,12.4-12.4,12.4c-6.8,0-12.4-5.5-12.4-12.4C111.8,18.4,117.4,12.9,124.2,12.9z M16.6,107.4
			c-6.8,0-12.4-5.5-12.4-12.4c0-6.8,5.5-12.4,12.4-12.4c6.8,0,12.4,5.5,12.4,12.4C29,101.9,23.4,107.4,16.6,107.4z M51.4,31.4
			c-6.8,0-12.4-5.5-12.4-12.4c0-6.8,5.5-12.4,12.4-12.4s12.4,5.5,12.4,12.4C63.8,25.9,58.2,31.4,51.4,31.4z M79.7,132.9
			c0,6.8-5.5,12.4-12.4,12.4c-6.8,0-12.4-5.5-12.4-12.4c0-6.8,5.5-12.4,12.4-12.4C74.1,120.6,79.7,126.1,79.7,132.9z M76.3,105.6
			c-18.3,0-33.1-14.8-33.1-33.1c0-18.3,14.8-33.1,33.1-33.1s33.1,14.8,33.1,33.1C109.4,90.8,94.6,105.6,76.3,105.6z M130.5,129.7
			c-6.8,0-12.4-5.5-12.4-12.4c0-6.8,5.5-12.4,12.4-12.4c6.8,0,12.4,5.5,12.4,12.4C142.9,124.2,137.4,129.7,130.5,129.7z"/>
	</g>
</g>
</svg>
