<?xml version="1.0" encoding="utf-8"?>
<!-- Generator: Adobe Illustrator 24.1.1, SVG Export Plug-In . SVG Version: 6.00 Build 0)  -->
<svg version="1.1" id="Layer_1" xmlns="http://www.w3.org/2000/svg" xmlns:xlink="http://www.w3.org/1999/xlink" x="0px" y="0px"
	 width="147px" height="152.1px" viewBox="0 0 147 152.1" style="enable-background:new 0 0 147 152.1;" xml:space="preserve">
<style type="text/css">
	.st0{fill:none;}
</style>
<g>
	<g>
		<path d="M92,48.8c0,12.3,0,24.5,0,36.8c1.7,0,3.1,0,4.6,0c0-12.3,0-24.5,0-36.8H92z"/>
		<path d="M92,133c0,2.3,0,4.4,0,7c-1.4,0-2.4,0-3.4,0c-24.3,0-48.7,0-73,0c-3.6,0-3.6,0-3.6-3.6c0-26.8,0-53.5,0-80.3
			c0-1.1,0-2.2,0-3.6c8.8,0,17.3,0,26.1,0c0-8.8,0-17.3,0-25.9c11.7,0,23.2,0,34.7,0v-5c-12,0-24,0-36,0.1c-1.3,0-2.9,0.8-3.8,1.7
			C24.8,31.3,17,39.3,9,47.1c-1.4,1.3-2,2.7-2,4.6c0.1,29.9,0.1,59.7,0,89.6c0,3,1,3.5,3.7,3.5c17.9-0.1,35.8,0,53.7,0
			c9.9,0,19.8,0,29.7-0.1c0.9,0,2.6-0.9,2.6-1.4c0.2-3.4,0.1-6.8,0.1-10.3C95.1,133,93.7,133,92,133z M33.2,30.7
			c0,2.8,0.1,5.6,0,8.4c-0.1,2.8,0.7,6.4-0.7,8c-1.2,1.4-5.1,0.5-7.7,0.6c-2.8,0.1-5.6,0-8.5,0C21.9,41.9,27.4,36.4,33.2,30.7z"/>
		<path d="M118.7,81.2c1.5,1.1,2.6,1.9,4.4,3.2c-11.1,10.7-21.7,20.9-32.7,31.5c1.3,1.1,2.2,1.8,3,2.4c8.4-8.4,16.7-16.8,25.2-25.3
			c1.6,1.5,2.6,2.5,4,3.7c-6,5.9-11.7,11.6-17.5,17.3c-11.9,11.8-12.5,12.1-31.5,15.4c1.8-7,3.5-13.9,5.2-20.8
			c0.1-0.4,0.5-0.8,0.8-1.1c8.7-9,17.4-17.9,26.4-27.2c1.3,1.9,2.2,3.1,3.1,4.5c-7.9,7.8-16.3,16.2-25,24.9c1.2,1,2.1,1.8,3.2,2.8
			C98,102.1,108.5,91.5,118.7,81.2z M82.1,114.7c-0.6,3.1-1.1,5.6-1.7,8.5c2.9-0.8,5.3-1.4,8-2.1C86.3,118.9,84.4,117,82.1,114.7z"
			/>
		<path d="M54.4,70c6,0,11.7,0,17.3,0c1.7,6.8-2.4,15.4-9.1,19.5c-7.5,4.6-17.1,3.9-23.7-1.7c-6.6-5.6-8.9-15-5.6-22.9
			c3.5-8.4,11.4-13.2,21.1-12.5c0,2.8,0,5.7,0,8.5C54.4,63.8,54.4,66.7,54.4,70z M49.5,57.6c-7.1,0.5-13.2,7.7-12.9,15
			c0.3,8.3,6.8,14.8,15,15.1c7.6,0.2,14.5-5.6,15.1-12.8c-5.6,0-11.3,0-17.2,0C49.5,68.9,49.5,63.3,49.5,57.6z"/>
		<path d="M79.4,67c-7.2,0-14.4,0-21.9,0c0-7.4,0-14.8,0-22.2C69.7,42.7,81.8,54.8,79.4,67z M62.3,62.1c4.3,0,8.2,0,12.2,0
			c-0.7-6.3-6.3-11.9-12.2-12.1C62.3,53.9,62.3,57.9,62.3,62.1z"/>
		<path d="M24.8,107.4c0-1.6,0-3,0-4.6c13.9,0,27.6,0,41.5,0c0,1.5,0,3,0,4.6C52.5,107.4,38.8,107.4,24.8,107.4z"/>
		<path d="M24.9,131.4c0-1.8,0-3.2,0-4.7c13.8,0,27.5,0,41.2,0c1.1,4.3,0.8,4.7-3.5,4.7c-11.5,0-22.9,0-34.4,0
			C27.2,131.4,26.2,131.4,24.9,131.4z"/>
		<path d="M24.9,119.4c0-1.6,0-2.9,0-4.4c13.8,0,27.5,0,41.4,0c0,1.4,0,2.8,0,4.4C52.5,119.4,38.9,119.4,24.9,119.4z"/>
	</g>
	<g>
		<g>
			<path d="M98.2,19.6c0-0.9,0.7-1.6,1.6-1.6l0,0C98.9,18,98.2,18.8,98.2,19.6c0,0.2,0,0.4,0.1,0.6C98.2,20,98.2,19.8,98.2,19.6z"/>
			<path d="M102.6,29.6c-1.6-1.3-3.9-1.4-5.5,0c-0.3,0.3-0.6,0.3-0.9,0.1c-1.5-0.7-2.9-1.4-4.4-2c-0.5-0.2-1-0.4-0.7-1.1
				c-0.3-0.7,0.2-1,0.8-1.2c1.5-0.7,2.9-1.4,4.4-2.1c0.4-0.2,0.8-0.3,1.2,0.1c0.8,0.6,1.8,0.8,2.8,0.7c2.4-0.2,4.2-2.4,4-4.7
				c-0.2-2.4-2.3-4.3-4.7-4.1c-2.5,0.2-4.3,2.3-4.1,4.8c0,0.4-0.1,0.5-0.4,0.7c-1.6,0.8-3.2,1.6-4.9,2.3c-0.2,0.1-0.6,0.1-0.8-0.1
				c-2-1.4-4.4-1.3-6,0.4c-1.5,1.6-1.6,4.1-0.2,5.8c1.4,1.8,3.9,2.1,5.9,0.9c0.2-0.1,0.6-0.2,0.8-0.1c1.7,0.7,3.3,1.5,5,2.3
				c0.4,0.2,0.5,0.3,0.5,0.8c0,2.1,1.4,3.9,3.4,4.3c2,0.5,4.1-0.5,5-2.4C104.6,33.1,104.1,30.9,102.6,29.6z M99.7,18L99.7,18
				C99.8,18,99.8,18,99.7,18c0.9,0,1.6,0.7,1.6,1.6c0,0.9-0.7,1.6-1.6,1.6c-0.7,0-1.2-0.4-1.5-1c-0.1-0.2-0.1-0.4-0.1-0.6
				C98.2,18.8,98.9,18,99.7,18z M86.5,27.9c-0.9,0-1.6-0.7-1.6-1.6c0-0.9,0.8-1.6,1.7-1.6c0.9,0,1.5,0.8,1.5,1.6
				C88.1,27.2,87.4,27.9,86.5,27.9z M99.8,34.6c-0.9,0-1.6-0.7-1.6-1.6c0-0.9,0.7-1.6,1.6-1.6c0.8,0,1.6,0.7,1.6,1.5
				C101.4,33.9,100.7,34.6,99.8,34.6z"/>
		</g>
		<g>
			<path d="M110.3,38.3c0,0-0.1,0.1-0.1,0.1C110.3,38.3,110.3,38.3,110.3,38.3z"/>
			<path d="M110.5,38.1c0,0.1-0.1,0.1-0.1,0.2C110.4,38.2,110.4,38.1,110.5,38.1z"/>
			<path d="M98.3,45.6c4.9-0.9,9.1-3.6,11.9-7.2c0,0,0.1-0.1,0.1-0.1c0-0.1,0.1-0.1,0.1-0.2c2.4-3.2,3.8-7.2,3.8-11.5
				c0-10.7-8.7-19.4-19.4-19.4s-19.4,8.7-19.4,19.4c0,6.4,3.1,12.1,7.9,15.6c3.2,2.3,6.8,3.5,10.8,3.7c0.1,0,0.2,0,0.4,0
				c0,0,3.1-0.2,3.1-0.2C98,45.7,98.1,45.6,98.3,45.6z M94.8,43.1c-9.1,0-16.6-7.5-16.6-16.6c0-9.3,7.5-16.7,16.7-16.7
				c9.1,0,16.6,7.5,16.6,16.7C111.5,35.6,104,43.1,94.8,43.1z"/>
		</g>
	</g>
	<line class="st0" x1="140" y1="66.2" x2="139.9" y2="66.2"/>
</g>
</svg>
