<?xml version="1.0" encoding="utf-8"?>
<!-- Generator: Adobe Illustrator 24.1.1, SVG Export Plug-In . SVG Version: 6.00 Build 0)  -->
<svg version="1.1" id="Layer_1" xmlns="http://www.w3.org/2000/svg" xmlns:xlink="http://www.w3.org/1999/xlink" x="0px" y="0px"
	 width="464.6px" height="51.3px" viewBox="0 0 464.6 51.3" style="enable-background:new 0 0 464.6 51.3;" xml:space="preserve">
<style type="text/css">
	.st0{fill:#1C96E8;}
	.st1{fill:#F96731;}
	.st2{fill:#2B9AF3;}
</style>
<g>
	<g>
		<path d="M6.5,41.9c0-2.1,1.2-3.4,2.9-3.4c0.8,0,1.4,0.4,1.8,0.8l-0.4,0.5c-0.3-0.4-0.8-0.6-1.3-0.6c-1.2,0-2,1-2,2.6
			c0,1.6,0.8,2.7,2,2.7c0.6,0,1.1-0.3,1.5-0.7l0.5,0.5c-0.5,0.6-1.2,0.9-2,0.9C7.7,45.2,6.5,44,6.5,41.9z"/>
		<path d="M12.4,42.7c0-1.6,1.1-2.5,2.2-2.5s2.2,0.9,2.2,2.5c0,1.6-1.1,2.5-2.2,2.5S12.4,44.3,12.4,42.7z M16.1,42.7
			c0-1.1-0.6-1.9-1.4-1.9c-0.8,0-1.4,0.8-1.4,1.9c0,1.1,0.6,1.8,1.4,1.8C15.5,44.6,16.1,43.8,16.1,42.7z"/>
		<path d="M18.5,40.3h0.7l0.1,0.7h0c0.5-0.5,1-0.8,1.6-0.8c1,0,1.5,0.7,1.5,1.9v3.1h-0.8v-3c0-0.9-0.3-1.3-0.9-1.3
			c-0.5,0-0.8,0.3-1.3,0.7v3.5h-0.8V40.3z"/>
		<path d="M24.3,40.3H25L25,41h0c0.5-0.5,1-0.8,1.6-0.8c1,0,1.5,0.7,1.5,1.9v3.1h-0.8v-3c0-0.9-0.3-1.3-0.9-1.3
			c-0.5,0-0.8,0.3-1.3,0.7v3.5h-0.8V40.3z"/>
		<path d="M29.7,42.7c0-1.6,1.1-2.5,2.2-2.5c1.2,0,1.9,0.9,1.9,2.3c0,0.2,0,0.3,0,0.5h-3.3c0.1,1,0.7,1.7,1.6,1.7
			c0.5,0,0.8-0.1,1.2-0.4l0.3,0.5c-0.4,0.3-0.9,0.5-1.6,0.5C30.7,45.2,29.7,44.3,29.7,42.7z M33.1,42.3c0-1-0.4-1.5-1.2-1.5
			c-0.7,0-1.3,0.5-1.4,1.5H33.1z"/>
		<path d="M35,42.7c0-1.6,1.1-2.5,2.3-2.5c0.6,0,1.1,0.3,1.4,0.6l-0.4,0.5c-0.3-0.2-0.6-0.4-1-0.4c-0.9,0-1.5,0.8-1.5,1.9
			c0,1.1,0.6,1.8,1.5,1.8c0.4,0,0.8-0.2,1.1-0.5l0.4,0.5c-0.4,0.4-1,0.6-1.6,0.6C36,45.2,35,44.3,35,42.7z"/>
		<path d="M40.3,43.6V41h-0.7v-0.6l0.8,0l0.1-1.4h0.7v1.4h1.3V41h-1.3v2.7c0,0.6,0.2,0.9,0.7,0.9c0.2,0,0.4-0.1,0.5-0.1l0.2,0.6
			c-0.3,0.1-0.6,0.2-0.9,0.2C40.7,45.2,40.3,44.6,40.3,43.6z"/>
		<path d="M43.7,38.8c0-0.3,0.2-0.5,0.6-0.5s0.6,0.2,0.6,0.5c0,0.3-0.2,0.5-0.6,0.5S43.7,39.1,43.7,38.8z M43.9,40.3h0.8v4.8h-0.8
			V40.3z"/>
		<path d="M46.7,40.3h0.7l0.1,0.7h0c0.5-0.5,1-0.8,1.6-0.8c1,0,1.5,0.7,1.5,1.9v3.1h-0.8v-3c0-0.9-0.3-1.3-0.9-1.3
			c-0.5,0-0.8,0.3-1.3,0.7v3.5h-0.8V40.3z"/>
		<path d="M52.1,46c0-0.4,0.3-0.8,0.7-1.1v0c-0.2-0.1-0.4-0.4-0.4-0.8c0-0.4,0.3-0.7,0.5-0.9v0c-0.3-0.3-0.6-0.7-0.6-1.3
			c0-1.1,0.8-1.7,1.8-1.7c0.3,0,0.5,0,0.7,0.1h1.7v0.6h-1c0.2,0.2,0.4,0.6,0.4,1c0,1-0.8,1.7-1.8,1.7c-0.2,0-0.5-0.1-0.7-0.2
			C53.2,43.6,53,43.7,53,44c0,0.3,0.2,0.5,0.9,0.5h0.9c1.1,0,1.7,0.3,1.7,1.2c0,0.9-0.9,1.7-2.4,1.7C52.9,47.3,52.1,46.9,52.1,46z
			 M55.7,45.8c0-0.4-0.3-0.6-1-0.6h-0.8c-0.2,0-0.4,0-0.6-0.1c-0.3,0.2-0.5,0.5-0.5,0.8c0,0.5,0.5,0.8,1.4,0.8
			C55.1,46.8,55.7,46.3,55.7,45.8z M55.1,41.9c0-0.7-0.5-1.1-1-1.1c-0.6,0-1,0.4-1,1.1c0,0.7,0.5,1.2,1,1.2
			C54.6,43,55.1,42.6,55.1,41.9z"/>
		<path d="M60.2,38.6H61v5.8h2.9v0.7h-3.7V38.6z"/>
		<path d="M65.1,38.8c0-0.3,0.2-0.5,0.6-0.5s0.6,0.2,0.6,0.5c0,0.3-0.2,0.5-0.6,0.5S65.1,39.1,65.1,38.8z M65.3,40.3h0.8v4.8h-0.8
			V40.3z"/>
		<path d="M68.2,41h-0.7v-0.6l0.7,0v-0.8c0-1,0.4-1.6,1.4-1.6c0.3,0,0.6,0.1,0.8,0.2l-0.2,0.6c-0.2-0.1-0.4-0.1-0.5-0.1
			c-0.5,0-0.7,0.3-0.7,0.9v0.8h1V41h-1v4.2h-0.8V41z"/>
		<path d="M71,42.7c0-1.6,1.1-2.5,2.2-2.5c1.2,0,1.9,0.9,1.9,2.3c0,0.2,0,0.3,0,0.5h-3.3c0.1,1,0.7,1.7,1.6,1.7
			c0.5,0,0.8-0.1,1.2-0.4l0.3,0.5c-0.4,0.3-0.9,0.5-1.6,0.5C72,45.2,71,44.3,71,42.7z M74.3,42.3c0-1-0.4-1.5-1.2-1.5
			c-0.7,0-1.3,0.5-1.4,1.5H74.3z"/>
		<path d="M78.5,44.3l0.5-0.6c0.5,0.5,1.1,0.8,1.8,0.8c0.9,0,1.4-0.4,1.4-1.1c0-0.7-0.5-0.9-1.1-1.2l-0.9-0.4
			c-0.6-0.3-1.3-0.7-1.3-1.7c0-1,0.9-1.7,2-1.7c0.8,0,1.5,0.3,1.9,0.8l-0.4,0.5c-0.4-0.4-0.9-0.6-1.5-0.6c-0.7,0-1.2,0.4-1.2,1
			c0,0.6,0.6,0.9,1.1,1.1l0.9,0.4c0.8,0.3,1.3,0.8,1.3,1.7c0,1-0.8,1.9-2.2,1.9C79.9,45.2,79.1,44.9,78.5,44.3z"/>
		<path d="M84.2,42.7c0-1.6,1.1-2.5,2.3-2.5c0.6,0,1.1,0.3,1.4,0.6l-0.4,0.5c-0.3-0.2-0.6-0.4-1-0.4c-0.9,0-1.5,0.8-1.5,1.9
			c0,1.1,0.6,1.8,1.5,1.8c0.4,0,0.8-0.2,1.1-0.5l0.4,0.5c-0.4,0.4-1,0.6-1.6,0.6C85.2,45.2,84.2,44.3,84.2,42.7z"/>
		<path d="M89.3,38.8c0-0.3,0.2-0.5,0.6-0.5s0.6,0.2,0.6,0.5c0,0.3-0.2,0.5-0.6,0.5S89.3,39.1,89.3,38.8z M89.4,40.3h0.8v4.8h-0.8
			V40.3z"/>
		<path d="M91.8,42.7c0-1.6,1.1-2.5,2.2-2.5c1.2,0,1.9,0.9,1.9,2.3c0,0.2,0,0.3,0,0.5h-3.3c0.1,1,0.7,1.7,1.6,1.7
			c0.5,0,0.8-0.1,1.2-0.4l0.3,0.5c-0.4,0.3-0.9,0.5-1.6,0.5C92.9,45.2,91.8,44.3,91.8,42.7z M95.2,42.3c0-1-0.4-1.5-1.2-1.5
			c-0.7,0-1.3,0.5-1.4,1.5H95.2z"/>
		<path d="M97.5,40.3h0.7l0.1,0.7h0c0.5-0.5,1-0.8,1.6-0.8c1,0,1.5,0.7,1.5,1.9v3.1h-0.8v-3c0-0.9-0.3-1.3-0.9-1.3
			c-0.5,0-0.8,0.3-1.3,0.7v3.5h-0.8V40.3z"/>
		<path d="M102.9,42.7c0-1.6,1.1-2.5,2.3-2.5c0.6,0,1.1,0.3,1.4,0.6l-0.4,0.5c-0.3-0.2-0.6-0.4-1-0.4c-0.9,0-1.5,0.8-1.5,1.9
			c0,1.1,0.6,1.8,1.5,1.8c0.4,0,0.8-0.2,1.1-0.5l0.4,0.5c-0.4,0.4-1,0.6-1.6,0.6C103.9,45.2,102.9,44.3,102.9,42.7z"/>
		<path d="M107.8,42.7c0-1.6,1.1-2.5,2.2-2.5c1.2,0,1.9,0.9,1.9,2.3c0,0.2,0,0.3,0,0.5h-3.3c0.1,1,0.7,1.7,1.6,1.7
			c0.5,0,0.8-0.1,1.2-0.4l0.3,0.5c-0.4,0.3-0.9,0.5-1.6,0.5C108.8,45.2,107.8,44.3,107.8,42.7z M111.1,42.3c0-1-0.4-1.5-1.2-1.5
			c-0.7,0-1.3,0.5-1.4,1.5H111.1z"/>
		<path d="M112.8,44.6l0.4-0.5c0.4,0.3,0.8,0.6,1.4,0.6c0.6,0,1-0.3,1-0.8c0-0.5-0.6-0.7-1.1-0.9c-0.7-0.2-1.4-0.6-1.4-1.4
			c0-0.8,0.6-1.4,1.7-1.4c0.6,0,1.1,0.2,1.5,0.5l-0.4,0.5c-0.3-0.2-0.7-0.4-1.1-0.4c-0.6,0-0.9,0.3-0.9,0.7c0,0.5,0.5,0.6,1.1,0.8
			c0.7,0.3,1.5,0.5,1.5,1.5c0,0.8-0.6,1.4-1.8,1.4C114,45.2,113.3,45,112.8,44.6z"/>
		<path d="M119.8,42.7c0-1.6,1.1-2.5,2.2-2.5c1.2,0,1.9,0.9,1.9,2.3c0,0.2,0,0.3,0,0.5h-3.3c0.1,1,0.7,1.7,1.6,1.7
			c0.5,0,0.8-0.1,1.2-0.4l0.3,0.5c-0.4,0.3-0.9,0.5-1.6,0.5C120.9,45.2,119.8,44.3,119.8,42.7z M123.2,42.3c0-1-0.4-1.5-1.2-1.5
			c-0.7,0-1.3,0.5-1.4,1.5H123.2z"/>
		<path d="M126.4,42.6l-1.5-2.3h0.9l0.6,1.1c0.1,0.3,0.3,0.5,0.5,0.8h0c0.1-0.3,0.3-0.5,0.4-0.8l0.6-1.1h0.9l-1.5,2.4l1.6,2.4h-0.9
			l-0.7-1.1c-0.2-0.3-0.3-0.6-0.5-0.9h0c-0.2,0.3-0.3,0.6-0.5,0.9l-0.7,1.1h-0.9L126.4,42.6z"/>
		<path d="M130.2,40.3h0.7l0.1,0.6h0c0.4-0.4,1-0.7,1.5-0.7c1.2,0,1.9,1,1.9,2.5c0,1.6-1,2.6-2.1,2.6c-0.4,0-0.9-0.2-1.3-0.6l0,0.8
			v1.6h-0.8V40.3z M133.6,42.6c0-1.1-0.4-1.8-1.3-1.8c-0.4,0-0.8,0.2-1.3,0.7V44c0.4,0.4,0.9,0.5,1.2,0.5
			C133,44.6,133.6,43.8,133.6,42.6z"/>
		<path d="M135.7,42.7c0-1.6,1.1-2.5,2.2-2.5c1.2,0,1.9,0.9,1.9,2.3c0,0.2,0,0.3,0,0.5h-3.3c0.1,1,0.7,1.7,1.6,1.7
			c0.5,0,0.8-0.1,1.2-0.4l0.3,0.5c-0.4,0.3-0.9,0.5-1.6,0.5C136.8,45.2,135.7,44.3,135.7,42.7z M139.1,42.3c0-1-0.4-1.5-1.2-1.5
			c-0.7,0-1.3,0.5-1.4,1.5H139.1z"/>
		<path d="M141.4,40.3h0.7l0.1,0.9h0c0.3-0.6,0.8-1,1.4-1c0.2,0,0.4,0,0.5,0.1l-0.2,0.7c-0.2,0-0.3-0.1-0.5-0.1
			c-0.4,0-0.9,0.3-1.2,1.1v3.1h-0.8V40.3z"/>
		<path d="M145.3,43.6V41h-0.7v-0.6l0.8,0l0.1-1.4h0.7v1.4h1.3V41h-1.3v2.7c0,0.6,0.2,0.9,0.7,0.9c0.2,0,0.4-0.1,0.5-0.1l0.2,0.6
			c-0.3,0.1-0.6,0.2-0.9,0.2C145.6,45.2,145.3,44.6,145.3,43.6z"/>
		<path d="M148.3,44.6l0.4-0.5c0.4,0.3,0.8,0.6,1.4,0.6c0.6,0,1-0.3,1-0.8c0-0.5-0.6-0.7-1.1-0.9c-0.7-0.2-1.4-0.6-1.4-1.4
			c0-0.8,0.6-1.4,1.7-1.4c0.6,0,1.1,0.2,1.5,0.5l-0.4,0.5c-0.3-0.2-0.7-0.4-1.1-0.4c-0.6,0-0.9,0.3-0.9,0.7c0,0.5,0.5,0.6,1.1,0.8
			c0.7,0.3,1.5,0.5,1.5,1.5c0,0.8-0.6,1.4-1.8,1.4C149.4,45.2,148.8,45,148.3,44.6z"/>
	</g>
	<g>
		
			<image style="overflow:visible;opacity:0.2;" width="306" height="30" xlink:href="7659D5B2.png"  transform="matrix(1 0 0 1 159.4315 7.0852)">
		</image>
		<g>
			<g>
				<path class="st0" d="M174.2,30.4c0,0.1-0.1,0.2-0.2,0.3c-0.1,0.1-0.2,0.1-0.3,0.2c-0.1,0-0.3,0.1-0.5,0.1s-0.4,0-0.7,0
					c-0.2,0-0.4,0-0.6,0c-0.2,0-0.3,0-0.4,0c-0.1,0-0.2,0-0.3-0.1s-0.2-0.1-0.2-0.1c-0.1,0-0.1-0.1-0.1-0.1c0-0.1-0.1-0.1-0.1-0.2
					l-6.3-18c-0.1-0.2-0.1-0.4-0.1-0.5c0-0.1,0-0.2,0.1-0.3s0.2-0.1,0.4-0.1s0.5,0,0.8,0c0.3,0,0.5,0,0.7,0c0.2,0,0.3,0,0.4,0.1
					c0.1,0,0.2,0.1,0.2,0.2s0.1,0.1,0.1,0.2l5.6,16.3h0L178,12c0-0.1,0.1-0.2,0.1-0.3s0.1-0.1,0.2-0.2c0.1,0,0.2-0.1,0.4-0.1
					c0.2,0,0.4,0,0.7,0c0.3,0,0.6,0,0.7,0c0.2,0,0.3,0.1,0.4,0.1s0.1,0.2,0.1,0.3c0,0.1-0.1,0.3-0.1,0.5L174.2,30.4z"/>
				<path class="st0" d="M186.4,30.5c0,0.1,0,0.1-0.1,0.2c0,0.1-0.1,0.1-0.2,0.1c-0.1,0-0.2,0.1-0.4,0.1c-0.2,0-0.4,0-0.6,0
					c-0.2,0-0.4,0-0.6,0c-0.2,0-0.3-0.1-0.4-0.1c-0.1,0-0.2-0.1-0.2-0.1c0-0.1-0.1-0.1-0.1-0.2V11.9c0-0.1,0-0.1,0.1-0.2
					s0.1-0.1,0.2-0.1c0.1,0,0.2-0.1,0.4-0.1c0.2,0,0.4,0,0.6,0c0.2,0,0.5,0,0.6,0c0.2,0,0.3,0.1,0.4,0.1c0.1,0,0.2,0.1,0.2,0.1
					c0,0.1,0.1,0.1,0.1,0.2V30.5z"/>
				<path class="st0" d="M204.4,30.5c0,0.1,0,0.1,0,0.2c0,0.1-0.1,0.1-0.2,0.1c-0.1,0-0.2,0.1-0.4,0.1c-0.2,0-0.4,0-0.7,0
					c-0.3,0-0.5,0-0.6,0c-0.2,0-0.3-0.1-0.4-0.1s-0.2-0.1-0.2-0.2c-0.1-0.1-0.1-0.2-0.1-0.3l-1.8-4.6c-0.2-0.5-0.4-1-0.7-1.4
					c-0.2-0.4-0.5-0.8-0.8-1.1c-0.3-0.3-0.7-0.6-1.1-0.7s-0.9-0.3-1.5-0.3h-1.7v8.3c0,0.1,0,0.1-0.1,0.2s-0.1,0.1-0.2,0.1
					c-0.1,0-0.2,0.1-0.4,0.1c-0.2,0-0.4,0-0.6,0c-0.3,0-0.5,0-0.6,0c-0.2,0-0.3-0.1-0.4-0.1c-0.1,0-0.2-0.1-0.2-0.1
					c0-0.1-0.1-0.1-0.1-0.2V12.5c0-0.4,0.1-0.7,0.3-0.8c0.2-0.2,0.4-0.2,0.7-0.2h4.1c0.5,0,0.9,0,1.2,0c0.3,0,0.6,0.1,0.9,0.1
					c0.7,0.1,1.4,0.3,2,0.6c0.6,0.3,1.1,0.6,1.4,1.1c0.4,0.4,0.7,0.9,0.9,1.5c0.2,0.6,0.3,1.2,0.3,1.8c0,0.6-0.1,1.2-0.3,1.7
					c-0.2,0.5-0.4,1-0.8,1.4c-0.3,0.4-0.7,0.7-1.2,1s-1,0.5-1.5,0.7c0.3,0.1,0.6,0.3,0.9,0.5c0.3,0.2,0.5,0.5,0.7,0.8
					c0.2,0.3,0.4,0.6,0.6,1c0.2,0.4,0.4,0.8,0.6,1.3l1.7,4.3c0.1,0.4,0.2,0.6,0.3,0.8C204.4,30.3,204.4,30.4,204.4,30.5z
					 M200.6,16.9c0-0.8-0.2-1.4-0.5-1.9s-0.9-0.9-1.7-1.1c-0.3-0.1-0.5-0.1-0.8-0.1c-0.3,0-0.7,0-1.2,0h-2.2v6.5h2.5
					c0.7,0,1.3-0.1,1.8-0.2c0.5-0.2,0.9-0.4,1.2-0.7s0.6-0.6,0.7-1C200.5,17.8,200.6,17.3,200.6,16.9z"/>
				<path class="st0" d="M220,12.6c0,0.2,0,0.4,0,0.5c0,0.1-0.1,0.3-0.1,0.3s-0.1,0.1-0.2,0.2c-0.1,0-0.1,0.1-0.2,0.1h-5.5v16.8
					c0,0.1,0,0.1-0.1,0.2c0,0.1-0.1,0.1-0.2,0.1c-0.1,0-0.2,0.1-0.4,0.1c-0.2,0-0.4,0-0.6,0c-0.2,0-0.4,0-0.6,0
					c-0.2,0-0.3-0.1-0.4-0.1c-0.1,0-0.2-0.1-0.2-0.1c0-0.1-0.1-0.1-0.1-0.2V13.7H206c-0.1,0-0.2,0-0.2-0.1c-0.1,0-0.1-0.1-0.2-0.2
					s-0.1-0.2-0.1-0.3c0-0.1,0-0.3,0-0.5c0-0.2,0-0.4,0-0.5c0-0.1,0.1-0.3,0.1-0.4s0.1-0.2,0.2-0.2c0.1,0,0.1-0.1,0.2-0.1h13.5
					c0.1,0,0.2,0,0.2,0.1c0.1,0,0.1,0.1,0.2,0.2s0.1,0.2,0.1,0.4C220,12.3,220,12.4,220,12.6z"/>
				<path class="st0" d="M237.4,23.7c0,1.2-0.2,2.2-0.5,3.2c-0.3,0.9-0.8,1.7-1.5,2.3c-0.6,0.6-1.4,1.1-2.3,1.5s-2,0.5-3.1,0.5
					c-1.1,0-2-0.2-2.9-0.5c-0.9-0.3-1.6-0.8-2.3-1.4c-0.6-0.6-1.1-1.4-1.5-2.3c-0.3-0.9-0.5-2-0.5-3.1v-12c0-0.1,0-0.1,0.1-0.2
					c0-0.1,0.1-0.1,0.2-0.1c0.1,0,0.2-0.1,0.4-0.1c0.2,0,0.4,0,0.6,0c0.2,0,0.4,0,0.6,0c0.2,0,0.3,0.1,0.4,0.1
					c0.1,0,0.2,0.1,0.2,0.1c0,0.1,0.1,0.1,0.1,0.2v11.7c0,0.9,0.1,1.7,0.3,2.4c0.2,0.7,0.5,1.2,1,1.7s0.9,0.8,1.5,1
					c0.6,0.2,1.2,0.3,2,0.3c0.7,0,1.4-0.1,2-0.3s1.1-0.5,1.5-1c0.4-0.4,0.7-1,0.9-1.6c0.2-0.6,0.3-1.4,0.3-2.3V11.9
					c0-0.1,0-0.1,0.1-0.2s0.1-0.1,0.2-0.1c0.1,0,0.2-0.1,0.4-0.1c0.2,0,0.4,0,0.6,0c0.2,0,0.4,0,0.6,0c0.2,0,0.3,0.1,0.4,0.1
					c0.1,0,0.2,0.1,0.2,0.1s0.1,0.1,0.1,0.2V23.7z"/>
				<path class="st0" d="M256.4,30c0.1,0.2,0.1,0.4,0.1,0.5c0,0.1,0,0.2-0.1,0.3c-0.1,0.1-0.2,0.1-0.4,0.1c-0.2,0-0.4,0-0.7,0
					s-0.6,0-0.7,0c-0.2,0-0.3,0-0.4-0.1c-0.1,0-0.2-0.1-0.2-0.1s-0.1-0.1-0.1-0.2l-1.7-4.7H244l-1.6,4.7c0,0.1-0.1,0.2-0.1,0.2
					s-0.1,0.1-0.2,0.2c-0.1,0-0.2,0.1-0.4,0.1c-0.2,0-0.4,0-0.7,0c-0.3,0-0.5,0-0.7,0c-0.2,0-0.3-0.1-0.4-0.1s-0.1-0.2-0.1-0.3
					s0-0.3,0.1-0.5l6.5-18c0-0.1,0.1-0.2,0.2-0.3c0.1-0.1,0.2-0.1,0.3-0.2c0.1,0,0.3-0.1,0.5-0.1c0.2,0,0.4,0,0.7,0
					c0.3,0,0.6,0,0.8,0c0.2,0,0.4,0,0.5,0.1c0.1,0,0.2,0.1,0.3,0.2c0.1,0.1,0.1,0.2,0.2,0.3L256.4,30z M248,14.1L248,14.1l-3.4,9.7
					h6.7L248,14.1z"/>
				<path class="st0" d="M269.6,29.8c0,0.2,0,0.4,0,0.5s-0.1,0.2-0.1,0.3c0,0.1-0.1,0.2-0.2,0.2s-0.1,0.1-0.2,0.1h-8.6
					c-0.2,0-0.4-0.1-0.7-0.2c-0.2-0.2-0.3-0.4-0.3-0.8V11.9c0-0.1,0-0.1,0.1-0.2c0-0.1,0.1-0.1,0.2-0.1c0.1,0,0.2-0.1,0.4-0.1
					c0.2,0,0.4,0,0.6,0c0.2,0,0.5,0,0.6,0c0.2,0,0.3,0.1,0.4,0.1c0.1,0,0.2,0.1,0.2,0.1c0,0.1,0.1,0.1,0.1,0.2v16.8h7
					c0.1,0,0.2,0,0.2,0.1s0.1,0.1,0.2,0.2c0,0.1,0.1,0.2,0.1,0.3S269.6,29.6,269.6,29.8z"/>
				<path class="st0" d="M290.2,29.8c0,0.2,0,0.3,0,0.5s-0.1,0.2-0.1,0.3c0,0.1-0.1,0.2-0.2,0.2c-0.1,0-0.1,0.1-0.2,0.1h-9.3
					c-0.2,0-0.4-0.1-0.7-0.2c-0.2-0.2-0.3-0.4-0.3-0.8V12.5c0-0.4,0.1-0.7,0.3-0.8c0.2-0.2,0.4-0.2,0.7-0.2h9.2c0.1,0,0.2,0,0.2,0.1
					c0.1,0,0.1,0.1,0.2,0.2c0,0.1,0.1,0.2,0.1,0.3c0,0.1,0,0.3,0,0.5c0,0.2,0,0.3,0,0.5s-0.1,0.2-0.1,0.3c0,0.1-0.1,0.1-0.2,0.2
					c-0.1,0-0.1,0.1-0.2,0.1H282v6.1h6.5c0.1,0,0.2,0,0.2,0.1c0.1,0,0.1,0.1,0.2,0.2c0,0.1,0.1,0.2,0.1,0.3c0,0.1,0,0.3,0,0.5
					c0,0.2,0,0.3,0,0.5c0,0.1-0.1,0.2-0.1,0.3c0,0.1-0.1,0.1-0.2,0.2c-0.1,0-0.1,0.1-0.2,0.1H282v6.9h7.7c0.1,0,0.2,0,0.2,0.1
					c0.1,0,0.1,0.1,0.2,0.2s0.1,0.2,0.1,0.3S290.2,29.6,290.2,29.8z"/>
				<path class="st0" d="M309.1,29.8c0,0.2,0,0.4-0.1,0.5c-0.1,0.1-0.2,0.3-0.3,0.3c-0.1,0.1-0.2,0.2-0.4,0.2
					c-0.1,0-0.3,0.1-0.4,0.1h-0.9c-0.3,0-0.5,0-0.7-0.1s-0.4-0.2-0.6-0.3c-0.2-0.1-0.4-0.3-0.5-0.6c-0.2-0.2-0.4-0.6-0.6-1l-5.9-11
					c-0.3-0.6-0.6-1.2-0.9-1.8c-0.3-0.6-0.6-1.2-0.9-1.8h0c0,0.7,0,1.5,0,2.2c0,0.7,0,1.5,0,2.2v11.7c0,0.1,0,0.1-0.1,0.2
					c0,0.1-0.1,0.1-0.2,0.1c-0.1,0-0.2,0.1-0.4,0.1c-0.2,0-0.4,0-0.6,0s-0.5,0-0.6,0c-0.2,0-0.3-0.1-0.4-0.1c-0.1,0-0.2-0.1-0.2-0.1
					c0-0.1-0.1-0.1-0.1-0.2V12.6c0-0.4,0.1-0.7,0.3-0.9c0.2-0.2,0.5-0.3,0.7-0.3h1.3c0.3,0,0.5,0,0.7,0.1c0.2,0.1,0.4,0.1,0.5,0.2
					c0.2,0.1,0.3,0.3,0.5,0.5c0.1,0.2,0.3,0.5,0.5,0.8l4.5,8.5c0.3,0.5,0.6,1,0.8,1.5c0.3,0.5,0.5,1,0.8,1.5c0.2,0.5,0.5,1,0.7,1.4
					s0.5,0.9,0.7,1.4h0c0-0.8,0-1.6,0-2.5c0-0.9,0-1.7,0-2.5V11.9c0-0.1,0-0.1,0.1-0.2c0-0.1,0.1-0.1,0.2-0.2c0.1,0,0.2-0.1,0.4-0.1
					s0.4,0,0.6,0c0.2,0,0.4,0,0.6,0c0.2,0,0.3,0.1,0.4,0.1c0.1,0,0.2,0.1,0.2,0.2c0,0.1,0.1,0.1,0.1,0.2V29.8z"/>
				<path class="st0" d="M328.8,14.1c0,0.2,0,0.4,0,0.5c0,0.1,0,0.3-0.1,0.4s-0.1,0.2-0.2,0.2c-0.1,0-0.1,0.1-0.2,0.1
					c-0.1,0-0.3-0.1-0.6-0.3c-0.3-0.2-0.7-0.4-1.1-0.6c-0.5-0.2-1-0.4-1.7-0.6c-0.7-0.2-1.4-0.3-2.3-0.3c-1.1,0-2,0.2-2.9,0.6
					s-1.6,0.9-2.2,1.6c-0.6,0.7-1,1.5-1.4,2.5c-0.3,0.9-0.5,2-0.5,3.1c0,1.2,0.2,2.3,0.5,3.3c0.3,1,0.8,1.8,1.4,2.4s1.3,1.2,2.2,1.5
					c0.8,0.3,1.8,0.5,2.8,0.5c0.6,0,1.2-0.1,1.8-0.2c0.6-0.1,1.2-0.4,1.7-0.7v-5.6h-4.5c-0.2,0-0.3-0.1-0.4-0.3
					c-0.1-0.2-0.1-0.4-0.1-0.8c0-0.2,0-0.4,0-0.5c0-0.1,0.1-0.2,0.1-0.3c0-0.1,0.1-0.1,0.2-0.2c0.1,0,0.1-0.1,0.2-0.1h6.2
					c0.1,0,0.2,0,0.3,0.1c0.1,0,0.2,0.1,0.3,0.2s0.2,0.2,0.2,0.3s0.1,0.3,0.1,0.5v7.4c0,0.3,0,0.5-0.1,0.7c-0.1,0.2-0.3,0.4-0.6,0.5
					c-0.3,0.1-0.7,0.3-1.1,0.5c-0.5,0.2-0.9,0.3-1.4,0.4c-0.5,0.1-1,0.2-1.5,0.3c-0.5,0.1-1,0.1-1.5,0.1c-1.5,0-2.8-0.2-4-0.7
					c-1.2-0.5-2.2-1.1-3-2c-0.8-0.9-1.4-1.9-1.9-3.1c-0.4-1.2-0.6-2.5-0.6-4c0-1.5,0.2-2.9,0.7-4.2c0.5-1.2,1.1-2.3,2-3.2
					c0.8-0.9,1.9-1.6,3-2c1.2-0.5,2.5-0.7,3.9-0.7c0.7,0,1.4,0.1,2.1,0.2c0.6,0.1,1.2,0.3,1.7,0.5s0.9,0.4,1.3,0.6s0.6,0.4,0.7,0.5
					s0.2,0.3,0.3,0.4C328.7,13.6,328.8,13.8,328.8,14.1z"/>
				<path class="st0" d="M348.1,30c0.1,0.2,0.1,0.4,0.1,0.5s0,0.2-0.1,0.3s-0.2,0.1-0.4,0.1c-0.2,0-0.4,0-0.7,0s-0.6,0-0.7,0
					c-0.2,0-0.3,0-0.4-0.1c-0.1,0-0.2-0.1-0.2-0.1s-0.1-0.1-0.1-0.2l-1.7-4.7h-8.1l-1.6,4.7c0,0.1-0.1,0.2-0.1,0.2s-0.1,0.1-0.2,0.2
					c-0.1,0-0.2,0.1-0.4,0.1c-0.2,0-0.4,0-0.7,0c-0.3,0-0.5,0-0.7,0c-0.2,0-0.3-0.1-0.4-0.1s-0.1-0.2-0.1-0.3c0-0.1,0-0.3,0.1-0.5
					l6.5-18c0-0.1,0.1-0.2,0.2-0.3c0.1-0.1,0.2-0.1,0.3-0.2c0.1,0,0.3-0.1,0.5-0.1c0.2,0,0.4,0,0.7,0c0.3,0,0.6,0,0.8,0
					c0.2,0,0.4,0,0.5,0.1c0.1,0,0.2,0.1,0.3,0.2c0.1,0.1,0.1,0.2,0.2,0.3L348.1,30z M339.7,14.1L339.7,14.1l-3.4,9.7h6.7L339.7,14.1
					z"/>
				<path class="st0" d="M365.7,14.1c0,0.2,0,0.4,0,0.5c0,0.1,0,0.3-0.1,0.4s-0.1,0.2-0.2,0.2c-0.1,0-0.1,0.1-0.2,0.1
					c-0.1,0-0.3-0.1-0.6-0.3c-0.3-0.2-0.7-0.4-1.1-0.6c-0.5-0.2-1-0.4-1.7-0.6c-0.7-0.2-1.4-0.3-2.3-0.3c-1.1,0-2,0.2-2.9,0.6
					s-1.6,0.9-2.2,1.6c-0.6,0.7-1,1.5-1.4,2.5c-0.3,0.9-0.5,2-0.5,3.1c0,1.2,0.2,2.3,0.5,3.3c0.3,1,0.8,1.8,1.4,2.4s1.3,1.2,2.2,1.5
					c0.8,0.3,1.8,0.5,2.8,0.5c0.6,0,1.2-0.1,1.8-0.2c0.6-0.1,1.2-0.4,1.7-0.7v-5.6h-4.5c-0.2,0-0.3-0.1-0.4-0.3
					c-0.1-0.2-0.1-0.4-0.1-0.8c0-0.2,0-0.4,0-0.5c0-0.1,0.1-0.2,0.1-0.3c0-0.1,0.1-0.1,0.2-0.2c0.1,0,0.1-0.1,0.2-0.1h6.2
					c0.1,0,0.2,0,0.3,0.1c0.1,0,0.2,0.1,0.3,0.2s0.2,0.2,0.2,0.3s0.1,0.3,0.1,0.5v7.4c0,0.3,0,0.5-0.1,0.7c-0.1,0.2-0.3,0.4-0.6,0.5
					c-0.3,0.1-0.7,0.3-1.1,0.5c-0.5,0.2-0.9,0.3-1.4,0.4c-0.5,0.1-1,0.2-1.5,0.3c-0.5,0.1-1,0.1-1.5,0.1c-1.5,0-2.8-0.2-4-0.7
					c-1.2-0.5-2.2-1.1-3-2c-0.8-0.9-1.4-1.9-1.9-3.1c-0.4-1.2-0.6-2.5-0.6-4c0-1.5,0.2-2.9,0.7-4.2c0.5-1.2,1.1-2.3,2-3.2
					c0.8-0.9,1.9-1.6,3-2c1.2-0.5,2.5-0.7,3.9-0.7c0.7,0,1.4,0.1,2.1,0.2c0.6,0.1,1.2,0.3,1.7,0.5s0.9,0.4,1.3,0.6s0.6,0.4,0.7,0.5
					s0.2,0.3,0.3,0.4C365.6,13.6,365.7,13.8,365.7,14.1z"/>
				<path class="st0" d="M381.2,29.8c0,0.2,0,0.3,0,0.5c0,0.1-0.1,0.2-0.1,0.3c-0.1,0.1-0.1,0.2-0.2,0.2c-0.1,0-0.1,0.1-0.2,0.1
					h-9.3c-0.2,0-0.4-0.1-0.7-0.2c-0.2-0.2-0.3-0.4-0.3-0.8V12.5c0-0.4,0.1-0.7,0.3-0.8c0.2-0.2,0.4-0.2,0.7-0.2h9.2
					c0.1,0,0.2,0,0.2,0.1c0.1,0,0.1,0.1,0.2,0.2s0.1,0.2,0.1,0.3c0,0.1,0,0.3,0,0.5c0,0.2,0,0.3,0,0.5c0,0.1-0.1,0.2-0.1,0.3
					s-0.1,0.1-0.2,0.2c-0.1,0-0.1,0.1-0.2,0.1H373v6.1h6.5c0.1,0,0.2,0,0.2,0.1c0.1,0,0.1,0.1,0.2,0.2c0,0.1,0.1,0.2,0.1,0.3
					c0,0.1,0,0.3,0,0.5c0,0.2,0,0.3,0,0.5c0,0.1-0.1,0.2-0.1,0.3c0,0.1-0.1,0.1-0.2,0.2c-0.1,0-0.1,0.1-0.2,0.1H373v6.9h7.7
					c0.1,0,0.2,0,0.2,0.1c0.1,0,0.1,0.1,0.2,0.2c0,0.1,0.1,0.2,0.1,0.3C381.2,29.5,381.2,29.6,381.2,29.8z"/>
				<path class="st0" d="M406.5,30.5c0,0.1,0,0.1-0.1,0.2c0,0.1-0.1,0.1-0.2,0.1c-0.1,0-0.2,0.1-0.4,0.1s-0.4,0-0.6,0
					c-0.2,0-0.4,0-0.6,0c-0.2,0-0.3-0.1-0.4-0.1c-0.1,0-0.2-0.1-0.2-0.1s-0.1-0.1-0.1-0.2V13.6h0l-6.8,17c0,0.1-0.1,0.1-0.1,0.2
					c-0.1,0-0.1,0.1-0.2,0.1c-0.1,0-0.2,0.1-0.4,0.1c-0.1,0-0.3,0-0.5,0c-0.2,0-0.4,0-0.5,0c-0.1,0-0.3,0-0.4-0.1
					c-0.1,0-0.2-0.1-0.2-0.1c-0.1,0-0.1-0.1-0.1-0.2l-6.5-17h0v16.9c0,0.1,0,0.1-0.1,0.2s-0.1,0.1-0.2,0.1c-0.1,0-0.2,0.1-0.4,0.1
					c-0.2,0-0.4,0-0.6,0c-0.2,0-0.5,0-0.6,0c-0.2,0-0.3-0.1-0.4-0.1c-0.1,0-0.2-0.1-0.2-0.1s-0.1-0.1-0.1-0.2V12.7
					c0-0.4,0.1-0.7,0.3-0.9c0.2-0.2,0.5-0.3,0.7-0.3h1.6c0.3,0,0.6,0,0.9,0.1s0.5,0.2,0.6,0.3s0.3,0.3,0.5,0.5
					c0.1,0.2,0.2,0.4,0.3,0.7l5.5,14h0.1l5.8-14c0.1-0.3,0.2-0.6,0.4-0.8c0.1-0.2,0.3-0.4,0.4-0.5s0.3-0.2,0.5-0.3
					c0.2-0.1,0.4-0.1,0.7-0.1h1.7c0.2,0,0.3,0,0.4,0.1s0.3,0.1,0.4,0.2c0.1,0.1,0.2,0.2,0.2,0.4c0.1,0.1,0.1,0.3,0.1,0.5V30.5z"/>
				<path class="st0" d="M422.4,29.8c0,0.2,0,0.3,0,0.5c0,0.1-0.1,0.2-0.1,0.3c-0.1,0.1-0.1,0.2-0.2,0.2c-0.1,0-0.1,0.1-0.2,0.1
					h-9.3c-0.2,0-0.4-0.1-0.7-0.2c-0.2-0.2-0.3-0.4-0.3-0.8V12.5c0-0.4,0.1-0.7,0.3-0.8c0.2-0.2,0.4-0.2,0.7-0.2h9.2
					c0.1,0,0.2,0,0.2,0.1c0.1,0,0.1,0.1,0.2,0.2s0.1,0.2,0.1,0.3c0,0.1,0,0.3,0,0.5c0,0.2,0,0.3,0,0.5c0,0.1-0.1,0.2-0.1,0.3
					s-0.1,0.1-0.2,0.2c-0.1,0-0.1,0.1-0.2,0.1h-7.6v6.1h6.5c0.1,0,0.2,0,0.2,0.1c0.1,0,0.1,0.1,0.2,0.2c0,0.1,0.1,0.2,0.1,0.3
					c0,0.1,0,0.3,0,0.5c0,0.2,0,0.3,0,0.5c0,0.1-0.1,0.2-0.1,0.3c0,0.1-0.1,0.1-0.2,0.2c-0.1,0-0.1,0.1-0.2,0.1h-6.5v6.9h7.7
					c0.1,0,0.2,0,0.2,0.1c0.1,0,0.1,0.1,0.2,0.2c0,0.1,0.1,0.2,0.1,0.3C422.4,29.5,422.4,29.6,422.4,29.8z"/>
				<path class="st0" d="M441.3,29.8c0,0.2,0,0.4-0.1,0.5c-0.1,0.1-0.2,0.3-0.3,0.3c-0.1,0.1-0.2,0.2-0.4,0.2
					c-0.1,0-0.3,0.1-0.4,0.1h-0.9c-0.3,0-0.5,0-0.7-0.1s-0.4-0.2-0.6-0.3c-0.2-0.1-0.4-0.3-0.5-0.6s-0.4-0.6-0.6-1L431,18
					c-0.3-0.6-0.6-1.2-0.9-1.8c-0.3-0.6-0.6-1.2-0.9-1.8h0c0,0.7,0,1.5,0,2.2c0,0.7,0,1.5,0,2.2v11.7c0,0.1,0,0.1-0.1,0.2
					c0,0.1-0.1,0.1-0.2,0.1c-0.1,0-0.2,0.1-0.4,0.1c-0.2,0-0.4,0-0.6,0s-0.5,0-0.6,0c-0.2,0-0.3-0.1-0.4-0.1c-0.1,0-0.2-0.1-0.2-0.1
					c0-0.1-0.1-0.1-0.1-0.2V12.6c0-0.4,0.1-0.7,0.3-0.9c0.2-0.2,0.5-0.3,0.7-0.3h1.3c0.3,0,0.5,0,0.8,0.1c0.2,0.1,0.4,0.1,0.5,0.2
					c0.2,0.1,0.3,0.3,0.5,0.5c0.1,0.2,0.3,0.5,0.5,0.8l4.5,8.5c0.3,0.5,0.5,1,0.8,1.5c0.3,0.5,0.5,1,0.8,1.5c0.2,0.5,0.5,1,0.7,1.4
					s0.5,0.9,0.7,1.4h0c0-0.8,0-1.6,0-2.5c0-0.9,0-1.7,0-2.5V11.9c0-0.1,0-0.1,0.1-0.2c0-0.1,0.1-0.1,0.2-0.2c0.1,0,0.2-0.1,0.4-0.1
					s0.4,0,0.6,0c0.2,0,0.4,0,0.6,0c0.2,0,0.3,0.1,0.4,0.1c0.1,0,0.2,0.1,0.2,0.2c0,0.1,0.1,0.1,0.1,0.2V29.8z"/>
				<path class="st0" d="M458.6,12.6c0,0.2,0,0.4,0,0.5c0,0.1-0.1,0.3-0.1,0.3s-0.1,0.1-0.2,0.2c-0.1,0-0.1,0.1-0.2,0.1h-5.5v16.8
					c0,0.1,0,0.1-0.1,0.2s-0.1,0.1-0.2,0.1c-0.1,0-0.2,0.1-0.4,0.1c-0.2,0-0.4,0-0.6,0c-0.2,0-0.4,0-0.6,0s-0.3-0.1-0.4-0.1
					c-0.1,0-0.2-0.1-0.2-0.1s-0.1-0.1-0.1-0.2V13.7h-5.5c-0.1,0-0.2,0-0.2-0.1c-0.1,0-0.1-0.1-0.2-0.2s-0.1-0.2-0.1-0.3
					c0-0.1,0-0.3,0-0.5c0-0.2,0-0.4,0-0.5c0-0.1,0.1-0.3,0.1-0.4s0.1-0.2,0.2-0.2c0.1,0,0.1-0.1,0.2-0.1h13.5c0.1,0,0.2,0,0.2,0.1
					c0.1,0,0.1,0.1,0.2,0.2s0.1,0.2,0.1,0.4C458.6,12.3,458.6,12.4,458.6,12.6z"/>
			</g>
		</g>
	</g>
	<g>
		<g>
			<g>
				<g>
					<path d="M6,31.7V4h3.4v15.8l8-8.2h4.4l-7.7,7.4l8.4,12.6h-4.2l-6.6-10.2l-2.4,2.3v7.9H6z"/>
					<path d="M46.8,31.7v-20h3.1v2.8c1.5-2.2,3.6-3.3,6.4-3.3c1.2,0,2.3,0.2,3.3,0.7c1,0.4,1.8,1,2.3,1.7c0.5,0.7,0.9,1.5,1.1,2.5
						c0.1,0.6,0.2,1.7,0.2,3.3v12.3h-3.4V19.5c0-1.4-0.1-2.4-0.4-3.1c-0.3-0.7-0.7-1.2-1.4-1.6c-0.7-0.4-1.5-0.6-2.4-0.6
						c-1.4,0-2.7,0.5-3.7,1.4c-1.1,0.9-1.6,2.7-1.6,5.2v10.9H46.8z"/>
					<path d="M82,25.2l3.5,0.4c-0.6,2.1-1.6,3.6-3.1,4.8c-1.5,1.1-3.4,1.7-5.7,1.7c-2.9,0-5.3-0.9-7-2.7c-1.7-1.8-2.6-4.3-2.6-7.6
						c0-3.4,0.9-6,2.6-7.9c1.7-1.9,4-2.8,6.8-2.8c2.7,0,4.9,0.9,6.6,2.7c1.7,1.8,2.5,4.4,2.5,7.7c0,0.2,0,0.5,0,0.9H70.7
						c0.1,2.2,0.7,3.9,1.9,5.1c1.1,1.2,2.5,1.8,4.2,1.8c1.2,0,2.3-0.3,3.2-1C80.8,27.7,81.5,26.6,82,25.2z M70.9,19.7h11.2
						c-0.2-1.7-0.6-3-1.3-3.8c-1.1-1.3-2.5-2-4.2-2c-1.6,0-2.9,0.5-3.9,1.6C71.6,16.6,71,18,70.9,19.7z"/>
					<path d="M102.9,24.3l3.3,0.4c-0.4,2.3-1.3,4.1-2.8,5.4c-1.5,1.3-3.3,2-5.5,2c-2.7,0-4.9-0.9-6.6-2.7c-1.7-1.8-2.5-4.4-2.5-7.7
						c0-2.2,0.4-4.1,1.1-5.7c0.7-1.6,1.8-2.8,3.3-3.7c1.5-0.8,3.1-1.2,4.8-1.2c2.2,0,4,0.6,5.3,1.7c1.4,1.1,2.3,2.7,2.7,4.7
						l-3.3,0.5c-0.3-1.3-0.9-2.4-1.7-3c-0.8-0.7-1.8-1-2.9-1c-1.7,0-3.1,0.6-4.2,1.8c-1.1,1.2-1.6,3.2-1.6,5.8
						c0,2.7,0.5,4.6,1.5,5.9c1,1.2,2.4,1.8,4,1.8c1.3,0,2.4-0.4,3.3-1.2C102.1,27.3,102.6,26,102.9,24.3z"/>
					<path d="M116.5,28.6l0.5,3c-1,0.2-1.8,0.3-2.6,0.3c-1.2,0-2.2-0.2-2.9-0.6c-0.7-0.4-1.2-0.9-1.4-1.5c-0.3-0.6-0.4-2-0.4-4V14.3
						h-2.5v-2.6h2.5v-5l3.4-2v7h3.4v2.6h-3.4V26c0,1,0.1,1.6,0.2,1.9c0.1,0.3,0.3,0.5,0.6,0.7c0.3,0.2,0.7,0.2,1.2,0.2
						C115.4,28.8,115.9,28.7,116.5,28.6z"/>
					<path d="M132.9,29.2c-1.3,1.1-2.5,1.8-3.6,2.3c-1.2,0.4-2.4,0.7-3.7,0.7c-2.2,0-3.9-0.5-5.1-1.6c-1.2-1.1-1.8-2.5-1.8-4.1
						c0-1,0.2-1.9,0.7-2.7c0.4-0.8,1-1.5,1.8-2c0.7-0.5,1.5-0.9,2.4-1.1c0.7-0.2,1.7-0.3,3-0.5c2.7-0.3,4.8-0.7,6.1-1.2
						c0-0.5,0-0.8,0-0.9c0-1.4-0.3-2.4-1-2.9c-0.9-0.8-2.2-1.2-3.9-1.2c-1.6,0-2.8,0.3-3.5,0.8c-0.8,0.6-1.3,1.6-1.7,3l-3.3-0.5
						c0.3-1.4,0.8-2.6,1.5-3.4c0.7-0.9,1.7-1.5,3-2c1.3-0.5,2.8-0.7,4.5-0.7c1.7,0,3.1,0.2,4.2,0.6c1.1,0.4,1.9,0.9,2.4,1.5
						c0.5,0.6,0.9,1.4,1.1,2.3c0.1,0.6,0.2,1.6,0.2,3.1v4.5c0,3.2,0.1,5.2,0.2,6c0.1,0.8,0.4,1.6,0.9,2.4h-3.5
						C133.3,31,133,30.1,132.9,29.2z M132.6,21.6c-1.2,0.5-3.1,0.9-5.5,1.3c-1.4,0.2-2.4,0.4-3,0.7c-0.6,0.3-1,0.6-1.3,1.1
						c-0.3,0.5-0.5,1-0.5,1.6c0,0.9,0.3,1.7,1,2.3c0.7,0.6,1.7,0.9,3,0.9c1.3,0,2.5-0.3,3.5-0.9c1-0.6,1.8-1.4,2.2-2.3
						c0.4-0.8,0.5-1.9,0.5-3.4V21.6z"/>
					<path d="M141.3,31.7v-20h3.1v3c0.8-1.4,1.5-2.4,2.2-2.8c0.7-0.5,1.4-0.7,2.2-0.7c1.1,0,2.3,0.4,3.5,1.1l-1.2,3.2
						c-0.8-0.5-1.7-0.7-2.5-0.7c-0.7,0-1.4,0.2-2,0.7c-0.6,0.4-1,1.1-1.3,1.9c-0.4,1.2-0.6,2.5-0.6,4v10.5H141.3z"/>
					<g>
						<circle class="st1" cx="33.4" cy="29.7" r="1.9"/>
						<circle class="st1" cx="33.4" cy="13.1" r="1.9"/>
						<path class="st2" d="M31.5,27.7c-2.7-0.8-4.6-3.3-4.6-6.2c0-2.9,2-5.4,4.6-6.2c-0.6-0.5-0.9-1.3-0.9-2.1c0-0.5,0.1-1,0.4-1.4
							c0,0,0,0,0,0c-4.4,1.1-7.7,5.1-7.7,9.8c0,4.7,3.3,8.7,7.7,9.8c0,0,0,0,0,0c-0.3-0.4-0.4-0.9-0.4-1.4
							C30.6,28.9,31,28.2,31.5,27.7z"/>
						<path class="st2" d="M35.8,11.6c0.3,0.4,0.4,0.9,0.4,1.5c0,0.8-0.4,1.6-0.9,2.1C38,16,40,18.5,40,21.4c0,2.9-2,5.4-4.6,6.2
							c0.6,0.5,0.9,1.3,0.9,2.1c0,0.5-0.2,1-0.4,1.5c4.4-1.1,7.7-5.1,7.7-9.8C43.5,16.7,40.2,12.7,35.8,11.6z"/>
					</g>
				</g>
			</g>
		</g>
		<g>
			<path d="M157.7,7.6c0,1.6-1.3,2.9-2.9,2.9c-1.7,0-3-1.3-3-2.9c0-1.6,1.3-2.9,3-2.9C156.4,4.7,157.7,6,157.7,7.6z M152.5,7.6
				c0,1.3,0.9,2.3,2.2,2.3c1.3,0,2.2-1,2.2-2.3c0-1.3-0.9-2.3-2.2-2.3C153.5,5.3,152.5,6.3,152.5,7.6z M154.3,9.1h-0.7V6.2
				c0.3-0.1,0.6-0.1,1.1-0.1c0.5,0,0.8,0.1,1,0.2c0.2,0.1,0.3,0.4,0.3,0.6c0,0.3-0.2,0.6-0.6,0.7v0c0.3,0.1,0.4,0.3,0.5,0.7
				c0.1,0.4,0.1,0.6,0.2,0.7h-0.7c-0.1-0.1-0.1-0.4-0.2-0.7C155.2,8.1,155,8,154.6,8h-0.3V9.1z M154.3,7.5h0.3
				c0.4,0,0.7-0.1,0.7-0.4c0-0.3-0.2-0.4-0.6-0.4c-0.2,0-0.3,0-0.4,0V7.5z"/>
		</g>
	</g>
</g>
</svg>
