<?xml version="1.0" encoding="utf-8"?>
<!-- Generator: Adobe Illustrator 23.0.6, SVG Export Plug-In . SVG Version: 6.00 Build 0)  -->
<svg version="1.1" id="Layer_1" xmlns="http://www.w3.org/2000/svg" xmlns:xlink="http://www.w3.org/1999/xlink" x="0px" y="0px"
	 width="467px" height="34px" viewBox="0 0 467 34" style="enable-background:new 0 0 467 34;" xml:space="preserve">
<style type="text/css">
	.st0{fill:#F96731;}
	.st1{fill:#2B9AF3;}
	.st2{fill:#205F7F;}
</style>
<g>
	<g>
		<g>
			<g>
				<path d="M2.6,33.5V0.1h4.1v19l9.7-9.8h5.3l-9.2,9l10.2,15.2h-5.1l-8-12.4l-2.9,2.8v9.6H2.6z"/>
				<path d="M51.8,33.5V9.3h3.7v3.4c1.8-2.7,4.3-4,7.7-4c1.5,0,2.8,0.3,4,0.8s2.1,1.2,2.8,2.1c0.6,0.9,1,1.9,1.3,3
					c0.2,0.8,0.2,2.1,0.2,4v14.9h-4.1V18.7c0-1.7-0.2-2.9-0.5-3.7c-0.3-0.8-0.9-1.5-1.7-2c-0.8-0.5-1.8-0.7-2.8-0.7
					c-1.7,0-3.3,0.5-4.5,1.7c-1.3,1.1-1.9,3.2-1.9,6.3v13.2H51.8z"/>
				<path d="M94.3,25.7l4.2,0.5c-0.7,2.5-1.9,4.4-3.7,5.8c-1.8,1.4-4.1,2-6.9,2c-3.5,0-6.3-1.1-8.4-3.3c-2.1-2.2-3.1-5.2-3.1-9.2
					c0-4.1,1.1-7.2,3.1-9.5s4.8-3.4,8.2-3.4c3.2,0,5.9,1.1,7.9,3.3s3.1,5.3,3.1,9.3c0,0.2,0,0.6,0,1.1h-18c0.2,2.7,0.9,4.7,2.3,6.1
					c1.3,1.4,3,2.1,5.1,2.1c1.5,0,2.8-0.4,3.8-1.2C92.8,28.7,93.7,27.4,94.3,25.7z M80.8,19.1h13.5c-0.2-2-0.7-3.5-1.5-4.6
					c-1.3-1.6-3-2.4-5.1-2.4c-1.9,0-3.5,0.6-4.7,1.9C81.7,15.3,81,17,80.8,19.1z"/>
				<path d="M119.4,24.6l4,0.5c-0.4,2.8-1.6,5-3.4,6.5c-1.8,1.6-4,2.4-6.7,2.4c-3.3,0-6-1.1-8-3.2c-2-2.2-3-5.3-3-9.3
					c0-2.6,0.4-4.9,1.3-6.8s2.2-3.4,3.9-4.4c1.8-1,3.7-1.5,5.8-1.5c2.6,0,4.8,0.7,6.4,2c1.7,1.3,2.7,3.2,3.2,5.7l-4,0.6
					c-0.4-1.6-1.1-2.8-2-3.7c-1-0.8-2.1-1.2-3.5-1.2c-2.1,0-3.7,0.7-5,2.2s-1.9,3.8-1.9,7c0,3.2,0.6,5.6,1.9,7.1
					c1.2,1.5,2.9,2.2,4.9,2.2c1.6,0,2.9-0.5,4-1.5C118.5,28.2,119.2,26.6,119.4,24.6z"/>
				<path d="M135.9,29.8l0.6,3.6c-1.2,0.2-2.2,0.4-3.1,0.4c-1.5,0-2.6-0.2-3.5-0.7c-0.8-0.5-1.4-1.1-1.7-1.9s-0.5-2.4-0.5-4.8V12.5
					h-3V9.3h3v-6l4.1-2.5v8.4h4.1v3.2h-4.1v14.1c0,1.2,0.1,1.9,0.2,2.3c0.1,0.3,0.4,0.6,0.7,0.8c0.3,0.2,0.8,0.3,1.4,0.3
					C134.6,30,135.2,29.9,135.9,29.8z"/>
				<path d="M155.7,30.5c-1.5,1.3-3,2.2-4.4,2.7s-2.9,0.8-4.5,0.8c-2.7,0-4.7-0.6-6.1-2c-1.4-1.3-2.1-3-2.1-5c0-1.2,0.3-2.3,0.8-3.2
					c0.5-1,1.2-1.8,2.1-2.4c0.9-0.6,1.9-1,2.9-1.3c0.8-0.2,2-0.4,3.6-0.6c3.3-0.4,5.7-0.9,7.3-1.4c0-0.6,0-0.9,0-1.1
					c0-1.7-0.4-2.8-1.2-3.5c-1.1-0.9-2.6-1.4-4.7-1.4c-1.9,0-3.4,0.3-4.3,1c-0.9,0.7-1.6,1.9-2,3.6l-4-0.5c0.4-1.7,1-3.1,1.8-4.2
					c0.8-1.1,2-1.9,3.6-2.4c1.6-0.6,3.4-0.9,5.5-0.9c2.1,0,3.7,0.2,5,0.7c1.3,0.5,2.2,1.1,2.8,1.8c0.6,0.7,1,1.7,1.3,2.8
					c0.1,0.7,0.2,2,0.2,3.8v5.5c0,3.8,0.1,6.2,0.3,7.2s0.5,2,1,2.9h-4.3C156.1,32.6,155.8,31.6,155.7,30.5z M155.4,21.3
					c-1.5,0.6-3.7,1.1-6.7,1.5c-1.7,0.2-2.9,0.5-3.6,0.8c-0.7,0.3-1.2,0.7-1.6,1.3c-0.4,0.6-0.6,1.2-0.6,2c0,1.1,0.4,2,1.2,2.7
					c0.8,0.7,2,1.1,3.6,1.1c1.6,0,3-0.4,4.2-1c1.2-0.7,2.1-1.6,2.7-2.8c0.4-0.9,0.7-2.3,0.7-4.1L155.4,21.3L155.4,21.3z"/>
				<path d="M165.8,33.5V9.3h3.7V13c0.9-1.7,1.8-2.8,2.6-3.4c0.8-0.5,1.7-0.8,2.6-0.8c1.4,0,2.8,0.4,4.2,1.3l-1.4,3.8
					c-1-0.6-2-0.9-3-0.9c-0.9,0-1.7,0.3-2.4,0.8c-0.7,0.5-1.2,1.3-1.5,2.2c-0.4,1.5-0.7,3-0.7,4.8v12.7H165.8z"/>
				<g>
					<circle class="st0" cx="35.7" cy="31.2" r="2.3"/>
					<circle class="st0" cx="35.7" cy="11" r="2.3"/>
					<path class="st1" d="M33.4,28.6c-3.2-1-5.6-4-5.6-7.5s2.4-6.6,5.6-7.5c-0.7-0.6-1.1-1.5-1.1-2.5c0-0.6,0.2-1.2,0.5-1.7
						c0,0,0,0,0,0c-5.3,1.3-9.2,6.1-9.2,11.8s3.9,10.5,9.2,11.8c0,0,0,0,0,0c-0.3-0.5-0.5-1.1-0.5-1.7
						C32.3,30.2,32.7,29.3,33.4,28.6z"/>
					<path class="st1" d="M38.6,9.3c0.3,0.5,0.5,1.1,0.5,1.8c0,1-0.4,1.9-1.1,2.5c3.2,1,5.6,4,5.6,7.5s-2.4,6.6-5.6,7.5
						c0.7,0.6,1.1,1.5,1.1,2.5c0,0.6-0.2,1.2-0.5,1.8c5.3-1.3,9.3-6.1,9.3-11.8C47.9,15.4,43.9,10.6,38.6,9.3z"/>
				</g>
			</g>
		</g>
	</g>
	<g>
		<path d="M185.2,4.6c0,2.2-1.7,4-4,4c-2.2,0-4-1.7-4-4c0-2.2,1.8-3.9,4-3.9C183.5,0.7,185.2,2.5,185.2,4.6z M178.1,4.6
			c0,1.7,1.3,3.1,3.1,3.1c1.7,0,3-1.4,3-3.1c0-1.7-1.3-3.2-3-3.2C179.5,1.5,178.1,2.9,178.1,4.6z M180.6,6.7h-0.9V2.8
			c0.4-0.1,0.9-0.1,1.5-0.1c0.7,0,1.1,0.1,1.4,0.3c0.2,0.2,0.4,0.5,0.4,0.9c0,0.4-0.3,0.8-0.8,0.9v0.1c0.4,0.1,0.6,0.4,0.7,1
			c0.1,0.6,0.2,0.8,0.3,1h-1c-0.1-0.1-0.2-0.5-0.3-1c-0.1-0.4-0.3-0.6-0.8-0.6h-0.4L180.6,6.7L180.6,6.7z M180.6,4.5h0.4
			c0.5,0,0.9-0.2,0.9-0.6c0-0.4-0.3-0.6-0.8-0.6c-0.2,0-0.4,0-0.5,0L180.6,4.5L180.6,4.5z"/>
	</g>
</g>
<g>
	<g>
		<path class="st2" d="M213.4,31.6c0,0.2,0,0.4,0,0.6c0,0.2-0.1,0.3-0.1,0.4c-0.1,0.1-0.1,0.2-0.2,0.2c-0.1,0-0.2,0.1-0.3,0.1h-11.2
			c-0.3,0-0.5-0.1-0.8-0.3c-0.2-0.2-0.4-0.5-0.4-1V10.7c0-0.5,0.1-0.8,0.4-1c0.2-0.2,0.5-0.3,0.8-0.3h11.1c0.1,0,0.2,0,0.3,0.1
			s0.1,0.1,0.2,0.2c0,0.1,0.1,0.2,0.1,0.4c0,0.2,0,0.4,0,0.6c0,0.2,0,0.4,0,0.6c0,0.2-0.1,0.3-0.1,0.4s-0.1,0.2-0.2,0.2
			c-0.1,0-0.2,0.1-0.3,0.1h-9.2v7.3h7.9c0.1,0,0.2,0,0.3,0.1c0.1,0.1,0.1,0.1,0.2,0.2c0.1,0.1,0.1,0.2,0.1,0.4c0,0.2,0,0.4,0,0.6
			c0,0.2,0,0.4,0,0.6c0,0.2-0.1,0.3-0.1,0.4c-0.1,0.1-0.1,0.2-0.2,0.2c-0.1,0-0.2,0.1-0.3,0.1h-7.9v8.4h9.3c0.1,0,0.2,0,0.3,0.1
			c0.1,0,0.1,0.1,0.2,0.2c0.1,0.1,0.1,0.2,0.1,0.4C213.4,31.1,213.4,31.3,213.4,31.6z"/>
		<path class="st2" d="M236.1,31.6c0,0.2,0,0.4-0.1,0.6s-0.2,0.3-0.3,0.4s-0.3,0.2-0.4,0.2s-0.3,0.1-0.5,0.1h-1
			c-0.3,0-0.6,0-0.9-0.1c-0.2-0.1-0.5-0.2-0.7-0.4c-0.2-0.2-0.4-0.4-0.7-0.7c-0.2-0.3-0.5-0.7-0.7-1.2l-7.1-13.3
			c-0.4-0.7-0.8-1.4-1.1-2.2c-0.4-0.8-0.7-1.5-1.1-2.2h0c0,0.9,0,1.8,0.1,2.7c0,0.9,0,1.8,0,2.7v14.1c0,0.1,0,0.2-0.1,0.2
			s-0.1,0.1-0.3,0.2s-0.3,0.1-0.5,0.1s-0.4,0-0.8,0c-0.3,0-0.6,0-0.8,0s-0.4-0.1-0.5-0.1c-0.1,0-0.2-0.1-0.2-0.2
			c-0.1-0.1-0.1-0.2-0.1-0.2V10.8c0-0.5,0.1-0.8,0.4-1s0.6-0.3,0.9-0.3h1.5c0.4,0,0.7,0,0.9,0.1c0.2,0.1,0.5,0.2,0.7,0.3
			s0.4,0.3,0.6,0.6s0.4,0.6,0.6,0.9l5.5,10.3c0.3,0.6,0.7,1.2,1,1.8c0.3,0.6,0.6,1.2,0.9,1.8c0.3,0.6,0.6,1.1,0.9,1.7
			c0.3,0.6,0.6,1.1,0.8,1.7h0c0-1,0-1.9,0-3c0-1,0-2,0-3V10c0-0.1,0-0.2,0.1-0.2c0.1-0.1,0.1-0.1,0.3-0.2c0.1-0.1,0.3-0.1,0.5-0.1
			c0.2,0,0.5,0,0.8,0c0.3,0,0.5,0,0.7,0c0.2,0,0.4,0.1,0.5,0.1c0.1,0.1,0.2,0.1,0.2,0.2s0.1,0.2,0.1,0.2V31.6z"/>
		<path class="st2" d="M260.3,20.8c0,2-0.3,3.8-0.8,5.3c-0.5,1.5-1.3,2.8-2.3,3.8c-1,1-2.2,1.7-3.7,2.2c-1.4,0.5-3.2,0.7-5.2,0.7h-5
			c-0.3,0-0.5-0.1-0.8-0.3c-0.2-0.2-0.4-0.5-0.4-1V10.7c0-0.5,0.1-0.8,0.4-1c0.2-0.2,0.5-0.3,0.8-0.3h5.3c2,0,3.7,0.3,5.1,0.8
			c1.4,0.5,2.6,1.3,3.5,2.3c0.9,1,1.7,2.2,2.2,3.6C260.1,17.5,260.3,19,260.3,20.8z M257.1,20.9c0-1.3-0.2-2.4-0.5-3.5
			s-0.8-2-1.5-2.8c-0.7-0.8-1.5-1.4-2.5-1.9s-2.3-0.7-4-0.7h-3.2v18.2h3.2c1.5,0,2.8-0.2,3.8-0.6s1.9-0.9,2.6-1.7s1.2-1.7,1.5-2.9
			S257.1,22.5,257.1,20.9z"/>
		<path class="st2" d="M284.7,20.9c0,1.9-0.2,3.6-0.7,5.1c-0.4,1.5-1.1,2.8-2,3.9c-0.9,1.1-2,1.9-3.3,2.5c-1.3,0.6-2.9,0.9-4.7,0.9
			c-1.8,0-3.3-0.3-4.6-0.8c-1.3-0.5-2.3-1.3-3.2-2.3s-1.5-2.2-1.9-3.7s-0.6-3.2-0.6-5.1c0-1.8,0.2-3.5,0.7-5c0.4-1.5,1.1-2.8,2-3.8
			c0.9-1.1,2-1.9,3.3-2.4c1.3-0.6,2.9-0.9,4.7-0.9c1.7,0,3.2,0.3,4.5,0.8s2.3,1.3,3.2,2.3s1.5,2.2,1.9,3.7
			C284.5,17.3,284.7,19,284.7,20.9z M281.5,21.1c0-1.3-0.1-2.6-0.4-3.7c-0.2-1.1-0.6-2.1-1.2-3s-1.3-1.5-2.2-2
			c-0.9-0.5-2-0.7-3.4-0.7c-1.3,0-2.5,0.3-3.4,0.8c-0.9,0.5-1.7,1.2-2.2,2c-0.6,0.8-1,1.8-1.2,3s-0.4,2.3-0.4,3.6
			c0,1.4,0.1,2.6,0.3,3.8c0.2,1.2,0.6,2.2,1.2,3c0.5,0.8,1.3,1.5,2.2,2c0.9,0.5,2.1,0.7,3.4,0.7c1.4,0,2.5-0.3,3.4-0.8
			c0.9-0.5,1.7-1.2,2.2-2.1s1-1.9,1.2-3C281.3,23.6,281.5,22.4,281.5,21.1z"/>
		<path class="st2" d="M305.3,29.5c0,0.2,0,0.4,0,0.5c0,0.1,0,0.3-0.1,0.4s-0.1,0.2-0.1,0.3c0,0.1-0.1,0.2-0.3,0.3
			c-0.1,0.1-0.4,0.3-0.8,0.6c-0.4,0.2-0.9,0.5-1.4,0.7c-0.6,0.2-1.2,0.4-2,0.6c-0.7,0.2-1.6,0.2-2.4,0.2c-1.5,0-2.9-0.3-4.1-0.8
			c-1.2-0.5-2.3-1.3-3.1-2.2c-0.9-1-1.5-2.2-2-3.7c-0.5-1.5-0.7-3.1-0.7-5c0-1.9,0.3-3.7,0.8-5.2c0.5-1.5,1.2-2.8,2.1-3.9
			c0.9-1.1,2-1.9,3.2-2.4c1.3-0.6,2.7-0.8,4.2-0.8c0.7,0,1.3,0.1,2,0.2c0.6,0.1,1.2,0.3,1.8,0.5c0.5,0.2,1,0.4,1.4,0.7
			c0.4,0.3,0.7,0.5,0.9,0.6s0.3,0.3,0.3,0.4c0,0.1,0.1,0.2,0.1,0.3c0,0.1,0.1,0.3,0.1,0.4c0,0.2,0,0.3,0,0.6c0,0.2,0,0.4,0,0.6
			s-0.1,0.3-0.1,0.4c0,0.1-0.1,0.2-0.2,0.3c-0.1,0.1-0.1,0.1-0.2,0.1c-0.2,0-0.4-0.1-0.7-0.4c-0.3-0.2-0.7-0.5-1.2-0.8
			c-0.5-0.3-1.1-0.5-1.7-0.8c-0.7-0.2-1.5-0.4-2.5-0.4c-1,0-2,0.2-2.8,0.6s-1.6,1-2.2,1.8c-0.6,0.8-1.1,1.8-1.4,3
			c-0.3,1.2-0.5,2.5-0.5,4c0,1.5,0.2,2.8,0.5,3.9s0.8,2.1,1.4,2.9c0.6,0.8,1.3,1.3,2.2,1.7s1.9,0.6,3,0.6c0.9,0,1.7-0.1,2.4-0.3
			c0.7-0.2,1.3-0.5,1.8-0.8s0.9-0.5,1.2-0.8c0.3-0.2,0.6-0.3,0.7-0.3c0.1,0,0.2,0,0.2,0.1c0.1,0,0.1,0.1,0.1,0.2
			c0,0.1,0.1,0.2,0.1,0.4C305.3,29,305.3,29.3,305.3,29.5z"/>
		<path class="st2" d="M325,32.4c0,0.1,0,0.2-0.1,0.3s-0.1,0.1-0.2,0.2c-0.1,0-0.3,0.1-0.5,0.1s-0.5,0-0.9,0c-0.3,0-0.6,0-0.8,0
			s-0.4-0.1-0.5-0.1c-0.1-0.1-0.2-0.1-0.3-0.2c-0.1-0.1-0.1-0.2-0.2-0.4l-2.2-5.5c-0.3-0.6-0.5-1.2-0.8-1.7s-0.6-1-1-1.4
			c-0.4-0.4-0.8-0.7-1.3-0.9c-0.5-0.2-1.1-0.3-1.8-0.3h-2.1v10c0,0.1,0,0.2-0.1,0.3s-0.1,0.1-0.3,0.2c-0.1,0-0.3,0.1-0.5,0.1
			s-0.4,0-0.8,0c-0.3,0-0.6,0-0.8,0c-0.2,0-0.4-0.1-0.5-0.1c-0.1,0-0.2-0.1-0.3-0.2c0-0.1-0.1-0.2-0.1-0.3V10.7c0-0.5,0.1-0.8,0.4-1
			c0.2-0.2,0.5-0.3,0.8-0.3h5c0.6,0,1.1,0,1.5,0c0.4,0,0.7,0.1,1.1,0.1c0.9,0.2,1.7,0.4,2.4,0.7c0.7,0.3,1.3,0.8,1.7,1.3
			c0.5,0.5,0.8,1.1,1.1,1.8s0.4,1.4,0.4,2.2c0,0.8-0.1,1.5-0.3,2.1s-0.5,1.2-0.9,1.6c-0.4,0.5-0.9,0.9-1.4,1.2s-1.2,0.6-1.9,0.9
			c0.4,0.2,0.7,0.4,1,0.6c0.3,0.3,0.6,0.6,0.9,0.9c0.3,0.4,0.5,0.8,0.8,1.2s0.5,1,0.7,1.6l2.1,5.2c0.2,0.4,0.3,0.7,0.3,0.9
			C325,32.1,325,32.3,325,32.4z M320.3,15.9c0-0.9-0.2-1.7-0.6-2.3c-0.4-0.6-1.1-1.1-2.1-1.4c-0.3-0.1-0.6-0.1-1-0.2
			s-0.9-0.1-1.5-0.1h-2.6v7.9h3c0.8,0,1.5-0.1,2.1-0.3c0.6-0.2,1.1-0.5,1.5-0.8c0.4-0.4,0.7-0.8,0.9-1.3
			C320.3,17,320.3,16.5,320.3,15.9z"/>
		<path class="st2" d="M332.6,32.4c0,0.1,0,0.2-0.1,0.3c0,0.1-0.1,0.1-0.3,0.2c-0.1,0-0.3,0.1-0.5,0.1c-0.2,0-0.5,0-0.8,0
			c-0.3,0-0.5,0-0.7,0s-0.4-0.1-0.5-0.1c-0.1,0-0.2-0.1-0.3-0.2c0-0.1-0.1-0.2-0.1-0.3V9.9c0-0.1,0-0.2,0.1-0.3
			c0.1-0.1,0.1-0.1,0.3-0.2s0.3-0.1,0.5-0.1s0.4,0,0.7,0c0.3,0,0.6,0,0.8,0c0.2,0,0.4,0.1,0.5,0.1c0.1,0,0.2,0.1,0.3,0.2
			c0,0.1,0.1,0.2,0.1,0.3V32.4z"/>
		<path class="st2" d="M356.6,31.6c0,0.2,0,0.4-0.1,0.6c-0.1,0.2-0.2,0.3-0.3,0.4s-0.3,0.2-0.4,0.2c-0.2,0-0.3,0.1-0.5,0.1h-1
			c-0.3,0-0.6,0-0.9-0.1s-0.5-0.2-0.7-0.4c-0.2-0.2-0.4-0.4-0.7-0.7c-0.2-0.3-0.5-0.7-0.7-1.2l-7.1-13.3c-0.4-0.7-0.8-1.4-1.1-2.2
			c-0.4-0.8-0.7-1.5-1.1-2.2h0c0,0.9,0,1.8,0.1,2.7c0,0.9,0,1.8,0,2.7v14.1c0,0.1,0,0.2-0.1,0.2s-0.1,0.1-0.3,0.2s-0.3,0.1-0.5,0.1
			s-0.4,0-0.8,0s-0.6,0-0.8,0s-0.4-0.1-0.5-0.1s-0.2-0.1-0.2-0.2s-0.1-0.2-0.1-0.2V10.8c0-0.5,0.1-0.8,0.4-1
			c0.3-0.2,0.6-0.3,0.9-0.3h1.5c0.4,0,0.7,0,0.9,0.1c0.2,0.1,0.5,0.2,0.7,0.3c0.2,0.1,0.4,0.3,0.6,0.6s0.4,0.6,0.6,0.9l5.5,10.3
			c0.3,0.6,0.7,1.2,1,1.8c0.3,0.6,0.6,1.2,0.9,1.8c0.3,0.6,0.6,1.1,0.9,1.7c0.3,0.6,0.6,1.1,0.8,1.7h0c0-1,0-1.9,0-3c0-1,0-2,0-3V10
			c0-0.1,0-0.2,0.1-0.2s0.1-0.1,0.3-0.2c0.1-0.1,0.3-0.1,0.5-0.1c0.2,0,0.5,0,0.8,0c0.3,0,0.5,0,0.7,0c0.2,0,0.4,0.1,0.5,0.1
			c0.1,0.1,0.2,0.1,0.2,0.2s0.1,0.2,0.1,0.2V31.6z"/>
		<path class="st2" d="M382.4,20.9c0,1.9-0.2,3.6-0.7,5.1c-0.4,1.5-1.1,2.8-2,3.9c-0.9,1.1-2,1.9-3.3,2.5c-1.3,0.6-2.9,0.9-4.7,0.9
			c-1.8,0-3.3-0.3-4.6-0.8c-1.3-0.5-2.3-1.3-3.2-2.3s-1.5-2.2-1.9-3.7s-0.6-3.2-0.6-5.1c0-1.8,0.2-3.5,0.7-5c0.4-1.5,1.1-2.8,2-3.8
			c0.9-1.1,2-1.9,3.3-2.4c1.3-0.6,2.9-0.9,4.7-0.9c1.7,0,3.2,0.3,4.5,0.8s2.3,1.3,3.2,2.3s1.5,2.2,1.9,3.7
			C382.2,17.3,382.4,19,382.4,20.9z M379.1,21.1c0-1.3-0.1-2.6-0.4-3.7c-0.2-1.1-0.6-2.1-1.2-3s-1.3-1.5-2.2-2
			c-0.9-0.5-2-0.7-3.4-0.7c-1.3,0-2.5,0.3-3.4,0.8c-0.9,0.5-1.7,1.2-2.2,2c-0.6,0.8-1,1.8-1.2,3s-0.4,2.3-0.4,3.6
			c0,1.4,0.1,2.6,0.3,3.8c0.2,1.2,0.6,2.2,1.2,3c0.5,0.8,1.3,1.5,2.2,2c0.9,0.5,2.1,0.7,3.4,0.7c1.4,0,2.5-0.3,3.4-0.8
			c0.9-0.5,1.7-1.2,2.2-2.1s1-1.9,1.2-3C379,23.6,379.1,22.4,379.1,21.1z"/>
		<path class="st2" d="M399.4,31.5c0,0.2,0,0.4,0,0.6c0,0.2-0.1,0.3-0.1,0.4c-0.1,0.1-0.1,0.2-0.2,0.3c-0.1,0.1-0.2,0.1-0.3,0.1
			h-10.3c-0.3,0-0.5-0.1-0.8-0.3c-0.2-0.2-0.4-0.5-0.4-1V9.9c0-0.1,0-0.2,0.1-0.3c0-0.1,0.1-0.1,0.3-0.2c0.1,0,0.3-0.1,0.5-0.1
			s0.5,0,0.7,0c0.3,0,0.6,0,0.8,0s0.4,0.1,0.5,0.1c0.1,0,0.2,0.1,0.3,0.2s0.1,0.2,0.1,0.3v20.2h8.4c0.1,0,0.2,0,0.3,0.1
			c0.1,0.1,0.1,0.1,0.2,0.2c0.1,0.1,0.1,0.2,0.1,0.4C399.4,31,399.4,31.3,399.4,31.5z"/>
		<path class="st2" d="M421.7,20.9c0,1.9-0.2,3.6-0.7,5.1s-1.1,2.8-2,3.9c-0.9,1.1-2,1.9-3.3,2.5c-1.3,0.6-2.9,0.9-4.7,0.9
			c-1.8,0-3.3-0.3-4.6-0.8c-1.3-0.5-2.3-1.3-3.2-2.3c-0.8-1-1.5-2.2-1.9-3.7s-0.6-3.2-0.6-5.1c0-1.8,0.2-3.5,0.7-5
			c0.4-1.5,1.1-2.8,2-3.8c0.9-1.1,2-1.9,3.3-2.4c1.3-0.6,2.9-0.9,4.7-0.9c1.7,0,3.2,0.3,4.5,0.8s2.3,1.3,3.2,2.3
			c0.9,1,1.5,2.2,1.9,3.7C421.5,17.3,421.7,19,421.7,20.9z M418.4,21.1c0-1.3-0.1-2.6-0.4-3.7c-0.2-1.1-0.6-2.1-1.2-3
			c-0.5-0.8-1.3-1.5-2.2-2s-2-0.7-3.4-0.7s-2.5,0.3-3.4,0.8c-0.9,0.5-1.7,1.2-2.2,2c-0.6,0.8-1,1.8-1.2,3s-0.4,2.3-0.4,3.6
			c0,1.4,0.1,2.6,0.3,3.8c0.2,1.2,0.6,2.2,1.2,3c0.5,0.8,1.3,1.5,2.2,2c0.9,0.5,2,0.7,3.4,0.7c1.4,0,2.5-0.3,3.4-0.8
			c0.9-0.5,1.7-1.2,2.2-2.1c0.6-0.9,1-1.9,1.2-3S418.4,22.4,418.4,21.1z"/>
		<path class="st2" d="M444.2,12.6c0,0.2,0,0.4,0,0.6c0,0.2-0.1,0.3-0.1,0.4c0,0.1-0.1,0.2-0.2,0.2s-0.2,0.1-0.2,0.1
			c-0.1,0-0.4-0.1-0.7-0.3c-0.3-0.2-0.8-0.5-1.4-0.8c-0.6-0.3-1.2-0.5-2-0.8c-0.8-0.2-1.7-0.3-2.8-0.3c-1.3,0-2.4,0.2-3.5,0.7
			c-1,0.5-1.9,1.1-2.6,2s-1.3,1.8-1.6,3s-0.6,2.4-0.6,3.7c0,1.5,0.2,2.8,0.6,4c0.4,1.2,1,2.1,1.7,2.9s1.6,1.4,2.6,1.8
			c1,0.4,2.1,0.6,3.4,0.6c0.7,0,1.5-0.1,2.2-0.3c0.7-0.2,1.4-0.4,2.1-0.8v-6.8h-5.4c-0.2,0-0.4-0.1-0.5-0.3c-0.1-0.2-0.2-0.5-0.2-1
			c0-0.2,0-0.4,0-0.6c0-0.2,0.1-0.3,0.1-0.4c0.1-0.1,0.1-0.2,0.2-0.2c0.1,0,0.2-0.1,0.3-0.1h7.4c0.1,0,0.3,0,0.4,0.1
			c0.1,0,0.3,0.1,0.4,0.2s0.2,0.2,0.3,0.4c0.1,0.2,0.1,0.4,0.1,0.6v8.9c0,0.3-0.1,0.6-0.2,0.8c-0.1,0.2-0.3,0.4-0.7,0.6
			c-0.4,0.2-0.8,0.4-1.4,0.6s-1.1,0.4-1.7,0.5c-0.6,0.1-1.2,0.3-1.8,0.3c-0.6,0.1-1.2,0.1-1.8,0.1c-1.8,0-3.4-0.3-4.8-0.8
			c-1.4-0.6-2.6-1.4-3.6-2.4c-1-1-1.7-2.3-2.3-3.7s-0.8-3.1-0.8-4.8c0-1.9,0.3-3.5,0.8-5c0.6-1.5,1.4-2.8,2.4-3.9
			c1-1.1,2.2-1.9,3.7-2.5c1.4-0.6,3-0.9,4.7-0.9c0.9,0,1.7,0.1,2.5,0.2c0.8,0.2,1.5,0.3,2.1,0.6c0.6,0.2,1.1,0.4,1.5,0.7
			s0.7,0.4,0.9,0.6c0.2,0.2,0.3,0.3,0.3,0.5S444.2,12.2,444.2,12.6z"/>
		<path class="st2" d="M456.9,23.8v8.6c0,0.1,0,0.2-0.1,0.3s-0.1,0.1-0.3,0.2s-0.3,0.1-0.5,0.1c-0.2,0-0.5,0-0.7,0
			c-0.3,0-0.5,0-0.7,0c-0.2,0-0.4-0.1-0.5-0.1s-0.2-0.1-0.3-0.2s-0.1-0.2-0.1-0.3v-8.6l-6.6-13.2c-0.1-0.3-0.2-0.5-0.2-0.7
			c0-0.2,0-0.3,0.1-0.4c0.1-0.1,0.3-0.1,0.5-0.2c0.2,0,0.6,0,0.9,0c0.4,0,0.7,0,0.9,0c0.2,0,0.4,0.1,0.5,0.1c0.1,0,0.2,0.1,0.3,0.2
			c0.1,0.1,0.1,0.2,0.2,0.3l3.2,6.7c0.3,0.6,0.6,1.3,0.9,2c0.3,0.7,0.6,1.4,0.9,2.1h0c0.3-0.7,0.6-1.4,0.9-2.1
			c0.3-0.7,0.6-1.4,0.9-2l3.3-6.8c0-0.1,0.1-0.2,0.2-0.3c0.1-0.1,0.2-0.1,0.3-0.2c0.1,0,0.3-0.1,0.5-0.1c0.2,0,0.5,0,0.8,0
			c0.4,0,0.8,0,1,0s0.4,0.1,0.5,0.2s0.1,0.2,0.1,0.4c0,0.2-0.1,0.4-0.2,0.6L456.9,23.8z"/>
	</g>
</g>
</svg>
