<svg width="32" height="32" viewBox="0 0 32 32" fill="none" xmlns="http://www.w3.org/2000/svg">
<path d="M24.9086 14.9701H17.7813V8.98633H18.494V14.3052H19.2068V11.3133H20.6322V14.3052H21.3449V9.98362H22.7704V14.3052H23.4831V12.6431H24.9086V14.9701Z" fill="#0163BB"/>
<path d="M14.0905 14.9702C14.3943 14.9702 14.6857 14.8546 14.9005 14.6489C15.1153 14.4432 15.236 14.1641 15.236 13.8732V7.29106L11.7996 4H7.21778C6.91399 4 6.62264 4.11558 6.40782 4.32131C6.19301 4.52704 6.07233 4.80607 6.07233 5.09702V13.8732C6.07233 14.1641 6.19301 14.4432 6.40782 14.6489C6.62264 14.8546 6.91399 14.9702 7.21778 14.9702H14.0905ZM11.2269 5.09702L14.0905 7.83957H11.2269V5.09702ZM7.79051 7.29106H9.50869V8.38808H7.79051V7.29106ZM7.79051 9.4851H13.5178V10.5821H7.79051V9.4851ZM7.79051 11.6791H13.5178V12.7762H7.79051V11.6791Z" fill="#0163BB"/>
<path d="M8.28459 19.9081C8.27714 19.8756 8.26712 19.8429 8.25416 19.8089C8.24159 19.7759 8.22685 19.7437 8.20966 19.7148L8.36718 19.4716C8.37381 19.4607 8.37634 19.448 8.37434 19.4357C8.37234 19.4234 8.36593 19.4122 8.3562 19.404L8.01807 19.1378C8.00799 19.1297 7.99521 19.1253 7.98195 19.1254C7.9687 19.1256 7.95583 19.1302 7.94561 19.1384L7.72478 19.3319C7.65576 19.3125 7.58586 19.3005 7.5126 19.2991L7.37388 19.0516C7.36746 19.0405 7.35707 19.032 7.34459 19.0277C7.33211 19.0235 7.31836 19.0237 7.30584 19.0283L6.89044 19.1802C6.86448 19.1897 6.85061 19.2147 6.85571 19.241L6.91655 19.5171C6.86215 19.5651 6.8167 19.6205 6.77823 19.678L6.48197 19.6736C6.45503 19.6741 6.43113 19.6922 6.42679 19.7196L6.3506 20.1374C6.34587 20.1638 6.36041 20.189 6.38755 20.1955L6.66922 20.2781C6.67559 20.311 6.68423 20.3466 6.69641 20.3785C6.70859 20.4105 6.72372 20.4437 6.74091 20.4726L6.58338 20.7158C6.57675 20.7267 6.57422 20.7394 6.57623 20.7517C6.57823 20.764 6.58464 20.7752 6.59437 20.7834L6.93249 21.0496C6.95412 21.0676 6.98391 21.0649 7.00496 21.049L7.22579 20.8555C7.2948 20.8749 7.36471 20.8869 7.43796 20.8883L7.57669 21.1358C7.59153 21.1586 7.61876 21.1686 7.64472 21.1591L8.06012 21.0072C8.08608 20.9977 8.10104 20.9723 8.09486 20.9464L8.03402 20.6703C8.08841 20.6223 8.13426 20.5679 8.17234 20.5094L8.46859 20.5138C8.49553 20.5133 8.51944 20.4952 8.52377 20.4677L8.60105 20.0496C8.60538 20.0222 8.59015 19.9984 8.5641 19.9915L8.28459 19.9081ZM7.61671 20.4647C7.40252 20.5431 7.16363 20.4402 7.08585 20.2361C7.00806 20.032 7.11967 19.801 7.33386 19.7226C7.54805 19.6443 7.78694 19.7472 7.86472 19.9513C7.94251 20.1554 7.8309 20.3864 7.61671 20.4647Z" fill="#0163BB"/>
<path d="M9.2771 17.6102C9.28364 17.5634 9.28691 17.5151 9.28691 17.4637C9.28691 17.4138 9.28364 17.364 9.27547 17.3172L9.60747 17.071C9.62178 17.0598 9.63155 17.0442 9.63513 17.0268C9.63871 17.0095 9.63587 16.9915 9.6271 16.976L9.31308 16.4586C9.30379 16.443 9.28903 16.431 9.27138 16.4248C9.25374 16.4185 9.23434 16.4183 9.21659 16.4243L8.82571 16.5739C8.74393 16.5147 8.65725 16.4649 8.56076 16.4275L8.50188 16.0317C8.49899 16.0138 8.48947 15.9976 8.47507 15.9858C8.46066 15.9741 8.44232 15.9677 8.42338 15.9678H7.79535C7.7561 15.9678 7.72503 15.9943 7.71848 16.0317L7.65961 16.4275C7.56311 16.4649 7.4748 16.5163 7.39466 16.5739L7.00378 16.4243C6.9678 16.4119 6.92691 16.4243 6.90728 16.4586L6.59491 16.976C6.57528 17.0087 6.58182 17.0492 6.61453 17.071L6.94653 17.3172C6.93836 17.364 6.93182 17.4154 6.93182 17.4637C6.93182 17.512 6.93509 17.5634 6.94326 17.6102L6.61126 17.8564C6.59695 17.8676 6.58718 17.8832 6.5836 17.9006C6.58002 17.9179 6.58286 17.9359 6.59163 17.9514L6.90565 18.4688C6.92527 18.5031 6.96616 18.514 7.00214 18.5031L7.39302 18.3535C7.4748 18.4127 7.56148 18.4626 7.65797 18.5L7.71685 18.8958C7.72503 18.9332 7.7561 18.9596 7.79535 18.9596H8.42338C8.46263 18.9596 8.49534 18.9332 8.50025 18.8958L8.55912 18.5C8.65562 18.4626 8.74393 18.4127 8.82407 18.3535L9.21495 18.5031C9.25093 18.5155 9.29182 18.5031 9.31145 18.4688L9.62546 17.9514C9.64509 17.9172 9.63691 17.8782 9.60583 17.8564L9.2771 17.6102ZM8.10936 18.0247C7.78554 18.0247 7.52059 17.7722 7.52059 17.4637C7.52059 17.1552 7.78554 16.9027 8.10936 16.9027C8.43319 16.9027 8.69814 17.1552 8.69814 17.4637C8.69814 17.7722 8.43319 18.0247 8.10936 18.0247Z" fill="#0163BB"/>
<path d="M25.6251 8.145C25.8571 8.145 26.0797 8.2353 26.2438 8.39603C26.4079 8.55675 26.5001 8.77475 26.5001 9.00205V21.8578H5.50006V9.00205C5.50006 8.77475 5.59225 8.55675 5.75634 8.39603C5.92044 8.2353 6.143 8.145 6.37506 8.145H25.6251ZM6.37506 6.43091C5.67887 6.43091 5.01119 6.7018 4.51891 7.18398C4.02662 7.66616 3.75006 8.32014 3.75006 9.00205V23.5718H28.2501V9.00205C28.2501 8.32014 27.9735 7.66616 27.4812 7.18398C26.9889 6.7018 26.3213 6.43091 25.6251 6.43091H6.37506ZM2.00006 24.4289H30.0001C30.0001 25.1108 29.7235 25.7648 29.2312 26.247C28.7389 26.7291 28.0713 27 27.3751 27H4.62506C3.92887 27 3.26119 26.7291 2.76891 26.247C2.27662 25.7648 2.00006 25.1108 2.00006 24.4289Z" fill="#0163BB"/>
<path fill-rule="evenodd" clip-rule="evenodd" d="M21.5446 17.1527C21.3458 17.3403 21.3458 17.6427 21.3458 18.2471V18.6745C21.3458 19.2788 21.3458 19.5812 21.5446 19.7689C21.7433 19.9567 22.0635 19.9567 22.7033 19.9567H24.0609C24.7008 19.9567 25.0209 19.9567 25.2196 19.7689C25.4185 19.5812 25.4185 19.2788 25.4185 18.6745V18.2471C25.4185 17.6427 25.4185 17.3403 25.2196 17.1527C25.0209 16.9648 24.7008 16.9648 24.0609 16.9648H22.7033C22.0635 16.9648 21.7433 16.9648 21.5446 17.1527ZM22.1501 17.6419C22.1002 17.6104 22.0391 17.599 21.9802 17.6101C21.9214 17.6212 21.8696 17.6539 21.8363 17.7011C21.803 17.7482 21.7909 17.8059 21.8026 17.8615C21.8144 17.9171 21.849 17.966 21.899 17.9975L23.1312 18.7732C23.2055 18.82 23.2928 18.8449 23.3821 18.8449C23.4714 18.8449 23.5587 18.82 23.6331 18.7732L24.8653 17.9975C24.9152 17.966 24.9499 17.9171 24.9616 17.8615C24.9734 17.8059 24.9613 17.7482 24.928 17.7011C24.8946 17.6539 24.8429 17.6212 24.784 17.6101C24.7252 17.599 24.6641 17.6104 24.6141 17.6419L23.3821 18.4176L22.1501 17.6419Z" fill="#0163BB"/>
<path fill-rule="evenodd" clip-rule="evenodd" d="M19.5915 16.9648H10.6544V20.3317H19.5915V16.9648ZM16.7538 17.6592H16.2266V19.6397H16.6413V18.3458H16.6581L17.1813 19.63H17.4637L17.987 18.3506H18.0038V19.6397H18.4184V17.6592H17.8912L17.3344 18.9898H17.3107L16.7538 17.6592ZM14.0684 19.6397V17.6592H14.8662C15.0189 17.6592 15.1492 17.6859 15.2571 17.7394C15.3657 17.7923 15.4483 17.8674 15.5049 17.9648C15.5622 18.0615 15.5908 18.1753 15.5908 18.3061C15.5908 18.4376 15.5619 18.5508 15.504 18.6456C15.446 18.7397 15.3621 18.8119 15.2522 18.8622L15.2339 18.8703L15.6629 19.6397H15.191L14.808 18.9376H14.4959V19.6397H14.0684ZM14.7862 18.6011H14.4959V18.0015H14.7842C14.8665 18.0015 14.9346 18.0134 14.9886 18.0373C15.0432 18.0605 15.0837 18.0947 15.11 18.1398C15.137 18.1849 15.1505 18.2404 15.1505 18.3061C15.1505 18.3712 15.137 18.4257 15.11 18.4696C15.0837 18.5134 15.0435 18.5463 14.9896 18.5682C14.9356 18.5901 14.8678 18.6011 14.7862 18.6011ZM12.9946 18.3523H13.4271C13.4133 18.2375 13.3817 18.1357 13.3323 18.0467C13.2836 17.9577 13.2204 17.8826 13.1427 17.8214C13.0651 17.7595 12.9759 17.7124 12.8752 17.6802C12.7751 17.648 12.6665 17.6318 12.5494 17.6318C12.3717 17.6318 12.2117 17.6718 12.0695 17.7517C11.9274 17.831 11.8148 17.9464 11.7319 18.0979C11.6489 18.2495 11.6075 18.4332 11.6075 18.6492C11.6075 18.8645 11.6483 19.0479 11.7299 19.1994C11.8122 19.3509 11.9241 19.4666 12.0656 19.5466C12.2078 19.6265 12.369 19.6665 12.5494 19.6665C12.679 19.6665 12.7952 19.6475 12.8979 19.6094C13.0012 19.5708 13.0901 19.5185 13.1645 19.4528C13.2395 19.3864 13.2991 19.3113 13.3432 19.2275C13.3879 19.143 13.4159 19.0553 13.4271 18.9644L12.9946 18.9625C12.9848 19.0153 12.967 19.0624 12.9413 19.1037C12.9163 19.1449 12.8847 19.1801 12.8465 19.2091C12.8084 19.2374 12.7646 19.259 12.7152 19.2739C12.6665 19.2887 12.6135 19.2961 12.5563 19.2961C12.4543 19.2961 12.3644 19.2716 12.2867 19.2226C12.2091 19.1736 12.1485 19.1011 12.1051 19.005C12.0623 18.909 12.0409 18.7904 12.0409 18.6492C12.0409 18.5118 12.0623 18.3952 12.1051 18.2991C12.1479 18.2024 12.2081 18.1289 12.2858 18.0786C12.3634 18.0277 12.4546 18.0022 12.5592 18.0022C12.6172 18.0022 12.6708 18.0103 12.7202 18.0264C12.7702 18.0425 12.8143 18.0657 12.8525 18.096C12.8906 18.1263 12.9219 18.1631 12.9463 18.2063C12.9706 18.2488 12.9867 18.2975 12.9946 18.3523Z" fill="#0163BB"/>
</svg>
