<svg width="32" height="32" viewBox="0 0 32 32" fill="none" xmlns="http://www.w3.org/2000/svg">
<path fill-rule="evenodd" clip-rule="evenodd" d="M15.53 14.875L23.655 15.962L23.5118 17.0394L15.3868 15.9524L15.53 14.875Z" fill="#0163BB"/>
<path fill-rule="evenodd" clip-rule="evenodd" d="M15.9548 7.48491L12.423 13.4648L15.9993 15.0596V24.9154L23.9314 16.4886L15.9548 7.48491ZM16.5345 6.50326L16.7233 6.18359L4.29889 11.0315L10.8701 13.9618L6.02024 22.1734L14.6869 26.2313L14.916 25.7389V27.6493L25.4005 16.5109L16.5345 6.50326ZM14.916 25.1391V15.766L11.8669 14.4063L7.56167 21.6956L14.916 25.1391ZM11.4262 13.0203L14.1919 8.3376L7.11635 11.0984L11.4262 13.0203Z" fill="#0163BB"/>
<path fill-rule="evenodd" clip-rule="evenodd" d="M14.9955 26.5647L5.78713 11.3473L6.71315 10.7832L15.9215 26.0006L14.9955 26.5647Z" fill="#0163BB"/>
<path d="M9.50006 10.5217C9.50006 12.3227 8.04499 13.7826 6.25006 13.7826C4.45514 13.7826 3.00006 12.3227 3.00006 10.5217C3.00006 8.72081 4.45514 7.26086 6.25006 7.26086C8.04499 7.26086 9.50006 8.72081 9.50006 10.5217Z" fill="#0163BB"/>
<path d="M19.25 7.26087C19.25 9.0618 17.795 10.5217 16 10.5217C14.2051 10.5217 12.75 9.0618 12.75 7.26087C12.75 5.45994 14.2051 4 16 4C17.795 4 19.25 5.45994 19.25 7.26087Z" fill="#0163BB"/>
<path d="M19.2501 15.9562C19.2501 17.7571 17.795 19.2171 16.0001 19.2171C14.2051 19.2171 12.7501 17.7571 12.7501 15.9562C12.7501 14.1553 14.2051 12.6953 16.0001 12.6953C17.795 12.6953 19.2501 14.1553 19.2501 15.9562Z" fill="#0163BB"/>
<path d="M29.0001 17.0441C29.0001 18.845 27.545 20.3049 25.7501 20.3049C23.9551 20.3049 22.5001 18.845 22.5001 17.0441C22.5001 15.2431 23.9551 13.7832 25.7501 13.7832C27.545 13.7832 29.0001 15.2431 29.0001 17.0441Z" fill="#0163BB"/>
<path d="M19.2501 25.7394C19.2501 27.5403 17.795 29.0003 16.0001 29.0003C14.2051 29.0003 12.7501 27.5403 12.7501 25.7394C12.7501 23.9385 14.2051 22.4785 16.0001 22.4785C17.795 22.4785 19.2501 23.9385 19.2501 25.7394Z" fill="#0163BB"/>
<path d="M9.50006 21.3917C9.50006 23.1927 8.04499 24.6526 6.25006 24.6526C4.45514 24.6526 3.00006 23.1927 3.00006 21.3917C3.00006 19.5908 4.45514 18.1309 6.25006 18.1309C8.04499 18.1309 9.50006 19.5908 9.50006 21.3917Z" fill="#0163BB"/>
<path d="M24.7861 16.3578L24.8124 16.3556C24.8219 16.3546 24.831 16.3513 24.8389 16.3459L24.8387 16.346C24.8639 16.431 24.8947 16.5204 24.9332 16.6141C24.9826 16.7366 25.0312 16.8372 25.0857 16.9344L25.0782 16.9197C25.0737 16.9866 25.0682 17.0554 25.0611 17.122C25.0579 17.1613 25.0498 17.2001 25.0369 17.2374L25.0378 17.2341C25.0356 17.235 25.0324 17.6167 25.0324 17.6167C25.0325 17.7352 25.0733 17.8501 25.1482 17.9431C25.2231 18.0361 25.3277 18.1017 25.4452 18.1294L25.449 18.1302C25.4541 18.1168 25.4633 18.1054 25.4753 18.0973C25.4873 18.0892 25.5015 18.0849 25.5161 18.0849H25.6239C25.6383 18.0851 25.6523 18.0895 25.6642 18.0974C25.6761 18.1054 25.6853 18.1166 25.6908 18.1296L25.6909 18.1302C25.8095 18.1032 25.9153 18.0379 25.9913 17.9448C26.0673 17.8517 26.109 17.7363 26.1097 17.6171C26.1097 17.6171 26.1031 17.2368 26.0997 17.2342C26.0883 17.1987 26.0806 17.1622 26.0768 17.1252L26.0766 17.1224C26.07 17.0554 26.0657 16.9883 26.0595 16.92C26.1059 16.838 26.1545 16.7375 26.1974 16.634L26.2045 16.6145C26.243 16.5208 26.2729 16.4316 26.299 16.3464C26.3067 16.3518 26.3157 16.3551 26.3251 16.3562H26.3253L26.3518 16.3584C26.3837 16.3617 26.4119 16.3359 26.4145 16.296L26.4431 15.9408V15.9404C26.4431 15.9261 26.4377 15.9123 26.4281 15.9016C26.4184 15.8908 26.4051 15.8839 26.3907 15.8821H26.3871C26.4124 15.6971 26.3969 15.509 26.3416 15.3304L26.3441 15.3397C26.2911 15.2245 26.2105 15.1235 26.1092 15.0453C26.0078 14.9671 25.8887 14.914 25.762 14.8905L25.7571 14.8897C25.6956 14.8778 25.6332 14.8709 25.5705 14.8691H25.5666C25.501 14.8703 25.4358 14.8776 25.3716 14.8908L25.3784 14.8897C25.2517 14.9129 25.1325 14.9653 25.0307 15.0427C24.929 15.1201 24.8476 15.2203 24.7934 15.3348L24.7914 15.3397C24.7373 15.5177 24.7229 15.705 24.7491 15.8889L24.7483 15.8821C24.7338 15.8836 24.7204 15.8903 24.7106 15.901C24.7009 15.9116 24.6954 15.9254 24.6954 15.9397V15.9409L24.7239 16.2962C24.7266 16.337 24.7551 16.3617 24.7859 16.3584L24.7861 16.3578Z" fill="white"/>
<path d="M27.5558 18.6731C27.5428 18.1444 27.4864 18.0247 27.456 17.9436C27.444 17.9111 27.4341 17.6913 27.0469 17.5487C26.8095 17.461 26.5032 17.4593 26.2439 17.3565V17.6424C26.2437 17.789 26.1891 17.931 26.0895 18.044C25.9899 18.1569 25.8515 18.2339 25.698 18.2616L25.6937 18.2623C25.6909 18.2777 25.6824 18.2917 25.6698 18.3019C25.6571 18.3121 25.641 18.3178 25.6243 18.3179H25.621V18.5336C25.621 18.6348 25.6639 18.7319 25.7402 18.8034C25.8165 18.875 25.92 18.9152 26.0279 18.9152C26.1358 18.9152 26.2393 18.875 26.3156 18.8034C26.3919 18.7319 26.4347 18.6348 26.4347 18.5336V18.383C26.3787 18.3753 26.3277 18.3486 26.2912 18.308C26.2548 18.2674 26.2355 18.2156 26.237 18.1625C26.2384 18.1095 26.2606 18.0588 26.2993 18.02C26.3379 17.9812 26.3904 17.9571 26.4468 17.9521C26.5031 17.9472 26.5595 17.9618 26.6051 17.9931C26.6508 18.0245 26.6826 18.0705 26.6946 18.1224C26.7065 18.1743 26.6978 18.2285 26.67 18.2748C26.6422 18.321 26.5973 18.3561 26.5438 18.3734L26.5421 18.3739V18.5418C26.5421 18.6697 26.4879 18.7925 26.3914 18.8829C26.295 18.9734 26.1641 19.0243 26.0277 19.0243C25.8912 19.0243 25.7604 18.9734 25.6639 18.8829C25.5674 18.7925 25.5132 18.6697 25.5132 18.5418V18.5331V18.5334V18.3159C25.4974 18.3149 25.4823 18.3089 25.4705 18.2988C25.4587 18.2888 25.4509 18.2753 25.4483 18.2605V18.2602C25.2947 18.2327 25.156 18.156 25.0561 18.0432C24.9561 17.9303 24.9012 17.7884 24.9005 17.6417V17.3535C24.6401 17.4584 24.3319 17.4605 24.0933 17.5483C23.7049 17.6908 23.696 17.9101 23.6842 17.9431C23.6545 18.0245 23.5974 18.1437 23.5844 18.6727C23.5822 18.7423 23.5844 18.8489 23.808 18.9422C24.295 19.1213 24.9224 19.177 25.5409 19.217H25.6002C26.22 19.1773 26.8464 19.1218 27.3331 18.9422C27.5558 18.8495 27.5578 18.7434 27.5558 18.6731ZM24.8332 18.4574H24.6021V18.675H24.4371V18.4581H24.206V18.3033H24.4371V18.0866H24.6021V18.3033H24.8332V18.4574Z" fill="white"/>
<path d="M15.0361 15.2719L15.0624 15.2697C15.0719 15.2687 15.081 15.2653 15.0889 15.2599L15.0887 15.2601C15.1139 15.3451 15.1447 15.4345 15.1832 15.5282C15.2326 15.6507 15.2812 15.7513 15.3357 15.8484L15.3282 15.8337C15.3237 15.9007 15.3182 15.9695 15.3111 16.0361C15.3079 16.0754 15.2998 16.1141 15.2869 16.1514L15.2878 16.1481C15.2856 16.149 15.2824 16.5308 15.2824 16.5308C15.2825 16.6492 15.3233 16.7642 15.3982 16.8572C15.4731 16.9501 15.5777 17.0158 15.6952 17.0435L15.699 17.0442C15.7041 17.0309 15.7133 17.0194 15.7253 17.0113C15.7373 17.0032 15.7515 16.9989 15.7661 16.999H15.8739C15.8883 16.9992 15.9023 17.0035 15.9142 17.0115C15.9261 17.0194 15.9353 17.0306 15.9408 17.0437L15.9409 17.0442C16.0595 17.0173 16.1653 16.952 16.2413 16.8589C16.3173 16.7658 16.359 16.6503 16.3597 16.5312C16.3597 16.5312 16.3531 16.1509 16.3497 16.1483C16.3383 16.1128 16.3306 16.0762 16.3268 16.0392L16.3266 16.0365C16.32 15.9695 16.3157 15.9023 16.3095 15.8341C16.3559 15.752 16.4045 15.6516 16.4474 15.548L16.4545 15.5285C16.493 15.4349 16.5229 15.3457 16.549 15.2605C16.5567 15.2658 16.5657 15.2692 16.5751 15.2702H16.5753L16.6018 15.2724C16.6337 15.2757 16.6619 15.25 16.6645 15.2101L16.6931 14.8548V14.8545C16.6931 14.8402 16.6877 14.8264 16.6781 14.8156C16.6684 14.8049 16.6551 14.798 16.6407 14.7961H16.6371C16.6624 14.6112 16.6469 14.423 16.5916 14.2444L16.5941 14.2538C16.5411 14.1386 16.4605 14.0376 16.3592 13.9594C16.2578 13.8812 16.1387 13.8281 16.012 13.8045L16.0071 13.8038C15.9456 13.7919 15.8832 13.785 15.8205 13.7832H15.8166C15.751 13.7844 15.6858 13.7916 15.6216 13.8049L15.6284 13.8038C15.5017 13.8269 15.3825 13.8794 15.2807 13.9568C15.179 14.0342 15.0976 14.1343 15.0434 14.2488L15.0414 14.2538C14.9873 14.4318 14.9729 14.619 14.9991 14.8029L14.9983 14.7961C14.9838 14.7977 14.9704 14.8044 14.9606 14.815C14.9509 14.8256 14.9454 14.8394 14.9454 14.8537V14.855L14.9739 15.2103C14.9766 15.2511 15.0051 15.2757 15.0359 15.2724L15.0361 15.2719Z" fill="white"/>
<path d="M17.8058 17.5872C17.7928 17.0584 17.7364 16.9388 17.706 16.8577C17.694 16.8252 17.6841 16.6053 17.2969 16.4627C17.0595 16.3751 16.7532 16.3733 16.4939 16.2705V16.5565C16.4937 16.7031 16.4391 16.845 16.3395 16.958C16.2399 17.071 16.1015 17.1479 15.948 17.1756L15.9437 17.1763C15.9409 17.1918 15.9324 17.2058 15.9198 17.216C15.9071 17.2261 15.891 17.2318 15.8743 17.232H15.871V17.4477C15.871 17.5489 15.9139 17.6459 15.9902 17.7175C16.0665 17.7891 16.17 17.8293 16.2779 17.8293C16.3858 17.8293 16.4893 17.7891 16.5656 17.7175C16.6419 17.6459 16.6847 17.5489 16.6847 17.4477V17.2971C16.6287 17.2893 16.5777 17.2627 16.5412 17.222C16.5048 17.1814 16.4855 17.1297 16.487 17.0766C16.4884 17.0235 16.5106 16.9728 16.5493 16.934C16.5879 16.8953 16.6404 16.8711 16.6968 16.8662C16.7531 16.8612 16.8095 16.8758 16.8551 16.9072C16.9008 16.9386 16.9326 16.9846 16.9446 17.0365C16.9565 17.0884 16.9478 17.1426 16.92 17.1888C16.8922 17.2351 16.8473 17.2702 16.7938 17.2875L16.7921 17.288V17.4558C16.7921 17.5838 16.7379 17.7065 16.6414 17.797C16.545 17.8875 16.4141 17.9383 16.2777 17.9383C16.1412 17.9383 16.0104 17.8875 15.9139 17.797C15.8174 17.7065 15.7632 17.5838 15.7632 17.4558V17.4471V17.4475V17.2299C15.7474 17.2289 15.7323 17.2229 15.7205 17.2129C15.7087 17.2028 15.7009 17.1893 15.6983 17.1746V17.1743C15.5447 17.1468 15.406 17.07 15.3061 16.9572C15.2061 16.8444 15.1512 16.7025 15.1505 16.5558V16.2676C14.8901 16.3725 14.5819 16.3745 14.3433 16.4624C13.9549 16.6048 13.946 16.8241 13.9342 16.8572C13.9045 16.9386 13.8474 17.0577 13.8344 17.5868C13.8322 17.6564 13.8344 17.763 14.058 17.8562C14.545 18.0354 15.1724 18.091 15.7909 18.131H15.8502C16.47 18.0914 17.0964 18.0359 17.5831 17.8562C17.8058 17.7635 17.8078 17.6574 17.8058 17.5872ZM15.0832 17.3715H14.8521V17.5891H14.6871V17.3722H14.456V17.2174H14.6871V17.0007H14.8521V17.2174H15.0832V17.3715Z" fill="white"/>
<path d="M15.0361 6.57559L15.0624 6.57339C15.0719 6.57239 15.081 6.56904 15.0889 6.56364L15.0887 6.56382C15.1139 6.64881 15.1447 6.73822 15.1832 6.83186C15.2326 6.95439 15.2812 7.05502 15.3357 7.15215L15.3282 7.13744C15.3237 7.2044 15.3182 7.2732 15.3111 7.3398C15.3079 7.37908 15.2998 7.41782 15.2869 7.45515L15.2878 7.45184C15.2856 7.45276 15.2824 7.83449 15.2824 7.83449C15.2825 7.95292 15.3233 8.06787 15.3982 8.16086C15.4731 8.25385 15.5777 8.31949 15.6952 8.34722L15.699 8.34795C15.7041 8.33461 15.7133 8.32313 15.7253 8.31504C15.7373 8.30695 15.7515 8.30264 15.7661 8.3027H15.8739C15.8883 8.30289 15.9023 8.30723 15.9142 8.31518C15.9261 8.32313 15.9353 8.33434 15.9408 8.3474L15.9409 8.34795C16.0595 8.32101 16.1653 8.25572 16.2413 8.16262C16.3173 8.06951 16.359 7.95404 16.3597 7.83486C16.3597 7.83486 16.3531 7.4546 16.3497 7.45202C16.3383 7.41651 16.3306 7.37996 16.3268 7.34293L16.3266 7.34017C16.32 7.2732 16.3157 7.20606 16.3095 7.1378C16.3559 7.05575 16.4045 6.95531 16.4474 6.85173L16.4545 6.83223C16.493 6.73859 16.5229 6.64937 16.549 6.56419C16.5567 6.56953 16.5657 6.57289 16.5751 6.57394H16.5753L16.6018 6.57615C16.6337 6.57946 16.6619 6.5537 16.6645 6.51378L16.6931 6.15853V6.15817C16.6931 6.14387 16.6877 6.13007 16.6781 6.11934C16.6684 6.10861 16.6551 6.10168 16.6407 6.09985H16.6371C16.6624 5.91487 16.6469 5.72674 16.5916 5.54812L16.5941 5.55751C16.5411 5.44229 16.4605 5.34129 16.3592 5.26308C16.2578 5.18487 16.1387 5.13176 16.012 5.10825L16.0071 5.10752C15.9456 5.09558 15.8832 5.08869 15.8205 5.08691H15.8166C15.751 5.08807 15.6858 5.09534 15.6216 5.10862L15.6284 5.10752C15.5017 5.13062 15.3825 5.18307 15.2807 5.26049C15.179 5.33791 15.0976 5.43805 15.0434 5.55254L15.0414 5.55751C14.9873 5.73548 14.9729 5.92275 14.9991 6.10666L14.9983 6.09985C14.9838 6.10139 14.9704 6.10811 14.9606 6.11873C14.9509 6.12936 14.9454 6.14313 14.9454 6.15743V6.15872L14.9739 6.51396C14.9766 6.5548 15.0051 6.57946 15.0359 6.57615L15.0361 6.57559Z" fill="white"/>
<path d="M17.8058 8.89087C17.7928 8.36213 17.7364 8.24247 17.706 8.16142C17.694 8.1289 17.6841 7.90905 17.2969 7.76643C17.0595 7.67878 16.7532 7.67704 16.4939 7.57425V7.86018C16.4937 8.00679 16.4391 8.14876 16.3395 8.26173C16.2399 8.37471 16.1015 8.45165 15.948 8.47936L15.9437 8.48006C15.9409 8.49548 15.9324 8.50951 15.9198 8.51968C15.9071 8.52985 15.891 8.53552 15.8743 8.53571H15.871V8.75138C15.871 8.85259 15.9139 8.94965 15.9902 9.02121C16.0665 9.09277 16.17 9.13298 16.2779 9.13298C16.3858 9.13298 16.4893 9.09277 16.5656 9.02121C16.6419 8.94965 16.6847 8.85259 16.6847 8.75138V8.60076C16.6287 8.59306 16.5777 8.56637 16.5412 8.52575C16.5048 8.48513 16.4855 8.43339 16.487 8.38032C16.4884 8.32725 16.5106 8.27652 16.5493 8.23775C16.5879 8.19897 16.6404 8.17482 16.6968 8.16988C16.7531 8.16494 16.8095 8.17954 16.8551 8.21092C16.9008 8.2423 16.9326 8.28828 16.9446 8.34018C16.9565 8.39207 16.9478 8.44627 16.92 8.49253C16.8922 8.53878 16.8473 8.57388 16.7938 8.5912L16.7921 8.59172V8.75956C16.7921 8.88752 16.7379 9.01023 16.6414 9.10072C16.545 9.1912 16.4141 9.24203 16.2777 9.24203C16.1412 9.24203 16.0104 9.1912 15.9139 9.10072C15.8174 9.01023 15.7632 8.88752 15.7632 8.75956V8.75086V8.75121V8.53363C15.7474 8.53264 15.7323 8.52664 15.7205 8.51659C15.7087 8.50655 15.7009 8.49306 15.6983 8.47832V8.47797C15.5447 8.45049 15.406 8.37376 15.3061 8.26092C15.2061 8.14809 15.1512 8.00617 15.1505 7.85949V7.57129C14.8901 7.67617 14.5819 7.67825 14.3433 7.76609C13.9549 7.90853 13.946 8.12785 13.9342 8.1609C13.9045 8.2423 13.8474 8.36144 13.8344 8.89052C13.8322 8.96009 13.8344 9.06671 14.058 9.15994C14.545 9.33908 15.1724 9.39474 15.7909 9.43474H15.8502C16.47 9.39508 17.0964 9.3396 17.5831 9.15994C17.8058 9.06723 17.8078 8.96114 17.8058 8.89087ZM15.0832 8.6752H14.8521V8.89278H14.6871V8.6759H14.456V8.5211H14.6871V8.30439H14.8521V8.5211H15.0832V8.6752Z" fill="white"/>
<path d="M5.2861 9.83634L5.3124 9.83413C5.32193 9.83314 5.33105 9.82978 5.33889 9.82438L5.3387 9.82456C5.36387 9.90956 5.39468 9.99896 5.43318 10.0926C5.48259 10.2151 5.53124 10.3158 5.58571 10.4129L5.5782 10.3982C5.57369 10.4651 5.56824 10.5339 5.56111 10.6005C5.55791 10.6398 5.54977 10.6786 5.53687 10.7159L5.53781 10.7126C5.53556 10.7135 5.53237 11.0952 5.53237 11.0952C5.5325 11.2137 5.57329 11.3286 5.64817 11.4216C5.72305 11.5146 5.82768 11.5802 5.94525 11.608L5.949 11.6087C5.95414 11.5954 5.96331 11.5839 5.9753 11.5758C5.98728 11.5677 6.00151 11.5634 6.01606 11.5634H6.12389C6.13829 11.5636 6.15231 11.568 6.1642 11.5759C6.1761 11.5839 6.18533 11.5951 6.19076 11.6081L6.19095 11.6087C6.30949 11.5818 6.4153 11.5165 6.49127 11.4234C6.56725 11.3303 6.60896 11.2148 6.60965 11.0956C6.60965 11.0956 6.60308 10.7153 6.5997 10.7128C6.58832 10.6773 6.58064 10.6407 6.57678 10.6037L6.57659 10.6009C6.57002 10.5339 6.5657 10.4668 6.5595 10.3985C6.60589 10.3165 6.65455 10.216 6.69737 10.1125L6.70451 10.093C6.74302 9.99933 6.77289 9.91011 6.799 9.82493C6.80673 9.83027 6.81571 9.83363 6.82511 9.83468H6.8253L6.85178 9.83689C6.88372 9.8402 6.91189 9.81444 6.91452 9.77452L6.94307 9.41928V9.41891C6.94306 9.40461 6.93773 9.39081 6.92809 9.38008C6.91844 9.36935 6.90514 9.36242 6.89067 9.36059H6.8871C6.91236 9.17561 6.89686 8.98748 6.84164 8.80887L6.84408 8.81825C6.7911 8.70303 6.71052 8.60203 6.60918 8.52383C6.50783 8.44562 6.38872 8.3925 6.26195 8.369L6.25707 8.36826C6.19559 8.35632 6.13319 8.34943 6.07054 8.34766H6.06659C6.00104 8.34882 5.93576 8.35609 5.87161 8.36936L5.87837 8.36826C5.7517 8.39137 5.6325 8.44382 5.53075 8.52123C5.42899 8.59865 5.34762 8.69879 5.29343 8.81328L5.29136 8.81825C5.2373 8.99623 5.22288 9.1835 5.2491 9.3674L5.24835 9.36059C5.23383 9.36213 5.2204 9.36885 5.21063 9.37948C5.20086 9.3901 5.19543 9.40388 5.19537 9.41817V9.41946L5.22393 9.77471C5.22656 9.81555 5.25511 9.8402 5.28591 9.83689L5.2861 9.83634Z" fill="white"/>
<path d="M8.05579 12.1516C8.04281 11.6229 7.98643 11.5032 7.95602 11.4222C7.94397 11.3896 7.93414 11.1698 7.54692 11.0272C7.30954 10.9395 7.00318 10.9378 6.74392 10.835V11.1209C6.74372 11.2675 6.68913 11.4095 6.58951 11.5225C6.48989 11.6355 6.35146 11.7124 6.19796 11.7401L6.19369 11.7408C6.19091 11.7562 6.18245 11.7702 6.16977 11.7804C6.15709 11.7906 6.14101 11.7963 6.12433 11.7965H6.12099V12.0121C6.12099 12.1133 6.16386 12.2104 6.24017 12.282C6.31647 12.3535 6.41996 12.3937 6.52787 12.3937C6.63578 12.3937 6.73927 12.3535 6.81558 12.282C6.89188 12.2104 6.93475 12.1133 6.93475 12.0121V11.8615C6.87874 11.8538 6.82769 11.8271 6.79124 11.7865C6.75479 11.7459 6.73549 11.6941 6.73697 11.6411C6.73845 11.588 6.76062 11.5373 6.79928 11.4985C6.83794 11.4597 6.89041 11.4356 6.94677 11.4306C7.00313 11.4257 7.05947 11.4403 7.10513 11.4717C7.15079 11.503 7.1826 11.549 7.19455 11.6009C7.2065 11.6528 7.19776 11.707 7.16998 11.7533C7.1422 11.7995 7.09731 11.8346 7.04379 11.8519L7.04212 11.8525V12.0203C7.04212 12.1483 6.98792 12.271 6.89145 12.3615C6.79497 12.4519 6.66412 12.5028 6.52769 12.5028C6.39125 12.5028 6.2604 12.4519 6.16392 12.3615C6.06745 12.271 6.01325 12.1483 6.01325 12.0203V12.0116V12.012V11.7944C5.99736 11.7934 5.98229 11.7874 5.9705 11.7773C5.95872 11.7673 5.9509 11.7538 5.94834 11.7391V11.7387C5.7947 11.7112 5.65603 11.6345 5.55609 11.5217C5.45615 11.4088 5.40115 11.2669 5.40052 11.1202V10.832C5.14015 10.9369 4.83193 10.939 4.59326 11.0268C4.20493 11.1693 4.19602 11.3886 4.18416 11.4216C4.15448 11.503 4.09736 11.6222 4.08438 12.1513C4.08216 12.2208 4.08438 12.3275 4.30804 12.4207C4.79503 12.5998 5.4224 12.6555 6.04088 12.6955H6.10022C6.72 12.6558 7.34645 12.6003 7.83307 12.4207C8.05579 12.328 8.05783 12.2219 8.05579 12.1516ZM5.3332 11.9359H5.10213V12.1535H4.93708V11.9366H4.70601V11.7818H4.93708V11.5651H5.10213V11.7818H5.3332V11.9359Z" fill="white"/>
<path d="M5.2861 20.7055L5.3124 20.7033C5.32193 20.7023 5.33105 20.6989 5.33889 20.6935L5.3387 20.6937C5.36387 20.7787 5.39468 20.8681 5.43318 20.9617C5.48259 21.0843 5.53124 21.1849 5.58571 21.282L5.5782 21.2673C5.57369 21.3343 5.56824 21.4031 5.56111 21.4697C5.55791 21.509 5.54977 21.5477 5.53687 21.585L5.53781 21.5817C5.53556 21.5826 5.53237 21.9644 5.53237 21.9644C5.5325 22.0828 5.57329 22.1978 5.64817 22.2907C5.72305 22.3837 5.82768 22.4494 5.94525 22.4771L5.949 22.4778C5.95414 22.4645 5.96331 22.453 5.9753 22.4449C5.98728 22.4368 6.00151 22.4325 6.01606 22.4326H6.12389C6.13829 22.4328 6.15231 22.4371 6.1642 22.4451C6.1761 22.453 6.18533 22.4642 6.19076 22.4773L6.19095 22.4778C6.30949 22.4509 6.4153 22.3856 6.49127 22.2925C6.56725 22.1994 6.60896 22.0839 6.60965 21.9647C6.60965 21.9647 6.60308 21.5845 6.5997 21.5819C6.58832 21.5464 6.58064 21.5098 6.57678 21.4728L6.57659 21.4701C6.57002 21.4031 6.5657 21.3359 6.5595 21.2677C6.60589 21.1856 6.65455 21.0852 6.69737 20.9816L6.70451 20.9621C6.74302 20.8685 6.77289 20.7792 6.799 20.6941C6.80673 20.6994 6.81571 20.7028 6.82511 20.7038H6.8253L6.85178 20.706C6.88372 20.7093 6.91189 20.6836 6.91452 20.6437L6.94307 20.2884V20.288C6.94306 20.2738 6.93773 20.26 6.92809 20.2492C6.91844 20.2385 6.90514 20.2316 6.89067 20.2297H6.8871C6.91236 20.0448 6.89686 19.8566 6.84164 19.678L6.84408 19.6874C6.7911 19.5722 6.71052 19.4712 6.60918 19.393C6.50783 19.3148 6.38872 19.2616 6.26195 19.2381L6.25707 19.2374C6.19559 19.2255 6.13319 19.2186 6.07054 19.2168H6.06659C6.00104 19.218 5.93576 19.2252 5.87161 19.2385L5.87837 19.2374C5.7517 19.2605 5.6325 19.313 5.53075 19.3904C5.42899 19.4678 5.34762 19.5679 5.29343 19.6824L5.29136 19.6874C5.2373 19.8654 5.22288 20.0526 5.2491 20.2365L5.24835 20.2297C5.23383 20.2313 5.2204 20.238 5.21063 20.2486C5.20086 20.2592 5.19543 20.273 5.19537 20.2873V20.2886L5.22393 20.6438C5.22656 20.6847 5.25511 20.7093 5.28591 20.706L5.2861 20.7055Z" fill="white"/>
<path d="M8.05579 23.0208C8.04281 22.492 7.98643 22.3724 7.95602 22.2913C7.94397 22.2588 7.93414 22.0389 7.54692 21.8963C7.30954 21.8087 7.00318 21.8069 6.74392 21.7041V21.9901C6.74372 22.1367 6.68913 22.2786 6.58951 22.3916C6.48989 22.5046 6.35146 22.5815 6.19796 22.6092L6.19369 22.6099C6.19091 22.6254 6.18245 22.6394 6.16977 22.6496C6.15709 22.6597 6.14101 22.6654 6.12433 22.6656H6.12099V22.8813C6.12099 22.9825 6.16386 23.0795 6.24017 23.1511C6.31647 23.2227 6.41996 23.2629 6.52787 23.2629C6.63578 23.2629 6.73927 23.2227 6.81558 23.1511C6.89188 23.0795 6.93475 22.9825 6.93475 22.8813V22.7306C6.87874 22.7229 6.82769 22.6963 6.79124 22.6556C6.75479 22.615 6.73549 22.5633 6.73697 22.5102C6.73845 22.4571 6.76062 22.4064 6.79928 22.3676C6.83794 22.3289 6.89041 22.3047 6.94677 22.2998C7.00313 22.2948 7.05947 22.3094 7.10513 22.3408C7.15079 22.3722 7.1826 22.4182 7.19455 22.4701C7.2065 22.522 7.19776 22.5762 7.16998 22.6224C7.1422 22.6687 7.09731 22.7038 7.04379 22.7211L7.04212 22.7216V22.8894C7.04212 23.0174 6.98792 23.1401 6.89145 23.2306C6.79497 23.3211 6.66412 23.3719 6.52769 23.3719C6.39125 23.3719 6.2604 23.3211 6.16392 23.2306C6.06745 23.1401 6.01325 23.0174 6.01325 22.8894V22.8807V22.8811V22.6635C5.99736 22.6625 5.98229 22.6565 5.9705 22.6465C5.95872 22.6364 5.9509 22.6229 5.94834 22.6082V22.6079C5.7947 22.5804 5.65603 22.5036 5.55609 22.3908C5.45615 22.278 5.40115 22.1361 5.40052 21.9894V21.7012C5.14015 21.806 4.83193 21.8081 4.59326 21.896C4.20493 22.0384 4.19602 22.2577 4.18416 22.2908C4.15448 22.3722 4.09736 22.4913 4.08438 23.0204C4.08216 23.09 4.08438 23.1966 4.30804 23.2898C4.79503 23.469 5.4224 23.5246 6.04088 23.5646H6.10022C6.72 23.525 7.34645 23.4695 7.83307 23.2898C8.05579 23.1971 8.05783 23.091 8.05579 23.0208ZM5.3332 22.8051H5.10213V23.0227H4.93708V22.8058H4.70601V22.651H4.93708V22.4343H5.10213V22.651H5.3332V22.8051Z" fill="white"/>
<path d="M15.0361 25.0541L15.0624 25.0519C15.0719 25.0509 15.081 25.0476 15.0889 25.0422L15.0887 25.0423C15.1139 25.1273 15.1447 25.2167 15.1832 25.3104C15.2326 25.4329 15.2812 25.5335 15.3357 25.6307L15.3282 25.616C15.3237 25.6829 15.3182 25.7517 15.3111 25.8183C15.3079 25.8576 15.2998 25.8963 15.2869 25.9337L15.2878 25.9304C15.2856 25.9313 15.2824 26.313 15.2824 26.313C15.2825 26.4314 15.3233 26.5464 15.3982 26.6394C15.4731 26.7324 15.5777 26.798 15.6952 26.8257L15.699 26.8265C15.7041 26.8131 15.7133 26.8016 15.7253 26.7936C15.7373 26.7855 15.7515 26.7812 15.7661 26.7812H15.8739C15.8883 26.7814 15.9023 26.7857 15.9142 26.7937C15.9261 26.8016 15.9353 26.8129 15.9408 26.8259L15.9409 26.8265C16.0595 26.7995 16.1653 26.7342 16.2413 26.6411C16.3173 26.548 16.359 26.4326 16.3597 26.3134C16.3597 26.3134 16.3531 25.9331 16.3497 25.9305C16.3383 25.895 16.3306 25.8585 16.3268 25.8214L16.3266 25.8187C16.32 25.7517 16.3157 25.6846 16.3095 25.6163C16.3559 25.5343 16.4045 25.4338 16.4474 25.3302L16.4545 25.3107C16.493 25.2171 16.5229 25.1279 16.549 25.0427C16.5567 25.048 16.5657 25.0514 16.5751 25.0525H16.5753L16.6018 25.0547C16.6337 25.058 16.6619 25.0322 16.6645 24.9923L16.6931 24.6371V24.6367C16.6931 24.6224 16.6877 24.6086 16.6781 24.5979C16.6684 24.5871 16.6551 24.5802 16.6407 24.5784H16.6371C16.6624 24.3934 16.6469 24.2053 16.5916 24.0266L16.5941 24.036C16.5411 23.9208 16.4605 23.8198 16.3592 23.7416C16.2578 23.6634 16.1387 23.6103 16.012 23.5868L16.0071 23.586C15.9456 23.5741 15.8832 23.5672 15.8205 23.5654H15.8166C15.751 23.5666 15.6858 23.5739 15.6216 23.5871L15.6284 23.586C15.5017 23.6091 15.3825 23.6616 15.2807 23.739C15.179 23.8164 15.0976 23.9166 15.0434 24.0311L15.0414 24.036C14.9873 24.214 14.9729 24.4013 14.9991 24.5852L14.9983 24.5784C14.9838 24.5799 14.9704 24.5866 14.9606 24.5972C14.9509 24.6079 14.9454 24.6216 14.9454 24.6359V24.6372L14.9739 24.9925C14.9766 25.0333 15.0051 25.058 15.0359 25.0547L15.0361 25.0541Z" fill="white"/>
<path d="M17.8058 27.3694C17.7928 26.8406 17.7364 26.721 17.706 26.6399C17.694 26.6074 17.6841 26.3876 17.2969 26.245C17.0595 26.1573 16.7532 26.1556 16.4939 26.0528V26.3387C16.4937 26.4853 16.4391 26.6273 16.3395 26.7403C16.2399 26.8532 16.1015 26.9302 15.948 26.9579L15.9437 26.9586C15.9409 26.974 15.9324 26.988 15.9198 26.9982C15.9071 27.0084 15.891 27.014 15.8743 27.0142H15.871V27.2299C15.871 27.3311 15.9139 27.4282 15.9902 27.4997C16.0665 27.5713 16.17 27.6115 16.2779 27.6115C16.3858 27.6115 16.4893 27.5713 16.5656 27.4997C16.6419 27.4282 16.6847 27.3311 16.6847 27.2299V27.0793C16.6287 27.0716 16.5777 27.0449 16.5412 27.0043C16.5048 26.9636 16.4855 26.9119 16.487 26.8588C16.4884 26.8058 16.5106 26.755 16.5493 26.7163C16.5879 26.6775 16.6404 26.6533 16.6968 26.6484C16.7531 26.6435 16.8095 26.6581 16.8551 26.6894C16.9008 26.7208 16.9326 26.7668 16.9446 26.8187C16.9565 26.8706 16.9478 26.9248 16.92 26.971C16.8922 27.0173 16.8473 27.0524 16.7938 27.0697L16.7921 27.0702V27.2381C16.7921 27.366 16.7379 27.4888 16.6414 27.5792C16.545 27.6697 16.4141 27.7205 16.2777 27.7205C16.1412 27.7205 16.0104 27.6697 15.9139 27.5792C15.8174 27.4888 15.7632 27.366 15.7632 27.2381V27.2294V27.2297V27.0121C15.7474 27.0112 15.7323 27.0052 15.7205 26.9951C15.7087 26.9851 15.7009 26.9716 15.6983 26.9568V26.9565C15.5447 26.929 15.406 26.8523 15.3061 26.7394C15.2061 26.6266 15.1512 26.4847 15.1505 26.338V26.0498C14.8901 26.1547 14.5819 26.1568 14.3433 26.2446C13.9549 26.387 13.946 26.6064 13.9342 26.6394C13.9045 26.7208 13.8474 26.84 13.8344 27.369C13.8322 27.4386 13.8344 27.5452 14.058 27.6385C14.545 27.8176 15.1724 27.8733 15.7909 27.9133H15.8502C16.47 27.8736 17.0964 27.8181 17.5831 27.6385C17.8058 27.5457 17.8078 27.4397 17.8058 27.3694ZM15.0832 27.1537H14.8521V27.3713H14.6871V27.1544H14.456V26.9996H14.6871V26.7829H14.8521V26.9996H15.0832V27.1537Z" fill="white"/>
</svg>
