<svg width="32" height="32" viewBox="0 0 32 32" fill="none" xmlns="http://www.w3.org/2000/svg">
<rect x="5.04303" y="14.5381" width="5.21752" height="13.4613" fill="#0163BB"/>
<rect x="13.3926" y="9.73145" width="5.21752" height="18.2689" fill="#0163BB"/>
<rect x="21.7383" y="14.5381" width="5.21752" height="13.4613" fill="#0163BB"/>
<path d="M7.65233 7.80682L8.47231 10.1322H11.1258L8.97909 11.5694L9.79907 13.8947L7.65233 12.4576L5.50558 13.8947L6.32556 11.5694L4.17882 10.1322H6.83234L7.65233 7.80682Z" fill="#0163BB"/>
<path d="M16.0019 3L16.8219 5.32538H19.4754L17.3287 6.76254L18.1487 9.08793L16.0019 7.65076L13.8552 9.08793L14.6752 6.76254L12.5284 5.32538H15.182L16.0019 3Z" fill="#0163BB"/>
<path d="M24.3478 7.80664L25.1678 10.132H27.8213L25.6746 11.5692L26.4945 13.8946L24.3478 12.4574L22.201 13.8946L23.021 11.5692L20.8743 10.132H23.5278L24.3478 7.80664Z" fill="#0163BB"/>
</svg>
