<svg width="32" height="32" viewBox="0 0 32 32" fill="none" xmlns="http://www.w3.org/2000/svg">
<path fill-rule="evenodd" clip-rule="evenodd" d="M11.7097 8H20.2098V9.48517C20.2098 10.0225 20.6575 10.4581 21.2098 10.4581C21.7621 10.4581 22.2098 10.0225 22.2098 9.48517V8H29.0001V24.7143H3.00006V8H9.7097V9.48506C9.7097 10.0224 10.1574 10.458 10.7097 10.458C11.262 10.458 11.7097 10.0224 11.7097 9.48506V8ZM7.94643 15.6023L7.87508 15.6083L7.87457 15.6098C7.79098 15.6187 7.7135 15.552 7.70637 15.4414L7.62889 14.4794V14.4759C7.62904 14.4372 7.64378 14.3999 7.6703 14.3712C7.69669 14.3425 7.73291 14.3244 7.77209 14.3201C7.70452 13.828 7.74446 13.3274 7.88935 12.8514L7.89496 12.838C8.04199 12.5279 8.26278 12.2568 8.53889 12.0472C8.81501 11.8375 9.13843 11.6955 9.48215 11.6329L9.4638 11.6359C9.63785 11.6 9.815 11.5803 9.99287 11.5771H10.0036C10.1736 11.5819 10.3429 11.6006 10.5097 11.6329L10.523 11.6349C10.8669 11.6986 11.1901 11.8424 11.4651 12.0542C11.7401 12.2659 11.9587 12.5394 12.1025 12.8514L12.0959 12.826C12.2457 13.3097 12.2878 13.8191 12.2192 14.32H12.2289C12.2682 14.325 12.3043 14.3437 12.3304 14.3728C12.3566 14.4019 12.3711 14.4392 12.3711 14.4779V14.4789L12.2936 15.4409C12.2865 15.549 12.21 15.6187 12.1234 15.6098L12.0515 15.6038H12.051C12.0255 15.6009 12.0011 15.5919 11.9802 15.5774C11.9093 15.808 11.8283 16.0496 11.7238 16.3032L11.7044 16.356C11.5882 16.6365 11.4562 16.9085 11.3303 17.1307C11.3377 17.2122 11.3442 17.2931 11.3506 17.3736L11.3506 17.3737L11.3506 17.3738C11.3587 17.4758 11.3667 17.5773 11.3767 17.6786L11.3772 17.6861C11.3877 17.7864 11.4085 17.8854 11.4394 17.9815C11.4486 17.9885 11.4664 19.0182 11.4664 19.0182C11.4645 19.3409 11.3514 19.6536 11.1452 19.9057C10.939 20.1578 10.6519 20.3346 10.3303 20.4076L10.3298 20.4061C10.3151 20.3707 10.29 20.3404 10.2577 20.3188C10.2254 20.2973 10.1874 20.2855 10.1483 20.285H9.85576C9.81626 20.2849 9.77767 20.2966 9.74514 20.3185C9.71262 20.3404 9.68773 20.3715 9.6738 20.4076L9.6636 20.4056C9.34461 20.3305 9.0607 20.1528 8.85752 19.901C8.65433 19.6492 8.54366 19.3379 8.54329 19.0172C8.54329 19.0172 8.55142 18.0478 8.55749 17.9843C8.59135 17.885 8.61277 17.782 8.62127 17.6776C8.64054 17.4983 8.65526 17.313 8.66746 17.1326C8.52791 16.8809 8.40197 16.6185 8.27417 16.3022C8.16968 16.0486 8.08609 15.8065 8.01779 15.5764L8.0183 15.5759C7.99703 15.5905 7.9723 15.5996 7.94643 15.6023ZM8.55772 17.9823L8.55749 17.9843L8.55552 17.99L8.55772 17.9823ZM8.55807 17.981C8.55796 17.9811 8.55784 17.9815 8.55772 17.9823L8.55807 17.981ZM15.3879 21.8774C15.3546 20.5216 15.2156 20.1591 15.1309 19.9381C15.1262 19.9257 15.1216 19.9138 15.1172 19.9022C15.1139 19.8932 15.1106 19.8788 15.1063 19.8599C15.0683 19.6944 14.9503 19.1793 14.0072 18.8326C13.7027 18.7204 13.3564 18.6602 13.0016 18.5985L13.0016 18.5985C12.6057 18.5296 12.1993 18.459 11.8283 18.3122V19.0865C11.8278 19.4834 11.6796 19.8679 11.4093 20.1738C11.139 20.4797 10.7634 20.6881 10.3469 20.7631L10.3353 20.765C10.3278 20.8068 10.3048 20.8447 10.2704 20.8723C10.236 20.8998 10.1924 20.9152 10.1471 20.9157H10.1381V21.4997C10.1381 21.7738 10.2544 22.0366 10.4614 22.2304C10.6685 22.4242 10.9493 22.533 11.2421 22.533C11.5349 22.533 11.8157 22.4242 12.0227 22.2304C12.2298 22.0366 12.3461 21.7738 12.3461 21.4997V21.0918C12.1941 21.071 12.0556 20.9987 11.9567 20.8887C11.8578 20.7787 11.8054 20.6386 11.8094 20.4949C11.8135 20.3512 11.8736 20.2139 11.9785 20.1089C12.0834 20.0038 12.2258 19.9385 12.3787 19.9251C12.5317 19.9117 12.6845 19.9512 12.8084 20.0362C12.9323 20.1212 13.0186 20.2457 13.0511 20.3862C13.0835 20.5267 13.0598 20.6735 12.9844 20.7988C12.909 20.924 12.7872 21.0191 12.642 21.0659L12.6375 21.0674V21.5218C12.6375 21.8683 12.4904 22.2006 12.2286 22.4457C11.9668 22.6907 11.6118 22.8283 11.2416 22.8283C10.8714 22.8283 10.5163 22.6907 10.2545 22.4457C9.99276 22.2006 9.8457 21.8683 9.8457 21.5218V21.4992V21.4983V20.9101C9.80258 20.9074 9.7617 20.8911 9.72971 20.8639C9.69773 20.8367 9.67653 20.8002 9.66958 20.7603V20.7593C9.25269 20.6849 8.87643 20.4772 8.60525 20.1716C8.33406 19.8661 8.18483 19.4818 8.18312 19.0846V18.3042C7.80753 18.4552 7.39525 18.5275 6.99413 18.5978C6.64074 18.6598 6.29602 18.7203 5.99269 18.8317C5.04536 19.1784 4.9302 19.6935 4.8932 19.859C4.88905 19.8776 4.88588 19.8917 4.88263 19.9008C4.87756 19.9147 4.87219 19.9289 4.86657 19.9439C4.78306 20.1662 4.64491 20.5341 4.61191 21.8765C4.60587 22.0649 4.61191 22.3536 5.21877 22.606C6.54017 23.0911 8.2425 23.2418 9.92067 23.3501H10.0817C11.7634 23.2428 13.4632 23.0925 14.7836 22.606C15.3879 22.355 15.3935 22.0677 15.3879 21.8774ZM8.00046 21.2934H7.37347V21.8826H6.92562V21.2953H6.29864V20.8761H6.92562V20.2893H7.37347V20.8761H8.00046V21.2934ZM26.3387 12.7576H16.8387V13.7408H26.3387V12.7576ZM16.8387 14.9779H26.3387V15.9611H16.8387V14.9779ZM26.3387 17.1983H16.8387V18.1815H26.3387V17.1983ZM16.8387 19.4184H26.3387V20.4016H16.8387V19.4184ZM26.3387 21.638H16.8387V22.6212H26.3387V21.638Z" fill="#0163BB"/>
</svg>
