<svg width="32" height="32" viewBox="0 0 32 32" fill="none" xmlns="http://www.w3.org/2000/svg">
<path d="M21.8792 7.87793L14.3777 14.9739L11.0958 11.8694L18.5973 4.77344L21.8792 7.87793Z" fill="#0163BB"/>
<path d="M22.0357 6.9915L19.5352 4.62617L21.2543 3C22.3795 3 23.4943 4.57689 23.9111 5.36533L22.0357 6.9915Z" fill="#0163BB"/>
<path d="M13.2839 14.8261L11.2754 12.9043L10.002 14.182C10.002 15.0183 11.2368 15.8469 11.8542 16.1566L13.2839 14.8261Z" fill="#0163BB"/>
<path d="M5.00006 20.0007C5.00006 19.8375 5.14 19.7051 5.31262 19.7051H14.0644C14.237 19.7051 14.3769 19.8375 14.3769 20.0007V21.1834C14.3769 21.3467 14.237 21.4791 14.0644 21.4791H5.31262C5.14 21.4791 5.00006 21.3467 5.00006 21.1834V20.0007Z" fill="#0163BB"/>
<path d="M19.9047 10.5518C20.9452 11.2307 21.8211 12.1114 22.4741 13.1353C23.1271 14.1591 23.5422 15.3027 23.6919 16.49C23.8416 17.6774 23.7225 18.8812 23.3424 20.0217C22.9624 21.1621 22.3301 22.2129 21.4876 23.1044C20.645 23.9958 19.6116 24.7074 18.4559 25.1919C17.3003 25.6764 16.0488 25.9227 14.7848 25.9144C13.5207 25.9061 12.273 25.6434 11.1246 25.1438C9.97612 24.6442 8.12649 23.5493 7.65766 22.0709L10.4707 22.0709C10.9395 22.6622 11.1881 22.8634 12.0508 23.2387C12.9135 23.6139 13.8507 23.8113 14.8002 23.8175C15.7497 23.8237 16.6897 23.6387 17.5578 23.2748C18.4258 22.9109 19.2021 22.3764 19.835 21.7068C20.4678 21.0371 20.9428 20.2478 21.2282 19.3912C21.5137 18.5346 21.6032 17.6303 21.4908 16.7384C21.3783 15.8465 21.0665 14.9875 20.576 14.2185C20.0855 13.4494 19.0664 12.5283 18.2848 12.0183L19.9047 10.5518Z" fill="#0163BB"/>
<path d="M7.03131 27.3922L7.81272 28.7227H23.1283L23.9097 27.3922C17.4084 25.2634 9.94856 26.5052 7.03131 27.3922Z" fill="#0163BB"/>
</svg>
