<svg width="32" height="32" viewBox="0 0 32 32" fill="none" xmlns="http://www.w3.org/2000/svg">
<path d="M18.3637 17.125C17.3788 17.125 16.5417 16.7969 15.8523 16.1406C15.1629 15.4844 14.8182 14.6875 14.8182 13.75C14.8182 12.8125 15.1629 12.0156 15.8523 11.3594C16.5417 10.7031 17.3788 10.375 18.3637 10.375C19.3485 10.375 20.1857 10.7031 20.8751 11.3594C21.5645 12.0156 21.9092 12.8125 21.9092 13.75C21.9092 14.6875 21.5645 15.4844 20.8751 16.1406C20.1857 16.7969 19.3485 17.125 18.3637 17.125ZM7.72733 20.5V7H29.0001V20.5H7.72733ZM12.4546 18.25H24.2728C24.2728 17.6313 24.5044 17.1018 24.9677 16.6615C25.431 16.2213 25.9872 16.0007 26.6364 16V11.5C25.9864 11.5 25.4302 11.2799 24.9677 10.8396C24.5052 10.3994 24.2736 9.8695 24.2728 9.25H12.4546C12.4546 9.86875 12.2234 10.3986 11.7609 10.8396C11.2984 11.2806 10.7418 11.5008 10.091 11.5V16C10.741 16 11.2976 16.2205 11.7609 16.6615C12.2242 17.1025 12.4554 17.632 12.4546 18.25ZM3.00006 25V10.375H5.3637V22.75H25.4546V25H3.00006Z" fill="#0163BB"/>
</svg>
