<svg width="32" height="32" viewBox="0 0 32 32" fill="none" xmlns="http://www.w3.org/2000/svg">
<path d="M5.25006 26C4.63131 26 4.10162 25.7811 3.661 25.3434C3.22037 24.9056 3.00006 24.3794 3.00006 23.7647H7.50006C6.88131 23.7647 6.35162 23.5458 5.911 23.1081C5.47037 22.6703 5.25006 22.1441 5.25006 21.5294V9.23529C5.25006 8.62059 5.47037 8.09436 5.911 7.65662C6.35162 7.21887 6.88131 7 7.50006 7H25.5001C26.1188 7 26.6485 7.21887 27.0891 7.65662C27.5297 8.09436 27.7501 8.62059 27.7501 9.23529V21.5294C27.7501 22.1441 27.5297 22.6703 27.0891 23.1081C26.6485 23.5458 26.1188 23.7647 25.5001 23.7647H30.0001C30.0001 24.3794 29.7798 24.9056 29.3391 25.3434C28.8985 25.7811 28.3688 26 27.7501 26H5.25006ZM16.5001 24.8824C16.8188 24.8824 17.086 24.7752 17.3016 24.561C17.5172 24.3468 17.6251 24.0814 17.6251 23.7647C17.6251 23.448 17.5172 23.1826 17.3016 22.9684C17.086 22.7542 16.8188 22.6471 16.5001 22.6471C16.1813 22.6471 15.9141 22.7542 15.6985 22.9684C15.4829 23.1826 15.3751 23.448 15.3751 23.7647C15.3751 24.0814 15.4829 24.3468 15.6985 24.561C15.9141 24.7752 16.1813 24.8824 16.5001 24.8824ZM7.50006 21.5294H25.5001V9.23529H7.50006V21.5294Z" fill="#0163BB"/>
<path d="M10.0001 19V14.3333H11.6501V19H10.0001ZM12.1751 19V12H13.8251V19H12.1751ZM14.3501 19V15.1111H16.0001V19H14.3501Z" fill="#0163BB"/>
<path d="M21.3031 15.7004V13C22.0253 13.0759 22.6352 13.3641 23.1326 13.8647C23.6301 14.3654 23.9193 14.9772 24.0001 15.7004H21.3031ZM20.7046 19C19.9369 18.9241 19.2943 18.6005 18.7766 18.0291C18.2589 17.4576 18.0001 16.7826 18.0001 16.0038C18.0001 15.22 18.2589 14.5424 18.7766 13.9709C19.2943 13.3995 19.9369 13.0759 20.7046 13V19ZM21.3031 19V16.2996H24.0001C23.9294 17.0228 23.6427 17.6359 23.1402 18.1391C22.6377 18.6422 22.0253 18.9292 21.3031 19Z" fill="#0163BB"/>
</svg>
