<svg width="32" height="32" viewBox="0 0 32 32" fill="none" xmlns="http://www.w3.org/2000/svg">
<path fill-rule="evenodd" clip-rule="evenodd" d="M14.7364 2.99976C8.68448 3.5804 3.83864 8.29021 3.05004 14.2783H6.66947C7.4979 14.2783 8.16947 14.9499 8.16947 15.7783C8.16947 16.6068 7.4979 17.2783 6.66947 17.2783H2.99936C3.60154 23.4759 8.53596 28.4051 14.7364 29V25.7432C14.7364 24.9148 15.408 24.2432 16.2364 24.2432C17.0648 24.2432 17.7364 24.9148 17.7364 25.7432V28.9459C23.7129 28.1519 28.4129 23.3173 28.9997 17.2783H25.3302C24.5017 17.2783 23.8302 16.6068 23.8302 15.7783C23.8302 14.9499 24.5017 14.2783 25.3302 14.2783H28.949C28.1811 8.44729 23.566 3.82839 17.7364 3.05393V6.25633C17.7364 7.08475 17.0648 7.75633 16.2364 7.75633C15.408 7.75633 14.7364 7.08475 14.7364 6.25633V2.99976ZM18.6783 12.8631C18.6783 12.8631 18.8779 14.8908 19.0489 14.7766C19.6208 14.3945 19.748 13.4017 19.748 12.0297C19.748 9.45165 16.4925 8.86926 15.3664 8.71881C13.9067 8.52378 13.6751 9.54537 13.5709 10.005C13.5433 10.1267 13.5247 10.209 13.4945 10.2189C11.1495 12.1239 12.9485 14.7766 12.9485 14.7766C12.9485 14.7766 13.2683 11.5773 14.4819 11.6487C16.7653 13.1727 18.6783 12.8631 18.6783 12.8631ZM11.8057 20.1262C11.8057 19.7126 12.0242 19.3502 12.3519 19.1486C12.3398 19.1027 12.3281 19.0547 12.3168 19.0055C12.2643 18.7756 12.2167 18.496 12.1817 18.2153C12.1493 17.9552 12.1269 17.6864 12.1225 17.4489C10.5132 18.082 9.13679 19.1853 9.13679 20.3439V22.4187H22.8625V20.3439C22.8625 19.2344 21.6003 18.1756 20.08 17.5319L20.0803 17.5424C20.0868 17.7755 20.0738 18.0428 20.0489 18.3003C20.0259 18.5385 19.992 18.7764 19.9513 18.9799H20.1936C20.3381 18.9799 20.4701 19.0617 20.5346 19.1911L20.9159 19.9553C20.9424 20.0083 20.9562 20.0668 20.9562 20.1262V20.8903C20.9562 21.1014 20.7855 21.2724 20.5749 21.2724H19.8124V20.5083H20.1936V20.2163L19.958 19.7441H18.9042L18.6686 20.2163V20.5083H19.0498V21.2724H18.2873C18.0767 21.2724 17.906 21.1014 17.906 20.8903V20.1262C17.906 20.0668 17.9198 20.0083 17.9463 19.9553L18.3275 19.1911C18.3921 19.0617 18.5241 18.9799 18.6686 18.9799H19.17C19.1783 18.9471 19.1867 18.9106 19.1951 18.8708C19.2333 18.6906 19.2671 18.4624 19.2899 18.2267C19.3127 17.9907 19.3235 17.7565 19.318 17.5638C19.3153 17.4673 19.3087 17.3871 19.2993 17.3254C19.291 17.2717 19.2827 17.2467 19.2808 17.241L19.2808 17.2409C19.2803 17.2396 19.2803 17.2395 19.2807 17.2404L19.282 17.2397C19.0782 17.1764 18.873 17.121 18.6686 17.0743C18.4769 17.0306 18.2787 17.295 18.1917 17.4606H16.6421H15.9578H15.2615H13.712C13.7021 17.4417 13.692 17.4215 13.6815 17.4007L13.6793 17.3962C13.5986 17.2349 13.499 17.0359 13.3308 17.0743C13.184 17.1078 13.0369 17.1458 12.8902 17.188C12.886 17.2446 12.8839 17.312 12.8844 17.3894C12.8857 17.6007 12.9059 17.8596 12.9384 18.1206C12.9708 18.3813 13.0144 18.6349 13.0601 18.8349C13.0734 18.893 13.0864 18.9447 13.0989 18.9896C13.66 19.0629 14.0933 19.5438 14.0933 20.1262C14.0933 20.7592 13.5812 21.2724 12.9495 21.2724C12.3178 21.2724 11.8057 20.7592 11.8057 20.1262ZM13.3308 20.1262C13.3308 20.3456 13.1548 20.5139 12.9495 20.5139C12.7442 20.5139 12.5682 20.3456 12.5682 20.1262C12.5682 19.9067 12.7442 19.7385 12.9495 19.7385C13.1548 19.7385 13.3308 19.9067 13.3308 20.1262Z" fill="#0163BB"/>
</svg>
