<svg width="32" height="32" viewBox="0 0 32 32" fill="none" xmlns="http://www.w3.org/2000/svg">
<path d="M25.0014 18.999C24.1175 18.9985 23.2586 19.2923 22.5601 19.834L19.6714 17.584C19.8895 17.0841 20.0018 16.5444 20.0014 15.999C20.0014 15.9065 20.0014 15.814 19.9914 15.7228L21.6451 15.1715C22.1683 15.9784 22.9647 16.5699 23.8885 16.8374C24.8122 17.105 25.8014 17.0308 26.6749 16.6285C27.5484 16.2261 28.2477 15.5225 28.6447 14.6466C29.0417 13.7707 29.1098 12.781 28.8365 11.8589C28.5633 10.9369 27.967 10.1441 27.1569 9.62585C26.3468 9.1076 25.3771 8.89857 24.4254 9.03705C23.4737 9.17553 22.6038 9.65224 21.975 10.3799C21.3461 11.1075 21.0005 12.0373 21.0014 12.999C21.0014 13.0915 21.0014 13.184 21.0114 13.2753L19.3576 13.8265C18.9951 13.2661 18.4981 12.8052 17.9119 12.486C17.3256 12.1668 16.6689 11.9994 16.0014 11.999C15.7807 11.9995 15.5604 12.0179 15.3426 12.054L14.4876 10.124C15.2259 9.53412 15.7315 8.70191 15.9148 7.77486C16.0981 6.84781 15.9472 5.88581 15.489 5.05936C15.0307 4.23291 14.2947 3.59538 13.4113 3.25977C12.5279 2.92417 11.5542 2.91216 10.6628 3.22587C9.77143 3.53959 9.01989 4.15877 8.5414 4.97367C8.06291 5.78856 7.88839 6.74655 8.04876 7.67784C8.20913 8.60912 8.69403 9.45356 9.41753 10.0615C10.141 10.6694 11.0564 11.0015 12.0014 10.999C12.2221 10.9985 12.4424 10.9802 12.6601 10.944L13.5151 12.869C12.7901 13.4429 12.2868 14.2507 12.0914 15.1545C11.8961 16.0583 12.0206 17.0019 12.4439 17.824L9.23013 20.679C8.42136 20.1338 7.4415 19.9022 6.47422 20.0278C5.50694 20.1533 4.61864 20.6273 3.97584 21.3609C3.33304 22.0945 2.97986 23.0374 2.9825 24.0128C2.98514 24.9882 3.34342 25.9291 3.99019 26.6592C4.63696 27.3894 5.52781 27.8585 6.49576 27.9788C7.4637 28.0991 8.4423 27.8623 9.2481 27.3127C10.0539 26.7631 10.6316 25.9384 10.8729 24.9934C11.1142 24.0483 11.0026 23.0476 10.5589 22.179L13.7726 19.324C14.4685 19.7925 15.2943 20.0297 16.1327 20.0019C16.9711 19.9741 17.7794 19.6826 18.4426 19.169L21.3314 21.419C21.114 21.9174 21.0016 22.4553 21.0014 22.999C21.0014 23.7901 21.236 24.5635 21.6755 25.2213C22.115 25.8791 22.7397 26.3918 23.4706 26.6945C24.2015 26.9973 25.0058 27.0765 25.7817 26.9221C26.5577 26.7678 27.2704 26.3868 27.8298 25.8274C28.3892 25.268 28.7702 24.5553 28.9245 23.7794C29.0789 23.0034 28.9996 22.1992 28.6969 21.4683C28.3941 20.7374 27.8815 20.1127 27.2237 19.6731C26.5659 19.2336 25.7925 18.999 25.0014 18.999ZM25.0014 10.999C25.3969 10.999 25.7836 11.1163 26.1125 11.3361C26.4414 11.5558 26.6978 11.8682 26.8491 12.2336C27.0005 12.5991 27.0401 13.0012 26.9629 13.3892C26.8858 13.7772 26.6953 14.1335 26.4156 14.4132C26.1359 14.6929 25.7795 14.8834 25.3916 14.9606C25.0036 15.0377 24.6015 14.9981 24.236 14.8468C23.8706 14.6954 23.5582 14.439 23.3384 14.1101C23.1187 13.7812 23.0014 13.3946 23.0014 12.999C23.0014 12.4686 23.2121 11.9599 23.5872 11.5848C23.9622 11.2097 24.4709 10.999 25.0014 10.999ZM10.0014 6.99901C10.0014 6.60345 10.1187 6.21677 10.3384 5.88787C10.5582 5.55897 10.8706 5.30262 11.236 5.15125C11.6015 4.99987 12.0036 4.96027 12.3916 5.03744C12.7795 5.11461 13.1359 5.30509 13.4156 5.5848C13.6953 5.8645 13.8858 6.22087 13.9629 6.60883C14.0401 6.99679 14.0005 7.39892 13.8491 7.76438C13.6978 8.12983 13.4414 8.44218 13.1125 8.66195C12.7836 8.88171 12.3969 8.99901 12.0014 8.99901C11.4709 8.99901 10.9622 8.78829 10.5872 8.41322C10.2121 8.03815 10.0014 7.52944 10.0014 6.99901ZM7.00138 25.999C6.60582 25.999 6.21914 25.8817 5.89024 25.6619C5.56134 25.4422 5.30499 25.1298 5.15362 24.7644C5.00224 24.3989 4.96264 23.9968 5.03981 23.6088C5.11698 23.2209 5.30746 22.8645 5.58716 22.5848C5.86687 22.3051 6.22324 22.1146 6.6112 22.0374C6.99916 21.9603 7.40129 21.9999 7.76675 22.1512C8.1322 22.3026 8.44455 22.559 8.66432 22.8879C8.88408 23.2168 9.00138 23.6034 9.00138 23.999C9.00138 24.5294 8.79066 25.0381 8.41559 25.4132C8.04052 25.7883 7.53181 25.999 7.00138 25.999ZM25.0014 24.999C24.6058 24.999 24.2191 24.8817 23.8902 24.6619C23.5613 24.4422 23.305 24.1298 23.1536 23.7644C23.0022 23.3989 22.9626 22.9968 23.0398 22.6088C23.117 22.2209 23.3075 21.8645 23.5872 21.5848C23.8669 21.3051 24.2232 21.1146 24.6112 21.0374C24.9992 20.9603 25.4013 20.9999 25.7667 21.1512C26.1322 21.3026 26.4446 21.559 26.6643 21.8879C26.8841 22.2168 27.0014 22.6034 27.0014 22.999C27.0014 23.5294 26.7907 24.0381 26.4156 24.4132C26.0405 24.7883 25.5318 24.999 25.0014 24.999Z" fill="#0163BB"/>
</svg>
