<svg width="32" height="32" viewBox="0 0 32 32" fill="none" xmlns="http://www.w3.org/2000/svg">
<path d="M15.3343 5C12.0003 5 8.80285 6.38455 6.44537 8.84879L10.7241 13.3205C11.947 12.0422 13.6048 11.3241 15.3343 11.3241V5Z" fill="#74BDF9"/>
<path d="M16.6659 5C19.9998 5 23.1973 6.38455 25.5547 8.84879L21.276 13.3205C20.0532 12.0422 18.3953 11.3241 16.6659 11.3241V5Z" fill="#4B93CF"/>
<path d="M5.70052 9.16016C3.33116 11.7348 2.00006 15.2264 2.00006 18.8674H8.08053C8.08053 16.9787 8.771 15.1673 10.0001 13.8318L5.70052 9.16016Z" fill="#ACD9FF"/>
<path d="M26.2996 9.16016C28.669 11.7348 30.0001 15.2264 30.0001 18.8674H23.9196C23.9196 16.9787 23.2291 15.1673 22.0001 13.8318L26.2996 9.16016Z" fill="#1A5B91"/>
<path d="M15.9625 16.4843C15.7416 16.3517 15.6639 16.0615 15.789 15.8362L18.0989 11.675L20.3524 8.57625L18.8988 12.1554L16.5889 16.3166C16.4639 16.5419 16.1834 16.6169 15.9625 16.4843Z" fill="#0A4271"/>
<path fill-rule="evenodd" clip-rule="evenodd" d="M13.9763 21.1668C13.3732 21.0002 12.1583 20.5331 12.1583 19.4735C12.1583 18.0645 13.8115 16.1282 13.8115 16.1282C13.8115 16.1282 14.3498 15.1691 15.8641 15.1691C17.3781 15.1691 18.1519 16.1282 18.1519 16.1282C18.1519 16.1282 19.2287 17.3838 19.2287 19.4735C19.2287 20.5504 18.6213 20.9874 18.0326 21.1585C17.5543 21.75 16.8168 22.125 16.0009 22.125C15.1887 22.125 14.4549 21.7538 13.9763 21.1668ZM14.1546 20.2582C14.4386 20.9692 15.1481 21.4859 16.0006 21.4859C16.351 21.4859 16.6772 21.3983 16.9597 21.2461L16.9407 21.2439C16.9407 21.2439 18.7784 19.3997 17.2306 17.0874C17.0624 16.7623 14.5014 17.567 14.1564 18.0466C13.9492 18.3344 14.0452 19.4294 14.1549 20.2582" fill="#0163BB"/>
<path d="M12.905 24.2634C12.7195 24.3816 12.5802 24.5641 12.5115 24.7788C12.4429 24.9935 12.4495 25.2264 12.53 25.4366C12.6106 25.6467 12.76 25.8204 12.9518 25.9271C13.1435 26.0338 13.3654 26.0666 13.5782 26.0196C13.7909 25.9726 13.9809 25.849 14.1145 25.6705C14.2481 25.4919 14.3167 25.2701 14.3082 25.044C14.2998 24.818 14.2148 24.6023 14.0683 24.4351C13.9217 24.268 13.7231 24.16 13.5075 24.1304C13.496 24.0875 13.4854 24.0443 13.4758 24.0009C13.434 23.8034 13.4011 23.6038 13.3775 23.403C13.352 23.2001 13.3377 22.9957 13.3344 22.7911C13.3339 22.7349 13.3355 22.6787 13.339 22.6226C13.4573 22.5872 13.5756 22.5555 13.6941 22.5276C13.8297 22.4956 13.9102 22.6619 13.9751 22.7968L13.9784 22.8039L14.0015 22.8509H17.6133C17.6837 22.7121 17.8432 22.4909 17.9978 22.5276C18.163 22.5666 18.3279 22.6128 18.4925 22.6661L18.4915 22.6664C18.4909 22.6657 18.4909 22.666 18.4915 22.667C18.4928 22.6715 18.4995 22.6926 18.5063 22.7374C18.5141 22.7894 18.5192 22.856 18.5217 22.9372C18.526 23.0983 18.5171 23.2943 18.4989 23.4919C18.4805 23.6892 18.4531 23.8801 18.4224 24.0307C18.4156 24.0641 18.4089 24.0946 18.4021 24.1221H17.9978C17.9408 24.1221 17.8848 24.1387 17.8363 24.1699C17.7878 24.2011 17.7485 24.2458 17.723 24.2989L17.4156 24.9384C17.3942 24.9827 17.3831 25.0317 17.383 25.0813V25.7207C17.383 25.8055 17.4154 25.8868 17.4731 25.9468C17.5307 26.0068 17.6089 26.0405 17.6904 26.0405H18.3053V25.401H17.9978V25.1567L18.1878 24.7615H19.0375L19.2275 25.1567V25.401H18.9201V26.0405H19.5349C19.6164 26.0405 19.6946 26.0068 19.7523 25.9468C19.8099 25.8868 19.8423 25.8055 19.8423 25.7207V25.0813C19.8423 25.0317 19.8311 24.9827 19.8097 24.9384L19.5023 24.2989C19.4768 24.2458 19.4376 24.2011 19.389 24.1699C19.3405 24.1387 19.2846 24.1221 19.2275 24.1221H19.032C19.0649 23.9517 19.0922 23.7528 19.1107 23.5533C19.131 23.3378 19.1414 23.1143 19.1362 22.9193L19.1359 22.9103C20.3618 23.4491 21.3794 24.335 21.3794 25.2635V26.9996H10.3126V25.2635C10.3126 24.2941 11.4223 23.3707 12.7199 22.841C12.7233 23.0398 12.7414 23.2646 12.7675 23.4823C12.7958 23.7173 12.8343 23.951 12.8767 24.1435C12.8859 24.1847 12.8953 24.2246 12.905 24.2634Z" fill="#0163BB"/>
<path d="M13.3856 25.4031C13.551 25.4031 13.693 25.2624 13.693 25.0786C13.693 24.895 13.551 24.754 13.3856 24.754C13.2202 24.754 13.0782 24.8947 13.0782 25.0786C13.0782 25.2621 13.2202 25.4031 13.3856 25.4031Z" fill="#0163BB"/>
</svg>
