<svg width="32" height="32" viewBox="0 0 32 32" fill="none" xmlns="http://www.w3.org/2000/svg">
<path d="M16 3C14.5917 3 13.3638 4.22953 13.3638 5.85514C13.3638 7.48075 14.5917 8.71028 16 8.71028C17.4084 8.71028 18.6363 7.48075 18.6363 5.85514C18.6363 4.22953 17.4084 3 16 3ZM6.14851 4.33244L5.00006 4.84855C6.00838 6.19393 7.17752 7.70448 8.36362 9.03692C9.69572 10.5334 11.0641 11.7735 11.946 12.1698L12.2823 12.3209V14.7191C14.1161 14.9383 15.4265 15.0218 16.8703 14.9676C16.8257 14.9378 16.7814 14.9081 16.7385 14.8777C16.4063 14.642 16.118 14.3792 15.8936 14.0967C15.4968 14.0611 15.1786 13.831 14.9883 13.5712C14.7813 13.2888 14.6794 12.9491 14.6794 12.5834C14.6794 12.2177 14.7813 11.878 14.9883 11.5954C15.1954 11.3129 15.5537 11.0647 16 11.0647C16.4464 11.0647 16.8046 11.3128 17.0117 11.5954C17.2188 11.878 17.3206 12.2177 17.3206 12.5834C17.3206 12.9491 17.2188 13.2888 17.0117 13.5713C17.0077 13.577 17.0029 13.5825 16.9988 13.5881C17.1285 13.7314 17.2918 13.8772 17.4924 14.0194C17.9171 14.3209 18.4875 14.5941 19.1654 14.7885C19.3445 14.7688 19.5281 14.7478 19.7178 14.7253V12.3209L20.0541 12.1698C20.9361 11.7734 22.3043 10.5333 23.6365 9.03686C24.8225 7.70442 25.9917 6.19387 27.0001 4.84849L25.8516 4.33238C22.6965 7.15648 19.5009 9.80374 16 9.80374C12.4991 9.80374 9.30353 7.15648 6.14851 4.33244ZM8.11514 15.2628L8.93656 18.954C15.7676 19.5227 16.2325 19.5227 23.0635 18.954L23.8846 15.2645C16.4437 16.3245 15.5554 16.3072 8.11514 15.2628ZM10.7679 20.2037L11.6703 26.6915H20.3299L21.2322 20.2037C16.6519 20.5701 15.3482 20.5701 10.7679 20.2037ZM7.95615 27.785V29H24.0439V27.785H7.95615Z" fill="#0163BB"/>
</svg>
