<svg width="32" height="32" viewBox="0 0 32 32" fill="none" xmlns="http://www.w3.org/2000/svg">
<path d="M12.2748 16.5048L12.3901 16.4952C12.4319 16.4908 12.4718 16.4762 12.5062 16.4526L12.5054 16.4534C12.6157 16.8248 12.7508 17.2154 12.9196 17.6246C13.1362 18.16 13.3495 18.5997 13.5883 19.0241L13.5554 18.9598C13.5356 19.2524 13.5117 19.553 13.4804 19.844C13.4664 20.0157 13.4307 20.185 13.3742 20.3481L13.3783 20.3336C13.3684 20.3376 13.3544 22.0056 13.3544 22.0056C13.355 22.5231 13.5338 23.0254 13.8621 23.4317C14.1904 23.838 14.6491 24.1248 15.1646 24.246L15.181 24.2492C15.2035 24.1909 15.2438 24.1407 15.2963 24.1054C15.3489 24.07 15.4112 24.0512 15.475 24.0514H15.9477C16.0109 24.0523 16.0723 24.0712 16.1245 24.106C16.1766 24.1407 16.2171 24.1897 16.2409 24.2468L16.2417 24.2492C16.7615 24.1315 17.2253 23.8462 17.5584 23.4394C17.8915 23.0325 18.0743 22.528 18.0774 22.0072C18.0774 22.0072 18.0486 20.3456 18.0338 20.3344C17.9839 20.1792 17.9502 20.0195 17.9333 19.8577L17.9325 19.8456C17.9036 19.553 17.8847 19.2596 17.8575 18.9614C18.0609 18.6029 18.2742 18.164 18.462 17.7114L18.4933 17.6262C18.6621 17.217 18.7931 16.8272 18.9075 16.455C18.9414 16.4783 18.9808 16.493 19.022 16.4976H19.0228L19.1389 16.5072C19.2789 16.5217 19.4025 16.4092 19.414 16.2347L19.5392 14.6825V14.6809C19.5391 14.6184 19.5157 14.5581 19.4735 14.5112C19.4312 14.4643 19.3729 14.434 19.3094 14.426H19.2938C19.4045 13.6178 19.3366 12.7957 19.0945 12.0153L19.1052 12.0563C18.8729 11.5528 18.5196 11.1115 18.0753 10.7698C17.631 10.428 17.1088 10.196 16.553 10.0932L16.5316 10.09C16.2621 10.0379 15.9885 10.0078 15.7139 10H15.6966C15.4092 10.0051 15.123 10.0368 14.8417 10.0949L14.8714 10.09C14.316 10.191 13.7935 10.4202 13.3473 10.7585C12.9012 11.0967 12.5445 11.5343 12.3069 12.0346L12.2978 12.0563C12.0608 12.8339 11.9976 13.6522 12.1125 14.4558L12.1093 14.426C12.0456 14.4328 11.9868 14.4621 11.9439 14.5086C11.9011 14.555 11.8773 14.6152 11.877 14.6776V14.6833L12.0022 16.2355C12.0137 16.414 12.1389 16.5217 12.274 16.5072L12.2748 16.5048Z" fill="#0163BB"/>
<path d="M24.4128 26.6223C24.3559 24.312 24.1087 23.7891 23.9754 23.435C23.9225 23.2929 23.8795 22.3323 22.1818 21.7091C21.1411 21.326 19.798 21.3184 18.6614 20.8693V22.1187C18.6605 22.7593 18.4212 23.3796 17.9844 23.8733C17.5477 24.367 16.9408 24.7032 16.2678 24.8242L16.2491 24.8273C16.2369 24.8947 16.1998 24.9559 16.1442 25.0004C16.0887 25.0448 16.0181 25.0696 15.945 25.0705H15.9304V26.0128C15.9304 26.455 16.1183 26.8792 16.4528 27.1918C16.7874 27.5045 17.2411 27.6802 17.7142 27.6802C18.1873 27.6802 18.641 27.5045 18.9755 27.1918C19.3101 26.8792 19.498 26.455 19.498 26.0128V25.3547C19.2524 25.321 19.0286 25.2044 18.8688 25.0269C18.709 24.8494 18.6244 24.6233 18.6309 24.3915C18.6374 24.1596 18.7346 23.9379 18.9041 23.7685C19.0736 23.599 19.3036 23.4935 19.5507 23.4719C19.7978 23.4503 20.0448 23.5141 20.245 23.6512C20.4452 23.7884 20.5846 23.9893 20.637 24.2161C20.6894 24.4428 20.6511 24.6796 20.5293 24.8817C20.4075 25.0839 20.2107 25.2372 19.9761 25.3129L19.9687 25.3152V26.0485C19.9687 26.6077 19.7311 27.1439 19.3082 27.5392C18.8852 27.9346 18.3115 28.1567 17.7134 28.1567C17.1152 28.1567 16.5416 27.9346 16.1186 27.5392C15.6956 27.1439 15.458 26.6077 15.458 26.0485V26.0105V26.0121V25.0613C15.3883 25.057 15.3223 25.0308 15.2706 24.9869C15.2189 24.943 15.1847 24.8841 15.1734 24.8197V24.8181C14.4999 24.6981 13.8919 24.3628 13.4538 23.8698C13.0156 23.3767 12.7745 22.7566 12.7717 22.1157V20.8564C11.6302 21.3147 10.279 21.3238 9.23258 21.7076C7.53008 22.33 7.49105 23.2883 7.43902 23.4327C7.30893 23.7884 7.05852 24.309 7.0016 26.6208C6.99185 26.9248 7.0016 27.3907 7.98213 27.798C10.1172 28.5808 12.8677 28.824 15.5792 28.9988H15.8393C18.5565 28.8255 21.3029 28.5831 23.4363 27.798C24.4128 27.3929 24.4217 26.9294 24.4128 26.6223ZM12.4766 25.68H11.4636V26.6307H10.74V25.683H9.72691V25.0066H10.74V24.0597H11.4636V25.0066H12.4766V25.68Z" fill="#0163BB"/>
<path d="M7.95631 11L8.36256 9.15132L7.00006 7.90789L8.80006 7.74342L9.50006 6L10.2001 7.74342L12.0001 7.90789L10.6376 9.15132L11.0438 11L9.50006 10.0197L7.95631 11Z" fill="#0163BB"/>
<path d="M13.9563 8L14.3626 6.15132L13.0001 4.90789L14.8001 4.74342L15.5001 3L16.2001 4.74342L18.0001 4.90789L16.6376 6.15132L17.0438 8L15.5001 7.01974L13.9563 8Z" fill="#0163BB"/>
<path d="M19.9563 11L20.3626 9.15132L19.0001 7.90789L20.8001 7.74342L21.5001 6L22.2001 7.74342L24.0001 7.90789L22.6376 9.15132L23.0438 11L21.5001 10.0197L19.9563 11Z" fill="#0163BB"/>
</svg>
