<svg width="32" height="32" viewBox="0 0 32 32" fill="none" xmlns="http://www.w3.org/2000/svg">
<path d="M10.6661 16.0693C13.3261 16.0693 15.3327 14.0626 15.3327 11.4026C15.3327 8.74265 13.3261 6.73598 10.6661 6.73598C8.00608 6.73598 5.99941 8.74265 5.99941 11.4026C5.99941 14.0626 8.00608 16.0693 10.6661 16.0693ZM11.9994 17.3333H9.33274C5.65674 17.3333 2.66608 20.324 2.66608 24V25.3333H18.6661V24C18.6661 20.324 15.6754 17.3333 11.9994 17.3333ZM24.4847 3.51465L22.5994 5.39998C24.3607 7.16398 25.3327 9.50798 25.3327 12C25.3327 14.492 24.3607 16.836 22.5994 18.6L24.4847 20.4853C26.7514 18.2173 27.9994 15.204 27.9994 12C27.9994 8.79598 26.7514 5.78265 24.4847 3.51465Z" fill="#0163BB"/>
<path d="M20.7134 7.28534L18.8281 9.17334C19.5841 9.92667 20.0001 10.9307 20.0001 12C20.0001 13.0693 19.5841 14.0733 18.8281 14.8267L20.7134 16.7147C21.9721 15.456 22.6667 13.7827 22.6667 12C22.6667 10.2173 21.9721 8.54401 20.7134 7.28534Z" fill="#0163BB"/>
</svg>
