<svg width="32" height="32" viewBox="0 0 32 32" fill="none" xmlns="http://www.w3.org/2000/svg">
<path fill-rule="evenodd" clip-rule="evenodd" d="M24.6882 10.6366C25.0065 10.5715 25.3114 10.4702 25.5986 10.3372C26.2508 11.7062 26.6156 13.2369 26.6156 14.8523C26.6156 15.0464 26.6103 15.2393 26.5999 15.4308C26.3195 15.1838 26.0052 14.974 25.6649 14.809C25.6582 13.3128 25.3079 11.8973 24.6882 10.6366ZM16.0002 4.29492C17.4098 4.29492 18.7553 4.56818 19.9859 5.06433C19.8691 5.35645 19.7849 5.66496 19.7376 5.98542C18.5879 5.50553 17.3252 5.24036 16.0002 5.24036C15.0037 5.24036 14.0425 5.39034 13.138 5.66886C13.0738 5.35536 12.9774 5.05349 12.8525 4.76679C13.8471 4.4601 14.9043 4.29492 16.0002 4.29492ZM7.16551 10.9492C6.86126 10.8491 6.57103 10.7185 6.29851 10.5608C5.71124 11.872 5.38483 13.3243 5.38483 14.8523C5.38483 15.1927 5.40102 15.5293 5.43269 15.8614C5.70729 15.6244 6.01348 15.4227 6.34413 15.2632C6.33837 15.127 6.33546 14.99 6.33546 14.8523C6.33546 13.4627 6.63197 12.1419 7.16551 10.9492ZM12.9049 24.9538C11.5398 24.5406 10.2913 23.8612 9.22053 22.9764C9.5776 22.8823 9.91581 22.7421 10.2283 22.5626C10.8952 23.0572 11.6285 23.4683 12.4124 23.7801C12.5119 24.2018 12.6802 24.5972 12.9049 24.9538ZM19.6725 24.7609C20.993 24.2767 22.1901 23.5388 23.2041 22.6066C22.8258 22.5481 22.4645 22.4389 22.1273 22.2862C21.5096 22.7904 20.8279 23.2199 20.0962 23.5609C20.021 23.9889 19.8757 24.393 19.6725 24.7609Z" fill="#0163BB"/>
<path fill-rule="evenodd" clip-rule="evenodd" d="M18.596 22.3299C18.596 22.9737 18.3227 23.5912 17.8361 24.0464C17.3496 24.5017 16.6897 24.7574 16.0016 24.7574C15.3135 24.7574 14.6536 24.5017 14.167 24.0464C13.6805 23.5912 13.4071 22.9737 13.4071 22.3299C13.4071 21.6861 13.6805 21.0686 14.167 20.6134C14.6536 20.1581 15.3135 19.9023 16.0016 19.9023C16.6897 19.9023 17.3496 20.1581 17.8361 20.6134C18.3227 21.0686 18.596 21.6861 18.596 22.3299ZM16.0007 26.0685C15.0071 26.0686 14.0457 26.398 13.2869 26.9982C12.5282 27.5984 12.0211 28.4306 11.8557 29.3473C11.7927 29.7043 12.113 30.0007 12.5 30.0007H19.5031C19.8901 30.0007 20.2105 29.7043 20.1475 29.3473C19.982 28.4303 19.4746 27.5979 18.7155 26.9977C17.9564 26.3974 16.9945 26.0682 16.0007 26.0685Z" fill="#0163BB"/>
<path d="M11.3854 18.9836C11.3854 20.7582 9.93896 22.1967 8.15466 22.1967C6.37035 22.1967 4.92389 20.7582 4.92389 18.9836C4.92389 17.2091 6.37035 15.7705 8.15466 15.7705C9.93896 15.7705 11.3854 17.2091 11.3854 18.9836Z" fill="#0163BB"/>
<path d="M11.8464 6.59007C11.8464 8.36462 10.3999 9.80318 8.6156 9.80318C6.83129 9.80318 5.38483 8.36462 5.38483 6.59007C5.38483 4.81551 6.83129 3.37695 8.6156 3.37695C10.3999 3.37695 11.8464 4.81551 11.8464 6.59007Z" fill="#0163BB"/>
<path d="M27.0768 6.59007C27.0768 8.36462 25.6304 9.80318 23.8461 9.80318C22.0618 9.80318 20.6153 8.36462 20.6153 6.59007C20.6153 4.81551 22.0618 3.37695 23.8461 3.37695C25.6304 3.37695 27.0768 4.81551 27.0768 6.59007Z" fill="#0163BB"/>
<path d="M27.0768 18.5246C27.0768 20.2992 25.6304 21.7378 23.8461 21.7378C22.0618 21.7378 20.6153 20.2992 20.6153 18.5246C20.6153 16.7501 22.0618 15.3115 23.8461 15.3115C25.6304 15.3115 27.0768 16.7501 27.0768 18.5246Z" fill="#0163BB"/>
<path d="M18.3088 9.80289C18.3088 11.0704 17.2756 12.098 16.0011 12.098C14.7266 12.098 13.6934 11.0704 13.6934 9.80289C13.6934 8.53536 14.7266 7.50781 16.0011 7.50781C17.2756 7.50781 18.3088 8.53536 18.3088 9.80289Z" fill="#0163BB"/>
<path d="M21.8576 14.172C21.8576 15.4396 20.8244 16.4671 19.5499 16.4671C18.2754 16.4671 17.2422 15.4396 17.2422 14.172C17.2422 12.9045 18.2754 11.877 19.5499 11.877C20.8244 11.877 21.8576 12.9045 21.8576 14.172Z" fill="#0163BB"/>
<path d="M14.4084 14.172C14.4084 15.4396 13.3752 16.4671 12.1007 16.4671C10.8262 16.4671 9.79303 15.4396 9.79303 14.172C9.79303 12.9045 10.8262 11.877 12.1007 11.877C13.3752 11.877 14.4084 12.9045 14.4084 14.172Z" fill="#0163BB"/>
<path fill-rule="evenodd" clip-rule="evenodd" d="M9.01902 18.0302C9.01902 18.2643 8.92791 18.4889 8.76573 18.6544C8.60354 18.8199 8.38357 18.9129 8.15421 18.9129C7.92484 18.9129 7.70487 18.8199 7.54269 18.6544C7.38051 18.4889 7.28939 18.2643 7.28939 18.0302C7.28939 17.7961 7.38051 17.5716 7.54269 17.406C7.70487 17.2405 7.92484 17.1475 8.15421 17.1475C8.38357 17.1475 8.60354 17.2405 8.76573 17.406C8.92791 17.5716 9.01902 17.7961 9.01902 18.0302ZM8.15391 19.3897C7.82272 19.3897 7.50225 19.5095 7.24933 19.7278C6.99641 19.946 6.82739 20.2487 6.77224 20.582C6.75124 20.7118 6.85803 20.8196 6.98702 20.8196H9.3214C9.45038 20.8196 9.55717 20.7118 9.53617 20.582C9.48101 20.2485 9.3119 19.9458 9.05886 19.7276C8.80581 19.5093 8.4852 19.3896 8.15391 19.3897Z" fill="white"/>
<path fill-rule="evenodd" clip-rule="evenodd" d="M9.48191 5.63665C9.48191 5.87077 9.3908 6.0953 9.22862 6.26085C9.06643 6.42639 8.84646 6.5194 8.6171 6.5194C8.38773 6.5194 8.16777 6.42639 8.00558 6.26085C7.8434 6.0953 7.75228 5.87077 7.75228 5.63665C7.75228 5.40253 7.8434 5.178 8.00558 5.01246C8.16777 4.84691 8.38773 4.75391 8.6171 4.75391C8.84646 4.75391 9.06643 4.84691 9.22862 5.01246C9.3908 5.178 9.48191 5.40253 9.48191 5.63665ZM8.6168 6.99613C8.28561 6.99619 7.96514 7.11596 7.71222 7.33422C7.4593 7.55247 7.29028 7.8551 7.23513 8.18843C7.21413 8.31826 7.32092 8.42604 7.44991 8.42604H9.78429C9.91327 8.42604 10.0201 8.31826 9.99906 8.18843C9.9439 7.855 9.77479 7.55229 9.52175 7.33402C9.2687 7.11575 8.94809 6.99604 8.6168 6.99613Z" fill="white"/>
<path fill-rule="evenodd" clip-rule="evenodd" d="M24.7124 5.63665C24.7124 5.87077 24.6213 6.0953 24.4591 6.26085C24.2969 6.42639 24.0769 6.5194 23.8476 6.5194C23.6182 6.5194 23.3982 6.42639 23.236 6.26085C23.0739 6.0953 22.9828 5.87077 22.9828 5.63665C22.9828 5.40253 23.0739 5.178 23.236 5.01246C23.3982 4.84691 23.6182 4.75391 23.8476 4.75391C24.0769 4.75391 24.2969 4.84691 24.4591 5.01246C24.6213 5.178 24.7124 5.40253 24.7124 5.63665ZM23.8473 6.99613C23.5161 6.99619 23.1956 7.11596 22.9427 7.33422C22.6898 7.55247 22.5208 7.8551 22.4656 8.18843C22.4446 8.31826 22.5514 8.42604 22.6804 8.42604H25.0148C25.1437 8.42604 25.2505 8.31826 25.2295 8.18843C25.1744 7.855 25.0053 7.55229 24.7522 7.33402C24.4992 7.11575 24.1786 6.99604 23.8473 6.99613Z" fill="white"/>
<path fill-rule="evenodd" clip-rule="evenodd" d="M24.7124 17.5712C24.7124 17.8053 24.6213 18.0299 24.4591 18.1954C24.2969 18.361 24.0769 18.454 23.8476 18.454C23.6182 18.454 23.3982 18.361 23.236 18.1954C23.0739 18.0299 22.9828 17.8053 22.9828 17.5712C22.9828 17.3371 23.0739 17.1126 23.236 16.947C23.3982 16.7815 23.6182 16.6885 23.8476 16.6885C24.0769 16.6885 24.2969 16.7815 24.4591 16.947C24.6213 17.1126 24.7124 17.3371 24.7124 17.5712ZM23.8473 18.9307C23.5161 18.9308 23.1956 19.0505 22.9427 19.2688C22.6898 19.487 22.5208 19.7897 22.4656 20.123C22.4446 20.2528 22.5514 20.3606 22.6804 20.3606H25.0148C25.1437 20.3606 25.2505 20.2528 25.2295 20.123C25.1744 19.7896 25.0053 19.4869 24.7522 19.2686C24.4992 19.0503 24.1786 18.9306 23.8473 18.9307Z" fill="white"/>
<path d="M12.4042 13.97L13.3122 12.7949H12.9069L12.214 13.6923L11.5992 12.7949H10.717L11.7464 14.2973L10.779 15.549H11.1843L11.9366 14.5754L12.604 15.549H13.4862L12.4042 13.97ZM12.0904 14.3762L11.8999 14.0982L11.1601 13.019H11.4647L12.0618 13.8888L12.2521 14.167L13.0457 15.325H12.741L12.0904 14.3762Z" fill="white"/>
<path d="M18.9692 12.7949H20.1322C20.5753 12.7949 20.9353 13.153 20.9353 13.5936V14.7503C20.9353 14.9622 20.8507 15.1653 20.7001 15.3151C20.5495 15.4649 20.3452 15.549 20.1322 15.549H18.9692C18.5261 15.549 18.1661 15.191 18.1661 14.7503V13.5936C18.1661 13.3818 18.2507 13.1786 18.4013 13.0289C18.5519 12.8791 18.7562 12.7949 18.9692 12.7949ZM18.9415 13.0703C18.8093 13.0703 18.6825 13.1226 18.589 13.2155C18.4955 13.3085 18.443 13.4346 18.443 13.5661V14.7779C18.443 15.0519 18.6659 15.2736 18.9415 15.2736H20.1599C20.2921 15.2736 20.4189 15.2214 20.5124 15.1284C20.6059 15.0354 20.6584 14.9094 20.6584 14.7779V13.5661C20.6584 13.292 20.4355 13.0703 20.1599 13.0703H18.9415ZM20.2776 13.2769C20.3235 13.2769 20.3675 13.295 20.4 13.3273C20.4325 13.3596 20.4507 13.4034 20.4507 13.449C20.4507 13.4947 20.4325 13.5385 20.4 13.5707C20.3675 13.603 20.3235 13.6212 20.2776 13.6212C20.2317 13.6212 20.1877 13.603 20.1552 13.5707C20.1228 13.5385 20.1045 13.4947 20.1045 13.449C20.1045 13.4034 20.1228 13.3596 20.1552 13.3273C20.1877 13.295 20.2317 13.2769 20.2776 13.2769ZM19.5507 13.4834C19.7343 13.4834 19.9104 13.556 20.0402 13.6851C20.1701 13.8142 20.243 13.9894 20.243 14.172C20.243 14.3546 20.1701 14.5297 20.0402 14.6588C19.9104 14.788 19.7343 14.8605 19.5507 14.8605C19.3671 14.8605 19.191 14.788 19.0612 14.6588C18.9313 14.5297 18.8584 14.3546 18.8584 14.172C18.8584 13.9894 18.9313 13.8142 19.0612 13.6851C19.191 13.556 19.3671 13.4834 19.5507 13.4834ZM19.5507 13.7589C19.4405 13.7589 19.3349 13.8024 19.257 13.8799C19.1791 13.9573 19.1353 14.0624 19.1353 14.172C19.1353 14.2815 19.1791 14.3866 19.257 14.4641C19.3349 14.5416 19.4405 14.5851 19.5507 14.5851C19.6609 14.5851 19.7665 14.5416 19.8444 14.4641C19.9223 14.3866 19.9661 14.2815 19.9661 14.172C19.9661 14.0624 19.9223 13.9573 19.8444 13.8799C19.7665 13.8024 19.6609 13.7589 19.5507 13.7589Z" fill="white"/>
<path fill-rule="evenodd" clip-rule="evenodd" d="M15.7846 9.11382C15.7694 9.10474 15.7521 9.09984 15.7344 9.09962C15.7166 9.09939 15.6991 9.10385 15.6837 9.11254C15.6683 9.12122 15.6554 9.13383 15.6465 9.14906C15.6376 9.1643 15.6329 9.18162 15.6329 9.19925V9.99646C15.6329 10.0141 15.6376 10.0314 15.6465 10.0466C15.6554 10.0619 15.6683 10.0745 15.6837 10.0832C15.6991 10.0919 15.7166 10.0963 15.7344 10.0961C15.7521 10.0959 15.7694 10.091 15.7846 10.0819L16.4526 9.68329C16.4675 9.67443 16.4797 9.66191 16.4882 9.64694C16.4968 9.63197 16.5012 9.61506 16.5012 9.59786C16.5012 9.58065 16.4968 9.56374 16.4882 9.54877C16.4797 9.5338 16.4675 9.52128 16.4526 9.51242L15.7846 9.11382ZM16.2063 9.59786L15.8333 9.82041V9.3753L16.2063 9.59786Z" fill="white"/>
<path fill-rule="evenodd" clip-rule="evenodd" d="M16.6719 8.61985C16.2246 8.58505 15.7752 8.58505 15.3279 8.61985L15.0285 8.64323C14.9401 8.65009 14.8565 8.68619 14.791 8.74579C14.7256 8.80538 14.6821 8.88504 14.6674 8.97208C14.5979 9.38624 14.5979 9.809 14.6674 10.2232C14.6821 10.3102 14.7256 10.3899 14.791 10.4495C14.8565 10.509 14.9401 10.5451 15.0285 10.552L15.3278 10.5754C15.7752 10.6102 16.2246 10.6102 16.6721 10.5754L16.9713 10.552C17.0598 10.5451 17.1434 10.509 17.2088 10.4495C17.2743 10.3899 17.3178 10.3102 17.3324 10.2232C17.4019 9.80901 17.4019 9.38623 17.3324 8.97208C17.3178 8.88504 17.2743 8.80538 17.2088 8.74579C17.1434 8.68619 17.0598 8.65009 16.9713 8.64323L16.6719 8.61985ZM15.3436 8.81862C15.7806 8.78462 16.2196 8.78462 16.6566 8.81862L16.9558 8.84187C17.0461 8.84891 17.12 8.91628 17.1348 9.00503C17.2009 9.39736 17.2009 9.79788 17.1348 10.1902C17.1276 10.2334 17.106 10.2729 17.0736 10.3025C17.0412 10.332 16.9997 10.35 16.9558 10.3534L16.6566 10.3766C16.2196 10.4106 15.7806 10.4106 15.3436 10.3766L15.0443 10.3534C15.0004 10.35 14.959 10.332 14.9265 10.3025C14.8941 10.2729 14.8725 10.2334 14.8653 10.1902C14.7992 9.79788 14.7992 9.39736 14.8653 9.00503C14.8725 8.96186 14.8941 8.92234 14.9265 8.89277C14.959 8.8632 15.0004 8.84528 15.0443 8.84187L15.3436 8.81862Z" fill="white"/>
</svg>
