<svg width="32" height="32" viewBox="0 0 32 32" fill="none" xmlns="http://www.w3.org/2000/svg">
<path d="M28.3358 6C26.0863 6.01847 23.8347 6.00253 21.5845 6.00785C15.5842 6.00886 9.5834 6.00607 3.58314 6.00936C3.20048 6.04176 2.94329 6.4406 3.01083 6.79643C3.01473 12.685 3.00304 18.574 3.01681 24.4625C3.06877 24.8361 3.48728 25.054 3.8476 24.9884C12.0485 24.9844 20.2499 24.9968 28.4506 24.9826C28.8169 24.9343 29.0543 24.541 28.9894 24.2001C28.9876 18.3219 28.9928 12.444 28.9868 6.56587C28.965 6.247 28.6498 6.01164 28.3358 6ZM26.045 7.24943C26.3577 7.25803 26.671 7.25778 26.9841 7.25702C26.902 7.30789 26.8441 7.34307 26.7433 7.40507C26.6588 7.34287 26.5541 7.31233 26.4484 7.31902C26.1938 7.33092 26.0455 7.58728 26.0689 7.81353C25.2329 8.11823 24.4099 8.89315 22.9824 9.06549C22.7995 9.16343 22.8117 9.40208 22.8992 9.57366C22.7478 9.6506 22.5971 9.73057 22.4459 9.80447C22.4314 9.80346 22.4168 9.80194 22.4017 9.80244C22.2464 9.79004 22.1238 9.87482 22.0502 9.99377C21.8235 10.1006 21.5982 10.2038 21.3779 10.2992C21.2569 10.3516 21.1462 10.4032 21.034 10.4549C21.0688 10.405 21.0955 10.3493 21.1015 10.2835C21.1226 10.1633 21.095 9.99858 20.9378 9.99731C20.6739 10.0234 20.4863 10.4556 20.3312 10.4787C20.4032 10.5887 20.5186 10.6389 20.6383 10.6442C20.4866 10.7194 20.3365 10.7977 20.1881 10.879C20.1198 10.751 19.9886 10.653 19.8384 10.6472C19.8332 10.8398 19.6067 11.0615 19.5641 11.2508C19.1916 11.4942 18.91 11.7202 18.7042 11.9181C18.4764 12.1368 18.3356 12.3231 18.2496 12.4643C18.248 12.4668 18.2478 12.4683 18.2462 12.4706C18.0059 12.6106 17.5349 12.6389 17.7069 12.9861C18.6068 12.8801 18.8603 12.7948 19.2516 12.4587C19.4669 12.2517 19.8062 11.986 20.3159 11.6853C20.2011 11.8764 20.2146 12.1535 20.4354 12.2679C20.7474 12.4944 21.2475 12.1211 21.0792 11.7703C21.0186 11.6084 20.8513 11.4801 20.6703 11.4894H20.664C20.8121 11.41 20.9703 11.329 21.1431 11.2457C21.1722 11.3163 21.2195 11.3796 21.2969 11.4209C21.6016 11.6476 22.1019 11.2951 21.9502 10.9425C21.9443 10.9241 21.932 10.9084 21.9235 10.8909C22.1119 10.8069 22.2993 10.7207 22.4856 10.6323C22.5545 10.6156 22.6194 10.5857 22.6753 10.5419C23.8828 10.4946 24.784 9.58986 25.6213 8.96426C25.6561 9.0007 25.6984 9.0336 25.7579 9.05562C25.9831 9.231 26.4219 9.15584 26.3788 8.81596C26.3793 8.72711 26.3505 8.64044 26.2967 8.56871C26.6476 8.36054 26.9966 8.1493 27.3436 7.93501C27.2169 8.0704 27.2109 8.30272 27.4803 8.35764C27.8029 8.66007 27.6842 9.12598 27.6956 9.51394C27.6299 13.0448 27.7068 16.5765 27.7032 20.1076C27.434 20.306 27.3057 20.615 27.1511 20.8942C26.9267 21.1161 26.6183 20.8471 26.3848 20.7722C25.9925 20.6659 26.4824 20.3415 26.2315 20.1243C26.0886 19.9125 25.7213 19.8361 25.5574 20.0659C25.4378 20.0563 25.3215 19.9768 25.204 19.9414C25.1822 19.9282 25.1549 19.9143 25.1321 19.9011C25.317 19.7764 25.4914 19.5866 25.7389 19.6987C26.0361 19.5767 25.7691 19.2087 25.7369 18.9901C25.6023 18.6246 25.1908 19.1196 25.2347 19.3626C25.083 19.3064 24.9741 19.173 24.8359 19.0905C25.0412 18.947 25.1009 18.6087 24.8853 18.4477C24.6899 18.1385 24.2969 18.5788 24.1179 18.3095C24.0192 18.1658 23.8612 18.3931 23.9215 18.1777C23.835 17.8419 23.4466 17.6857 23.2681 17.3947C22.9242 18.1542 22.4742 17.2924 22.8642 17.0586C23.1616 17.0333 23.4648 16.8321 23.3533 16.4985C23.2928 16.2892 23.0678 16.1657 22.8519 16.1956C22.5935 16.2928 22.4872 16.637 22.1726 16.6132C21.844 16.7698 22.0243 16.993 22.0843 17.1654C22.0297 17.3433 21.9409 17.5162 21.8731 17.5551C21.6819 17.4648 21.6562 17.2805 21.7063 17.1343C21.6325 17.0153 21.5089 16.3371 21.4236 16.6603C21.3813 16.8275 21.4678 17.0439 21.4385 17.2104C21.3241 17.1629 21.2252 17.1153 21.1329 17.068C21.2213 16.9609 21.26 16.821 21.1937 16.683C21.1332 16.5211 20.9662 16.3928 20.7848 16.4021C20.6461 16.3912 20.5354 16.4593 20.4606 16.558C20.3931 16.4152 20.3134 16.2782 20.2221 16.1485C20.2793 15.856 20.2445 15.5131 19.9831 15.5994L19.9091 15.3185C20.206 15.364 20.1954 15.1373 20.0476 14.866C20.1756 14.6853 20.2193 14.4175 20.418 14.3178C20.6295 14.2333 20.6944 13.8587 20.379 13.9531C20.1554 13.9706 20.1006 13.6816 19.8932 13.655C19.7857 13.8896 19.6659 14.1179 19.4225 14.2249C19.3625 14.4152 19.4337 14.6918 19.2911 14.8379L19.1531 14.9183C18.9019 14.8057 18.5933 14.8915 18.5208 15.1704C18.5096 15.2104 18.5078 15.2514 18.5096 15.2926L18.3875 15.3635C18.36 15.2866 18.3031 15.221 18.1753 15.1823C18.0007 15.0459 17.7178 15.2666 17.6492 15.2633C17.6123 14.9897 17.2847 14.7237 17.0148 14.911C16.7207 15.0768 16.6075 15.487 16.979 15.6315C17.172 15.8616 17.4796 15.5723 17.5913 15.5644C17.6355 15.896 17.3562 16.1002 17.1271 16.2849C17.0112 16.4899 16.9522 16.6977 16.6633 16.684C16.1962 16.7934 15.6665 16.6937 15.3332 16.3378C15.1683 16.188 15.0475 16.0007 14.9173 15.8259C14.6861 15.6052 14.2245 15.7239 14.1826 16.0511C14.6001 17.2082 13.9553 17.6819 13.242 18.6061C12.6533 19.085 12.1109 18.2792 12.3296 18.1337C12.6076 17.9259 12.8172 18.453 13.1126 18.1663C13.4033 18.0026 13.363 17.5789 13.0775 17.4374C13.036 17.2869 13.37 16.9136 13.4087 17.2421C13.6301 17.545 14.2136 17.3494 14.1803 16.9731C14.3063 16.682 13.7096 16.5626 13.7387 16.5208C14.1315 16.4294 14.0218 16.002 14.0564 15.7241C14.1533 15.4546 14.4819 15.1909 14.3424 14.8897C14.0068 14.5623 13.7589 15.0674 13.695 15.3427C13.6103 15.6993 13.1404 15.819 13.1833 16.2189C13.1017 16.4694 12.9918 16.7033 12.8603 16.9384C12.513 17.4111 11.9111 17.5771 11.4419 17.8975C11.2653 18.1235 11.0034 18.2832 10.7075 18.2959C10.3929 18.3374 10.0718 18.3941 9.79123 18.5434C9.45377 18.6309 9.09942 18.6188 8.75495 18.6689C7.94832 18.7413 7.13882 18.7914 6.33635 18.9022C6.16255 19.1381 5.81496 19.0424 5.59752 19.2135C5.37124 19.3092 5.1351 19.4382 4.88103 19.4079C4.75036 19.4175 4.5989 19.3573 4.49655 19.4618C4.43212 19.4808 4.27859 19.6637 4.29703 19.5306V16.8668C4.46148 17.0135 4.89194 17.381 5.01092 17.0265C4.99689 16.7002 4.55734 16.5593 4.29599 16.7111C4.35574 16.4145 4.17909 15.9823 4.39003 15.776C4.70697 15.5566 4.48953 15.1446 4.29807 14.9609C4.29547 14.372 4.29781 13.7831 4.29703 13.1944C4.69762 13.2278 4.88596 12.6149 4.53811 12.4238C4.53759 12.3696 4.46563 11.97 4.29703 11.7481V7.25651H15.7871C15.9492 7.59943 16.4173 7.45796 16.6202 7.25651H25.6067C24.9027 7.65409 25.5514 7.95753 25.7356 7.605C25.7826 7.48276 25.9208 7.24918 26.045 7.24943ZM10.0617 7.34686C9.64575 7.33471 9.49897 7.98841 9.8845 8.14405C10.2222 8.34347 10.6875 7.91274 10.4737 7.57868C10.3976 7.43367 10.2313 7.33067 10.0617 7.34686ZM15.5283 7.66675C15.1127 7.65536 14.9654 8.30804 15.3512 8.46393C15.6889 8.66336 16.1542 8.23237 15.9404 7.89856C15.8642 7.7533 15.698 7.65055 15.5283 7.66675ZM27.7032 7.70825V7.87073C27.6694 7.85291 27.6324 7.84178 27.5943 7.83796C27.5561 7.83413 27.5175 7.8377 27.4808 7.84846C27.592 7.77886 27.645 7.7452 27.7032 7.70825ZM11.1803 7.94108C11.1609 7.93835 11.1412 7.93921 11.1221 7.94361C10.713 7.93172 10.561 8.56871 10.9332 8.73422C11.2788 8.93845 11.3198 8.44824 11.2873 8.2311C11.3029 8.13114 11.2993 7.9588 11.1803 7.94108ZM16.589 8.26274C16.2046 8.25363 16.0295 8.83292 16.3599 9.02702C16.5709 9.2224 16.6488 8.91719 16.6384 8.78028C16.8712 8.60009 17.073 8.24781 16.589 8.26274ZM9.52625 8.37941C9.16775 8.35283 8.8638 8.84607 9.16463 9.10219C9.42234 9.38411 9.99283 9.12294 9.9058 8.74535C9.87359 8.56263 9.72005 8.39864 9.52625 8.37941ZM22.6833 8.38877C22.4911 8.46115 21.9817 8.79926 22.2996 8.95237C22.5997 9.0784 23.1058 8.52214 22.6833 8.38877ZM15.0545 8.71574C15.1818 9.05689 14.4996 9.20974 14.6812 9.46256C14.9662 9.68122 15.4642 9.40942 15.3675 9.05031C15.3384 8.89416 15.2163 8.75193 15.0545 8.71574ZM27.0005 8.9182C26.6074 8.93668 26.4588 9.54 26.8233 9.71032C27.1379 9.91 27.6115 9.54785 27.452 9.20417C27.3886 9.0207 27.1974 8.90378 27.0005 8.9182ZM10.5095 8.97641C10.1077 8.96806 9.9523 9.57923 10.303 9.76246C10.6218 9.85002 11.0239 9.46206 10.8966 9.16039C10.8091 9.04373 10.6605 8.9635 10.5095 8.97641ZM21.8726 9.11307C21.7686 9.32945 21.2491 9.57442 21.4587 9.79941C21.8344 9.87153 22.1417 9.40005 21.8726 9.11307ZM15.9767 9.29629C15.5611 9.28465 15.4143 9.93758 15.7998 10.0935C16.1375 10.2934 16.6025 9.86217 16.3887 9.52811C16.3126 9.3831 16.1464 9.2801 15.9767 9.29629ZM8.83678 9.41347C8.42138 9.40208 8.27487 10.0545 8.66013 10.2101C8.99785 10.4096 9.46286 9.97909 9.2488 9.64528C9.17268 9.50027 9.00642 9.39727 8.83678 9.41347ZM13.6875 9.6587C13.5301 9.77005 12.9666 9.6878 13.0887 9.9429C13.3199 10.0507 13.6387 9.90848 13.6875 9.6587ZM14.304 9.73285C13.888 9.72121 13.7413 10.3744 14.1268 10.5305C14.4645 10.7305 14.9295 10.2987 14.7155 9.96517C14.6396 9.8199 14.4739 9.71665 14.304 9.73285ZM9.85956 10.0039C9.68862 10.0727 9.42104 10.5176 9.62471 10.5885C9.77824 10.5083 10.3344 10.0191 9.85956 10.0039ZM12.6309 10.1694C12.2153 10.1575 12.0675 10.8109 12.4535 10.9666C12.7912 11.1668 13.2565 10.7358 13.0424 10.4017C12.9666 10.2567 12.8008 10.1532 12.6309 10.1694ZM15.3644 10.3291C15.0514 10.3076 14.8264 10.757 15.0436 10.9782C15.3161 11.0845 15.6281 10.7768 15.7782 10.5644C15.7091 10.4136 15.5309 10.3195 15.3644 10.3291ZM8.22421 10.4463C7.80855 10.4346 7.66255 11.0881 8.04755 11.244C8.38579 11.4434 8.85029 11.0119 8.63623 10.6781C8.56011 10.5331 8.39411 10.4301 8.22421 10.4463ZM23.2681 10.6462C22.8618 10.6133 22.6722 11.2374 23.033 11.4239C23.3479 11.6466 23.8477 11.2842 23.6664 10.9281C23.6074 10.7687 23.45 10.6335 23.2681 10.6462ZM13.6914 10.7659C13.2757 10.754 13.129 11.4072 13.5145 11.5631C13.8522 11.763 14.3175 11.3315 14.1034 10.9977C14.0273 10.8524 13.8613 10.7497 13.6914 10.7659ZM9.28543 11.0425C8.86925 11.0304 8.72274 11.6841 9.10826 11.8397C9.44598 12.0396 9.91073 11.6081 9.69667 11.2746C9.62081 11.1293 9.45533 11.0263 9.28543 11.0425ZM12.0181 11.2022C11.603 11.1911 11.4557 11.8437 11.8415 11.9994C12.1789 12.1993 12.6437 11.7683 12.4299 11.4345C12.354 11.2895 12.188 11.186 12.0181 11.2022ZM7.61241 11.4791C7.19676 11.4672 7.0492 12.1209 7.43524 12.2762C7.77296 12.4762 8.23798 12.0452 8.02391 11.7114C7.94806 11.5664 7.78231 11.4629 7.61241 11.4791ZM22.402 11.4892C21.9967 11.4586 21.8053 12.0748 22.1648 12.2641C22.4869 12.4628 22.9696 12.133 22.814 11.7688C22.7535 11.6048 22.5818 11.4846 22.402 11.4892ZM4.98468 11.596C4.79504 11.6663 4.29235 11.8415 4.61267 12.0649C4.83089 12.2378 5.34267 12.1626 5.16939 11.803C5.14939 11.7119 5.10081 11.5889 4.98468 11.596ZM13.003 11.7941C12.819 11.8275 12.6167 12.1307 12.7245 12.1654C12.8149 12.0371 13.2614 11.9321 13.1334 11.7984L13.0796 11.7982C13.0548 11.7906 13.0285 11.7892 13.003 11.7941ZM6.0085 11.9181C5.68377 11.9045 5.39021 12.2641 5.58687 12.5529C5.75832 12.8571 6.32699 12.8057 6.38181 12.4415C6.45143 12.2034 6.2688 11.9293 6.0085 11.9181ZM8.67286 12.0756C8.2572 12.0637 8.11016 12.7168 8.49568 12.8727C8.8334 13.0722 9.29868 12.6412 9.08488 12.3074C9.00876 12.1621 8.8425 12.0594 8.67286 12.0756ZM11.4061 12.235C10.9904 12.2234 10.8434 12.8765 11.2291 13.0322C11.5669 13.2319 12.0321 12.8014 11.8181 12.4673C11.742 12.3223 11.576 12.2191 11.4061 12.235ZM21.5034 12.3251L21.4652 12.3271C21.288 12.3274 21.0581 12.6483 21.3842 12.5227C21.6032 12.5541 21.9235 12.3405 21.5382 12.3324L21.5034 12.3251ZM19.8065 12.3327C19.4077 12.298 19.2074 12.9056 19.5563 13.1005C19.7395 13.0699 19.707 12.6748 19.9777 12.811C20.4349 12.8014 20.1146 12.277 19.8065 12.3327ZM23.3603 12.3959L22.8683 12.5979C22.6956 12.8181 23.0754 13.3311 23.1549 12.8717C23.2214 12.7123 23.2832 12.5506 23.3603 12.3959ZM6.99984 12.5124C6.61016 12.4941 6.42545 13.1187 6.7998 13.2736C7.07518 13.2574 7.5841 13.1387 7.42589 12.7705C7.35652 12.6101 7.18013 12.4962 6.99984 12.5124ZM9.7333 12.6715C9.31764 12.6607 9.17165 13.3133 9.55665 13.4692C9.89437 13.6687 10.3586 13.2374 10.1448 12.9039C10.0689 12.7586 9.9032 12.6554 9.7333 12.6715ZM5.32708 12.9497C4.91142 12.9378 4.76439 13.591 5.14991 13.7469C5.48763 13.9465 5.95264 13.5156 5.73858 13.182C5.66272 13.0367 5.49698 12.9335 5.32708 12.9497ZM22.3277 13.1734C22.1095 13.1843 22.0287 13.4708 22.3176 13.4052C22.5498 13.576 23.0398 13.5414 22.6428 13.2475C22.5514 13.1845 22.4365 13.1711 22.3277 13.1734ZM19.0217 13.1744C18.9946 13.1715 18.9672 13.1723 18.9404 13.1769C18.5353 13.1425 18.3421 13.7633 18.7006 13.9526C18.9648 14.1703 19.5623 13.8203 19.376 13.5224C19.2991 13.3781 19.1994 13.1934 19.0217 13.1744ZM17.2086 13.1769C16.8015 13.1418 16.609 13.7681 16.9712 13.9549C17.2837 14.1811 17.783 13.8086 17.6154 13.4573C17.556 13.2951 17.3884 13.1704 17.2086 13.1769ZM10.7335 13.265C10.3812 13.2815 10.2126 13.9751 10.6945 13.8445C10.9281 13.8567 11.4136 13.7205 11.1585 13.4275C11.0585 13.2984 10.8919 13.2569 10.7335 13.265ZM15.8484 13.3827C15.6198 13.5302 15.2535 13.4417 15.0979 13.6925C15.0716 14.1176 15.844 14.1161 15.8952 13.7074C15.9101 13.653 15.9137 13.5962 15.9056 13.5404C15.8976 13.4846 15.8781 13.431 15.8484 13.3827ZM4.71477 13.9822C4.29885 13.9706 4.15311 14.6238 4.53811 14.7797C4.87583 14.9791 5.34007 14.5481 5.12627 14.2148C5.05015 14.0695 4.88441 13.9663 4.71477 13.9825M18.0433 14.0154C17.9385 14.0272 17.8413 14.0744 17.7684 14.1488C17.6956 14.2232 17.6518 14.32 17.6445 14.4226C17.604 14.7075 17.9158 14.9173 18.1849 14.8503C18.4122 14.8422 18.6673 15.0231 18.8512 14.7943C19.0617 14.6048 19.0134 14.2358 18.7497 14.1161C18.5522 14.0387 18.3026 14.187 18.1353 14.0159C18.1047 14.0124 18.0739 14.0122 18.0433 14.0154ZM14.6108 14.0204C14.3133 14.0589 14.2933 14.5023 14.2842 14.7078C14.4869 15.0049 15.0124 14.8475 15.0418 14.5008C15.0747 14.2603 14.868 14.0065 14.6108 14.0204ZM16.3425 14.0202C15.9383 13.9858 15.7442 14.6048 16.1009 14.7951C16.4054 15.0216 16.9055 14.6701 16.7545 14.3175C16.6997 14.1485 16.5295 14.0111 16.3425 14.0202ZM21.2491 14.0642C20.8667 14.0761 20.7014 14.667 21.0527 14.8396C21.3501 14.9743 21.8133 14.8938 21.9489 14.5767C22.0547 14.3687 21.8632 14.1996 21.6621 14.2348C21.5346 14.1576 21.4112 14.0475 21.2491 14.0642ZM11.6695 14.0979C11.3988 14.3416 12.3215 14.5863 12.0649 14.2368C11.9537 14.1503 11.809 14.111 11.6695 14.0979ZM11.3894 14.622C10.9964 14.6402 10.8491 15.2433 11.2123 15.4134C11.5266 15.6125 12.0004 15.2516 11.8409 14.9082C11.7773 14.7247 11.5863 14.6076 11.3894 14.622ZM22.2251 14.6288C21.891 14.7488 21.9388 15.1704 21.9975 15.443C22.1209 15.7669 22.6756 15.8031 22.7982 15.4581C22.9759 15.1152 22.5818 14.89 22.3264 14.7574C22.2866 14.7193 22.2525 14.6761 22.2251 14.6288ZM15.4764 14.8632C15.0696 14.8288 14.8781 15.4541 15.2395 15.6411C15.552 15.8681 16.0513 15.4954 15.8837 15.1441C15.8245 14.9816 15.6567 14.8563 15.4764 14.8632ZM20.6721 14.8632C20.299 14.8328 20.0824 15.3769 20.3814 15.5981C20.5565 15.7558 20.8651 15.651 21.0036 15.8395C21.3119 15.7234 21.1241 15.3185 21.0542 15.0955C20.9856 14.955 20.8332 14.8576 20.6721 14.8632ZM12.4865 15.1529C12.0937 15.1712 11.9454 15.7747 12.3096 15.9448C12.6239 16.1435 13.0973 15.7823 12.9378 15.4392C12.8744 15.2554 12.6832 15.1383 12.4868 15.1529M5.16342 15.612C4.74776 15.5999 4.60098 16.2536 4.9865 16.4092C5.32422 16.6091 5.78898 16.1781 5.57492 15.8443C5.49906 15.6993 5.33332 15.5958 5.16342 15.612ZM21.8739 15.6669C21.5735 15.6981 21.1127 15.7105 21.1049 16.1083C21.0914 16.5464 21.6045 16.6243 21.9344 16.4864C22.257 16.4456 22.3859 16.025 22.1651 15.8064C22.0897 15.7256 21.9855 15.6758 21.8739 15.6669ZM16.3542 15.6814C16.0627 15.7186 15.7977 16.0192 15.9448 16.3039C16.0809 16.6236 16.6345 16.6289 16.7485 16.2892C16.9081 16.0235 16.667 15.6583 16.3542 15.6814ZM6.15943 16.2067C5.78846 16.2781 5.69935 16.8063 6.03863 16.9728C6.12436 17.1186 6.46 17.3835 6.4187 17.0454C6.35635 16.7838 6.34648 16.3573 6.15943 16.2067ZM23.6248 17.0178C23.4318 17.2451 23.9158 17.687 24.0049 17.5096C23.8565 17.3628 23.7285 17.1974 23.6248 17.0178ZM17.1717 17.8312C17.3411 17.8388 17.5284 17.788 17.4035 18.2814C17.08 18.1018 16.6288 18.4864 16.8088 18.8182C16.8195 19.0948 17.3848 18.9939 17.1777 19.2641C17.0564 19.5881 16.9452 19.9163 16.8013 20.2314C16.7311 20.4629 16.7483 20.898 16.3778 20.793C16.0401 20.7006 15.7725 21.1346 15.9762 21.395C16.0848 21.555 16.3061 21.6511 16.098 21.824C16.018 21.9525 15.8728 22.2393 15.9027 21.9328C15.8255 21.6233 15.3525 21.4914 15.1462 21.7587C14.8958 22.0082 15.141 22.5045 15.4998 22.4562C15.6993 22.5301 15.8645 22.0811 15.9232 22.3696C16.157 22.6204 16.5483 22.3139 16.5771 22.0449C16.8332 21.6428 17.0224 21.2047 17.2086 20.7694C17.5832 20.7968 17.7866 20.2653 17.5097 20.0317C17.4191 19.6883 17.8215 19.641 18.0002 19.8632C18.1446 20.0494 18.3675 20.1372 18.5031 20.3258C18.5343 20.588 18.4901 20.8623 18.5117 21.1301C18.5577 21.37 18.8544 21.6732 18.539 21.869C18.3779 22.2221 18.7816 22.5042 19.0936 22.483C19.3048 22.7042 19.3147 23.063 19.5802 23.2435C19.8369 23.3958 20.2637 23.2126 20.2201 22.8927C20.2336 22.59 19.9265 22.4286 19.6719 22.4276C19.422 22.1727 19.3581 21.8032 19.2373 21.4821C19.2191 21.211 18.8889 20.6641 19.3412 20.6328C19.9553 20.7968 19.0528 21.4001 19.6727 21.5962C20.0806 21.7372 20.0644 21.2449 20.0507 20.9881C20.1832 20.7588 19.5664 20.7937 19.9335 20.693C20.2523 20.4753 20.0465 19.9085 19.6605 19.9269C19.4475 20.0383 19.1578 20.141 19.01 19.8776C18.9702 19.666 18.8868 19.4327 18.6406 19.4648C18.4286 19.2973 18.5068 19.0695 18.699 19.0131C19.0037 19.2398 19.5041 18.8873 19.3524 18.5345C19.2973 18.365 19.1253 18.2293 18.9385 18.2384C18.851 18.1967 18.7227 18.2496 18.9294 17.9785C19.4267 17.7254 19.7563 17.8591 19.9385 18.3171C20.007 18.614 20.1975 18.841 20.4453 19.0095C20.6913 19.1708 21.0415 18.927 21.2421 19.173C21.1909 19.4355 20.7773 19.6111 20.8758 19.9259C20.9524 20.2532 21.4299 20.3475 21.6398 20.0836C21.8832 19.9591 22.8008 19.6306 22.9873 19.8229C23.2055 20.011 23.5739 19.8325 23.7622 20.0727C23.7544 20.2013 23.6721 20.4465 23.7077 20.4964C23.4105 20.3868 23.1271 20.5839 23.0047 20.8345C23.0281 21.0716 23.2837 21.35 23.5505 21.3085C23.8212 21.2667 24.022 20.9577 23.8947 20.7087C24.1581 20.815 24.4335 20.7112 24.5709 20.4698C25.7574 21.5522 26.0473 23.0754 27.7032 23.3371V23.7398H24.8476C24.6229 23.5419 24.3457 23.4426 24.0924 23.7398H15.7767C16.0856 23.5145 15.5465 23.1683 15.3026 23.3257C15.0745 23.3814 15.1212 23.7711 14.882 23.7398H4.29703V21.2606C4.55734 21.3297 4.774 21.0488 4.5324 20.8861C4.59475 20.5153 4.98858 20.8041 5.20472 20.7553C5.56115 20.6763 5.47438 20.263 5.56245 20.053C5.79391 19.8662 6.17918 19.9922 6.33167 19.6961C6.53171 19.4717 6.84371 19.4246 7.10557 19.2993C7.45732 19.1543 7.11934 19.5934 7.3334 19.7417C7.60358 19.9449 7.12116 20.2807 7.00659 19.9639C6.67277 19.7842 6.22594 20.1992 6.42597 20.528C6.76629 20.7702 6.26231 20.9931 6.04954 20.8049C5.75547 20.655 5.41619 21.0083 5.55283 21.294C5.66013 21.5203 5.27356 21.762 5.61129 21.9085C5.99629 22.0745 6.17346 21.5585 6.493 21.4272C6.8489 21.1427 7.23053 20.881 7.55708 20.5667C7.89922 20.1094 8.2598 19.6653 8.58765 19.1978C8.72611 19.2274 9.09215 19.0675 9.09501 19.2143C8.77807 19.4876 9.18334 19.9052 9.33661 19.9695C9.18204 20.1162 8.93888 20.3693 8.84302 20.0373C8.70403 19.8778 8.40658 19.8854 8.2585 20.0378C8.05743 20.2109 8.06418 20.5725 8.32215 20.692C8.57907 20.9056 8.19615 21.2386 8.18368 21.5071C8.01222 21.807 8.02261 22.2079 8.34475 22.4078C8.3593 22.4169 8.37462 22.4233 8.38969 22.4301C7.4142 23.099 8.61648 22.7872 9.86865 21.95C9.82916 22.1181 9.87359 22.3028 10.0437 22.3909C10.3563 22.6174 10.8553 22.2446 10.688 21.8933C10.6601 21.8193 10.6115 21.7544 10.5476 21.706C10.4838 21.6575 10.4074 21.6274 10.3269 21.619C10.4646 21.5122 10.5978 21.4 10.7262 21.2827C10.7953 21.5302 11.106 21.7149 11.3661 21.5605C11.5037 21.8047 11.4284 22.2246 11.4985 22.5318C11.5697 22.752 11.231 22.3311 11.0343 22.4739C10.7153 22.5189 10.6976 22.8818 11.0205 22.9276C11.2102 23.0263 11.5279 23.3434 11.5671 22.9545C11.6217 22.7277 12.0327 22.9932 12.0272 22.6574C11.9407 22.3656 12.4904 22.4068 12.4504 22.0583C12.5055 21.6792 12.0579 21.6931 11.8887 21.4909C11.9558 21.2257 11.8602 20.793 12.2119 20.6955C12.5933 20.6009 12.3608 20.1547 12.354 19.9388C13.2713 19.641 14.2284 19.5261 14.0156 20.0426C13.9448 20.016 13.8791 19.9779 13.8213 19.93C13.468 19.8563 13.1518 20.3033 13.3911 20.5824C13.614 20.7325 13.2464 21.0055 13.5721 21.1232C13.9675 21.2303 14.1169 20.7499 14.4024 20.5814C14.6843 20.3035 15.0519 20.0892 15.2441 19.7371C15.3325 19.5585 15.2176 19.3722 15.2691 19.1885C15.2218 18.9033 15.5728 19.1976 15.712 19.007C15.9939 18.8567 16.3069 18.7142 16.0406 18.5692C15.8918 18.3252 15.5834 18.1025 15.9744 18.1213C16.023 18.43 16.416 18.3713 16.6394 18.1218C16.8621 17.7449 17.0733 18.1951 17.172 17.8312M11.5882 18.6724C11.731 19.2834 11.3372 18.7884 11.1452 19.0817C10.7415 19.0495 10.5269 19.702 10.8831 19.8918C10.7252 20.4554 10.7119 19.9006 10.2934 19.8923C10.615 19.4307 10.7013 19.2659 10.3378 19.3337C10.1144 19.2679 9.81877 19.7361 9.83747 19.3704C9.76447 19.2333 9.47585 19.0495 9.79955 19.0667C10.1412 19.0553 10.4526 19.0926 10.7584 18.9101C11.0411 18.8716 11.3266 18.6636 11.5882 18.6724ZM16.3404 19.0817C15.9367 19.0495 15.745 19.6668 16.1009 19.8568C16.4059 20.0838 16.906 19.7303 16.7543 19.3778C16.6992 19.208 16.5272 19.0726 16.3404 19.0817ZM19.8039 19.0817C19.4025 19.0498 19.209 19.6612 19.5607 19.8535C19.8969 20.0699 20.2058 19.6923 20.5082 19.5967C20.789 19.379 20.55 19.0265 20.2372 19.1728C20.0881 19.1667 19.9488 19.11 19.8039 19.0817ZM15.4743 19.9254C15.068 19.893 14.8789 20.5166 15.2392 20.7034C15.5515 20.9304 16.0518 20.5573 15.8832 20.2063C15.8227 20.0444 15.6554 19.9161 15.4743 19.9254ZM22.4017 19.9254C22.2513 19.9067 22.0996 20.0112 22.0557 20.1236L21.9947 20.2096C21.8201 20.3969 22.19 20.8289 22.2783 20.7107C22.5851 20.4905 22.7797 20.8653 22.8293 20.4326C22.8823 20.1841 22.6709 19.9087 22.4017 19.9254ZM9.82916 20.2585C9.92113 20.2597 9.78915 20.5682 9.94944 20.6204C10.2474 20.7307 10.0352 20.958 9.81955 21.3373C9.85956 21.2487 9.86943 21.149 9.82215 21.0498C9.7624 20.8876 9.59484 20.7628 9.41506 20.7694C9.00798 20.7342 8.81548 21.3606 9.17762 21.5474C9.28933 21.6284 9.42364 21.6301 9.54392 21.5866C9.36323 21.7401 9.1762 21.8863 8.9833 22.0249C8.986 21.9643 8.9722 21.9041 8.94329 21.8503C8.58089 21.6519 8.80717 21.2414 8.94381 20.9686C9.17424 20.69 9.51222 20.5252 9.77435 20.2782C9.7905 20.267 9.80942 20.2602 9.82916 20.2585ZM20.7209 20.4675C20.3785 20.4807 20.1684 20.9818 20.4814 21.189C20.7259 21.4563 21.2317 21.2427 21.1904 20.8836C21.182 20.6778 21.0132 20.4718 20.7908 20.4713C20.7676 20.4678 20.7444 20.4666 20.7209 20.4675ZM17.9446 20.4776C17.7069 20.5118 17.5645 20.7854 17.5926 21.0131C17.5832 21.3366 17.8404 21.7043 18.2132 21.5944C18.559 21.4874 18.5411 21.0496 18.419 20.7838C18.4015 20.7005 18.3559 20.6252 18.2895 20.5699C18.2231 20.5146 18.1397 20.4825 18.0524 20.4786C18.0168 20.4731 17.9803 20.4728 17.9446 20.4776ZM7.68281 20.7694C7.27599 20.735 7.08427 21.3606 7.44589 21.5474C7.75841 21.7739 8.25746 21.4008 8.09016 21.0498C8.03067 20.8874 7.86285 20.7626 7.68281 20.7694ZM12.8785 20.7694C12.4717 20.735 12.28 21.3606 12.6416 21.5474C12.9541 21.7739 13.4532 21.4008 13.2859 21.0498C13.2264 20.8874 13.0586 20.7626 12.8785 20.7694ZM14.6108 20.7694C14.2037 20.7342 14.0112 21.3606 14.3733 21.5474C14.6858 21.7736 15.1852 21.4008 15.0176 21.0498C14.9581 20.8876 14.7905 20.7628 14.6108 20.7694ZM24.5507 20.9919C24.1581 21.0106 24.009 21.6134 24.373 21.784C24.6873 21.9837 25.1614 21.622 25.0017 21.2786C24.9385 21.0951 24.7476 20.9774 24.5507 20.9919ZM21.8123 20.9995C21.419 21.0174 21.2722 21.621 21.6351 21.7911C21.9494 21.9903 22.4225 21.6286 22.2633 21.2854C22.1999 21.102 22.0087 20.9848 21.8123 20.9995ZM22.9086 21.5302C22.516 21.5484 22.3682 22.1512 22.7311 22.3215C23.0455 22.5207 23.5199 22.1601 23.3603 21.8164C23.2967 21.6329 23.1052 21.5157 22.9086 21.5302ZM6.73486 21.6111C6.53612 21.5863 6.22308 22.1024 6.56704 21.9346C6.72005 21.8607 7.14506 21.9313 7.12609 21.7387C7.02608 21.6359 6.8754 21.6005 6.73486 21.6111ZM13.7449 21.6127C13.3407 21.5785 13.1466 22.1975 13.5033 22.3878C13.8078 22.6143 14.3079 22.2628 14.1569 21.9103C14.1021 21.7412 13.932 21.6036 13.7449 21.6127ZM17.2089 21.6127C16.8015 21.5777 16.6093 22.2041 16.9714 22.3911C17.2842 22.6174 17.783 22.2443 17.6157 21.8931C17.5565 21.7309 17.3889 21.6061 17.2089 21.6127ZM5.40242 21.747C5.43047 21.909 5.60817 22.0194 5.40242 21.747V21.747ZM24.0059 22.0609C23.6131 22.0793 23.4643 22.6822 23.8285 22.853C24.1428 23.0529 24.6167 22.6908 24.4572 22.3473C24.3938 22.1636 24.2026 22.0462 24.0059 22.0609ZM9.33531 22.4536C9.1584 22.442 8.93836 22.7895 9.25218 22.6728C9.39012 22.7006 9.91905 22.671 9.59795 22.4961C9.51664 22.4592 9.42364 22.4506 9.33531 22.4536ZM12.8788 22.4567C12.4787 22.4233 12.2795 23.0337 12.6307 23.2268C12.8793 23.3103 13.2755 23.1696 13.3165 22.8965C13.3259 22.6708 13.1165 22.4445 12.8788 22.4567ZM14.611 22.4567C14.2065 22.422 14.0122 23.0413 14.3692 23.2318C14.6734 23.4588 15.1742 23.1071 15.0231 22.7543C14.9682 22.585 14.7981 22.4476 14.611 22.4567ZM16.3428 22.4567C15.965 22.4258 15.7505 22.9803 16.0593 23.1972C16.3477 23.4816 16.9304 23.0815 16.7441 22.7196C16.6766 22.568 16.5171 22.4488 16.3428 22.4567ZM25.0741 22.5951C24.7133 22.6331 24.5683 23.2096 24.9188 23.3776C25.1778 23.5801 25.6898 23.2771 25.4547 22.9707C25.3711 22.8391 25.3534 22.6088 25.1492 22.5951C25.1232 22.5926 25.0984 22.5926 25.0741 22.5951ZM11.9277 23.2931C11.6206 23.3348 11.7147 23.7084 12.0166 23.5704C12.2997 23.5682 12.3379 23.2794 12.0353 23.3019C11.9989 23.3027 11.9649 23.2835 11.9277 23.2931Z" fill="#0163BB"/>
</svg>
