<?xml version="1.0" encoding="utf-8"?>
<!-- Generator: Adobe Illustrator 21.1.0, SVG Export Plug-In . SVG Version: 6.00 Build 0)  -->
<svg version="1.1" id="Layer_1" xmlns="http://www.w3.org/2000/svg" xmlns:xlink="http://www.w3.org/1999/xlink" x="0px" y="0px"
	 viewBox="0 0 120 103.6" style="enable-background:new 0 0 120 103.6;" xml:space="preserve">
<style type="text/css">
	.st0{fill:#25668E;}
</style>
<g>
	<g>
		<path class="st0" d="M120,43.2c-0.6,1.9-1.6,3.6-3,5.1c-2.3,2.4-4.8,3.5-8.2,2.7c-0.1,5.4-2.5,9.6-5.9,12.9
			c0.9,2.1,2.1,3.9,2.5,5.9c1.2,5.1-2.4,9.5-7.7,9.8c-0.6,0-1.2,0-1.4,0.9c-0.9,4.2-3.7,6.3-7.6,7.3c-0.4,0.1-1,0.5-1.1,0.8
			c-1.2,3.8-3.8,6.1-7.4,7.4c-0.8,0.3-1.2,0.7-1.5,1.4c-1.5,4.2-5.2,6.1-9.6,5.2c-2.9-0.6-5.4-2-7.7-3.8c-0.2-0.2-0.5-0.3-0.7-0.4
			c-1.7,1.1-3.2,2.3-4.9,3.3c-2.4,1.4-5,2.2-7.8,1.8c-2.1-0.3-3.8-1.2-5.3-2.6C35.4,93.5,28,86.1,20.6,78.7
			c-2.1-2.1-2.8-4.7-1.6-7.4c0.8-1.9,2.2-3.6,3.4-5.3c0.5-0.8,1.3-1.3,2.1-2c-3.6-4.8-7.2-9.6-10.8-14.4c-1.6,1.2-3.4,1.9-5.5,1.6
			c-0.5-0.1-1-0.1-1.4-0.3c-3.2-1.5-5.9-3.6-6.7-7.3c-0.5-2.5,0.3-4.6,2-6.4c1.5-1.6,3.1-3.2,4.7-4.7c9.9-9.9,19.8-19.8,29.8-29.8
			c3.6-3.6,7.6-3.6,11.3,0c1.9,1.8,3.5,3.6,3.3,6.4c-0.1,0.9-0.4,1.7-0.5,2.6c-0.1,0.4,0,0.9,0.2,1.1c3.2,3.4,6.5,6.7,9.9,10.2
			c3.6-2.4,7.4-4.9,11.6-7.6c-0.6-0.5-1.1-0.8-1.5-1.2c-2.8-2.7-3-6.8-0.6-9.7c0.8-1,1.8-2,2.8-2.8c2.9-2.4,7-2.1,9.8,0.7
			c7.8,7.8,15.6,15.6,23.5,23.5c3.8,3.8,7.6,7.5,11.3,11.4c1,1.1,1.6,2.6,2.3,3.9C120,41.8,120,42.5,120,43.2z M66.4,63.6
			c0.3,0.4,0.6,0.8,1,1.2c6.3,6.3,12.6,12.6,18.9,18.9c0.3,0.3,0.9,0.6,1.3,0.6c2.5-0.2,4.7-2.3,5.3-4.7c0.2-0.8,0-1.4-0.6-2.1
			c-6.4-6.3-12.7-12.6-19-19c-0.3-0.3-0.6-0.7-0.9-0.9c0.9-0.9,1.6-1.8,2.6-2.7c0.3,0.4,0.5,0.7,0.8,1c6.4,6.4,12.8,12.8,19.2,19.2
			c0.4,0.4,0.9,0.8,1.3,0.8c1.8,0.2,3.6-0.1,4.7-1.7c1.2-1.5,1.4-3.3,0.5-5c-0.7-1.4-1.8-2.6-2.9-3.7C92.4,59.7,86.1,53.9,79.9,48
			c-0.8-0.8-1.7-1.5-2.5-2.3c-3.3,2-5.1,2.5-8.8,1.9c-2.3-0.4-4.5-1.1-6.7-1.7c-0.7-0.2-1-0.1-1.3,0.5c-1.1,2.3-2.9,3.8-5.1,5
			c-2.4,1.3-5,1.9-7.7,2.1c-2.5,0.2-5.1,0.3-7.5-0.9c-2.7-1.3-3.9-3.5-3.1-6.4c1.1-4.5,3.7-8.2,7.2-11.1c3.3-2.7,6.7-5.2,10.1-7.8
			c0.9-0.7,1.9-1.3,2.9-2.1c-2.8-3.8-6-7-9.3-10C37.7,25.9,27.1,36.5,16.5,47.1c1.6,2.2,3.4,4.7,5.2,7.1
			c12,16.7,26.4,30.9,43.3,42.6c1.3,0.9,2.9,1.6,4.4,2.1c1.1,0.3,2.5,0.3,3.7,0.1c1.4-0.2,1.9-1.6,2.4-2.8c0.4-1.1-0.5-1.5-1.1-2
			C68.3,88.1,62.2,82.1,56.1,76c-0.4-0.4-0.9-0.6-1.3-0.8c1.2-1.2,1.9-2,2.9-3c1.2,1.2,2.3,2.4,3.4,3.6c5.4,5.5,10.9,10.9,16.3,16.3
			c0.3,0.3,1,0.7,1.4,0.6c2.3-0.8,4.1-2.1,5.1-4.5c0.4-0.9,0.3-1.5-0.4-2.2c-6.3-6.3-12.6-12.6-18.9-18.9c-0.3-0.3-0.6-0.6-0.9-1
			C64.5,65.3,65.4,64.6,66.4,63.6z M58.5,40.3c0.7,0.4,1.4,0.7,2,1c3,1.5,6.2,2.8,9.6,3c2.5,0.2,4.7-0.5,6.1-2.9
			c0.2-0.4,0.5-0.7,0.8-1.1c7.7,7.2,15.3,14.2,22.9,21.4c3.8-3.5,5.9-7.5,5.1-12.7c-0.1-0.5-0.4-1.1-0.7-1.5
			C94.7,38,85.2,28.4,75.6,18.9c-0.6-0.6-1-0.6-1.7-0.2c-6.2,4.2-12.4,8.3-18.5,12.5c-3,2.1-5.9,4.4-8.7,6.7c-2.7,2.2-4.8,5-5.8,8.3
			C40.1,48.8,41,50,43.6,50c1.6,0,3.1-0.1,4.7-0.2C54.7,49.3,57.8,46.4,58.5,40.3z M72.2,8.9c0,1.4,0.8,2.3,1.7,3.2
			c7.1,7.1,14.2,14.2,21.3,21.3c4.3,4.3,8.6,8.6,12.9,12.9c1.1,1.1,2.4,1.8,3.9,1.2c2-0.8,3.5-2.3,4.2-4.3c0.5-1.5-0.3-2.8-1.4-3.9
			c-8-7.9-15.9-15.9-23.9-23.9c-3.5-3.5-7-7-10.5-10.5C79,3.5,77.3,3.1,76,4.1c-1.2,0.9-2.2,2.1-3.2,3.2C72.4,7.7,72.4,8.4,72.2,8.9
			z M3.7,42.5C3.6,44,4.7,45,5.8,46c2.3,2.3,4.1,2.3,6.4,0c4.1-4.1,8.2-8.2,12.3-12.3c7.2-7.2,14.4-14.4,21.6-21.6
			c1-1,1.6-2,1.5-3.4c-0.1-1.5-1.2-2.3-2.1-3.3c-2.2-2.2-4.1-2.3-6.3-0.1c-3.8,3.8-7.7,7.7-11.5,11.5c-7.5,7.5-15,15-22.5,22.5
			C4.3,40.2,3.6,41.1,3.7,42.5z M35,76.4c-1.9,1.9-3.8,3.8-5.6,5.6c1.8,1.9,3.8,3.8,5.7,5.8c1.9-1.9,3.8-3.8,5.7-5.7
			C38.8,80.2,36.8,78.2,35,76.4z M26.8,66.7c-1.8,1.6-3.3,3.2-4.2,5.3c-0.6,1.3-0.7,2.6,0.3,3.7c1.1,1.2,2.4,2.2,3.5,3.3
			c1.9-1.9,3.8-3.9,5.9-5.9C30.5,71.1,28.7,69,26.8,66.7z M49.1,89.3c-1.9-1.6-3.7-3.2-5.3-4.6c-2,2.1-4,4-5.9,5.9
			c1.6,1.6,3.3,3.3,5,5.1C45,93.6,47,91.5,49.1,89.3z M52.2,91.8C51,93,49.8,94,48.7,95.1c-1.1,1.1-2.1,2.2-3.2,3.4
			c3.1,2.8,8.9,1.6,12-2.5C55.7,94.5,53.9,93.1,52.2,91.8z"/>
	</g>
</g>
</svg>
