<?xml version="1.0" encoding="utf-8"?>
<!-- Generator: Adobe Illustrator 21.1.0, SVG Export Plug-In . SVG Version: 6.00 Build 0)  -->
<svg version="1.1" id="Layer_1" xmlns="http://www.w3.org/2000/svg" xmlns:xlink="http://www.w3.org/1999/xlink" x="0px" y="0px"
	 viewBox="0 0 98 75" style="enable-background:new 0 0 98 75;" xml:space="preserve">
<style type="text/css">
	.st0{fill:#25668E;}
	.st1{fill:#363539;}
	.st2{fill:#F0EFF4;}
	.st3{fill:#F96731;}
	.st4{fill:#2B9AF3;}
	.st5{fill:none;stroke:#25668E;stroke-width:2;stroke-linecap:round;stroke-miterlimit:10;}
</style>
<g>
	<g>
		<path class="st0" d="M45.5,10.9c0,0.5-0.2,0.9-0.3,1.4c-0.5-0.2-1-0.5-1.4-0.9c-0.2-0.2-0.1-0.4,0-0.6c0.3-0.9,0.4-1.7,0.6-2.6
			c0.1-0.6,0.5-1,1.1-1.2c0.2-0.1,0.4,0,0.6,0c0.3,0,0.5,0,0.8,0c0.3,0,0.5,0,0.5,0.4c0,0.2,0.1,0.2,0.3,0.2c0.2,0,0.3,0,0.5,0
			c0.3,0,0.4-0.1,0.5-0.3C48.7,7,48.8,7,49,7c0.4,0,0.7,0,1.1,0c0.8,0,1.3,0.6,1.5,1.2c0.2,0.9,0.4,1.8,0.6,2.7
			c0.1,0.3,0.1,0.5-0.2,0.7c-0.4,0.2-0.8,0.5-1.2,0.7c-0.1-0.5-0.3-0.9-0.3-1.4c-0.1,0.1-0.1,0.3-0.1,0.4c0,0.3,0,0.6,0,0.9
			c0,0.2-0.1,0.4-0.3,0.5c-1.4,0.5-2.8,0.5-4.2,0c-0.2-0.1-0.2-0.2-0.2-0.3c0-0.3,0-0.7,0-1C45.6,11.1,45.7,11,45.5,10.9z"/>
		<path class="st0" d="M46.8,6.6c-0.3,0-0.6,0-0.9,0c-1.1,0-1.7,0.8-1.9,1.7c-0.1,0.6-0.2,1.1-0.3,1.7c0,0.2-0.1,0.2-0.3,0.2
			c-0.4-0.1-0.9-0.2-1.3-0.3c-0.2-0.1-0.2-0.2-0.2-0.3c0-0.4,0-0.9,0-1.3c-0.1,0.3-0.2,0.6-0.2,1c-0.1,0.4-0.1,0.4-0.5,0.2
			c-0.4-0.2-0.7-0.4-1-0.7C40,8.7,39.9,8.6,40,8.5c0.3-1.1,0.5-2.2,0.8-3.3C41,4.7,41.4,4.3,42,4.3c0.4,0,0.8,0,1.2,0
			c0.2,0,0.3,0.1,0.3,0.3c0,0.2,0.1,0.3,0.4,0.3c0.2,0,0.3,0,0.5,0c0.2,0,0.4,0,0.4-0.3c0.1-0.4,0.4-0.2,0.7-0.2
			c0.3,0,0.2,0.2,0.2,0.3c0,0.7,0.3,1.3,0.8,1.7C46.6,6.4,46.7,6.5,46.8,6.6z"/>
		<path class="st0" d="M54.1,8.3c0,0.4,0,0.9,0,1.3c0,0.1,0,0.3-0.2,0.3c-0.4,0.2-0.9,0.3-1.3,0.4c-0.2,0-0.2,0-0.3-0.2
			c-0.1-0.5-0.3-1-0.3-1.5c-0.2-1.3-1-2.1-2.2-1.9c-0.2,0-0.4,0-0.6,0c0.4-0.3,0.7-0.6,0.9-1c0.1-0.3,0.2-0.6,0.2-0.9
			c0-0.1-0.1-0.3,0.2-0.3c0.2,0,0.6-0.2,0.7,0.2c0.1,0.3,0.2,0.4,0.5,0.3c0.1,0,0.3,0,0.4,0c0.2,0,0.4-0.1,0.4-0.3
			c0-0.2,0.1-0.2,0.3-0.2c0.5,0,0.9,0,1.4,0c0.7,0.1,1.1,0.6,1.2,1.2c0.2,1,0.4,2,0.7,2.9c0,0.1,0,0.2-0.1,0.3
			c-0.4,0.3-0.8,0.6-1.2,0.8c-0.1,0.1-0.2,0-0.3-0.1C54.4,9,54.3,8.6,54.1,8.3C54.2,8.2,54.2,8.2,54.1,8.3z"/>
		<path class="st0" d="M46.2,4.6c0-1,0.9-1.9,1.8-1.9c0.9,0,1.8,0.9,1.8,1.9c0,1-0.8,2-1.8,2C47,6.5,46.2,5.6,46.2,4.6z"/>
		<path class="st0" d="M53.6,1.9c0,1-0.8,1.9-1.8,1.9c-1,0-1.8-0.8-1.8-1.9C50,0.9,50.7,0,51.8,0C52.8,0,53.6,0.8,53.6,1.9z"/>
		<path class="st0" d="M46,1.9c0,1.1-0.8,1.9-1.8,1.9c-1,0-1.8-0.9-1.8-1.9c0-1.1,0.8-1.9,1.8-1.9C45.2,0,46,0.9,46,1.9z"/>
	</g>
	<g>
		<path class="st0" d="M72.6,26.2c0,0.5-0.2,0.9-0.3,1.4c-0.5-0.2-1-0.5-1.4-0.9c-0.2-0.2-0.1-0.4,0-0.6c0.3-0.9,0.4-1.7,0.6-2.6
			c0.1-0.6,0.5-1,1.1-1.2c0.2-0.1,0.4,0,0.6,0c0.3,0,0.5,0,0.8,0c0.3,0,0.5,0,0.5,0.4c0,0.2,0.1,0.2,0.3,0.2c0.2,0,0.3,0,0.5,0
			c0.3,0,0.4-0.1,0.5-0.3c0-0.2,0.2-0.3,0.4-0.3c0.4,0,0.7,0,1.1,0c0.8,0,1.3,0.6,1.5,1.2c0.2,0.9,0.4,1.8,0.6,2.7
			c0.1,0.3,0.1,0.5-0.2,0.7c-0.4,0.2-0.8,0.5-1.2,0.7c-0.1-0.5-0.3-0.9-0.3-1.4c-0.1,0.1-0.1,0.3-0.1,0.4c0,0.3,0,0.6,0,0.9
			c0,0.2-0.1,0.4-0.3,0.5c-1.4,0.5-2.8,0.5-4.2,0c-0.2-0.1-0.2-0.2-0.2-0.3c0-0.3,0-0.7,0-1C72.7,26.5,72.7,26.4,72.6,26.2z"/>
		<path class="st0" d="M73.8,22c-0.3,0-0.6,0-0.9,0c-1.1,0-1.7,0.8-1.9,1.7c-0.1,0.6-0.2,1.1-0.3,1.7c0,0.2-0.1,0.2-0.3,0.2
			c-0.4-0.1-0.9-0.2-1.3-0.3c-0.2-0.1-0.2-0.2-0.2-0.3c0-0.4,0-0.9,0-1.3c-0.1,0.3-0.2,0.6-0.2,1c-0.1,0.4-0.1,0.4-0.5,0.2
			c-0.4-0.2-0.7-0.4-1-0.7C67.1,24,67,24,67,23.8c0.3-1.1,0.5-2.2,0.8-3.3c0.2-0.6,0.6-0.9,1.2-0.9c0.4,0,0.8,0,1.2,0
			c0.2,0,0.3,0.1,0.3,0.3c0,0.2,0.1,0.3,0.4,0.3c0.2,0,0.3,0,0.5,0c0.2,0,0.4,0,0.4-0.3c0.1-0.4,0.4-0.2,0.7-0.2
			c0.3,0,0.2,0.2,0.2,0.3c0,0.7,0.3,1.3,0.8,1.7C73.7,21.8,73.7,21.9,73.8,22z"/>
		<path class="st0" d="M81.2,23.6c0,0.4,0,0.9,0,1.3c0,0.1,0,0.3-0.2,0.3c-0.4,0.2-0.9,0.3-1.3,0.4c-0.2,0-0.2,0-0.3-0.2
			c-0.1-0.5-0.3-1-0.3-1.5c-0.2-1.3-1-2.1-2.2-1.9c-0.2,0-0.4,0-0.6,0c0.4-0.3,0.7-0.6,0.9-1c0.1-0.3,0.2-0.6,0.2-0.9
			c0-0.1-0.1-0.3,0.2-0.3c0.2,0,0.6-0.2,0.7,0.2c0.1,0.3,0.2,0.4,0.5,0.3c0.1,0,0.3,0,0.4,0c0.2,0,0.4-0.1,0.4-0.3
			c0-0.2,0.1-0.2,0.3-0.2c0.5,0,0.9,0,1.4,0c0.7,0.1,1.1,0.6,1.2,1.2c0.2,1,0.4,2,0.7,2.9c0,0.1,0,0.2-0.1,0.3
			c-0.4,0.3-0.8,0.6-1.2,0.8c-0.1,0.1-0.2,0-0.3-0.1C81.4,24.4,81.4,24,81.2,23.6C81.3,23.6,81.2,23.6,81.2,23.6z"/>
		<path class="st0" d="M73.2,20c0-1,0.9-1.9,1.8-1.9c0.9,0,1.8,0.9,1.8,1.9c0,1-0.8,2-1.8,2C74.1,21.9,73.2,21,73.2,20z"/>
		<path class="st0" d="M80.7,17.2c0,1-0.8,1.9-1.8,1.9c-1,0-1.8-0.8-1.8-1.9c0-1.1,0.8-1.9,1.8-1.9C79.8,15.3,80.6,16.2,80.7,17.2z"
			/>
		<path class="st0" d="M73.1,17.3c0,1.1-0.8,1.9-1.8,1.9c-1,0-1.8-0.9-1.8-1.9c0-1.1,0.8-1.9,1.8-1.9C72.3,15.4,73.1,16.2,73.1,17.3
			z"/>
	</g>
	<g>
		<path class="st0" d="M17.5,24.6c-0.1,0.4-0.2,0.8-0.3,1.2c0,0.2-0.1,0.2-0.2,0.1c-0.4-0.2-0.9-0.5-1.3-0.9c-0.2-0.2,0-0.4,0-0.6
			c0.2-0.8,0.4-1.6,0.6-2.4c0.1-0.4,0.2-0.7,0.5-1c0.2-0.3,0.6-0.4,0.9-0.4c0.4,0,0.8,0,1.2,0c0.2,0,0.3,0,0.4,0.2
			c0,0.2,0.2,0.3,0.4,0.3c0.1,0,0.3,0,0.4,0c0.2,0,0.4,0,0.4-0.3c0-0.2,0.2-0.3,0.4-0.3c0.4,0,0.7,0,1.1,0c0.8,0,1.3,0.6,1.4,1.2
			c0.2,0.9,0.4,1.8,0.6,2.7c0.1,0.3,0,0.5-0.2,0.7c-0.3,0.2-0.6,0.4-0.9,0.6c-0.2,0.1-0.3,0.2-0.4-0.1c-0.1-0.4-0.2-0.7-0.2-1.1
			c-0.2,0.3-0.1,0.5-0.1,0.8c0,0.9,0,0.9-0.8,1.1c-1.2,0.3-2.4,0.2-3.5-0.1c-0.3-0.1-0.4-0.2-0.3-0.5C17.5,25.4,17.6,25,17.5,24.6z"
			/>
		<path class="st0" d="M26,21.8c0,0.4,0,0.8,0,1.1c0,0.3-0.1,0.4-0.4,0.5c-0.4,0.1-0.7,0.2-1.1,0.3c-0.2,0.1-0.3,0-0.4-0.2
			c-0.1-0.5-0.3-1.1-0.3-1.7c-0.1-0.8-0.8-1.8-1.9-1.7c-0.3,0-0.6,0-0.9,0c0-0.2,0.2-0.2,0.3-0.3c0.5-0.5,0.7-1,0.7-1.7
			c0-0.1-0.1-0.3,0.2-0.3c0.2,0,0.6-0.2,0.7,0.2c0.1,0.3,0.2,0.4,0.5,0.4c0.1,0,0.2,0,0.4,0c0.2,0,0.4-0.1,0.4-0.3
			c0-0.2,0.2-0.3,0.4-0.3c0.3,0,0.6,0,0.9,0c0.9-0.1,1.5,0.5,1.7,1.3c0.2,0.8,0.3,1.6,0.5,2.4c0,0,0,0.1,0,0.1
			c0.3,0.5,0,0.8-0.4,1.1c-0.2,0.1-0.5,0.3-0.7,0.4c-0.2,0.2-0.3,0.1-0.3-0.2C26.3,22.6,26.2,22.2,26,21.8
			C26.1,21.9,26.1,21.9,26,21.8z"/>
		<path class="st0" d="M21.7,18.2c0,1-0.9,1.9-1.8,1.9c-1,0-1.8-0.9-1.8-1.9c0-1.1,0.8-1.9,1.8-1.9C20.9,16.3,21.7,17.2,21.7,18.2z"
			/>
		<path class="st0" d="M23.5,17.4c-0.3,0-0.7-0.1-1-0.5c-0.3-0.4-0.6-0.6-0.7-1.1c-0.1-0.7,0.2-1.5,0.9-1.9c0.6-0.4,1.4-0.3,1.9,0
			c0.2,0.2,0.2,0.4,0.4,0.6c0.2,0.2,0.4,0.4,0.4,0.8C25.6,16.3,24.8,17.4,23.5,17.4z M23.8,14.9C23.7,15,23.6,15,23.6,15
			c-0.1,0.1,0,0.4-0.1,0.4c-0.2,0-0.2-0.2-0.4-0.3c0,0-0.1-0.1-0.2,0c-0.1,0.1,0,0.1,0,0.2c0.2,0.3,0.4,0.5,0.6,0.8
			c0.1,0.1,0.1,0.2,0.2,0.1c0.1-0.1,0-0.2-0.1-0.2c0-0.1-0.1-0.1,0-0.2c0.1-0.1,0.2,0,0.2,0c0.1,0,0.2,0.2,0.4,0
			C24.1,15.5,23.5,15.6,23.8,14.9z M24.9,15c0,0.1,0,0.2-0.1,0.2c-0.1,0-0.2,0-0.2-0.1c-0.1-0.1-0.2-0.3-0.3-0.4
			c0-0.1-0.1-0.1-0.2-0.1c-0.1,0.1,0,0.1,0,0.2c0.1,0.2,0.2,0.3,0.4,0.4c0.1,0.1,0.2,0.2,0.4,0.1c0.4-0.2,0.4-0.4,0.1-0.7
			c0,0,0,0,0-0.1c-0.1-0.1-0.2-0.4-0.3-0.3c-0.2,0.1,0.1,0.3,0.2,0.4C24.7,14.8,24.8,14.9,24.9,15z M23.6,16.4
			c-0.1-0.2-0.3-0.3-0.4-0.5c-0.1-0.1-0.2-0.2-0.3-0.1c-0.2,0.1-0.3,0.3-0.5,0.4c0,0,0,0.1,0,0.1c0.2,0.2,0.3,0.4,0.5,0.6
			c0,0,0.1,0.1,0.2,0c0.1-0.1,0-0.1,0-0.2c-0.1-0.1-0.2-0.2-0.3-0.4c-0.1-0.1-0.1-0.2,0-0.3c0.1-0.1,0.2,0,0.3,0.1
			c0.1,0.1,0.2,0.3,0.3,0.4C23.4,16.4,23.4,16.5,23.6,16.4C23.5,16.4,23.5,16.4,23.6,16.4z"/>
		<path class="st0" d="M23.8,14.9c-0.2,0.6,0.3,0.6,0.6,0.8c-0.1,0.2-0.3,0-0.4,0c-0.1,0-0.2-0.1-0.2,0c-0.1,0.1,0,0.1,0,0.2
			c0,0.1,0.2,0.1,0.1,0.2c-0.1,0.1-0.2-0.1-0.2-0.1c-0.2-0.3-0.4-0.5-0.6-0.8c0,0-0.1-0.1,0-0.2c0.1-0.1,0.1,0,0.2,0
			c0.1,0.1,0.2,0.4,0.4,0.3c0.2,0,0-0.3,0.1-0.4C23.6,15,23.7,15,23.8,14.9z"/>
		<path class="st0" d="M24.9,15c0-0.1-0.1-0.2-0.2-0.3c-0.1-0.1-0.3-0.3-0.2-0.4c0.1-0.1,0.2,0.2,0.3,0.3c0,0,0,0,0,0.1
			c0.3,0.4,0.3,0.5-0.1,0.7c-0.1,0.1-0.3,0-0.4-0.1c-0.1-0.1-0.2-0.3-0.4-0.4c0-0.1-0.1-0.1,0-0.2c0.1-0.1,0.1,0,0.2,0.1
			c0.1,0.1,0.2,0.3,0.3,0.4c0.1,0.1,0.1,0.1,0.2,0.1C24.8,15.2,24.8,15.1,24.9,15z"/>
		<path class="st0" d="M23.6,16.4C23.5,16.4,23.5,16.4,23.6,16.4c-0.1,0.1-0.2,0.1-0.2,0c-0.1-0.1-0.2-0.3-0.3-0.4
			c-0.1-0.1-0.2-0.2-0.3-0.1c-0.1,0.1-0.1,0.2,0,0.3c0.1,0.1,0.2,0.2,0.3,0.4c0,0.1,0.1,0.1,0,0.2c-0.1,0-0.1,0-0.2,0
			c-0.2-0.2-0.3-0.4-0.5-0.6c0,0,0-0.1,0-0.1c0.2-0.1,0.3-0.3,0.5-0.4c0.1-0.1,0.3,0,0.3,0.1C23.3,16,23.4,16.2,23.6,16.4z"/>
	</g>
	<g>
		<path class="st0" d="M21.6,58.4c-0.1,0.5-0.1,0.9,0,1.2c0,0.3-0.1,0.5-0.4,0.5c-1.3,0.4-2.7,0.4-4,0c-0.3-0.1-0.4-0.2-0.4-0.5
			c0-0.4,0-0.8-0.1-1.1c-0.1,0.4-0.2,0.7-0.2,1.1c0,0.3-0.1,0.2-0.3,0.1c-0.4-0.2-0.7-0.5-1.1-0.7c-0.2-0.1-0.2-0.2-0.1-0.4
			c0.1-0.3,0.2-0.7,0.3-1c0.2-0.6,0.3-1.2,0.4-1.8c0.1-0.6,0.6-1.2,1.4-1.2c0.4,0,0.8,0,1.2,0c0.2,0,0.3,0.1,0.4,0.3
			c0,0.2,0.2,0.3,0.4,0.3c0.1,0,0.3,0,0.4,0c0.2,0,0.4-0.1,0.4-0.3c0-0.2,0.1-0.2,0.3-0.2c0.4,0,0.8,0,1.2,0c0.8,0,1.3,0.6,1.4,1.2
			c0.2,0.9,0.3,1.8,0.6,2.6c0.1,0.3,0.1,0.6-0.3,0.7c-0.3,0.2-0.6,0.4-1,0.6c-0.1,0.1-0.2,0.1-0.3-0.1
			C21.8,59.3,21.7,58.9,21.6,58.4z M20.1,57.7c-0.1-0.3-0.1-0.5-0.2-0.8c0-0.3-0.1-0.5-0.1-0.8c-0.2-0.8-0.2-0.8-1-0.8
			c-0.2,0-0.2,0.1-0.3,0.2c-0.2,0.9-0.3,1.7-0.5,2.6c0,0.1,0,0.2,0.1,0.2c0.3,0.2,0.6,0.4,0.9,0.6c0.1,0.1,0.1,0.1,0.2,0
			c0.3-0.2,0.5-0.4,0.8-0.6c0.1-0.1,0.1-0.5,0-0.5c-0.6-0.1-1-0.5-1.5-0.8c-0.1,0-0.1-0.1-0.1-0.2c0-0.1,0.1-0.1,0.2,0
			c0.4,0.3,0.8,0.5,1.3,0.7c0.1,0,0.1,0.1,0.2,0.1C20.1,57.8,20.1,57.7,20.1,57.7z"/>
		<path class="st0" d="M20.4,54.2c0-0.2,0.1-0.2,0.2-0.2c0.5-0.5,0.8-1,0.8-1.8c0-0.1-0.1-0.3,0.1-0.3c0.2,0,0.6-0.2,0.7,0.2
			c0.1,0.3,0.2,0.4,0.5,0.4c0.1,0,0.3,0,0.4,0c0.2,0,0.4-0.1,0.4-0.3c0-0.3,0.2-0.3,0.4-0.3c0.4,0,0.7,0,1.1,0
			c0.6,0,1.1,0.4,1.4,0.9c0.2,0.6,0.2,1.2,0.4,1.8c0.1,0.4,0.2,0.9,0.3,1.4c0.1,0.2,0,0.3-0.1,0.4c-0.4,0.3-0.7,0.5-1.1,0.7
			c-0.3,0.1-0.3,0-0.3-0.2c-0.1-0.4-0.1-0.7-0.3-1.1c0,0.4,0,0.9,0,1.3c0,0.2-0.1,0.3-0.3,0.4c-0.4,0.1-0.8,0.2-1.2,0.3
			c-0.2,0-0.3,0-0.4-0.2c0-0.2-0.1-0.4-0.1-0.6c-0.2-0.5,0-0.8,0.4-1c0.2-0.1,0.3-0.3,0.2-0.6c-0.2-0.7-0.3-1.4-0.4-2.1
			c-0.1-0.5-0.1-0.5-0.6-0.5c-0.7,0-0.7,0-0.7,0.7c0,0.3,0,0.6-0.2,0.8c-0.2,0.3-0.5,0-0.7,0C21.1,54.2,20.8,54.2,20.4,54.2z"/>
		<path class="st0" d="M22.9,51.4c-1,0-1.8-0.9-1.8-1.9c0-1.1,0.8-1.9,1.8-1.9c1,0,1.8,0.9,1.8,1.9C24.7,50.5,23.9,51.4,22.9,51.4z"
			/>
		<path class="st0" d="M17.3,52.1c0-1.1,0.8-1.9,1.8-1.9c1,0,1.8,0.9,1.8,1.9c0,1-0.8,1.9-1.8,1.9C18.2,54.1,17.3,53.2,17.3,52.1z"
			/>
		<path class="st0" d="M22.3,54.3c0.6,0.2,1.1,0.5,1.5,0.9C23.2,55,22.7,54.8,22.3,54.3z"/>
		<path class="st0" d="M23.6,54.3c0,0.1-0.1,0.1-0.1,0.1c-0.4-0.2-0.7-0.4-1.1-0.6c-0.1,0-0.1-0.1,0-0.2c0-0.1,0.1,0,0.1,0
			c0.3,0.2,0.6,0.4,1,0.6C23.6,54.2,23.6,54.3,23.6,54.3z"/>
		<path class="st0" d="M23.4,53.6c-0.3-0.2-0.6-0.4-0.9-0.5c0,0,0-0.1,0-0.1c0,0,0.1,0,0.1,0c0.3,0.2,0.5,0.3,0.8,0.5
			C23.5,53.4,23.5,53.5,23.4,53.6C23.5,53.5,23.4,53.6,23.4,53.6z"/>
		<path class="st1" d="M23.1,55.5c0.1,0,0.2,0.1,0.2,0.1c0.1,0.1,0.2,0,0.2,0.2c0,0,0,0.1-0.1,0.1c-0.1,0-0.2-0.1-0.3-0.1
			C23.1,55.7,23.1,55.6,23.1,55.5z"/>
		<path class="st2" d="M20.1,57.7c0,0,0,0.1,0,0.2c-0.1,0.1-0.1,0-0.2-0.1c-0.4-0.3-0.8-0.5-1.3-0.7c-0.1-0.1-0.2-0.1-0.2,0
			c0,0,0,0.1,0.1,0.2c0.5,0.2,0.9,0.7,1.5,0.8c0.1,0,0.1,0.4,0,0.5c-0.3,0.2-0.5,0.4-0.8,0.6c-0.1,0.1-0.1,0.1-0.2,0
			c-0.3-0.2-0.6-0.4-0.9-0.6c-0.1-0.1-0.1-0.1-0.1-0.2c0.2-0.9,0.3-1.7,0.5-2.6c0-0.2,0.1-0.2,0.3-0.2c0.8,0,0.8,0,1,0.8
			c0.1,0.3,0.1,0.5,0.1,0.8C20,57.2,20.1,57.4,20.1,57.7z M18.3,57.8C18.3,57.8,18.4,57.9,18.3,57.8c0.4,0.3,0.8,0.6,1.3,0.8
			c0,0,0.1,0,0.1,0c0-0.1,0-0.1-0.1-0.2c-0.4-0.2-0.8-0.4-1.1-0.7C18.4,57.7,18.3,57.7,18.3,57.8z M19.9,57.1c0-0.1-0.1-0.2-0.2-0.2
			c-0.3-0.2-0.6-0.3-0.9-0.5c-0.1,0-0.1-0.1-0.2,0c0,0.1,0,0.2,0.1,0.2c0.3,0.2,0.7,0.4,1,0.6C19.8,57.2,19.9,57.2,19.9,57.1z
			 M19.7,56.3c0.1-0.2,0-0.2-0.1-0.3c-0.2-0.1-0.4-0.2-0.6-0.3c-0.1,0-0.1-0.1-0.2,0c-0.1,0.1,0,0.2,0.1,0.2
			C19.1,56,19.4,56.1,19.7,56.3z"/>
		<path class="st1" d="M18.3,57.8c0-0.1,0.1-0.2,0.2-0.1c0.4,0.2,0.8,0.4,1.1,0.7c0.1,0,0.1,0.1,0.1,0.2c0,0.1-0.1,0-0.1,0
			C19.2,58.4,18.8,58.1,18.3,57.8C18.4,57.9,18.3,57.8,18.3,57.8z"/>
		<path class="st1" d="M19.9,57.1c0,0.1-0.1,0.1-0.2,0.1c-0.3-0.2-0.7-0.4-1-0.6c-0.1,0-0.1-0.1-0.1-0.2c0.1-0.1,0.2,0,0.2,0
			c0.3,0.2,0.6,0.3,0.9,0.5C19.8,56.9,19.8,57,19.9,57.1z"/>
		<path class="st1" d="M19.7,56.3c-0.3-0.2-0.6-0.3-0.8-0.5c-0.1,0-0.2-0.1-0.1-0.2c0.1-0.1,0.1,0,0.2,0c0.2,0.1,0.4,0.2,0.6,0.3
			C19.6,56.1,19.8,56.1,19.7,56.3z"/>
	</g>
	<g>
		<path class="st0" d="M48.1,72.2c-0.1,0.6-0.1,1.2-0.2,1.8c0,0.2,0.1,0.3,0.2,0.5c0.1,0.2,0,0.2-0.1,0.3c-1.3,0.4-2.5,0.4-3.8,0
			c-0.1,0-0.2-0.1-0.2-0.2c0.4-0.7,0-1.4,0-2c0-0.1,0-0.2-0.1-0.3c-0.2,0.4-0.4,0.8-0.6,1.2c-0.1,0.1-0.1,0.2-0.2,0.3
			c-0.3,0.6-0.3,0.6-0.9,0.2c-0.2-0.2-0.6-0.3-0.7-0.6c-0.1-0.3,0.2-0.5,0.4-0.8c0.5-0.8,0.9-1.7,1.4-2.5c0.3-0.6,1.1-1,1.8-0.9
			c0.2,0,0.2,0.1,0.3,0.3c0.1,0.2,0.2,0.3,0.4,0.3c0.1,0,0.2,0,0.4,0c0.3,0,0.5,0,0.5-0.3c0-0.1,0.1-0.2,0.2-0.2
			c0.7-0.1,1.4,0.3,1.8,0.9c0.5,1,1.1,2,1.6,3c0,0.1,0.1,0.1,0.1,0.2c0,0.1,0,0.1-0.1,0.1c0,0-0.1,0-0.1,0c-0.4-0.3-0.8-0.1-0.8,0.4
			c0,0.1,0,0.1,0,0.2c0,0.1-0.1,0.3-0.2,0.3c-0.2,0-0.2-0.1-0.2-0.2c-0.3-0.5-0.5-1.1-0.8-1.6C48.2,72.3,48.2,72.2,48.1,72.2z
			 M46.1,69.9c-0.5,0-0.5,0-0.6,0.5c-0.1,0.7-0.3,1.5-0.4,2.2c0,0.2,0,0.3,0.1,0.4c0.3,0.2,0.6,0.6,0.9,0.6c0.3,0,0.6-0.4,0.9-0.6
			c0,0,0.1,0,0.1-0.1c0.1-0.1,0.1-0.2,0.1-0.3c-0.1-0.8-0.3-1.5-0.4-2.3C46.6,69.9,46.6,69.9,46.1,69.9z"/>
		<path class="st0" d="M52,69.5c-0.1,0-0.1,0.1-0.1,0.2c0,0.5-0.1,1-0.1,1.5c0,0.1,0,0.2,0.1,0.3c0.2,0.5,0.2,0.5-0.3,0.6
			c0,0,0,0-0.1,0c-0.9,0.2-0.9,0.2-1.3-0.6c-0.1-0.2-0.2-0.4-0.3-0.6c0.5-0.2,0.8-0.5,1.2-0.8c0.1-0.1,0-0.2,0-0.3
			c-0.1-0.8-0.3-1.6-0.4-2.3c0-0.3-0.1-0.4-0.5-0.4c-0.7,0-0.7,0-0.8,0.7c-0.1,0.4-0.2,0.9-0.2,1.3c0,0.2-0.1,0.2-0.3,0.1
			c-0.4-0.3-0.8-0.6-1.4-0.6c0-0.1,0-0.1,0.1-0.2c0.6-0.4,0.9-1,0.9-1.8c0-0.2,0-0.4,0.2-0.4c0.2,0,0.6-0.2,0.6,0.2
			c0,0.2,0.2,0.3,0.4,0.3c0.1,0,0.3,0,0.4,0c0.2,0,0.4-0.1,0.4-0.3c0-0.2,0.1-0.3,0.3-0.3c0.7,0,1.3,0.3,1.7,1c0.5,1,1.1,2,1.6,2.9
			c0.1,0.2,0.1,0.3-0.1,0.5c-0.3,0.2-0.6,0.4-0.9,0.6c-0.2,0.1-0.2,0.1-0.3-0.1C52.6,70.7,52.3,70.1,52,69.5z"/>
		<path class="st0" d="M49.9,65.9c-1,0-1.8-0.9-1.8-1.9c0-1,0.8-1.9,1.8-1.9c1,0,1.8,0.9,1.8,1.9C51.7,65,50.9,65.9,49.9,65.9z"/>
		<path class="st0" d="M44.3,66.6c0-1.1,0.8-1.9,1.8-1.9c1,0,1.8,0.9,1.8,1.9c0,1-0.8,1.9-1.8,1.9C45.1,68.6,44.3,67.7,44.3,66.6z"
			/>
		<path class="st0" d="M50.5,70.3c0,0.1-0.1,0.1-0.2,0.1c-0.4-0.2-0.8-0.4-1.1-0.7c-0.1,0-0.1-0.1-0.1-0.2c0,0,0.1,0,0.2,0
			C49.6,69.8,50,70,50.5,70.3C50.5,70.2,50.5,70.3,50.5,70.3z"/>
		<path class="st0" d="M50.6,68.8c0,0.1-0.1,0.1-0.1,0.1c-0.3-0.2-0.7-0.4-1-0.6c-0.1,0-0.2-0.1-0.1-0.2c0.1-0.1,0.1,0,0.2,0.1
			c0.3,0.2,0.6,0.3,0.9,0.5C50.5,68.7,50.6,68.7,50.6,68.8z"/>
		<path class="st0" d="M50.7,69.8c-0.4-0.2-0.8-0.4-1.1-0.6c0,0-0.1-0.1-0.1-0.1c0-0.1,0.1-0.1,0.1-0.1c0.4,0.2,0.8,0.3,1.1,0.7
			C50.8,69.7,50.7,69.8,50.7,69.8z"/>
		<path class="st0" d="M50.4,67.9c0,0.2-0.1,0.1-0.2,0.1c-0.2-0.1-0.5-0.3-0.7-0.4c-0.1,0-0.1-0.1-0.1-0.2c0-0.1,0.1,0,0.2,0
			c0.2,0.1,0.5,0.3,0.7,0.4C50.4,67.9,50.4,67.9,50.4,67.9z"/>
		<path class="st2" d="M46.1,69.9c0.5,0,0.5,0,0.6,0.5c0.1,0.8,0.3,1.5,0.4,2.3c0,0.1,0,0.2-0.1,0.3c0,0-0.1,0-0.1,0.1
			c-0.3,0.2-0.6,0.6-0.9,0.6c-0.3,0-0.6-0.4-0.9-0.6c-0.1-0.1-0.2-0.2-0.1-0.4c0.1-0.7,0.3-1.5,0.4-2.2
			C45.6,69.9,45.6,69.9,46.1,69.9z M46.9,72.5c0-0.1,0-0.2-0.1-0.2c-0.4-0.2-0.8-0.5-1.2-0.7c-0.1,0-0.1,0-0.2,0
			c0,0.1,0,0.1,0.1,0.2C45.9,72,46.4,72.3,46.9,72.5z M46.9,71.7c-0.1-0.1-0.1-0.2-0.1-0.2c-0.3-0.3-0.7-0.5-1.1-0.7
			c0,0-0.1,0-0.1,0c0,0.1,0,0.2,0.1,0.2C46,71.2,46.4,71.5,46.9,71.7z M45.4,72.2c-0.1,0-0.1,0-0.1,0.1c0,0.1,0,0.1,0.1,0.1
			c0.4,0.2,0.7,0.4,1.1,0.6c0.1,0,0.1,0.1,0.2,0c0-0.1,0-0.1-0.1-0.2c-0.3-0.2-0.6-0.3-0.8-0.5C45.6,72.3,45.5,72.3,45.4,72.2z
			 M46.6,70.8c0.1-0.2-0.1-0.3-0.2-0.3c-0.2-0.1-0.4-0.2-0.6-0.3c-0.1,0-0.2-0.2-0.2,0c-0.1,0.1,0.1,0.2,0.1,0.2
			C46.1,70.5,46.3,70.6,46.6,70.8z"/>
		<path class="st0" d="M46.9,72.5c-0.5-0.2-0.9-0.5-1.4-0.8c-0.1,0-0.1-0.1-0.1-0.2c0,0,0.1,0,0.2,0c0.4,0.2,0.8,0.5,1.2,0.7
			C46.9,72.3,46.8,72.4,46.9,72.5z"/>
		<path class="st0" d="M46.9,71.7c-0.5-0.3-0.9-0.5-1.3-0.7c-0.1,0-0.1-0.1-0.1-0.2c0-0.1,0.1,0,0.1,0c0.4,0.2,0.8,0.4,1.1,0.7
			C46.8,71.5,46.8,71.6,46.9,71.7z"/>
		<path class="st0" d="M45.4,72.2c0.1,0.1,0.2,0.1,0.3,0.2c0.3,0.2,0.6,0.3,0.8,0.5c0.1,0,0.1,0.1,0.1,0.2c0,0.1-0.1,0-0.2,0
			c-0.4-0.2-0.7-0.4-1.1-0.6c0,0-0.1-0.1-0.1-0.1C45.3,72.2,45.3,72.2,45.4,72.2z"/>
		<path class="st0" d="M46.6,70.8c-0.3-0.2-0.5-0.3-0.8-0.5c-0.1,0-0.2-0.1-0.1-0.2c0.1-0.1,0.2,0,0.2,0c0.2,0.1,0.4,0.2,0.6,0.3
			C46.6,70.5,46.7,70.6,46.6,70.8z"/>
	</g>
	<g>
		<path class="st0" d="M75.9,57c-0.1,0.6-0.1,1.2-0.2,1.7c0,0.1,0,0.2,0.1,0.3c0.2,0.4,0.2,0.4-0.3,0.6c-1.1,0.3-2.3,0.3-3.4-0.1
			c-0.2-0.1-0.3-0.1-0.2-0.3c0.1-0.2,0.1-0.4,0.1-0.7c-0.1-0.5-0.1-1-0.3-1.5c-0.2,0.4-0.4,0.7-0.6,1.1c-0.1,0.1-0.1,0.3-0.2,0.4
			c-0.2,0.5-0.2,0.5-0.7,0.2c-0.2-0.2-0.5-0.3-0.7-0.5c-0.2-0.1-0.2-0.2-0.1-0.4c0.5-1,1.1-1.9,1.6-2.9c0.4-0.7,1.1-1.1,1.8-1
			c0.2,0,0.2,0.1,0.3,0.2c0.1,0.3,0.2,0.4,0.5,0.3c0.1,0,0.3,0,0.4,0c0.2,0,0.3-0.1,0.4-0.3c0.1-0.3,0.2-0.3,0.5-0.3
			c0.9,0,1.4,0.6,1.8,1.3c0.5,0.9,0.9,1.8,1.4,2.6c0.1,0.2,0.1,0.3-0.1,0.4c-0.3,0.2-0.6,0.4-0.9,0.6c-0.3,0.2-0.3,0-0.4-0.2
			c-0.3-0.5-0.5-1-0.7-1.5C76,57.1,76,57,75.9,57z M73.8,54.6c-0.5,0-0.5,0-0.6,0.5c-0.1,0.6-0.2,1.1-0.3,1.7
			c-0.1,0.8-0.1,0.8,0.5,1.3c0.1,0.1,0.2,0.1,0.2,0.2c0.1,0.1,0.3,0.1,0.4,0c0.2-0.2,0.5-0.4,0.7-0.6c0.1-0.1,0.1-0.2,0.1-0.3
			c-0.2-0.9-0.3-1.7-0.5-2.6c0-0.2-0.1-0.2-0.3-0.2C74,54.6,73.9,54.6,73.8,54.6z"/>
		<path class="st0" d="M69.2,54.2c-0.3,0.4-0.3,0.7,0.1,0.9c0.3,0.2,0.5,0.4,0.8,0.6c0.1,0.1,0,0.1,0,0.2c-0.2,0.3-0.4,0.7-0.6,1
			C69.4,57,69.4,57,69.2,57c-0.4,0-0.7-0.2-1.1-0.2c-0.2,0-0.1-0.1-0.1-0.3c0.3-0.7,0-1.4,0-2.2c0,0,0-0.1-0.1-0.1
			c-0.3,0.6-0.6,1.2-0.9,1.8c-0.1,0.2-0.2,0.2-0.3,0.1c-0.3-0.2-0.7-0.5-1-0.7c-0.1-0.1-0.2-0.2-0.1-0.3c0.6-1.1,1.2-2.2,1.8-3.2
			c0.3-0.5,1.1-0.8,1.7-0.7c0.2,0,0.2,0.1,0.2,0.3c0,0.2,0.1,0.3,0.3,0.3c0.2,0,0.3,0,0.5,0c0.3,0,0.4,0,0.5-0.3
			c0.1-0.4,0.4-0.2,0.6-0.2c0.2,0,0.2,0.1,0.2,0.3c0,0.8,0.1,1.1,1,2c-0.6,0.1-1.1,0.3-1.5,0.7c-0.1,0.1-0.2,0.1-0.2-0.1
			c0-0.5-0.2-1-0.3-1.5c-0.1-0.5-0.1-0.5-0.6-0.5c-0.6,0-0.6,0-0.7,0.6c-0.1,0.5-0.2,1-0.2,1.5C69.1,54,69.1,54.1,69.2,54.2
			L69.2,54.2z"/>
		<path class="st0" d="M79.7,54.2c-0.2,0.1-0.1,0.3-0.1,0.5c0,0.3,0,0.7-0.1,1c-0.1,0.3,0,0.5,0.1,0.8c0.1,0.2,0,0.2-0.1,0.3
			c0,0,0,0-0.1,0c-1.5,0.4-1,0.4-1.8-0.9c-0.1-0.1-0.1-0.2,0.1-0.3c0.3-0.2,0.5-0.4,0.7-0.5c0.3-0.1,0.3-0.3,0.2-0.6
			c-0.1-0.3-0.1-0.7-0.2-1c0-0.1,0-0.1,0-0.2c0.1-0.1,0.1,0,0.2,0.1c0.1,0.1,0.2,0.2,0.3,0.1c0.1-0.1,0-0.2-0.1-0.3
			c-0.2-0.4-0.6-0.7-0.7-1.1c0-0.2-0.1-0.3,0.1-0.4c0.2-0.1,0.4-0.1,0.5,0.1c0.2,0.3,0.4,0.5,0.6,0.8c0.1,0.1,0.1,0.1,0.2,0.2
			c0.1,0.1,0.2,0.1,0.2,0c0.1-0.1,0.1-0.1,0-0.2c-0.4-0.4-0.7-1-1.2-1.4c0.3-0.1,0.5-0.1,0.7,0.1c0.2,0.2,0.3,0.4,0.5,0.6
			c0,0,0.1,0.1,0.1,0.1c0.7,0.1,0.8,0.7,1,1.2c0.3,0.6,0.6,1.2,1,1.7c0.1,0.2,0.1,0.3-0.1,0.4c-0.3,0.2-0.6,0.5-1,0.7
			c-0.1,0.1-0.2,0.1-0.3-0.1C80.3,55.4,80,54.8,79.7,54.2z"/>
		<path class="st0" d="M75.7,51.4c0,1-0.9,1.9-1.8,1.9c-1,0-1.8-0.9-1.8-1.9c0-1,0.9-1.9,1.8-1.9C74.8,49.5,75.7,50.4,75.7,51.4z"/>
		<path class="st0" d="M79.4,48.6c0,1-0.8,1.9-1.8,1.9c-1,0-1.8-0.8-1.8-1.9c0-1.1,0.8-1.9,1.8-1.9C78.6,46.8,79.4,47.6,79.4,48.6z"
			/>
		<path class="st0" d="M70.1,46.8c1,0,1.8,0.9,1.8,1.9c0,1.1-0.9,1.9-1.8,1.9c-1,0-1.8-0.9-1.8-1.9C68.3,47.6,69.1,46.7,70.1,46.8z"
			/>
		<path class="st0" d="M75,53.4c0.4-0.3,0.7-0.7,0.9-1.1c0.1-0.3,0.2-0.6,0.2-0.9c0-0.2,0-0.3,0.2-0.3c0.2,0,0.5-0.2,0.6,0.1
			c0.1,0.2,0.1,0.4,0.4,0.4c0.1,0,0.1,0.1,0.1,0.2c0,0.1-0.1,0.1-0.1,0.1c-0.2,0-0.3,0.2-0.3,0.3c-0.1,0.5-0.2,1-0.2,1.5
			c0,0.1,0,0.3-0.1,0.3c-0.1,0.1-0.2-0.1-0.2-0.2C76,53.6,75.6,53.4,75,53.4z"/>
		<path class="st0" d="M69.2,54.2c0.5,0.2,0.9,0.5,1.4,0.7c0.1,0,0.1,0.1,0.1,0.2c0,0.1-0.1,0.1-0.2,0c-0.4-0.2-0.7-0.4-1.1-0.6
			C69.2,54.4,69.2,54.3,69.2,54.2L69.2,54.2z"/>
		<path class="st0" d="M70.9,54.6c-0.5-0.3-0.9-0.5-1.4-0.8c-0.1-0.1-0.2-0.1-0.1-0.2c0.1-0.1,0.2,0,0.2,0c0.3,0.2,0.7,0.4,1,0.6
			C70.8,54.3,71,54.3,70.9,54.6z"/>
		<path class="st0" d="M78.4,54.6C78,54.2,77.5,54,77,53.7c-0.1,0-0.1-0.1-0.1-0.2c0-0.1,0.1-0.1,0.2,0c0.1,0.1,0.3,0.1,0.4,0.2
			c0.2,0.2,0.5,0.4,0.8,0.5C78.4,54.3,78.6,54.4,78.4,54.6z"/>
		<path class="st0" d="M76.9,54.2c0,0,0.1,0.1,0.1,0.1c0.3,0.2,0.7,0.4,1,0.6c0.1,0,0.2,0.1,0.1,0.2c-0.1,0.1-0.1,0-0.2,0
			c-0.4-0.2-0.7-0.4-1.1-0.6c0,0-0.1-0.1-0.1-0.1C76.8,54.2,76.8,54.2,76.9,54.2z"/>
		<path class="st0" d="M70.8,53.6c0,0.1-0.1,0.2-0.2,0.1c-0.4-0.2-0.7-0.4-1-0.7c0,0-0.1-0.1,0-0.1c0-0.1,0.1,0,0.2,0
			C70,53.1,70.3,53.3,70.8,53.6C70.7,53.5,70.7,53.5,70.8,53.6z"/>
		<path class="st0" d="M70.6,52.8c-0.4-0.1-0.6-0.3-0.9-0.4c-0.1,0-0.1-0.1-0.1-0.2c0.1-0.1,0.1,0,0.2,0
			C70.1,52.3,70.4,52.4,70.6,52.8z"/>
		<path class="st0" d="M78.1,52.8c-0.3-0.2-0.7-0.3-0.9-0.7C77.6,52.2,78,52.5,78.1,52.8z"/>
		<path class="st1" d="M78.5,53.2C78.5,53.2,78.5,53.2,78.5,53.2C78.4,53.2,78.4,53.2,78.5,53.2C78.4,53.2,78.4,53.2,78.5,53.2
			C78.5,53.2,78.5,53.2,78.5,53.2z"/>
		<path class="st2" d="M73.8,54.6c0.1,0,0.2,0,0.3,0c0.2,0,0.2,0,0.3,0.2c0.1,0.9,0.3,1.7,0.5,2.6c0,0.1,0,0.2-0.1,0.3
			c-0.2,0.2-0.5,0.4-0.7,0.6c-0.1,0.1-0.3,0.1-0.4,0c-0.1-0.1-0.2-0.1-0.2-0.2c-0.7-0.5-0.7-0.5-0.5-1.3c0.1-0.6,0.2-1.1,0.3-1.7
			C73.3,54.6,73.3,54.6,73.8,54.6z M74.7,57.3c0-0.2,0-0.3-0.1-0.3c-0.4-0.2-0.8-0.4-1.2-0.7c-0.1,0-0.1-0.2-0.2,0
			c-0.1,0.1,0,0.2,0.1,0.2C73.7,56.7,74.2,57,74.7,57.3z M73.3,55.5c0,0.3,0.9,0.9,1.3,0.9C74.2,55.9,73.7,55.8,73.3,55.5z
			 M74.4,57.7C74.4,57.7,74.4,57.6,74.4,57.7c-0.4-0.3-0.8-0.5-1.2-0.7c0,0-0.1,0-0.1,0c0,0,0,0.1,0.1,0.2c0.4,0.2,0.8,0.4,1.1,0.7
			C74.3,57.9,74.4,57.8,74.4,57.7z M74.4,55.4C74.4,55.4,74.4,55.3,74.4,55.4c-0.3-0.3-0.6-0.4-0.9-0.6c0,0-0.1,0-0.1,0
			c0,0.1,0,0.1,0.1,0.2c0.3,0.2,0.5,0.3,0.8,0.4C74.3,55.5,74.4,55.5,74.4,55.4z"/>
		<path class="st0" d="M74.7,57.3c-0.5-0.3-0.9-0.5-1.4-0.8c-0.1,0-0.2-0.1-0.1-0.2c0.1-0.1,0.1,0,0.2,0c0.4,0.2,0.8,0.4,1.2,0.7
			C74.6,57,74.7,57.1,74.7,57.3z"/>
		<path class="st0" d="M73.3,55.5c0.4,0.3,0.9,0.4,1.3,0.9C74.2,56.3,73.3,55.7,73.3,55.5z"/>
		<path class="st0" d="M74.4,57.7c0,0.1-0.1,0.2-0.2,0.1c-0.4-0.2-0.8-0.4-1.1-0.7c0,0-0.1-0.1-0.1-0.2c0-0.1,0.1-0.1,0.1,0
			C73.6,57.2,74,57.4,74.4,57.7C74.4,57.6,74.4,57.7,74.4,57.7z"/>
		<path class="st0" d="M74.4,55.4c0,0.1-0.1,0.1-0.1,0.1c-0.3-0.1-0.5-0.3-0.8-0.4c-0.1,0-0.1-0.1-0.1-0.2c0,0,0.1-0.1,0.1,0
			C73.8,55,74.1,55.1,74.4,55.4C74.4,55.3,74.4,55.4,74.4,55.4z"/>
	</g>
	<g>
		<circle class="st3" cx="48" cy="44.3" r="1.5"/>
		<circle class="st3" cx="48" cy="30.8" r="1.5"/>
		<path class="st4" d="M46.5,42.6c-2.2-0.7-3.8-2.7-3.8-5.1c0-2.4,1.6-4.4,3.8-5.1c-0.5-0.4-0.8-1-0.8-1.7c0-0.4,0.1-0.8,0.3-1.2
			c0,0,0,0,0,0c-3.6,0.9-6.2,4.1-6.2,7.9c0,3.8,2.7,7.1,6.2,7.9c0,0,0,0,0,0c-0.2-0.3-0.3-0.7-0.3-1.2C45.7,43.6,46,43,46.5,42.6z"
			/>
		<path class="st4" d="M49.9,29.6c0.2,0.3,0.3,0.7,0.3,1.2c0,0.7-0.3,1.3-0.8,1.7c2.2,0.7,3.8,2.7,3.8,5.1c0,2.4-1.6,4.4-3.8,5.1
			c0.5,0.4,0.8,1,0.8,1.7c0,0.4-0.1,0.8-0.3,1.2c3.6-0.9,6.2-4.1,6.2-7.9C56.2,33.7,53.5,30.5,49.9,29.6z"/>
	</g>
	<line class="st5" x1="39.1" y1="32.8" x2="29" y2="26.6"/>
	<line class="st5" x1="48" y1="15.6" x2="48" y2="28.1"/>
	<line class="st5" x1="48" y1="47" x2="48" y2="59.5"/>
	<line class="st5" x1="29" y1="48.5" x2="39.8" y2="42.3"/>
	<line class="st5" x1="56.2" y1="32.8" x2="67" y2="26.6"/>
	<line class="st5" x1="67" y1="48.5" x2="56.2" y2="42.3"/>
</g>
</svg>
