<?xml version="1.0" encoding="utf-8"?>
<!-- Generator: Adobe Illustrator 21.1.0, SVG Export Plug-In . SVG Version: 6.00 Build 0)  -->
<svg version="1.1" id="Layer_1" xmlns="http://www.w3.org/2000/svg" xmlns:xlink="http://www.w3.org/1999/xlink" x="0px" y="0px"
	 viewBox="0 0 120 105.5" style="enable-background:new 0 0 120 105.5;" xml:space="preserve">
<style type="text/css">
	.st0{fill:#25668E;}
</style>
<g>
	<path class="st0" d="M27.4,17.1c-1.9-1.8-3-3.7-3.3-6c-0.5-3,0-5.9,1.9-8.4c2.7-3.5,7-3.6,9.8-0.2c3,3.8,2.9,10.1-0.4,13.6
		c-0.2,0.3-0.5,0.5-0.9,1c1.7,0.8,3.2,1.7,4.8,2.3c3.9,1.2,5.6,4.1,6.3,7.9c0.2,1.4,0,1.9-1.4,2.1c-3.4,0.6-6.9,1.1-10.4,1.4
		c-5.2,0.4-10.4-0.1-15.5-1.2c-2.2-0.4-2.3-0.8-1.9-3c0.6-3.3,2.2-5.9,5.6-7C23.8,19,25.4,18,27.4,17.1z"/>
	<path class="st0" d="M39.5,91.7c-3.5-3.6-4.2-7.6-2.7-12c1.3-4,4.8-6,8.1-4.9c2.7,1,4.1,3.1,4.8,5.7c1.1,4,0.3,6.9-2.9,11.1
		c0.5,0.3,1.1,0.6,1.6,0.9c1.4,0.7,2.8,1.4,4.2,1.9c3.8,1.4,4.7,4.6,5.2,8.1c0.1,1-0.6,1.3-1.4,1.4c-2.5,0.4-4.9,0.9-7.4,1.2
		c-6.1,0.6-12.2,0.3-18.2-0.9c-2.6-0.5-2.8-0.9-2.2-3.5c0.7-3.2,2.3-5.5,5.5-6.7C35.9,93.5,37.6,92.6,39.5,91.7z"/>
	<path class="st0" d="M18.4,53.3c1.7,0.8,3.4,1.8,5.2,2.4c3.7,1.3,5.2,4.1,5.8,7.6c0.3,1.6,0,2.1-1.6,2.4c-2.7,0.5-5.3,0.9-8,1.1
		C13.8,67.3,7.8,67,2,65.7c-2.1-0.5-2.2-0.7-1.8-2.7c0.6-3.4,2.1-6.1,5.6-7.3c1.8-0.6,3.5-1.6,5.5-2.5c-2.6-2.4-3.6-5.2-3.5-8.4
		c0.1-2.4,0.8-4.6,2.4-6.4c2.7-3.1,6.7-3.1,9.3,0c3.2,3.7,3.1,10.2-0.3,13.8c-0.2,0.2-0.5,0.4-0.8,0.6C18.3,53,18.4,53.2,18.4,53.3z
		"/>
	<path class="st0" d="M101.6,68.9c-3.5-3.6-4.1-7.8-2.5-12.3c0.9-2.3,2.4-4,4.9-4.6c2.6-0.6,5.1,0.7,6.7,3.3
		c2.1,3.4,2.5,9.3-1.8,13.5c0.3,0.2,0.6,0.4,0.9,0.6c1.7,0.8,3.4,1.7,5.1,2.4c2.3,0.9,3.7,2.6,4.4,4.9c1.2,4.3,1.3,4.3-2.9,5
		c-8,1.4-15.9,1.3-23.8-0.3c-2.1-0.4-2.3-0.8-1.8-3c0.3-1.2,0.7-2.3,1.2-3.4c0.6-1.4,1.6-2.4,3.1-3c1.7-0.7,3.4-1.5,5.1-2.3
		C100.5,69.6,101,69.2,101.6,68.9z"/>
	<path class="st0" d="M95.7,21c-2.2-2.1-3.3-4.4-3.5-7.2C92,11,92.6,8.5,94.3,6.4c2.7-3.4,7.1-3.3,9.7,0.1c3.1,4,2.8,10.2-0.7,13.8
		c-0.2,0.2-0.3,0.4-0.6,0.7c1.8,0.9,3.5,1.8,5.3,2.4c3.8,1.3,5.2,4.2,5.8,7.8c0.2,1.3-0.3,1.9-1.5,2.1c-2,0.4-4,0.8-6,1
		c-6.4,0.7-12.8,0.5-19.2-0.7c-2.8-0.5-3.1-0.9-2.4-3.8c0.7-3,2.2-5.2,5.2-6.3C91.9,22.9,93.7,21.9,95.7,21z"/>
	<path class="st0" d="M56.8,47.3c0.3,0.3,0.4,0.5,0.6,0.8c3.3,3.9,8.4,4,11.7,0.1c0.6-0.7,1.1-0.8,1.9-0.4c1.8,0.9,3.8,1.6,5.6,2.5
		c3.5,1.8,6.2,6.7,5.8,10.6c0,0.4-0.6,1-1,1.1c-2.8,0.7-5.7,1.4-8.5,1.8c-5.6,0.7-11.2,0.8-16.8,0.2c-3.6-0.4-7.2-1.3-10.8-1.9
		c-0.9-0.2-1.3-0.8-1.1-1.7c0.6-4.7,2.3-8.7,7.1-10.6C53.2,48.9,55,48.1,56.8,47.3z"/>
	<path class="st0" d="M63.2,25.7c1.5,0.4,3,0.7,4.4,1.1c1.2,0.4,2.1,1.3,2.4,2.6c0.1,0.4,0.4,0.7,0.6,1.1c0.3,0.6,0.6,1.1,0.8,1.7
		c0.6,1.8,0.2,3.7,0.9,5.6c0.6,1.6-0.2,3.3-1.1,4.7c-0.6,0.9-1.1,1.9-1.7,2.9c-1.3,2.6-3.2,4.4-6.3,4.4c-3-0.1-4.9-2-6.2-4.5
		c-0.4-0.9-0.9-1.7-1.5-2.6c-0.9-1.4-1.9-3.1-1.3-4.7c0.8-2.2,0.5-4.5,1.1-6.7C56.3,27.9,59,26,63.2,25.7z"/>
	<path class="st0" d="M30.7,58.7c-1.1,0-1.8-0.6-1.9-1.7c-0.1-1.1,0.6-1.8,1.6-2c2.8-0.7,5.7-1.4,8.5-2c1.1-0.3,2.2-0.6,3.3-0.8
		c1.1-0.2,2,0.4,2.1,1.4c0.2,1-0.3,1.8-1.3,2.1c-3.9,1-7.9,2-11.9,2.9C31,58.7,30.8,58.7,30.7,58.7z"/>
	<path class="st0" d="M85.2,61.5c0.2,0.1,0.6,0.2,1,0.4c3,1.6,6.1,3.3,9.1,4.9c1.2,0.7,1.6,1.7,1,2.7c-0.5,0.9-1.6,1.2-2.7,0.6
		c-3.1-1.7-6.2-3.4-9.3-5.1c-0.8-0.5-1.3-1.1-1.1-2.2C83.4,62,84.1,61.5,85.2,61.5z"/>
	<path class="st0" d="M52.7,38.4c0,1.8-1.5,2.7-2.7,1.9c-2.7-1.8-5.3-3.7-7.9-5.6c-0.8-0.6-0.9-1.6-0.3-2.4c0.6-0.9,1.6-1.1,2.4-0.5
		c2.7,1.8,5.4,3.8,8,5.7C52.5,37.6,52.6,38.2,52.7,38.4z"/>
	<path class="st0" d="M51.3,77.2c-1.6,0-2.6-1.2-2.2-2.3c1-2.8,2.1-5.7,3.3-8.5c0.4-1,1.4-1.4,2.4-1c0.9,0.4,1.4,1.4,1,2.4
		c-1,2.8-2.1,5.5-3.2,8.2C52.3,76.6,51.6,77,51.3,77.2z"/>
	<path class="st0" d="M75.6,42.1c-0.4-0.4-1.2-0.7-1.4-1.3c-0.2-0.6,0-1.7,0.5-2c2.4-1.8,4.8-3.4,7.3-5c0.9-0.6,1.8-0.3,2.4,0.6
		c0.6,0.9,0.4,1.8-0.4,2.4c-2.4,1.7-4.8,3.3-7.2,4.9C76.5,41.9,76.2,42,75.6,42.1z"/>
</g>
</svg>
