<?xml version="1.0" encoding="utf-8"?>
<!-- Generator: Adobe Illustrator 21.1.0, SVG Export Plug-In . SVG Version: 6.00 Build 0)  -->
<svg version="1.1" id="Layer_1" xmlns="http://www.w3.org/2000/svg" xmlns:xlink="http://www.w3.org/1999/xlink" x="0px" y="0px"
	 viewBox="0 0 310 317.7" style="enable-background:new 0 0 310 317.7;" xml:space="preserve">
<style type="text/css">
	.st0{fill:#25668E;}
	.st1{fill:#01A0F0;}
</style>
<g>
	<path class="st0" d="M101.1,146.8c1.4,0.4,3.5,0.9,5.5,1.5c5.4,1.6,10.7,3.2,16.1,4.9c1.4,0.5,2.4,0.5,3.4-1c2.5-3.7,5.5-7,8.7-10
		c1.4-1.3,1.3-2.3,0.5-3.9c-2.9-6.2-5.7-12.5-8.7-18.7c-1.4-2.9-0.8-5,1.9-6.7c2.8-1.7,5.4-3.7,8.2-5.5c3.1-2.1,4.5-1.9,7.1,0.9
		c4.7,4.9,9.4,9.8,13.9,14.8c1.3,1.4,2.3,1.7,4.1,0.8c3.6-1.8,7.4-3.1,11.3-4c2.6-0.6,3.2-1.9,3.4-4.3c0.4-6.5,1.3-13.1,1.8-19.6
		c0.2-3.1,1.7-4.6,4.8-4.7c3.6-0.2,7.2-0.6,10.8-0.8c2.9-0.2,4.3,1.5,5,4.2c1.5,6.6,3.2,13.2,4.6,19.8c0.5,2.1,1.5,2.9,3.6,3.1
		c4,0.2,8,1.1,11.8,2.2c2,0.6,3,0,4.1-1.6c3.8-5.6,7.9-11,11.7-16.6c1.8-2.7,4-3.2,6.8-1.7c2.8,1.5,5.7,2.8,8.5,4.2
		c3.7,1.8,4.2,2.9,3.1,6.7c-1.9,6.4-3.7,12.8-5.7,19.1c-0.6,2-0.3,3.2,1.5,4.5c3.1,2.3,6.1,4.9,8.9,7.7c1.6,1.6,2.8,1.9,4.9,0.9
		c6-2.9,12.1-5.6,18.1-8.4c3.6-1.6,4.7-1.3,6.9,1.9c1.8,2.7,3.6,5.5,5.5,8.1c1.8,2.5,1.6,4.6-0.7,6.7c-5,4.7-10,9.5-15,14.2
		c-1.3,1.2-1.9,2.2-1,4c1.9,4,3.4,8.2,4.4,12.5c0.3,1.5,1.1,2,2.6,2.1c7,0.6,13.9,1.3,20.9,1.9c3,0.2,4.7,1.6,4.9,4.7
		c0.2,3.6,0.5,7.2,0.8,10.8c0.2,2.8-1.1,4.3-3.8,5c-6.9,1.6-13.8,3.4-20.7,4.9c-1.7,0.4-2.3,1.1-2.4,2.7c-0.5,4.5-1.3,9-2.6,13.4
		c-0.6,1.8,0.5,2.5,1.7,3.3c5.5,3.9,11.1,7.8,16.6,11.7c3.1,2.2,3.4,3.6,1.8,7c-1.3,2.8-2.7,5.5-4,8.3c-1.9,3.9-2.9,4.3-7,3.2
		c-6.3-1.8-12.6-3.6-18.8-5.6c-2-0.6-3.3-0.5-4.5,1.3c-2.3,3.4-5.1,6.5-8.1,9.3c-1.4,1.3-1.5,2.4-0.7,4.1c3,6.2,5.7,12.5,8.7,18.7
		c1.4,3,0.8,5-1.9,6.7c-2.8,1.8-5.5,3.6-8.2,5.5c-2.6,1.9-4.7,1.7-6.9-0.7c-4.7-5.1-9.5-10-14.1-15c-1.3-1.4-2.3-1.6-4-0.8
		c-3.8,1.8-7.8,3.2-12,4.1c-1.9,0.4-2.5,1.3-2.7,3.2c-0.5,6.9-1.3,13.7-1.8,20.6c-0.2,3.1-1.7,4.6-4.8,4.8
		c-3.4,0.2-6.8,0.5-10.1,0.7c-3.6,0.2-4.7-0.7-5.5-4.2c-1.6-6.7-3.2-13.4-4.7-20.1c-0.4-1.7-0.9-2.5-2.8-2.6
		c-4.3-0.4-8.6-1.2-12.8-2.4c-1.7-0.5-2.6-0.2-3.6,1.3c-3.8,5.6-7.8,11.1-11.7,16.6c-2.5,3.5-3.6,3.7-7.4,1.9
		c-2.8-1.3-5.5-2.7-8.3-4c-3.5-1.7-4-2.9-2.9-6.6c1.9-6.5,3.8-13,5.8-19.4c0.6-1.9,0.3-3-1.4-4.2c-3.3-2.3-6.4-4.9-9.1-7.9
		c-1.4-1.6-2.7-1.8-4.6-0.9c-6.1,3-12.3,5.7-18.4,8.6c-2.9,1.4-5,0.9-6.7-1.9c-1.8-2.9-3.7-5.7-5.7-8.4c-1.8-2.5-1.5-4.6,0.8-6.7
		c5.1-4.7,10-9.5,15.1-14.1c1.4-1.3,1.7-2.3,0.8-4c-1.8-3.7-3.2-7.6-4.1-11.7c-0.5-2.3-1.7-2.8-3.6-3c-6.7-0.6-13.5-1.3-20.2-1.9
		c-3.1-0.2-4.6-1.8-4.7-4.8c-0.2-3.3-0.5-6.5-0.7-9.8c-0.3-3.7,0.7-5,4.2-5.9c6.5-1.5,12.9-3.1,19.5-4.5c2.2-0.5,3.2-1.4,3.4-3.7
		c0.2-4.1,1.1-8.2,2.3-12.1c0.5-1.8,0.1-2.6-1.3-3.6c-5.7-3.9-11.2-8-16.9-11.9c-2.7-1.8-3.3-3.9-1.8-6.8c1.6-3.1,3.1-6.3,4.6-9.4
		C97.4,147.9,98.4,146.7,101.1,146.8z M158.4,162.1c-3.5-0.2-4.6,1.6-4,6.5c1.9,14.8,3.7,29.6,5.5,44.4c0.2,1.9,0.6,3.6,2.6,4.3
		c1.8,0.6,3.2-0.4,4.5-1.7c3.6-3.6,7.3-7.1,10.7-10.8c1.8-1.9,2.7-1.6,4.4,0.1c13,13.1,26,26.1,39,39.1c7.9,7.9,9.5,7.8,17.4-0.1
		c4.4-4.4,4.4-7.9,0.1-12.2c-13.9-13.9-27.8-27.9-41.8-41.7c-1.6-1.6-2-2.4-0.1-4.1c3.8-3.5,7.4-7.3,11.1-10.9
		c1.3-1.3,2.2-2.7,1.5-4.5c-0.7-1.8-2.3-2.3-4.1-2.5c-2.9-0.3-5.9-0.7-8.8-1C183.9,165.2,171.3,163.7,158.4,162.1z"/>
	<path class="st1" d="M53.9,138.6c0.1-2.9,0.2-5.7,0.4-8.6c0.1-1.5-0.4-2.3-1.7-2.9c-4.3-2-8.3-4.6-11.9-7.9c-1.3-1.2-2.3-1-3.6-0.4
		c-5.1,2.4-10.2,4.7-15.2,7c-2.7,1.3-4.8,0.9-6.5-1.8c-1.6-2.6-3.4-5.1-5.1-7.6c-1.7-2.4-1.5-4.4,0.7-6.4c4.1-3.7,8-7.6,12-11.3
		c1.3-1.2,1.8-2.2,1.1-4.1c-1.6-4.4-2.5-9-2.7-13.6c-0.1-1.6-0.8-2.1-2.1-2.6c-5.3-1.9-10.5-3.9-15.7-5.8c-3-1.1-4.3-2.7-3.4-6
		c0.8-2.9,1.2-6,1.7-9c0.5-2.8,2-4,4.8-3.8c5.7,0.2,11.4,0.2,17.1,0.5c1.6,0.1,2.5-0.4,3.1-1.9c1.9-4.3,4.5-8.2,7.7-11.6
		c1.1-1.2,1.2-2.2,0.5-3.6c-2.3-4.8-4.5-9.6-6.7-14.4c-2-4.4-1.8-5.1,2.1-7.8c2-1.4,4-2.7,6-4.1c3.8-2.6,4.7-2.5,7.8,0.8
		c3.6,3.8,7.3,7.6,10.9,11.5c1.1,1.3,2.1,1.6,3.8,1c4.4-1.6,8.9-2.6,13.6-2.7c1.5,0,2.2-0.6,2.7-2c1.9-5.4,4-10.7,5.9-16.1
		c1-2.9,2.7-4,5.8-3.3C90.4,1,93.5,1.5,96.7,2c2.6,0.5,3.8,1.9,3.7,4.6c-0.2,5.5-0.2,11-0.5,16.5c-0.1,2,0.3,3.2,2.3,4.2
		c4.1,1.8,7.8,4.3,11,7.4c1.3,1.2,2.3,1.3,3.9,0.5c5-2.5,10.2-4.7,15.2-7.1c2.8-1.3,4.8-0.8,6.4,1.8c1.6,2.7,3.5,5.3,5.3,7.9
		c1.5,2.2,1.3,4.1-0.7,5.9c-4,3.8-8,7.6-12,11.3c-1.5,1.3-2.1,2.5-1.3,4.6c1.6,4.3,2.4,8.8,2.6,13.3c0.1,1.6,0.7,2.2,2.1,2.6
		c5.3,1.9,10.5,3.9,15.8,5.7c2.9,1,4.3,2.7,3.4,6c-0.8,2.7-1.1,5.6-1.6,8.4c-0.7,3.8-1.7,4.6-5.5,4.5c-5.5-0.1-11-0.3-16.5-0.5
		c-1.6-0.1-2.5,0.4-3.1,1.9c-1.9,4.3-4.5,8.1-7.7,11.6c-1.3,1.4-1.1,2.4-0.4,3.9c2.4,5.1,4.7,10.2,7.1,15.2c1.3,2.7,0.8,4.6-1.7,6.2
		c-2.7,1.7-5.3,3.5-7.9,5.3c-2.3,1.6-4.2,1.4-6.1-0.7c-3.9-4.2-7.9-8.3-11.8-12.5c-1.1-1.2-2.1-1.4-3.6-0.9c-4.4,1.6-9,2.5-13.6,2.8
		c-1.7,0.1-2.3,0.7-2.9,2.2c-1.8,5.1-3.7,10.1-5.6,15.2c-1.5,3.9-2.3,4.4-6.3,3.7c-3.1-0.5-6.2-1.2-9.3-1.8
		c-2.4-0.4-3.4-1.8-3.4-4.2c0.1-3.1,0-6.1,0-9.2C53.9,138.6,53.9,138.6,53.9,138.6z M105.3,102.7c-0.2-1.6-0.4-2.7-0.5-3.9
		c-1.1-9.1-2.2-18.3-3.3-27.4c-0.2-1.3-0.3-2.6-1.8-3.1c-1.5-0.5-2.4,0.5-3.2,1.4c-2.1,2.1-4.3,4.1-6.2,6.3c-1.6,1.9-2.5,1.6-4.2,0
		C77,66.9,68,58,59,49c-1.4-1.4-2.9-2.8-4.9-2.3c-3.4,0.8-5.6,3.5-7.1,6.4c-1.3,2.5,0.5,4.5,2.3,6.3C58.2,68.1,67,77,75.9,85.8
		c1.7,1.6,2.2,2.6,0.1,4.3c-2.3,1.9-4.2,4.2-6.3,6.2c-0.9,0.9-1.8,1.8-1.3,3.3c0.5,1.4,1.7,1.5,2.8,1.6c10.3,1.3,20.6,2.6,30.9,3.8
		C104.2,105.4,105.2,104.4,105.3,102.7z"/>
</g>
</svg>
