<?xml version="1.0" encoding="utf-8"?>
<!-- Generator: Adobe Illustrator 21.1.0, SVG Export Plug-In . SVG Version: 6.00 Build 0)  -->
<svg version="1.1" id="Layer_1" xmlns="http://www.w3.org/2000/svg" xmlns:xlink="http://www.w3.org/1999/xlink" x="0px" y="0px"
	 viewBox="0 0 120 114.8" style="enable-background:new 0 0 120 114.8;" xml:space="preserve">
<style type="text/css">
	.st0{fill:#25668E;}
</style>
<g>
	<path class="st0" d="M120,77.4c-0.1-0.8-0.1-1.7-0.2-2.5c-0.1-0.9-0.3-1.9-0.5-2.8c-0.5-1.9-1.7-3.2-3.6-3.6
		c-1.3-0.3-2.7-0.5-4-0.6c-1.7-0.1-3.4-0.1-5.1-0.1c-0.1,0-0.2,0-0.3,0c0.1,0.8,0.3,1.6,0.4,2.4c0.1,1.9,0.2,3.8,0.3,5.7
		c0,4.7,0,9.4,0,14.1c0,3,0,6-1,8.9c0.1,0,0.1,0.1,0.1,0.1c2.9,0,5.8,0.1,8.6-0.4c0.5-0.1,1.1-0.2,1.6-0.4c1.6-0.6,2.7-1.7,3-3.3
		c0.3-1.5,0.4-3.1,0.6-4.6c0-0.2,0.1-0.5,0.1-0.7C120,85.5,120,81.5,120,77.4z"/>
	<path class="st0" d="M0,89.5c0.1,0.9,0.1,1.7,0.2,2.6C0.3,93,0.5,94,0.7,94.9c0.5,1.9,1.7,3.1,3.6,3.5c1,0.3,2.1,0.4,3.2,0.6
		c0-0.3,0-0.5,0-0.7c0-3.2,0-6.4,0-9.6c0-8.5,5.6-15.7,13.8-17.8c1.6-0.4,3.1-0.5,4.8-0.6c0.6,0,1.1,0,1.8,0
		c-0.2-0.1-0.2-0.2-0.3-0.3c-1-0.7-1.9-1.4-2.9-2.1c-0.2-0.1-0.4-0.2-0.7-0.2c-4.8,0-9.7,0-14.5,0.1c-1.5,0-3,0.2-4.4,0.4
		c-2.7,0.4-4.1,1.8-4.6,4.5c-0.2,1.3-0.3,2.6-0.4,3.9c0,0.3-0.1,0.6-0.1,0.8C0,81.5,0,85.5,0,89.5z"/>
	<path class="st0" d="M10.1,114.8c18.7,0,37.3,0,56.1,0c0-0.2,0-0.4,0-0.5c0-8.4,0-16.9,0-25.3c0-7.9-5.4-14.3-13.1-15.6
		c-1-0.2-2-0.2-2.9-0.2c-8,0-16,0-24,0c-7.3,0-12.8,4.5-15,10.1c-0.7,1.8-1,3.7-1,5.6c0,8.5,0,17,0,25.5
		C10.1,114.4,10.1,114.6,10.1,114.8z"/>
	<path class="st0" d="M40.1,29.7c0.6-2.6,1.2-5.1,1.9-7.7c0.6,0.1,1.2,0.2,1.7,0.3c6.7,1,13.5,1.4,20.2,1.2c3.4-0.1,6.8,0,10.2,0
		c0.2,0,0.5,0.1,0.7,0.2c2.7,1.1,5.4,2.3,8.1,3.5c0.2,0.1,0.3,0.1,0.6,0.3c-0.6-1.9-1.3-3.7-1.9-5.6c1-0.2,1.9-0.4,2.8-0.6
		c3.7-0.8,7.3-1.8,10.7-3.6c1.4-0.7,2.8-1.6,3.9-2.8c1.9-2,1.9-4.2,0.1-6.2c-0.2-0.2-0.5-0.5-0.7-0.7c-1.6-1.4-3.5-2.4-5.5-3.2
		c-3.6-1.5-7.4-2.4-11.3-3.1c-8.8-1.6-17.7-2-26.7-1.5c-5,0.2-10.1,0.8-15,1.8c-4.2,0.8-8.3,1.9-12.1,3.8c-1.3,0.7-2.4,1.5-3.6,2.4
		c-0.4,0.3-0.8,0.8-1.1,1.2c-1.2,1.6-1.1,3.3,0,4.9c1.1,1.5,2.7,2.5,4.3,3.4c2,1,4,2,6,3c0.3,0.2,0.6,0.4,0.8,0.7
		c1.8,2.6,3.7,5.2,5.5,7.9C39.8,29.3,39.9,29.5,40.1,29.7z"/>
	<path class="st0" d="M38.2,33.9c-10.1,0-18.3,8.2-18.3,18.3c0,10.1,8.2,18.2,18.3,18.2c10.1,0,18.2-8.2,18.2-18.3
		C56.4,42.1,48.2,33.9,38.2,33.9z"/>
	<path class="st0" d="M95.9,101.7c1-0.1,2.1-0.2,3.1-0.4c0.6-0.1,1.1-0.2,1.6-0.4c2-0.7,2.9-2.4,3.2-4.3c0.5-2.5,0.4-5,0.4-7.6
		c0-5.1,0-10.2-0.1-15.3c0-1.4-0.1-2.9-0.4-4.3c-0.5-3.2-1.9-4.6-5.1-5c-2.5-0.3-5.1-0.4-7.6-0.4c-8.6,0-17.2,0-25.7,0
		c-2,0-4.1,0.1-6.1,0.4c-3.6,0.5-4.9,1.9-5.5,5.5c-0.1,0.9-0.1,0.9,0.8,1.1c1,0.3,2,0.6,3.1,0.9c0.1-0.4,0.2-0.8,0.2-1.1
		c0.4-2,1.6-3.3,3.7-3.6c1.6-0.3,3.2-0.4,4.8-0.4c6.5-0.1,13.1-0.1,19.6,0c3,0,6.1,0.1,9.1,0.2c0.9,0,1.8,0.3,2.6,0.5
		c1.4,0.4,2.4,1.3,2.7,2.7c0.3,1.4,0.6,2.8,0.6,4.2c0,6.1,0,12.3-0.1,18.4c0,0.9-0.2,1.9-0.4,2.8c-0.4,1.8-1.6,2.9-3.4,3.3
		c-1.5,0.3-2.9,0.5-4.4,0.5c-7.8,0.1-15.6,0-23.4,0.1c-0.2,0-0.4,0-0.7,0c0,3.1,0,6,0,9.1c0.2,0,0.3,0,0.5,0c13.4,0,26.7,0,40.1,0
		c1.2,0,2.4-0.1,3.5-0.2c0.4,0,0.7-0.3,1.1-0.4c-0.3-0.3-0.5-0.7-0.8-0.9c-1.9-1.1-3.8-2.1-5.6-3.3c-2.1-1.3-4.5-1.9-7-1.8
		c-1.3,0-2.6,0-3.8,0C96.5,101.7,96.2,101.7,95.9,101.7C95.9,101.7,95.9,101.7,95.9,101.7z"/>
	<path class="st0" d="M96.5,52.2c6.5,0,11.7-5.2,11.8-11.7c0-6.5-5.2-11.7-11.7-11.8c-6.5,0-11.7,5.2-11.8,11.7
		C84.8,46.9,90,52.2,96.5,52.2z"/>
	<path class="st0" d="M81.3,61.3c0.3,0,0.5,0,0.7,0c4.7,0,9.4,0,14,0.1c1.8,0,3.7,0.2,5.5,0.9c1.5,0.5,2.6,1.4,3.6,2.6
		c0.1,0.2,0.4,0.3,0.6,0.3c2.4,0.1,4.7,0.1,7.1,0.2c0.4,0,0.8,0.1,1.3,0.1c-0.1-0.2-0.1-0.4-0.2-0.6c-2.3-6-8-10.1-14.5-10.1
		c-2.4,0-4.8-0.1-7.2,0.1c-4.4,0.4-7.9,2.6-10.6,6.1C81.4,61.1,81.4,61.1,81.3,61.3z"/>
	<path class="st0" d="M78.9,73c5.2,0,10.5,0,15.7,0c0.3,0,0.7,0,1-0.2c0.5-0.2,0.8-0.6,0.8-1.1c0-0.5-0.3-1-0.9-1.1
		c-0.3-0.1-0.6-0.2-0.9-0.2c-10.6,0-21.1,0-31.7,0c-0.3,0-0.7,0.1-1,0.2c-0.5,0.2-0.7,0.6-0.7,1.1c0,0.5,0.3,0.9,0.7,1.1
		c0.4,0.1,0.8,0.2,1.2,0.2C68.4,73,73.7,73,78.9,73z"/>
	<path class="st0" d="M64.6,77c0.6,0.9,1.1,1.7,1.6,2.4c0.1,0.1,0.3,0.2,0.5,0.2c0.7,0,1.4,0,2.1,0c8.6,0,17.2,0,25.8,0
		c0.4,0,0.9-0.1,1.3-0.3c0.8-0.5,0.8-1.6,0-2C95.5,77.1,95,77,94.6,77c-5.2,0-10.4,0-15.6,0c-4.6,0-9.2,0-13.7,0
		C65.1,77,64.9,77,64.6,77z"/>
	<path class="st0" d="M68.1,83.5c0.2,0.8,0.3,1.6,0.5,2.4c0,0.1,0.2,0.2,0.3,0.2c0.1,0,0.2,0,0.3,0c8.5,0,17,0,25.5,0
		c0.3,0,0.6,0,0.9-0.1c0.5-0.2,0.9-0.6,0.9-1.1c0-0.5-0.3-1-0.9-1.2c-0.3-0.1-0.6-0.1-0.9-0.1c-8.7,0-17.4,0-26.1,0
		C68.4,83.5,68.3,83.5,68.1,83.5z"/>
	<path class="st0" d="M68.8,90c0,0.9,0,1.7,0,2.6c0.2,0,0.4,0,0.5,0c8.5,0,17,0,25.5,0c0.1,0,0.2,0,0.3,0c0.7-0.1,1.3-0.6,1.3-1.3
		c0-0.7-0.5-1.2-1.3-1.3c-0.2,0-0.3,0-0.5,0c-8.5,0-16.9,0-25.4,0C69.2,90,69,90,68.8,90z"/>
	<path class="st0" d="M51.4,68.3c-1,0.7-2,1.4-3,2.1c0.9,0,1.8,0,2.7,0C51.2,69.7,51.3,69.1,51.4,68.3z"/>
</g>
</svg>
