<?xml version="1.0" encoding="utf-8"?>
<!-- Generator: Adobe Illustrator 21.1.0, SVG Export Plug-In . SVG Version: 6.00 Build 0)  -->
<svg version="1.1" id="Layer_1" xmlns="http://www.w3.org/2000/svg" xmlns:xlink="http://www.w3.org/1999/xlink" x="0px" y="0px"
	 viewBox="0 0 120 120" style="enable-background:new 0 0 120 120;" xml:space="preserve">
<style type="text/css">
	.st0{fill:#25668E;}
</style>
<g>
	<g>
		<path class="st0" d="M62.1,30c0-0.9,0-1.8,0-2.6c0-8.7,0-17.5,0-26.2c0-1,0.3-1.2,1.2-1.1c2,0.2,4.1,0.4,6.1,0.7
			c12.4,2,23.2,7.2,32.1,16c14.9,14.6,20.9,32.5,17.6,53.1c-3,19-13.5,33.1-30,42.7c-1.1,0.6-1.5,0.6-2-0.6
			c-8.1-17.1-16.3-34.2-24.4-51.3c-0.3-0.7-0.5-1.4-0.5-2.2C62.1,48.9,62.1,39.5,62.1,30C62.1,30,62.1,30,62.1,30z M88.7,105
			c-0.9,0.6-0.2,1.1,0,1.5c0.6,1.4,0.6,1.4,1.9,0.6c4.4-2.8,8.3-6.3,11.8-10.2c0.2-0.2,0.4-0.5,0.6-0.8c0.1,0,0.2-0.1,0.1-0.2
			c0,0-0.2,0.1-0.3,0.1C98.1,99,93.4,102,88.7,105z M79.4,48.6c9.1-5.9,18.2-11.9,27.3-17.7c1-0.6,1-1,0.4-1.9
			c-0.9-1.1-1.7-2.4-2.5-3.6c-0.4-0.7-0.8-0.7-1.5-0.3c-8,5.2-16,10.4-24,15.6c-4,2.6-8,5.2-12.1,7.8c-0.8,0.5-1,1-1,1.9
			c0.1,2.2,0,4.4,0,6.9C70.5,54.4,75,51.5,79.4,48.6z M108.6,34.1c-11.3,7.3-22.6,14.7-33.9,22c-2.3,1.5-4.7,3.1-7,4.6
			c-0.6,0.4-0.7,0.7-0.4,1.3c0.7,1.3,1.3,2.6,1.9,3.9c0.4,0.9,0.7,0.9,1.4,0.4c8.6-5.6,17.1-11.1,25.7-16.7c5-3.2,10-6.5,15-9.7
			c0.8-0.5,0.9-0.9,0.5-1.7c-0.7-1.3-1.3-2.6-1.9-3.9c-0.1-0.2-0.2-0.6-0.5-0.7C109.1,33.7,108.9,33.9,108.6,34.1z M103.8,49.2
			c-10.5,6.8-21,13.6-31.5,20.4c-0.8,0.5-1,1-0.5,1.8c0.6,1,1.1,2.1,1.5,3.2c0.4,0.8,0.6,1.1,1.6,0.5c7.4-4.8,14.8-9.6,22.2-14.3
			c5.7-3.7,11.4-7.4,17.2-11c0.7-0.5,0.9-0.9,0.7-1.7c-0.5-1.7-0.8-3.4-1.4-5.1C110.3,45,107,47.1,103.8,49.2z M115.9,54.2
			c0-0.9-0.3-1-1-0.5c-2.9,1.9-5.8,3.8-8.7,5.7c-9.9,6.4-19.8,12.8-29.7,19.1c-0.8,0.5-0.9,0.9-0.5,1.7c0.7,1.2,1.3,2.5,1.8,3.8
			c0.3,0.8,0.7,0.8,1.3,0.3c8.4-5.5,16.8-11,25.2-16.6c3.3-2.2,6.6-4.4,10-6.5c1.4-0.9,2.3-1.7,1.9-3
			C116.1,56.6,116,55.4,115.9,54.2z M77.1,37.5c7.8-5,15.5-10.1,23.3-15.1c0.9-0.6,0.8-0.9,0.1-1.5c-1.2-1.1-2.4-2.3-3.6-3.4
			c-0.5-0.5-0.8-0.6-1.5-0.2c-7.4,4.8-14.7,9.6-22.1,14.4c-2.2,1.4-4.3,2.8-6.5,4.1c-0.6,0.4-0.9,0.9-0.9,1.6c0,2.3,0,4.7,0,7.3
			C69.8,42.3,73.4,39.9,77.1,37.5z M113.3,66.5C102.5,73.6,91.8,80.6,81,87.7c-0.8,0.5-1,1-0.5,1.8c0.6,1,1.1,2.1,1.6,3.3
			c0.3,0.8,0.6,1,1.5,0.5c6.4-4.2,12.9-8.4,19.3-12.5c3.6-2.4,7.3-4.7,10.9-7.1c0.4-0.2,0.8-0.4,1-0.9c0.6-2.6,1-5.1,1.3-8
			C114.9,65.4,114.1,66,113.3,66.5z M92.9,14.4c-1.6-1.3-3.3-2.3-5-3.3c-0.4-0.2-0.7-0.1-1,0.2c-6.8,4.4-13.6,8.9-20.5,13.3
			c-0.4,0.3-0.5,0.6-0.5,1c0,2,0,4.1,0,6.4C75,26,83.9,20.3,92.9,14.4z M111.8,79.5c-8.9,5.7-17.7,11.5-26.6,17.2
			c-0.7,0.5-1,0.8-0.5,1.7c0.6,0.9,1,1.9,1.4,2.9c0.2,0.6,0.4,0.8,1.1,0.4c7.1-4.7,14.3-9.3,21.4-13.9c0.5-0.3,0.8-0.7,1-1.2
			c1.3-2.4,2.3-4.8,3.3-7.4C112.3,78.9,112.1,79.3,111.8,79.5z M83.5,8.9C81,7.7,78.5,6.8,75.9,6c-0.5-0.2-0.9,0-1.3,0.3
			C72,8,69.3,9.8,66.6,11.5c-0.4,0.3-0.8,0.6-0.7,1.2c0,2.5,0,4.9,0,7.7C71.9,16.5,77.6,12.7,83.5,8.9z M70.3,4.6
			c-1.5-0.2-2.6-0.3-3.7-0.5c-0.6-0.1-0.7,0.2-0.7,0.7c0,0.8,0,1.6,0,2.7C67.4,6.5,68.7,5.7,70.3,4.6z"/>
		<path class="st0" d="M58.4,56.2c0-2.1,0-3.9,0-5.8c0-16.4,0-32.8,0-49.2c0-1-0.2-1.3-1.3-1.3C39.6,1.2,25.2,8.4,13.8,21.8
			c-0.7,0.8-0.8,1.2,0.2,2c14.4,10.5,28.8,21.1,43.2,31.7C57.5,55.6,57.8,55.8,58.4,56.2z"/>
		<path class="st0" d="M0.3,53.5c0-0.8,0.3-1,1.2-0.9c7.2,1.2,14.4,2.3,21.6,3.4c11.6,1.8,23.2,3.7,34.8,5.5c0.7,0.1,1.1,0.4,1.4,1
			c8.1,17,16.3,34.1,24.4,51.1c0.5,1.1,0.3,1.4-0.7,1.8c-13.5,5.4-27.3,6.2-41.2,1.7C16.7,109.1,0.1,86.2,0,59.5
			C-0.1,57.7,0.2,55.6,0.3,53.5z M78.1,113.2c0.9-0.3,1-0.6,0.6-1.4c-7.3-15.2-14.5-30.4-21.8-45.6c-0.4-0.8-0.8-1.2-1.7-1.3
			C44.1,63.2,33,61.4,22,59.7c-5.5-0.9-11-1.8-16.6-2.7c-1.6-0.3-1.6-0.3-1.6,1.3C3.4,84,19.3,106.3,43.6,113.7
			c5.4,1.7,10.9,2.4,17.5,2.4C66.2,116.1,72.2,115.1,78.1,113.2z"/>
		<path class="st0" d="M52.4,56.7c-3.6-2.7-7-5.1-10.3-7.6c-10.2-7.5-20.4-15-30.6-22.5c-0.8-0.6-1.1-0.6-1.6,0.3
			c-4.2,6.4-7.1,13.3-8.7,20.8c-0.2,0.8-0.1,1.1,0.9,1.3c9.4,1.4,18.8,3,28.2,4.4c7,1.1,14,2.2,21,3.3
			C51.6,56.7,51.8,56.7,52.4,56.7z"/>
		<path class="st0" d="M102.9,96.1c0.1,0,0.2-0.1,0.1-0.2c0,0-0.2,0.1-0.3,0.1C102.8,96,102.9,96.1,102.9,96.1z"/>
	</g>
</g>
</svg>
