<?xml version="1.0" encoding="utf-8"?>
<!-- Generator: Adobe Illustrator 21.1.0, SVG Export Plug-In . SVG Version: 6.00 Build 0)  -->
<svg version="1.1" id="Layer_1" xmlns="http://www.w3.org/2000/svg" xmlns:xlink="http://www.w3.org/1999/xlink" x="0px" y="0px"
	 viewBox="0 0 137.3 103.6" style="enable-background:new 0 0 137.3 103.6;" xml:space="preserve">
<style type="text/css">
	.st0{fill:#25668E;}
	.st1{fill:#363539;}
	.st2{fill:#F0EFF4;}
	.st3{fill:#F96731;}
	.st4{fill:#2B9AF3;}
</style>
<g>
	<path class="st0" d="M12.7,18c-0.1,0.6-0.3,1.1-0.4,1.7c0,0.3-0.2,0.2-0.3,0.2c-0.7-0.4-1.3-0.8-1.9-1.3c-0.3-0.2-0.1-0.6,0-0.8
		c0.3-1.2,0.6-2.4,0.8-3.6c0.1-0.6,0.4-1.1,0.7-1.5c0.4-0.4,0.9-0.5,1.4-0.5c0.6,0,1.1,0,1.7,0c0.3,0,0.5,0.1,0.5,0.4
		c0.1,0.4,0.3,0.5,0.7,0.4c0.2,0,0.4,0,0.6,0c0.3,0,0.5,0,0.6-0.4c0.1-0.4,0.3-0.4,0.6-0.4c0.6,0,1.1,0,1.7,0c1.2,0,1.9,0.9,2.1,1.8
		c0.3,1.3,0.5,2.6,0.9,3.9c0.1,0.4,0.1,0.8-0.3,1c-0.5,0.3-0.9,0.6-1.4,0.9c-0.3,0.2-0.5,0.3-0.5-0.2c-0.1-0.5-0.3-1-0.3-1.7
		c-0.3,0.4-0.2,0.8-0.2,1.1c0,1.3,0,1.3-1.2,1.6c-1.8,0.5-3.5,0.4-5.3-0.2c-0.4-0.1-0.5-0.3-0.5-0.7C12.8,19.1,12.9,18.5,12.7,18z"
		/>
	<path class="st0" d="M56,18.6c0,0.7-0.2,1.4-0.4,2.1c-0.8-0.3-1.4-0.8-2.1-1.3c-0.3-0.2-0.1-0.6-0.1-0.8c0.4-1.3,0.6-2.6,0.9-3.9
		c0.2-0.9,0.7-1.5,1.6-1.8c0.3-0.1,0.6,0,0.9-0.1c0.4,0,0.8,0,1.1,0c0.4,0,0.7,0.1,0.8,0.5c0,0.2,0.2,0.4,0.5,0.3c0.2,0,0.5,0,0.7,0
		c0.4,0,0.6-0.1,0.7-0.5c0.1-0.3,0.3-0.4,0.6-0.4c0.5,0,1.1,0,1.6,0c1.1-0.1,1.9,0.8,2.2,1.8c0.3,1.3,0.5,2.7,0.9,4
		c0.1,0.4,0.1,0.7-0.3,1c-0.6,0.4-1.2,0.8-1.8,1.1c-0.2-0.7-0.4-1.4-0.4-2.1c-0.2,0.2-0.2,0.4-0.2,0.6c0,0.4,0,0.9,0,1.3
		c0,0.4-0.1,0.5-0.5,0.7c-2.1,0.7-4.1,0.7-6.2,0c-0.3-0.1-0.3-0.2-0.3-0.5c0-0.5,0-1,0-1.5C56.1,19,56.2,18.8,56,18.6z"/>
	<path class="st0" d="M96.2,20.3c-0.1,0.6-0.2,1.1-0.4,1.7c-0.1,0.3-0.1,0.4-0.4,0.2c-0.5-0.3-1-0.6-1.5-0.9
		c-0.5-0.3-0.5-0.6-0.3-1.1c0.4-1.2,0.6-2.4,0.9-3.7c0.1-0.5,0.3-1,0.7-1.4c0.4-0.4,0.9-0.7,1.4-0.7c0.6,0,1.2,0,1.8,0
		c0.3,0,0.4,0.1,0.5,0.4c0.1,0.4,0.3,0.6,0.8,0.5c0.2,0,0.4,0,0.6,0c0.3,0,0.5-0.1,0.5-0.4c0.1-0.4,0.3-0.5,0.7-0.5c0.5,0,1,0,1.5,0
		c1.1,0,1.9,0.8,2.1,1.8c0.3,1.3,0.5,2.7,0.9,4c0.1,0.4,0.1,0.7-0.3,1c-0.6,0.4-1.2,0.8-1.8,1.1c-0.2-0.7-0.4-1.4-0.4-2.2
		c-0.3,0.5-0.1,1-0.2,1.4c0,1.2,0,1.2-1.2,1.5c-1.8,0.4-3.7,0.4-5.5-0.3c-0.3-0.1-0.3-0.3-0.3-0.5C96.3,21.6,96.3,20.9,96.2,20.3z"
		/>
	<path class="st0" d="M25.4,13.9c0,0.6,0,1.1,0,1.7c0,0.4-0.1,0.6-0.6,0.8c-0.5,0.2-1.1,0.3-1.6,0.4c-0.3,0.1-0.5,0-0.5-0.3
		c-0.2-0.8-0.4-1.6-0.5-2.5c-0.2-1.1-1.1-2.7-2.8-2.6c-0.4,0-0.8,0-1.3,0c0-0.3,0.3-0.3,0.4-0.5c0.7-0.7,1.1-1.5,1.1-2.5
		c0-0.2-0.1-0.5,0.2-0.5c0.3,0,0.9-0.3,1,0.3c0.1,0.5,0.4,0.6,0.8,0.5c0.2,0,0.4,0,0.5,0c0.3,0,0.6-0.1,0.6-0.4
		c0-0.4,0.2-0.4,0.6-0.4c0.4,0,0.9,0,1.3,0c1.4-0.1,2.2,0.7,2.5,1.9c0.3,1.2,0.5,2.4,0.8,3.5c0,0,0,0.1,0,0.1c0.4,0.8,0,1.2-0.7,1.6
		c-0.4,0.2-0.7,0.4-1,0.6c-0.3,0.2-0.4,0.1-0.5-0.2c-0.1-0.5-0.2-1.1-0.3-1.6C25.5,13.9,25.5,13.9,25.4,13.9z"/>
	<path class="st0" d="M92.2,9.9c-0.5,0-0.9,0-1.3,0c-1.4-0.1-2.3,1-2.5,2c-0.3,1-0.5,1.9-0.6,2.9c-0.1,0.4-0.2,0.5-0.6,0.4
		c-0.6-0.1-1.2-0.2-1.8-0.5c-0.3-0.1-0.4-0.8-0.3-1.3c0.1-0.6,0.1-0.8-0.2-1.2c-0.2,0.6-0.1,1.2-0.3,1.7c-0.1,0.3-0.1,0.3-0.5,0.2
		c-0.7-0.3-1.1-0.9-1.8-1.2c-0.3-0.2-0.1-0.5,0-0.8c0.4-1.3,0.6-2.6,0.9-3.9c0.2-0.9,0.7-1.5,1.6-1.8c0.3-0.1,0.6,0,0.9-0.1
		c0.4,0,0.8,0,1.2,0c0.4,0,0.6,0.1,0.7,0.5c0.1,0.3,0.2,0.5,0.6,0.4c0.2,0,0.4,0,0.6,0c0.4,0.1,0.5-0.1,0.7-0.4
		c0.1-0.4,0.8-0.6,1.1-0.4c0.1,0.1,0.1,0.2,0.1,0.3c0,1.3,0.4,2.3,1.5,3C92.2,9.7,92.2,9.8,92.2,9.9z"/>
	<path class="st0" d="M90.5,16.3c-0.1,0.5-0.2,1.1-0.3,1.6c-0.1,0.4-0.2,0.5-0.6,0.3c-0.6-0.4-1.2-0.7-1.7-1.1
		c-0.1-0.1-0.2-0.2-0.2-0.4c0.5-1.6,0.7-3.2,1.2-4.8c0.3-0.9,0.9-1.4,2-1.4c0.6,0,1.1,0,1.7,0c0.3,0,0.5,0,0.5,0.4
		c0,0.3,0.2,0.4,0.5,0.4c0.2,0,0.5,0,0.7,0c0.4,0,0.6-0.1,0.7-0.5c0.1-0.6,0.6-0.2,0.9-0.3c0.3-0.1,0.3,0.2,0.3,0.4
		c0,1.1,0.4,2,1.3,2.7c0.1,0.1,0.2,0.2,0.3,0.3c-0.5,0-0.9,0-1.4,0c-1.6,0-2.6,1.3-2.8,2.6c-0.1,0.8-0.3,1.6-0.5,2.5
		c-0.1,0.3-0.2,0.4-0.5,0.3c-0.6-0.1-1.2-0.3-1.8-0.5c-0.3-0.1-0.4-0.2-0.4-0.6c0-0.6,0-1.3,0-1.9C90.6,16.3,90.6,16.3,90.5,16.3z"
		/>
	<path class="st0" d="M57.8,12.3c-0.5,0-0.9,0-1.3,0c-1.6-0.1-2.6,1.3-2.8,2.6c-0.1,0.8-0.3,1.6-0.5,2.5c-0.1,0.3-0.2,0.4-0.5,0.3
		c-0.7-0.1-1.3-0.3-1.9-0.5c-0.2-0.1-0.3-0.2-0.3-0.5c0-0.6,0-1.3,0-1.9c-0.2,0.5-0.3,1-0.3,1.4c-0.1,0.6-0.2,0.6-0.7,0.3
		c-0.5-0.3-1.1-0.6-1.5-1c-0.1-0.1-0.3-0.2-0.2-0.4c0.5-1.6,0.7-3.3,1.2-4.9c0.3-0.8,0.9-1.3,1.8-1.3c0.6,0,1.2,0,1.8,0
		c0.3,0,0.5,0.1,0.5,0.4c0,0.3,0.2,0.4,0.5,0.4c0.2,0,0.5,0,0.7,0c0.4,0,0.6-0.1,0.6-0.5c0.1-0.6,0.6-0.3,1-0.3
		c0.4-0.1,0.3,0.3,0.3,0.5c0,1.1,0.4,1.9,1.2,2.6C57.6,12,57.7,12.1,57.8,12.3z"/>
	<path class="st0" d="M101.6,13.9c0.5-0.5,1-0.9,1.3-1.4c0.3-0.5,0.4-1,0.3-1.6c0-0.3,0.1-0.4,0.4-0.4c0.4,0,0.9-0.2,1,0.6
		c0,0.2,0.2,0.2,0.4,0.2c0.3,0,0.6,0,0.9,0c0.4,0,0.6-0.1,0.6-0.5c0-0.3,0.2-0.3,0.5-0.3c0.6,0,1.2,0,1.8,0c1,0,1.5,0.5,1.9,1.4
		c0.4,0.8,0.3,1.8,0.6,2.6c0.2,0.6,0.3,1.3,0.5,2c0.1,0.3,0.1,0.5-0.2,0.7c-0.5,0.4-1.1,0.7-1.6,1.1c-0.2,0.2-0.4,0.2-0.5-0.2
		c-0.1-0.6-0.2-1.1-0.4-1.7c0,0.6,0,1.3,0,1.9c0,0.3-0.1,0.4-0.3,0.5c-0.6,0.2-1.2,0.4-1.9,0.5c-0.3,0-0.4,0-0.5-0.3
		c-0.2-0.7-0.4-1.4-0.5-2.2c-0.2-1.8-1.4-3.1-3.2-2.9C102.2,13.9,101.9,13.9,101.6,13.9z"/>
	<path class="st0" d="M68.8,14.7c0,0.6,0,1.3,0,1.9c0,0.2,0,0.4-0.3,0.5c-0.7,0.2-1.3,0.4-2,0.5c-0.2,0-0.4-0.1-0.4-0.3
		c-0.2-0.7-0.4-1.4-0.5-2.2c-0.2-1.9-1.4-3.1-3.3-2.9c-0.3,0-0.5,0-0.9,0c0.5-0.5,1-0.9,1.3-1.5c0.2-0.5,0.3-0.9,0.3-1.4
		c0-0.2-0.1-0.5,0.2-0.5c0.3,0,0.9-0.3,1,0.3c0.1,0.4,0.3,0.5,0.7,0.5c0.2,0,0.4,0,0.6,0c0.3,0,0.6-0.1,0.6-0.4
		c0-0.2,0.2-0.3,0.4-0.3c0.7,0,1.4,0,2.1,0c1.1,0.1,1.6,0.8,1.8,1.8c0.3,1.5,0.6,2.9,1,4.4c0.1,0.2,0,0.3-0.1,0.4
		c-0.5,0.5-1.2,0.8-1.8,1.2c-0.2,0.1-0.3,0.1-0.4-0.2c-0.1-0.6-0.2-1.1-0.3-1.7C68.8,14.7,68.8,14.7,68.8,14.7z"/>
	<path class="st0" d="M115.1,14.3c-0.1-0.7-0.4-1.4-0.4-2.2c-0.3,0.5-0.2,0.9-0.2,1.4c0,1.3,0,1.3-1.3,1.5c-1.3,0.2-1.3,0.2-1.6-1
		c-0.2-0.7-0.3-1.4-0.4-2c-0.4-1.4-1.3-2.1-2.8-2.1c-0.4,0-0.9,0.2-1-0.1c-0.1-0.2,0.4-0.4,0.6-0.7c0.5-0.7,0.8-1.4,0.8-2.2
		c0-0.2-0.1-0.5,0.2-0.5c0.3,0,0.7-0.2,1,0.2c0.1,0.2,0.1,0.6,0.4,0.6c0.4,0.1,0.9,0,1.3,0c0.2,0,0.2-0.2,0.2-0.3
		c0.1-0.4,0.4-0.5,0.8-0.5c0.5,0,1,0,1.4,0c1.1,0,1.9,0.8,2.2,1.8c0.3,1.3,0.5,2.7,0.9,4c0.1,0.4,0.1,0.8-0.4,1
		C116.3,13.6,115.7,14,115.1,14.3z"/>
	<path class="st0" d="M19,8.5c0,1.5-1.3,2.8-2.7,2.8c-1.5,0-2.7-1.3-2.7-2.9c0-1.6,1.2-2.8,2.7-2.8C17.8,5.7,19,6.9,19,8.5z"/>
	<path class="st0" d="M108.3,2.9c0-1.5,1.3-2.9,2.7-2.9c1.4,0,2.7,1.4,2.7,2.9c0,1.5-1.3,2.8-2.7,2.8C109.6,5.7,108.3,4.4,108.3,2.9
		z"/>
	<path class="st0" d="M56.9,9.3c0-1.5,1.3-2.9,2.7-2.9c1.4,0,2.7,1.3,2.7,2.8c0,1.6-1.2,2.9-2.7,2.9C58.2,12.1,56.9,10.8,56.9,9.3z"
		/>
	<path class="st0" d="M85.8,2.8c0-1.5,1.3-2.8,2.7-2.8c1.5,0,2.7,1.4,2.7,2.9c0,1.5-1.3,2.8-2.7,2.8C87.1,5.7,85.8,4.4,85.8,2.8z"/>
	<path class="st0" d="M102.5,2.8c0,1.5-1.2,2.9-2.7,2.9c-1.5,0-2.7-1.3-2.7-2.8C97,1.3,98.3,0,99.8,0C101.2,0,102.5,1.3,102.5,2.8z"
		/>
	<path class="st0" d="M102.5,10.9c0,1.5-1.3,2.8-2.7,2.8c-1.5,0-2.7-1.3-2.7-2.9c0-1.5,1.3-2.8,2.7-2.8
		C101.2,8.1,102.5,9.4,102.5,10.9z"/>
	<path class="st0" d="M68,5.2c0,1.6-1.2,2.8-2.7,2.9c-1.5,0-2.7-1.2-2.7-2.8c0-1.6,1.1-2.8,2.7-2.8C66.7,2.4,67.9,3.7,68,5.2z"/>
	<path class="st0" d="M105.5,4.1c1.5,0,2.7,1.3,2.6,2.9c0,1.6-1.3,2.8-2.8,2.8c-1.5,0-2.7-1.3-2.6-2.9C102.7,5.2,103.9,4,105.5,4.1z
		"/>
	<path class="st0" d="M56.7,5.3c0,1.6-1.2,2.8-2.7,2.8c-1.5,0-2.7-1.3-2.7-2.8c0-1.6,1.2-2.8,2.7-2.8C55.5,2.5,56.7,3.7,56.7,5.3z"
		/>
	<path class="st0" d="M94.2,9.7c-1.7,0-2.9-1.6-2.7-3.2c0.1-0.6,0.3-1.2,0.7-1.7c0.2-0.2,0.3-0.5,0.7-0.2c0.1,0.1,0.3,0.1,0.3-0.1
		c0-0.4,0.3-0.4,0.6-0.4c2-0.3,3.3,1.6,3,3.2C96.6,8.8,95.5,9.7,94.2,9.7z"/>
	<path class="st0" d="M21.7,7.3c-0.5,0-1-0.2-1.4-0.7c-0.4-0.5-1-0.9-1.1-1.7c-0.1-1.1,0.3-2.2,1.3-2.9c0.8-0.6,2-0.5,2.9,0.1
		c0.3,0.2,0.3,0.6,0.6,0.9c0.3,0.3,0.6,0.6,0.6,1.1C24.8,5.7,23.5,7.3,21.7,7.3z M22.1,3.6c-0.2,0.1-0.2,0.1-0.2,0.1
		c-0.2,0.2,0.1,0.6-0.2,0.7c-0.3,0.1-0.4-0.3-0.5-0.5c-0.1-0.1-0.1-0.1-0.2,0c-0.1,0.1,0,0.2,0,0.2c0.3,0.4,0.6,0.8,0.9,1.1
		C22,5.4,22,5.6,22.2,5.4c0.2-0.1-0.1-0.2-0.1-0.3C22,5,21.9,4.9,22,4.8c0.1-0.1,0.2,0,0.3,0c0.2,0,0.4,0.2,0.6,0
		C22.6,4.5,21.7,4.6,22.1,3.6z M23.7,3.8c0,0.1-0.1,0.3-0.2,0.3c-0.1,0.1-0.2,0-0.3-0.1c-0.2-0.2-0.3-0.4-0.5-0.6
		c-0.1-0.1-0.1-0.2-0.3-0.1c-0.1,0.1,0,0.2,0,0.3c0.2,0.2,0.4,0.4,0.5,0.7c0.1,0.2,0.3,0.2,0.5,0.1c0.6-0.3,0.6-0.6,0.2-1.1
		c0,0,0-0.1-0.1-0.1c-0.2-0.1-0.3-0.6-0.5-0.4c-0.2,0.2,0.2,0.4,0.3,0.6C23.5,3.5,23.6,3.6,23.7,3.8z M21.8,5.8
		c-0.2-0.3-0.4-0.5-0.6-0.7c-0.1-0.2-0.3-0.3-0.5-0.2c-0.3,0.1-0.4,0.5-0.7,0.6c0,0,0,0.1,0.1,0.1c0.2,0.3,0.5,0.6,0.7,0.9
		c0.1,0.1,0.1,0.1,0.2,0.1c0.1-0.1,0-0.2,0-0.3c-0.1-0.2-0.3-0.4-0.4-0.5c-0.1-0.2-0.1-0.3,0-0.5C20.7,5,20.8,5.1,21,5.3
		c0.2,0.2,0.3,0.4,0.5,0.6c0,0.1,0.1,0.1,0.2,0.1C21.7,5.9,21.7,5.8,21.8,5.8z"/>
	<path class="st0" d="M97.3,8.5c0.1-0.7,0.3-1.3,0.3-1.9c0-0.1,0-0.2,0.2-0.2c0.4-0.2,1,0.1,1.1,0.5c0.1,0.2,0.2,0.4,0.5,0.3
		c0.2,0,0.4,0,0.6,0c0.4,0.1,0.7,0,0.8-0.5c0.1-0.6,0.6-0.3,1-0.3c0.4,0,0.2,0.3,0.2,0.5c0,0.5,0.2,1,0.4,1.6
		C100.7,7.2,99,7.1,97.3,8.5z"/>
	<path class="st0" d="M96.8,9.3c-0.1,0.3-0.1,0.6-0.5,0.6c-0.1,0-0.1,0-0.2,0c0-0.1,0.1-0.2,0.1-0.2C96.4,9.7,96.4,9.3,96.8,9.3z"/>
	<path class="st0" d="M103.5,9.8c-0.5,0.2-0.6-0.2-0.7-0.5C103.1,9.4,103.4,9.5,103.5,9.8z"/>
	<path class="st0" d="M9.9,57.9c-0.1,0.7-0.1,1.3-0.1,1.8c0,0.5-0.1,0.7-0.6,0.8c-2,0.6-4,0.6-5.9,0c-0.4-0.1-0.6-0.4-0.5-0.8
		c0-0.6,0-1.1-0.1-1.7c-0.1,0.5-0.3,1.1-0.4,1.6c-0.1,0.4-0.2,0.3-0.4,0.2c-0.6-0.3-1.1-0.7-1.6-1.1C0,58.7,0,58.5,0,58.2
		c0.1-0.5,0.2-1,0.4-1.5C0.7,55.8,0.8,54.9,1,54c0.2-0.9,0.9-1.8,2.1-1.8c0.6,0,1.1,0,1.7,0c0.3,0,0.5,0.1,0.5,0.4
		C5.4,52.9,5.6,53,6,53c0.2,0,0.4,0,0.6,0C7,53,7.2,52.9,7.2,52.5c0.1-0.3,0.2-0.4,0.5-0.4c0.6,0,1.2,0,1.8,0c1.2,0,1.9,0.9,2.1,1.8
		c0.3,1.3,0.5,2.6,0.9,3.9c0.2,0.5,0.1,0.8-0.4,1.1c-0.5,0.3-1,0.6-1.4,0.9c-0.2,0.1-0.4,0.2-0.4-0.2C10.2,59.2,10,58.6,9.9,57.9z
		 M7.7,56.8c-0.1-0.4-0.2-0.8-0.2-1.2c-0.1-0.4-0.1-0.8-0.2-1.2C7,53.4,7,53.4,5.8,53.4c-0.2,0-0.3,0.1-0.4,0.3
		C5.2,55,5,56.3,4.7,57.6c0,0.2,0,0.3,0.1,0.4c0.4,0.3,0.8,0.6,1.3,1c0.1,0.1,0.2,0.1,0.3,0c0.4-0.3,0.8-0.6,1.2-0.9
		c0.2-0.2,0.2-0.7,0-0.7c-0.9-0.2-1.5-0.8-2.2-1.2c-0.1-0.1-0.2-0.2-0.1-0.3c0.1-0.1,0.2-0.1,0.3,0c0.6,0.4,1.2,0.7,1.9,1.1
		c0.1,0.1,0.2,0.2,0.3,0.1C7.7,57,7.7,56.9,7.7,56.8z"/>
	<path class="st0" d="M8.2,51.6c0-0.2,0.2-0.3,0.3-0.4c0.8-0.7,1.2-1.5,1.2-2.6c0-0.2-0.1-0.5,0.2-0.5c0.3,0,0.9-0.3,1,0.3
		c0.1,0.5,0.3,0.6,0.8,0.6c0.2,0,0.4,0,0.6,0c0.3,0,0.5-0.1,0.6-0.4c0-0.4,0.3-0.4,0.6-0.4c0.5,0,1.1,0,1.6,0c0.9,0,1.7,0.5,2,1.4
		c0.3,0.9,0.3,1.8,0.6,2.6c0.2,0.7,0.3,1.3,0.5,2c0.1,0.3,0,0.5-0.2,0.6c-0.5,0.4-1.1,0.7-1.6,1.1c-0.4,0.2-0.4,0-0.5-0.3
		c-0.1-0.5-0.1-1.1-0.4-1.6c0,0.6,0,1.3,0,1.9c0,0.3-0.1,0.4-0.4,0.5c-0.6,0.2-1.2,0.3-1.7,0.4c-0.3,0.1-0.5,0-0.6-0.3
		c-0.1-0.3-0.1-0.6-0.2-0.9c-0.3-0.7-0.1-1.2,0.6-1.5c0.4-0.2,0.4-0.5,0.3-0.9c-0.2-1-0.4-2.1-0.6-3.1c-0.1-0.8-0.1-0.8-0.8-0.8
		c-1,0-1,0-1.1,1c-0.1,0.4-0.1,0.9-0.3,1.2c-0.3,0.4-0.7,0-1.1,0C9.1,51.7,8.7,51.6,8.2,51.6z"/>
	<path class="st0" d="M11.9,47.5c-1.5,0-2.7-1.3-2.7-2.9c0-1.6,1.3-2.9,2.7-2.8c1.5,0,2.7,1.4,2.7,2.9
		C14.6,46.2,13.4,47.5,11.9,47.5z"/>
	<path class="st0" d="M3.6,48.6c0-1.6,1.2-2.8,2.7-2.8c1.5,0,2.7,1.3,2.7,2.8c0,1.5-1.2,2.8-2.7,2.8C4.8,51.5,3.6,50.1,3.6,48.6z"/>
	<path class="st0" d="M10.9,51.9c0.8,0.4,1.6,0.7,2.3,1.4C12.3,52.9,11.5,52.5,10.9,51.9z"/>
	<path class="st0" d="M12.9,51.9c0,0.1-0.1,0.1-0.2,0.1c-0.5-0.3-1.1-0.6-1.6-0.9c-0.1-0.1-0.1-0.1,0-0.2c0.1-0.1,0.1-0.1,0.2,0
		c0.5,0.3,1,0.6,1.5,0.8C12.9,51.7,12.9,51.8,12.9,51.9z"/>
	<path class="st0" d="M12.6,50.7c-0.4-0.3-0.9-0.5-1.3-0.8c0,0,0-0.1,0-0.2c0,0,0.1,0,0.1,0c0.4,0.2,0.8,0.5,1.2,0.7
		c0,0,0.1,0.1,0.1,0.2C12.7,50.7,12.6,50.7,12.6,50.7z"/>
	<path class="st1" d="M12.2,53.6c0.1,0.1,0.2,0.1,0.3,0.2c0.1,0.1,0.3,0,0.3,0.2c0,0.1-0.1,0.1-0.1,0.1c-0.2,0-0.3-0.1-0.4-0.2
		C12.2,53.9,12.1,53.8,12.2,53.6z"/>
	<path class="st0" d="M19.3,97c-0.1,0.9-0.2,1.7-0.3,2.6c0,0.3,0.1,0.5,0.2,0.7c0.1,0.2,0,0.3-0.2,0.4c-1.9,0.5-3.7,0.6-5.6,0
		c-0.2-0.1-0.3-0.1-0.2-0.3c0.6-1,0-2,0-3c0-0.1,0-0.2-0.1-0.5c-0.3,0.6-0.6,1.2-0.9,1.7c-0.1,0.2-0.1,0.3-0.2,0.5
		c-0.5,0.8-0.5,0.8-1.3,0.3c-0.4-0.3-0.9-0.5-1-0.9c-0.2-0.4,0.3-0.8,0.5-1.2c0.7-1.2,1.3-2.5,2-3.7c0.5-0.9,1.6-1.4,2.6-1.3
		c0.3,0,0.3,0.2,0.4,0.4c0.1,0.3,0.3,0.5,0.6,0.4c0.2,0,0.4,0,0.5,0c0.4,0,0.7,0,0.8-0.5c0-0.2,0.2-0.3,0.4-0.3
		c1-0.1,2.1,0.5,2.6,1.4c0.8,1.5,1.6,2.9,2.4,4.4c0.1,0.1,0.1,0.2,0.2,0.3c0,0.1-0.1,0.2-0.1,0.2c-0.1,0-0.1,0-0.2,0
		c-0.6-0.4-1.1-0.1-1.2,0.5c0,0.1,0,0.2,0,0.3c0,0.2-0.1,0.4-0.3,0.4c-0.2,0-0.3-0.2-0.4-0.3c-0.4-0.8-0.8-1.6-1.2-2.4
		C19.5,97.1,19.5,97,19.3,97z M16.3,93.5c-0.8,0-0.8,0-1,0.8c-0.2,1.1-0.4,2.2-0.6,3.3c0,0.3,0,0.4,0.2,0.5c0.4,0.3,0.8,0.8,1.3,0.9
		c0.5,0,0.9-0.6,1.3-0.9c0,0,0.1,0,0.1-0.1c0.1-0.1,0.2-0.2,0.2-0.4c-0.2-1.1-0.4-2.3-0.6-3.4C17.1,93.5,17.1,93.5,16.3,93.5z"/>
	<path class="st0" d="M25,93c-0.2,0-0.2,0.2-0.2,0.3c-0.1,0.7-0.1,1.5-0.2,2.2c0,0.1,0,0.3,0.1,0.4c0.3,0.7,0.2,0.7-0.5,0.9
		c0,0-0.1,0-0.1,0c-1.3,0.3-1.3,0.3-1.9-1c-0.1-0.3-0.3-0.5-0.5-0.8c0.7-0.2,1.1-0.8,1.7-1.1c0.1-0.1,0-0.3,0-0.4
		c-0.2-1.2-0.4-2.3-0.6-3.5c-0.1-0.4-0.2-0.6-0.7-0.6c-1.1,0-1.1,0-1.2,1.1c-0.1,0.6-0.3,1.3-0.3,1.9c0,0.3-0.1,0.3-0.4,0.1
		c-0.6-0.5-1.2-0.9-2-0.9c0-0.1,0.1-0.2,0.1-0.3c0.9-0.7,1.4-1.5,1.4-2.7c0-0.2-0.1-0.6,0.3-0.5c0.3,0,0.8-0.3,0.9,0.4
		c0.1,0.4,0.3,0.5,0.6,0.5c0.2,0,0.4,0,0.6,0c0.4,0,0.6-0.1,0.6-0.5c0-0.3,0.2-0.4,0.5-0.4c1.1,0,2,0.4,2.5,1.4
		c0.8,1.5,1.6,2.9,2.4,4.3c0.2,0.3,0.2,0.5-0.1,0.7c-0.4,0.3-0.9,0.7-1.3,0.9c-0.3,0.2-0.3,0.1-0.5-0.1C25.9,94.7,25.5,93.9,25,93z"
		/>
	<path class="st0" d="M21.9,87.6c-1.5,0-2.7-1.3-2.7-2.9c0-1.5,1.3-2.9,2.7-2.9c1.5,0,2.7,1.3,2.7,2.9
		C24.6,86.3,23.4,87.6,21.9,87.6z"/>
	<path class="st0" d="M13.6,88.7c0-1.6,1.2-2.8,2.7-2.8c1.5,0,2.7,1.3,2.7,2.8c0,1.5-1.3,2.8-2.7,2.8C14.8,91.6,13.6,90.3,13.6,88.7
		z"/>
	<path class="st0" d="M22.8,94.2c-0.1,0.2-0.2,0.2-0.3,0.1c-0.6-0.3-1.1-0.6-1.7-1c-0.1-0.1-0.2-0.1-0.1-0.3c0.1-0.1,0.2-0.1,0.2,0
		c0.6,0.3,1.2,0.7,1.8,1C22.7,94.1,22.8,94.1,22.8,94.2z"/>
	<path class="st0" d="M22.9,92c0,0.2-0.1,0.1-0.2,0.1c-0.5-0.3-1-0.6-1.4-0.9c-0.1-0.1-0.3-0.2-0.1-0.3c0.1-0.2,0.2,0.1,0.3,0.1
		c0.4,0.2,0.8,0.5,1.3,0.7C22.8,91.8,22.9,91.9,22.9,92z"/>
	<path class="st0" d="M23.2,93.5c-0.6-0.2-1.1-0.6-1.6-0.9c-0.1,0-0.1-0.1-0.1-0.2c0-0.1,0.1-0.1,0.2-0.1c0.6,0.3,1.1,0.5,1.6,1
		C23.2,93.3,23.2,93.4,23.2,93.5z"/>
	<path class="st0" d="M22.7,90.7c0,0.3-0.1,0.2-0.2,0.1c-0.4-0.2-0.7-0.4-1.1-0.6c-0.1-0.1-0.1-0.2-0.1-0.3c0-0.1,0.2-0.1,0.2,0
		c0.4,0.2,0.7,0.4,1.1,0.7C22.6,90.6,22.7,90.6,22.7,90.7z"/>
	<path class="st0" d="M62.6,97.8c-0.1,0.9-0.2,1.7-0.3,2.6c0,0.1,0,0.3,0.1,0.4c0.3,0.6,0.3,0.6-0.4,0.8c-1.7,0.5-3.4,0.4-5.1-0.1
		c-0.3-0.1-0.5-0.2-0.2-0.5c0.2-0.3,0.2-0.7,0.2-1c-0.1-0.7-0.2-1.4-0.4-2.2c-0.3,0.5-0.6,1.1-0.9,1.6c-0.1,0.2-0.2,0.4-0.3,0.6
		c-0.4,0.7-0.4,0.7-1,0.2c-0.3-0.2-0.7-0.5-1-0.8c-0.3-0.2-0.2-0.4-0.1-0.6c0.8-1.4,1.6-2.9,2.4-4.3c0.5-1,1.6-1.6,2.7-1.5
		c0.3,0,0.3,0.2,0.4,0.4c0.1,0.4,0.3,0.6,0.8,0.5c0.2,0,0.4,0,0.6,0c0.3,0,0.5-0.1,0.5-0.4c0.1-0.4,0.3-0.5,0.7-0.5
		c1.3,0,2.1,0.8,2.7,2c0.7,1.3,1.4,2.6,2.1,3.9c0.1,0.3,0.2,0.4-0.1,0.6c-0.4,0.3-0.9,0.6-1.3,1c-0.4,0.3-0.5,0-0.6-0.2
		c-0.4-0.7-0.7-1.5-1.1-2.2C62.9,98,62.9,97.9,62.6,97.8z M59.6,94.3c-0.8,0-0.8,0-0.9,0.8c-0.2,0.8-0.3,1.6-0.5,2.5
		C58,98.7,58,98.7,59,99.5c0.1,0.1,0.2,0.2,0.4,0.3c0.2,0.2,0.4,0.1,0.6,0c0.4-0.3,0.7-0.6,1.1-0.8c0.2-0.1,0.2-0.2,0.2-0.4
		c-0.3-1.3-0.5-2.5-0.7-3.8c0-0.3-0.2-0.3-0.4-0.3C59.9,94.4,59.8,94.3,59.6,94.3z"/>
	<path class="st0" d="M52.7,93.7c-0.4,0.5-0.4,1,0.1,1.3c0.4,0.3,0.8,0.6,1.2,0.9c0.2,0.1,0.1,0.2,0,0.3c-0.3,0.5-0.6,1-0.8,1.5
		c-0.1,0.2-0.2,0.2-0.4,0.2c-0.6,0-1.1-0.3-1.6-0.4c-0.2,0-0.2-0.2-0.1-0.4c0.4-1.1,0-2.1-0.1-3.2c0,0-0.1-0.1-0.1-0.2
		c-0.5,0.9-1,1.8-1.4,2.7c-0.1,0.3-0.3,0.3-0.4,0.1c-0.5-0.3-1-0.7-1.5-1.1c-0.1-0.1-0.2-0.2-0.1-0.5c0.9-1.6,1.8-3.2,2.7-4.8
		c0.4-0.7,1.7-1.2,2.5-1.1c0.2,0,0.3,0.2,0.3,0.4c0,0.3,0.2,0.4,0.5,0.4c0.2,0,0.5,0,0.7,0c0.4,0,0.6,0,0.7-0.5
		c0.1-0.5,0.6-0.3,0.9-0.3c0.3,0,0.3,0.2,0.3,0.4c0,1.2,0.2,1.6,1.6,2.9c-0.8,0.1-1.6,0.4-2.2,1c-0.2,0.2-0.3,0.1-0.3-0.2
		c0-0.8-0.3-1.5-0.4-2.2c-0.1-0.8-0.1-0.8-0.9-0.8c-0.9,0-0.9,0-1,0.9c-0.1,0.7-0.3,1.4-0.4,2.2C52.7,93.5,52.6,93.6,52.7,93.7
		L52.7,93.7z"/>
	<path class="st0" d="M68.4,93.8c-0.2,0.2-0.2,0.5-0.2,0.7c0,0.5,0,1-0.1,1.5c-0.1,0.4,0,0.8,0.2,1.1c0.1,0.3,0,0.4-0.2,0.4
		c0,0-0.1,0-0.1,0c-2.2,0.6-1.5,0.5-2.6-1.3c-0.1-0.2-0.1-0.3,0.1-0.5c0.4-0.2,0.7-0.6,1.1-0.8c0.4-0.2,0.4-0.5,0.3-0.8
		c-0.1-0.5-0.2-1-0.3-1.5c0-0.1-0.1-0.2,0-0.3c0.1-0.1,0.2,0,0.3,0.1c0.1,0.2,0.2,0.3,0.4,0.1c0.2-0.2,0-0.3-0.1-0.4
		c-0.4-0.6-0.9-1-1.1-1.7c-0.1-0.3-0.2-0.4,0.1-0.6c0.3-0.2,0.6-0.1,0.8,0.2c0.3,0.4,0.6,0.8,1,1.2c0.1,0.1,0.2,0.2,0.3,0.3
		c0.1,0.2,0.2,0.1,0.4,0c0.2-0.1,0.1-0.2,0-0.3c-0.6-0.7-1-1.5-1.7-2c0.4-0.2,0.7-0.1,1,0.2c0.2,0.3,0.5,0.6,0.7,0.9
		c0.1,0.1,0.1,0.2,0.2,0.2c1,0.2,1.2,1.1,1.6,1.8c0.5,0.9,0.9,1.7,1.4,2.6c0.2,0.3,0.1,0.4-0.1,0.6c-0.5,0.3-0.9,0.7-1.4,1
		c-0.2,0.1-0.3,0.2-0.5-0.1C69.3,95.5,68.8,94.7,68.4,93.8z"/>
	<path class="st0" d="M62.3,89.6c0,1.5-1.3,2.8-2.7,2.8c-1.5,0-2.7-1.3-2.7-2.8c0-1.5,1.3-2.9,2.7-2.9C61.1,86.7,62.4,88,62.3,89.6z
		"/>
	<path class="st0" d="M68,85.5c0,1.6-1.2,2.8-2.7,2.9c-1.5,0-2.7-1.2-2.7-2.8c0-1.6,1.2-2.8,2.7-2.8C66.7,82.7,67.9,83.9,68,85.5z"
		/>
	<path class="st0" d="M54.1,82.7c1.5,0,2.7,1.3,2.6,2.9c0,1.6-1.3,2.8-2.7,2.8c-1.5,0-2.7-1.3-2.6-2.9
		C51.4,83.9,52.6,82.7,54.1,82.7z"/>
	<path class="st0" d="M61.4,92.5c0.6-0.5,1.1-1,1.4-1.6C63,90.4,63,90,63,89.6c0-0.2,0-0.5,0.3-0.4c0.3,0,0.8-0.2,0.9,0.2
		c0.1,0.3,0.2,0.6,0.5,0.6c0.1,0,0.2,0.1,0.2,0.2c0,0.1-0.1,0.1-0.2,0.1c-0.4,0-0.5,0.3-0.5,0.5c-0.1,0.8-0.4,1.5-0.3,2.2
		c0,0.2,0,0.4-0.2,0.5c-0.2,0.1-0.2-0.2-0.3-0.2C62.9,92.8,62.2,92.6,61.4,92.5z"/>
	<path class="st0" d="M52.7,93.7c0.7,0.3,1.3,0.7,2,1.1c0.1,0,0.2,0.1,0.1,0.2c-0.1,0.1-0.2,0.1-0.3,0c-0.5-0.3-1.1-0.6-1.6-0.9
		C52.7,94,52.8,93.8,52.7,93.7L52.7,93.7z"/>
	<path class="st0" d="M55.2,94.3c-0.7-0.4-1.3-0.8-2-1.2c-0.1-0.1-0.3-0.2-0.2-0.3c0.1-0.2,0.2,0,0.4,0.1c0.5,0.3,1,0.6,1.5,0.9
		C55.1,93.8,55.4,93.9,55.2,94.3z"/>
	<path class="st0" d="M66.5,94.3c-0.7-0.5-1.4-0.9-2.2-1.3c-0.1-0.1-0.2-0.1-0.1-0.2c0-0.1,0.2-0.1,0.3-0.1c0.2,0.1,0.4,0.2,0.5,0.3
		c0.4,0.3,0.7,0.6,1.2,0.7C66.4,93.8,66.7,94,66.5,94.3z"/>
	<path class="st0" d="M64.2,93.8c0,0,0.1,0.1,0.2,0.1c0.5,0.3,1,0.6,1.5,0.9c0.1,0.1,0.3,0.1,0.2,0.3c-0.1,0.2-0.2,0.1-0.3,0
		c-0.5-0.3-1.1-0.6-1.6-0.9C64,94,64,94,64,93.9C64,93.8,64.1,93.8,64.2,93.8z"/>
	<path class="st0" d="M55.1,92.8c0,0.2-0.1,0.2-0.2,0.2c-0.5-0.3-1-0.7-1.6-1c-0.1,0-0.1-0.1-0.1-0.2c0.1-0.1,0.1-0.1,0.2,0
		c0.5,0.3,1,0.6,1.5,0.9C55,92.7,55,92.8,55.1,92.8z"/>
	<path class="st0" d="M54.8,91.6c-0.5-0.1-0.9-0.4-1.3-0.6c-0.1-0.1-0.2-0.2-0.1-0.3c0.1-0.1,0.2,0,0.3,0C54,91,54.6,91.1,54.8,91.6
		z"/>
	<path class="st0" d="M66,91.8c-0.5-0.4-1-0.5-1.4-1C65.2,90.7,65.9,91.2,66,91.8z"/>
	<path class="st1" d="M66.5,92.2C66.5,92.3,66.5,92.3,66.5,92.2C66.5,92.3,66.5,92.3,66.5,92.2C66.5,92.3,66.5,92.2,66.5,92.2
		C66.5,92.2,66.5,92.2,66.5,92.2z"/>
	<path class="st0" d="M102.8,99.4c-0.1,0.9-0.2,1.7-0.3,2.6c0,0.2,0,0.3,0.1,0.5c0.3,0.5,0.1,0.6-0.4,0.8c-1.7,0.5-3.4,0.5-5.2-0.1
		c-0.3-0.1-0.5-0.2-0.2-0.6c0.2-0.3,0.2-0.6,0.2-0.9c-0.1-0.7-0.2-1.5-0.4-2.3c-0.3,0.5-0.5,1-0.8,1.4c-0.1,0.3-0.3,0.6-0.4,0.9
		c-0.3,0.6-0.3,0.6-0.9,0.2c-0.4-0.3-0.8-0.6-1.2-0.9c-0.3-0.2-0.1-0.5,0-0.6c0.9-1.5,1.6-3,2.5-4.5c0.6-1,1.5-1.3,2.6-1.3
		c0.3,0,0.4,0.2,0.4,0.4c0.1,0.4,0.3,0.5,0.7,0.5c0.2,0,0.4,0,0.6,0c0.3,0,0.5-0.1,0.6-0.4c0.1-0.4,0.3-0.5,0.7-0.4
		c1.4,0,2.1,0.8,2.7,2c0.7,1.3,1.4,2.6,2.1,3.9c0.1,0.3,0.2,0.4-0.1,0.6c-0.4,0.3-0.9,0.6-1.3,1c-0.4,0.3-0.5,0-0.6-0.2
		c-0.4-0.7-0.7-1.4-1.1-2.1C103,99.6,103,99.5,102.8,99.4z M99.8,96c-0.8,0-0.8,0-1,0.8c-0.2,1.1-0.4,2.2-0.6,3.4
		c0,0.1-0.1,0.3,0.1,0.4c0.4,0.3,0.8,0.8,1.3,0.9c0.6,0.2,0.9-0.6,1.4-0.8c0.2-0.1,0.4-0.2,0.3-0.5c-0.2-1.1-0.4-2.3-0.6-3.4
		C100.6,95.9,100.5,96,99.8,96z"/>
	<path class="st0" d="M92.3,90.1c-0.8,0-1.4,0.3-2,0.8c-0.3,0.3-0.4,0.2-0.4-0.1c-0.2-0.9-0.3-1.7-0.5-2.6c0-0.2-0.1-0.3-0.4-0.3
		c-1.2,0-1.2-0.1-1.5,1.1c0,0.1-0.1,0.2-0.1,0.4c0,0.5-0.3,0.9,0.5,1.1c0.6,0.1,1,0.7,1.6,0.9c0.1,0.1,0.2,0.2,0.2,0.4
		c-0.9-0.4-1.7-0.8-2.4-1.5c-0.3,0.8-0.3,0.8,0.4,1.1c0.4,0.2,0.7,0.4,1.1,0.6c0.2,0.1,0.2,0.3,0.3,0.5c-0.7-0.5-1.5-0.6-1.9-1.3
		c-0.4,0.7-0.3,0.9,0.4,1.4c0.3,0.2,0.6,0.6,1,0.7c0.2,0.1,0.1,0.1,0.1,0.3c-0.3,0.4-0.6,0.9-0.7,1.3c-0.2,0.5-0.5,0.5-0.8,0.4
		c-0.4-0.1-0.8-0.1-1.2-0.3c-0.3-0.1-0.3-0.2-0.2-0.5c0.2-0.3,0.2-0.7,0.2-1.1c-0.1-0.7-0.2-1.4-0.4-2.2c-0.4,0.8-0.8,1.5-1.2,2.3
		c-0.3,0.6-0.3,0.6-0.8,0.2c0,0-0.1-0.1-0.1-0.1c-0.4-0.3-1.1-0.6-1.2-1c-0.1-0.5,0.4-1,0.7-1.4c0.6-1.1,1.2-2.3,1.8-3.4
		c0.5-0.9,1.6-1.5,2.6-1.4c0.2,0,0.3,0.1,0.4,0.3c0.1,0.5,0.4,0.6,0.8,0.5c0.1,0,0.3,0,0.4,0c0.4,0.1,0.6-0.1,0.6-0.4
		c0.1-0.6,0.6-0.4,0.9-0.4c0.4,0,0.3,0.3,0.3,0.6c0.1,1.1,0.5,2,1.4,2.6c0,0,0.1,0.1,0.1,0.1C92.2,90,92.2,90.1,92.3,90.1z"/>
	<path class="st0" d="M93,94.4c-0.1,0.3-0.2,0.6-0.1,1l0,0c-0.4,0.5-0.4,1,0.1,1.3c0.4,0.3,0.8,0.6,1.2,0.9c0.2,0.1,0.1,0.2,0,0.3
		c-0.3,0.5-0.5,1-0.8,1.5c-0.2,0.4-0.6,0.2-0.9,0.2c-0.4,0-0.8-0.2-1.1-0.3c-0.3-0.1-0.3-0.2-0.2-0.4c0.4-1.1,0-2.1-0.1-3.2
		c0-0.1-0.1-0.1-0.1-0.2c-0.5,0.9-0.9,1.7-1.4,2.6c-0.1,0.3-0.2,0.3-0.5,0.2c-0.5-0.3-1-0.7-1.5-1.1c-0.2-0.1-0.2-0.2-0.1-0.5
		c0.9-1.6,1.8-3.2,2.7-4.8c0.4-0.7,1.7-1.2,2.5-1.1c0.2,0,0.3,0.2,0.3,0.4c0,0.3,0.2,0.4,0.5,0.4c0.2,0,0.5,0,0.7,0
		c0.4,0,0.6,0,0.7-0.5c0.1-0.5,0.6-0.2,0.9-0.3c0.3,0,0.3,0.2,0.3,0.5c0,1.2,0.2,1.6,1.6,2.9c-0.8,0.1-1.6,0.4-2.2,1
		c-0.2,0.2-0.2,0.1-0.3-0.1c0-0.2-0.1-0.5-0.1-0.8c-0.2,0.3-0.3,0.3-0.6,0.1c-0.5-0.4-1.1-0.6-1.6-1C93,93.7,92.9,94,93,94.4
		L93,94.4z M93.1,93.3c0.9,0.2,1.4,0.7,2.2,1.1c-0.2-0.8-0.3-1.6-0.4-2.3c0-0.1-0.1-0.1-0.3-0.1c-1.4,0.1-1.4-0.3-1.5,1.2
		C93.2,93.2,93.1,93.3,93.1,93.3z"/>
	<path class="st0" d="M114,91.4c-0.1,0.9-0.2,1.7-0.3,2.6c0,0.2,0,0.3,0.1,0.4c0.3,0.4,0.1,0.6-0.3,0.7c-0.1,0-0.2,0.1-0.3,0.1
		c-1.2,0.3-1.2,0.3-1.9-0.9c-0.1-0.2-0.2-0.4-0.3-0.5c-0.2-0.2-0.2-0.3,0.1-0.5c0.5-0.2,0.8-0.6,1.3-0.9c0.1-0.1,0.2-0.2,0.1-0.4
		c-0.3-1.3-0.5-2.6-0.7-3.9c0-0.1,0-0.2-0.1-0.2c-0.4,0-0.9,0-1.3,0c-0.2,0-0.1,0.2-0.2,0.3c-0.2,0.8-0.3,1.7-0.5,2.5
		c-0.1,0.3,0,0.7-0.5,0.2c-0.5-0.5-1.2-0.8-1.9-0.8c0.2-0.3,0.5-0.4,0.7-0.7c0.5-0.7,0.9-1.4,0.9-2.3c0-0.2-0.1-0.5,0.3-0.5
		c0.3,0,0.7-0.2,0.9,0.3c0.1,0.2,0.1,0.5,0.3,0.5c0.4,0,0.9,0,1.3,0c0.1,0,0.2-0.2,0.2-0.3c0.1-0.5,0.4-0.6,0.9-0.5
		c1.3,0.1,2,0.9,2.6,1.9c0.7,1.3,1.4,2.6,2.1,3.9c0.1,0.2,0.2,0.4-0.1,0.6c-0.4,0.3-0.9,0.6-1.3,0.9c-0.4,0.3-0.5,0.1-0.7-0.2
		c-0.4-0.7-0.7-1.5-1.1-2.2C114.2,91.6,114.2,91.5,114,91.4z"/>
	<path class="st0" d="M101.6,94.1c0.5-0.5,1-0.9,1.2-1.5c0.2-0.5,0.3-1,0.3-1.5c0-0.3,0.1-0.4,0.3-0.4c0.3,0,0.8-0.2,0.9,0.3
		c0.1,0.5,0.3,0.6,0.7,0.5c0.2,0,0.5,0,0.7,0c0.3,0,0.5-0.1,0.5-0.4c0-0.4,0.3-0.4,0.6-0.4c1.1,0,1.9,0.4,2.5,1.4
		c0.8,1.5,1.6,3,2.5,4.5c0.1,0.2,0.1,0.4-0.1,0.5c-0.5,0.4-1,0.7-1.5,1.1c-0.2,0.1-0.3,0.1-0.4-0.2c-0.4-0.9-0.9-1.7-1.3-2.6
		c-0.3,0.1-0.2,0.4-0.2,0.5c-0.1,0.6-0.1,1.2-0.2,1.8c-0.1,0.4,0.1,0.7,0.2,1c0.1,0.2,0,0.3-0.1,0.4c-0.5,0.1-1,0.3-1.6,0.4
		c-0.3,0-0.4-0.1-0.5-0.3c0,0-0.1-0.1-0.1-0.1c-0.2-0.5-0.8-1-0.7-1.4c0.1-0.4,0.8-0.7,1.2-1c0.3-0.2,0.4-0.4,0.3-0.8
		c-0.2-1.1-0.4-2.1-0.6-3.2c-0.1-0.5-0.2-0.8-0.8-0.7c0,0,0,0-0.1,0c-1,0-1,0-1.1,1c-0.1,0.7-0.3,1.3-0.4,2c0,0.2-0.1,0.4-0.4,0.1
		C103.1,94.5,102.5,94.2,101.6,94.1z"/>
	<path class="st0" d="M102.5,91.2c0,1.5-1.3,2.8-2.7,2.8c-1.4,0-2.7-1.3-2.7-2.9c0-1.5,1.3-2.8,2.7-2.9
		C101.2,88.3,102.5,89.6,102.5,91.2z"/>
	<path class="st0" d="M97.1,83.1c0-1.5,1.3-2.9,2.7-2.9c1.4,0,2.7,1.4,2.7,2.9c0,1.5-1.3,2.8-2.7,2.8C98.3,86,97.1,84.7,97.1,83.1z"
		/>
	<path class="st0" d="M85.8,83.1c0-1.5,1.3-2.9,2.7-2.8c1.5,0,2.7,1.4,2.7,2.9c0,1.5-1.3,2.8-2.7,2.8C87.1,86,85.8,84.6,85.8,83.1z"
		/>
	<path class="st0" d="M105.4,90c-1.5,0-2.7-1.3-2.7-2.8c0-1.6,1.2-2.8,2.7-2.8c1.5,0,2.7,1.2,2.7,2.8C108.1,88.7,106.9,90,105.4,90z
		"/>
	<path class="st0" d="M94.1,84.3c1.5,0,2.7,1.2,2.7,2.8c0,1.6-1.2,2.8-2.7,2.8c-1.5,0-2.7-1.3-2.7-2.8
		C91.4,85.6,92.6,84.3,94.1,84.3z"/>
	<path class="st0" d="M113.7,83.2c0,1.6-1.3,2.9-2.8,2.8c-1.4,0-2.7-1.4-2.7-2.9c0-1.5,1.3-2.8,2.7-2.8
		C112.5,80.3,113.7,81.6,113.7,83.2z M112.8,84.2c0-0.1,0.2-0.3-0.2-0.3c-0.2,0-0.3,0.1-0.3,0.3c0,0.4-0.2,0.6-0.6,0.6
		c-0.2,0-0.2,0.2-0.2,0.3c0,0.2,0.2,0.1,0.3,0.1C112.4,85.2,112.7,84.9,112.8,84.2z M110.8,83.7c0.1,0.1-0.2,0.4,0.2,0.4
		c0.2,0,0.3-0.2,0.3-0.4c0-0.3,0.1-0.5,0.5-0.6c0.2,0,0.3-0.1,0.3-0.3c-0.1-0.3-0.3-0.1-0.4-0.1C111.1,82.9,110.8,83.2,110.8,83.7z"
		/>
	<path class="st0" d="M97.2,88.8c0.2-0.6,0.4-1.1,0.4-1.7c0-0.2,0-0.5,0.3-0.5c0.3,0,0.7-0.2,0.9,0.2c0.1,0.2,0.1,0.6,0.4,0.6
		c0.4,0.1,0.9,0,1.3,0c0.2,0,0.2-0.3,0.3-0.5c0.2-0.5,0.6-0.3,0.9-0.3c0.4,0,0.3,0.3,0.3,0.5c0,0.2,0,0.5,0.1,0.7
		c0.1,0.2,0.2,0.5,0.1,0.8C100.5,87.3,98.9,87.4,97.2,88.8z"/>
	<path class="st0" d="M92.9,94.4c0.3,0,0.5,0,0.7,0.2C94,95,94.6,95,95,95.3c0.2,0.1,0.5,0.2,0.4,0.6C94.6,95.4,93.7,95.1,92.9,94.4
		L92.9,94.4z"/>
	<path class="st0" d="M92.9,95.3c0.7,0.3,1.3,0.7,2,1.1c0.1,0,0.2,0.1,0.1,0.2c-0.1,0.1-0.2,0.1-0.3,0c-0.5-0.3-1.1-0.6-1.6-0.9
		C92.9,95.6,92.9,95.4,92.9,95.3L92.9,95.3z"/>
	<path class="st0" d="M111.8,92.5c0,0.3-0.2,0.2-0.3,0.2c-0.5-0.3-1.1-0.6-1.6-1c-0.1,0-0.2-0.1-0.1-0.3c0-0.1,0.2-0.1,0.2,0
		C110.6,91.8,111.2,92.1,111.8,92.5C111.8,92.4,111.8,92.5,111.8,92.5z"/>
	<path class="st0" d="M106.4,94.4c0,0.2-0.1,0.2-0.2,0.2c-0.5-0.3-1-0.7-1.6-1c-0.1,0-0.1-0.1-0.1-0.2c0.1-0.1,0.1-0.1,0.2,0
		c0.5,0.3,1,0.5,1.5,0.8C106.3,94.2,106.4,94.4,106.4,94.4z"/>
	<path class="st0" d="M87.8,89.2c0.6,0.5,1.4,0.6,1.9,1.3C89,90.5,87.7,89.6,87.8,89.2z"/>
	<path class="st0" d="M112.2,91.9c-0.8-0.4-1.5-0.8-2.2-1.3c-0.1-0.1-0.2-0.2-0.1-0.3c0.1-0.1,0.2,0.1,0.2,0.1
		c0.7,0.2,1.2,0.7,1.8,1C112.2,91.5,112.3,91.6,112.2,91.9z"/>
	<path class="st0" d="M106.2,96.6c-0.1,0.1-0.1,0.2-0.3,0.1c-0.6-0.3-1.2-0.6-1.8-1c0,0-0.1-0.1-0.1-0.2c0-0.1,0.1-0.2,0.2-0.1
		c0.6,0.3,1.2,0.7,1.8,1C106.2,96.5,106.2,96.5,106.2,96.6z"/>
	<path class="st0" d="M112.2,90.5c-0.8-0.1-2-0.9-1.9-1.3C110.9,89.7,111.6,89.9,112.2,90.5z"/>
	<path class="st0" d="M106.7,95.7c-0.1,0.1-0.2,0.2-0.4,0.1c-0.6-0.4-1.2-0.7-1.8-1.1c-0.1-0.1-0.2-0.2-0.2-0.3c0.1-0.1,0.2,0,0.3,0
		C105.4,94.8,106,95.3,106.7,95.7z"/>
	<path class="st0" d="M111.8,89.1c0,0.2-0.1,0.1-0.2,0.1c-0.4-0.2-0.8-0.4-1.2-0.7c-0.1,0-0.1-0.2-0.1-0.2c0,0,0.1-0.1,0.1-0.1
		c0.4,0.2,0.9,0.5,1.3,0.8C111.8,89,111.8,89.1,111.8,89.1z"/>
	<path class="st0" d="M89.3,89.3c-0.5-0.3-0.9-0.5-1.3-0.8c-0.1-0.1-0.1-0.2-0.1-0.3c0-0.1,0.1-0.1,0.2-0.1c0.4,0.3,0.9,0.4,1.3,0.8
		C89.3,89.1,89.3,89.2,89.3,89.3z"/>
	<path class="st0" d="M104.9,92.2c0.4,0.2,0.8,0.4,1.1,0.7c0.1,0.1-0.1,0.2-0.2,0.2c-0.3-0.2-0.7-0.4-1-0.6c0,0,0-0.1,0-0.2
		C104.8,92.3,104.8,92.3,104.9,92.2z"/>
	<path class="st0" d="M96,90.1c0.3-0.2,0.5-0.4,0.7-0.6C96.6,89.9,96.6,90.3,96,90.1z"/>
	<path class="st0" d="M123.8,62.5c-0.1-0.6-0.3-1.2-0.4-1.8c-0.2,0.5-0.1,1-0.1,1.6c0,0.4-0.1,0.6-0.5,0.8c-2.1,0.7-4.1,0.7-6.2-0.1
		c-0.3-0.1-0.3-0.3-0.3-0.5c0-0.5,0-0.9,0-1.4c0-0.2,0-0.4-0.2-0.7c-0.1,0.7-0.2,1.4-0.4,2.1c-0.8-0.3-1.5-0.8-2.1-1.3
		c-0.3-0.2-0.1-0.5,0-0.8c0.4-1.2,0.6-2.4,0.9-3.7c0.1-0.5,0.3-1,0.6-1.4c0.4-0.5,0.9-0.7,1.5-0.7c0.6,0,1.1,0,1.7,0
		c0.3,0,0.5,0.1,0.5,0.4c0.1,0.4,0.3,0.6,0.7,0.5c0.2,0,0.4,0,0.5,0c0.4,0.1,0.6-0.1,0.6-0.4c0.1-0.3,0.3-0.4,0.6-0.4
		c0.6,0,1.1,0,1.7,0c0.4,0,0.8,0.2,1.2,0.4c0.2,0.1,0.4,0.3,0.1,0.5c-0.2,0.2,0.1,0.3,0.1,0.4c0.5,0.5,0.9,1.1,0.9,1.8
		c0,0.9,0.5,1.8,0.7,2.6c0.1,0.4,0.1,0.7-0.3,0.9C125.1,61.7,124.5,62.2,123.8,62.5z M121.2,59.5c0.2-0.9-0.2-1.7-0.4-2.6
		c-0.1-0.4,0-0.9-0.3-1.1c-0.3-0.2-0.8,0-1.1-0.1c-0.2,0-0.4,0-0.4,0.3c-0.1,0.9-0.3,1.8-0.5,2.7c-0.3,1.3-0.3,1.3,0.8,2.1
		c0.1,0.1,0.2,0.2,0.4,0.3c0.1,0.1,0.2,0.1,0.3,0c0.5-0.3,0.9-0.6,1.4-0.9c0.2-0.1,0.2-0.2,0.1-0.4c-0.1-0.4-0.5-0.1-0.6-0.3
		c-0.4-0.4-1-0.5-1.4-0.8c-0.1-0.1-0.3-0.2-0.4-0.3c-0.1-0.1-0.2-0.1-0.1-0.3c0.1-0.1,0.2,0,0.3,0C119.8,58.6,120.3,59.3,121.2,59.5
		z"/>
	<path class="st0" d="M107.2,51.2c-0.4,0.9-0.4,1,0.3,1.4c0.5,0.3,0.6,0.8,0.4,1.3c-0.1,0.3-0.2,0.7-0.2,1c0,0.3-0.2,0.4-0.5,0.4
		c-0.7-0.1-1.3-0.3-2-0.5c-0.2-0.1-0.3-0.3-0.3-0.5c0-0.5,0-0.9,0-1.4c0-0.2,0-0.4-0.2-0.6c-0.1,0.7-0.2,1.4-0.4,2
		c-0.8-0.3-1.4-0.8-2.1-1.3c-0.3-0.2-0.2-0.6-0.1-0.8c0.4-1.3,0.6-2.6,0.9-3.9c0.2-0.9,0.7-1.5,1.6-1.8c0.3-0.1,0.6,0,1-0.1
		c0.4,0,0.7,0,1.1,0c0.4,0,0.7,0.1,0.7,0.5c0.1,0.3,0.3,0.4,0.6,0.4c0.2,0,0.4,0,0.6,0c0.4,0.1,0.5-0.1,0.6-0.5
		c0.1-0.3,0.8-0.6,1.1-0.4c0.1,0.1,0.1,0.2,0.1,0.3c0,1.2,0.4,2.1,1.4,2.8c0.1,0.1,0.1,0.1,0.1,0.2c0,0.1-0.1,0.1-0.2,0.1
		c-0.7,0-1.4-0.1-2.1,0.1c-0.2,0.1-0.3-0.2-0.3-0.4c0-0.6-0.2-1.2-0.3-1.7c0-0.1,0-0.3-0.2-0.3c-0.4,0-0.8,0-1.2,0
		c-0.2,0-0.2,0.1-0.2,0.2c-0.1,0.4-0.2,0.9-0.3,1.3c-0.1,0.5-0.2,1,0.5,1.1c0.3,0,0.5,0.3,0.8,0.4c0.1,0.1,0.2,0.1,0.1,0.3
		c-0.1,0.1-0.2,0.1-0.2,0c-0.4-0.3-0.9-0.4-1.3-0.9C107.3,50.6,107.1,50.9,107.2,51.2L107.2,51.2z"/>
	<path class="st0" d="M135.1,54.4c-0.1-0.7-0.3-1.3-0.4-2c-0.2,0.2-0.2,0.4-0.2,0.5c0,0.2,0,0.5,0,0.7c0,1.2,0,1.2-1.2,1.5
		c0,0-0.1,0-0.1,0c-1.4,0.3-1.4,0.3-1.7-1.5c-0.1-0.4-0.1-0.6,0.4-0.8c0.5-0.2,0.7-0.6,0.6-1.3c-0.2-1.2-0.4-2.3-0.7-3.5
		c0-0.2-0.1-0.3-0.3-0.3c0,0,0,0-0.1,0c-1.3,0-1.3,0-1.5,1.5c0,0.1,0,0.2,0,0.4c0,0.4-0.1,0.6-0.6,0.4c-0.5-0.1-1-0.1-1.5-0.1
		c-0.1,0-0.4,0.1-0.4-0.1c-0.1-0.2,0.2-0.2,0.3-0.3c0.8-0.7,1.2-1.6,1.2-2.6c0-0.2-0.1-0.5,0.2-0.5c0.3,0,0.8-0.3,1,0.2
		c0.1,0.2,0.1,0.6,0.4,0.6c0.4,0.1,0.9,0,1.3,0c0.1,0,0.2-0.2,0.2-0.3c0.1-0.5,0.4-0.6,0.8-0.5c0.4,0,0.8,0.1,1.2,0
		c1.1-0.2,2.3,0.9,2.3,2c0,0.7,0.3,1.2,0.4,1.8c0.1,0.7,0.3,1.3,0.5,2c0.1,0.4,0.1,0.7-0.3,1C136.3,53.7,135.7,54.2,135.1,54.4z"/>
	<path class="st0" d="M110.5,56.4c-0.1,0.6-0.2,1.1-0.3,1.7c-0.1,0.3-0.2,0.3-0.4,0.2c-0.6-0.4-1.2-0.7-1.7-1.2
		c-0.1-0.1-0.2-0.2-0.2-0.4c0.5-1.6,0.7-3.2,1.2-4.8c0.3-0.9,0.9-1.4,1.8-1.4c0.6,0,1.2,0,1.9,0c0.3,0,0.4,0.1,0.5,0.4
		c0,0.3,0.2,0.4,0.6,0.4c0.3,0,0.5,0,0.8,0c0.3,0,0.5-0.1,0.6-0.4c0.1-0.7,0.7-0.3,1-0.4c0.4,0,0.3,0.3,0.3,0.5
		c0,1.2,0.6,2.1,1.6,2.9c-0.6,0-1,0-1.5,0c-0.2,0-0.4,0-0.6,0.1c-0.5,0.3-0.6,0-0.7-0.4c-0.1-0.5-0.2-0.9-0.2-1.4
		c0-0.3-0.2-0.4-0.5-0.4c-1.2,0-1.2,0-1.4,1.2c-0.2,0.9-0.4,1.9-0.6,2.8c-0.1,0.3,0,0.5,0.3,0.7c0.2,0.1,0.3,0.2,0.4,0.3
		c0.4,0.2,0.5,0.5,0.4,0.9c-0.1,0.4-0.2,0.9-0.3,1.3c-0.1,0.3-0.2,0.4-0.5,0.3c-0.7-0.1-1.3-0.3-1.9-0.5c-0.2-0.1-0.3-0.2-0.3-0.5
		c0-0.6,0-1.3,0-1.9C110.6,56.4,110.6,56.4,110.5,56.4z"/>
	<path class="st0" d="M128.9,56.5c0,0.6,0,1.2,0,1.8c0,0.3-0.1,0.5-0.4,0.6c-0.5,0.1-1,0.3-1.5,0.4c-0.2,0-0.5,0.2-0.6-0.1
		c-0.1-0.3-0.4-0.7-0.2-1.1c0.2-0.3,0.2-0.6-0.1-0.9c-0.3-0.3-0.1-0.6,0.3-0.7c0.4-0.1,0.7-0.3,0.5-0.7c-0.3-1.2-0.2-2.4-0.6-3.6
		c-0.1-0.3-0.2-0.5-0.6-0.5c-1.1,0-1.1,0-1.3,1.1c-0.1,0.4-0.1,0.8-0.3,1.1c-0.3,0.4-0.7-0.1-1,0c-0.5,0.1-1,0-1.5,0
		c0.5-0.5,1-0.9,1.3-1.5c0.2-0.5,0.4-1,0.3-1.6c0-0.3,0.1-0.4,0.3-0.4c0.4,0,1-0.1,1,0.6c0,0.2,0.2,0.2,0.4,0.2c0.2,0,0.5,0,0.7,0
		c0.4,0,0.7,0,0.7-0.5c0-0.2,0.2-0.3,0.3-0.3c0.8,0,1.6-0.1,2.3,0.1c0.8,0.1,1.5,1,1.6,1.8c0.1,0.9,0.3,1.8,0.6,2.7
		c0.1,0.4,0.1,0.8,0.3,1.1c0.3,0.6,0,0.9-0.4,1.2c-0.4,0.3-0.8,0.5-1.2,0.8c-0.3,0.2-0.5,0.1-0.6-0.2
		C129.2,57.5,129.2,57,128.9,56.5z"/>
	<path class="st0" d="M133.7,43c0,1.5-1.2,2.9-2.7,2.9c-1.5,0-2.7-1.3-2.7-2.9c0-1.5,1.3-2.8,2.7-2.8
		C132.4,40.1,133.7,41.5,133.7,43z"/>
	<path class="st0" d="M111.2,43c0,1.5-1.2,2.9-2.7,2.9c-1.5,0-2.7-1.3-2.7-2.9c0-1.5,1.3-2.9,2.7-2.8C110,40.1,111.2,41.5,111.2,43z
		"/>
	<path class="st0" d="M117.1,51c0-1.5,1.2-2.8,2.7-2.9c1.4,0,2.7,1.3,2.7,2.9c0,1.5-1.3,2.8-2.7,2.8C118.3,53.9,117.1,52.6,117.1,51
		z"/>
	<path class="st0" d="M122.5,43c0,1.5-1.3,2.8-2.7,2.8c-1.4,0-2.7-1.3-2.7-2.9c0-1.5,1.3-2.9,2.8-2.9
		C121.3,40.2,122.5,41.5,122.5,43z"/>
	<path class="st0" d="M125.4,44.2c1.5,0,2.7,1.3,2.7,2.8c0,1.6-1.2,2.8-2.7,2.8c-1.5,0-2.7-1.3-2.7-2.8
		C122.7,45.4,123.9,44.2,125.4,44.2z"/>
	<path class="st0" d="M114.1,44.2c1.5,0,2.7,1.2,2.7,2.8c0,1.6-1.2,2.8-2.7,2.8c-1.5,0-2.7-1.3-2.7-2.8
		C111.5,45.4,112.6,44.2,114.1,44.2z"/>
	<path class="st0" d="M117.3,48.4c0.1-0.5,0.3-1.1,0.2-1.6c0-0.1,0-0.2,0.2-0.2c0.4-0.2,1,0.1,1.1,0.5c0.1,0.2,0.2,0.4,0.5,0.3
		c0.2,0,0.4,0,0.5,0c0.5,0.1,0.7-0.1,0.9-0.6c0.2-0.5,0.7-0.2,1-0.3c0.3,0,0.2,0.3,0.2,0.5c0,0.5,0.2,1,0.2,1.5
		c-0.3,0-0.5-0.3-0.7-0.5c-1.1-0.7-2.9-0.6-3.9,0.3C117.6,48.4,117.5,48.4,117.3,48.4C117.4,48.5,117.4,48.4,117.3,48.4z"/>
	<path class="st0" d="M129.9,50.3c0.1,0,0.2-0.1,0.2,0c0.6,0.4,1.3,0.8,1.9,1.1c0.1,0.1,0.3,0.2,0.2,0.3c-0.1,0.2-0.3,0-0.3-0.1
		C131.3,51.1,130.5,51,129.9,50.3z"/>
	<path class="st0" d="M109.7,50.3c-0.7,0-1.9-0.9-1.9-1.3C108.4,49.5,109.1,49.7,109.7,50.3z"/>
	<path class="st0" d="M115.2,54.3c0,0.2-0.2,0.2-0.3,0.1c-0.5-0.3-1-0.6-1.4-0.9c-0.1,0-0.1-0.1-0.1-0.2c0-0.1,0.1-0.1,0.2,0
		c0.5,0.3,1,0.6,1.6,0.9C115.1,54.1,115.1,54.2,115.2,54.3z"/>
	<path class="st0" d="M126.4,54.3c-0.8-0.1-1.2-0.6-1.8-0.8c0,0-0.1-0.1-0.1-0.2c0-0.1,0.1-0.1,0.2-0.1
		C125.3,53.5,125.9,53.7,126.4,54.3z"/>
	<path class="st0" d="M131.9,50.1c-0.8,0-1.7-0.5-1.7-1C130.8,49.4,131.3,49.7,131.9,50.1z"/>
	<path class="st0" d="M130.5,48.1c0.4,0.3,0.8,0.5,1.3,0.8c0,0,0,0.1,0,0.2c0,0.1-0.1,0-0.2,0c-0.4-0.2-0.8-0.4-1.2-0.7
		c-0.1,0-0.1-0.2-0.1-0.2C130.4,48.1,130.4,48.1,130.5,48.1z"/>
	<path class="st0" d="M109.3,49.2c-0.5-0.3-0.9-0.5-1.3-0.8c-0.1-0.1-0.1-0.2-0.1-0.3c0-0.1,0.1-0.1,0.2-0.1
		c0.4,0.3,0.9,0.4,1.3,0.8C109.3,48.9,109.3,49,109.3,49.2z"/>
	<path class="st0" d="M126.1,53.1c-0.4-0.2-0.8-0.4-1.2-0.6c-0.1-0.1-0.3-0.2-0.2-0.3c0.1-0.2,0.2,0,0.3,0
		C125.5,52.5,126,52.5,126.1,53.1z"/>
	<path class="st0" d="M114,55.9c0,0.1,0,0.2-0.2,0.2c-0.3-0.2-0.6-0.3-0.9-0.5c-0.1-0.1-0.1-0.2,0.1-0.3
		C113.1,55.2,114,55.8,114,55.9z"/>
	<path class="st0" d="M114.9,53.1c-0.5-0.2-0.8-0.4-1.2-0.6c-0.1-0.1-0.3-0.2-0.2-0.3c0.1-0.2,0.2,0,0.3,0.1
		C114.2,52.5,114.7,52.6,114.9,53.1z"/>
	<path class="st0" d="M107.2,51.2c0.4,0,0.7,0.3,1.1,0.5c0.1,0.1,0.2,0.2,0.1,0.3c-0.1,0.2-0.2,0.1-0.3,0
		C107.8,51.8,107.3,51.6,107.2,51.2L107.2,51.2z"/>
	<path class="st0" d="M114,54.9c-0.3-0.1-0.5-0.3-0.8-0.4c0,0-0.1-0.2,0-0.2c0-0.1,0.2-0.1,0.2,0c0.3,0.2,0.5,0.4,0.8,0.6
		c0,0,0.1,0,0,0C114.2,54.9,114.1,54.9,114,54.9z"/>
	<path class="st0" d="M116.7,49.4c-0.1,0.3-0.1,0.6-0.5,0.6c-0.1,0-0.1,0-0.2,0c0-0.1,0.1-0.2,0.1-0.2
		C116.4,49.8,116.4,49.4,116.7,49.4z"/>
	<path class="st0" d="M122.9,49.4c0.2,0.2,0.5,0.2,0.6,0.6C123,50.1,122.9,49.8,122.9,49.4z"/>
	<path class="st0" d="M125.1,54.8c-0.1,0-0.1,0.1-0.1,0c-0.3-0.1-0.5-0.3-0.6-0.5c0-0.1,0-0.1,0.1-0.1
		C124.8,54.3,124.9,54.5,125.1,54.8z"/>
	<path class="st0" d="M117.4,48.5c0,0.1,0,0.2-0.1,0.1C117.2,48.5,117.2,48.4,117.4,48.5C117.4,48.4,117.4,48.5,117.4,48.5z"/>
	<path class="st0" d="M22.1,3.6c-0.3,1,0.5,0.9,0.9,1.2c-0.2,0.2-0.4,0-0.6,0c-0.1,0-0.2-0.1-0.3,0c-0.1,0.1,0,0.2,0.1,0.3
		c0.1,0.1,0.3,0.2,0.1,0.3C22,5.6,22,5.4,21.9,5.3c-0.3-0.4-0.6-0.8-0.9-1.1c-0.1-0.1-0.1-0.1,0-0.2c0.1-0.1,0.2,0,0.2,0
		c0.2,0.2,0.3,0.6,0.5,0.5c0.2-0.1,0-0.5,0.2-0.7C21.9,3.7,21.9,3.7,22.1,3.6z"/>
	<path class="st0" d="M23.7,3.8c0-0.2-0.2-0.3-0.2-0.4c-0.1-0.2-0.5-0.4-0.3-0.6c0.2-0.2,0.3,0.3,0.5,0.4c0,0,0,0.1,0.1,0.1
		c0.4,0.5,0.4,0.8-0.2,1.1c-0.2,0.1-0.4,0-0.5-0.1c-0.2-0.2-0.4-0.4-0.5-0.7c-0.1-0.1-0.2-0.2,0-0.3c0.1-0.1,0.2,0,0.3,0.1
		C22.8,3.6,23,3.8,23.1,4c0.1,0.1,0.2,0.2,0.3,0.1C23.6,4.1,23.7,3.9,23.7,3.8z"/>
	<path class="st0" d="M21.8,5.8c0,0-0.1,0.1-0.1,0.1c-0.1,0-0.1,0-0.2-0.1c-0.2-0.2-0.3-0.4-0.5-0.6c-0.1-0.1-0.3-0.3-0.5-0.1
		c-0.2,0.1-0.2,0.3,0,0.5c0.1,0.2,0.3,0.4,0.4,0.5c0.1,0.1,0.2,0.2,0,0.3c-0.1,0.1-0.2,0-0.2-0.1c-0.2-0.3-0.5-0.6-0.7-0.9
		c0,0,0-0.1-0.1-0.1c0.3-0.1,0.4-0.4,0.7-0.6c0.2-0.1,0.4,0,0.5,0.2C21.3,5.3,21.5,5.5,21.8,5.8z"/>
	<path class="st2" d="M7.7,56.8c0,0.1,0,0.2-0.1,0.2c-0.1,0.1-0.2,0-0.3-0.1c-0.6-0.4-1.2-0.7-1.9-1.1c-0.1-0.1-0.2-0.1-0.3,0
		c0,0.1,0,0.2,0.1,0.3c0.8,0.4,1.4,1,2.2,1.2c0.2,0,0.2,0.6,0,0.7c-0.4,0.3-0.8,0.6-1.2,0.9c-0.1,0.1-0.2,0.1-0.3,0
		c-0.4-0.3-0.8-0.6-1.3-1c-0.1-0.1-0.2-0.2-0.1-0.4C5,56.3,5.2,55,5.4,53.7c0-0.2,0.1-0.3,0.4-0.3c1.2,0,1.2,0,1.5,1.1
		c0.1,0.4,0.1,0.8,0.2,1.2C7.6,56.1,7.7,56.4,7.7,56.8z M5,57c0,0,0.1,0.1,0.1,0.1c0.6,0.4,1.2,0.7,1.8,1c0.1,0,0.1,0,0.2,0
		c0.1-0.1,0-0.2-0.1-0.3c-0.6-0.3-1.1-0.6-1.7-1C5.2,56.8,5.1,56.9,5,57z M7.4,55.9c0-0.2-0.2-0.3-0.3-0.3c-0.4-0.3-0.8-0.5-1.3-0.7
		c-0.1,0-0.2-0.2-0.3,0c-0.1,0.1,0,0.2,0.2,0.3c0.5,0.3,1,0.6,1.5,0.9C7.2,56.1,7.3,56.1,7.4,55.9z M7,54.8c0.1-0.3,0-0.4-0.2-0.5
		C6.6,54.2,6.3,54,6,53.8c-0.1-0.1-0.2-0.2-0.3,0c-0.1,0.1,0.1,0.2,0.2,0.3C6.2,54.3,6.6,54.6,7,54.8z"/>
	<path class="st2" d="M16.3,93.5c0.8,0,0.8,0,0.9,0.8c0.2,1.1,0.4,2.3,0.6,3.4c0,0.2,0,0.3-0.2,0.4c0,0-0.1,0-0.1,0.1
		c-0.4,0.3-0.8,0.9-1.3,0.9c-0.4,0-0.8-0.6-1.3-0.9c-0.2-0.1-0.3-0.3-0.2-0.5c0.2-1.1,0.4-2.2,0.6-3.3
		C15.5,93.5,15.5,93.5,16.3,93.5z M17.4,97.4c0-0.2,0-0.3-0.1-0.4c-0.6-0.3-1.2-0.7-1.8-1c-0.1-0.1-0.2-0.1-0.2,0
		c-0.1,0.1,0,0.2,0.1,0.3C16.1,96.7,16.7,97.1,17.4,97.4z M17.4,96.3c-0.1-0.2-0.1-0.3-0.1-0.3c-0.5-0.4-1.1-0.7-1.7-1
		c-0.1,0-0.1-0.1-0.2,0c0,0.1,0,0.2,0.1,0.3C16.1,95.6,16.7,95.9,17.4,96.3z M15.2,97c-0.1,0-0.1,0-0.2,0.1c0,0.1,0.1,0.2,0.1,0.2
		c0.5,0.3,1.1,0.6,1.6,1c0.1,0,0.2,0.1,0.3,0c0.1-0.1,0-0.2-0.1-0.3c-0.4-0.2-0.8-0.5-1.2-0.7C15.6,97.2,15.4,97.1,15.2,97z
		 M17.1,94.9c0.1-0.3-0.1-0.4-0.2-0.5c-0.3-0.2-0.5-0.3-0.8-0.5c-0.1-0.1-0.2-0.3-0.3,0c-0.1,0.2,0.1,0.3,0.2,0.3
		C16.2,94.5,16.6,94.7,17.1,94.9z"/>
	<path class="st2" d="M59.6,94.3c0.1,0,0.3,0,0.4,0c0.2,0,0.4,0,0.4,0.3c0.2,1.3,0.5,2.5,0.7,3.8c0,0.2,0,0.3-0.2,0.4
		c-0.4,0.3-0.7,0.5-1.1,0.8c-0.2,0.2-0.4,0.2-0.6,0c-0.1-0.1-0.2-0.2-0.4-0.3c-1-0.7-1-0.7-0.8-1.9c0.2-0.8,0.3-1.6,0.5-2.5
		C58.8,94.3,58.8,94.3,59.6,94.3z M60.9,98.3c0.1-0.3,0-0.4-0.2-0.4c-0.6-0.3-1.2-0.7-1.7-1c-0.1-0.1-0.2-0.2-0.3-0.1
		c-0.1,0.1,0,0.2,0.1,0.3C59.5,97.5,60.1,97.9,60.9,98.3z M58.9,95.6c0,0.4,1.3,1.3,1.9,1.3C60.2,96.3,59.5,96.1,58.9,95.6z
		 M60.5,98.9C60.5,98.9,60.4,98.9,60.5,98.9c-0.6-0.4-1.2-0.8-1.8-1.1c-0.1,0-0.2-0.1-0.2,0c0,0.1,0,0.2,0.1,0.2
		c0.6,0.3,1.1,0.7,1.7,1C60.3,99.2,60.5,99.2,60.5,98.9z M60.4,95.5c0,0,0-0.1-0.1-0.1c-0.4-0.2-0.8-0.5-1.2-0.7
		c-0.1,0-0.2,0-0.2,0.1c0,0.1,0,0.2,0.1,0.2c0.4,0.2,0.8,0.5,1.1,0.7C60.3,95.7,60.4,95.7,60.4,95.5z"/>
	<path class="st2" d="M99.8,96c0.8,0,0.8,0,0.9,0.7c0.2,1.1,0.4,2.3,0.6,3.4c0.1,0.3-0.1,0.4-0.3,0.5c-0.5,0.2-0.8,1-1.4,0.8
		c-0.5-0.2-0.9-0.6-1.3-0.9c-0.1-0.1-0.1-0.2-0.1-0.4c0.2-1.1,0.4-2.2,0.6-3.4C99,96,99,96,99.8,96z M101,99.8
		c-0.4-0.5-0.9-0.7-1.4-1c-0.3-0.1-0.7-0.5-0.8-0.3c-0.2,0.4,0.4,0.4,0.6,0.6C99.9,99.3,100.4,99.7,101,99.8z M98.5,99.5
		c0.5,0.5,1.2,0.9,1.9,1.2c0.1,0,0.1,0,0.2-0.1c0-0.1,0-0.2-0.1-0.2c-0.3-0.1-0.6-0.4-0.9-0.5C99.3,99.7,99,99.4,98.5,99.5z
		 M100.7,98.4c0-0.2-0.1-0.2-0.2-0.2c-0.4-0.2-0.8-0.5-1.2-0.7c-0.1,0-0.2-0.2-0.3-0.1c-0.1,0.1,0,0.3,0.1,0.3
		c0.5,0.3,0.9,0.5,1.4,0.8C100.6,98.5,100.7,98.6,100.7,98.4z M99.3,96.2c-0.1,0-0.2,0.1-0.2,0.1c0,0.1,0,0.2,0.1,0.2
		c0.4,0.2,0.8,0.5,1.2,0.7c0,0,0.1,0.1,0.2,0c0-0.1,0-0.2,0-0.2C100.1,96.8,99.7,96.5,99.3,96.2z"/>
	<path class="st2" d="M93.1,93.3c0,0,0-0.1,0-0.2c0.2-1.5,0.1-1.1,1.5-1.2c0.1,0,0.2,0,0.3,0.1c0.1,0.8,0.3,1.5,0.4,2.3
		C94.6,94,94,93.4,93.1,93.3z M95,93.3c-0.2-0.6-0.7-0.7-1.1-1c-0.1-0.1-0.2-0.2-0.3-0.1c-0.1,0.1,0,0.3,0.2,0.3
		C94.1,92.8,94.5,93.1,95,93.3z"/>
	<path class="st0" d="M112.8,84.2c-0.1,0.7-0.4,1-0.9,1c-0.1,0-0.3,0.1-0.3-0.1c0-0.2,0-0.3,0.2-0.3c0.4,0,0.6-0.2,0.6-0.6
		c0-0.2,0.1-0.3,0.3-0.3C112.9,83.9,112.7,84.1,112.8,84.2z"/>
	<path class="st0" d="M110.8,83.7c0-0.5,0.3-0.9,0.8-0.9c0.1,0,0.3-0.2,0.4,0.1c0,0.2-0.1,0.3-0.3,0.3c-0.4,0-0.5,0.2-0.5,0.6
		c0,0.2,0,0.4-0.3,0.4C110.6,84.1,110.8,83.8,110.8,83.7z"/>
	<path class="st2" d="M121.2,59.5c-0.8-0.2-1.4-0.9-2.1-1.2c-0.1,0-0.2-0.1-0.3,0c-0.1,0.1,0,0.2,0.1,0.3c0.1,0.1,0.3,0.2,0.4,0.3
		c0.5,0.3,1,0.4,1.4,0.8c0.1,0.2,0.5-0.1,0.6,0.3c0.1,0.2,0.1,0.3-0.1,0.4c-0.5,0.3-0.9,0.6-1.4,0.9c-0.1,0.1-0.2,0.1-0.3,0
		c-0.1-0.1-0.2-0.2-0.4-0.3c-1.1-0.8-1.1-0.8-0.8-2.1c0.2-0.9,0.4-1.8,0.5-2.7c0-0.3,0.2-0.3,0.4-0.3c0.4,0,0.9-0.1,1.1,0.1
		c0.3,0.2,0.2,0.7,0.3,1.1C120.9,57.8,121.3,58.6,121.2,59.5z M119,57.1c0,0.4,1.1,1.1,1.8,1.2C120.3,57.8,119.6,57.5,119,57.1z
		 M120.6,57.2c-0.1-0.3-1.1-1-1.3-1c-0.1,0-0.2,0-0.2,0.1c0,0.1,0,0.2,0.1,0.2C119.7,56.7,120.1,57,120.6,57.2z M118.8,59.3
		c-0.1,0-0.3,0-0.2,0.1c0.1,0.3,0.4,0.3,0.7,0.5c0.1,0,0.2,0,0.2-0.1C119.3,59.5,119,59.4,118.8,59.3z M119.8,60
		c0.1,0.5,0.4,0.4,0.7,0.5C120.4,60.2,120.1,60.1,119.8,60z"/>
	<path class="st1" d="M5,57c0-0.2,0.1-0.2,0.3-0.1c0.6,0.3,1.1,0.7,1.7,1c0.1,0.1,0.2,0.1,0.1,0.3c0,0.1-0.1,0.1-0.2,0
		c-0.6-0.3-1.2-0.6-1.8-1C5.1,57.1,5.1,57.1,5,57z"/>
	<path class="st1" d="M7.4,55.9c0,0.2-0.1,0.1-0.2,0.1c-0.5-0.3-1-0.6-1.5-0.9c-0.1-0.1-0.2-0.2-0.2-0.3c0.1-0.2,0.2,0,0.3,0
		c0.4,0.2,0.9,0.5,1.3,0.7C7.2,55.7,7.3,55.8,7.4,55.9z"/>
	<path class="st1" d="M7,54.8c-0.4-0.2-0.8-0.5-1.2-0.7c-0.1-0.1-0.2-0.2-0.2-0.3c0.1-0.2,0.2,0,0.3,0c0.3,0.2,0.6,0.3,0.9,0.5
		C7,54.4,7.2,54.5,7,54.8z"/>
	<path class="st0" d="M17.4,97.4c-0.7-0.3-1.4-0.7-2-1.1c-0.1-0.1-0.2-0.2-0.1-0.3c0-0.1,0.2-0.1,0.2,0c0.6,0.4,1.2,0.7,1.8,1
		C17.4,97.1,17.4,97.2,17.4,97.4z"/>
	<path class="st0" d="M17.4,96.3c-0.7-0.4-1.3-0.7-1.9-1c-0.1-0.1-0.1-0.2-0.1-0.3c0-0.1,0.1-0.1,0.2,0c0.6,0.3,1.2,0.6,1.7,1
		C17.4,96,17.4,96.1,17.4,96.3z"/>
	<path class="st0" d="M15.2,97c0.2,0.1,0.3,0.2,0.5,0.3c0.4,0.2,0.8,0.5,1.2,0.7c0.1,0.1,0.2,0.1,0.1,0.3c-0.1,0.1-0.2,0.1-0.3,0
		c-0.6-0.3-1.1-0.6-1.6-1c-0.1,0-0.2-0.1-0.1-0.2C15.1,97,15.2,97,15.2,97z"/>
	<path class="st0" d="M17.1,94.9c-0.4-0.2-0.8-0.4-1.2-0.7c-0.1-0.1-0.3-0.2-0.2-0.3c0.1-0.2,0.2,0,0.3,0c0.3,0.1,0.6,0.3,0.8,0.5
		C17,94.5,17.2,94.6,17.1,94.9z"/>
	<path class="st0" d="M60.9,98.3c-0.7-0.4-1.4-0.8-2.1-1.2c-0.1-0.1-0.2-0.1-0.1-0.3c0.1-0.2,0.2,0,0.3,0.1c0.6,0.3,1.2,0.7,1.7,1
		C60.8,97.9,60.9,98,60.9,98.3z"/>
	<path class="st0" d="M58.9,95.6c0.6,0.5,1.4,0.6,1.9,1.3C60.1,96.9,58.8,96,58.9,95.6z"/>
	<path class="st0" d="M60.5,98.9c0,0.2-0.1,0.2-0.2,0.2c-0.6-0.3-1.1-0.6-1.7-1c-0.1,0-0.1-0.2-0.1-0.2c0-0.1,0.1-0.1,0.2,0
		C59.2,98.2,59.8,98.5,60.5,98.9C60.4,98.9,60.5,98.9,60.5,98.9z"/>
	<path class="st0" d="M60.4,95.5c0,0.2-0.1,0.1-0.2,0.1c-0.4-0.2-0.8-0.4-1.1-0.7C59,94.9,59,94.8,59,94.7c0-0.1,0.1-0.1,0.2-0.1
		c0.4,0.2,0.8,0.5,1.2,0.7C60.4,95.4,60.4,95.5,60.4,95.5z"/>
	<path class="st0" d="M101,99.8c-0.6-0.1-1.1-0.5-1.5-0.8c-0.2-0.2-0.8-0.2-0.6-0.6c0.1-0.2,0.5,0.2,0.8,0.3
		C100.1,99.1,100.6,99.3,101,99.8z"/>
	<path class="st0" d="M98.5,99.5c0.5-0.1,0.7,0.2,1,0.4c0.3,0.2,0.6,0.4,0.9,0.5c0.1,0,0.2,0.1,0.1,0.2c0,0.1-0.1,0.1-0.2,0.1
		C99.8,100.4,99.1,100.1,98.5,99.5z"/>
	<path class="st0" d="M100.7,98.4c0,0.2-0.1,0.2-0.2,0.1c-0.5-0.3-0.9-0.5-1.4-0.8c-0.1-0.1-0.2-0.2-0.1-0.3c0.1-0.2,0.2,0,0.3,0.1
		c0.4,0.2,0.8,0.5,1.2,0.7C100.6,98.2,100.7,98.2,100.7,98.4z"/>
	<path class="st0" d="M99.3,96.2c0.4,0.3,0.8,0.5,1.3,0.8c0,0,0,0.1,0,0.2c0,0.1-0.1,0-0.2,0c-0.4-0.2-0.8-0.4-1.2-0.7
		c-0.1,0-0.1-0.2-0.1-0.2C99.1,96.3,99.2,96.3,99.3,96.2z"/>
	<path class="st0" d="M95,93.3c-0.5-0.3-0.9-0.5-1.3-0.7c-0.1-0.1-0.3-0.2-0.2-0.3c0.1-0.1,0.2,0,0.3,0.1
		C94.2,92.6,94.8,92.7,95,93.3z"/>
	<path class="st0" d="M119,57.1c0.6,0.4,1.3,0.6,1.8,1.2C120.1,58.3,119,57.5,119,57.1z"/>
	<path class="st0" d="M120.6,57.2c-0.5-0.2-0.9-0.5-1.4-0.7c-0.1-0.1-0.1-0.1-0.1-0.2c0-0.1,0.1-0.1,0.2-0.1
		C119.5,56.1,120.5,56.8,120.6,57.2z"/>
	<path class="st0" d="M118.8,59.3c0.2,0.1,0.5,0.2,0.6,0.5c0,0.1-0.1,0.1-0.2,0.1c-0.2-0.1-0.5-0.2-0.7-0.5
		C118.5,59.3,118.6,59.3,118.8,59.3z"/>
	<path class="st0" d="M119.8,60c0.3,0.1,0.6,0.2,0.7,0.5C120.2,60.4,119.9,60.4,119.8,60z"/>
	<g>
		<circle class="st3" cx="59.5" cy="61.3" r="2.3"/>
		<circle class="st3" cx="59.5" cy="41.2" r="2.3"/>
		<path class="st4" d="M57.2,58.7c-3.2-1-5.6-4-5.6-7.5c0-3.5,2.4-6.6,5.6-7.5c-0.7-0.6-1.1-1.5-1.1-2.5c0-0.6,0.2-1.2,0.5-1.7
			c0,0,0,0,0,0c-5.3,1.3-9.2,6.1-9.2,11.8c0,5.7,3.9,10.5,9.2,11.8c0,0,0,0,0,0c-0.3-0.5-0.5-1.1-0.5-1.7
			C56.1,60.3,56.5,59.4,57.2,58.7z"/>
		<path class="st4" d="M62.4,39.4c0.3,0.5,0.5,1.1,0.5,1.8c0,1-0.4,1.9-1.1,2.5c3.2,1,5.6,4,5.6,7.5c0,3.5-2.4,6.6-5.6,7.5
			c0.7,0.6,1.1,1.5,1.1,2.5c0,0.6-0.2,1.2-0.5,1.8c5.3-1.3,9.2-6.1,9.2-11.8C71.6,45.5,67.7,40.7,62.4,39.4z"/>
	</g>
	<path class="st0" d="M59.5,80c-0.6,0-1-0.4-1-1v-9.1c0-0.6,0.4-1,1-1s1,0.4,1,1V79C60.5,79.5,60,80,59.5,80z"/>
	<path class="st0" d="M59.5,33.5c-0.6,0-1-0.4-1-1v-9.1c0-0.6,0.4-1,1-1s1,0.4,1,1v9.1C60.5,33.1,60,33.5,59.5,33.5z"/>
	<path class="st0" d="M40.8,52.2h-9.1c-0.6,0-1-0.4-1-1s0.4-1,1-1h9.1c0.6,0,1,0.4,1,1S41.4,52.2,40.8,52.2z"/>
	<path class="st0" d="M87.2,52.2h-9.1c-0.6,0-1-0.4-1-1s0.4-1,1-1h9.1c0.6,0,1,0.4,1,1S87.8,52.2,87.2,52.2z"/>
	<path class="st0" d="M72.7,39c-0.3,0-0.5-0.1-0.7-0.3c-0.4-0.4-0.4-1,0-1.4l14.6-14.6c0.4-0.4,1-0.4,1.4,0s0.4,1,0,1.4L73.4,38.7
		C73.2,38.9,72.9,39,72.7,39z"/>
	<path class="st0" d="M31.7,80c-0.3,0-0.5-0.1-0.7-0.3c-0.4-0.4-0.4-1,0-1.4l14.6-14.6c0.4-0.4,1-0.4,1.4,0c0.4,0.4,0.4,1,0,1.4
		L32.4,79.7C32.2,79.9,31.9,80,31.7,80z"/>
	<path class="st0" d="M87.2,80c-0.3,0-0.5-0.1-0.7-0.3L71.9,65.1c-0.4-0.4-0.4-1,0-1.4c0.4-0.4,1-0.4,1.4,0l14.6,14.6
		c0.4,0.4,0.4,1,0,1.4C87.7,79.9,87.5,80,87.2,80z"/>
	<path class="st0" d="M46.3,39c-0.3,0-0.5-0.1-0.7-0.3L31,24.1c-0.4-0.4-0.4-1,0-1.4s1-0.4,1.4,0L47,37.3c0.4,0.4,0.4,1,0,1.4
		C46.8,38.9,46.5,39,46.3,39z"/>
</g>
</svg>
