<?xml version="1.0" encoding="utf-8"?>
<!-- Generator: Adobe Illustrator 24.2.2, SVG Export Plug-In . SVG Version: 6.00 Build 0)  -->
<svg version="1.1" id="Layer_1" xmlns="http://www.w3.org/2000/svg" xmlns:xlink="http://www.w3.org/1999/xlink" x="0px" y="0px"
	 width="568.5px" height="328.8px" viewBox="0 0 568.5 328.8" style="enable-background:new 0 0 568.5 328.8;" xml:space="preserve"
	>
<style type="text/css">
	.st0{fill:#FFFFFF;stroke:#2B9AF3;stroke-width:0.578;stroke-miterlimit:10;}
	.st1{fill:#1A1A1A;}
	.st2{fill:none;stroke:#333333;stroke-width:0.4714;stroke-miterlimit:10;}
	.st3{fill:#2B9AF3;stroke:#333333;stroke-width:0.4714;stroke-miterlimit:10;}
	.st4{fill:#F96731;stroke:#333333;stroke-width:0.4714;stroke-miterlimit:10;}
	.st5{fill:#FFFFFF;stroke:#2B9AF3;stroke-width:1.4512;stroke-miterlimit:10;}
	.st6{fill:#F96731;}
	.st7{fill:#2B9AF3;}
	.st8{font-family:'OpenSans-Semibold';}
	.st9{font-size:13.1411px;}
</style>
<g>
	<circle class="st0" cx="157.7" cy="70.6" r="15.8"/>
	<circle class="st0" cx="157.7" cy="164.4" r="15.8"/>
	<circle class="st0" cx="157.7" cy="258.2" r="15.8"/>
	<circle class="st0" cx="415.2" cy="70.6" r="15.8"/>
	<circle class="st0" cx="415.2" cy="164.4" r="15.8"/>
	<circle class="st0" cx="415.2" cy="258.2" r="15.8"/>
	<g>
		<circle class="st0" cx="415.2" cy="305.1" r="15.8"/>
		<g>
			<path class="st1" d="M420.7,304.5c-2.3-0.5-4.3-0.1-5.7,1.9c-1.4,1.9-1.1,3.9,0,5.9c-0.6,0.4-0.9,0.1-1.3-0.1
				c-1.5-0.8-2.7-2-3.6-3.5c-1.2-1.9-1.7-4-2-6.1c-0.1-1.2-0.2-2.3-0.3-3.5c0.3-0.1,0.4-0.2,0.6-0.2c1.9-0.1,3.7-0.6,5.4-1.2
				c0.5-0.2,0.9-0.2,1.4,0c1.8,0.6,3.6,1.1,5.5,1.2c0.1,0,0.2,0.1,0.4,0.1C421.4,300.8,421.1,302.7,420.7,304.5z"/>
			<path class="st1" d="M421.5,304.8c0.2-2.1,0.6-4.3,0.2-6.5c-0.3,0-0.7-0.1-1-0.1c-1.9,0-3.7-0.5-5.4-1.1
				c-0.4-0.2-0.8-0.3-1.3-0.1c-1.9,0.7-3.8,1.2-5.8,1.2c-0.2,0-0.5,0.1-0.9,0.1c0,0.7-0.1,1.4-0.1,2.1c0.2,3.4,0.8,6.7,3,9.5
				c0.9,1.2,2,2.1,3.3,2.8c0.6,0.3,1.1,0.5,1.7,0.2c0.1,0,0.2,0,0.4,0.1c-0.6,0.6-1.1,0.7-1.8,0.4c-2.1-1-3.7-2.5-4.9-4.6
				c-1.4-2.5-1.9-5.2-2.1-8c0-0.9,0-1.8,0-2.8c0.5-0.1,0.9-0.1,1.3-0.1c1.9-0.1,3.8-0.6,5.6-1.2c0.4-0.1,0.9-0.2,1.2,0
				c2.2,0.9,4.5,1.3,6.9,1.3C422.3,300.3,422.2,302.6,421.5,304.8z"/>
			<path class="st1" d="M418.9,304.8c2.5,0,4.5,2,4.5,4.5c0,2.4-2,4.4-4.4,4.5c-2.5,0-4.6-2-4.6-4.4
				C414.5,306.2,417,304.7,418.9,304.8z M419,313.2c2.2,0,4-1.8,4-4c0-2-1.9-3.9-4-3.9c-2.2,0-3.9,1.8-4,4
				C415,311.4,416.8,313.2,419,313.2z"/>
			<path class="st1" d="M418.5,312c-0.6-0.7-1.1-1.3-1.6-1.8c-0.7-0.9-0.7-1.2,0.5-1.9c0.4,0.3,0.8,0.7,1.2,1.1c1-0.8,1.7-2,2.9-2.6
				c0.5,0.3,0.7,0.7,0.4,1.1C420.8,309.2,419.7,310.5,418.5,312z"/>
		</g>
	</g>
	<g>
		<path class="st1" d="M407.8,265.5c0.3,0,0.5,0,0.7,0c4.8,0,9.6,0,14.3,0c0.6,0,0.9,0.2,1,0.6c0,0.4-0.3,0.7-1,0.7
			c-5.2,0-10.3,0-15.5,0c-0.6,0-0.9-0.2-0.9-0.9c0-5.2,0-10.4,0-15.5c0-0.6,0.4-1,0.9-0.8c0.2,0.1,0.3,0.3,0.4,0.5
			c0.1,0.2,0,0.4,0,0.6c0,4.7,0,9.5,0,14.2C407.8,265.2,407.8,265.3,407.8,265.5z"/>
		<path class="st1" d="M414.2,261.6c0.9,0,1.6,0.7,1.6,1.6c0,0.9-0.8,1.7-1.7,1.7c-0.9,0-1.7-0.8-1.7-1.7
			C412.5,262.3,413.3,261.5,414.2,261.6z"/>
		<path class="st1" d="M418.9,256.2c0.9,0,1.6,0.7,1.7,1.6c0,0.9-0.7,1.7-1.7,1.7c-0.9,0-1.7-0.8-1.7-1.7
			C417.2,256.9,418,256.2,418.9,256.2z"/>
		<path class="st1" d="M414.2,254.2c-0.9,0-1.6-0.8-1.6-1.7c0-0.9,0.8-1.6,1.7-1.6c0.9,0,1.7,0.8,1.6,1.7
			C415.8,253.5,415.1,254.2,414.2,254.2z"/>
		<path class="st1" d="M423.5,263.2c0,0.7-0.6,1.3-1.3,1.3c-0.7,0-1.3-0.6-1.3-1.3c0-0.7,0.6-1.3,1.3-1.3
			C423,261.9,423.5,262.5,423.5,263.2z"/>
		<path class="st1" d="M422.9,253.6c-0.5,0-1-0.4-1-1c0-0.5,0.5-1,1-1c0.5,0,1,0.5,1,1C423.9,253.1,423.4,253.6,422.9,253.6z"/>
		<path class="st1" d="M419.9,252.6c0,0.5-0.4,1-1,1c-0.5,0-1-0.4-1-1c0-0.5,0.4-1,1-1C419.4,251.6,419.9,252,419.9,252.6z"/>
		<path class="st1" d="M422.9,258.9c-0.5,0-1-0.4-1-1c0-0.5,0.5-1,1-1c0.5,0,1,0.5,1,1C423.9,258.4,423.4,258.9,422.9,258.9z"/>
		<path class="st1" d="M411.2,252.6c0,0.5-0.5,1-1,1c-0.6,0-1-0.5-1-1c0-0.5,0.5-1,1-1C410.8,251.6,411.2,252,411.2,252.6z"/>
		<path class="st1" d="M411.2,257.9c0,0.6-0.4,1-1,1c-0.5,0-1-0.4-1-1c0-0.6,0.4-1,1-1C410.7,256.9,411.2,257.3,411.2,257.9z"/>
		<path class="st1" d="M410.2,264.2c-0.6,0-1-0.5-1-1c0-0.5,0.5-0.9,1-0.9c0.6,0,1,0.4,1,1C411.1,263.8,410.7,264.2,410.2,264.2z"/>
		<path class="st1" d="M418.2,264.2c-0.6,0-1-0.4-1-1c0-0.6,0.4-1,1-1c0.6,0,1,0.4,1,1C419.2,263.8,418.8,264.2,418.2,264.2z"/>
	</g>
	<g>
		<circle class="st0" cx="415.2" cy="211.3" r="15.8"/>
		<g>
			<path class="st1" d="M421.1,212.5c0-1.2,0-2.3,0-3.3c0-0.5,0-1.1,0-1.6c0.1-0.7-0.6-1.4-1.2-1.3c-0.9,0-1.7,0-2.6,0
				c-0.4,0-0.8,0.1-1,0.5c-0.2,0.4-0.6,0.5-0.9,0.5c-1,0-2.1,0-3.1,0c-0.2,0-0.3-0.1-0.3-0.3c0-0.2,0-0.4,0-0.6c0-0.6,0.4-0.9,1-0.9
				c1.5,0,2.9,0,4.4,0c0.7,0,1.2-0.3,1.6-0.8c0.1-0.1,0.3-0.3,0.5-0.3c0.9,0,1.8,0,2.7,0c0.4,0,0.5,0.2,0.7,0.5
				c0.3,0.5,0.1,1,0.2,1.5c0,0.3,0,0.7,0,1c0,1.2,0,2.4,0,3.6c0,0.2,0,0.3,0,0.5c0,0.4-0.1,0.7-0.5,0.9c0,0-0.1,0.1-0.1,0.1
				C421.9,212.5,421.5,212.5,421.1,212.5z M419.2,204.7c0,0,0,0.1,0,0.1c0.1,0,0.3,0.1,0.4,0.1c0.7,0,1.5,0,2.2,0
				c0.1,0,0.4,0.1,0.4-0.1c0-0.2-0.2-0.2-0.4-0.2c0,0-0.1,0-0.1,0c-0.7,0-1.4,0-2.1,0C419.5,204.6,419.4,204.7,419.2,204.7z"/>
			<path class="st1" d="M413.4,209.5c-0.5-1.1-1.3-1.7-2.4-2c1.4,0,2.8,0,4.2,0c0.6,0,1-0.2,1.3-0.7c0.2-0.3,0.5-0.4,0.8-0.4
				c0.9,0,1.7,0,2.6,0c0.6,0,1,0.4,1,0.9c0,2.1,0,4.3,0,6.4c0,0.6-0.4,0.9-0.9,1c-0.3,0-0.6,0-1,0c0-0.1,0-0.3,0-0.4
				c0-1.5,0-3.1,0-4.6c0-0.5-0.2-0.9-0.6-1.1c-0.2-0.1-0.4-0.1-0.6-0.2c-0.9,0-1.8,0-2.6,0c-0.4,0-0.7,0.2-1,0.5
				C414,209.3,413.7,209.5,413.4,209.5z M417.2,207c0.5,0.1,2.6,0.1,2.9,0C419.7,206.8,417.5,206.8,417.2,207z"/>
			<path class="st1" d="M412.8,213c0.1-0.1,0.1-0.2,0.2-0.2c0.2-0.3,0.4-0.6,0.5-1c0.2-0.4,0.1-0.4,0.6-0.4c1.1,0,2.3,0,3.4,0
				c0.3,0,0.6,0,0.9,0c0.1,0,0.2,0,0.3,0c0,0.1,0,0.2,0,0.3c0,1.4,0,2.7,0,4.1c0,0.6-0.3,1-1,1.1c-0.4,0-0.8,0-1.2,0
				c-0.1,0-0.2-0.1-0.3-0.2c-0.8-1-1.5-2-2.2-3c-0.3-0.4-0.6-0.7-1.1-0.6C412.8,213.1,412.8,213,412.8,213z"/>
			<path class="st1" d="M407.6,212.5c1.1,1.5,2.6,1.9,4.3,1.2c0,0.1,0,0.2,0,0.2c-0.2,0.4-0.1,0.7,0.1,1c0.5,0.7,1,1.3,1.5,2
				c-0.1,0-0.2,0-0.3,0c-1.5,0-3,0-4.5,0c-0.3,0-0.7,0-0.9-0.3c-0.1-0.1-0.3-0.4-0.3-0.6C407.6,214.9,407.6,213.7,407.6,212.5z"/>
			<path class="st1" d="M415.8,216.7c0.1,0.1,0.1,0.1,0.2,0.2c0.2,0.2,0.2,0.5,0,0.7c-0.2,0.2-0.4,0.3-0.6,0.5
				c-0.4,0.2-0.6,0.1-0.9-0.2c-0.6-0.8-1.2-1.7-1.8-2.5c-0.2-0.3-0.4-0.5-0.6-0.8c-0.2-0.2-0.2-0.4-0.1-0.7c0.1-0.2,0.1-0.3,0-0.5
				c-0.2-0.2-0.3-0.1-0.5-0.1c-1.2,0.5-2.3,0.3-3.3-0.5c-0.8-0.7-1.1-1.6-0.9-2.7c0.2-0.9,0.7-1.6,1.5-2.1c0.8-0.5,1.8-0.5,2.6-0.1
				c1.3,0.6,2,1.8,1.8,3.3c-0.1,0.5-0.3,0.9-0.6,1.3c-0.1,0.1-0.2,0.2-0.3,0.3c0.1,0.3,0.3,0.5,0.6,0.4c0.1,0,0.4,0.1,0.4,0.2
				c0.2,0.2,0.3,0.5,0.4,0.7l0,0c-0.1-0.1-0.3-0.3-0.4-0.4c-0.1-0.1-0.2-0.2-0.4-0.1c-0.2,0.1-0.1,0.3,0,0.4c0,0,0.1,0.1,0.1,0.1
				c0.5,0.7,1,1.3,1.4,2c0.3,0.4,0.6,0.8,0.9,1.2c0.1,0.1,0.2,0.3,0.4,0.1c0.2-0.1,0.1-0.3,0-0.4C415.9,217,415.9,216.9,415.8,216.7
				z M412.9,210.9c0.1-1.5-1.1-2.6-2.5-2.6c-1.6,0-2.6,1.2-2.6,2.6c0,1.2,1,2.6,2.6,2.6C411.9,213.5,413,212.2,412.9,210.9z"/>
			<path class="st1" d="M418.7,211.1c-1.7,0-3.4,0-5,0c0-0.4-0.1-0.9-0.1-1.3c0-0.1,0.1-0.1,0.2-0.2c0.2-0.2,0.5-0.3,0.6-0.5
				c0.2-0.3,0.6-0.5,1-0.5c0.8,0,1.6,0,2.3,0c0.8,0,1.2,0.5,1.1,1.1C418.7,210.2,418.7,210.7,418.7,211.1z M417.9,209.1
				c-0.5-0.1-2.7-0.1-3,0c0.1,0,0.1,0.1,0.1,0.1c0.9,0,1.8,0,2.7,0C417.8,209.3,417.8,209.2,417.9,209.1z"/>
			<path class="st1" d="M415.8,216.7c-0.6-0.4-0.9-1-1.3-1.6c0-0.1,0-0.2,0-0.2l0,0c0,0,0.1,0,0.1,0
				C415,215.5,415.4,216.1,415.8,216.7z"/>
			<path class="st1" d="M414.5,214.9L414.5,214.9c-0.3-0.1-0.5-0.3-0.5-0.7l0,0C414.3,214.4,414.4,214.6,414.5,214.9z"/>
			<path class="st1" d="M410.8,212.9c-1.5,0.3-2.8-1-2.4-2.5c0,0.7,0.2,1.3,0.7,1.8C409.5,212.7,410.1,212.9,410.8,212.9z"/>
		</g>
	</g>
	<g>
		<path class="st1" d="M408.2,160.3c0.3-0.5,0.8-0.8,1.3-0.8c3.8,0,7.6,0,11.4,0c0.6,0,1.1,0.2,1.4,0.8c-1,0.8-2,1.5-3,2.3
			c-1,0.8-2,1.6-3.1,2.3c-0.6,0.5-1.3,0.5-1.9,0c-2-1.5-4-3-6-4.5C408.3,160.4,408.2,160.3,408.2,160.3z"/>
		<path class="st1" d="M422.2,168.7c-0.4,0.5-0.8,0.6-1.3,0.6c-3.7,0-7.5,0-11.2,0c-0.5,0-1-0.2-1.3-0.6c0.5-0.4,0.9-0.9,1.4-1.3
			c0.9-0.8,1.8-1.6,2.7-2.4c0.2-0.2,0.4-0.3,0.6,0c0.2,0.2,0.5,0.4,0.8,0.6c0.9,0.6,1.9,0.6,2.7,0c0.4-0.3,0.8-0.7,1.1-0.7
			c0.4,0,0.7,0.5,1.1,0.8C419.9,166.6,421,167.6,422.2,168.7z"/>
		<path class="st1" d="M418.3,164.2c1.4-1,2.7-2,4.1-3.1c0,2.3,0,4.4,0,6.7C421,166.6,419.7,165.4,418.3,164.2z"/>
		<path class="st1" d="M412.1,164.2c-1.4,1.2-2.7,2.4-4.1,3.6c0-2.2,0-4.4,0-6.7C409.4,162.2,410.7,163.2,412.1,164.2z"/>
	</g>
	<g>
		<circle class="st0" cx="415.2" cy="117.5" r="15.8"/>
		<g>
			<path class="st1" d="M415.2,113.6c0,2.5-2,4.4-4.5,4.4c-2.4,0-4.4-2-4.4-4.4c0-2.4,2-4.4,4.5-4.4
				C413.3,109.2,415.3,111.2,415.2,113.6z M410.8,109.8c-2.2,0-3.8,1.7-3.8,3.9c0,2.1,1.8,3.8,3.9,3.8c2.1,0,3.8-1.8,3.8-3.9
				C414.6,111.5,412.9,109.8,410.8,109.8z"/>
			<path class="st1" d="M420.9,115.8c0-0.8,0-1.4,0-2c0-0.2,0.2-0.3,0.2-0.4c0-0.2,0-0.6-0.2-0.7c-0.1-0.1-0.5-0.1-0.7,0
				c-0.1,0.1-0.3,0.5-0.2,0.6c0.3,0.4,0.2,0.8,0.2,1.2c0,0.3,0,0.7,0,1c0,0.1-0.1,0.2-0.1,0.2c-0.1-0.1-0.1-0.1-0.2-0.2
				c-0.2-0.3-0.4-0.6-0.7-0.8c-0.9-0.8-1.1-2.2-0.2-3c0.8-0.9,2.2-0.9,3,0c0.8,0.9,0.7,2.3-0.3,3c-0.3,0.2-0.4,0.6-0.6,0.8
				C421.1,115.6,421,115.6,420.9,115.8z"/>
			<path class="st1" d="M409.9,123.1c0-0.7,0-1.4,0-2.2c0-0.4,0.1-0.6,0.5-0.6c1.4,0,1.2-0.2,1.2,1.2c0,1.2,0,2.4,0,3.7
				c0,0.7-0.6,1.2-1.2,0.9c-0.4-0.2-0.6-0.4-0.6-0.8C409.9,124.6,409.9,123.9,409.9,123.1z"/>
			<path class="st1" d="M414,117.5c0.2-0.1,0.3-0.2,0.4-0.4c0.4,0.5,0.9,0.9,1.3,1.4c0.2,0.2,0.3,0.2,0.6,0.2c0.3-0.1,0.6-0.1,0.9,0
				c0.3,0.1,0.4,0,0.6-0.2c0.5-0.6,1.1-1.1,1.6-1.7c0.1,0.2,0.2,0.3,0.4,0.5c-0.5,0.6-1,1.1-1.5,1.7c-0.1,0.1-0.2,0.4-0.1,0.5
				c0.2,0.7,0.1,1.4-0.5,1.8c-0.5,0.4-1.3,0.4-1.8-0.1c-0.5-0.4-0.7-1.1-0.4-1.8c0-0.1,0.1-0.1,0.1-0.2
				C415,118.7,414.5,118.1,414,117.5z"/>
			<path class="st1" d="M422.4,118.7C422.4,118.7,422.4,118.6,422.4,118.7c1.2-0.1,1.2-0.1,1.2,0.9c0,2,0,4,0,6c0,0.2,0,0.4,0,0.7
				c-0.4,0-0.8,0-1.2,0C422.4,123.7,422.4,121.2,422.4,118.7z"/>
			<path class="st1" d="M420.5,126.3c-0.4,0-0.7,0-1.1,0c0-2.1,0-4.3,0-6.4c0.4,0,0.7,0,1.1,0C420.5,122,420.5,124.1,420.5,126.3z"
				/>
			<path class="st1" d="M413.5,122.2c0.4,0,0.8,0,1.2,0c0,1.4,0,2.7,0,4c0,0,0,0-0.1,0c-1.1,0.2-1.1,0.2-1.1-0.9
				C413.5,124.3,413.5,123.3,413.5,122.2z"/>
			<path class="st1" d="M417.6,126.3c-0.4,0-0.7,0-1.1,0c0-1.2,0-2.3,0-3.5c0.3,0,0.7,0,1.1,0C417.6,123.9,417.6,125.1,417.6,126.3z
				"/>
			<path class="st1" d="M410.1,118.6c0.5,0,0.8,0,1.3,0c-0.1,0.4,0,0.8-0.2,1.1c-0.1,0.1-0.7,0.2-0.8,0
				C410.3,119.4,410.2,119,410.1,118.6z"/>
			<path class="st1" d="M420.8,109.8c-0.6,0.1-0.7,0-0.5-1.1c0.2,0,0.3,0,0.5,0C420.8,109,420.8,109.4,420.8,109.8z"/>
			<path class="st1" d="M423.7,109.6c0.1,0.1,0.2,0.2,0.3,0.4c-0.3,0.2-0.6,0.5-1,0.8c0,0-0.2-0.2-0.3-0.3
				C423.1,110.2,423.3,109.9,423.7,109.6z"/>
			<path class="st1" d="M417.5,109.6c0.3,0.3,0.6,0.6,0.9,0.9c-0.1,0.1-0.2,0.2-0.4,0.4c-0.3-0.3-0.5-0.6-0.8-1
				C417.2,109.9,417.4,109.7,417.5,109.6z"/>
			<path class="st1" d="M419.9,116.3c0.5,0,0.9,0,1.3,0c-0.1,0.2-0.1,0.5-0.2,0.5c-0.3,0.1-0.6,0.1-0.9,0
				C420,116.8,420,116.5,419.9,116.3z"/>
			<path class="st1" d="M409.7,113.5c-0.8,0.3-1.4,0.9-1.7,1.7c-0.8-1.1-0.6-2.9,0.5-3.9c1.2-1.1,3-1.2,4.3-0.2
				c1.2,1,1.6,2.8,0.7,4.1c-0.4-0.8-0.9-1.4-1.6-1.6c0.1-0.5,0.2-1,0.2-1.5c0-0.3-0.3-0.6-0.5-0.8c-0.5-0.5-1.3-0.4-1.9,0.1
				C409.2,111.9,409.2,112.6,409.7,113.5z"/>
			<path class="st1" d="M411.1,116.8c0-0.5,0-1,0-1.5c0-0.1,0.1-0.2,0.2-0.2c0.3-0.2,0.6-0.4,0.9-0.6c0,0,0,0,0,0
				c0.5,0.4,0.9,0.9,0.9,1.5C413.1,116.3,411.8,116.8,411.1,116.8z"/>
			<path class="st1" d="M409.4,114.4c0.3,0.2,0.6,0.4,0.9,0.7c0.1,0.1,0.1,0.2,0.1,0.3c0,0.5,0,1,0,1.5c-0.8,0-1.3-0.3-1.9-0.8
				c-0.1-0.1-0.1-0.3-0.1-0.4C408.7,115.1,409,114.7,409.4,114.4z"/>
			<path class="st1" d="M409.9,112.4c0-0.5,0.4-0.9,0.9-0.9c0.5,0,0.9,0.4,0.8,0.9c0,0.5-0.4,0.9-0.9,0.9
				C410.3,113.3,409.9,112.9,409.9,112.4z"/>
			<path class="st1" d="M411.6,114c-0.4,0.7-1,0.7-1.5,0C410.6,114,411,114,411.6,114z"/>
		</g>
	</g>
	<g>
		<path class="st1" d="M424.3,73.4c0.2,0.4,0.1,0.9,0.1,1.3c0,1-0.3,1.4-1.4,1.4c-4.4,0-8.8,0-13.2,0c-0.8,0-1.7,0-2.5,0
			c-1,0-1.3-0.3-1.3-1.3c0-0.4-0.1-0.9,0.1-1.4C412.1,73.4,418.2,73.4,424.3,73.4z M422.9,74.7c-0.1-0.3-0.3-0.5-0.6-0.5
			c-0.3,0-0.5,0.2-0.4,0.6c0,0.3,0.3,0.5,0.6,0.5C422.8,75.2,422.9,75,422.9,74.7z M418.7,75.3c0.4-0.1,0.6-0.3,0.5-0.7
			c0-0.2-0.2-0.4-0.4-0.4c-0.3,0-0.5,0.1-0.6,0.3C418.1,74.9,418.3,75.1,418.7,75.3z M421,74.8c0-0.3-0.1-0.5-0.4-0.5
			c-0.3,0-0.5,0.1-0.6,0.4c0,0.3,0.2,0.6,0.5,0.6C420.8,75.2,421,75.1,421,74.8z"/>
		<path class="st1" d="M416.1,66.6c-0.2-0.2,0-0.5-0.2-0.7c-0.7-0.1-0.9-0.5-0.8-1.2c0-0.6,0-1.2,0-1.8c0-0.5,0.2-0.8,0.7-0.8
			c2,0,4,0,6,0c0.6,0,0.8,0.3,0.8,0.8c0,0.6,0,1.2,0,1.9c0,0.7-0.3,1-1,1c-0.9,0-1.9,0-2.8,0C417.2,65.8,417.2,65.8,416.1,66.6z
			 M419.8,63.9c0.1,0.3,0.3,0.5,0.7,0.4c0.3-0.1,0.4-0.3,0.3-0.6c0-0.2-0.2-0.4-0.4-0.4C420.1,63.4,419.9,63.6,419.8,63.9z
			 M417.9,63.9c0-0.3-0.2-0.5-0.5-0.5c-0.3,0-0.4,0.2-0.4,0.5c0,0.3,0.2,0.5,0.5,0.5C417.7,64.4,417.8,64.2,417.9,63.9z M419.4,63.9
			c-0.2-0.5-0.5-0.7-0.9-0.3c-0.2,0.2-0.2,0.4,0,0.6C418.9,64.6,419.2,64.4,419.4,63.9z"/>
		<path class="st1" d="M418.1,76.5c0,0.4,0.1,0.6,0.1,0.9c0.4,0.2,0.8,0.1,1.2,0.2c0.4,0.1,0.7,0.3,0.7,0.8c0,0.5-0.4,0.7-0.8,0.7
			c-2.7,0-5.4,0-8.2,0c-0.5,0-0.9-0.2-0.9-0.8c0-0.5,0.4-0.7,0.9-0.7c0.3,0,0.6,0,0.8,0c0.3-0.3,0.1-0.7,0.3-1
			C414.2,76.5,416.1,76.5,418.1,76.5z"/>
		<path class="st1" d="M406,72.9c0-1.7,0-3.4,0-5c0-1.3,0-2.6,0-3.9c0-0.7,0.4-1.1,1.1-1.2c2.5,0,5,0,7.5,0c0.2,0.3,0.2,0.6-0.1,0.9
			c-2.4,0-4.9,0-7.5,0c0,3.1,0,6.1,0,9.1C406.6,73.1,406.4,73,406,72.9z"/>
		<path class="st1" d="M411.9,69.4c-0.3,0-0.6-0.1-0.8-0.3c-0.8-0.7-1.1-2-0.7-3c0.3-0.7,0.9-0.8,1.6-0.9c0.7-0.1,1.2,0.3,1.5,0.8
			c0.6,0.9,0.1,2.6-0.8,3.2C412.3,69.4,412.1,69.5,411.9,69.4z"/>
		<path class="st1" d="M423,62.9c1,0,1.4,0.3,1.4,1c0,3,0,6,0,9c-0.3,0.2-0.6,0.2-1,0c0-0.8,0-1.6,0-2.5c0-1.6,0-3.2,0-4.8
			c0-0.7,0.2-1.5-0.4-2.2C422.9,63.4,423,63.1,423,62.9z"/>
		<path class="st1" d="M413.4,70.3c1.5,0.3,1.6,0.4,1.8,2.6c-0.8,0.1-1.7,0.1-2.5,0C412.3,71.9,412.7,71.1,413.4,70.3z"/>
		<path class="st1" d="M408.7,73c-0.1-2,0-2.2,1.7-2.8c1,1.2,1,1.3,0.7,2.7C410.3,73.1,409.5,73,408.7,73z"/>
		<path class="st1" d="M412,70.3c0.3-0.1,0.5-0.4,1-0.5c-0.4,1.1-1.2,2-0.6,3.2c-0.6-0.2-0.6-0.2-0.5-1.8c-0.5-0.3-0.7-0.7-1-1.3
			C411.4,69.7,411.6,70.2,412,70.3z"/>
	</g>
	<g>
		<path class="st1" d="M150.8,165.1c0.4,0.2,0.8,0.4,1.1,0.7c0.1,0.1,0.1,0.3,0.1,0.4c0,1.4,0,2.9,0,4.3c0,0.8,0.1,0.9,0.9,0.9
			c3.7,0,7.3,0,11,0c0.6,0,0.8-0.2,0.8-0.7c0-2.6,0-5.3,0-7.9c0,0,0-0.1,0-0.2c-1.7,0-3.5,0-5.3,0c0.4-1.3,0.3-2.6-0.3-3.8
			c0.6,0,1.2,0,1.8,0c0,0.4,0,0.9,0,1.3c0,0.7,0.6,1.2,1.3,1.2c0.7,0,1.2-0.5,1.3-1.2c0-0.3,0-0.6,0-0.9c0-0.1,0-0.3,0-0.4
			c1.5-0.3,2.5,0.6,2.5,2c0,3.2,0,6.5,0,9.7c0,1.3-0.8,2.1-2.1,2.1c-3.7,0-7.3,0-11,0c-1.4,0-2.1-0.7-2.1-2.1c0-1.7,0-3.3,0-5
			C150.8,165.4,150.8,165.2,150.8,165.1z"/>
		<path class="st1" d="M151.9,160c-0.3-0.2-0.5-0.4-0.8-0.6c-0.1,0.3-0.3,0.6-0.4,0.9c-0.6,2.1,1,3.9,2.7,4.4c1.5,0.4,3-0.2,4-1.4
			c0.9-1.2,1-2.8,0.2-4.2c-0.8-1.3-2.3-2-3.8-1.7c-0.3,0.1-0.6,0.2-0.9,0.3c-0.2-0.3-0.5-0.5-0.7-0.8c2.3-1.3,5.5-0.4,6.6,2.5
			c0.7,1.8,0.3,3.6-1,5c-1.3,1.4-3,1.8-4.9,1.2c-1.8-0.6-2.9-2-3.2-3.9c-0.2-1,0.1-1.9,0.5-2.8c0.2-0.3,0.1-0.5-0.2-0.7
			c-0.1-0.1-0.2-0.3-0.3-0.4c0.1,0,0.3-0.1,0.4-0.1c0.5,0,1.1-0.1,1.7-0.1c0.1,0,0.3,0.1,0.3,0.2C152.1,158.4,152,159.1,151.9,160z"
			/>
		<path class="st1" d="M156.1,158.7c0.1,0.1,0.2,0.1,0.2,0.2c0,0.1,0,0.3-0.1,0.3c-0.3,0.4-0.6,0.8-1,1.1c-0.4,0.4-0.5,1-0.6,1.6
			c0,0.4,0,0.7-0.1,1.1c0,0.1-0.2,0.3-0.3,0.4c-0.1-0.1-0.2-0.2-0.3-0.3c-0.1-0.2,0-0.5-0.1-0.7c-0.1-0.3-0.1-0.7-0.3-1
			c-0.2-0.5,0-1,0.6-1.1c0.1,0,0.3-0.1,0.4-0.2c0.4-0.4,0.8-0.8,1.2-1.2C155.9,158.8,156,158.8,156.1,158.7z"/>
		<path class="st1" d="M162.8,159.1c0,0.3,0,0.7,0,1c0,0.4-0.2,0.5-0.6,0.6c-0.4,0-0.6-0.2-0.6-0.6c0-0.7,0-1.4,0-2.1
			c0-0.4,0.3-0.6,0.6-0.5c0.4,0,0.6,0.2,0.6,0.6C162.8,158.4,162.8,158.7,162.8,159.1C162.8,159.1,162.8,159.1,162.8,159.1z"/>
		<path class="st1" d="M162.8,165c-0.4,0-0.8,0-1.2,0c0-0.3,0-0.7,0-1c0-0.1,0.1-0.2,0.2-0.2c0.3,0,0.6,0,1,0
			C162.8,164.2,162.8,164.6,162.8,165z"/>
		<path class="st1" d="M160.3,163.8c0,0.4,0,0.8,0,1.2c-0.4,0-0.8,0-1.2,0c0-0.4,0-0.8,0-1.2C159.4,163.8,159.8,163.8,160.3,163.8z"
			/>
		<path class="st1" d="M162.8,167.6c-0.4,0-0.8,0-1.2,0c0-0.4,0-0.8,0-1.2c0.4,0,0.8,0,1.2,0C162.8,166.8,162.8,167.2,162.8,167.6z"
			/>
		<path class="st1" d="M162.8,170.1c-0.4,0-0.8,0-1.2,0c0-0.4,0-0.8,0-1.2c0.4,0,0.8,0,1.2,0C162.8,169.3,162.8,169.7,162.8,170.1z"
			/>
		<path class="st1" d="M154,166.4c0.4,0,0.8,0,1.2,0c0,0.4,0,0.8,0,1.2c-0.4,0-0.8,0-1.2,0C154,167.2,154,166.8,154,166.4z"/>
		<path class="st1" d="M157.7,166.4c0,0.4,0,0.8,0,1.2c-0.4,0-0.8,0-1.2,0c0-0.4,0-0.8,0-1.2C156.9,166.4,157.3,166.4,157.7,166.4z"
			/>
		<path class="st1" d="M160.3,166.4c0,0.4,0,0.8,0,1.2c-0.4,0-0.8,0-1.2,0c0-0.4,0-0.8,0-1.2C159.4,166.4,159.8,166.4,160.3,166.4z"
			/>
		<path class="st1" d="M154,170.1c0-0.4,0-0.8,0-1.2c0.4,0,0.8,0,1.2,0c0,0.4,0,0.8,0,1.2C154.8,170.1,154.4,170.1,154,170.1z"/>
		<path class="st1" d="M156.5,170.1c0-0.4,0-0.8,0-1.2c0.4,0,0.8,0,1.2,0c0,0.4,0,0.8,0,1.2C157.3,170.1,156.9,170.1,156.5,170.1z"
			/>
		<path class="st1" d="M160.2,170.1c-0.4,0-0.8,0-1.2,0c0-0.4,0-0.8,0-1.2c0.4,0,0.8,0,1.2,0C160.2,169.3,160.2,169.7,160.2,170.1z"
			/>
	</g>
	<g>
		<circle class="st0" cx="157.7" cy="23.7" r="15.8"/>
		<g>
			<path class="st1" d="M149.8,21.7c0-0.2,0-0.4,0-0.7c0-0.2,0-0.4,0.1-0.5c0-0.2,0.1-0.4,0.1-0.5c0.1-0.2,0.2-0.5,0.3-0.7
				c0.1-0.1,0.1-0.3,0.2-0.4c0.1-0.2,0.2-0.4,0.3-0.5c0.1-0.1,0.2-0.3,0.3-0.4c0.1-0.1,0.2-0.3,0.4-0.4c0.2-0.1,0.3-0.3,0.5-0.4
				c0.2-0.1,0.4-0.3,0.5-0.4c0.2-0.1,0.4-0.2,0.6-0.3c0.1-0.1,0.2-0.1,0.3-0.2c0.2-0.1,0.4-0.2,0.6-0.2c0.3-0.1,0.5-0.1,0.8-0.2
				c0.5-0.1,1.1-0.1,1.6,0c0.3,0,0.5,0.1,0.8,0.2c0.2,0.1,0.4,0.1,0.6,0.2c0.2,0.1,0.4,0.2,0.7,0.3c0.2,0.1,0.4,0.3,0.6,0.4
				c0.1,0.1,0.3,0.2,0.4,0.3c0.2,0.2,0.3,0.3,0.5,0.5c0.2,0.2,0.3,0.4,0.5,0.6c0.1,0.1,0.2,0.3,0.3,0.4c0.1,0.1,0.2,0.3,0.3,0.4
				c0,0.1,0.1,0.1,0.1,0.2c0.1,0.2,0.2,0.5,0.3,0.7c0.1,0.2,0.1,0.4,0.1,0.6c0,0.2,0.1,0.4,0.1,0.6c0,0.3,0,0.6,0,0.9
				c0,0.2,0,0.4-0.1,0.7c0,0.2-0.1,0.4-0.1,0.6c0,0.2-0.1,0.3-0.2,0.5c-0.1,0.2-0.1,0.3-0.2,0.5c-0.1,0.2-0.2,0.4-0.3,0.5
				c-0.1,0.2-0.2,0.3-0.3,0.5c0,0,0,0.1,0,0.1c0.1,0.1,0.2,0.2,0.3,0.2c0.1,0.1,0.2,0.2,0.3,0.3c0.1,0.1,0.2,0.2,0.3,0.3
				c0.1,0.1,0.2,0.2,0.3,0.3c0.1,0.1,0.2,0.2,0.3,0.3c0.1,0.1,0.2,0.2,0.3,0.3c0.1,0.1,0.3,0.3,0.4,0.4c0.1,0.1,0.2,0.2,0.4,0.3
				c0.1,0.1,0.2,0.2,0.3,0.3c0.1,0.1,0.2,0.2,0.4,0.3c0.1,0.1,0.2,0.2,0.2,0.2c0.1,0.1,0.2,0.2,0.3,0.3c0.1,0.1,0.2,0.2,0.3,0.3
				c0.1,0.1,0.2,0.2,0.4,0.4c0.1,0.1,0.2,0.2,0.3,0.3c0.1,0.1,0.2,0.2,0.3,0.2c0.1,0.1,0.2,0.2,0.2,0.4c0,0.1,0,0.2,0,0.4
				c0,0.1-0.1,0.3-0.2,0.4c-0.1,0.1-0.3,0.2-0.4,0.2c-0.1,0-0.2,0-0.3-0.1c-0.2-0.1-0.3-0.3-0.5-0.4c-0.1-0.1-0.3-0.3-0.4-0.4
				c-0.1-0.1-0.2-0.2-0.3-0.3c-0.1-0.1-0.3-0.3-0.4-0.4c-0.1-0.1-0.2-0.2-0.4-0.4c-0.1-0.1-0.2-0.2-0.3-0.3
				c-0.1-0.1-0.3-0.3-0.4-0.4c-0.1-0.1-0.2-0.2-0.4-0.3c-0.1-0.1-0.2-0.2-0.2-0.2c-0.1-0.1-0.2-0.2-0.3-0.3
				c-0.1-0.1-0.2-0.2-0.3-0.3c-0.1-0.1-0.2-0.2-0.4-0.3c-0.1-0.1-0.2-0.2-0.2-0.2c-0.1-0.1-0.2-0.2-0.3-0.3
				c-0.1-0.1-0.2-0.2-0.3-0.3c0,0-0.1,0-0.1,0c-0.1,0.1-0.2,0.2-0.4,0.3c-0.1,0.1-0.2,0.1-0.3,0.2c-0.1,0.1-0.2,0.1-0.3,0.2
				c-0.2,0.1-0.4,0.2-0.5,0.2c-0.2,0.1-0.4,0.1-0.6,0.2c-0.3,0.1-0.5,0.1-0.8,0.1c-0.3,0-0.6,0-0.9,0c-0.3,0-0.5,0-0.8-0.1
				c-0.2,0-0.4-0.1-0.6-0.1c-0.2-0.1-0.4-0.1-0.6-0.2c-0.3-0.1-0.5-0.2-0.8-0.4c-0.2-0.1-0.3-0.2-0.5-0.3c-0.2-0.1-0.3-0.2-0.4-0.4
				c-0.2-0.2-0.4-0.4-0.6-0.6c-0.2-0.2-0.4-0.4-0.5-0.7c-0.1-0.2-0.2-0.3-0.3-0.5c-0.1-0.2-0.2-0.4-0.3-0.7
				c-0.1-0.3-0.2-0.5-0.2-0.8C149.8,22.5,149.8,22.1,149.8,21.7z M155.8,17.2c-2.5,0-4.5,2-4.5,4.4c0,2.5,2,4.5,4.5,4.5
				c1.4,0,2.6-0.6,3.4-1.7c0.7-0.9,1-1.9,1-3C160.1,19.2,158.2,17.2,155.8,17.2z"/>
		</g>
	</g>
	<g>
		<circle class="st0" cx="415.2" cy="23.7" r="15.8"/>
		<g>
			<path class="st1" d="M422.5,30.5c0-4.4,0-8.7,0-13.1c-0.1,0-0.1,0-0.2,0c-0.6,0-1.3,0-1.9,0c-0.3,0-0.4-0.1-0.4-0.4
				c0-0.7,0-1.4,0-2.1c-3.1,0-6.2,0-9.3,0c0,2.7,0,5.4,0,8.1c-0.2,0-0.4,0-0.6,0c0-0.1,0-0.1,0-0.2c0-2.7,0-5.4,0-8.1
				c0-0.3,0.1-0.4,0.4-0.4c3.3,0,6.5,0,9.8,0c0.2,0,0.3,0.1,0.4,0.2c0.8,0.8,1.5,1.5,2.3,2.3c0.1,0.1,0.2,0.3,0.2,0.5
				c0,4.5,0,9,0,13.4c0,0.3-0.1,0.4-0.4,0.4c-2.1,0-4.2,0-6.4,0c0,0-0.1,0-0.1,0c0-0.2,0-0.4,0-0.6
				C418.4,30.5,420.4,30.5,422.5,30.5z M422,16.8c-0.4-0.5-0.9-0.9-1.3-1.4c0,0.4,0,0.9,0,1.4C421.1,16.8,421.6,16.8,422,16.8z"/>
			<path class="st1" d="M407.2,28.3c0-2.6,2.1-4.7,4.7-4.7c2.5,0,4.6,2.1,4.6,4.7c0,2.6-2.1,4.7-4.7,4.7
				C409.3,33,407.2,30.9,407.2,28.3z M416,28.3c0-2.2-1.8-4-4-4c-2.3,0-4.1,1.8-4.1,4c0,2.3,1.8,4,4.1,4
				C414.2,32.4,416,30.5,416,28.3z"/>
			<path class="st1" d="M411.9,19.3c0-0.2,0-0.4,0-0.6c1.9,0,3.7,0,5.6,0c0,0.2,0,0.4,0,0.6C415.7,19.3,413.8,19.3,411.9,19.3z"/>
			<path class="st1" d="M421.3,20.6c0,0.2,0,0.4,0,0.6c-1.9,0-3.7,0-5.6,0c0-0.2,0-0.4,0-0.6C417.5,20.6,419.4,20.6,421.3,20.6z"/>
			<path class="st1" d="M417.5,22.4c0,0.2,0,0.4,0,0.6c-1.9,0-3.7,0-5.6,0c0-0.2,0-0.4,0-0.6C413.8,22.4,415.6,22.4,417.5,22.4z"/>
			<path class="st1" d="M421.3,24.3c0,0.2,0,0.4,0,0.6c-1.8,0-3.5,0-5.3,0c0-0.2,0-0.4,0-0.6C417.7,24.3,419.5,24.3,421.3,24.3z"/>
			<path class="st1" d="M421.3,28c0,0.2,0,0.4,0,0.6c-1.3,0-2.7,0-4,0c0-0.2,0-0.4,0-0.6C418.6,28,419.9,28,421.3,28z"/>
			<path class="st1" d="M418.2,19.3c0-0.2,0-0.4,0-0.6c1,0,2.1,0,3.1,0c0,0.2,0,0.4,0,0.6C420.2,19.3,419.2,19.3,418.2,19.3z"/>
			<path class="st1" d="M415,20.6c0,0.2,0,0.4,0,0.6c-1,0-2.1,0-3.1,0c0-0.2,0-0.4,0-0.6C413,20.6,414,20.6,415,20.6z"/>
			<path class="st1" d="M418.2,23c0-0.2,0-0.4,0-0.6c1,0,2.1,0,3.1,0c0,0.2,0,0.4,0,0.6C420.2,23,419.2,23,418.2,23z"/>
			<path class="st1" d="M413.8,16.8c0,0.2,0,0.4,0,0.6c-0.6,0-1.2,0-1.9,0c0-0.2,0-0.4,0-0.6C412.5,16.8,413.1,16.8,413.8,16.8z"/>
			<path class="st1" d="M418.8,26.2c0,0.2,0,0.4,0,0.6c-0.6,0-1.2,0-1.8,0c0-0.2,0-0.4,0-0.6C417.5,26.2,418.1,26.2,418.8,26.2z"/>
			<path class="st1" d="M419.4,26.8c0-0.2,0-0.4,0-0.6c0.6,0,1.2,0,1.8,0c0,0.2,0,0.4,0,0.6C420.6,26.8,420,26.8,419.4,26.8z"/>
			<path class="st1" d="M414.4,17.4c0-0.2,0-0.4,0-0.6c0.4,0,0.8,0,1.2,0c0,0.2,0,0.4,0,0.6C415.2,17.4,414.8,17.4,414.4,17.4z"/>
			<path class="st1" d="M412.2,27c-0.1-0.2-0.2-0.3-0.3-0.5c0.1-0.1,0.3-0.2,0.4-0.3c-0.4-0.2-1.4,0-2,0.6c-0.7,0.8-0.7,1.6-0.2,2.7
				c-0.2,0.1-0.3,0.2-0.5,0.3c-0.6-0.9-0.7-1.8-0.2-2.8c0.4-1,1.5-1.7,2.9-1.6c-0.1-0.1-0.1-0.2-0.2-0.3c0.2-0.1,0.3-0.2,0.5-0.4
				c0.3,0.4,0.5,0.7,0.8,1.1c0.1,0.1,0,0.3-0.1,0.4C412.9,26.6,412.6,26.8,412.2,27z"/>
			<path class="st1" d="M413.7,27c0.2-0.1,0.3-0.2,0.5-0.4c0.6,0.9,0.7,1.8,0.3,2.7c-0.6,1.2-1.6,1.7-2.9,1.7
				c0.1,0.1,0.1,0.2,0.2,0.3c-0.1,0.1-0.2,0.1-0.2,0.2c-0.1,0.1-0.2,0.1-0.3,0.2c-0.3-0.4-0.5-0.7-0.8-1.1c-0.1-0.1-0.1-0.3,0.1-0.4
				c0.3-0.2,0.7-0.4,1.1-0.7c0.1,0.2,0.2,0.3,0.3,0.5c-0.1,0.1-0.3,0.2-0.4,0.3c0.5,0.2,1.4-0.1,2-0.6C414,29.2,414.4,28.2,413.7,27
				z"/>
		</g>
	</g>
	<g>
		<path class="st1" d="M153.4,258c0.4,0.1,0.8,0.2,1.1,0.4c0.3,0.1,0.7,0.2,1,0.3c0.7,0.2,1.4-0.1,1.7-0.8c0.3-0.7,0-1.4-0.6-1.8
			c-0.6-0.4-1.3-0.7-1.9-1.1c-0.1-0.1-0.1-0.1,0-0.2c1.8-2.1,3.6-4.3,5.4-6.4c0.1-0.2,0.3-0.3,0.4-0.5c0.1-0.1,0.1-0.1,0.2,0
			c0.6,0.5,1.3,1.1,1.9,1.6c1,0.8,1.9,1.6,2.9,2.4c0.1,0.1,0.1,0.1,0,0.2c-1.8,2.1-3.5,4.2-5.3,6.3c-0.9,1-1.7,2.1-2.6,3.1
			c-0.1,0.1-0.1,0.1-0.2,0c-1.3-1.1-2.6-2.2-3.9-3.3C153.5,258.1,153.4,258,153.4,258C153.4,258,153.4,258,153.4,258z M159,252.6
			c-1.1,0-2,0.8-2,1.9c0,1.3,1.2,2.4,2.5,2.2c1-0.1,1.7-0.9,1.7-1.9C161.3,253.6,160.2,252.6,159,252.6z"/>
		<path class="st1" d="M161.3,261.8c0.6,0,1.3,0,1.9,0c0.4,0,0.7,0,1.1,0.1c0.7,0.2,1.2,0.5,1.5,1.1c0.4,0.5,0.6,1.1,0.9,1.7
			c0.3,0.6,0.5,1.3,0.8,1.9c0,0.1,0,0.1-0.1,0.1c-0.7,0.1-1.5,0.1-2.2,0.2c-0.8,0.1-1.5,0.1-2.3,0.2c-0.1,0-0.2,0-0.2-0.1
			c-0.3-0.5-0.8-0.7-1.3-0.7c-1.2,0-2.3,0-3.5,0c-0.8,0-1.4-0.2-2.1-0.6c-0.5-0.3-0.9-0.7-1.2-1c-0.6-0.5-1.1-1-1.7-1.5
			c-0.3-0.2-0.4-0.5-0.3-0.9c0.1-0.3,0.3-0.6,0.7-0.7c0.3-0.1,0.5,0,0.7,0.1c0.8,0.6,1.6,1.1,2.4,1.7c0.5,0.3,1,0.5,1.6,0.5
			c1,0,2.1,0,3.1,0c0,0,0.1,0,0.1,0c0.2,0,0.3-0.1,0.3-0.3c0-0.1-0.1-0.2-0.3-0.3c-0.7,0-1.3,0-2,0c-0.3,0-0.6-0.2-0.8-0.5
			c-0.1-0.3-0.1-0.6,0.1-0.9c0.2-0.2,0.4-0.3,0.7-0.3C159.8,261.8,160.5,261.8,161.3,261.8z"/>
		<path class="st1" d="M149.3,254.3c0-0.7,0-1.3,0-2c0-0.1,0-0.2,0.1-0.1c0.5,0,0.9-0.2,1.3-0.3c0.6-0.2,1.2-0.3,1.8-0.5
			c0.6-0.2,1.3-0.2,1.9-0.1c0.7,0.1,1.4,0.2,2,0.4c0.1,0,0.1,0,0,0.1c-0.6,0.7-1.3,1.5-1.9,2.2c-0.1,0.1-0.1,0.1-0.2,0.1
			c-0.2,0-0.4,0-0.5,0c-0.3,0-0.5,0.2-0.5,0.4c-0.1,0.2,0,0.4,0.3,0.6c0.9,0.5,1.8,1,2.7,1.5c0.3,0.2,0.5,0.5,0.4,0.9
			c0,0.4-0.3,0.6-0.6,0.7c-0.2,0-0.3,0-0.5,0c-1-0.3-2-0.7-3.1-1c-0.4-0.1-0.7-0.4-1-0.7c-0.1-0.1-0.2-0.2-0.3-0.3
			c-0.2-0.1-0.3-0.2-0.5-0.1c-0.4,0.1-0.9,0.2-1.3,0.3c-0.2,0-0.2,0-0.2-0.1C149.3,255.6,149.3,254.9,149.3,254.3z"/>
		<path class="st1" d="M165.3,268.6c-0.9,0-1.8,0-2.7,0c-0.1,0-0.1,0-0.1-0.1c0-0.2,0-0.4,0-0.6c0-0.1,0-0.1,0.1-0.1
			c0.7-0.1,1.4-0.1,2.1-0.2c1-0.1,2-0.2,3-0.3c0.3,0,0.3,0,0.3,0.3c0,0.3,0,0.5,0,0.8c0,0.1,0,0.2-0.2,0.2
			C167,268.6,166.1,268.6,165.3,268.6z"/>
		<path class="st1" d="M148.7,254.5c0,0.9,0,1.8,0,2.6c0,0.1,0,0.1-0.1,0.1c-0.2,0-0.4,0-0.5,0c-0.1,0-0.1,0-0.1-0.1
			c0-0.4-0.1-0.8-0.1-1.2c-0.1-0.6-0.1-1.1-0.2-1.7c0-0.5-0.1-1.1-0.1-1.6c0-0.3-0.1-0.6-0.1-0.9c0-0.1,0-0.1,0.1-0.1
			c0.4,0,0.7,0,1.1,0c0.1,0,0.1,0,0.1,0.1C148.7,252.7,148.7,253.6,148.7,254.5z"/>
		<path class="st1" d="M157.9,254.5c0-0.1,0-0.2,0-0.3c0.1-0.1,0-0.2-0.1-0.2c0,0,0,0,0,0c-0.2-0.2-0.2-0.1,0-0.3c0,0,0,0,0-0.1
			c0.1-0.1,0.1-0.2,0.2-0.2c0.1,0,0.1,0.1,0.2,0.1c0,0,0.1,0,0.1,0c0.1-0.1,0.2-0.2,0.3-0.2c0.1,0,0.1,0,0.1,0
			c0.1,0.1,0.2,0.2,0.2,0.3c0.1,0.1,0,0.1,0,0.1c-0.2,0.1-0.3,0.2-0.4,0.3c0,0-0.1,0.1-0.1,0.1c0,0.1,0,0.2,0.1,0.1
			c0.1,0,0.3-0.1,0.4-0.2c0.2-0.1,0.4-0.2,0.7-0.2c0.4,0.1,0.7,0.5,0.5,1c0,0.1,0,0.2,0.1,0.3c0.2,0.1,0.1,0.1,0,0.3c0,0,0,0,0,0
			c-0.2,0.2-0.2,0.2-0.4,0c-0.1,0-0.1,0-0.1,0c-0.1,0.1-0.3,0.2-0.4,0.3c-0.1,0-0.1,0-0.1,0c-0.1-0.1-0.2-0.2-0.3-0.4
			c0-0.1,0-0.1,0-0.1c0.2-0.1,0.4-0.2,0.5-0.3c0,0,0,0,0,0c0-0.1,0.1-0.2,0.1-0.3c-0.1-0.1-0.2,0-0.3,0c-0.1,0.1-0.3,0.2-0.4,0.2
			c-0.4,0.2-0.7,0.1-0.9-0.2C157.9,254.8,157.9,254.7,157.9,254.5z"/>
	</g>
	<polyline class="st2" points="395.5,72.5 360.4,72.5 286.9,165.4 360.4,25.8 395.5,25.8 	"/>
	<polyline class="st2" points="395.5,119.1 360.4,119.1 287,165.4 	"/>
	<polyline class="st2" points="394.4,165.8 360.4,165.8 286.8,165.8 	"/>
	<polyline class="st2" points="394.4,212.5 360.4,212.5 286.9,166.3 	"/>
	<polyline class="st2" points="395.5,259.2 360.4,259.2 286.9,166.6 	"/>
	<polyline class="st2" points="395.5,305.8 360.4,305.8 286.9,166.4 	"/>
	<circle class="st3" cx="395.6" cy="25.8" r="2"/>
	<circle class="st3" cx="395.6" cy="72.5" r="2"/>
	<circle class="st3" cx="395.6" cy="119.2" r="2"/>
	<circle class="st4" cx="360.3" cy="119.2" r="2"/>
	<circle class="st4" cx="360.3" cy="165.8" r="2"/>
	<circle class="st4" cx="360.3" cy="211.7" r="2"/>
	<circle class="st4" cx="360.3" cy="258.7" r="2"/>
	<circle class="st4" cx="360.3" cy="305.8" r="2"/>
	<circle class="st3" cx="395.6" cy="212.5" r="2"/>
	<circle class="st3" cx="395.6" cy="305.6" r="2"/>
	<circle class="st3" cx="395.6" cy="165.8" r="2"/>
	<circle class="st3" cx="395.6" cy="259.2" r="2"/>
	<circle class="st4" cx="360.5" cy="72.5" r="2"/>
	<circle class="st4" cx="360.5" cy="25.8" r="2"/>
	<polyline class="st2" points="177.5,259.1 212.6,259.1 285.7,166.2 212.6,305.8 177.5,305.8 	"/>
	<polyline class="st2" points="178.6,212.4 212.6,212.4 285.7,166.2 	"/>
	<path class="st2" d="M178.6,165.8c18.8,0,88.2,0,107.2,0"/>
	<polyline class="st2" points="177.5,119.1 212.6,119.1 285.8,165.3 	"/>
	<polyline class="st2" points="177.5,72.4 212.6,72.4 285.8,165 	"/>
	<polyline class="st2" points="177.4,25.7 212.6,25.7 285.8,165.1 	"/>
	<path class="st3" d="M175.3,305.8c0-2.6,4.1-2.6,4.1,0C179.4,308.4,175.3,308.4,175.3,305.8z"/>
	<path class="st3" d="M175.3,259c0-2.6,4.1-2.6,4.1,0C179.4,261.7,175.3,261.7,175.3,259z"/>
	<path class="st3" d="M175.4,212.4c0-2.6,4.1-2.6,4.1,0C179.5,215,175.3,215,175.4,212.4z"/>
	<path class="st4" d="M210.6,212.4c0-2.6,4.1-2.6,4.1,0C214.7,215,210.6,215,210.6,212.4z"/>
	<path class="st4" d="M210.6,165.8c0-2.6,4.1-2.6,4.1,0C214.7,168.4,210.6,168.4,210.6,165.8z"/>
	<path class="st4" d="M210.6,119.9c0-2.6,4.1-2.6,4.1,0C214.7,122.5,210.6,122.5,210.6,119.9z"/>
	<path class="st4" d="M210.6,72.9c0-2.6,4.1-2.6,4.1,0C214.7,75.5,210.6,75.5,210.6,72.9z"/>
	<path class="st4" d="M210.6,25.8c0-2.6,4.1-2.6,4.1,0C214.7,28.4,210.6,28.4,210.6,25.8z"/>
	<path class="st3" d="M175.4,119.1c0-2.6,4.1-2.6,4.1,0C179.5,121.7,175.3,121.7,175.4,119.1z"/>
	<path class="st3" d="M175.4,25.9c0-2.6,4.1-2.6,4.1,0C179.5,28.6,175.3,28.6,175.4,25.9z"/>
	<path class="st3" d="M175.4,165.8c0-2.6,4.1-2.6,4.1,0C179.5,168.4,175.3,168.4,175.4,165.8z"/>
	<path class="st3" d="M175.4,72.4c0-2.6,4.1-2.6,4.1,0C179.5,75,175.3,75,175.4,72.4z"/>
	<path class="st4" d="M210.4,259c0-2.6,4.1-2.6,4.1,0C214.5,261.7,210.4,261.7,210.4,259z"/>
	<path class="st4" d="M210.4,305.7c0-2.6,4.1-2.6,4.1,0C214.5,308.4,210.4,308.4,210.4,305.7z"/>
	<g>
		
			<image style="overflow:visible;opacity:0.3;" width="79" height="80" xlink:href="EC12826A.png"  transform="matrix(1 0 0 1 247.5608 124.6822)">
		</image>
		<g>
			<g>
				<circle class="st5" cx="286.5" cy="164.4" r="31.2"/>
				<g>
					<g>
						<g>
							<g>
								<g>
									<circle class="st6" cx="286.5" cy="183.5" r="4.4"/>
									<circle class="st6" cx="286.5" cy="145.3" r="4.4"/>
									<path class="st7" d="M282.2,178.7c-6.1-1.9-10.6-7.6-10.6-14.3c0-6.7,4.5-12.5,10.6-14.3c-1.3-1.2-2.1-2.9-2.1-4.8
										c0-1.2,0.3-2.3,0.9-3.3c0,0,0,0,0,0c-10.1,2.5-17.6,11.6-17.6,22.4c0,10.8,7.5,19.9,17.6,22.4c0,0,0,0,0,0
										c-0.6-1-0.9-2.1-0.9-3.3C280.1,181.6,280.9,179.9,282.2,178.7z"/>
									<path class="st7" d="M292.1,141.9c0.6,1,0.9,2.1,0.9,3.3c0,1.9-0.8,3.6-2.1,4.8c6.1,1.9,10.6,7.6,10.6,14.3
										c0,6.7-4.5,12.5-10.6,14.3c1.3,1.2,2.1,2.9,2.1,4.8c0,1.2-0.3,2.4-0.9,3.3c10.1-2.5,17.6-11.6,17.6-22.4
										C309.6,153.6,302.1,144.4,292.1,141.9z"/>
								</g>
							</g>
						</g>
					</g>
				</g>
			</g>
		</g>
	</g>
	<g>
		<path class="st1" d="M161.2,72.6c0.8,0.3,1.6,0.5,2.5,0.8c1,0.4,1.8,1.1,1.8,2.3c0,0.9,0.1,1.7,0.2,2.7c-0.7,0.2-1.3,0.3-1.9,0.4
			c-3,0.6-6.1,0.8-9.1,0.6c-1.3-0.1-2.7-0.3-3.9-0.7c-0.3-0.1-0.5-0.2-0.8-0.3c-0.1-1.3,0-2.5,0.3-3.7c0.1-0.4,0.3-0.6,0.7-0.9
			c0.7-0.5,1.6-0.7,2.5-1.1c0.3-0.1,0.6-0.2,0.9-0.3c-0.2,0.6-0.4,1.2-0.7,1.7c0,0.1-0.1,0.2-0.2,0.3c-0.7,0.5-1,1.2-1.2,2
			c0.1,0.3,0.2,0.6,0.4,0.8c0.1,0.1,0.2,0.2,0.4,0.2c0.1,0,0.2-0.1,0.2-0.2c0-0.1,0-0.3-0.1-0.4c-0.1-0.1-0.3-0.2-0.4-0.3
			c0.1-0.5,0.3-1,0.6-1.4c0.4-0.5,0.8-0.5,1.2,0c0.2,0.4,0.4,0.8,0.6,1.2c-0.2,0.1-0.4,0.2-0.6,0.4c-0.1,0.1-0.2,0.3-0.1,0.4
			c0,0.1,0.2,0.3,0.3,0.3c0.1,0,0.3-0.1,0.3-0.2c0.1-0.2,0.2-0.5,0.4-0.7c-0.3-0.8-0.6-1.6-1.4-2.1c0.2-0.8,0.5-1.5,1.1-2.2
			c2.1,1.9,3.6,1.6,5.4,0.1c0.5,0.6,0.8,1.3,1,2c-0.1,0.1-0.3,0.3-0.4,0.4c-0.2,0.3-0.2,0.8,0.1,1c0.3,0.2,0.7,0.2,1,0
			c0.3-0.2,0.4-0.8,0.2-1c-0.7-0.6-0.6-1.5-1.1-2.2C161.1,72.7,161.1,72.6,161.2,72.6z"/>
		<path class="st1" d="M161,68.8c-0.2,0.8-0.5,1.4-0.9,2c-1.4,1.7-3.8,1.6-5-0.3c-0.3-0.4-0.4-0.9-0.6-1.3c-0.1-0.2-0.2-0.4-0.4-0.5
			c-0.7-0.6-0.8-1-0.2-1.7c0,0,0.1-0.1,0.1-0.1c-0.1-0.6-0.2-1.2-0.2-1.8c0-1.4,0.7-2.3,1.9-2.8c0.9-0.3,1.8-0.6,2.8-0.6
			c0.8,0,1.4,0.2,1.7,1.1c0.1,0.2,0.2,0.3,0.4,0.4c0.6,0.5,0.9,1,0.9,1.7c0,0.6-0.1,1.1-0.1,1.8c0.3,0.2,0.7,0.6,0.6,1.2
			C161.8,68.3,161.5,68.6,161,68.8z M154.9,64.9c-0.1,0.2-0.2,0.3-0.3,0.5c-0.1,0.3-0.1,0.5-0.2,0.8c-0.1,0.3-0.1,0.6-0.5,0.9
			c-0.5,0.3-0.4,1,0.1,1.3c0.4,0.2,0.5,0.5,0.6,0.8c0.2,0.8,0.7,1.5,1.3,2c0.4,0.3,0.9,0.5,1.4,0.5c1.1,0,2-0.4,2.6-1.3
			c0.3-0.5,0.6-1.1,0.9-1.8c0.6-0.3,0.8-0.6,0.8-1c0-0.4-0.2-0.6-0.9-0.7c0-0.3-0.1-0.6-0.2-0.9c-0.2-0.6-0.3-1.1-0.6-1.7
			c-0.3-0.5-0.6-0.6-1.2-0.3c-0.7,0.3-1.4,0.7-2.2,0.8C156,64.8,155.5,64.9,154.9,64.9z"/>
		<path class="st1" d="M161.5,75.7c-0.2,0-0.4-0.2-0.4-0.4c0-0.2,0.3-0.5,0.5-0.4c0.2,0,0.4,0.3,0.4,0.5
			C162,75.6,161.7,75.7,161.5,75.7z"/>
	</g>
	<g>
		<circle class="st0" cx="157.7" cy="117.5" r="15.8"/>
		<g>
			<path class="st1" d="M159.9,122.5c-0.3-0.6-0.6-1.3-1-1.9c-1.3,0.5-2.5,0.2-3.5-0.8c-0.1,0.1-0.3,0.2-0.4,0.3
				c-0.7,0.5-1.3,1.1-2,1.6c-0.1,0.1-0.1,0.1-0.1,0.2c0.3,0.7,0.3,1.4-0.2,2c-0.5,0.6-1.1,0.9-1.9,0.8c-0.9-0.1-1.6-0.9-1.7-1.9
				c0-0.9,0.6-1.8,1.5-2c0.6-0.1,1.2,0,1.7,0.4c0,0,0.1,0,0.1,0.1c0,0,0,0,0,0c0.8-0.7,1.7-1.3,2.5-2c-0.8-1.4-0.7-2.6,0.2-3.9
				c-0.4-0.4-0.7-0.7-1.1-1.1c-0.6-0.6-1.1-1.1-1.7-1.7c-0.1-0.1-0.2-0.1-0.3,0c-0.7,0.4-1.4,0.4-2.1-0.1c-0.7-0.5-1-1.2-0.8-2.1
				c0.2-0.8,0.7-1.3,1.5-1.5c0.8-0.2,1.6,0.1,2.1,0.8c0.5,0.7,0.5,1.4,0.1,2.2c0,0,0,0.1-0.1,0.1c1,1,1.9,1.9,2.9,2.9
				c0.9-0.7,1.9-0.9,3-0.6c0.1-0.3,0.3-0.6,0.4-1c0.1-0.2,0.2-0.4,0.3-0.6c0-0.1,0-0.1-0.1-0.2c-1.2-0.9-1.1-2.7,0.2-3.4
				c0.7-0.3,1.3-0.3,2,0.1c0.6,0.4,1,1,0.9,1.8c-0.1,1.2-1.1,2-2.3,1.8c-0.1,0-0.1,0-0.2,0.1c-0.2,0.5-0.4,1-0.6,1.5
				c0,0.1,0,0.2,0.1,0.2c1,0.6,1.5,1.5,1.6,2.6c0,0.2,0,0.4,0,0.5c0.5,0.1,1,0.2,1.5,0.3c0.2-0.4,0.4-0.7,0.7-0.9
				c1.2-0.9,2.9-0.1,3.1,1.3c0.2,1.2-0.9,2.4-2.2,2.2c-0.9-0.1-1.7-0.9-1.7-1.8c0-0.2-0.1-0.2-0.2-0.3c-0.4-0.1-0.8-0.1-1.1-0.2
				c-0.1,0-0.1,0-0.2,0.1c-0.3,0.7-0.7,1.3-1.3,1.7c0,0,0,0.1,0.1,0.1c0.3,0.6,0.6,1.1,0.8,1.7c0,0.1,0.1,0.1,0.2,0.1
				c1.1-0.3,2.2,0.5,2.4,1.6c0.2,1.3-0.8,2.4-2.1,2.3c-0.8,0-1.5-0.6-1.7-1.3c-0.3-0.8,0-1.6,0.6-2.2
				C159.8,122.6,159.8,122.5,159.9,122.5z"/>
		</g>
	</g>
	<g>
		<circle class="st0" cx="157.7" cy="211.3" r="15.8"/>
		<g>
			<path class="st1" d="M162.7,220.3c-0.6-0.4-0.9-0.9-0.7-1.7c0.2-0.8,0.4-1.6,0.5-2.3c0.1-0.5-0.6-1.3-1.1-1.2
				c-1.3,0.2-2.2,1.3-2.3,2.5c0,0.6,0,1.2,0,1.7c-1.4-0.7-2.3-3.3-1.9-5.3c0.5-2.5,2.6-4.3,5.1-4.4c2.4-0.1,4.7,1.4,5.5,3.7
				c0.8,2.2,0.1,4.9-1.7,6.1c0-0.6,0-1.2,0-1.8c0-1.3-1-2.4-2.3-2.6c-0.5-0.1-1.2,0.7-1.1,1.2c0.2,0.8,0.3,1.6,0.5,2.3
				C163.7,219.5,163.3,219.9,162.7,220.3z M164.8,212.7c0-1.1-1-2.1-2.1-2.1c-1.1,0-2.1,1-2.1,2.1c0,1.1,1,2.1,2.1,2.1
				C163.9,214.8,164.8,213.8,164.8,212.7z"/>
			<path class="st1" d="M156.3,211.8c0-0.6,0-1.2,0-1.7c0-1.4-1.1-2.5-2.5-2.6c-0.1,0-0.2,0-0.3,0.1c-0.5,0.3-0.7,0.9-0.6,1.5
				c0.2,0.7,0.3,1.5,0.5,2.2c0.1,0.5,0.1,0.9-0.4,1.2c-0.1,0.1-0.2,0.2-0.3,0.3c-0.9-0.6-1-0.7-0.8-1.7c0.2-0.8,0.3-1.6,0.5-2.4
				c0.1-0.5-0.6-1.3-1.1-1.2c-1.4,0.2-2.3,1.3-2.3,2.7c0,0.5,0,1.1,0,1.7c-1.5-1-2.4-3.3-1.8-5.5c0.6-2.3,2.7-4.1,5.2-4.2
				c2.5-0.1,4.8,1.5,5.5,3.9C158.7,208.1,157.9,210.8,156.3,211.8z M152.7,207.1c1.1,0,2.1-0.9,2.1-2c0-1.1-0.9-2.1-2-2.1
				c-1.2,0-2.1,0.9-2.2,2C150.7,206.2,151.6,207.1,152.7,207.1z"/>
			<path class="st1" d="M154.6,218c0-0.4,0-0.8,0-1.3c0.6,0.7,1.2,1.3,1.8,1.9c-0.5,0.5-1.2,1.1-1.8,1.8c0-0.4,0-0.7,0-1.1
				c-1.5-0.2-2.8-0.8-3.7-1.9c-0.6-0.7-1-1.5-1.1-2.5c0.4,0,0.7,0,1.1,0c0.1,0,0.3,0.2,0.3,0.4C151.6,216.8,152.9,217.8,154.6,218z"
				/>
			<path class="st1" d="M165.7,207.8c-0.1,0-0.2,0-0.2,0c-1,0-0.9,0-1.3-0.8c-0.6-1.4-1.7-2.2-3.3-2.4c0,0.4,0,0.9,0,1.4
				c-0.7-0.7-1.3-1.3-1.9-1.9c0.6-0.6,1.2-1.2,1.8-1.8c0,0.4,0,0.7,0,1.1c1.5,0.2,2.8,0.8,3.7,1.9
				C165.2,206,165.6,206.8,165.7,207.8z"/>
			<path class="st1" d="M151,209.8c0,1,0,2,0,3c0,0-0.1,0.1-0.1,0.1c-0.1-0.1-0.3-0.3-0.3-0.4c0-0.7,0-1.5,0-2.2
				c0-0.2,0.2-0.4,0.2-0.5C150.9,209.8,151,209.8,151,209.8z"/>
			<path class="st1" d="M154.5,212.8c0-1,0-2,0-3c0.5,0.2,0.5,0.2,0.4,2.6c0,0.2-0.1,0.3-0.2,0.5
				C154.6,212.8,154.6,212.8,154.5,212.8z"/>
			<path class="st1" d="M164.5,220.5c0-1,0-2,0-3c0.4,0.2,0.4,0.2,0.4,2.5C164.8,220.2,164.9,220.5,164.5,220.5z"/>
			<path class="st1" d="M161,217.5c0,0.1,0,0.1,0,0.2c0,0.9,0,1.9,0,2.8c-0.1,0-0.1,0.1-0.2,0.1c-0.1-0.1-0.2-0.3-0.2-0.4
				c0-0.7,0-1.4,0-2.1c0-0.2,0.1-0.4,0.2-0.6C160.9,217.4,160.9,217.4,161,217.5z"/>
		</g>
	</g>
	<g>
		<circle class="st0" cx="157.7" cy="305.1" r="15.8"/>
		<g>
			<g>
				<g>
					<path class="st1" d="M151.6,312.9c0.1-0.4,0.2-0.8,0.4-1.2c0.5-1.1,1.4-1.8,2.4-2.2c2.1-0.7,4.2-0.7,6.3,0
						c1.4,0.5,2.3,1.5,2.6,3c0,0.2,0.1,0.4,0.1,0.5c0,0.5-0.3,0.7-0.7,0.9c-3.4,0-6.9,0-10.3,0c-0.4-0.1-0.7-0.4-0.8-0.8
						C151.6,313.2,151.6,313.1,151.6,312.9z M157.6,313.5c1.6,0,3.2,0,4.8,0c0.4,0,0.5-0.1,0.4-0.5c-0.2-1.2-0.9-2.1-2-2.6
						c-2.2-1-4.4-1-6.6,0c-1.1,0.5-1.8,1.3-2,2.5c-0.1,0.4,0,0.5,0.5,0.5C154.3,313.5,156,313.5,157.6,313.5z"/>
					<path class="st1" d="M157.9,301.6c0.5,0.2,1,0.3,1.4,0.5c1.3,0.7,1.9,2.3,1.6,3.7c-0.3,1.4-1.6,2.5-3,2.6
						c-1.9,0.2-3.5-1.2-3.7-3.1c-0.2-1.8,1.1-3.4,2.9-3.7c0,0,0.1,0,0.1,0C157.4,301.6,157.7,301.6,157.9,301.6z M160.4,305
						c0-1.5-1.3-2.8-2.8-2.8c-1.5,0-2.8,1.3-2.8,2.8c0,1.5,1.3,2.8,2.8,2.8C159.1,307.9,160.4,306.6,160.4,305z"/>
				</g>
				<g>
					<g>
						<path class="st1" d="M148.4,309.4c-0.6,0-1.1-0.1-1.6-0.4c-0.1,0-0.1-0.1-0.2-0.1l-0.2-0.1l0.1-0.3l0.1,0c0.4,0,0.8,0,1.2-0.2
							c-0.1,0-0.2-0.1-0.3-0.2c-0.2-0.2-0.4-0.4-0.4-0.6l-0.1-0.2h0.1c-0.3-0.2-0.4-0.6-0.4-1l0-0.2l0.2,0.1c-0.2-0.4-0.2-0.8,0-1.3
							l0.1-0.2l0.2,0.2c0,0,0.1,0.1,0.1,0.1c0.5,0.5,1.1,0.9,1.8,1c0,0,0.1,0,0.1,0c0,0,0,0,0,0c0-0.6,0.3-1.1,0.9-1.3
							c0.5-0.1,0.9-0.1,1.3,0.3c0,0,0,0,0,0l0.2-0.1c0.1,0,0.2-0.1,0.3-0.1c0,0,0,0,0.1,0l0.4-0.2l-0.1,0.3c0,0.1-0.1,0.2-0.1,0.3
							l0.5-0.1l-0.3,0.4c0,0,0,0,0,0.1c0,0.1-0.1,0.1-0.1,0.1c-0.1,0.1-0.1,0.1-0.2,0.2c-0.1,0.1-0.1,0.1-0.2,0.2c0,0,0,0.1,0,0.1
							c0,1-0.4,1.9-1.2,2.6c-0.5,0.4-1.1,0.7-1.8,0.8C148.7,309.4,148.6,309.4,148.4,309.4z M147.3,308.8c0.5,0.2,1,0.3,1.6,0.2
							c0.6-0.1,1.2-0.3,1.6-0.7c0.7-0.6,1.1-1.4,1.1-2.4c0-0.1,0.1-0.2,0.1-0.3c0,0,0.1-0.1,0.1-0.1l-0.6,0.2l0.4-0.5
							c0.1-0.1,0.1-0.1,0.2-0.2c0,0,0,0,0,0l-0.2,0.1c-0.1,0-0.2,0-0.3-0.1c-0.3-0.3-0.6-0.3-1-0.2c-0.4,0.1-0.7,0.6-0.7,1
							c0,0.1,0,0.2-0.1,0.2c-0.1,0.1-0.2,0.1-0.3,0.1c0,0,0,0-0.1,0c0,0-0.1,0-0.1,0c-0.8-0.1-1.4-0.5-2-1c-0.1,0.4,0,0.8,0.3,1.1
							l0.1,0.1l-0.2,0.2l-0.1,0l-0.2-0.1c0.1,0.4,0.3,0.6,0.7,0.7l0.1,0.1l-0.1,0.3h-0.3c0.1,0.1,0.1,0.2,0.2,0.3
							c0.1,0.1,0.3,0.2,0.6,0.2l0.4,0.1l-0.3,0.2C148.1,308.6,147.7,308.8,147.3,308.8z"/>
					</g>
				</g>
				<g>
					<g>
						<path class="st1" d="M165.7,309.1c-0.5,0-1,0-1.5,0c-0.6,0-1.1-0.4-1.3-0.9c0-0.1,0-0.1,0-0.2l0-0.1l0-2l0,0c0,0,0,0,0,0
							c0.1-0.6,0.7-1.1,1.3-1.1c1,0,2.2,0,3.4,0c0.4,0,0.8,0.2,1,0.5c0.2,0.2,0.2,0.5,0.3,0.7l0,0v1.9l0,0.1
							c-0.1,0.7-0.7,1.1-1.4,1.1l-0.7,0C166.5,309.1,166.1,309.1,165.7,309.1z M163.2,307.8L163.2,307.8c0,0.1,0,0.2,0.1,0.2
							c0.1,0.4,0.5,0.7,1,0.7c0.9,0,1.7,0,2.6,0l0.7,0c0.6,0,1-0.3,1.1-0.9c0,0,0,0,0-0.1v-1.8c0-0.2-0.1-0.4-0.2-0.6
							c-0.2-0.3-0.5-0.4-0.8-0.4c-1.2,0-2.4,0-3.4,0c-0.5,0-0.9,0.4-1,0.9c0,0,0,0.1,0,0.1l0,0V307.8z M169,307.9
							C169,307.9,169,307.9,169,307.9C169,307.9,169,307.9,169,307.9z M165.2,307.9c0,0-0.1,0-0.1,0c-0.1-0.1-0.1-0.2-0.1-0.3
							c0-0.2,0-0.3,0-0.5l0-0.2l0-0.2c0-0.2,0-0.3,0-0.5c0-0.1,0-0.2,0.1-0.3c0.1-0.1,0.2,0,0.3,0c0.5,0.2,1,0.5,1.5,0.7
							c0.1,0,0.2,0.1,0.2,0.3c0,0.1-0.1,0.2-0.2,0.2c-0.5,0.2-1,0.5-1.5,0.7C165.3,307.8,165.3,307.9,165.2,307.9z M165.3,306.2
							c0,0.1,0,0.3,0,0.4l0,0.2l0,0.2c0,0.1,0,0.3,0,0.4c0.4-0.2,0.9-0.4,1.3-0.6C166.1,306.7,165.7,306.5,165.3,306.2z"/>
					</g>
				</g>
				<g>
					<path class="st1" d="M152.4,296.7c0.1,0,0.2,0,0.2,0c0,0,0,0.1,0,0.1c-0.1,0.2-0.1,0.5-0.2,0.7c0,0.1-0.1,0.3-0.1,0.4
						c0,0,0,0,0,0c0,0,0.2,0,0.3,0c0.1,0,0.2,0,0.2,0c0-0.2,0.1-0.4,0.1-0.6c0-0.2,0.1-0.4,0.1-0.6c0.1,0,0.2,0,0.2,0
						c0.1,0,0.2,0,0.2,0c0,0,0,0.1,0,0.1c-0.1,0.4-0.2,0.7-0.2,1.1c0,0,0,0,0,0c0,0,0,0,0.1,0c0.2,0,0.3,0,0.5,0c0,0,0.1,0,0.1,0
						c0,0.1,0,0.1,0,0.2c0,0.1,0,0.1,0,0.2c0,0.1,0,0.1-0.1,0.2c-0.1,0-0.2,0-0.2,0c-0.1,0-0.2,0-0.2,0c-0.1,0-0.1,0-0.2,0
						c-0.1,0.3-0.1,0.5-0.2,0.8c0,0,0.1,0,0.1,0c0,0,0.1,0,0.1,0c0,0,0.1,0,0.1,0c0.1,0,0.2,0,0.3,0c0,0,0.1,0,0.1,0
						c0,0.2-0.1,0.4-0.1,0.6c-0.3,0-0.5,0-0.7,0c0,0,0,0.1,0,0.1c-0.1,0.4-0.2,0.7-0.2,1.1c0,0,0,0.1,0,0.1c-0.2,0-0.3,0-0.5,0
						c0,0,0-0.1,0-0.1c0.1-0.4,0.2-0.7,0.2-1.1c0,0,0,0,0-0.1c0,0-0.2,0-0.3,0c-0.1,0-0.2,0-0.2,0c-0.1,0.4-0.2,0.8-0.3,1.3
						c-0.2,0-0.3,0-0.5,0c0,0,0-0.1,0-0.1c0.1-0.3,0.1-0.5,0.2-0.8c0-0.1,0.1-0.3,0.1-0.4c-0.2,0-0.5,0-0.7,0c0,0,0,0,0-0.1
						c0-0.2,0.1-0.5,0.1-0.5c0.2,0,0.5,0,0.7,0c0.1-0.3,0.1-0.5,0.2-0.8c0,0-0.1,0-0.1,0c0,0-0.1,0-0.1,0c0,0-0.1,0-0.1,0
						c-0.1,0-0.1,0-0.2,0c0,0-0.1,0-0.1,0c0-0.1,0-0.1,0-0.2c0-0.1,0-0.2,0-0.3c0-0.1,0-0.1,0.1-0.1c0.1,0,0.1,0,0.2,0
						c0.1,0,0.2,0,0.3,0c0,0,0,0,0,0c0,0,0.1,0,0.1,0c0.1-0.4,0.2-0.8,0.3-1.2C152.1,296.7,152.2,296.7,152.4,296.7 M152.8,298.6
						c-0.2,0-0.4,0-0.6,0c-0.1,0.3-0.1,0.5-0.2,0.8c0.2,0,0.4,0,0.6,0C152.7,299.1,152.7,298.8,152.8,298.6 M152.4,296.4
						c-0.2,0-0.3,0-0.4,0l-0.2,0l0,0.2c-0.1,0.2-0.1,0.4-0.1,0.6c0,0.1-0.1,0.3-0.1,0.4l-0.1,0l-0.2,0c-0.3,0-0.4,0.1-0.5,0.4
						c0,0.1,0,0.1,0,0.2c0,0,0,0.1,0,0.1c0,0,0,0,0,0c0,0.1,0,0.2,0,0.3l0.1,0.2l0.2,0l0,0c0,0,0.1,0,0.1,0c0.1,0,0.1,0,0.2,0l0,0.2
						h-0.4h-0.2l-0.1,0.2c-0.1,0.2-0.1,0.5-0.2,0.7c0,0.1,0,0.1,0,0.2l0.1,0.2l0.3,0h0.3c0,0,0,0,0,0c-0.1,0.3-0.1,0.5-0.2,0.8
						c-0.1,0.2,0,0.3,0.1,0.4l0.1,0.1h0.1h0.5h0.3l0.1-0.2c0,0,0,0.1,0.1,0.1l0.1,0.1h0.1h0.5h0.2l0.1-0.2c0,0,0,0,0,0
						c0,0,0-0.1,0-0.1c0-0.2,0.1-0.4,0.1-0.6l0.1-0.3h0.5h0.3l0-0.3l0.1-0.3l0-0.3l0.1-0.3l-0.3-0.1c0,0,0,0,0,0c0,0-0.1,0-0.1,0
						c-0.1,0-0.1,0-0.2,0l0-0.2l0.1,0l0.1,0c0.1,0,0.2,0,0.3,0l0.2,0l0.1-0.1c0.1-0.1,0.1-0.2,0.1-0.3c0,0,0,0,0,0l0,0
						c0-0.1,0-0.1,0-0.2c0,0,0,0,0,0c0-0.1,0-0.2,0-0.4l-0.1-0.2l-0.2,0l0,0c0,0-0.1,0-0.1,0c-0.1,0-0.1,0-0.2,0
						c0.1-0.2,0.1-0.5,0.2-0.7c0-0.1,0-0.2,0-0.3l-0.1-0.2l-0.2,0c-0.1,0-0.2,0-0.3,0c-0.1,0-0.2,0-0.3,0l-0.2,0l0,0v0l-0.3,0
						C152.5,296.4,152.4,296.4,152.4,296.4L152.4,296.4z"/>
				</g>
				<path class="st1" d="M164,298.5C164,298.4,164,298.4,164,298.5c-0.1-0.2-0.1-0.3-0.2-0.4c0,0,0,0,0,0c-0.1-0.1-0.1-0.1-0.2-0.1
					c-0.1,0-0.2,0-0.4,0l-0.3,0c0,0,0,0-0.1,0c0,0-0.1,0-0.1,0l-0.1,0c0,0,0,0,0,0c0,0,0,0,0,0c0,0,0-0.1,0-0.1
					c0-0.1,0.1-0.1,0.1-0.2c0.1-0.1,0.1-0.2,0.1-0.4c0-0.1,0-0.2,0-0.4c0-0.1,0-0.2-0.1-0.3c-0.1-0.2-0.2-0.3-0.4-0.4
					c-0.1,0-0.1,0-0.2,0c-0.1,0-0.1,0-0.2,0.1c0,0-0.1,0.1-0.1,0.1l0,0.1c0,0.1,0,0.1,0,0.2c0,0.1,0,0.3-0.1,0.4c0,0,0,0.1,0,0.1
					c0,0,0,0.1-0.1,0.1c0,0-0.1,0.1-0.1,0.1l0,0c0,0-0.1,0.1-0.1,0.1c0,0-0.1,0.1-0.1,0.1c0,0.1-0.1,0.2-0.1,0.3l0,0
					c0,0.1-0.1,0.2-0.2,0.3c0,0.1-0.1,0.1-0.1,0.2c0,0,0,0-0.1,0.1c0,0-0.1,0-0.1,0l-0.2,0c-0.1,0-0.1-0.1-0.2-0.1
					c-0.1,0-0.2,0-0.3,0l-0.1,0l0,0c0,0-0.1,0-0.1,0c-0.2,0-0.3,0.1-0.3,0.3l0,1.7l0,0.1c0,0.1,0.1,0.2,0.2,0.2c0.1,0,0.1,0,0.1,0
					l0.4,0l0,0c0,0,0,0,0,0c0,0,0,0,0,0c0.1,0,0.2-0.1,0.3-0.1l0,0l0.6,0.1c0,0,0.1,0,0.1,0c0.1,0,0.2,0,0.3,0c0.1,0,0.2,0,0.3,0
					c0.1,0,0.1,0,0.2,0l0.6,0l0,0c0.1,0,0.1,0,0.2,0c0.1,0,0.2,0,0.3-0.1c0,0,0,0,0,0c0.1,0,0.1-0.1,0.2-0.2
					c0.1-0.1,0.1-0.1,0.1-0.2c0-0.1,0-0.1,0-0.2c0,0,0,0,0,0c0,0,0,0,0.1-0.1l0,0c0,0,0.1-0.1,0.1-0.1c0-0.1,0.1-0.1,0.1-0.2
					c0,0,0-0.1,0-0.1c0,0,0-0.1,0-0.1c0,0,0,0,0-0.1c0.1,0,0.1-0.1,0.1-0.1c0-0.1,0.1-0.2,0.1-0.2c0-0.1,0-0.1-0.1-0.2c0,0,0,0,0,0
					l0,0c0,0,0,0,0-0.1l0,0c0,0,0,0,0-0.1c0,0,0-0.1,0-0.1l0,0L164,298.5L164,298.5z M160.3,300.5L160.3,300.5L160.3,300.5l-0.5,0
					l0,0v-1.6c0,0,0,0,0,0c0,0,0,0,0.1,0l0,0l0.1,0c0.1,0,0.2,0,0.3,0L160.3,300.5L160.3,300.5z M163.7,298.5
					C163.7,298.6,163.6,298.6,163.7,298.5L163.7,298.5c-0.1,0.1-0.1,0.1-0.1,0.2c0,0,0,0.1,0,0.1c0,0.1,0,0.2,0.1,0.2l0,0
					c0,0,0,0,0,0c0,0,0,0,0,0c0,0,0,0-0.1,0.1c0,0,0,0-0.1,0.1c0,0.1,0,0.1,0,0.2c0,0.1,0,0.1,0,0.1c0,0,0,0.1,0,0.1
					c0,0-0.1,0.1-0.1,0.1l0,0c0,0-0.1,0.1-0.1,0.1c0,0.1-0.1,0.2,0,0.3c0,0,0,0,0,0c0,0,0,0,0,0.1c0,0-0.1,0.1-0.2,0.1
					c-0.1,0-0.1,0-0.2,0.1c-0.1,0-0.1,0-0.2,0c0,0,0,0,0,0h-0.3l-0.3,0c-0.1,0-0.1,0-0.2,0c-0.1,0-0.2,0-0.3,0c-0.1,0-0.2,0-0.2,0
					c0,0-0.1,0-0.1,0l-0.4-0.1c0-0.3,0-0.5,0-0.8c0-0.2,0-0.5,0-0.7c0.1,0,0.1,0,0.2-0.1c0,0,0.1-0.1,0.1-0.1
					c0.1-0.1,0.1-0.1,0.2-0.2c0.1-0.1,0.1-0.2,0.2-0.3l0,0c0-0.1,0.1-0.2,0.1-0.3c0,0,0,0,0,0c0,0,0.1-0.1,0.1-0.1l0,0
					c0,0,0.1-0.1,0.1-0.1c0.1-0.1,0.1-0.2,0.2-0.2c0,0,0-0.1,0-0.1c0-0.1,0.1-0.3,0.1-0.4c0-0.1,0-0.1,0-0.2l0,0c0,0,0,0,0,0
					c0.1,0,0.2,0.1,0.2,0.2c0,0.1,0,0.1,0,0.2c0,0.1,0,0.2,0,0.3c0,0.1-0.1,0.2-0.1,0.3c0,0.1-0.1,0.2-0.1,0.2c0,0,0,0.1,0,0.1
					c0,0.1,0,0.2,0,0.3c0,0,0,0.1,0,0.1l0,0.1l0.1,0l0,0c0.1,0,0.1,0,0.2,0l0.1,0c0,0,0.1,0,0.1,0c0,0,0,0,0,0c0,0,0,0,0,0l0.3,0
					c0.1,0,0.2,0,0.3,0c0,0,0,0,0.1,0l0,0C163.6,298.4,163.6,298.4,163.7,298.5C163.7,298.5,163.7,298.5,163.7,298.5L163.7,298.5z"
					/>
			</g>
			<circle class="st1" cx="157.5" cy="305.2" r="3.2"/>
			<polygon class="st1" points="152,313.7 152.7,311.2 154.4,309.9 158.2,309.5 161.4,310.4 163,312 163,313.6 162,313.9 			"/>
		</g>
	</g>
	<text transform="matrix(1 3.920009e-03 -3.920009e-03 1 77.9932 26.1798)" class="st1 st8 st9">Discover</text>
	<text transform="matrix(1 3.920009e-03 -3.920009e-03 1 33.6041 73.0286)" class="st1 st8 st9">In-depth Profile</text>
	<text transform="matrix(1 3.920009e-03 -3.920009e-03 1 39.7816 119.9487)" class="st1 st8 st9">Network Maps</text>
	<text transform="matrix(1 3.920009e-03 -3.920009e-03 1 22.8955 166.835)" class="st1 st8 st9">Upcoming Events</text>
	<text transform="matrix(1 3.920009e-03 -3.920009e-03 1 30.6062 213.7552)" class="st1 st8 st9">Track &amp; Manage</text>
	<text transform="matrix(1 0 0 1 13.1848 260.8025)" class="st1 st8 st9">Industry Payments</text>
	<g>
		<text transform="matrix(1 0 0 1 36.0081 307.7136)" class="st1 st8 st9">konectar Social</text>
	</g>
	<g>
		<g>
			<g>
				<text transform="matrix(1 0 0 1 440.5091 19.5593)"><tspan x="0" y="0" class="st1 st8 st9">Data Updates &amp;</tspan><tspan x="0" y="15.8" class="st1 st8 st9">Notifications</tspan></text>
			</g>
		</g>
	</g>
	<g>
		<g>
			<g>
				<text transform="matrix(1 0 0 1 440.51 66.4704)"><tspan x="0" y="0" class="st1 st8 st9">konectar Virtual</tspan><tspan x="0" y="15.8" class="st1 st8 st9">Engagement</tspan></text>
			</g>
		</g>
	</g>
	<g>
		<g>
			<g>
				<text transform="matrix(1 0 0 1 440.5091 121.2644)" class="st1 st8 st9">Medical Insights</text>
			</g>
		</g>
	</g>
	<g>
		<g>
			<g>
				<text transform="matrix(1 0 0 1 440.51 168.1755)" class="st1 st8 st9">MailBox</text>
			</g>
		</g>
	</g>
	<g>
		<g>
			<g>
				<text transform="matrix(1 0 0 1 440.5091 207.2009)"><tspan x="0" y="0" class="st1 st8 st9">Document</tspan><tspan x="0" y="15.8" class="st1 st8 st9">Management</tspan></text>
			</g>
		</g>
	</g>
	<g>
		<g>
			<g>
				<text transform="matrix(1 0 0 1 440.51 261.9948)" class="st1 st8 st9">Territory Mapping</text>
			</g>
		</g>
	</g>
	<g>
		<g>
			<g>
				<text transform="matrix(1 0 0 1 440.5091 308.906)" class="st1 st8 st9">Compliance</text>
			</g>
		</g>
	</g>
</g>
</svg>
