<?xml version="1.0" encoding="utf-8"?>
<!-- Generator: Adobe Illustrator 24.2.2, SVG Export Plug-In . SVG Version: 6.00 Build 0)  -->
<svg version="1.1" id="Layer_1" xmlns="http://www.w3.org/2000/svg" xmlns:xlink="http://www.w3.org/1999/xlink" x="0px" y="0px"
	 width="103.4px" height="118.9px" viewBox="0 0 103.4 118.9" style="enable-background:new 0 0 103.4 118.9;" xml:space="preserve"
	>
<style type="text/css">
	.st0{fill:#2B9AF3;}
	.st1{fill:#FFFFFF;}
	.st2{fill:#666666;}
</style>
<g>
	<circle class="st0" cx="51.7" cy="59.5" r="48"/>
	<g>
		<path class="st1" d="M67.6,43.1c0.1-0.3,0.1-0.5,0.2-0.7c0.1-0.4,0.4-0.5,0.7-0.3c0.3,0.2,0.6,0.5,0.9,0.8
			c0.1,0.2,0.2,0.2,0.4,0.2c0.3,0,0.5-0.1,0.8,0c0.3,0.1,0.5,0.2,0.7,0.3c0.5,0.5,1.1,0.6,1.7,0.7c0.3,0.1,0.5,0.2,0.5,0.5
			c0,0.7,0,1.4-0.2,2.1c-0.1,0.6-0.6,1-1.1,1.2c-0.7,0.3-1.4,0.5-2.1,0.8c-0.1,0-0.2,0.1-0.4,0.1c0.6,0.2,1.1,0.1,1.7,0
			c0.2,0,0.3-0.1,0.5-0.1c0.6-0.1,0.6-0.1,0.8,0.4c0.8,1.7,1.2,3.5,1.1,5.4c-0.1,1.3-0.6,2.5-1.5,3.5c-0.6,0.6-1.1,1.3-1.4,2.1
			c-0.5,1.4-0.5,2.8,0,4.1c0.2,0.7,0.5,0.8,1.2,0.6c0.8-0.2,1.5,0.2,1.9,0.9c0.2,0.4,0.1,0.7-0.3,0.8c-1,0.2-2.1,0.5-3.1,0.5
			c-3.2,0.1-6.4,0.1-9.6,0c-0.3,0-0.5,0.1-0.6,0.3c-2,2.8-2.4,5.8-0.7,8.8c1.6,3,4.3,4.4,7.8,4.2c1.2-0.1,2.3-0.5,3.3-1.1
			c0.9-0.5,2,0,2.1,1c0.1,0.6-0.2,1.2-0.8,1.5c-3.1,1.7-6.3,2-9.6,0.6c-4.2-1.8-6.9-5.9-6.6-10.5c0.1-1.9,0.7-3.7,1.7-5.4
			c0.2-0.3,0.2-0.6,0.1-0.9c-0.8-2.5-0.9-4.9-0.1-7.4c1-3.1,3.1-5.3,6-6.9c0.3-0.2,0.6-0.3,0.9-0.4c0.3-0.1,0.4-0.3,0.5-0.6
			c0.2-1.5,0.7-2.9,1.4-4.2c0.2-0.3,0.2-0.5,0-0.9c-0.3-0.6-0.5-1.2-0.6-1.8c-0.1-0.8,0.3-1.1,1.1-0.9C67.1,42.8,67.4,43,67.6,43.1z
			"/>
		<g>
			<path class="st1" d="M43.7,65.6c-1-0.5-1.4-1.3-1.6-2.2c-0.6-2.2,0.1-4.3,2-5.6c0.9-0.6,1.9-1,2.9-1.3c0.1,0,0.1,0,0.2-0.1
				c-1,0-2,0.2-2.9,0.7c-0.9,0.5-1.6,1.2-2.2,2.1c-0.4-0.9-0.5-1.8-0.6-2.8c0,0.1,0,0.2,0,0.4c-0.1,0.9-0.1,1.7-0.2,2.6
				c-0.1,1.1-0.6,2-1.1,2.9c-0.6,1.1-1.2,2.2-1.8,3.4c-0.5,1-1.3,1.6-2.4,1.5c-0.5,0-1,0-1.5-0.1c-0.5-0.1-0.6-0.3-0.4-0.8
				c0.1-0.2,0.2-0.3,0.3-0.5c-0.2-0.1-0.5-0.1-0.7-0.2c-0.3-0.1-0.3-0.3-0.3-0.5c0.2-0.8,1.2-1.5,2-1.3c0.4,0.1,0.6-0.1,0.8-0.4
				c0.7-1.2,1.1-2.6,1.4-3.9c0.1-0.5,0.2-1.1,0.3-1.6c0-0.2,0-0.4-0.1-0.5c-0.7-1-1.3-2-2-3c-0.5-0.6-0.7-1.3-0.7-2.1
				c0-1.1,0.1-2.2,0.1-3.3c0-0.5,0-1,0-1.5c2.7-0.8,5.1-2.1,7.2-4.1c1.3,0.7,2.3,1.7,2.8,3c0.3,0.7,0.7,1.2,1.4,1.5
				c2.5,1.4,4.5,3.2,5.5,5.9c1.4,3.4,1.3,6.9-0.2,10.3c-0.1,0.2-0.2,0.4-0.3,0.6c0,0,0,0.1,0.1,0.1c1.9,0.8,3,2.3,3.6,4.2
				c1.4,4-0.4,7.9-4.4,9.5c-1.5,0.6-3.1,0.9-4.7,1.1c-2,0.2-3.9,0.3-5.9,0.5c-1.5,0.1-2.9,0.4-4.3,1c0,0,0,0-0.1,0
				c1.7-3.4,4.6-4.6,8.2-4.8c-0.1-0.1-0.3-0.2-0.4-0.2c-0.7-0.2-1.4-0.2-2.2-0.1c-0.2,0-0.5,0.1-0.8,0.1c1.5-1.5,3.2-2.4,5.1-2.9
				c1.9-0.5,3.9-0.7,5.8-0.3c-0.5-0.5-1.9-0.9-3.7-0.6c0.1-0.1,0.2-0.2,0.3-0.2c0.9-0.8,1.7-1.6,2.3-2.6c0.4-0.6,0.7-1.3,0.7-2.1
				c0-0.7-0.4-1.2-1-1.6c0,0,0,0.1,0,0.1c0.1,1-0.3,1.5-1.3,1.5c-0.1,0-0.1,0-0.2,0c-3.2,0-6.4,0-9.5,0c-0.1,0-0.3,0-0.4,0
				c-0.5,0-0.5-0.1-0.4-0.6c0.1-0.8,0.9-1.4,1.7-1.2c0.6,0.1,1.2,0.2,1.8,0.3C42.3,65.9,43,65.7,43.7,65.6z"/>
			<path class="st1" d="M35,46.5c0-0.3-0.1-0.5-0.1-0.9c-0.5,0.8-1.2,1.3-2.1,1.4c-0.9,0.1-1.7-0.2-2.4-0.6c0.3-0.4,0.4-0.5,0.2-0.7
				c-0.2,0.1-0.3,0.4-0.5,0.4c-0.2,0.1-0.5-0.1-0.7-0.1c0.5-1,1-1.8,1.7-2.5c0.1-0.1,0.2-0.3,0.2-0.5c-0.1-1.1,0.2-2.1,0.9-3
				c-0.2-0.3-0.5-0.6-0.7-1c-0.3-0.4-0.6-0.9-0.8-1.4c-0.2-0.6,0-0.9,0.6-0.9c0.2,0,0.5,0,0.7,0.1c0-0.2-0.1-0.4-0.1-0.7
				c0-0.5,0.3-0.8,0.8-0.7c0.4,0,0.7,0.1,1,0.3c0.7,0.5,1.4,1,2.2,1.5c0.1,0.1,0.2,0.2,0.4,0.2c2.4,1,4.2,2.7,5.3,5.1
				c0,0.1,0,0.3-0.1,0.3c-0.6,0.5-1.2,1.1-1.9,1.6c-1.3,0.9-2.8,1.6-4.4,2C35.1,46.5,35,46.5,35,46.5z"/>
			<path class="st1" d="M34.9,47.9c0,0.5-0.1,0.9-0.4,1.2c-0.1,0.1-0.3,0.2-0.5,0.2c-0.1,0-0.3-0.2-0.3-0.4c-0.2-0.6,0-1.1,0.3-1.6
				c0.1-0.1,0.3-0.3,0.5-0.2c0.1,0,0.2,0.2,0.3,0.4C34.9,47.6,34.9,47.8,34.9,47.9z"/>
		</g>
	</g>
	<g>
		<path class="st2" d="M5.8,28.8C15.7,14,32.6,4.3,51.7,4.3c19.1,0,36,9.8,45.9,24.6h1.2C88.7,13.4,71.4,3.3,51.7,3.3
			c-19.7,0-37,10.2-47.1,25.6H5.8z"/>
		<path class="st2" d="M99.4,87.2c-9.6,16.4-27.4,27.5-47.7,27.5c-20.3,0-38.2-11.1-47.7-27.5H2.8c9.7,17,28,28.5,48.9,28.5
			c20.9,0,39.2-11.5,48.9-28.5H99.4z"/>
	</g>
</g>
</svg>
