<?xml version="1.0" encoding="utf-8"?>
<!-- Generator: Adobe Illustrator 24.2.2, SVG Export Plug-In . SVG Version: 6.00 Build 0)  -->
<svg version="1.1" id="Layer_1" xmlns="http://www.w3.org/2000/svg" xmlns:xlink="http://www.w3.org/1999/xlink" x="0px" y="0px"
	 width="103.4px" height="118.9px" viewBox="0 0 103.4 118.9" style="enable-background:new 0 0 103.4 118.9;" xml:space="preserve"
	>
<style type="text/css">
	.st0{fill:#2B9AF3;}
	.st1{fill:#FFFFFF;}
	.st2{fill:#666666;}
</style>
<g>
	<circle class="st0" cx="51.7" cy="59.5" r="48"/>
	<g>
		<path class="st1" d="M56,64.3c0.7,1.3,1,2.8,2.3,3.7c0.7,0.5,1.5,0.8,2.3,1.2c0.6,0.3,1,0,1.4-0.4c1.2-0.9,2.4-1.9,3.7-2.9
			c0.1-0.1,0.3-0.2,0.5-0.1c0.3,0.1,0.5,0.1,0.9,0.1c0,0.1-0.1,0.2-0.1,0.2c-1.3,1-2.6,1.9-3.9,2.8c-0.3,0.2-0.5,0.4-0.8,0.6
			c1.4,0.3,2.7,0.3,4.1,0.2c-0.6,0.5-1.2,0.9-1.8,1.4c-0.1,0.1-0.2,0.1-0.3,0.1c-1.6-0.2-3.1-0.7-4.6-1.3c-0.2-0.1-0.4-0.1-0.6-0.2
			c0.1,1.9,0.2,3.9,0.3,5.8c-0.3,0-0.5,0-0.7,0c0-0.9-0.1-1.8-0.1-2.7c-0.1-1.2-0.3-2.4-0.5-3.7c0-0.1-0.1-0.2-0.1-0.2
			c-0.8-0.6-1.3-1.4-1.8-2.2c-0.5-0.8-0.9-1.6-1.5-2.4c-1,1.2-2.3,1.6-3.7,1.3c-0.6,1.9-2.7,2.4-4.1,1c0,0.1,0,0.2,0,0.3
			c0,1.1,0.1,2.1,0.1,3.2c0,1.2-0.1,2.4-0.2,3.6c-0.1,1.2,0.5,2.2,1.2,3.1c0.8,1.1,1.8,2,2.9,2.8c0.7,0.5,1.3,0.6,2.1,0.5
			c1.3-0.2,2.7-0.4,4-0.5c0.1,0,0.3,0.1,0.4,0.1c0.2,0.2,0.5,0.3,0.7,0.5c-0.1,0-0.2,0.1-0.3,0.1c-1.5,0.1-2.9,0.3-4.4,0.4
			c-0.6,0.1-1.2,0.1-1.8,0.2c0.7,1.8,1.4,3.6,2.1,5.5c-0.3,0.1-0.5,0.2-0.7,0.3c-0.2-0.6-0.4-1.2-0.7-1.8c-0.5-1.2-1.1-2.4-1.7-3.6
			c-0.1-0.2-0.3-0.4-0.5-0.5c-1.3-1-2.4-2.2-3.4-3.5c-0.9-1.2-1.4-2.5-1.3-4.1c0-1.9-0.2-3.8-0.7-5.7c-0.1-0.2-0.2-0.5-0.3-0.7
			c-0.1-0.1-0.2-0.3-0.3-0.3c-1.1-0.4-1.9-1.2-2.2-2.4c0-0.1,0-0.1-0.1-0.2c-0.4,0.4-0.8,0.7-1.3,1c-1,0.7-2.1,1.5-3.1,2.2
			c-1.2,0.8-2.2,1.6-2.6,3c-0.1,0.5-0.3,1-0.4,1.5c-0.3,1.3-0.3,2.6-0.1,4c0.1,0.6,0.4,0.9,0.8,1.2c0.6,0.6,1.2,1.2,1.7,1.7
			c0.4,0.3,0.7,0.7,1.1,1c0.2,0.1,0.3,0.3,0.2,0.5c-0.1,0.2,0,0.5,0,0.9c-0.1-0.1-0.2-0.1-0.3-0.2c-1.4-1.5-2.8-3-4.2-4.5
			c-0.3-0.3-0.5-0.6-0.7-0.9c-0.1-0.1-0.1-0.2-0.1-0.3c0-1.5,0.2-2.9,0.6-4.3c0.1-0.4,0.2-0.7,0.3-1.1c-1.9,0.4-3.8,0.7-5.8,1.1
			c-0.1-0.3-0.1-0.5-0.2-0.7c0.7-0.1,1.3-0.2,1.9-0.4c1.3-0.3,2.6-0.6,3.8-1c0.5-0.1,0.7-0.4,1-0.8c0.5-0.8,1.3-1.4,2.1-1.9
			c1.1-0.8,2.1-1.8,3-2.8c0.1-0.1,0.1-0.1,0.2-0.2c-0.1-0.1-0.2-0.1-0.3-0.2c-0.9-0.4-1.6-1-2-1.9c0-0.1-0.2-0.2-0.3-0.2
			c-0.7-0.2-1.4-0.5-2.1-0.7c-1-0.4-1.9-1-2.6-1.8c-1.7-1.9-3.1-3.9-4.3-6.2c-0.1-0.2-0.1-0.4,0-0.6c0.3-0.8,0.5-1.6,0.8-2.4
			c0.4,1.6,1,3.2,1.9,4.8c0.1-0.4,0.2-0.8,0.4-1.2c0.6-1.8,1.2-3.5,1.7-5.3c0-0.1,0.2-0.2,0.2-0.2c0.2,0.4,0.4,0.8,0.6,1.2
			c0,0.1,0,0.2,0,0.3c-0.6,1.8-1.3,3.6-1.9,5.3c-0.1,0.3-0.2,0.5-0.2,0.8c0,0.2,0.1,0.4,0.2,0.6c0.6,1,1.4,1.8,2.3,2.6
			c0.6,0.5,1.3,0.8,2,1c0.3,0.1,0.7,0.2,1,0.3c0.2,0.1,0.3,0,0.4-0.2c0.2-0.3,0.4-0.6,0.5-0.9c0.1-0.1,0.1-0.3,0.1-0.4
			c-0.7-1.8-0.2-3.4,1.5-4.4c0.1-0.1,0.2-0.2,0.2-0.3c-0.3-2.5,1.1-4.6,3.5-5.1C43.6,48,44,48,44.3,48c-0.2-1.2,0.2-2.4,0.6-3.5
			c0.5-1.5,0.7-3,0.9-4.6c0.1-0.7-0.2-1.3-0.4-1.9c-0.4-1-0.8-2-1.2-2.9c-0.3-0.6-0.6-1.2-0.9-1.7c-0.1-0.2-0.2-0.4,0-0.7
			c0.1-0.2,0.2-0.5,0.2-0.8c0.1,0.1,0.2,0.2,0.2,0.3c0.6,1.5,1.3,3,1.9,4.5c0.1,0.3,0.2,0.3,0.5,0.3c0.6-0.2,1.3-0.3,1.9-0.6
			c0.5-0.2,1-0.5,1.5-0.9c0.9-0.7,1.7-1.4,2.6-2.1c0.1-0.1,0.2-0.1,0.4-0.1c0.3,0.1,0.6,0.1,0.9,0.1c-0.1,0.1-0.1,0.2-0.2,0.3
			c-1.2,0.9-2.5,1.8-3.7,2.8c-0.1,0.1-0.2,0.3-0.3,0.4c-0.2,0.4-0.4,0.9-0.6,1.3c-0.4,1-0.8,2-1.1,3c-0.4,1.5-1.1,3-1.7,4.5
			c-0.3,0.8-0.5,1.5-0.3,2.4c0,0.1,0,0.2,0.1,0.2c0,0,0,0,0.1,0.1c0-0.1,0.1-0.2,0.1-0.3c0.2-0.7,0.5-1.4,1-2c1.6-1.9,4.1-1.9,5.6,0
			c0.6,0.7,0.9,1.5,1.1,2.4c0,0.1,0.1,0.2,0.1,0.4c0.3-0.1,0.6-0.3,0.8-0.4c1.2-0.6,2.5-1.1,3.7-1.7c0.2-0.1,0.4-0.2,0.6-0.3
			c1-0.5,1.4-1.4,1.8-2.4c0,0,0,0,0,0c0.5-1.2,0.7-2.6,0.7-4c0.3,0.5,0.6,0.9,0.9,1.4c0.1,0.1,0,0.2,0,0.4c-0.2,0.7-0.4,1.4-0.6,2.1
			c0,0.1,0,0.1-0.1,0.3C61.8,44,61.9,44,62,44c1.1-0.7,2.2-1.3,3.3-2c0.1,0,0.1-0.1,0.2-0.1c0.3-0.2,0.6-0.5,0.9-0.6
			c0.3-0.1,0.7,0.2,1.1,0.3c-0.1,0.1-0.1,0.2-0.2,0.2c-1.6,0.9-3.1,1.8-4.7,2.8c-0.4,0.2-0.8,0.4-1.1,0.6c-0.2,0.1-0.4,0.3-0.5,0.5
			c-0.5,0.9-1.2,1.5-2.1,1.9c-0.6,0.3-1.1,0.6-1.6,0.8c-0.1,0-0.2,0.1-0.3,0.2c0.1,0.1,0.1,0.1,0.1,0.1c2,0.6,3.1,2.7,2.9,4.7
			c-0.1,0.8-0.3,1.5-0.7,2.2c-0.1,0.1,0,0.3-0.1,0.6c0.8-0.3,1.5-0.5,2.3-0.7c1.2-0.4,2.5-0.6,3.8-0.6c2.6,0,5.1,0.3,7.6,0.8
			c0.5,0.1,1.1,0.1,1.6,0.4c0.4,0.3,0.6,0.8,1,1.3c0.2,0.2,0.3,0.4,0.5,0.6c-3.2-1.3-6.5-2-10-2.1c0.4,0.5,0.8,0.9,1.1,1.3
			c0.9,1.2,1.9,2.4,2.8,3.7c0.1,0.1,0,0.2,0.1,0.3c-0.1,0-0.2,0-0.3,0c-0.4-0.1-0.7-0.2-1.1-0.3c-0.1,0-0.3-0.1-0.3-0.2
			c-0.9-1.5-2-2.9-3.1-4.3c-0.4-0.5-0.9-0.4-1.3-0.3c-1.4,0.2-2.6,0.8-3.9,1.3c-0.3,0.1-0.5,0.3-0.5,0.7c-0.1,0.6-0.4,1.2-0.8,1.6
			c-0.1,0.1-0.1,0.3-0.1,0.5c0.3,1,0.3,2-0.2,2.9c-0.4,0.9-1,1.4-2,1.5C56.1,64.2,56,64.3,56,64.3z M52.6,49.9c0-1.4-0.3-2.3-0.9-3
			c-0.9-1.1-2.4-1.1-3.3,0c-1.2,1.4-1.2,3.9,0,5.3c0.9,1.1,2.4,1.1,3.3,0C52.3,51.4,52.6,50.5,52.6,49.9z M43.5,53.9
			c-1.4,0-2.6,1.2-2.6,2.6c0,1.5,1.1,2.6,2.6,2.6c1.5,0,2.7-1.1,2.7-2.6C46.2,55.1,45,53.9,43.5,53.9z M58.3,52.8
			c0-1.2-1-2.3-2.2-2.3c-1.2,0-2.2,1-2.2,2.2c0,1.2,1,2.2,2.2,2.2C57.3,55,58.3,54,58.3,52.8z M43.5,53c1.1,0,2-0.9,2-2
			c0-1.1-1-2-2.1-2c-1.1,0-2,0.9-2,2C41.5,52.2,42.3,53,43.5,53z M42.4,60.2c0-1.1-0.9-2-2-2c-1.1,0-2,0.9-2,2c0,1.1,0.9,2,2,2
			C41.5,62.2,42.4,61.3,42.4,60.2z M45.3,61.4c-1.1,0-1.9,0.9-1.9,1.9c0,1.1,0.9,1.9,1.9,1.9c1.1,0,1.9-0.9,1.9-1.9
			C47.3,62.2,46.4,61.4,45.3,61.4z M53.5,57.2c0-1-0.8-1.8-1.8-1.8c-1,0-1.8,0.8-1.8,1.8c0,1,0.8,1.8,1.8,1.8
			C52.6,59,53.5,58.2,53.5,57.2z M52.7,63.2c0-0.9-0.7-1.6-1.6-1.6c-0.9,0-1.7,0.7-1.7,1.6c0,0.9,0.7,1.6,1.6,1.6
			C51.9,64.8,52.7,64.1,52.7,63.2z M56,59.7c-0.8,0-1.5,0.7-1.5,1.6c0,0.8,0.7,1.5,1.5,1.5c0.9,0,1.5-0.7,1.5-1.5
			C57.6,60.3,56.9,59.6,56,59.7z M47.6,60.6c0.6,0,1.1-0.5,1.1-1c0-0.6-0.4-1.1-1-1.1c-0.6,0-1.1,0.5-1.1,1.1
			C46.5,60.1,47,60.5,47.6,60.6z"/>
	</g>
	<g>
		<path class="st2" d="M5.8,28.8C15.7,14,32.6,4.3,51.7,4.3c19.1,0,36,9.8,45.9,24.6h1.2C88.7,13.4,71.4,3.3,51.7,3.3
			c-19.7,0-37,10.2-47.1,25.6H5.8z"/>
		<path class="st2" d="M99.4,87.2c-9.6,16.4-27.4,27.5-47.7,27.5c-20.3,0-38.2-11.1-47.7-27.5H2.8c9.7,17,28,28.5,48.9,28.5
			c20.9,0,39.2-11.5,48.9-28.5H99.4z"/>
	</g>
</g>
</svg>
