<?xml version="1.0" encoding="utf-8"?>
<!-- Generator: Adobe Illustrator 24.2.2, SVG Export Plug-In . SVG Version: 6.00 Build 0)  -->
<svg version="1.1" id="Layer_1" xmlns="http://www.w3.org/2000/svg" xmlns:xlink="http://www.w3.org/1999/xlink" x="0px" y="0px"
	 width="103.4px" height="118.9px" viewBox="0 0 103.4 118.9" style="enable-background:new 0 0 103.4 118.9;" xml:space="preserve"
	>
<style type="text/css">
	.st0{fill:#F96731;}
	.st1{fill:#FFFFFF;}
	.st2{fill:#666666;}
</style>
<g>
	<circle class="st0" cx="51.7" cy="59.5" r="48"/>
	<path class="st1" d="M69.4,47.5c-0.1-1.7-0.4-3.3-1.3-4.7c-0.4-0.7-0.8-1.3-1.3-1.7c-0.4-0.4-0.8-0.8-1.4-1.1
		c-0.1,0-0.1-0.1-0.2-0.1c-2.1-1.1-4.8-1.4-4.8-1.4l-3,1.9c-3.6,2.1-5.8,3.2-12.5,3.1c-2-0.6,0.3-0.7,0.3-0.7c2.6,0.2,4.7-0.4,6.2-1
		c-3.1-0.4-5.2-2.3-5.2-2.3c-5.2-2.6-9.9,2.7-9.9,2.7c-5,6.5-0.6,15-0.6,15c0.4,1.4,4.9,7.8,4.9,7.8c2,4.3,2.6,9.7,2.6,9.7
		c4.1,13,6,0,6,0l0.2-4.1c0.8-11.4,6.6-12.5,6.6-12.5c3.1-0.9,0.6,0.7,0.6,0.7c-3,2.1-3.2,6-3.2,6C52.9,69.6,54.4,75,54.4,75
		c3.3,11.1,5.1,0.2,5.1,0.2c1-10.4,4.5-14.8,6-16.2c0.7-0.6,1.3-1.3,1.8-2.1c0.2-0.3,0.4-0.6,0.5-0.9l0,0c0.2-0.3,0.3-0.6,0.4-1
		c0,0,0,0,0,0c0,0,0,0,0,0c0.5-1.5,0.9-3.4,0.9-3.4C69.4,50.1,69.5,48.6,69.4,47.5z"/>
	<g>
		<path class="st2" d="M5.8,28.8C15.7,14,32.6,4.3,51.7,4.3c19.1,0,36,9.8,45.9,24.6h1.2C88.7,13.4,71.4,3.3,51.7,3.3
			c-19.7,0-37,10.2-47.1,25.6H5.8z"/>
		<path class="st2" d="M99.4,87.2c-9.6,16.4-27.4,27.5-47.7,27.5c-20.3,0-38.2-11.1-47.7-27.5H2.8c9.7,17,28,28.5,48.9,28.5
			c20.9,0,39.2-11.5,48.9-28.5H99.4z"/>
	</g>
</g>
</svg>
