<?xml version="1.0" encoding="utf-8"?>
<!-- Generator: Adobe Illustrator 24.2.2, SVG Export Plug-In . SVG Version: 6.00 Build 0)  -->
<svg version="1.1" id="Layer_1" xmlns="http://www.w3.org/2000/svg" xmlns:xlink="http://www.w3.org/1999/xlink" x="0px" y="0px"
	 width="103.4px" height="118.9px" viewBox="0 0 103.4 118.9" style="enable-background:new 0 0 103.4 118.9;" xml:space="preserve"
	>
<style type="text/css">
	.st0{fill:#2B9AF3;}
	.st1{fill:#FFFFFF;}
	.st2{fill:#666666;}
</style>
<g>
	<circle class="st0" cx="51.7" cy="59.5" r="48"/>
	<g>
		<path class="st1" d="M45.4,53.1c0.8-1.7,1.6-3.4,2.8-4.9c1.8-2.3,4-4,6.9-4.6c1.3-0.3,2.7-0.4,4,0.1c2.3,0.9,2.7,3.7,2,5.3
			c-0.2,0.4-0.5,0.7-0.9,0.8c-0.4,0.1-0.7,0.3-1,0.4c-0.4,0.2-0.5,0.6-0.2,1c0.2,0.3,0.5,0.6,0.8,0.9c0.7,0.5,1.3,1,2,1.4
			c1.5,0.8,2.4,2.1,3.1,3.6c1,2.1,1.5,4.3,1.9,6.6c0.4,2.6,0.6,5.2,0.5,7.8c-0.1,1.9-0.3,3.9-0.9,5.7c-0.6,2.1-2,3.1-4.2,3.2
			c-2.6,0.2-5.1-0.3-7.5-1.2c-4.2-1.5-8-3.9-11.4-6.8c-1.6-1.3-3.1-2.7-4.3-4.3c-1.7-2.2-2.7-4.6-2.5-7.4c0.1-2.2,0.9-4.1,2-6
			c0.4-0.7,0.8-1.4,1.3-2c0.4-0.6,0.6-1.2,0.5-1.8c0-1.2-0.1-2.5-0.2-3.7c0-0.2,0-0.5,0-0.7c0.1-0.7,0.3-1,1-1.1
			c1.2-0.2,2.3-0.1,3.5,0.2c0.2,0,0.4,0.3,0.5,0.5c0.2,0.7,0.4,1.4,0.4,2.1c0.1,1.5,0.1,3,0.1,4.5C45.4,52.8,45.4,53,45.4,53.1z
			 M55.2,47.2c-0.1,0-0.2,0-0.2,0c-1.7,0.9-3.4,2-4.7,3.5c-0.8,1-1.5,2-1.6,3.4c-0.1,1.5,0.5,2.9,1.3,4.1c1,1.6,2.3,3.1,3.6,4.4
			c2,2,4,3.9,5.5,6.3c1.5,2.2,3.1,4.3,4,6.8c-0.1-0.4-0.2-0.9-0.3-1.3c-0.9-3.3-2.7-6.2-5.1-8.7c-1.2-1.3-2.6-2.6-3.8-3.9
			c-1.5-1.5-2.8-3.2-3.7-5.2c-0.9-2-0.7-4,0.6-5.7c0.8-1,1.7-1.8,2.7-2.5C54.1,47.9,54.7,47.6,55.2,47.2z M62.9,63.4
			c-0.2-1.2-1-2.3-2.1-3.3c-2-1.6-4.5-2.1-7-2.7c0.4,0.3,0.7,0.5,1.1,0.7c1.5,0.7,3,1.4,4.5,2.1C60.9,60.9,62.2,61.8,62.9,63.4z
			 M40.8,63.9c1.6-0.7,2.9-1.9,3.8-3.4c0.9-1.6,1-4,0.7-5C44.7,58.8,43.7,61.8,40.8,63.9z M54.4,51.1c-1,0.9-1.9,1.9-2.3,3.3
			c-0.4,1.2,0.3,2.3,1.4,2.7C52.2,54.8,53.4,53,54.4,51.1z M40.4,46.4c0.6,0.5,3.6,0.3,4-0.2C43.7,45.4,40.9,45.6,40.4,46.4z"/>
		<path class="st1" d="M49,42c0.3-0.7,0.5-1.4,0.8-2c0.2-0.3,0.4-0.7,0.7-0.9c0.4-0.4,1-0.5,1.5-0.3c0.3,0.2,0.4,0.3,0.2,0.7
			c-0.2,0.2-0.4,0.4-0.5,0.7c-0.2,0.2-0.2,0.5,0,0.7c0.3,0.2,0.5,0,0.6-0.2c0.2-0.3,0.3-0.6,0.5-0.8c0.3-0.4,0.5-0.7,0.8-1
			c0.7-0.6,1.5-0.2,1.6,0.7c0,0.6-0.1,1.2-0.3,1.7c-0.1,0.2-0.1,0.4,0.1,0.6c0.5,0.5,0.9,1,1.4,1.5c0,0,0,0.1,0,0.1
			c-2.3-0.1-4.3,0.8-6,2.2c-1.9,1.7-3.6,3.5-4.8,5.9c0-0.2,0-0.4,0-0.5c-0.1-1.4-0.1-2.8-0.4-4.2c-0.1-0.6-0.1-1.1,0.2-1.6
			c0.2-0.3,0.3-0.6,0.6-1c-0.6-0.3-1.2-0.5-1.8-0.8c-0.2-0.1-0.4-0.2-0.4-0.4c-0.3-0.6-0.3-1.2-0.1-1.9c0.3-0.7,1-1.1,1.8-1
			c1.2,0.2,2.1,0.8,3,1.5C48.7,41.7,48.9,41.9,49,42z M44.4,42.8c0.4-0.6,0.8-1.1,1.1-1.7c0.1-0.1,0.1-0.3,0.1-0.5
			c-0.2,0-0.4-0.1-0.5,0C44.3,40.9,44,41.8,44.4,42.8z M53.8,38.9c0.1,0.4,0.5,0.8,0.9,0.8c0.1,0,0.3-0.1,0.3-0.2
			c0-0.1,0-0.2-0.1-0.3C54.6,39,54.3,38.8,53.8,38.9z M50.7,39c0.3,0.4,0.8,0.5,1.2,0.2C51.5,38.9,51.1,39,50.7,39z"/>
	</g>
	<g>
		<path class="st2" d="M5.8,28.8C15.7,14,32.6,4.3,51.7,4.3c19.1,0,36,9.8,45.9,24.6h1.2C88.7,13.4,71.4,3.3,51.7,3.3
			c-19.7,0-37,10.2-47.1,25.6H5.8z"/>
		<path class="st2" d="M99.4,87.2c-9.6,16.4-27.4,27.5-47.7,27.5c-20.3,0-38.2-11.1-47.7-27.5H2.8c9.7,17,28,28.5,48.9,28.5
			c20.9,0,39.2-11.5,48.9-28.5H99.4z"/>
	</g>
</g>
</svg>
