<?xml version="1.0" encoding="utf-8"?>
<!-- Generator: Adobe Illustrator 24.2.2, SVG Export Plug-In . SVG Version: 6.00 Build 0)  -->
<svg version="1.1" id="Layer_1" xmlns="http://www.w3.org/2000/svg" xmlns:xlink="http://www.w3.org/1999/xlink" x="0px" y="0px"
	 width="103.4px" height="118.9px" viewBox="0 0 103.4 118.9" style="enable-background:new 0 0 103.4 118.9;" xml:space="preserve"
	>
<style type="text/css">
	.st0{fill:#F96731;}
	.st1{fill:#FFFFFF;}
	.st2{fill:#666666;}
</style>
<g>
	<circle class="st0" cx="51.7" cy="59.5" r="48"/>
	<g>
		<path class="st1" d="M72.6,46.2c0.6,0.3,0.7,0.9,0.4,1.5c-0.1,0.1-0.1,0.2-0.2,0.4c-0.4,0.5-0.6,1.1-0.5,1.8
			c0.1,0.9-0.4,1.5-1.2,1.8c-0.4,0.1-0.6,0.3-0.7,0.7c-0.2,0.9-0.7,1.6-1.5,2c-0.4,0.3-0.7,0.6-0.8,1.1c-0.3,0.8-0.8,1.2-1.6,1.4
			c-0.6,0.1-1.1,0.5-1.4,1.1c-0.4,0.7-1,1.2-1.8,1.4c-0.8,0.2-1.7,0.5-2.5,0.8c-0.5,0.2-1,0.2-1.6,0.2c-0.5-0.1-0.9,0.1-1.3,0.4
			c-0.2,0.2-0.4,0.3-0.6,0.4c-0.4,0.2-0.7,0.3-1.1,0.1c-0.6-0.2-0.8-0.1-1.1,0.4c-0.4,0.7-0.9,0.8-1.6,0.7c0,0-0.1,0-0.1,0
			c-1.1-0.2-1.4,0.1-1.6,1.1c0,0.1,0,0.1,0,0.2c-0.1,0.5-0.4,0.8-0.9,0.9c0.3,1.5-0.1,2.7-1.2,3.5c-0.3,0.2-0.7,0.3-1,0.4
			c-0.3,0.1-0.5,0.2-0.5,0.5c-0.2,0.9-0.7,1.3-1.6,1.4c-0.2,0-0.5,0-0.7,0c-0.8,0-1.5,0.1-2.2,0.5c-0.6,0.3-1.2,0.4-1.9,0.3
			c-0.8-0.2-1.5-0.6-1.8-1.4c-0.3-0.7-0.8-1.2-1.5-1.5c-1.6-0.7-2.3-2.3-1.8-4c0.2-0.7,0.2-1.4-0.1-2.1c-0.1-0.1-0.1-0.3-0.2-0.4
			c-0.3-0.7-0.2-1.4,0.4-1.9c0.5-0.4,0.8-0.9,0.8-1.6c0-0.4,0.2-0.7,0.5-0.9c0.8-0.6,1.2-1.3,1.5-2.2c0-0.1,0.1-0.3,0.2-0.4
			c0.3-0.7,0.8-1.1,1.5-1.1c0.5,0,1-0.2,1.3-0.5c0.5-0.4,1-0.5,1.7-0.3c0.8,0.3,1.5,0.1,2.2-0.2c0.5-0.2,1-0.4,1.6-0.5
			c0.5-0.1,1.1,0,1.5,0.3c0.1,0.1,0.1,0.1,0.2,0c0.4-0.6,1.1-0.6,1.7-0.5c0.9,0.2,1.8,0.3,2.7-0.1c0.4-0.1,0.8-0.1,1.1,0.1
			c0.4,0.3,0.7,0.1,1.1-0.1c0.5-0.3,1.1-0.5,1.6-0.5c0.5,0,0.8-0.1,1.2-0.4c0.6-0.6,1.4-0.9,2.3-0.8c0.2,0,0.3,0.1,0.4-0.3
			c0-0.5,0.4-0.9,0.8-1.1c0.4-0.2,0.8-0.2,1.2-0.2c0.2,0,0.3,0,0.3-0.3c0.1-0.7,0.7-1.2,1.4-1.3c0.2,0,0.3-0.1,0.4-0.2
			c0.5-0.7,1.2-1,2.1-1.1c0.6-0.1,1.1-0.3,1.6-0.7c0.5-0.4,1-0.7,1.6-0.8c0.9-0.1,1.6,0.3,1.8,1.1C73,45.5,72.9,45.9,72.6,46.2z"/>
		<path class="st1" d="M38.3,50.6c-0.7,0.6-1.2,1.3-1.6,2.1c-0.8,1.4-1.3,2.8-1,4.4c0,0.1,0,0.2,0,0.3c-1.1,2.2-0.9,4.4,0.2,6.5
			c0.1,0.2,0.2,0.3,0.1,0.5c-0.4,1.6,0.7,3.4,2.2,4c0.6,0.2,1,0.6,1.2,1.2c0.6,1.7,2.7,2.2,4,1.5c0.8-0.4,1.6-0.6,2.6-0.6
			c0.4,0,0.9-0.1,1.3-0.2c0.6-0.2,1-0.7,1.1-1.3c0-0.3,0.2-0.3,0.4-0.4c1.7-0.5,2.7-1.9,2.6-3.7c0-0.1,0-0.2,0.1-0.3
			c0.5-0.3,0.6-0.7,0.7-1.2c0-0.1,0-0.2,0.1-0.3c0.1-0.5,0.3-0.6,0.7-0.5c0.3,0,0.5,0.1,0.8,0.1c0.7,0.1,1.2-0.2,1.5-0.8
			c0.2-0.4,0.4-0.5,0.9-0.3c0.4,0.2,0.8,0.1,1.1-0.1c0.2-0.1,0.5-0.3,0.7-0.5c0.4-0.3,0.9-0.5,1.4-0.4c0.4,0.1,0.9,0,1.3-0.1
			c0.2-0.1,0.4,0,0.5,0.2c0.9,1.4,1.4,2.9,1.9,4.4c0.7,2.1,1.1,4.2,1.3,6.3c0.1,0.8-0.1,1.5-0.7,2.1c-0.8,0.9-1.8,1.4-3,1.5
			c-0.4,0-0.5-0.1-0.6-0.5c-0.2-1.9-0.3-3.9-0.7-5.8c-0.2-1.2-0.5-2.4-1-3.5c-0.6-1.5-1.7-1.8-3.1-0.9c-0.7,0.5-1.2,1.1-1.7,1.9
			c-0.8,1.1-1.4,2.4-2,3.6c-1.4,2.6-3.4,4.3-6.2,5c-2.3,0.6-4.6,0.4-6.8-0.6c-1.1-0.5-2.2-1-3.3-1.5c-1.2-0.6-2-1.5-2.6-2.6
			c-1.3-2.2-2-4.6-2.3-7.2c-0.3-2.4-0.1-4.8,0.7-7.2c1.1-3,3.3-4.7,6.5-5C37.8,50.6,38,50.5,38.3,50.6z"/>
		<path class="st1" d="M40,53.2c0-0.5,0.1-1,0-1.5c-0.1-0.4-0.4-0.6-0.8-0.4c-0.1,0.1-0.2,0.2-0.3,0.3c-1.1,1.2-2,2.6-2.1,4.3
			c0,0.1,0,0.2,0,0.2c0,0.7,0,0.7,0.7,0.6c-0.2,0.2-0.4,0.4-0.5,0.7c0,0.2-0.2,0.1-0.3,0.1c-0.2,0-0.5,0-0.6-0.3
			c-0.1-0.2-0.1-0.5-0.2-0.8c-0.1-0.8,0-1.5,0.3-2.2c0.5-1.4,1.2-2.6,2.3-3.5c0.5-0.4,1-0.4,1.6-0.2c0.5,0.2,0.6,0.7,0.6,1.2
			c0,0.3,0.1,0.7,0,1C40.7,53.2,40.2,53,40,53.2z"/>
	</g>
	<g>
		<path class="st2" d="M5.8,28.8C15.7,14,32.6,4.3,51.7,4.3c19.1,0,36,9.8,45.9,24.6h1.2C88.7,13.4,71.4,3.3,51.7,3.3
			c-19.7,0-37,10.2-47.1,25.6H5.8z"/>
		<path class="st2" d="M99.4,87.2c-9.6,16.4-27.4,27.5-47.7,27.5c-20.3,0-38.2-11.1-47.7-27.5H2.8c9.7,17,28,28.5,48.9,28.5
			c20.9,0,39.2-11.5,48.9-28.5H99.4z"/>
	</g>
</g>
</svg>
