<?xml version="1.0" encoding="utf-8"?>
<!-- Generator: Adobe Illustrator 24.2.2, SVG Export Plug-In . SVG Version: 6.00 Build 0)  -->
<svg version="1.1" id="Layer_1" xmlns="http://www.w3.org/2000/svg" xmlns:xlink="http://www.w3.org/1999/xlink" x="0px" y="0px"
	 width="103.4px" height="118.9px" viewBox="0 0 103.4 118.9" style="enable-background:new 0 0 103.4 118.9;" xml:space="preserve"
	>
<style type="text/css">
	.st0{fill:#F96731;}
	.st1{fill:#FFFFFF;}
	.st2{fill:#666666;}
</style>
<g>
	<circle class="st0" cx="51.7" cy="59.5" r="48"/>
	<g>
		<polygon class="st1" points="47.7,77.4 47.7,77.5 46.4,82.6 44.1,82.4 44,80.7 44.8,77.8 45.4,71 45.5,68 43.2,68.2 41.7,66.8 
			40.3,66.6 38.3,66.6 36,65 35.7,63.3 35.5,62.7 33.4,62.5 31.7,61.4 31.2,57.3 31.9,51.7 33.7,47.5 38,41.6 41.5,39.4 45.1,37.7 
			48.4,37 53.2,36.2 58.4,36.2 61.8,37.6 66.6,39.7 69.8,43 71.9,46.2 72.1,48.6 71.7,50.1 70.6,52.1 69.2,53.6 66.6,54.8 
			65.7,55.3 64.5,58.8 59.7,60.9 56.5,61.2 54.2,61.5 53.8,65.8 52.1,67.8 50.4,69 48.4,73.4 47.8,75.8 		"/>
		<g>
			<path class="st0" d="M70.2,42.7c-0.4-0.4-0.8-0.8-1.2-1.2c-0.6-0.6-1.2-1.3-1.8-1.9c-1.6-1.5-3.6-2.1-5.7-2.6
				c-0.7-0.2-1.5-0.4-2.2-0.7c-0.9-0.3-1.8-0.6-2.7-0.6c-1.6,0.1-3.2,0.2-4.8,0.2c-1.3,0-2.6,0.3-3.9,0.5c-1,0.2-1.9,0.4-2.8,0.7
				c-2.1,0.8-4.1,1.8-5.9,3.2c-1.7,1.3-3,3-4.4,4.6c-0.6,0.7-1,1.4-1.3,2.2c-0.2,0.5-0.5,1-0.8,1.5c-0.5,0.8-0.9,1.6-1.1,2.4
				c-0.3,1.6-0.6,3.1-0.7,4.7c-0.1,1.3-0.1,2.6,0,4c0.1,2.1,1.4,3.4,3.6,3.4c0.2,0,0.5,0,0.7,0c0.1,0.5,0.1,0.9,0.3,1.3
				c0.5,1.5,1.8,2.5,3.5,2.6c0.6,0,1.3,0,1.9,0c1.1,1.4,2.4,2,4.2,1.8c-0.3,2-0.2,4-0.2,5.9c0,1.4-0.1,2.9-0.6,4.2
				c-0.2,0.6-0.5,1.2-0.7,1.8c-0.2,0.5-0.3,1.1,0.1,1.6c0.5,0.6,1.2,0.8,2,0.8c0.7-0.1,1.3-0.5,1.5-1.2c0.3-0.9,0.7-1.9,0.9-2.8
				c0.3-1.1,0.4-2.3,0.6-3.5c0.4-2.2,1.1-4.3,2-6.3c0.2-0.3,0.4-0.5,0.8-0.6c1.5-0.3,2.3-1.3,2.9-2.6c0.4-0.9,0.5-1.9,0.5-2.8
				c0-0.6,0-1.1,0-1.7c0.6,0.1,1.1,0.1,1.6,0.2c2,0.2,4-0.3,5.9-0.9c1.9-0.6,3.1-1.9,3.6-3.8c0.1-0.5,0.2-1,0.3-1.4
				c1.1-0.5,2.1-1,3.2-1.6c1.5-0.8,2.7-2,3.1-3.7C73.1,47.4,72.7,44.8,70.2,42.7z M44.3,67.8c-0.9,0.1-1.6-0.2-2.2-0.9
				c0.4-0.2,0.7-0.3,1-0.5c0.3-0.2,0.6-0.4,0.8-0.7c0.2-0.3,0.2-0.6-0.1-0.8c-0.2-0.2-0.5-0.2-0.8,0c-1.5,1.3-3.2,1.5-5,1
				c-1.2-0.4-1.9-1.5-1.7-2.8c0.1,0,0.3-0.1,0.4-0.1c1.2-0.1,2.2-0.7,3.1-1.4c1.1-0.8,2.3-1.4,3.6-1.7c0.5-0.1,1-0.1,1.5-0.1
				c0.9,0,1.8,0.1,2.6,0.1c0.3,0,0.5,0.1,0.8,0.1c0.1,1,0.1,1.9-0.4,2.8c-0.3,0.6-0.5,1.3-0.4,2c0.1,0.9-0.2,1.6-0.9,2.2
				C45.9,67.3,45.1,67.7,44.3,67.8z M53.4,65.1c-0.1,0.5-0.4,1-0.6,1.5c-0.3,0.6-0.8,1-1.5,1.1c-0.9,0.2-1.4,0.7-1.7,1.5
				c-0.8,1.9-1.6,3.9-1.9,6c-0.2,1-0.2,2-0.5,3c-0.2,1.1-0.6,2.2-0.9,3.3c-0.2,0.7-1.2,0.9-1.7,0.4c-0.1-0.1-0.1-0.3-0.1-0.5
				c0-0.1,0.1-0.2,0.1-0.4c1.1-2,1.4-4.2,1.3-6.5c0-1.2,0-2.4,0-3.7c0-0.4,0.1-0.9,0.1-1.3c0.1-0.7,0.5-1.3,1.1-1.7
				c1.1-0.7,1.6-1.8,1.5-3.1c0-0.6,0.1-1.1,0.3-1.5c0.4-0.8,0.5-1.6,0.6-2.4c0-0.2,0-0.4,0-0.8c1.4,0.5,2.7,0.9,4,1.4
				c0,0.2,0.2,0.4,0.1,0.7C53.5,63.1,53.5,64.1,53.4,65.1z M71.2,50.1c-0.9-1.5-2.6-2.1-4.1-1.6c-0.2,0.1-0.4,0.1-0.5,0.2
				c-0.3,0.2-0.4,0.5-0.2,0.8c0.2,0.3,0.4,0.3,0.7,0.2c0.7-0.4,1.4-0.4,2.1,0c0.8,0.5,1.1,1.1,0.7,2c-0.2,0.4-0.5,0.7-0.8,1
				c-1,0.8-2.2,1.3-3.4,1.8c-0.6-1-1.5-1.6-2.6-2c0.2-0.3,0.5-0.6,0.6-1c0.2-0.4,0.4-0.9,0.5-1.3c0.1-0.5-0.1-0.7-0.4-0.8
				c-0.3-0.1-0.6,0.1-0.7,0.6c-0.2,0.8-0.5,1.5-1.2,1.9c-0.2,0.1-0.5,0.3-0.7,0.2c-0.6,0-1.2-0.1-1.7-0.4c-0.3-0.2-0.6-0.2-1-0.4
				c0.2-0.2,0.4-0.4,0.5-0.7c0.3-0.5,0.6-1.1,0.8-1.6c0.2-0.5,0-0.8-0.3-0.9c-0.3-0.1-0.6,0.1-0.8,0.6c-0.4,1.3-0.9,1.8-2.1,2.4
				c-0.8-0.3-1.5-0.6-2.3-0.7c-0.6-0.1-1.2-0.2-1.8-0.3c-0.3,0-0.6-0.1-0.8-0.3c-1.1-0.9-2.4-1.4-3.7-1.6c-0.7-0.1-1.4-0.2-2.1-0.4
				c-0.5-0.2-1-0.5-1.5-0.8c-0.1-0.1-0.3-0.2-0.4-0.3c-0.3-0.2-0.5-0.1-0.8,0.1c-0.2,0.2-0.2,0.5,0,0.8c0.2,0.2,0.3,0.3,0.6,0.5
				c-0.4,0.2-0.8,0.3-1.2,0.4c-0.2,0.1-0.3,0.1-0.5,0.2c-0.2,0.2-0.4,0.4-0.2,0.7c0.1,0.3,0.4,0.4,0.7,0.3c0.4-0.1,0.8-0.4,1.3-0.5
				c0.5-0.1,1.1-0.2,1.6-0.2c0.6,0,0.9,0.3,1,0.7c0.1,0.6-0.1,1-0.7,1.2c-0.3,0.1-0.6,0.2-0.9,0.3c-0.7,0.3-1.2,0.8-1.4,1.5
				c-0.1,0.4,0,0.7,0.3,0.8c0.3,0.1,0.6-0.1,0.7-0.5c0.2-0.5,0.5-0.8,1-0.9c0.1,0,0.1,0,0.2-0.1c1.6-0.6,2-1.1,2-2.8
				c0.9,0,2.1,0.5,2.9,1.1c-0.3,0.3-0.5,0.6-0.8,0.8c-0.1,0.2-0.2,0.4-0.3,0.6c-0.1,0.2,0,0.5,0.2,0.6c0.3,0.2,0.5,0.1,0.7-0.1
				c0.2-0.2,0.3-0.4,0.4-0.6c0.3-0.4,0.8-0.6,1.3-0.6c1.3,0.1,2.5,0.3,3.7,0.9c0.3,0.2,0.7,0.2,1.1,0.2c0.9,0,1.9,0.1,2.6,0.7
				c0.4,0.3,0.7,0.7,1.1,1.1c0.1,0.1,0.2,0.3,0.2,0.4c0.2,0.3,0.5,0.3,0.7,0.2c0.2-0.1,0.3-0.4,0.2-0.7c-0.1-0.2-0.2-0.4-0.3-0.6
				c0.2,0,0.3-0.1,0.5,0c0.8,0.1,1.5,0.4,2.1,1c0.7,0.6,0.7,1.3,0.5,2.1c-0.3,1.3-1,2.3-2.1,2.9c-0.4,0.2-0.7,0.4-1.1,0.5
				c-1.4,0.3-2.7,0.6-4.1,0.8c-1.5,0.2-2.9-0.2-4.3-0.7c-1.6-0.5-3.3-1.1-4.6-2.3c-0.3-0.2-0.5-0.5-0.8-0.7
				c-0.2-0.2-0.5-0.3-0.8-0.1c-0.2,0.2-0.3,0.5,0,0.8c0.2,0.2,0.4,0.4,0.7,0.7c-1.5-0.1-2.9-0.1-4.4-0.2c0.1-0.1,0.2-0.2,0.2-0.4
				c0.3-0.6,0.6-1.2,0.9-1.9c0-0.1,0.1-0.2,0.1-0.3c0.1-0.4-0.1-0.6-0.4-0.7c-0.3-0.1-0.6,0.1-0.7,0.5c-0.2,0.5-0.4,1.1-0.7,1.6
				c-0.6,1-1.4,1.8-2.4,2.4c-0.6,0.4-1.1,0.8-1.7,1.1c-1.4,0.9-2.9,1.3-4.6,1.3c-1.5,0-2.3-1.1-2.3-2.7c0-0.2,0-0.5,0.1-0.7
				c0-0.4,0.1-0.8,0-1.2c-0.3-1.9,0.3-3.7,0.6-5.7c0.3,0.6,0.4,1,0.7,1.4c0.2,0.3,0.4,0.6,0.6,0.9c0.2,0.3,0.6,0.4,0.8,0.2
				c0.3-0.2,0.3-0.5,0-0.8c-0.6-0.8-1-1.6-1.1-2.6c-0.1-0.7,0-1.4,0.4-2c0.3-0.5,0.5-1,0.7-1.5c0.2-0.7,0.6-1.3,1.1-1.9
				c1.3-1.5,2.6-3.1,4.2-4.4c0.9-0.7,1.8-1.2,2.9-1.3c1-0.2,2,0,2.8,0.7c0.5,0.4,0.8,0.4,1,0.1c0.3-0.3,0.2-0.7-0.4-1
				c-0.6-0.4-1.3-0.6-2-0.9c2.3-1.5,4.8-1.3,6.3,1.1c0.3,0.5,0.6,0.7,1.2,0.9c2,0.6,3,2,3,4c0,0.2,0,0.4,0,0.6
				c0,0.3,0.2,0.5,0.5,0.6c0.3,0,0.6-0.1,0.6-0.5c0-0.4,0-0.9,0-1.3c-0.2-2.2-1.4-3.7-3.4-4.4c-0.5-0.2-0.8-0.4-1.1-0.8
				c-0.5-0.6-1.1-1.1-1.6-1.7c0.9-0.2,1.8-0.3,2.7-0.3c1.1,0,2.3-0.1,3.4-0.1c1.2-0.1,2.3,0.1,3.4,0.6c0.8,0.3,1.7,0.5,2.5,0.7
				c2.2,0.5,4.1,1.4,5.6,3c0.5,0.6,1,1.2,1.6,1.9c-0.3,0-0.5,0-0.6,0c-0.9-0.2-1.8,0-2.7,0.5c-0.5,0.3-0.9,0.3-1.4,0
				c-1.7-1-4-0.4-5.1,1.7c-0.2,0.3-0.1,0.6,0.2,0.8c0.3,0.2,0.5,0.1,0.8-0.2c0.2-0.3,0.4-0.6,0.6-0.8c0.9-0.9,2-1,3-0.4
				c0.7,0.5,1.4,0.5,2.2,0c0.9-0.5,1.8-0.6,2.7-0.3c0.1,0,0.2,0.1,0.4,0.1c1.4,0.2,2.1,1.1,2.4,2.4C71.7,47.9,71.6,49,71.2,50.1z"/>
			<path class="st0" d="M44.3,42.3c-1.1-0.6-2.2-0.6-3.3,0c-1.6,0.9-2.8,2.2-2.6,4.2c-0.3,0.2-0.5,0.3-0.7,0.4
				c-1.1,0.7-1.6,1.6-1.4,2.9c0.2,1,0.6,1.8,1.4,2.4c0.3,0.3,0.7,0.2,0.8,0c0.2-0.2,0.1-0.5-0.1-0.8c-0.1-0.1-0.3-0.2-0.4-0.4
				c-0.9-1.2-1.1-2.5,0.6-3.3c0.7-0.3,1-0.8,0.9-1.5c-0.1-0.7,0.1-1.2,0.6-1.7c0.3-0.4,0.7-0.7,1.1-1c1-0.7,2-0.7,3,0
				c0.3,0.2,0.6,0.5,0.8,0.8c0.3,0.3,0.6,0.4,0.8,0.2c0.3-0.2,0.3-0.6,0-0.9C45.4,43.1,44.9,42.6,44.3,42.3z"/>
			<path class="st0" d="M52.1,55.9c1.1,0.7,2.3,1,3.5,1.3c1.5,0.3,3.1,0.4,4.3,1.5c0.2,0.2,0.5,0.1,0.7-0.1c0.2-0.2,0.2-0.5,0-0.7
				c-0.2-0.2-0.4-0.4-0.7-0.6c-0.8-0.6-1.7-0.8-2.7-1c-0.5-0.1-0.7-0.3-0.9-0.7c-0.3-0.5-0.6-1.1-0.6-1.7c0-0.4-0.3-0.6-0.6-0.6
				c-0.3,0-0.5,0.3-0.5,0.7c0,0.1,0,0.3,0.1,0.4c0.1,0.4,0.3,0.8,0.4,1.3c-1-0.3-1.9-0.6-2.6-1.1c-0.1-0.1-0.2-0.2-0.4-0.3
				c-0.3-0.2-0.6-0.1-0.7,0.1c-0.2,0.3-0.2,0.5,0.1,0.7C51.6,55.6,51.8,55.8,52.1,55.9z"/>
			<path class="st0" d="M62,40.5c0.5,0.1,1.1,0.2,1.6,0.3c0.5,0.1,0.8,0,0.9-0.3c0.1-0.3-0.1-0.6-0.6-0.7c-0.6-0.1-1.3-0.3-2-0.3
				c-1.1-0.1-2.1,0.2-3.1,0.7c-0.1-0.1-0.2-0.3-0.2-0.4c-0.8-1.2-1.9-1.7-3.2-2.1c-0.4-0.1-0.6,0.1-0.7,0.4
				c-0.1,0.3,0.1,0.6,0.5,0.7c0.3,0.1,0.6,0.2,0.9,0.3c1,0.4,1.7,1,2,2.1c0.1,0.5,0.6,0.6,1,0.2C59.8,40.6,60.9,40.4,62,40.5z"/>
			<path class="st0" d="M40.2,53.7c-0.3,0-0.5,0.2-0.5,0.6c0,0,0,0.1,0,0.1c0,0.4-0.1,0.6-0.6,0.7c-0.3,0-0.5,0-0.8-0.1
				c-0.5-0.1-1-0.2-1.4-0.3c-1.7,0-3.1,1.4-3.4,2.7c-0.2,0.7-0.1,1.4,0.1,2c0.2,0.4,0.4,0.5,0.8,0.4c0.3-0.1,0.4-0.4,0.3-0.8
				c-0.7-1.5,1-3.4,2.6-3.1c0.3,0.1,0.6,0.2,0.9,0.2c0.4,0,0.8,0.1,1.2,0.1c1-0.1,1.6-0.9,1.5-2C40.8,53.9,40.5,53.7,40.2,53.7z"/>
			<path class="st0" d="M49.5,42.6c-0.2-0.1-0.3-0.2-0.5-0.3c-0.3-0.1-0.6,0-0.7,0.3c-0.1,0.3,0,0.5,0.2,0.7
				c0.1,0.1,0.2,0.1,0.3,0.2c1.1,0.7,1.7,1.6,1.8,2.9c0,0.2,0,0.4,0.1,0.6c0,0.3,0.2,0.5,0.6,0.5c0.3,0,0.5-0.2,0.5-0.5
				c0-0.1,0-0.2,0-0.3C51.6,44.9,50.9,43.5,49.5,42.6z"/>
		</g>
	</g>
	<g>
		<path class="st2" d="M5.8,28.8C15.7,14,32.6,4.3,51.7,4.3c19.1,0,36,9.8,45.9,24.6h1.2C88.7,13.4,71.4,3.3,51.7,3.3
			c-19.7,0-37,10.2-47.1,25.6H5.8z"/>
		<path class="st2" d="M99.4,87.2c-9.6,16.4-27.4,27.5-47.7,27.5c-20.3,0-38.2-11.1-47.7-27.5H2.8c9.7,17,28,28.5,48.9,28.5
			c20.9,0,39.2-11.5,48.9-28.5H99.4z"/>
	</g>
</g>
</svg>
