<?xml version="1.0" encoding="utf-8"?>
<!-- Generator: Adobe Illustrator 27.2.0, SVG Export Plug-In . SVG Version: 6.00 Build 0)  -->
<svg version="1.1" id="Layer_1" xmlns="http://www.w3.org/2000/svg" xmlns:xlink="http://www.w3.org/1999/xlink" x="0px" y="0px"
	 viewBox="0 0 115.1 92.5" style="enable-background:new 0 0 115.1 92.5;" xml:space="preserve">
<style type="text/css">
	.st0{clip-path:url(#SVGID_00000043441517755293746020000016084276846696084108_);}
	.st1{fill:#FFFFFF;}
	.st2{clip-path:url(#SVGID_00000132073909675669558230000009609326201052307596_);fill:#65BC7C;}
	.st3{fill:#B299C8;}
	.st4{fill:#F7C577;}
	.st5{fill:#F4AD1B;}
	.st6{fill:#1A2752;}
	.st7{fill:#F0968C;}
	.st8{fill:#5381B9;}
	.st9{fill:#A0ACBE;}
	.st10{fill:#6D93CC;}
	.st11{fill:#60B2C5;}
	.st12{fill:#448045;}
	
		.st13{fill:#F0968C;stroke:#429AD5;stroke-width:0.75;stroke-linecap:round;stroke-miterlimit:10;stroke-dasharray:12,13,14,12,12,15;}
	.st14{fill:#997AB5;}
	.st15{fill:#F6F7F8;}
	.st16{fill:#99D7F5;stroke:#429AD5;stroke-width:0.5;stroke-miterlimit:10;}
	.st17{fill:none;stroke:#429AD5;stroke-width:0.75;stroke-linecap:round;stroke-miterlimit:10;}
	
		.st18{fill:none;stroke:#429AD5;stroke-width:0.75;stroke-linecap:round;stroke-miterlimit:10;stroke-dasharray:7.4309,6.3693,6.3693,7.9616;}
	
		.st19{fill:none;stroke:#429AD5;stroke-width:0.75;stroke-linecap:round;stroke-miterlimit:10;stroke-dasharray:6.3693,6.9001,7.4309,6.3693,6.3693,7.9616;}
	.st20{fill:none;stroke:#FFFFFF;stroke-miterlimit:10;}
	.st21{fill:#429AD5;stroke:#76CAF1;stroke-miterlimit:10;}
	.st22{fill:#97D9F7;stroke:#429AD5;stroke-miterlimit:10;}
	.st23{fill:#F6F7F7;stroke:#BABCBE;stroke-width:0.5;stroke-miterlimit:10;}
	.st24{fill:none;stroke:#429AD5;stroke-miterlimit:10;}
	.st25{fill:none;stroke:#B3E2F4;stroke-miterlimit:10;}
	.st26{fill-rule:evenodd;clip-rule:evenodd;fill:none;stroke:#0075B1;stroke-miterlimit:10;}
	.st27{fill:#0075B1;}
	.st28{fill:none;stroke:#0075B1;stroke-miterlimit:10;}
	.st29{opacity:0.61;fill:#F16653;stroke:#FFFFFF;stroke-width:3;stroke-miterlimit:10;}
</style>
<g>
	<circle class="st26" cx="55.3" cy="48.9" r="38.9"/>
	<g>
		<g>
			<path class="st27" d="M69.8,34.6c-1.5,0-2.8,1.3-2.8,2.8c0,1.5,1.3,2.8,2.8,2.8c1.5,0,2.8-1.3,2.8-2.8
				C72.6,35.8,71.3,34.6,69.8,34.6z"/>
			<path class="st27" d="M57.3,38.2c-6.5,0-11.8,5.3-11.8,11.8c0,6.5,5.3,11.8,11.8,11.8c6.5,0,11.8-5.3,11.8-11.8
				C69.1,43.5,63.8,38.2,57.3,38.2z M57.3,57.5c-4.2,0-7.5-3.4-7.5-7.5s3.4-7.5,7.5-7.5c4.2,0,7.5,3.4,7.5,7.5S61.4,57.5,57.3,57.5z
				"/>
			<path class="st27" d="M66.6,73.9H47.5c-7.9,0-14.4-6.4-14.4-14.4V40.4c0-7.9,6.4-14.4,14.4-14.4h19.1C74.6,26,81,32.5,81,40.4
				v19.1C81,67.5,74.6,73.9,66.6,73.9z M47.5,30.6c-5.4,0-9.9,4.4-9.9,9.9v19.1c0,5.4,4.4,9.9,9.9,9.9h19.1c5.4,0,9.9-4.4,9.9-9.9
				V40.4c0-5.4-4.4-9.9-9.9-9.9H47.5z"/>
		</g>
	</g>
</g>
</svg>
