<?xml version="1.0" encoding="utf-8"?>
<!-- Generator: Adobe Illustrator 27.2.0, SVG Export Plug-In . SVG Version: 6.00 Build 0)  -->
<svg version="1.1" id="Layer_1" xmlns="http://www.w3.org/2000/svg" xmlns:xlink="http://www.w3.org/1999/xlink" x="0px" y="0px"
	 viewBox="0 0 115.1 92.5" style="enable-background:new 0 0 115.1 92.5;" xml:space="preserve">
<style type="text/css">
	.st0{clip-path:url(#SVGID_00000163063962457465020620000002124350041019501441_);}
	.st1{fill:#FFFFFF;}
	.st2{clip-path:url(#SVGID_00000010278179968187114300000011180018922311904162_);fill:#65BC7C;}
	.st3{fill:#B299C8;}
	.st4{fill:#F7C577;}
	.st5{fill:#F4AD1B;}
	.st6{fill:#1A2752;}
	.st7{fill:#F0968C;}
	.st8{fill:#5381B9;}
	.st9{fill:#A0ACBE;}
	.st10{fill:#6D93CC;}
	.st11{fill:#60B2C5;}
	.st12{fill:#448045;}
	
		.st13{fill:#F0968C;stroke:#429AD5;stroke-width:0.75;stroke-linecap:round;stroke-miterlimit:10;stroke-dasharray:12,13,14,12,12,15;}
	.st14{fill:#997AB5;}
	.st15{fill:#F6F7F8;}
	.st16{fill:#99D7F5;stroke:#429AD5;stroke-width:0.5;stroke-miterlimit:10;}
	.st17{fill:none;stroke:#429AD5;stroke-width:0.75;stroke-linecap:round;stroke-miterlimit:10;}
	
		.st18{fill:none;stroke:#429AD5;stroke-width:0.75;stroke-linecap:round;stroke-miterlimit:10;stroke-dasharray:7.4309,6.3693,6.3693,7.9616;}
	
		.st19{fill:none;stroke:#429AD5;stroke-width:0.75;stroke-linecap:round;stroke-miterlimit:10;stroke-dasharray:6.3693,6.9001,7.4309,6.3693,6.3693,7.9616;}
	.st20{fill:none;stroke:#FFFFFF;stroke-miterlimit:10;}
	.st21{fill:#429AD5;stroke:#76CAF1;stroke-miterlimit:10;}
	.st22{fill:#97D9F7;stroke:#429AD5;stroke-miterlimit:10;}
	.st23{fill:#F6F7F7;stroke:#BABCBE;stroke-width:0.5;stroke-miterlimit:10;}
	.st24{fill:none;stroke:#429AD5;stroke-miterlimit:10;}
	.st25{fill:none;stroke:#B3E2F4;stroke-miterlimit:10;}
	.st26{fill-rule:evenodd;clip-rule:evenodd;fill:none;stroke:#0075B1;stroke-miterlimit:10;}
	.st27{fill:#0075B1;}
	.st28{fill:none;stroke:#0075B1;stroke-miterlimit:10;}
	.st29{opacity:0.61;fill:#F16653;stroke:#FFFFFF;stroke-width:3;stroke-miterlimit:10;}
</style>
<g>
	<circle class="st26" cx="56.9" cy="48.9" r="36.1"/>
	<g>
		<g>
			<path class="st27" d="M49.6,69.7c17.6,0,27.2-14.6,27.2-27.2c0-0.4,0-0.8,0-1.2c1.9-1.4,3.5-3,4.8-5c-1.7,0.8-3.6,1.3-5.5,1.5
				c2-1.2,3.5-3.1,4.2-5.3c-1.9,1.1-3.9,1.9-6.1,2.3c-1.7-1.9-4.2-3-7-3c-5.3,0-9.6,4.3-9.6,9.6c0,0.8,0.1,1.5,0.2,2.2
				c-8-0.4-15-4.2-19.7-10c-0.8,1.4-1.3,3.1-1.3,4.8c0,3.3,1.7,6.3,4.3,8c-1.6,0-3-0.5-4.3-1.2c0,0,0,0.1,0,0.1
				c0,4.6,3.3,8.5,7.7,9.4c-0.8,0.2-1.7,0.3-2.5,0.3c-0.6,0-1.2-0.1-1.8-0.2c1.2,3.8,4.8,6.6,8.9,6.7c-3.3,2.6-7.4,4.1-11.9,4.1
				c-0.8,0-1.5,0-2.3-0.1C39.1,68.1,44.2,69.7,49.6,69.7"/>
		</g>
	</g>
</g>
</svg>
