<?xml version="1.0" encoding="utf-8"?>
<!-- Generator: Adobe Illustrator 27.2.0, SVG Export Plug-In . SVG Version: 6.00 Build 0)  -->
<svg version="1.1" id="Layer_1" xmlns="http://www.w3.org/2000/svg" xmlns:xlink="http://www.w3.org/1999/xlink" x="0px" y="0px"
	 viewBox="0 0 115.1 92.5" style="enable-background:new 0 0 115.1 92.5;" xml:space="preserve">
<style type="text/css">
	.st0{clip-path:url(#SVGID_00000133491685722901534440000006609055071451789970_);}
	.st1{fill:#FFFFFF;}
	.st2{clip-path:url(#SVGID_00000154390977871360322610000001690351855857621642_);fill:#65BC7C;}
	.st3{fill:#B299C8;}
	.st4{fill:#F7C577;}
	.st5{fill:#F4AD1B;}
	.st6{fill:#1A2752;}
	.st7{fill:#F0968C;}
	.st8{fill:#5381B9;}
	.st9{fill:#A0ACBE;}
	.st10{fill:#6D93CC;}
	.st11{fill:#60B2C5;}
	.st12{fill:#448045;}
	
		.st13{fill:#F0968C;stroke:#429AD5;stroke-width:0.75;stroke-linecap:round;stroke-miterlimit:10;stroke-dasharray:12,13,14,12,12,15;}
	.st14{fill:#997AB5;}
	.st15{fill:#F6F7F8;}
	.st16{fill:#99D7F5;stroke:#429AD5;stroke-width:0.5;stroke-miterlimit:10;}
	.st17{fill:none;stroke:#429AD5;stroke-width:0.75;stroke-linecap:round;stroke-miterlimit:10;}
	
		.st18{fill:none;stroke:#429AD5;stroke-width:0.75;stroke-linecap:round;stroke-miterlimit:10;stroke-dasharray:7.4309,6.3693,6.3693,7.9616;}
	
		.st19{fill:none;stroke:#429AD5;stroke-width:0.75;stroke-linecap:round;stroke-miterlimit:10;stroke-dasharray:6.3693,6.9001,7.4309,6.3693,6.3693,7.9616;}
	.st20{fill:none;stroke:#FFFFFF;stroke-miterlimit:10;}
	.st21{fill:#429AD5;stroke:#76CAF1;stroke-miterlimit:10;}
	.st22{fill:#97D9F7;stroke:#429AD5;stroke-miterlimit:10;}
	.st23{fill:#F6F7F7;stroke:#BABCBE;stroke-width:0.5;stroke-miterlimit:10;}
	.st24{fill:none;stroke:#429AD5;stroke-miterlimit:10;}
	.st25{fill:none;stroke:#B3E2F4;stroke-miterlimit:10;}
	.st26{fill-rule:evenodd;clip-rule:evenodd;fill:none;stroke:#0075B1;stroke-miterlimit:10;}
	.st27{fill:#0075B1;}
	.st28{fill:none;stroke:#0075B1;stroke-miterlimit:10;}
	.st29{opacity:0.61;fill:#F16653;stroke:#FFFFFF;stroke-width:3;stroke-miterlimit:10;}
</style>
<g>
	<defs>
		<rect id="SVGID_1_" x="43.5" y="-266.5" width="545" height="127.5"/>
	</defs>
	<clipPath id="SVGID_00000090976026765425949630000012022128272377872311_">
		<use xlink:href="#SVGID_1_"  style="overflow:visible;"/>
	</clipPath>
	<g style="clip-path:url(#SVGID_00000090976026765425949630000012022128272377872311_);">
		<defs>
			<rect id="SVGID_00000007430028660386323980000000361821242513936827_" x="43.5" y="-266.5" width="545" height="127.5"/>
		</defs>
		<clipPath id="SVGID_00000015356029909071171490000016467293592634717623_">
			<use xlink:href="#SVGID_00000007430028660386323980000000361821242513936827_"  style="overflow:visible;"/>
		</clipPath>
		<g style="clip-path:url(#SVGID_00000015356029909071171490000016467293592634717623_);">
			
				<image style="overflow:visible;" width="512" height="119" xlink:href="A4876A37.png"  transform="matrix(1.0645 0 0 1.0712 43.4676 -266.5221)">
			</image>
		</g>
	</g>
</g>
<image style="overflow:visible;" width="213" height="142" xlink:href="../02-02-2023/aissel.png"  transform="matrix(1 0 0 1 -358.6383 -181)">
</image>
<g>
	<g>
		<g>
			<path class="st1" d="M-853.7-881.2h-411.1c-8.9,0-16.1-7.2-16.1-16.1V-1096c0-8.9,7.2-16.1,16.1-16.1h411.1
				c8.9,0,16.1,7.2,16.1,16.1v198.6C-837.7-888.4-844.9-881.2-853.7-881.2z"/>
			<g>
				<defs>
					<rect id="SVGID_00000036942390595131399960000012713233480671268994_" x="-1267.6" y="-1104.6" width="416.7" height="216"/>
				</defs>
				<clipPath id="SVGID_00000178197637394708251470000017496091247738789016_">
					<use xlink:href="#SVGID_00000036942390595131399960000012713233480671268994_"  style="overflow:visible;"/>
				</clipPath>
				<g style="clip-path:url(#SVGID_00000178197637394708251470000017496091247738789016_);">
					
						<image style="overflow:visible;" width="530" height="312" xlink:href="A4876A3B.jpg"  transform="matrix(0.7998 0 0 0.7998 -1270.7238 -1124.9957)">
					</image>
				</g>
			</g>
		</g>
		<path class="st1" d="M-847.8-1088.2h-416.7c-5.6,0-10.2-4.6-10.2-10.2l0,0c0-5.6,4.6-10.2,10.2-10.2h416.7
			c5.6,0,10.2,4.6,10.2,10.2l0,0C-837.6-1092.8-842.2-1088.2-847.8-1088.2z"/>
	</g>
	<text transform="matrix(1.0237 0 0 1 -1186.782 -1094.3595)" style="fill:#221F1F; font-family:'Arial-BoldMT'; font-size:16px;">Cardiology Patient Demographics</text>
</g>
<g>
	<defs>
		<path id="SVGID_00000163778390470337177820000002060465321472656021_" d="M-941.1-538h-792.5c-4.4,0-8-3.6-8-8v-303.5
			c0-4.4,3.6-8,8-8h792.5c4.4,0,8,3.6,8,8V-546C-933.1-541.6-936.7-538-941.1-538z"/>
	</defs>
	<clipPath id="SVGID_00000181083733927795374700000013206707468023346103_">
		<use xlink:href="#SVGID_00000163778390470337177820000002060465321472656021_"  style="overflow:visible;"/>
	</clipPath>
	<g style="clip-path:url(#SVGID_00000181083733927795374700000013206707468023346103_);">
		
			<image style="overflow:visible;" width="374" height="281" xlink:href="../../../../../Downloads/image (7).png"  transform="matrix(1.2593 0 0 1.2593 -1744.6024 -868.0934)">
		</image>
	</g>
	<path style="clip-path:url(#SVGID_00000181083733927795374700000013206707468023346103_);fill:#65BC7C;" d="M-1707.9-645.1
		l72.3-0.4c0,0,2.4-32.3,37.8-28.6l25.5-58.6l-46.6,0.7l0.1-14C-1618.9-746-1702-735.8-1707.9-645.1z"/>
	
		<rect x="-1611.2" y="-752.3" style="clip-path:url(#SVGID_00000181083733927795374700000013206707468023346103_);fill:#65BC7C;" width="10.1" height="10"/>
</g>
<g>
	<g>
		<g>
			
				<image style="overflow:visible;opacity:0.35;" width="1929" height="1558" xlink:href="A4876A3F.png"  transform="matrix(0.24 0 0 0.24 -1193.5583 -908.9677)">
			</image>
			<g>
				<path class="st1" d="M-758.4-557.1h-421.2c-3.2,0-5.8-2.6-5.8-5.8V-895c0-3.2,2.6-5.8,5.8-5.8h421.2c3.2,0,5.8,2.6,5.8,5.8
					v332.1C-752.7-559.7-755.2-557.1-758.4-557.1z"/>
			</g>
		</g>
		<g>
			<defs>
				<path id="SVGID_00000054267796412405904240000010985615713678835604_" d="M-767.3-560.8h-403.6c-3.4,0-6.2-2.8-6.2-6.2v-302.2
					c0-3.4,2.8-6.2,6.2-6.2h403.6c3.4,0,6.2,2.8,6.2,6.2V-567C-761.1-563.6-763.9-560.8-767.3-560.8z"/>
			</defs>
			<clipPath id="SVGID_00000103243479898250589600000002978488998699151744_">
				<use xlink:href="#SVGID_00000054267796412405904240000010985615713678835604_"  style="overflow:visible;"/>
			</clipPath>
			<g style="clip-path:url(#SVGID_00000103243479898250589600000002978488998699151744_);">
				
					<image style="overflow:visible;" width="809" height="321" xlink:href="A4876A3D.png"  transform="matrix(1.0332 0 0 1.0332 -1182.1768 -882.1311)">
				</image>
			</g>
		</g>
		<text transform="matrix(1 0 0 1 -1023.3008 -882.1998)" style="fill:#221F1F; font-family:'Arial-BoldMT'; font-size:14.3191px;">Events by Timeline</text>
	</g>
	<rect x="-915.5" y="-640" class="st3" width="25.3" height="35.1"/>
	<rect x="-868.5" y="-675.8" class="st3" width="25.3" height="70.9"/>
	<rect x="-1027.4" y="-696.5" class="st4" width="25.4" height="91.7"/>
	<rect x="-1076.2" y="-676.3" class="st4" width="25.4" height="71.4"/>
	<rect x="-1126.1" y="-670.8" class="st4" width="25.3" height="65.4"/>
</g>
<g>
	<g>
		
			<image style="overflow:visible;opacity:0.28;" width="1627" height="2129" xlink:href="A4876A3B.png"  transform="matrix(0.24 0 0 0.24 -1504.7183 -1016.1277)">
		</image>
		<g>
			<path class="st1" d="M-1165.4-548.3h-302.2c-4.4,0-8-3.6-8-8V-979c0-4.4,3.6-8,8-8h302.2c4.4,0,8,3.6,8,8v422.7
				C-1157.3-551.9-1160.9-548.3-1165.4-548.3z"/>
		</g>
	</g>
	<g>
		<text transform="matrix(1 0 0 1 -1406.3118 -649.6153)" style="font-family:'Arial-BoldMT'; font-size:12px;">Organization</text>
		<text transform="matrix(1 0 0 1 -1406.3118 -623.8995)" style="font-family:'Arial-BoldMT'; font-size:12px;">Socities</text>
		<rect x="-1266.3" y="-659.9" style="fill:none;" width="66.1" height="15.9"/>
		<text transform="matrix(1 0 0 1 -1266.3086 -649.6153)" style="font-family:'Arial-BoldMT'; font-size:12px;">Affilication </text>
		<text transform="matrix(1 0 0 1 -1266.3091 -623.8995)" style="font-family:'Arial-BoldMT'; font-size:12px;">Event</text>
		<rect x="-1432.7" y="-663" class="st5" width="17.3" height="17.7"/>
		<rect x="-1432.7" y="-640.5" class="st6" width="17.3" height="17.7"/>
		<rect x="-1292.8" y="-663" class="st7" width="17.3" height="17.7"/>
		<rect x="-1292.8" y="-640.5" class="st8" width="17.3" height="17.7"/>
		<text transform="matrix(1 0 0 1 -1406.3118 -595.4854)" style="font-family:'Arial-BoldMT'; font-size:12px;">Educations</text>
		<text transform="matrix(1 0 0 1 -1406.3118 -569.9535)" style="font-family:'Arial-BoldMT'; font-size:12px;">Trails</text>
		<text transform="matrix(1 0 0 1 -1266.3091 -595.4854)" style="font-family:'Arial-BoldMT'; font-size:12px;">Publication</text>
		<text transform="matrix(1 0 0 1 -1266.3091 -570.4641)" style="font-family:'Arial-BoldMT'; font-size:12px;">Reload</text>
		<rect x="-1432.7" y="-612.1" class="st9" width="17.3" height="17.7"/>
		<rect x="-1292.8" y="-612.1" class="st10" width="17.3" height="17.7"/>
		<rect x="-1432.7" y="-583.8" class="st11" width="17.3" height="17.7"/>
		<rect x="-1292.5" y="-583.8" class="st12" width="17.3" height="17.7"/>
		<rect x="-1292.8" y="-583.8" style="fill:none;" width="17.3" height="17.7"/>
		<text transform="matrix(1 0 0 1 -1292.8118 -578.9742)" style="fill:#37B34A; font-family:'ArialMT'; font-size:6.6741px;"> </text>
	</g>
	<text transform="matrix(1 0 0 1 -1371.8947 -934.6844)" style="fill:#221F1F; font-family:'Arial-BoldMT'; font-size:16px;">HCP Influence Map</text>
	<g>
		<line class="st13" x1="-1311.7" y1="-803.4" x2="-1258.6" y2="-874.1"/>
		<line class="st13" x1="-1314" y1="-801.4" x2="-1237.2" y2="-851.2"/>
		<line class="st13" x1="-1311.5" y1="-801" x2="-1225" y2="-823.4"/>
		<line class="st13" x1="-1311.2" y1="-799.8" x2="-1222.7" y2="-793.5"/>
		<line class="st13" x1="-1311.7" y1="-800.4" x2="-1231.2" y2="-761.9"/>
		<line class="st13" x1="-1311.4" y1="-798.4" x2="-1248" y2="-736.8"/>
		<line class="st13" x1="-1311.6" y1="-797.9" x2="-1273.6" y2="-718.7"/>
		<line class="st13" x1="-1313.5" y1="-797.7" x2="-1302.9" y2="-709.9"/>
		<line class="st13" x1="-1313.6" y1="-800.2" x2="-1333.2" y2="-712.1"/>
		<line class="st13" x1="-1311.3" y1="-798.9" x2="-1359.8" y2="-722.5"/>
		<line class="st13" x1="-1307.7" y1="-800.4" x2="-1382" y2="-740.8"/>
		<line class="st13" x1="-1314.4" y1="-795.8" x2="-1398" y2="-767"/>
		<line class="st13" x1="-1316.4" y1="-796.6" x2="-1404.9" y2="-798"/>
		<line class="st13" x1="-1314.9" y1="-797.1" x2="-1401.2" y2="-827.2"/>
		<line class="st13" x1="-1314.7" y1="-798.4" x2="-1392.7" y2="-846.7"/>
		<text transform="matrix(1 0 0 1 -1279.2524 -887.1124)" class="st6" style="font-family:'ArialMT'; font-size:6.6741px;">Andre Natalay</text>
		<text transform="matrix(1 0 0 1 -1250.2229 -873.7986)" class="st9" style="font-family:'ArialMT'; font-size:6.6741px;">Frankey martinly </text>
		<text transform="matrix(1 0 0 1 -1229.1096 -849.3308)" style="fill:#4380C1; font-family:'ArialMT'; font-size:6.6741px;">Roy Harhamonivic </text>
		<text transform="matrix(1 0 0 1 -1218.2053 -821.1365)" class="st10" style="font-family:'ArialMT'; font-size:6.6741px;">Sunil M Kakar</text>
		<g>
			<text transform="matrix(1 0 0 1 -1217.2148 -789.6849)" class="st5" style="font-family:'ArialMT'; font-size:6.6741px;">M Shing</text>
		</g>
		<rect x="-1343.9" y="-782.5" class="st1" width="58.7" height="8.7"/>
		<text transform="matrix(1 0 0 1 -1337.981 -776.4934)" style="font-family:'ArialMT'; font-size:6.6741px;">Dr. Brennan Paul</text>
		<g>
			<text transform="matrix(1 0 0 1 -1226.8711 -757.0571)" class="st6" style="font-family:'ArialMT'; font-size:6.6741px;">William E Lawan</text>
		</g>
		<g>
			<text transform="matrix(1 0 0 1 -1242.8708 -728.9816)" class="st9" style="font-family:'ArialMT'; font-size:6.6741px;">Dr. Brennan Paul</text>
		</g>
		<g>
			<text transform="matrix(1 0 0 1 -1269.3938 -710.2701)" style="fill:#4380C1; font-family:'ArialMT'; font-size:6.6741px;">Nickolas shamang </text>
		</g>
		<g>
			<text transform="matrix(1 0 0 1 -1303.1111 -697.2726)" class="st10" style="font-family:'ArialMT'; font-size:6.6741px;">Wei song Michale</text>
		</g>
		<g>
			<text transform="matrix(1 0 0 1 -1378.9875 -701.4912)" class="st5" style="font-family:'ArialMT'; font-size:6.6741px;">Sunil M Kharer</text>
		</g>
		<g>
			<text transform="matrix(1 0 0 1 -1409.7495 -715.1905)" class="st6" style="font-family:'ArialMT'; font-size:6.6741px;">Pok waskaney</text>
		</g>
		<g>
			<text transform="matrix(1 0 0 1 -1425.4006 -734.3499)" style="fill:#4380C1; font-family:'ArialMT'; font-size:6.6741px;">Ivan T calley</text>
		</g>
		<g>
			<text transform="matrix(1 0 0 1 -1460.189 -762.3036)" class="st10" style="font-family:'ArialMT'; font-size:6.6741px;">Randolpha Wickey</text>
		</g>
		<g>
			<text transform="matrix(1 0 0 1 -1456.0166 -794.126)" class="st5" style="font-family:'ArialMT'; font-size:6.6741px;">Jason Willison</text>
		</g>
		<g>
			<text transform="matrix(1 0 0 1 -1459.0242 -824.0662)" class="st6" style="font-family:'ArialMT'; font-size:6.6741px;">Mechael Snhetta</text>
		</g>
		<g>
			<text transform="matrix(1 0 0 1 -1450.2229 -845.9706)" style="fill:#4380C1; font-family:'ArialMT'; font-size:6.6741px;">Surkaya M Bhat</text>
		</g>
		<g>
			<text transform="matrix(1 0 0 1 -1422.3552 -867.9401)" class="st10" style="font-family:'ArialMT'; font-size:6.6741px;">Stephen littile </text>
		</g>
		
			<text transform="matrix(1 3.270000e-03 -3.270000e-03 1 -1405.6239 -888.537)" style="font-family:'ArialMT'; font-size:6.6741px;">Dr. Brennan Paul</text>
		<path class="st14" d="M-1240.1-703c0.2,0,0.3,0.1,0.3,0.3c0,0.2-0.1,0.3-0.3,0.3c-0.2,0-0.3-0.1-0.3-0.3
			C-1240.4-702.8-1240.3-703-1240.1-703z"/>
		<line class="st13" x1="-1318" y1="-801.7" x2="-1375.8" y2="-868.6"/>
		<line class="st13" x1="-1314" y1="-803.7" x2="-1317.1" y2="-892.1"/>
		<line class="st13" x1="-1316.8" y1="-804.5" x2="-1349.5" y2="-886.7"/>
		<circle class="st15" cx="-1314.3" cy="-798.6" r="13.7"/>
		<text transform="matrix(1 0 0 1 -1319.0115 -897.7344)" class="st5" style="font-family:'ArialMT'; font-size:6.6741px;">Amit khaki</text>
		
			<image style="overflow:visible;" width="512" height="512" xlink:href="../../../../../Downloads/doctor.png"  transform="matrix(7.646277e-02 0 0 7.646277e-02 -1333.6914 -826.9362)">
		</image>
		<circle class="st16" cx="-1317.2" cy="-891.8" r="1.7"/>
		<circle class="st16" cx="-1286.8" cy="-887.7" r="1.7"/>
		<circle class="st16" cx="-1258.3" cy="-874.3" r="1.7"/>
		<circle class="st16" cx="-1237.1" cy="-851.3" r="1.7"/>
		<circle class="st16" cx="-1225.1" cy="-823.7" r="1.7"/>
		<circle class="st16" cx="-1223.1" cy="-793" r="1.7"/>
		<circle class="st16" cx="-1231.2" cy="-761.9" r="1.7"/>
		<circle class="st16" cx="-1247.6" cy="-736.5" r="1.7"/>
		<circle class="st16" cx="-1273.4" cy="-718.8" r="1.7"/>
		<circle class="st16" cx="-1302.8" cy="-709.5" r="1.7"/>
		<circle class="st16" cx="-1333.1" cy="-711.5" r="1.7"/>
		<circle class="st16" cx="-1359.9" cy="-722.5" r="1.7"/>
		<circle class="st16" cx="-1381.9" cy="-740.4" r="1.7"/>
		<circle class="st16" cx="-1397.8" cy="-767.2" r="1.7"/>
		<circle class="st16" cx="-1405.7" cy="-798.2" r="1.7"/>
		<circle class="st16" cx="-1401.7" cy="-827.3" r="1.7"/>
		<circle class="st16" cx="-1393.4" cy="-847.3" r="1.7"/>
		<circle class="st16" cx="-1376.1" cy="-869" r="1.7"/>
		<circle class="st16" cx="-1349.9" cy="-886.8" r="1.7"/>
		<g>
			<line class="st7" x1="-1312.6" y1="-802.6" x2="-1287.1" y2="-887.3"/>
			<g>
				<line class="st17" x1="-1312.6" y1="-802.6" x2="-1310.8" y2="-808.3"/>
				<line class="st18" x1="-1308.9" y1="-814.9" x2="-1301.9" y2="-838.1"/>
				<line class="st19" x1="-1300.7" y1="-841.9" x2="-1290" y2="-877.7"/>
				<line class="st17" x1="-1288.8" y1="-881.5" x2="-1287.1" y2="-887.3"/>
			</g>
		</g>
	</g>
</g>
<g>
	<g>
		
			<image style="overflow:visible;opacity:0.5;" width="4947" height="1585" xlink:href="A4876A34.png"  transform="matrix(0.24 0 0 0.24 -1895.7983 -591.2076)">
		</image>
		<g>
			<path class="st1" d="M-744.6-233.4h-1129.1c-7.4,0-13.4-6-13.4-13.4v-322.4c0-7.4,6-13.4,13.4-13.4h1129.1
				c7.4,0,13.4,6,13.4,13.4v322.4C-731.1-239.4-737.2-233.4-744.6-233.4z"/>
			<path class="st20" d="M-744.6-233.4h-1129.1c-7.4,0-13.4-6-13.4-13.4v-322.4c0-7.4,6-13.4,13.4-13.4h1129.1
				c7.4,0,13.4,6,13.4,13.4v322.4C-731.1-239.4-737.2-233.4-744.6-233.4z"/>
		</g>
	</g>
	<circle class="st21" cx="-1838.6" cy="-439.5" r="15"/>
	<circle class="st22" cx="-1838.6" cy="-383.1" r="15"/>
	<circle class="st21" cx="-1838.6" cy="-327.8" r="15"/>
	<circle class="st22" cx="-1838.6" cy="-272" r="15"/>
	<text transform="matrix(1 0 0 1 -1807.5642 -437.5618)" style="font-family:'ArialMT'; font-size:14.4099px;">Dr. Brennan Paul</text>
	<text transform="matrix(1 0 0 1 -1807.5642 -378.0696)" style="font-family:'ArialMT'; font-size:14.4099px;">Dr. Arian Hulk</text>
	<text transform="matrix(1 0 0 1 -1806.8293 -324.1116)" style="font-family:'ArialMT'; font-size:14.4099px;">Dr. Allan Jaffe</text>
	<text transform="matrix(1 0 0 1 -1806.8293 -262.8157)" style="font-family:'ArialMT'; font-size:14.4099px;">Dr. Pavlides Rydrn </text>
	<path class="st23" d="M-1680.4-477h-115c-6.6,0-11.9-5.3-11.9-11.9l0,0c0-6.6,5.3-11.9,11.9-11.9h115c6.6,0,11.9,5.3,11.9,11.9l0,0
		C-1668.5-482.3-1673.8-477-1680.4-477z"/>
	<path class="st21" d="M-1522.7-506.5h-108.3c-6.6,0-11.9-5.3-11.9-11.9v-9.5c0-6.6,5.3-11.9,11.9-11.9h108.3
		c6.6,0,11.9,5.3,11.9,11.9v9.5C-1510.9-511.8-1516.2-506.5-1522.7-506.5z"/>
	<path class="st21" d="M-1373.5-506.5h-108.3c-6.6,0-11.9-5.3-11.9-11.9v-9.5c0-6.6,5.3-11.9,11.9-11.9h108.3
		c6.6,0,11.9,5.3,11.9,11.9v9.5C-1361.6-511.8-1366.9-506.5-1373.5-506.5z"/>
	<path class="st21" d="M-1224.3-506.5h-108.3c-6.6,0-11.9-5.3-11.9-11.9v-9.5c0-6.6,5.3-11.9,11.9-11.9h108.3
		c6.6,0,11.9,5.3,11.9,11.9v9.5C-1212.4-511.8-1217.7-506.5-1224.3-506.5z"/>
	<path class="st21" d="M-1075-506.5h-108.3c-6.6,0-11.9-5.3-11.9-11.9v-9.5c0-6.6,5.3-11.9,11.9-11.9h108.3
		c6.6,0,11.9,5.3,11.9,11.9v9.5C-1063.2-511.8-1068.5-506.5-1075-506.5z"/>
	<path class="st21" d="M-925.8-506.5h-108.3c-6.6,0-11.9-5.3-11.9-11.9v-9.5c0-6.6,5.3-11.9,11.9-11.9h108.3
		c6.6,0,11.9,5.3,11.9,11.9v9.5C-913.9-511.8-919.2-506.5-925.8-506.5z"/>
	<path class="st21" d="M-776.6-506.5h-108.3c-6.6,0-11.9-5.3-11.9-11.9v-9.5c0-6.6,5.3-11.9,11.9-11.9h108.3
		c6.6,0,11.9,5.3,11.9,11.9v9.5C-764.7-511.8-770-506.5-776.6-506.5z"/>
	<path class="st24" d="M-1522.7-426h-108.3c-6.6,0-11.9-5.3-11.9-11.9v-9.5c0-6.6,5.3-11.9,11.9-11.9h108.3
		c6.6,0,11.9,5.3,11.9,11.9v9.5C-1510.9-431.3-1516.2-426-1522.7-426z"/>
	<path class="st24" d="M-1373.5-426h-108.3c-6.6,0-11.9-5.3-11.9-11.9v-9.5c0-6.6,5.3-11.9,11.9-11.9h108.3
		c6.6,0,11.9,5.3,11.9,11.9v9.5C-1361.6-431.3-1366.9-426-1373.5-426z"/>
	<path class="st24" d="M-1224.3-426h-108.3c-6.6,0-11.9-5.3-11.9-11.9v-9.5c0-6.6,5.3-11.9,11.9-11.9h108.3
		c6.6,0,11.9,5.3,11.9,11.9v9.5C-1212.4-431.3-1217.7-426-1224.3-426z"/>
	<path class="st24" d="M-1075-426h-108.3c-6.6,0-11.9-5.3-11.9-11.9v-9.5c0-6.6,5.3-11.9,11.9-11.9h108.3c6.6,0,11.9,5.3,11.9,11.9
		v9.5C-1063.2-431.3-1068.5-426-1075-426z"/>
	<path class="st24" d="M-925.8-426h-108.3c-6.6,0-11.9-5.3-11.9-11.9v-9.5c0-6.6,5.3-11.9,11.9-11.9h108.3c6.6,0,11.9,5.3,11.9,11.9
		v9.5C-913.9-431.3-919.2-426-925.8-426z"/>
	<path class="st24" d="M-776.6-426h-108.3c-6.6,0-11.9-5.3-11.9-11.9v-9.5c0-6.6,5.3-11.9,11.9-11.9h108.3c6.6,0,11.9,5.3,11.9,11.9
		v9.5C-764.7-431.3-770-426-776.6-426z"/>
	<path class="st25" d="M-1522.7-366.5h-108.3c-6.6,0-11.9-5.3-11.9-11.9v-9.5c0-6.6,5.3-11.9,11.9-11.9h108.3
		c6.6,0,11.9,5.3,11.9,11.9v9.5C-1510.9-371.8-1516.2-366.5-1522.7-366.5z"/>
	<path class="st25" d="M-1373.5-366.5h-108.3c-6.6,0-11.9-5.3-11.9-11.9v-9.5c0-6.6,5.3-11.9,11.9-11.9h108.3
		c6.6,0,11.9,5.3,11.9,11.9v9.5C-1361.6-371.8-1366.9-366.5-1373.5-366.5z"/>
	<path class="st25" d="M-1224.3-366.5h-108.3c-6.6,0-11.9-5.3-11.9-11.9v-9.5c0-6.6,5.3-11.9,11.9-11.9h108.3
		c6.6,0,11.9,5.3,11.9,11.9v9.5C-1212.4-371.8-1217.7-366.5-1224.3-366.5z"/>
	<path class="st25" d="M-1075-366.5h-108.3c-6.6,0-11.9-5.3-11.9-11.9v-9.5c0-6.6,5.3-11.9,11.9-11.9h108.3
		c6.6,0,11.9,5.3,11.9,11.9v9.5C-1063.2-371.8-1068.5-366.5-1075-366.5z"/>
	<path class="st25" d="M-925.8-366.5h-108.3c-6.6,0-11.9-5.3-11.9-11.9v-9.5c0-6.6,5.3-11.9,11.9-11.9h108.3
		c6.6,0,11.9,5.3,11.9,11.9v9.5C-913.9-371.8-919.2-366.5-925.8-366.5z"/>
	<path class="st25" d="M-776.6-366.5h-108.3c-6.6,0-11.9-5.3-11.9-11.9v-9.5c0-6.6,5.3-11.9,11.9-11.9h108.3
		c6.6,0,11.9,5.3,11.9,11.9v9.5C-764.7-371.8-770-366.5-776.6-366.5z"/>
	<path class="st24" d="M-1522.7-314.3h-108.3c-6.6,0-11.9-5.3-11.9-11.9v-9.5c0-6.6,5.3-11.9,11.9-11.9h108.3
		c6.6,0,11.9,5.3,11.9,11.9v9.5C-1510.9-319.6-1516.2-314.3-1522.7-314.3z"/>
	<path class="st24" d="M-1373.5-314.3h-108.3c-6.6,0-11.9-5.3-11.9-11.9v-9.5c0-6.6,5.3-11.9,11.9-11.9h108.3
		c6.6,0,11.9,5.3,11.9,11.9v9.5C-1361.6-319.6-1366.9-314.3-1373.5-314.3z"/>
	<path class="st24" d="M-1224.3-314.3h-108.3c-6.6,0-11.9-5.3-11.9-11.9v-9.5c0-6.6,5.3-11.9,11.9-11.9h108.3
		c6.6,0,11.9,5.3,11.9,11.9v9.5C-1212.4-319.6-1217.7-314.3-1224.3-314.3z"/>
	<path class="st24" d="M-1075-314.3h-108.3c-6.6,0-11.9-5.3-11.9-11.9v-9.5c0-6.6,5.3-11.9,11.9-11.9h108.3
		c6.6,0,11.9,5.3,11.9,11.9v9.5C-1063.2-319.6-1068.5-314.3-1075-314.3z"/>
	<path class="st24" d="M-925.8-314.3h-108.3c-6.6,0-11.9-5.3-11.9-11.9v-9.5c0-6.6,5.3-11.9,11.9-11.9h108.3
		c6.6,0,11.9,5.3,11.9,11.9v9.5C-913.9-319.6-919.2-314.3-925.8-314.3z"/>
	<path class="st24" d="M-776.6-314.3h-108.3c-6.6,0-11.9-5.3-11.9-11.9v-9.5c0-6.6,5.3-11.9,11.9-11.9h108.3
		c6.6,0,11.9,5.3,11.9,11.9v9.5C-764.7-319.6-770-314.3-776.6-314.3z"/>
	<path class="st25" d="M-1522.7-259.8h-108.3c-6.6,0-11.9-5.3-11.9-11.9v-9.5c0-6.6,5.3-11.9,11.9-11.9h108.3
		c6.6,0,11.9,5.3,11.9,11.9v9.5C-1510.9-265.1-1516.2-259.8-1522.7-259.8z"/>
	<path class="st25" d="M-1373.5-259.8h-108.3c-6.6,0-11.9-5.3-11.9-11.9v-9.5c0-6.6,5.3-11.9,11.9-11.9h108.3
		c6.6,0,11.9,5.3,11.9,11.9v9.5C-1361.6-265.1-1366.9-259.8-1373.5-259.8z"/>
	<path class="st25" d="M-1224.3-259.8h-108.3c-6.6,0-11.9-5.3-11.9-11.9v-9.5c0-6.6,5.3-11.9,11.9-11.9h108.3
		c6.6,0,11.9,5.3,11.9,11.9v9.5C-1212.4-265.1-1217.7-259.8-1224.3-259.8z"/>
	<path class="st25" d="M-1075-259.8h-108.3c-6.6,0-11.9-5.3-11.9-11.9v-9.5c0-6.6,5.3-11.9,11.9-11.9h108.3
		c6.6,0,11.9,5.3,11.9,11.9v9.5C-1063.2-265.1-1068.5-259.8-1075-259.8z"/>
	<path class="st25" d="M-925.8-259.8h-108.3c-6.6,0-11.9-5.3-11.9-11.9v-9.5c0-6.6,5.3-11.9,11.9-11.9h108.3
		c6.6,0,11.9,5.3,11.9,11.9v9.5C-913.9-265.1-919.2-259.8-925.8-259.8z"/>
	<path class="st25" d="M-776.6-259.8h-108.3c-6.6,0-11.9-5.3-11.9-11.9v-9.5c0-6.6,5.3-11.9,11.9-11.9h108.3
		c6.6,0,11.9,5.3,11.9,11.9v9.5C-764.7-265.1-770-259.8-776.6-259.8z"/>
	<g>
		<text transform="matrix(1 0 0 1 -1592.2981 -518.2737)" class="st1" style="font-family:'Calibri-Bold'; font-size:14.4514px;">Rank</text>
	</g>
	<g>
		<text transform="matrix(1 0 0 1 -1762.7771 -518.2737)" style="font-family:'Calibri-Bold'; font-size:14.4514px;">Name</text>
	</g>
	<g>
		<text transform="matrix(1 0 0 1 -1462.4465 -518.2737)" class="st1" style="font-family:'Calibri-Bold'; font-size:14.4514px;">Total Reach</text>
	</g>
	<g>
		<text transform="matrix(1 0 0 1 -1311.4631 -518.5482)" class="st1" style="font-family:'Calibri-Bold'; font-size:14.4514px;">Post Count </text>
	</g>
	<g>
		<text transform="matrix(1 0 0 1 -1146.4475 -528.1507)"><tspan x="0" y="0" class="st1" style="font-family:'Calibri-Bold'; font-size:14.4514px;">Total </tspan><tspan x="-26.3" y="17.3" class="st1" style="font-family:'Calibri-Bold'; font-size:14.4514px;">Engagmement</tspan></text>
	</g>
	<g>
		<text transform="matrix(1 0 0 1 -1027.2151 -519.3714)" class="st1" style="font-family:'Calibri-Bold'; font-size:14.4514px;">Engagement(%) </text>
	</g>
	<g>
		<text transform="matrix(1 0 0 1 -873.8431 -528.4681)"><tspan x="0" y="0" class="st1" style="font-family:'Calibri-Bold'; font-size:14.4514px;">Avg Engement </tspan><tspan x="20.1" y="17.3" class="st1" style="font-family:'Calibri-Bold'; font-size:14.4514px;">Per Post</tspan></text>
	</g>
	<text transform="matrix(1 0 0 1 -1580.3723 -437.5618)" style="font-family:'ArialMT'; font-size:14.4099px;">1</text>
	<text transform="matrix(1 0 0 1 -1457.675 -438.4837)" style="font-family:'ArialMT'; font-size:14.4099px;">936,2346</text>
	<text transform="matrix(1 0 0 1 -1457.675 -326.7552)" style="font-family:'ArialMT'; font-size:14.4099px;">405,289</text>
	<text transform="matrix(1 0 0 1 -1453.4875 -272.264)" style="font-family:'ArialMT'; font-size:14.4099px;">369,270</text>
	<text transform="matrix(1 0 0 1 -1454.1711 -378.9915)" style="font-family:'ArialMT'; font-size:14.4099px;">678,793</text>
	<text transform="matrix(1 0 0 1 -1292.0051 -438.4837)" style="font-family:'ArialMT'; font-size:14.4099px;">992</text>
	<text transform="matrix(1 0 0 1 -1161.2083 -438.4837)" style="font-family:'ArialMT'; font-size:14.4099px;">5,983,654</text>
	<text transform="matrix(1 0 0 1 -1161.2083 -378.3939)" style="font-family:'ArialMT'; font-size:14.4099px;">4,052,892</text>
	<text transform="matrix(1 0 0 1 -1161.2083 -326.386)" style="font-family:'ArialMT'; font-size:14.4099px;">2,446,293</text>
	<text transform="matrix(1 0 0 1 -1161.2083 -271.5677)" style="font-family:'ArialMT'; font-size:14.4099px;">2,050,103</text>
	<text transform="matrix(1 0 0 1 -992.886 -438.4837)" style="font-family:'ArialMT'; font-size:14.4099px;">665</text>
	<text transform="matrix(1 0 0 1 -846.9554 -438.4837)" style="font-family:'ArialMT'; font-size:14.4099px;">4,559</text>
	<text transform="matrix(1 0 0 1 -845.0755 -378.3939)" style="font-family:'ArialMT'; font-size:14.4099px;">2098</text>
	<text transform="matrix(1 0 0 1 -845.6302 -325.6839)" style="font-family:'ArialMT'; font-size:14.4099px;">1987</text>
	<text transform="matrix(1 0 0 1 -845.638 -270.3372)" style="font-family:'ArialMT'; font-size:14.4099px;">1033</text>
	<text transform="matrix(1 0 0 1 -992.886 -378.3939)" style="font-family:'ArialMT'; font-size:14.4099px;">542</text>
	<text transform="matrix(1 0 0 1 -992.886 -326.386)" style="font-family:'ArialMT'; font-size:14.4099px;">484</text>
	<text transform="matrix(1 0 0 1 -992.886 -271.5677)" style="font-family:'ArialMT'; font-size:14.4099px;">319</text>
	<text transform="matrix(1 0 0 1 -1292.0129 -326.7552)" style="font-family:'ArialMT'; font-size:14.4099px;">604</text>
	<text transform="matrix(1 0 0 1 -1291.8391 -272.264)" style="font-family:'ArialMT'; font-size:14.4099px;">487</text>
	<text transform="matrix(1 0 0 1 -1292.134 -378.9915)" style="font-family:'ArialMT'; font-size:14.4099px;">765</text>
	<text transform="matrix(1 0 0 1 -1580.3723 -379.2288)" style="font-family:'ArialMT'; font-size:14.4099px;">2</text>
	<text transform="matrix(1 0 0 1 -1580.3723 -325.8177)" style="font-family:'ArialMT'; font-size:14.4099px;">3</text>
	<text transform="matrix(1 0 0 1 -1580.3723 -271.264)" style="font-family:'ArialMT'; font-size:14.4099px;">4</text>
</g>
<image style="overflow:visible;" width="1280" height="1010" xlink:href="../../../../../Downloads/PHOTO-2022-10-11-17-24-48.jpg"  transform="matrix(0.8282 0 0 0.8282 1075.9362 -69.7899)">
</image>
<image style="overflow:visible;" width="1200" height="628" xlink:href="C79259F4.jpg"  transform="matrix(0.8897 0 0 0.8897 -719.4681 1489.1277)">
</image>
<image style="overflow:visible;" width="1200" height="628" xlink:href="C7925A0C.jpg"  transform="matrix(0.8897 0 0 0.8897 -707.2128 1485.0426)">
</image>
<g>
	<circle class="st26" cx="239.2" cy="-21.6" r="36.1"/>
	<g>
		<g>
			<path class="st27" d="M231.9-0.8c17.6,0,27.2-14.6,27.2-27.2c0-0.4,0-0.8,0-1.2c1.9-1.4,3.5-3,4.8-5c-1.7,0.8-3.6,1.3-5.5,1.5
				c2-1.2,3.5-3.1,4.2-5.3c-1.9,1.1-3.9,1.9-6.1,2.3c-1.7-1.9-4.2-3-7-3c-5.3,0-9.6,4.3-9.6,9.6c0,0.8,0.1,1.5,0.2,2.2
				c-8-0.4-15-4.2-19.7-10c-0.8,1.4-1.3,3.1-1.3,4.8c0,3.3,1.7,6.3,4.3,8c-1.6,0-3-0.5-4.3-1.2c0,0,0,0.1,0,0.1
				c0,4.6,3.3,8.5,7.7,9.4c-0.8,0.2-1.7,0.3-2.5,0.3c-0.6,0-1.2-0.1-1.8-0.2c1.2,3.8,4.8,6.6,8.9,6.7C228.1-6.5,224-5,219.5-5
				c-0.8,0-1.5,0-2.3-0.1C221.4-2.4,226.5-0.8,231.9-0.8"/>
		</g>
	</g>
</g>
<g>
	<circle class="st28" cx="142.6" cy="-79.6" r="34.9"/>
	<g>
		<g>
			<path class="st27" d="M145.3-84.4c0.6-0.6,1-1.3,1.6-1.9c1.8-1.7,4-2.6,6.4-2.5c1.4,0,2.7,0.1,4.1,0.5c3,0.9,4.8,3,5.6,5.9
				c0.6,2.2,0.7,4.5,0.7,6.8c0,4.8,0,9.6,0,14.5c0,0.5-0.1,0.6-0.6,0.6c-2.5,0-5,0-7.5,0c-0.4,0-0.5-0.1-0.5-0.5c0-4.6,0-9.2,0-13.8
				c0-1.1-0.1-2.3-0.4-3.4c-0.6-2.1-2.1-3.1-4.2-3c-2.9,0.2-4.5,1.6-4.9,4.6c-0.1,0.7-0.1,1.4-0.1,2.2c0,4.5,0,8.9,0,13.4
				c0,0.4-0.1,0.6-0.6,0.6c-2.5,0-5,0-7.5,0c-0.4,0-0.5-0.1-0.5-0.5c0-8.8,0-17.7,0-26.5c0-0.4,0.1-0.5,0.6-0.5c2.4,0,4.8,0,7.1,0
				c0.4,0,0.6,0.1,0.5,0.6C145.2-86.5,145.3-85.5,145.3-84.4z"/>
			<path class="st27" d="M131.7-74.3c0,4.4,0,8.7,0,13.1c0,0.5-0.1,0.6-0.6,0.6c-2.5,0-5,0-7.4,0c-0.4,0-0.5-0.1-0.5-0.5
				c0-8.8,0-17.7,0-26.5c0-0.4,0.1-0.5,0.5-0.5c2.5,0,5,0,7.6,0c0.5,0,0.5,0.2,0.5,0.6C131.6-83.1,131.7-78.7,131.7-74.3z"/>
			<path class="st27" d="M132.3-96.9c0,2.7-2.2,5-5,5c-2.7,0-4.9-2.2-5-4.9c0-2.7,2.2-5,5-5C130.1-101.8,132.3-99.6,132.3-96.9z"/>
		</g>
	</g>
</g>
<g>
	<path class="st28" d="M20-96.3C20-109.4,9.4-120-3.7-120s-23.7,10.6-23.7,23.7c0,11.8,8.7,21.7,20,23.4v-16.6h-6v-6.9h6v-5.2
		c0-5.9,3.5-9.2,9-9.2c2.6,0,5.3,0.5,5.3,0.5v5.8h-3c-2.9,0-3.9,1.8-3.9,3.7v4.5h6.6l-1.1,6.9H0v16.6C11.4-74.7,20-84.5,20-96.3z"/>
	<path class="st27" d="M5.5-89.5l1.1-6.9H0v-4.5c0-1.9,0.9-3.7,3.9-3.7h3v-5.8c0,0-2.7-0.5-5.3-0.5c-5.4,0-9,3.3-9,9.2v5.2h-6v6.9h6
		v16.6c1.2,0.2,2.4,0.3,3.7,0.3s2.5-0.1,3.7-0.3v-16.6H5.5z"/>
</g>
<g>
	<circle class="st26" cx="-94.1" cy="34.3" r="38.9"/>
	<g>
		<g>
			<path class="st27" d="M-79.6,20c-1.5,0-2.8,1.3-2.8,2.8c0,1.5,1.3,2.8,2.8,2.8c1.5,0,2.8-1.3,2.8-2.8C-76.8,21.3-78.1,20-79.6,20
				z"/>
			<path class="st27" d="M-92.1,23.6c-6.5,0-11.8,5.3-11.8,11.8c0,6.5,5.3,11.8,11.8,11.8c6.5,0,11.8-5.3,11.8-11.8
				C-80.3,28.9-85.6,23.6-92.1,23.6z M-92.1,43c-4.2,0-7.5-3.4-7.5-7.5s3.4-7.5,7.5-7.5c4.2,0,7.5,3.4,7.5,7.5S-87.9,43-92.1,43z"/>
			<path class="st27" d="M-82.7,59.3h-19.1c-7.9,0-14.4-6.4-14.4-14.4V25.9c0-7.9,6.4-14.4,14.4-14.4h19.1c7.9,0,14.4,6.4,14.4,14.4
				V45C-68.4,52.9-74.8,59.3-82.7,59.3z M-101.8,16c-5.4,0-9.9,4.4-9.9,9.9V45c0,5.4,4.4,9.9,9.9,9.9h19.1c5.4,0,9.9-4.4,9.9-9.9
				V25.9c0-5.4-4.4-9.9-9.9-9.9H-101.8z"/>
		</g>
	</g>
</g>
<g>
	<circle class="st26" cx="58.8" cy="45.3" r="35.9"/>
	<path class="st27" d="M86.5,39.7c0-6.7-5.4-12.1-12.1-12.1h-31c-6.7,0-12.1,5.4-12.1,12.1v14.4c0,6.7,5.4,12.1,12.1,12.1h31
		c6.7,0,12.1-5.4,12.1-12.1V39.7z M68.2,48l-13.9,6.9c-0.5,0.3-2.4-0.1-2.4-0.7V40.1c0-0.6,1.9-1,2.4-0.7l13.3,7.2
		C68.2,46.9,68.8,47.7,68.2,48z"/>
</g>
<g>
	<g>
		<g>
			<g>
				<g>
					<path class="st27" d="M1872.6,1059c4.6,0,4.6-7.1,0-7.1C1868,1051.9,1868,1059,1872.6,1059L1872.6,1059z"/>
				</g>
			</g>
			<g>
				<g>
					<path class="st27" d="M1967.3,1079.4c4.6,0,4.6-7.1,0-7.1C1962.7,1072.3,1962.7,1079.4,1967.3,1079.4L1967.3,1079.4z"/>
				</g>
			</g>
			<g>
				<g>
					<path class="st27" d="M2042.7,1129.1c4.6,0,4.6-7.1,0-7.1C2038.1,1122,2038.1,1129.1,2042.7,1129.1L2042.7,1129.1z"/>
				</g>
			</g>
			<g>
				<g>
					<path class="st27" d="M2082.4,1204.5c4.6,0,4.6-7.1,0-7.1C2077.9,1197.4,2077.8,1204.5,2082.4,1204.5L2082.4,1204.5z"/>
				</g>
			</g>
			<g>
				<g>
					<path class="st27" d="M2083.5,1295.5c4.6,0,4.6-7.1,0-7.1C2078.9,1288.4,2078.9,1295.5,2083.5,1295.5L2083.5,1295.5z"/>
				</g>
			</g>
			<g>
				<g>
					<path class="st27" d="M2038.5,1389.7c4.6,0,4.6-7.1,0-7.1C2033.9,1382.6,2033.9,1389.7,2038.5,1389.7L2038.5,1389.7z"/>
				</g>
			</g>
			<g>
				<g>
					<path class="st27" d="M1961.6,1458.7c4.6,0,4.6-7.1,0-7.1C1957,1451.6,1957,1458.7,1961.6,1458.7L1961.6,1458.7z"/>
				</g>
			</g>
			<g>
				<g>
					<path class="st27" d="M1884.1,1539.3c4.6,0,4.6-7.1,0-7.1C1879.6,1532.2,1879.6,1539.3,1884.1,1539.3L1884.1,1539.3z"/>
				</g>
			</g>
			<g>
				<g>
					<path class="st27" d="M1858.5,1595.3c4.6,0,4.6-7.1,0-7.1C1853.9,1588.2,1853.9,1595.3,1858.5,1595.3L1858.5,1595.3z"/>
				</g>
			</g>
			<g>
				<g>
					<path class="st27" d="M1848,1641.3c4.6,0,4.6-7.1,0-7.1C1843.5,1634.2,1843.5,1641.3,1848,1641.3L1848,1641.3z"/>
				</g>
			</g>
			<g>
				<g>
					<path class="st27" d="M1803.6,1641.9c4.6,0,4.6-7.1,0-7.1C1799,1634.8,1799,1641.9,1803.6,1641.9L1803.6,1641.9z"/>
				</g>
			</g>
			<g>
				<g>
					<path class="st27" d="M1804.1,1576.5c4.6,0,4.6-7.1,0-7.1C1799.5,1569.4,1799.5,1576.5,1804.1,1576.5L1804.1,1576.5z"/>
				</g>
			</g>
			<g>
				<g>
					<path class="st27" d="M1832.3,1470.3c4.6,0,4.6-7.1,0-7.1C1827.8,1463.1,1827.8,1470.3,1832.3,1470.3L1832.3,1470.3z"/>
				</g>
			</g>
			<g>
				<g>
					<path class="st27" d="M1892,1381.8c4.6,0,4.6-7.1,0-7.1C1887.4,1374.7,1887.4,1381.8,1892,1381.8L1892,1381.8z"/>
				</g>
			</g>
			<g>
				<g>
					<path class="st27" d="M1931.7,1290.3c4.6,0,4.6-7.1,0-7.1C1927.2,1283.2,1927.2,1290.3,1931.7,1290.3L1931.7,1290.3z"/>
				</g>
			</g>
			<g>
				<g>
					<path class="st27" d="M1922.3,1193.5c4.6,0,4.6-7.1,0-7.1C1917.8,1186.4,1917.7,1193.5,1922.3,1193.5L1922.3,1193.5z"/>
				</g>
			</g>
			<g>
				<g>
					<path class="st27" d="M1877.9,1133.3c4.6,0,4.6-7.1,0-7.1C1873.3,1126.2,1873.3,1133.3,1877.9,1133.3L1877.9,1133.3z"/>
				</g>
			</g>
			<g>
				<g>
					<path class="st27" d="M1806.7,1107.7c4.6,0,4.6-7.1,0-7.1C1802.1,1100.6,1802.1,1107.7,1806.7,1107.7L1806.7,1107.7z"/>
				</g>
			</g>
			<g>
				<g>
					<path class="st27" d="M1750.2,1113.4c4.6,0,4.6-7.1,0-7.1C1745.6,1106.3,1745.6,1113.4,1750.2,1113.4L1750.2,1113.4z"/>
				</g>
			</g>
			<g>
				<g>
					<path class="st27" d="M1727.2,1131.7c4.6,0,4.6-7.1,0-7.1C1722.6,1124.6,1722.6,1131.7,1727.2,1131.7L1727.2,1131.7z"/>
				</g>
			</g>
			<g>
				<g>
					<path class="st27" d="M1726.1,1163.7c4.6,0,4.6-7.1,0-7.1C1721.6,1156.6,1721.5,1163.7,1726.1,1163.7L1726.1,1163.7z"/>
				</g>
			</g>
			<g>
				<g>
					<path class="st27" d="M1754.9,1209.2c4.6,0,4.6-7.1,0-7.1C1750.3,1202.1,1750.3,1209.2,1754.9,1209.2L1754.9,1209.2z"/>
				</g>
			</g>
			<g>
				<g>
					<path class="st27" d="M1767.5,1262.5c4.6,0,4.6-7.1,0-7.1C1762.9,1255.4,1762.9,1262.5,1767.5,1262.5L1767.5,1262.5z"/>
				</g>
			</g>
			<g>
				<g>
					<path class="st27" d="M1740.3,1311.7c4.6,0,4.6-7.1,0-7.1C1735.7,1304.6,1735.7,1311.7,1740.3,1311.7L1740.3,1311.7z"/>
				</g>
			</g>
			<g>
				<g>
					<path class="st27" d="M1683.7,1325.3c4.6,0,4.6-7.1,0-7.1C1679.2,1318.2,1679.2,1325.3,1683.7,1325.3L1683.7,1325.3z"/>
				</g>
			</g>
			<g>
				<g>
					<path class="st27" d="M1634,1290.3c4.6,0,4.6-7.1,0-7.1C1629.5,1283.2,1629.5,1290.3,1634,1290.3L1634,1290.3z"/>
				</g>
			</g>
			<g>
				<g>
					<path class="st27" d="M1613.1,1231.2c4.6,0,4.6-7.1,0-7.1C1608.5,1224,1608.5,1231.2,1613.1,1231.2L1613.1,1231.2z"/>
				</g>
			</g>
			<g>
				<g>
					<path class="st27" d="M1630.4,1161.6c4.6,0,4.6-7.1,0-7.1C1625.8,1154.5,1625.8,1161.6,1630.4,1161.6L1630.4,1161.6z"/>
				</g>
			</g>
			<g>
				<g>
					<path class="st27" d="M1694.7,1097.7c4.6,0,4.6-7.1,0-7.1C1690.2,1090.6,1690.2,1097.7,1694.7,1097.7L1694.7,1097.7z"/>
				</g>
			</g>
			<g>
				<g>
					<path class="st27" d="M1780,1065.3c4.6,0,4.6-7.1,0-7.1C1775.4,1058.2,1775.4,1065.3,1780,1065.3L1780,1065.3z"/>
				</g>
			</g>
			<g>
				<g>
					<path class="st27" d="M1826.1,1682.1c4.6,0,4.6-7.1,0-7.1C1821.5,1675,1821.5,1682.1,1826.1,1682.1L1826.1,1682.1z"/>
				</g>
			</g>
			<g>
				<g>
					<path class="st27" d="M1856.9,1690c4.6,0,4.6-7.1,0-7.1C1852.4,1682.9,1852.3,1690,1856.9,1690L1856.9,1690z"/>
				</g>
			</g>
			<g>
				<g>
					<path class="st27" d="M1878.4,1711.4c4.6,0,4.6-7.1,0-7.1C1873.8,1704.3,1873.8,1711.4,1878.4,1711.4L1878.4,1711.4z"/>
				</g>
			</g>
			<g>
				<g>
					<path class="st27" d="M1886.7,1743.9c4.6,0,4.6-7.1,0-7.1C1882.2,1736.8,1882.2,1743.9,1886.7,1743.9L1886.7,1743.9z"/>
				</g>
			</g>
			<g>
				<g>
					<path class="st27" d="M1875.2,1775.8c4.6,0,4.6-7.1,0-7.1C1870.7,1768.7,1870.7,1775.8,1875.2,1775.8L1875.2,1775.8z"/>
				</g>
			</g>
			<g>
				<g>
					<path class="st27" d="M1845.9,1796.7c4.6,0,4.6-7.1,0-7.1C1841.4,1789.6,1841.4,1796.7,1845.9,1796.7L1845.9,1796.7z"/>
				</g>
			</g>
			<g>
				<g>
					<path class="st27" d="M1807.2,1796.7c4.6,0,4.6-7.1,0-7.1C1802.7,1789.6,1802.6,1796.7,1807.2,1796.7L1807.2,1796.7z"/>
				</g>
			</g>
			<g>
				<g>
					<path class="st27" d="M1778.4,1773.7c4.6,0,4.6-7.1,0-7.1C1773.9,1766.6,1773.9,1773.7,1778.4,1773.7L1778.4,1773.7z"/>
				</g>
			</g>
			<g>
				<g>
					<path class="st27" d="M1769,1735.5c4.6,0,4.6-7.1,0-7.1C1764.5,1728.4,1764.4,1735.5,1769,1735.5L1769,1735.5z"/>
				</g>
			</g>
			<g>
				<g>
					<path class="st27" d="M1787.3,1697.3c4.6,0,4.6-7.1,0-7.1C1782.8,1690.2,1782.8,1697.3,1787.3,1697.3L1787.3,1697.3z"/>
				</g>
			</g>
			<g>
				<g>
					<path class="st27" d="M1693.4,1238.9c4.6,0,4.6-7.1,0-7.1C1688.9,1231.8,1688.9,1238.9,1693.4,1238.9L1693.4,1238.9z"/>
				</g>
			</g>
			<g>
				<g>
					<path class="st27" d="M1681.7,1158.4c4.6,0,4.6-7.1,0-7.1C1677.1,1151.3,1677.1,1158.4,1681.7,1158.4L1681.7,1158.4z"/>
				</g>
			</g>
			<g>
				<g>
					<path class="st27" d="M1727.8,1105.9c4.6,0,4.6-7.1,0-7.1C1723.2,1098.8,1723.2,1105.9,1727.8,1105.9L1727.8,1105.9z"/>
				</g>
			</g>
			<g>
				<g>
					<path class="st27" d="M1826.4,1082.4c4.6,0,4.6-7.1,0-7.1C1821.8,1075.3,1821.8,1082.4,1826.4,1082.4L1826.4,1082.4z"/>
				</g>
			</g>
			<g>
				<g>
					<path class="st27" d="M1945.8,1122.2c4.6,0,4.6-7.1,0-7.1C1941.3,1115.1,1941.2,1122.2,1945.8,1122.2L1945.8,1122.2z"/>
				</g>
			</g>
			<g>
				<g>
					<path class="st27" d="M2030,1213.6c4.6,0,4.6-7.1,0-7.1C2025.4,1206.5,2025.4,1213.6,2030,1213.6L2030,1213.6z"/>
				</g>
			</g>
			<g>
				<g>
					<path class="st27" d="M1985.6,1297.7c4.6,0,4.6-7.1,0-7.1C1981.1,1290.6,1981.1,1297.7,1985.6,1297.7L1985.6,1297.7z"/>
				</g>
			</g>
			<g>
				<g>
					<path class="st27" d="M1994.7,1375.5c4.6,0,4.6-7.1,0-7.1C1990.1,1368.4,1990.1,1375.5,1994.7,1375.5L1994.7,1375.5z"/>
				</g>
			</g>
			<g>
				<g>
					<path class="st27" d="M1911.5,1427.1c4.6,0,4.6-7.1,0-7.1C1906.9,1419.9,1906.9,1427.1,1911.5,1427.1L1911.5,1427.1z"/>
				</g>
			</g>
			<g>
				<g>
					<path class="st27" d="M1859.9,1503.9c4.6,0,4.6-7.1,0-7.1C1855.3,1496.8,1855.3,1503.9,1859.9,1503.9L1859.9,1503.9z"/>
				</g>
			</g>
			<g>
				<g>
					<path class="st27" d="M1830.9,1591.7c4.6,0,4.6-7.1,0-7.1C1826.4,1584.6,1826.4,1591.7,1830.9,1591.7L1830.9,1591.7z"/>
				</g>
			</g>
			<g>
				<g>
					<path class="st27" d="M1798.4,1722.9c4.6,0,4.6-7.1,0-7.1C1793.8,1715.8,1793.8,1722.9,1798.4,1722.9L1798.4,1722.9z"/>
				</g>
			</g>
			<g>
				<g>
					<path class="st27" d="M1852.6,1718.3c4.6,0,4.6-7.1,0-7.1C1848.1,1711.2,1848.1,1718.3,1852.6,1718.3L1852.6,1718.3z"/>
				</g>
			</g>
			<g>
				<g>
					<path class="st27" d="M1831.8,1770.8c4.6,0,4.6-7.1,0-7.1C1827.3,1763.7,1827.3,1770.8,1831.8,1770.8L1831.8,1770.8z"/>
				</g>
			</g>
		</g>
		<g>
			<g>
				<path class="st27" d="M1803.6,1638.7c-0.1,0-0.2,0-0.3-0.1c-0.1-0.1-0.1-0.2-0.1-0.3l0.5-65.4c0,0,0-0.1,0-0.1l28.3-106.2
					c0,0,0-0.1,0.1-0.1l59.6-88.4l39.7-91.4l-9.4-96.6l-44.3-60l-70.9-25.6l-56.3,5.7l-22.8,18.1l-1,31.6l28.7,45.4
					c0,0,0,0.1,0.1,0.1l12.6,53.4c0,0.1,0,0.2,0,0.3l-27.2,49.2c-0.1,0.1-0.2,0.2-0.3,0.2l-56.5,13.6c-0.1,0-0.2,0-0.3-0.1
					l-49.7-35.1c-0.1-0.1-0.1-0.1-0.2-0.2l-20.9-59.1c0-0.1,0-0.2,0-0.2l17.3-69.6c0-0.1,0.1-0.1,0.1-0.2l64.4-63.8
					c0,0,0.1-0.1,0.1-0.1l85.3-32.4c0,0,0.1,0,0.1,0l92.6-6.3c0,0,0.1,0,0.1,0l94.7,20.4c0.1,0,0.1,0,0.1,0.1l75.3,49.7
					c0.1,0,0.1,0.1,0.1,0.2l39.8,75.3c0,0.1,0.1,0.1,0.1,0.2l1,91c0,0.1,0,0.1,0,0.2l-45,94.2c0,0.1-0.1,0.1-0.1,0.1l-76.9,69.1
					l-77.4,80.5l-25.6,55.9l-10.4,46c0,0.2-0.2,0.3-0.4,0.3L1803.6,1638.7C1803.6,1638.7,1803.6,1638.7,1803.6,1638.7z M1804.5,1573
					l-0.5,64.9l43.7-0.5l10.4-45.7l25.7-56.1c0,0,0-0.1,0.1-0.1l77.4-80.6l76.9-69l44.9-94l-1-90.8l-39.7-75.2l-75.2-49.6
					l-94.6-20.4l-92.5,6.3l-85.1,32.4l-64.2,63.7l-17.2,69.3l20.8,58.9l49.4,34.9l56.1-13.5l27-48.9l-12.5-53.1l-28.7-45.5
					c0-0.1-0.1-0.2-0.1-0.2l1-31.9c0-0.1,0.1-0.2,0.2-0.3l23-18.3c0.1-0.1,0.1-0.1,0.2-0.1l56.5-5.8c0.1,0,0.1,0,0.2,0l71.2,25.6
					c0.1,0,0.1,0.1,0.2,0.1l44.5,60.2c0,0.1,0.1,0.1,0.1,0.2l9.4,96.8c0,0.1,0,0.1,0,0.2l-39.8,91.6l-59.6,88.4L1804.5,1573z"/>
			</g>
			<g>
				<path class="st27" d="M1845.9,1793.6h-38.7c-0.1,0-0.2,0-0.3-0.1l-28.8-23c-0.1-0.1-0.1-0.1-0.1-0.2l-9.4-38.2
					c0-0.1,0-0.2,0-0.3l18.3-38.2c0-0.1,0.1-0.2,0.2-0.2l38.7-15.2c0.1,0,0.2,0,0.3,0l30.9,7.8c0.1,0,0.1,0.1,0.2,0.1l21.4,21.4
					c0.1,0.1,0.1,0.1,0.1,0.2l8.4,32.4c0,0.1,0,0.2,0,0.2l-11.5,31.9c0,0.1-0.1,0.2-0.2,0.2l-29.3,20.9
					C1846.1,1793.6,1846,1793.6,1845.9,1793.6z M1807.4,1792.7h38.4l29.1-20.8l11.4-31.7l-8.3-32.2l-21.3-21.3l-30.6-7.8l-38.4,15.1
					l-18.2,37.9l9.3,37.9L1807.4,1792.7z"/>
			</g>
			<g>
				<path class="st27" d="M1803.6,1638.7c-0.1,0-0.1,0-0.2-0.1c-0.2-0.1-0.3-0.4-0.2-0.6l27.4-50.2l28.9-87.7c0,0,0-0.1,0-0.1
					l51.6-76.9c0-0.1,0.1-0.1,0.1-0.1l83-51.4l-9-77.5c0-0.1,0-0.2,0-0.2l44.2-83.9l-83.9-91.1l-119.2-39.7l-98.4,23.5l-45.9,52.2
					l11.7,80.3c0,0.2-0.1,0.4-0.4,0.5c-0.2,0-0.5-0.1-0.5-0.4l-11.8-80.5c0-0.1,0-0.2,0.1-0.3l46.1-52.5c0.1-0.1,0.1-0.1,0.2-0.1
					l98.6-23.5c0.1,0,0.2,0,0.2,0l119.4,39.8c0.1,0,0.1,0.1,0.2,0.1l84.1,91.4c0.1,0.1,0.1,0.3,0.1,0.5l-44.3,84l9,77.7
					c0,0.2-0.1,0.3-0.2,0.4l-83.1,51.5l-51.5,76.8l-28.9,87.7l-27.4,50.2C1803.9,1638.7,1803.7,1638.7,1803.6,1638.7z"/>
			</g>
			<g>
				<path class="st27" d="M1848,1638.2c-0.2,0-0.3-0.1-0.4-0.3l-17.1-49.6c0-0.1,0-0.3,0.1-0.4c0.1-0.1,0.2-0.2,0.4-0.2l27.6,3.6
					c0.2,0,0.4,0.2,0.4,0.5c0,0.2-0.2,0.4-0.5,0.4l-26.9-3.5l16.9,49c0.1,0.2,0,0.5-0.3,0.5
					C1848.1,1638.2,1848.1,1638.2,1848,1638.2z"/>
			</g>
			<g>
				<path class="st27" d="M1830.9,1588.6c-0.1,0-0.1,0-0.2-0.1l-26.9-15.2c-0.1-0.1-0.2-0.2-0.2-0.3c0-0.1,0-0.2,0.1-0.3l55.8-72.5
					c0.1-0.1,0.2-0.2,0.4-0.2c0.1,0,0.3,0.1,0.3,0.2l24.2,35.4c0.1,0.2,0.1,0.4-0.1,0.5l-53.2,52.4
					C1831.2,1588.5,1831,1588.6,1830.9,1588.6z M1804.7,1572.8l26.1,14.8l52.7-51.9l-23.7-34.6L1804.7,1572.8z"/>
			</g>
			<g>
				<path class="st27" d="M1859.9,1500.8c-0.1,0-0.2-0.1-0.3-0.2L1832,1467c-0.1-0.1-0.1-0.2-0.1-0.3c0-0.1,0.1-0.2,0.2-0.3l78.8-43
					l-19.3-44.9c-0.1-0.1,0-0.3,0-0.4c0.1-0.1,0.2-0.2,0.3-0.2l102.7-6.3c0,0,0,0,0,0c0.2,0,0.4,0.2,0.4,0.4c0,0.2-0.2,0.4-0.4,0.4
					l-102.1,6.3l19.2,44.5l50,31.6c0.1,0.1,0.2,0.2,0.2,0.4c0,0.2-0.1,0.3-0.3,0.4l-101.7,45.2
					C1860,1500.8,1859.9,1500.8,1859.9,1500.8z M1833,1466.8l27,33l100.7-44.8l-49.2-31.1L1833,1466.8z"/>
			</g>
			<g>
				<path class="st27" d="M1961.6,1455.6c-0.1,0-0.1,0-0.2,0c-0.2-0.1-0.3-0.3-0.2-0.6l33.1-83.3c0.1-0.2,0.3-0.3,0.5-0.2l43.8,14.2
					c0.2,0.1,0.3,0.3,0.3,0.5c-0.1,0.2-0.3,0.3-0.5,0.3l-43.4-14.1l-33,82.9C1961.9,1455.5,1961.7,1455.6,1961.6,1455.6z"/>
			</g>
			<g>
				<path class="st27" d="M1994.7,1372.4C1994.7,1372.4,1994.6,1372.4,1994.7,1372.4c-0.2,0-0.3-0.1-0.3-0.2l-62.9-85.2
					c-0.1-0.1-0.1-0.3,0-0.5c0.1-0.1,0.2-0.2,0.4-0.2l53.9,7.4l97.8-2.2c0.2,0,0.3,0.1,0.4,0.3c0.1,0.2,0,0.4-0.1,0.5l-88.8,80
					C1994.9,1372.3,1994.8,1372.4,1994.7,1372.4z M1932.7,1287.3l62.1,84l87.6-78.9l-96.7,2.2L1932.7,1287.3z"/>
			</g>
			<g>
				<path class="st27" d="M1985.6,1294.6c-0.1,0-0.3-0.1-0.4-0.2l-63.3-104.2c-0.1-0.1-0.1-0.3,0-0.5c0.1-0.1,0.3-0.2,0.4-0.2
					l107.6,20.1l52.4-9.1c0.2,0,0.5,0.1,0.5,0.3c0,0.2-0.1,0.5-0.3,0.5l-52.5,9.1c-0.1,0-0.1,0-0.2,0l-106.7-19.9l62.8,103.4
					c0.1,0.2,0.1,0.5-0.1,0.6C1985.8,1294.5,1985.7,1294.6,1985.6,1294.6z"/>
			</g>
			<g>
				<path class="st27" d="M2083.5,1292.4c-0.1,0-0.3-0.1-0.4-0.2l-53.5-81.9c-0.1-0.1-0.1-0.2-0.1-0.3l12.6-84l-96-6.9l-23.4,71
					c-0.1,0.2-0.3,0.3-0.5,0.3c-0.2-0.1-0.3-0.3-0.3-0.5l23.5-71.3c0.1-0.2,0.2-0.3,0.4-0.3c0,0,0,0,0,0l96.8,6.9
					c0.1,0,0.2,0.1,0.3,0.2c0.1,0.1,0.1,0.2,0.1,0.3l-12.7,84.3l53.4,81.8c0.1,0.2,0.1,0.5-0.1,0.6
					C2083.6,1292.4,2083.5,1292.4,2083.5,1292.4z"/>
			</g>
			<g>
				<path class="st27" d="M1877.9,1130.2c-0.1,0-0.2,0-0.3-0.1l-51.4-50.9c-0.1-0.1-0.1-0.2-0.1-0.4c0-0.1,0.1-0.3,0.2-0.3
					l46.2-23.4c0.2-0.1,0.3-0.1,0.5,0.1l72.8,62.8l21.2-42.3c0.1-0.2,0.4-0.3,0.6-0.2c0.2,0.1,0.3,0.4,0.2,0.6l-21.5,42.8
					c0,0-0.1,0.1-0.1,0.1l0,0l0,0c-0.1,0.1-0.1,0.1-0.2,0.1L1877.9,1130.2C1877.9,1130.2,1877.9,1130.2,1877.9,1130.2z
					 M1827.1,1078.9l50.9,50.4l66.9-10.9l-72.3-62.4L1827.1,1078.9z"/>
			</g>
			<g>
				<path class="st27" d="M1681.7,1155.3c-0.1,0-0.3-0.1-0.4-0.2c-0.1-0.2-0.1-0.5,0.2-0.6l45.3-26.5l0.6-25.6
					c0-0.1,0.1-0.3,0.2-0.3c0.1-0.1,0.2-0.1,0.4-0.1l22.2,7.5l68.1-29.1c0.2-0.1,0.5,0,0.6,0.2c0.1,0.2,0,0.5-0.2,0.6l-68.2,29.1
					c-0.1,0-0.2,0-0.3,0l-21.8-7.3l-0.6,25.3c0,0.1-0.1,0.3-0.2,0.4l-45.5,26.6C1681.8,1155.2,1681.7,1155.3,1681.7,1155.3z"/>
			</g>
			<g>
				<path class="st27" d="M1630.4,1158.4c-0.2,0-0.4-0.2-0.4-0.4c0-0.2,0.2-0.4,0.4-0.5l51-3.2l13-60.3c0-0.1,0.1-0.2,0.2-0.3
					c0.1-0.1,0.2-0.1,0.3-0.1l32.9,8.1l52-40.5c0.1-0.1,0.3-0.1,0.4-0.1l46.4,17.1c0.1,0,0.2,0.2,0.3,0.3c0,0.1,0,0.3-0.1,0.4
					l-19.7,25.3c-0.1,0.2-0.4,0.2-0.6,0.1c-0.2-0.1-0.2-0.4-0.1-0.6l19.4-24.8l-45.6-16.8l-52,40.5c-0.1,0.1-0.2,0.1-0.4,0.1
					l-32.6-8.1l-13,60.2c0,0.2-0.2,0.3-0.4,0.3L1630.4,1158.4C1630.4,1158.4,1630.4,1158.4,1630.4,1158.4z"/>
			</g>
			<g>
				<path class="st27" d="M1683.7,1322.2c-0.1,0-0.1,0-0.2-0.1c-0.1-0.1-0.2-0.2-0.2-0.4l9.6-85.4l-58.6,50.7
					c-0.2,0.2-0.4,0.1-0.6,0c-0.2-0.2-0.1-0.4,0-0.6l59.4-51.4c0,0,0.1,0,0.1-0.1l0,0c0,0,0,0,0,0l0,0l0,0l60.8-29.4l-72.6-50.4
					c-0.2-0.1-0.2-0.3-0.2-0.5c0.1-0.2,0.3-0.3,0.4-0.3l44.5,5.3c0.2,0,0.4,0.2,0.4,0.5c0,0.2-0.3,0.4-0.5,0.4l-42.8-5.1l71.8,49.8
					c0.1,0.1,0.2,0.2,0.2,0.4c0,0.1-0.1,0.3-0.2,0.3l-60.5,29.2l73,23.3c0.2,0,0.3,0.2,0.3,0.3c0,0.2,0,0.3-0.2,0.4l-83.7,62.8
					C1683.9,1322.2,1683.8,1322.2,1683.7,1322.2z M1693.8,1235.9l-9.5,84.9l82.3-61.7L1693.8,1235.9z"/>
			</g>
			<g>
				<path class="st27" d="M1693.4,1235.8C1693.4,1235.8,1693.4,1235.8,1693.4,1235.8l-80.4-7.7c-0.2,0-0.3-0.1-0.4-0.3
					c-0.1-0.2,0-0.3,0.1-0.4l68.6-72.8c0.2-0.2,0.4-0.2,0.6,0c0.2,0.2,0.2,0.4,0,0.6l-68,72.1l79.4,7.7c0.2,0,0.4,0.2,0.4,0.5
					C1693.8,1235.6,1693.6,1235.8,1693.4,1235.8z"/>
			</g>
			<g>
				<path class="st27" d="M1831.8,1767.7c-0.1,0-0.3-0.1-0.3-0.2l-33.5-47.9c-0.1-0.1-0.1-0.3,0-0.4c0.1-0.1,0.2-0.2,0.3-0.2
					l54.3-4.5c0.2,0,0.3,0.1,0.4,0.2c0.1,0.1,0.1,0.3,0.1,0.4l-20.8,52.5C1832.2,1767.6,1832,1767.7,1831.8,1767.7
					C1831.9,1767.7,1831.9,1767.7,1831.8,1767.7z M1799.1,1719.7l32.6,46.7l20.3-51.1L1799.1,1719.7z"/>
			</g>
			<g>
				<path class="st27" d="M1852.6,1715.2c-0.1,0-0.2,0-0.3-0.1c-0.1-0.1-0.2-0.2-0.1-0.4l4.3-28.4c0-0.2,0.2-0.4,0.5-0.4
					c0.2,0,0.4,0.3,0.4,0.5l-4.2,27.7l25.1-6.7c0.3-0.1,0.5,0.1,0.5,0.3c0.1,0.2-0.1,0.5-0.3,0.5l-25.7,6.9
					C1852.7,1715.2,1852.7,1715.2,1852.6,1715.2z"/>
			</g>
			<g>
				<path class="st27" d="M1845.9,1793.6c-0.1,0-0.3-0.1-0.4-0.2l-13.8-25.4l-24.2,25.5c-0.2,0.2-0.4,0.2-0.6,0
					c-0.2-0.2-0.2-0.4,0-0.6l24.6-25.9c0.1-0.1,0.2-0.2,0.4-0.1c0.1,0,0.3,0.1,0.3,0.2l14.1,25.9c0.1,0.2,0,0.5-0.2,0.6
					C1846.1,1793.6,1846,1793.6,1845.9,1793.6z"/>
			</g>
			<g>
				<path class="st27" d="M1778.4,1770.6c-0.1,0-0.3-0.1-0.3-0.2c-0.1-0.1-0.1-0.3-0.1-0.4l19.6-49.9l-28.4,12.2
					c-0.2,0.1-0.5,0-0.6-0.2c-0.1-0.2,0-0.5,0.2-0.6l29.3-12.6c0.2-0.1,0.3,0,0.5,0.1c0.1,0.1,0.2,0.3,0.1,0.5l-19.7,50.2l52.7-2.9
					c0.2,0,0.4,0.2,0.4,0.4c0,0.2-0.2,0.4-0.4,0.5L1778.4,1770.6C1778.5,1770.6,1778.5,1770.6,1778.4,1770.6z"/>
			</g>
			<g>
				<path class="st27" d="M1875.2,1772.7C1875.2,1772.7,1875.2,1772.7,1875.2,1772.7l-43.4-5c-0.2,0-0.3-0.2-0.4-0.3
					c0-0.2,0.1-0.4,0.2-0.5l54.3-26.6l-33.5-25.1c0,0-0.1-0.1-0.1-0.1l-26.2-35.7l-27.3,40.2c-0.1,0.1-0.2,0.2-0.4,0.2
					c-0.2,0-0.3-0.1-0.3-0.3l-11-25.6c-0.1-0.2,0-0.5,0.2-0.6c0.2-0.1,0.5,0,0.6,0.2l10.7,24.8l27.3-40.1c0.1-0.1,0.2-0.2,0.4-0.2
					c0.1,0,0.3,0.1,0.3,0.2l26.6,36.1l34,25.5c0.1,0.1,0.2,0.2,0.2,0.4c0,0.2-0.1,0.3-0.2,0.3l-53.6,26.3l42,4.8
					c0.2,0,0.4,0.2,0.4,0.5C1875.6,1772.5,1875.5,1772.7,1875.2,1772.7z"/>
			</g>
		</g>
	</g>
	<g>
		
			<image style="overflow:visible;" width="2425" height="3539" xlink:href="C7925A0C.png"  transform="matrix(0.24 0 0 0.24 1556.8953 999.28)">
		</image>
	</g>
</g>
<g>
	<defs>
		<circle id="SVGID_00000046335462212814801800000007484663193515568060_" cx="-139.9" cy="1001.5" r="291.1"/>
	</defs>
	<clipPath id="SVGID_00000048480237115157709540000011925623079402338700_">
		<use xlink:href="#SVGID_00000046335462212814801800000007484663193515568060_"  style="overflow:visible;"/>
	</clipPath>
	<g style="clip-path:url(#SVGID_00000048480237115157709540000011925623079402338700_);">
		
			<image style="overflow:visible;" width="1200" height="628" xlink:href="C7925A0D.jpg"  transform="matrix(1.0638 0 0 1.0638 -524.4042 678.7447)">
		</image>
	</g>
</g>
<path class="st29" d="M2610.1,1778.2h-450.9c-13.7,0-24.8-11.1-24.8-24.8v-352.9c0-13.7,11.1-24.8,24.8-24.8h450.9
	c13.7,0,24.8,11.1,24.8,24.8v352.9C2634.9,1767.1,2623.8,1778.2,2610.1,1778.2z"/>
<image style="overflow:visible;" width="1096" height="880" xlink:href="image-01.png"  transform="matrix(0.9815 0 0 0.9815 -1879.2805 2038.8052)">
</image>
<image style="overflow:visible;" width="5184" height="3456" xlink:href="../../../../../Downloads/shutterstock_133503068.jpg"  transform="matrix(0.1643 0 0 0.1643 539.2553 754.9149)">
</image>
<image style="overflow:visible;" width="1175" height="926" xlink:href="../../../../../Downloads/PHOTO-2022-10-12-12-31-32.jpg"  transform="matrix(0.6257 0 0 0.6257 570.1383 1414.2979)">
</image>
</svg>
