<?xml version="1.0" encoding="utf-8"?>
<!-- Generator: Adobe Illustrator 27.2.0, SVG Export Plug-In . SVG Version: 6.00 Build 0)  -->
<svg version="1.1" id="Layer_1" xmlns="http://www.w3.org/2000/svg" xmlns:xlink="http://www.w3.org/1999/xlink" x="0px" y="0px"
	 viewBox="0 0 115.1 92.5" style="enable-background:new 0 0 115.1 92.5;" xml:space="preserve">
<style type="text/css">
	.st0{clip-path:url(#SVGID_00000025444223104035005070000015556676135941507978_);}
	.st1{fill:#FFFFFF;}
	.st2{clip-path:url(#SVGID_00000089553778408063359750000012380741512932159625_);fill:#65BC7C;}
	.st3{fill:#B299C8;}
	.st4{fill:#F7C577;}
	.st5{fill:#F4AD1B;}
	.st6{fill:#1A2752;}
	.st7{fill:#F0968C;}
	.st8{fill:#5381B9;}
	.st9{fill:#A0ACBE;}
	.st10{fill:#6D93CC;}
	.st11{fill:#60B2C5;}
	.st12{fill:#448045;}
	
		.st13{fill:#F0968C;stroke:#429AD5;stroke-width:0.75;stroke-linecap:round;stroke-miterlimit:10;stroke-dasharray:12,13,14,12,12,15;}
	.st14{fill:#997AB5;}
	.st15{fill:#F6F7F8;}
	.st16{fill:#99D7F5;stroke:#429AD5;stroke-width:0.5;stroke-miterlimit:10;}
	.st17{fill:none;stroke:#429AD5;stroke-width:0.75;stroke-linecap:round;stroke-miterlimit:10;}
	
		.st18{fill:none;stroke:#429AD5;stroke-width:0.75;stroke-linecap:round;stroke-miterlimit:10;stroke-dasharray:7.4309,6.3693,6.3693,7.9616;}
	
		.st19{fill:none;stroke:#429AD5;stroke-width:0.75;stroke-linecap:round;stroke-miterlimit:10;stroke-dasharray:6.3693,6.9001,7.4309,6.3693,6.3693,7.9616;}
	.st20{fill:none;stroke:#FFFFFF;stroke-miterlimit:10;}
	.st21{fill:#429AD5;stroke:#76CAF1;stroke-miterlimit:10;}
	.st22{fill:#97D9F7;stroke:#429AD5;stroke-miterlimit:10;}
	.st23{fill:#F6F7F7;stroke:#BABCBE;stroke-width:0.5;stroke-miterlimit:10;}
	.st24{fill:none;stroke:#429AD5;stroke-miterlimit:10;}
	.st25{fill:none;stroke:#B3E2F4;stroke-miterlimit:10;}
	.st26{fill-rule:evenodd;clip-rule:evenodd;fill:none;stroke:#0075B1;stroke-miterlimit:10;}
	.st27{fill:#0075B1;}
	.st28{fill:none;stroke:#0075B1;stroke-miterlimit:10;}
	.st29{opacity:0.61;fill:#F16653;stroke:#FFFFFF;stroke-width:3;stroke-miterlimit:10;}
</style>
<g>
	<circle class="st28" cx="57.3" cy="48.5" r="34.9"/>
	<g>
		<g>
			<path class="st27" d="M60,43.8c0.6-0.6,1-1.3,1.6-1.9c1.8-1.7,4-2.6,6.4-2.5c1.4,0,2.7,0.1,4.1,0.5c3,0.9,4.8,3,5.6,5.9
				c0.6,2.2,0.7,4.5,0.7,6.8c0,4.8,0,9.6,0,14.5c0,0.5-0.1,0.6-0.6,0.6c-2.5,0-5,0-7.5,0c-0.4,0-0.5-0.1-0.5-0.5c0-4.6,0-9.2,0-13.8
				c0-1.1-0.1-2.3-0.4-3.4c-0.6-2.1-2.1-3.1-4.2-3c-2.9,0.2-4.5,1.6-4.9,4.6c-0.1,0.7-0.1,1.4-0.1,2.2c0,4.5,0,8.9,0,13.4
				c0,0.4-0.1,0.6-0.6,0.6c-2.5,0-5,0-7.5,0c-0.4,0-0.5-0.1-0.5-0.5c0-8.8,0-17.7,0-26.5c0-0.4,0.1-0.5,0.6-0.5c2.4,0,4.8,0,7.1,0
				c0.4,0,0.6,0.1,0.5,0.6C60,41.7,60,42.7,60,43.8z"/>
			<path class="st27" d="M46.4,53.9c0,4.4,0,8.7,0,13.1c0,0.5-0.1,0.6-0.6,0.6c-2.5,0-5,0-7.4,0c-0.4,0-0.5-0.1-0.5-0.5
				c0-8.8,0-17.7,0-26.5c0-0.4,0.1-0.5,0.5-0.5c2.5,0,5,0,7.6,0c0.5,0,0.5,0.2,0.5,0.6C46.4,45.1,46.4,49.5,46.4,53.9z"/>
			<path class="st27" d="M47.1,31.3c0,2.7-2.2,5-5,5c-2.7,0-4.9-2.2-5-4.9c0-2.7,2.2-5,5-5C44.8,26.4,47.1,28.6,47.1,31.3z"/>
		</g>
	</g>
</g>
</svg>
