<?xml version="1.0" encoding="utf-8"?>
<!-- Generator: Adobe Illustrator 27.2.0, SVG Export Plug-In . SVG Version: 6.00 Build 0)  -->
<svg version="1.1" id="Layer_1" xmlns="http://www.w3.org/2000/svg" xmlns:xlink="http://www.w3.org/1999/xlink" x="0px" y="0px"
	 viewBox="10 0 85 90" style="enable-background:new 0 0 115.1 92.5;" xml:space="preserve">
<style type="text/css">
	.st0{clip-path:url(#SVGID_00000127756390266197488380000009900013074772230541_);}
	.st1{fill:#FFFFFF;}
	.st2{clip-path:url(#SVGID_00000110462719989411981770000001077430747982404008_);fill:#65BC7C;}
	.st3{fill:#B299C8;}
	.st4{fill:#F7C577;}
	.st5{fill:#F4AD1B;}
	.st6{fill:#1A2752;}
	.st7{fill:#F0968C;}
	.st8{fill:#5381B9;}
	.st9{fill:#A0ACBE;}
	.st10{fill:#6D93CC;}
	.st11{fill:#60B2C5;}
	.st12{fill:#448045;}
	
		.st13{fill:#F0968C;stroke:#429AD5;stroke-width:0.75;stroke-linecap:round;stroke-miterlimit:10;stroke-dasharray:12,13,14,12,12,15;}
	.st14{fill:#997AB5;}
	.st15{fill:#F6F7F8;}
	.st16{fill:#99D7F5;stroke:#429AD5;stroke-width:0.5;stroke-miterlimit:10;}
	.st17{fill:none;stroke:#429AD5;stroke-width:0.75;stroke-linecap:round;stroke-miterlimit:10;}
	
		.st18{fill:none;stroke:#429AD5;stroke-width:0.75;stroke-linecap:round;stroke-miterlimit:10;stroke-dasharray:7.4309,6.3693,6.3693,7.9616;}
	
		.st19{fill:none;stroke:#429AD5;stroke-width:0.75;stroke-linecap:round;stroke-miterlimit:10;stroke-dasharray:6.3693,6.9001,7.4309,6.3693,6.3693,7.9616;}
	.st20{fill:none;stroke:#FFFFFF;stroke-miterlimit:10;}
	.st21{fill:#429AD5;stroke:#76CAF1;stroke-miterlimit:10;}
	.st22{fill:#97D9F7;stroke:#429AD5;stroke-miterlimit:10;}
	.st23{fill:#F6F7F7;stroke:#BABCBE;stroke-width:0.5;stroke-miterlimit:10;}
	.st24{fill:none;stroke:#429AD5;stroke-miterlimit:10;}
	.st25{fill:none;stroke:#B3E2F4;stroke-miterlimit:10;}
	.st26{fill-rule:evenodd;clip-rule:evenodd;fill:none;stroke:#0075B1;stroke-miterlimit:10;}
	.st27{fill:#0075B1;}
	.st28{fill:none;stroke:#0075B1;stroke-miterlimit:10;}
	.st29{opacity:0.61;fill:#F16653;stroke:#FFFFFF;stroke-width:3;stroke-miterlimit:10;}
</style>
<g>
	<path class="st28" d="M80.3,44.6c0-13.1-10.6-23.7-23.7-23.7S32.8,31.5,32.8,44.6c0,11.8,8.7,21.7,20,23.4V51.5h-6v-6.9h6v-5.2
		c0-5.9,3.5-9.2,9-9.2c2.6,0,5.3,0.5,5.3,0.5v5.8h-3c-2.9,0-3.9,1.8-3.9,3.7v4.5h6.6l-1.1,6.9h-5.5v16.6
		C71.6,66.3,80.3,56.5,80.3,44.6z"/>
	<path class="st27" d="M65.8,51.5l1.1-6.9h-6.6v-4.5c0-1.9,0.9-3.7,3.9-3.7h3v-5.8c0,0-2.7-0.5-5.3-0.5c-5.4,0-9,3.3-9,9.2v5.2h-6
		v6.9h6v16.6c1.2,0.2,2.4,0.3,3.7,0.3c1.3,0,2.5-0.1,3.7-0.3V51.5H65.8z"/>
</g>
</svg>
