<?xml version="1.0" encoding="utf-8"?>
<!-- Generator: Adobe Illustrator 23.0.6, SVG Export Plug-In . SVG Version: 6.00 Build 0)  -->
<svg version="1.1" id="Layer_1" xmlns="http://www.w3.org/2000/svg" xmlns:xlink="http://www.w3.org/1999/xlink" x="0px" y="0px"
	 width="200px" height="50px" viewBox="0 0 943.6 175.8" style="enable-background:new 0 0 943.6 175.8;" xml:space="preserve"
	>
<style type="text/css">
	.st0{fill:#F96731;}
	.st1{fill:#2B9AF3;}
</style>
<g>
	<g>
		<g>
			<g>
				<path d="M5.2,172V1h21v97.6l49.7-50.4h27.2l-47.4,46l52.2,78H81.9l-41-63.4l-14.8,14.2V172H5.2z"/>
				<path d="M257.5,172V48.1h18.9v17.6c9.1-13.6,22.2-20.4,39.4-20.4c7.5,0,14.3,1.3,20.6,4c6.3,2.7,10.9,6.2,14.1,10.6
					c3.1,4.4,5.3,9.5,6.5,15.5c0.8,3.9,1.2,10.7,1.2,20.4V172h-21V96.6c0-8.6-0.8-15-2.5-19.2c-1.6-4.2-4.5-7.6-8.7-10.2
					c-4.2-2.5-9-3.8-14.6-3.8c-8.9,0-16.7,2.8-23.2,8.5c-6.5,5.7-9.7,16.5-9.7,32.3V172H257.5z"/>
				<path d="M475.2,132.1l21.7,2.7c-3.4,12.7-9.8,22.5-19,29.5c-9.3,7-21.1,10.5-35.5,10.5c-18.1,0-32.5-5.6-43.1-16.7
					c-10.6-11.2-15.9-26.8-15.9-47c0-20.8,5.4-37,16.1-48.5c10.7-11.5,24.7-17.3,41.8-17.3c16.6,0,30.1,5.6,40.6,16.9
					c10.5,11.3,15.8,27.2,15.8,47.6c0,1.2,0,3.1-0.1,5.6h-92.4c0.8,13.6,4.6,24,11.6,31.3c6.9,7.2,15.6,10.9,25.9,10.9
					c7.7,0,14.3-2,19.7-6.1C467.7,147.5,472,141,475.2,132.1z M406.2,98.2h69.2c-0.9-10.4-3.6-18.2-7.9-23.5
					c-6.7-8.1-15.4-12.1-26-12.1c-9.6,0-17.8,3.2-24.3,9.7C410.6,78.7,406.9,87.4,406.2,98.2z"/>
				<path d="M604.1,126.6l20.7,2.7c-2.3,14.2-8,25.4-17.3,33.4c-9.3,8-20.7,12.1-34.2,12.1c-17,0-30.6-5.5-40.9-16.6
					c-10.3-11.1-15.5-27-15.5-47.7c0-13.4,2.2-25.1,6.7-35.1s11.2-17.6,20.2-22.6c9.1-5,18.9-7.5,29.6-7.5c13.5,0,24.5,3.4,33,10.2
					c8.6,6.8,14,16.5,16.5,29l-20.4,3.2c-1.9-8.3-5.4-14.6-10.3-18.8c-4.9-4.2-10.9-6.3-17.9-6.3c-10.6,0-19.2,3.8-25.8,11.4
					c-6.6,7.6-9.9,19.6-9.9,36c0,16.6,3.2,28.7,9.6,36.3c6.4,7.5,14.7,11.3,25,11.3c8.2,0,15.1-2.5,20.7-7.6
					C599.2,144.9,602.7,137.1,604.1,126.6z"/>
				<path d="M688.6,153.2l3,18.6c-5.9,1.2-11.2,1.9-15.9,1.9c-7.6,0-13.5-1.2-17.7-3.6s-7.2-5.6-8.9-9.5c-1.7-3.9-2.6-12.2-2.6-24.8
					V64.4h-15.4V48.1h15.4V17.4l20.9-12.6v43.3h21.1v16.3h-21.1v72.5c0,6,0.4,9.8,1.1,11.6c0.7,1.7,1.9,3.1,3.6,4.1
					c1.7,1,4.1,1.5,7.2,1.5C681.7,154.1,684.8,153.8,688.6,153.2z"/>
				<path d="M790,156.7c-7.8,6.6-15.3,11.3-22.5,14c-7.2,2.7-14.9,4.1-23.2,4.1c-13.6,0-24.1-3.3-31.4-10c-7.3-6.7-11-15.2-11-25.5
					c0-6.1,1.4-11.6,4.1-16.6c2.8-5,6.4-9,10.9-12.1c4.5-3,9.5-5.3,15.1-6.9c4.1-1.1,10.3-2.1,18.7-3.2c17-2,29.4-4.4,37.5-7.2
					c0.1-2.9,0.1-4.7,0.1-5.5c0-8.6-2-14.6-6-18.1c-5.4-4.7-13.3-7.1-23.9-7.1c-9.9,0-17.2,1.7-21.9,5.2c-4.7,3.5-8.2,9.6-10.4,18.4
					l-20.5-2.8c1.9-8.8,4.9-15.9,9.2-21.3c4.3-5.4,10.5-9.6,18.6-12.5c8.1-2.9,17.5-4.4,28.1-4.4c10.6,0,19.2,1.2,25.8,3.7
					c6.6,2.5,11.5,5.6,14.6,9.4c3.1,3.8,5.3,8.5,6.5,14.3c0.7,3.6,1.1,10,1.1,19.4v28c0,19.5,0.4,31.9,1.3,37.1
					c0.9,5.2,2.7,10.1,5.3,14.9h-21.9C792.1,167.7,790.7,162.6,790,156.7z M788.3,109.8c-7.6,3.1-19.1,5.8-34.3,7.9
					c-8.6,1.2-14.7,2.6-18.3,4.2c-3.6,1.6-6.3,3.8-8.3,6.8c-1.9,3-2.9,6.3-2.9,10c0,5.6,2.1,10.3,6.4,14c4.2,3.7,10.4,5.6,18.6,5.6
					c8.1,0,15.3-1.8,21.6-5.3c6.3-3.5,10.9-8.4,13.9-14.5c2.3-4.7,3.4-11.7,3.4-21V109.8z"/>
				<path d="M841.8,172V48.1h18.9v18.8c4.8-8.8,9.3-14.6,13.4-17.4s8.6-4.2,13.5-4.2c7.1,0,14.3,2.3,21.6,6.8l-7.2,19.5
					c-5.1-3-10.3-4.6-15.4-4.6c-4.6,0-8.7,1.4-12.4,4.1c-3.7,2.8-6.3,6.6-7.8,11.5c-2.3,7.5-3.5,15.6-3.5,24.5V172H841.8z"/>
				<g>
					<circle class="st0" cx="174.7" cy="160.2" r="11.8"/>
					<circle class="st0" cx="174.7" cy="57.1" r="11.8"/>
					<path class="st1" d="M163.1,147.3c-16.6-5-28.7-20.4-28.7-38.6c0-18.2,12.1-33.6,28.7-38.6c-3.5-3.2-5.8-7.8-5.8-12.9
						c0-3.3,0.9-6.3,2.5-8.9c0,0,0-0.1,0,0c-27.2,6.7-47.4,31.3-47.4,60.5c0,29.2,20.2,53.8,47.4,60.5c0,0,0.1,0,0,0
						c-1.6-2.6-2.5-5.7-2.5-8.9C157.3,155.1,159.5,150.5,163.1,147.3z"/>
					<path class="st1" d="M189.7,48.1c1.6,2.6,2.5,5.7,2.5,9c0,5.1-2.2,9.7-5.8,12.9c16.6,5,28.7,20.4,28.7,38.6
						c0,18.2-12.1,33.6-28.7,38.6c3.5,3.2,5.8,7.8,5.8,12.9c0,3.3-0.9,6.4-2.5,9c27.2-6.7,47.5-31.3,47.5-60.5
						C237.1,79.4,216.9,54.8,189.7,48.1z"/>
				</g>
			</g>
		</g>
	</g>
	<g>
		<path d="M941.2,24.3c0,11.4-8.9,20.3-20.6,20.3c-11.5,0-20.7-8.9-20.7-20.3c0-11.1,9.2-20.1,20.7-20.1
			C932.3,4.3,941.2,13.2,941.2,24.3z M905.1,24.3c0,8.9,6.6,16,15.7,16c8.8,0,15.3-7.1,15.3-15.9c0-8.9-6.5-16.2-15.4-16.2
			C911.8,8.3,905.1,15.5,905.1,24.3z M917.5,34.9h-4.6V14.8c1.8-0.4,4.4-0.6,7.7-0.6c3.8,0,5.5,0.6,7,1.5c1.1,0.9,2,2.4,2,4.4
			c0,2.2-1.7,3.9-4.2,4.6V25c2,0.7,3.1,2.2,3.7,4.9c0.6,3.1,1,4.3,1.5,5h-5c-0.6-0.7-1-2.6-1.6-4.9c-0.4-2.2-1.6-3.2-4.2-3.2h-2.2
			V34.9z M917.6,23.5h2.2c2.6,0,4.6-0.9,4.6-2.9c0-1.8-1.3-3.1-4.3-3.1c-1.2,0-2.1,0.1-2.6,0.2V23.5z"/>
	</g>
</g>
</svg>
