<?xml version="1.0" encoding="utf-8"?>
<!-- Generator: Adobe Illustrator 21.1.0, SVG Export Plug-In . SVG Version: 6.00 Build 0)  -->
<svg version="1.1" id="Layer_1" xmlns="http://www.w3.org/2000/svg" xmlns:xlink="http://www.w3.org/1999/xlink" x="0px" y="0px"
	 viewBox="0 0 98 75" style="enable-background:new 0 0 98 75;" xml:space="preserve">
<style type="text/css">
	.st0{fill:#25668E;}
	.st1{fill:#363539;}
	.st2{fill:#F0EFF4;}
	.st3{fill:#F96731;}
	.st4{fill:#2B9AF3;}
</style>
<g>
	<path class="st0" d="M9.1,13.3c-0.1,0.4-0.2,0.8-0.3,1.2c0,0.2-0.1,0.2-0.2,0.1c-0.5-0.3-0.9-0.5-1.3-0.9c-0.2-0.2,0-0.4,0-0.6
		c0.2-0.9,0.4-1.7,0.6-2.6c0.1-0.4,0.3-0.8,0.5-1.1c0.3-0.3,0.6-0.4,1-0.4c0.4,0,0.8,0,1.2,0c0.2,0,0.3,0,0.4,0.3
		c0,0.3,0.2,0.3,0.5,0.3c0.1,0,0.3,0,0.5,0c0.2,0,0.4,0,0.4-0.3c0-0.3,0.2-0.3,0.4-0.3c0.4,0,0.8,0,1.2,0c0.9,0,1.4,0.7,1.5,1.3
		c0.2,0.9,0.4,1.9,0.7,2.8c0.1,0.3,0,0.6-0.2,0.7c-0.3,0.2-0.7,0.4-1,0.6c-0.2,0.1-0.3,0.2-0.4-0.1c-0.1-0.4-0.2-0.7-0.2-1.2
		c-0.2,0.3-0.1,0.6-0.1,0.8c0,0.9,0,0.9-0.9,1.2c-1.3,0.3-2.5,0.3-3.8-0.1c-0.3-0.1-0.4-0.2-0.4-0.5C9.1,14.2,9.2,13.8,9.1,13.3z"/>
	<path class="st0" d="M40,13.8c0,0.5-0.2,1-0.3,1.5c-0.6-0.2-1-0.6-1.5-0.9c-0.2-0.2-0.1-0.4,0-0.6c0.3-0.9,0.5-1.8,0.6-2.8
		c0.1-0.6,0.5-1.1,1.1-1.3c0.2-0.1,0.4,0,0.6,0c0.3,0,0.5,0,0.8,0c0.3,0,0.5,0,0.6,0.4c0,0.2,0.1,0.3,0.3,0.2c0.2,0,0.3,0,0.5,0
		c0.3,0,0.4-0.1,0.5-0.3c0-0.2,0.2-0.3,0.4-0.3c0.4,0,0.8,0,1.1,0c0.8,0,1.4,0.6,1.5,1.3c0.2,1,0.4,1.9,0.7,2.8
		c0.1,0.3,0.1,0.5-0.2,0.7c-0.4,0.3-0.8,0.6-1.3,0.8c-0.1-0.5-0.3-1-0.3-1.5c-0.2,0.1-0.1,0.3-0.1,0.4c0,0.3,0,0.6,0,1
		c0,0.3-0.1,0.4-0.3,0.5c-1.5,0.5-2.9,0.5-4.4,0c-0.2-0.1-0.2-0.2-0.2-0.3c0-0.4,0-0.7,0-1.1C40.1,14.1,40.1,13.9,40,13.8z"/>
	<path class="st0" d="M68.6,15c-0.1,0.4-0.2,0.8-0.3,1.2c0,0.2-0.1,0.3-0.3,0.2c-0.4-0.2-0.7-0.5-1.1-0.7c-0.3-0.2-0.4-0.4-0.2-0.8
		c0.3-0.9,0.5-1.7,0.6-2.6c0.1-0.4,0.2-0.7,0.5-1c0.3-0.3,0.6-0.5,1-0.5c0.4,0,0.8,0,1.3,0c0.2,0,0.3,0.1,0.4,0.3
		c0.1,0.3,0.2,0.4,0.5,0.4c0.1,0,0.3,0,0.4,0c0.2,0,0.3-0.1,0.4-0.3c0.1-0.3,0.2-0.4,0.5-0.4c0.4,0,0.7,0,1.1,0
		c0.8,0,1.4,0.6,1.5,1.3c0.2,1,0.4,1.9,0.7,2.8c0.1,0.3,0.1,0.5-0.2,0.7c-0.4,0.3-0.8,0.6-1.3,0.8c-0.1-0.5-0.3-1-0.3-1.6
		c-0.2,0.4-0.1,0.7-0.1,1c0,0.9,0,0.9-0.9,1.1c-1.3,0.3-2.6,0.3-3.9-0.2c-0.2-0.1-0.2-0.2-0.2-0.4C68.7,15.9,68.8,15.5,68.6,15z"/>
	<path class="st0" d="M18.1,10.5c0,0.4,0,0.8,0,1.2c0,0.3-0.1,0.5-0.4,0.6c-0.4,0.1-0.8,0.2-1.1,0.3c-0.2,0.1-0.3,0-0.4-0.2
		c-0.1-0.6-0.3-1.2-0.4-1.7c-0.1-0.8-0.8-1.9-2-1.8c-0.3,0-0.6,0-0.9,0c0-0.2,0.2-0.2,0.3-0.3c0.5-0.5,0.8-1.1,0.8-1.8
		c0-0.1-0.1-0.4,0.2-0.3c0.2,0,0.6-0.2,0.7,0.2c0.1,0.3,0.3,0.4,0.6,0.4c0.1,0,0.3,0,0.4,0c0.2,0,0.4-0.1,0.4-0.3
		c0-0.3,0.2-0.3,0.4-0.3c0.3,0,0.6,0,1,0c1-0.1,1.6,0.5,1.8,1.4c0.2,0.8,0.3,1.7,0.6,2.5c0,0,0,0.1,0,0.1c0.3,0.6,0,0.9-0.5,1.1
		c-0.3,0.1-0.5,0.3-0.7,0.5c-0.2,0.2-0.3,0.1-0.3-0.2C18.4,11.2,18.3,10.8,18.1,10.5C18.2,10.5,18.2,10.5,18.1,10.5z"/>
	<path class="st0" d="M65.8,7.6c-0.3,0-0.6,0-0.9,0c-1-0.1-1.6,0.7-1.8,1.4c-0.2,0.7-0.3,1.4-0.5,2.1c0,0.3-0.2,0.3-0.4,0.3
		c-0.4-0.1-0.9-0.2-1.3-0.3c-0.2-0.1-0.3-0.5-0.2-0.9c0.1-0.4,0.1-0.6-0.2-0.8c-0.1,0.4-0.1,0.8-0.2,1.2c-0.1,0.2-0.1,0.2-0.3,0.1
		c-0.5-0.2-0.8-0.6-1.3-0.9c-0.2-0.1-0.1-0.4,0-0.6c0.3-0.9,0.5-1.8,0.6-2.8c0.1-0.6,0.5-1.1,1.1-1.3c0.2-0.1,0.4,0,0.6,0
		c0.3,0,0.6,0,0.8,0c0.3,0,0.4,0,0.5,0.3c0,0.2,0.2,0.3,0.4,0.3c0.1,0,0.3,0,0.5,0c0.3,0,0.4-0.1,0.5-0.3C64,5.1,64.4,5,64.7,5.1
		c0.1,0,0.1,0.1,0.1,0.2c0,0.9,0.3,1.6,1,2.1C65.8,7.5,65.8,7.5,65.8,7.6z"/>
	<path class="st0" d="M64.6,12.2c-0.1,0.4-0.1,0.8-0.2,1.1c0,0.3-0.1,0.4-0.4,0.2c-0.4-0.3-0.8-0.5-1.2-0.8
		c-0.1-0.1-0.2-0.1-0.1-0.3c0.3-1.1,0.5-2.3,0.8-3.4c0.2-0.6,0.7-1,1.4-1c0.4,0,0.8,0,1.2,0c0.2,0,0.3,0,0.4,0.3
		c0,0.2,0.1,0.3,0.4,0.3c0.2,0,0.4,0,0.5,0c0.3,0,0.4-0.1,0.5-0.4C68,7.8,68.4,8,68.6,8c0.2,0,0.2,0.1,0.2,0.3
		c0,0.8,0.3,1.4,0.9,1.9c0.1,0.1,0.1,0.1,0.2,0.2c-0.4,0-0.7,0-1,0c-1.1,0-1.8,0.9-2,1.8c-0.1,0.6-0.2,1.2-0.4,1.8
		c0,0.2-0.2,0.3-0.4,0.2c-0.4-0.1-0.9-0.2-1.3-0.3c-0.2-0.1-0.3-0.2-0.3-0.4C64.7,13.1,64.7,12.6,64.6,12.2
		C64.7,12.2,64.6,12.2,64.6,12.2z"/>
	<path class="st0" d="M41.3,9.3c-0.4,0-0.6,0-0.9,0c-1.2,0-1.8,0.9-2,1.8c-0.1,0.6-0.2,1.2-0.4,1.8c0,0.2-0.1,0.3-0.3,0.2
		c-0.5-0.1-0.9-0.2-1.4-0.4c-0.2-0.1-0.2-0.2-0.2-0.3c0-0.5,0-0.9,0-1.4c-0.1,0.3-0.2,0.7-0.2,1c-0.1,0.4-0.1,0.5-0.5,0.2
		c-0.4-0.2-0.8-0.5-1.1-0.7c-0.1-0.1-0.2-0.1-0.1-0.3c0.4-1.1,0.5-2.3,0.9-3.5c0.2-0.6,0.7-1,1.3-1c0.4,0,0.9,0,1.3,0
		c0.2,0,0.3,0.1,0.4,0.3c0,0.2,0.2,0.3,0.4,0.3c0.2,0,0.4,0,0.5,0c0.3,0,0.4-0.1,0.5-0.3c0.1-0.4,0.5-0.2,0.7-0.2
		c0.3,0,0.2,0.2,0.2,0.3C40.1,8,40.4,8.6,41,9C41.1,9.1,41.2,9.2,41.3,9.3z"/>
	<path class="st0" d="M72.5,10.4c0.4-0.3,0.7-0.6,0.9-1c0.2-0.4,0.3-0.7,0.2-1.1C73.6,8,73.7,8,73.9,8c0.3,0,0.7-0.1,0.7,0.4
		c0,0.1,0.1,0.2,0.3,0.2c0.2,0,0.4,0,0.6,0c0.3,0,0.4,0,0.4-0.3C75.9,8,76.1,8,76.2,8c0.4,0,0.9,0,1.3,0c0.7,0,1.1,0.4,1.4,1
		c0.3,0.6,0.2,1.3,0.4,1.9c0.2,0.5,0.2,0.9,0.4,1.4c0.1,0.2,0,0.4-0.1,0.5c-0.4,0.3-0.8,0.5-1.2,0.8c-0.2,0.1-0.3,0.1-0.3-0.1
		c-0.1-0.4-0.2-0.8-0.3-1.2c0,0.5,0,0.9,0,1.4c0,0.2,0,0.3-0.2,0.4c-0.4,0.1-0.9,0.3-1.4,0.4c-0.2,0-0.3,0-0.3-0.2
		c-0.1-0.5-0.3-1-0.3-1.6c-0.2-1.3-1-2.2-2.3-2.1C73,10.4,72.8,10.4,72.5,10.4z"/>
	<path class="st0" d="M49.1,11c0,0.5,0,0.9,0,1.4c0,0.2,0,0.3-0.2,0.3c-0.5,0.2-0.9,0.3-1.4,0.4c-0.2,0-0.3,0-0.3-0.2
		c-0.1-0.5-0.3-1-0.3-1.6c-0.2-1.3-1-2.2-2.3-2.1c-0.2,0-0.4,0-0.6,0c0.4-0.4,0.7-0.7,0.9-1.1c0.1-0.3,0.2-0.6,0.2-1
		c0-0.1-0.1-0.4,0.2-0.3c0.2,0,0.6-0.2,0.7,0.2c0.1,0.3,0.2,0.4,0.5,0.4c0.2,0,0.3,0,0.5,0c0.2,0,0.4-0.1,0.4-0.3
		c0-0.2,0.1-0.2,0.3-0.2c0.5,0,1,0,1.5,0c0.8,0.1,1.2,0.6,1.3,1.3c0.2,1,0.4,2.1,0.7,3.1c0,0.1,0,0.2-0.1,0.3
		c-0.4,0.3-0.8,0.6-1.3,0.9c-0.2,0.1-0.2,0-0.3-0.1C49.3,11.8,49.2,11.4,49.1,11C49.1,11,49.1,11,49.1,11z"/>
	<path class="st0" d="M82.1,10.7c-0.1-0.5-0.3-1-0.3-1.6c-0.2,0.4-0.1,0.7-0.1,1c0,0.9,0,0.9-0.9,1.1c-0.9,0.2-0.9,0.2-1.1-0.7
		c-0.1-0.5-0.2-1-0.3-1.4c-0.3-1-0.9-1.5-2-1.5c-0.3,0-0.6,0.1-0.7-0.1c-0.1-0.2,0.3-0.3,0.4-0.5c0.4-0.5,0.6-1,0.6-1.6
		c0-0.1-0.1-0.4,0.2-0.3c0.2,0,0.5-0.2,0.7,0.2c0.1,0.1,0.1,0.4,0.3,0.4c0.3,0,0.6,0,1,0c0.1,0,0.1-0.1,0.2-0.2
		c0.1-0.3,0.3-0.4,0.5-0.4c0.3,0,0.7,0,1,0c0.8,0,1.4,0.6,1.5,1.3c0.2,1,0.4,1.9,0.7,2.8c0.1,0.3,0,0.5-0.3,0.7
		C83,10.2,82.6,10.5,82.1,10.7z"/>
	<path class="st0" d="M13.6,6.6c0,1.1-0.9,2-2,2c-1,0-1.9-0.9-1.9-2c0-1.1,0.9-2,2-2C12.7,4.6,13.6,5.5,13.6,6.6z"/>
	<path class="st0" d="M77.3,2.6c0-1.1,0.9-2.1,2-2c1,0,1.9,1,1.9,2c0,1.1-0.9,2-1.9,2C78.2,4.6,77.3,3.7,77.3,2.6z"/>
	<path class="st0" d="M40.6,7.2c0-1.1,0.9-2.1,2-2.1c1,0,1.9,1,1.9,2c0,1.1-0.9,2.1-1.9,2.1C41.5,9.2,40.6,8.3,40.6,7.2z"/>
	<path class="st0" d="M61.3,2.6c0-1.1,0.9-2,1.9-2c1,0,1.9,1,1.9,2.1c0,1.1-0.9,2-2,2C62.1,4.6,61.3,3.6,61.3,2.6z"/>
	<path class="st0" d="M73.2,2.6c0,1.1-0.9,2-1.9,2c-1,0-1.9-0.9-2-2c0-1.1,0.9-2.1,1.9-2.1C72.2,0.5,73.2,1.5,73.2,2.6z"/>
	<path class="st0" d="M73.2,8.3c0,1.1-0.9,2-1.9,2c-1.1,0-1.9-1-1.9-2.1c0-1.1,0.9-2,2-2C72.3,6.3,73.2,7.2,73.2,8.3z"/>
	<path class="st0" d="M48.5,4.3c0,1.1-0.8,2-1.9,2c-1.1,0-1.9-0.9-1.9-2c0-1.1,0.8-2,1.9-2C47.6,2.3,48.5,3.1,48.5,4.3z"/>
	<path class="st0" d="M75.3,3.4c1.1,0,1.9,1,1.9,2.1c0,1.1-0.9,2-2,2c-1.1,0-1.9-1-1.9-2.1C73.3,4.3,74.2,3.4,75.3,3.4z"/>
	<path class="st0" d="M40.5,4.3c0,1.1-0.9,2-1.9,2c-1.1,0-1.9-0.9-1.9-2c0-1.1,0.9-2,1.9-2C39.6,2.3,40.5,3.2,40.5,4.3z"/>
	<path class="st0" d="M67.2,7.5c-1.2,0-2.1-1.1-1.9-2.3c0.1-0.4,0.2-0.9,0.5-1.2c0.1-0.1,0.2-0.3,0.5-0.2c0.1,0,0.2,0,0.2-0.1
		c0-0.3,0.2-0.3,0.4-0.3c1.4-0.2,2.4,1.1,2.2,2.3C68.9,6.8,68.2,7.5,67.2,7.5z"/>
	<path class="st0" d="M15.5,5.8c-0.3,0-0.7-0.1-1-0.5c-0.3-0.4-0.7-0.7-0.8-1.2C13.6,3.3,14,2.4,14.7,2c0.6-0.4,1.4-0.4,2,0
		c0.2,0.2,0.2,0.5,0.4,0.6c0.2,0.2,0.4,0.5,0.5,0.8C17.7,4.6,16.8,5.8,15.5,5.8z M15.8,3.1c-0.1,0.1-0.1,0.1-0.2,0.1
		c-0.1,0.1,0,0.4-0.1,0.5c-0.2,0-0.3-0.2-0.4-0.4c0,0-0.1-0.1-0.2,0c-0.1,0.1,0,0.1,0,0.2c0.2,0.3,0.4,0.5,0.7,0.8
		c0.1,0.1,0.1,0.2,0.2,0.1c0.1-0.1,0-0.2-0.1-0.2c0-0.1-0.1-0.2,0-0.2c0.1-0.1,0.2,0,0.2,0c0.1,0,0.3,0.2,0.4,0
		C16.1,3.7,15.5,3.8,15.8,3.1z M16.9,3.2c0,0.1,0,0.2-0.1,0.2c-0.1,0-0.2,0-0.2-0.1c-0.1-0.1-0.2-0.3-0.3-0.4c0-0.1-0.1-0.1-0.2-0.1
		C15.9,3,16,3,16,3.1c0.1,0.2,0.3,0.3,0.4,0.5c0.1,0.1,0.2,0.2,0.4,0.1c0.4-0.2,0.5-0.4,0.2-0.8c0,0,0,0,0-0.1
		c-0.1-0.1-0.2-0.4-0.4-0.3c-0.2,0.1,0.1,0.3,0.2,0.4C16.8,3,16.9,3.1,16.9,3.2z M15.5,4.6c-0.2-0.2-0.3-0.4-0.4-0.5
		C15,4,14.9,3.9,14.7,4c-0.2,0.1-0.3,0.3-0.5,0.4c0,0,0,0.1,0,0.1c0.2,0.2,0.3,0.4,0.5,0.6c0,0,0.1,0.1,0.2,0C15,5.1,15,5,14.9,5
		c-0.1-0.1-0.2-0.3-0.3-0.4c-0.1-0.1-0.1-0.2,0-0.3c0.1-0.1,0.2,0,0.3,0.1c0.1,0.1,0.2,0.3,0.3,0.4C15.4,4.7,15.4,4.8,15.5,4.6
		C15.5,4.7,15.5,4.7,15.5,4.6z"/>
	<path class="st0" d="M69.4,6.6c0.1-0.5,0.2-0.9,0.2-1.3c0-0.1,0-0.1,0.1-0.1c0.3-0.1,0.7,0,0.8,0.4c0.1,0.2,0.2,0.3,0.4,0.2
		c0.1,0,0.3,0,0.4,0c0.3,0,0.5,0,0.6-0.4c0.1-0.4,0.5-0.2,0.7-0.2c0.3,0,0.2,0.2,0.2,0.4c0,0.4,0.1,0.7,0.3,1.1
		C71.9,5.6,70.7,5.6,69.4,6.6z"/>
	<path class="st0" d="M69.1,7.1C69,7.3,69,7.6,68.7,7.6c0,0-0.1,0-0.1,0c0,0,0-0.1,0-0.1C68.8,7.4,68.8,7.2,69.1,7.1z"/>
	<path class="st0" d="M73.9,7.6c-0.4,0.1-0.4-0.2-0.5-0.4C73.6,7.3,73.8,7.3,73.9,7.6z"/>
	<path class="st0" d="M7,41.9C6.9,42.4,7,42.8,7,43.2c0,0.3-0.1,0.5-0.4,0.6c-1.4,0.4-2.8,0.4-4.2,0C2.1,43.7,2,43.5,2,43.2
		c0-0.4,0-0.8-0.1-1.2c-0.1,0.4-0.2,0.8-0.3,1.2c0,0.3-0.1,0.2-0.3,0.1c-0.4-0.2-0.8-0.5-1.2-0.8C0,42.4,0,42.3,0,42.1
		c0.1-0.4,0.2-0.7,0.3-1.1c0.2-0.6,0.3-1.3,0.4-1.9c0.2-0.6,0.6-1.3,1.5-1.3c0.4,0,0.8,0,1.2,0c0.2,0,0.3,0.1,0.4,0.3
		c0,0.2,0.2,0.3,0.4,0.3c0.1,0,0.3,0,0.5,0c0.3,0,0.4-0.1,0.5-0.3c0-0.2,0.2-0.3,0.4-0.3c0.4,0,0.8,0,1.3,0c0.9,0,1.3,0.7,1.5,1.3
		C8.5,40,8.6,41,8.9,41.9C9,42.2,9,42.5,8.6,42.7c-0.3,0.2-0.7,0.4-1,0.6c-0.2,0.1-0.3,0.1-0.3-0.1C7.3,42.8,7.2,42.4,7,41.9z
		 M5.5,41.1c-0.1-0.3-0.1-0.6-0.2-0.8c-0.1-0.3-0.1-0.6-0.1-0.8c-0.2-0.8-0.2-0.8-1-0.8c-0.2,0-0.2,0.1-0.3,0.2
		c-0.2,0.9-0.3,1.8-0.5,2.8c0,0.1,0,0.2,0.1,0.3c0.3,0.2,0.6,0.5,0.9,0.7c0.1,0.1,0.1,0.1,0.2,0c0.3-0.2,0.6-0.4,0.8-0.6
		c0.1-0.1,0.1-0.5,0-0.5c-0.6-0.1-1.1-0.6-1.6-0.8c-0.1,0-0.1-0.1-0.1-0.2c0-0.1,0.1-0.1,0.2,0c0.4,0.3,0.9,0.5,1.3,0.8
		c0.1,0,0.1,0.1,0.2,0.1C5.5,41.2,5.5,41.2,5.5,41.1z"/>
	<path class="st0" d="M5.8,37.4c0-0.2,0.1-0.2,0.2-0.3c0.5-0.5,0.9-1.1,0.9-1.9c0-0.1-0.1-0.4,0.2-0.3c0.2,0,0.6-0.2,0.7,0.2
		c0.1,0.3,0.2,0.4,0.6,0.4c0.1,0,0.3,0,0.4,0c0.2,0,0.4-0.1,0.4-0.3c0-0.3,0.2-0.3,0.4-0.3c0.4,0,0.8,0,1.1,0c0.7,0,1.2,0.4,1.4,1
		c0.2,0.6,0.2,1.3,0.4,1.9c0.2,0.5,0.2,1,0.4,1.4c0.1,0.2,0,0.3-0.1,0.5c-0.4,0.3-0.8,0.5-1.2,0.8c-0.3,0.2-0.3,0-0.4-0.2
		c-0.1-0.4-0.1-0.8-0.3-1.1c0,0.5,0,0.9,0,1.4c0,0.2-0.1,0.3-0.3,0.4c-0.4,0.1-0.8,0.2-1.2,0.3c-0.2,0.1-0.4,0-0.4-0.2
		c0-0.2-0.1-0.5-0.2-0.7c-0.2-0.5-0.1-0.9,0.4-1.1c0.3-0.1,0.3-0.3,0.2-0.6c-0.2-0.7-0.3-1.5-0.4-2.2c-0.1-0.5-0.1-0.5-0.6-0.5
		c-0.7,0-0.7,0-0.8,0.7c0,0.3,0,0.6-0.2,0.8c-0.2,0.3-0.5,0-0.8,0C6.5,37.4,6.2,37.4,5.8,37.4z"/>
	<path class="st0" d="M8.5,34.4c-1,0-1.9-1-1.9-2.1c0-1.1,0.9-2,1.9-2c1,0,1.9,1,1.9,2.1C10.4,33.5,9.5,34.4,8.5,34.4z"/>
	<path class="st0" d="M2.6,35.2c0-1.1,0.9-2,1.9-2c1.1,0,1.9,0.9,1.9,2c0,1.1-0.9,2-1.9,2C3.4,37.3,2.6,36.3,2.6,35.2z"/>
	<path class="st0" d="M7.8,37.5c0.6,0.3,1.2,0.5,1.6,1C8.8,38.3,8.2,38,7.8,37.5z"/>
	<path class="st0" d="M9.2,37.6c0,0.1-0.1,0.1-0.1,0.1C8.7,37.4,8.3,37.2,8,37c-0.1,0-0.1-0.1,0-0.2c0-0.1,0.1-0.1,0.1,0
		c0.3,0.2,0.7,0.4,1,0.6C9.2,37.4,9.2,37.5,9.2,37.6z"/>
	<path class="st0" d="M9,36.8c-0.3-0.2-0.6-0.4-0.9-0.6c0,0,0-0.1,0-0.1c0,0,0.1,0,0.1,0c0.3,0.2,0.6,0.3,0.9,0.5c0,0,0,0.1,0,0.1
		C9.1,36.7,9,36.7,9,36.8z"/>
	<path class="st1" d="M8.7,38.8c0.1,0,0.2,0.1,0.2,0.1C9,39,9.1,39,9.1,39.1c0,0,0,0.1-0.1,0.1c-0.1,0-0.2-0.1-0.3-0.1
		C8.7,39,8.6,38.9,8.7,38.8z"/>
	<path class="st0" d="M13.8,69.8c-0.1,0.6-0.1,1.2-0.2,1.9c0,0.2,0.1,0.3,0.2,0.5c0.1,0.2,0,0.2-0.1,0.3c-1.3,0.4-2.7,0.4-4,0
		c-0.1,0-0.2-0.1-0.2-0.2c0.4-0.7,0-1.4,0-2.2c0-0.1,0-0.2-0.1-0.4c-0.2,0.5-0.5,0.9-0.7,1.2c-0.1,0.1-0.1,0.2-0.2,0.3
		c-0.3,0.6-0.3,0.6-0.9,0.2c-0.3-0.2-0.6-0.4-0.7-0.6c-0.1-0.3,0.2-0.6,0.4-0.9c0.5-0.9,1-1.8,1.4-2.7c0.4-0.6,1.2-1,1.9-0.9
		c0.2,0,0.2,0.1,0.3,0.3c0.1,0.2,0.2,0.3,0.4,0.3c0.1,0,0.3,0,0.4,0c0.3,0,0.5,0,0.6-0.3c0-0.1,0.1-0.2,0.3-0.2
		c0.7-0.1,1.5,0.3,1.9,1c0.6,1,1.2,2.1,1.7,3.1c0,0.1,0.1,0.2,0.1,0.2c0,0.1,0,0.1-0.1,0.1c-0.1,0-0.1,0-0.1,0
		c-0.4-0.3-0.8-0.1-0.8,0.4c0,0.1,0,0.2,0,0.2c0,0.1-0.1,0.3-0.2,0.3c-0.2,0-0.2-0.1-0.3-0.2c-0.3-0.6-0.6-1.1-0.8-1.7
		C13.9,69.8,13.9,69.8,13.8,69.8z M11.6,67.3c-0.6,0-0.6,0-0.7,0.6c-0.1,0.8-0.3,1.6-0.4,2.4c0,0.2,0,0.3,0.2,0.4
		c0.3,0.2,0.6,0.6,0.9,0.6c0.3,0,0.6-0.4,0.9-0.6c0,0,0.1,0,0.1-0.1c0.1-0.1,0.1-0.2,0.1-0.3c-0.2-0.8-0.3-1.6-0.4-2.4
		C12.2,67.3,12.2,67.3,11.6,67.3z"/>
	<path class="st0" d="M17.9,66.9c-0.1,0-0.1,0.1-0.1,0.2c-0.1,0.5-0.1,1.1-0.1,1.6c0,0.1,0,0.2,0.1,0.3c0.2,0.5,0.2,0.5-0.3,0.6
		c0,0,0,0-0.1,0c-0.9,0.2-0.9,0.2-1.4-0.7c-0.1-0.2-0.2-0.4-0.3-0.6c0.5-0.2,0.8-0.5,1.2-0.8c0.1-0.1,0-0.2,0-0.3
		c-0.1-0.8-0.3-1.6-0.4-2.5c-0.1-0.3-0.2-0.4-0.5-0.4c-0.8,0-0.8,0-0.9,0.8c-0.1,0.5-0.2,0.9-0.2,1.4c0,0.2-0.1,0.2-0.3,0.1
		C14,66.3,13.6,66,13,66c0-0.1,0-0.1,0.1-0.2c0.6-0.5,1-1.1,1-1.9c0-0.2,0-0.4,0.2-0.4c0.2,0,0.6-0.2,0.7,0.3c0,0.3,0.2,0.4,0.5,0.3
		c0.2,0,0.3,0,0.5,0c0.3,0,0.4-0.1,0.5-0.3c0-0.2,0.2-0.3,0.4-0.3c0.8,0,1.4,0.3,1.8,1c0.6,1,1.1,2.1,1.7,3.1
		c0.1,0.2,0.1,0.4-0.1,0.5c-0.3,0.2-0.6,0.5-1,0.7c-0.2,0.1-0.2,0.1-0.3-0.1C18.5,68.1,18.2,67.5,17.9,66.9z"/>
	<path class="st0" d="M15.6,63.1c-1,0-1.9-0.9-1.9-2c0-1.1,0.9-2,1.9-2c1,0,1.9,0.9,1.9,2.1C17.6,62.1,16.7,63.1,15.6,63.1z"/>
	<path class="st0" d="M9.7,63.9c0-1.1,0.9-2,2-2c1.1,0,1.9,0.9,1.9,2c0,1.1-0.9,2-2,2C10.6,65.9,9.7,65,9.7,63.9z"/>
	<path class="st0" d="M16.3,67.7c0,0.1-0.1,0.1-0.2,0.1c-0.4-0.2-0.8-0.5-1.2-0.7c-0.1,0-0.1-0.1-0.1-0.2c0-0.1,0.1,0,0.2,0
		C15.4,67.2,15.8,67.4,16.3,67.7C16.2,67.7,16.2,67.7,16.3,67.7z"/>
	<path class="st0" d="M16.4,66.2c0,0.1-0.1,0.1-0.2,0.1c-0.3-0.2-0.7-0.4-1-0.6c-0.1,0-0.2-0.1-0.1-0.2c0.1-0.1,0.2,0,0.2,0.1
		c0.3,0.2,0.6,0.4,0.9,0.5C16.3,66.1,16.4,66.1,16.4,66.2z"/>
	<path class="st0" d="M16.5,67.3c-0.4-0.2-0.8-0.4-1.2-0.7c0,0-0.1-0.1-0.1-0.1c0-0.1,0.1-0.1,0.1-0.1c0.4,0.2,0.8,0.4,1.1,0.7
		C16.6,67.1,16.5,67.2,16.5,67.3z"/>
	<path class="st0" d="M16.2,65.3c0,0.2-0.1,0.1-0.2,0.1c-0.3-0.1-0.5-0.3-0.8-0.5c-0.1,0-0.1-0.1-0.1-0.2c0-0.1,0.1,0,0.2,0
		c0.3,0.2,0.5,0.3,0.8,0.5C16.2,65.2,16.2,65.2,16.2,65.3z"/>
	<path class="st0" d="M44.7,70.4c-0.1,0.6-0.1,1.2-0.2,1.8c0,0.1,0,0.2,0.1,0.3c0.2,0.4,0.2,0.5-0.3,0.6c-1.2,0.3-2.4,0.3-3.6-0.1
		c-0.2-0.1-0.3-0.1-0.2-0.4c0.1-0.2,0.2-0.5,0.1-0.7c-0.1-0.5-0.1-1-0.3-1.6c-0.2,0.4-0.4,0.8-0.6,1.1c-0.1,0.1-0.2,0.3-0.2,0.4
		c-0.3,0.5-0.3,0.5-0.7,0.2c-0.2-0.2-0.5-0.4-0.7-0.5c-0.2-0.2-0.2-0.3-0.1-0.4c0.6-1,1.2-2.1,1.7-3.1c0.4-0.7,1.1-1.1,1.9-1.1
		c0.2,0,0.2,0.1,0.3,0.3c0.1,0.3,0.2,0.4,0.5,0.4c0.1,0,0.3,0,0.4,0c0.2,0,0.3-0.1,0.4-0.3c0.1-0.3,0.2-0.4,0.5-0.3
		c1,0,1.5,0.6,1.9,1.4c0.5,0.9,1,1.9,1.5,2.8c0.1,0.2,0.1,0.3-0.1,0.4c-0.3,0.2-0.6,0.5-0.9,0.7c-0.3,0.2-0.3,0-0.4-0.2
		c-0.3-0.5-0.5-1-0.8-1.6C44.9,70.5,44.9,70.4,44.7,70.4z M42.6,67.9c-0.6,0-0.6,0-0.7,0.6c-0.1,0.6-0.2,1.2-0.3,1.8
		c-0.2,0.8-0.2,0.8,0.6,1.4c0.1,0.1,0.2,0.1,0.3,0.2c0.1,0.1,0.3,0.1,0.4,0c0.3-0.2,0.5-0.4,0.8-0.6c0.1-0.1,0.2-0.2,0.1-0.3
		c-0.2-0.9-0.4-1.8-0.5-2.7c0-0.2-0.1-0.2-0.3-0.2C42.8,67.9,42.7,67.9,42.6,67.9z"/>
	<path class="st0" d="M37.6,67.4c-0.3,0.4-0.3,0.7,0.1,1c0.3,0.2,0.6,0.4,0.9,0.6c0.2,0.1,0.1,0.1,0,0.2c-0.2,0.4-0.4,0.7-0.6,1.1
		c-0.1,0.1-0.2,0.1-0.3,0.1c-0.4,0-0.8-0.2-1.2-0.3c-0.2,0-0.1-0.1-0.1-0.3c0.3-0.8,0-1.5,0-2.3c0,0,0-0.1-0.1-0.1
		c-0.3,0.7-0.7,1.3-1,1.9c-0.1,0.2-0.2,0.2-0.3,0.1c-0.4-0.2-0.7-0.5-1-0.8c-0.1-0.1-0.2-0.2-0.1-0.3c0.6-1.1,1.3-2.3,1.9-3.4
		c0.3-0.5,1.2-0.9,1.8-0.8c0.2,0,0.2,0.1,0.2,0.3c0,0.2,0.1,0.3,0.4,0.3c0.2,0,0.3,0,0.5,0c0.3,0,0.4,0,0.5-0.4
		c0.1-0.4,0.4-0.2,0.6-0.2c0.2,0,0.2,0.1,0.2,0.3c0,0.9,0.2,1.1,1.1,2.1c-0.6,0.1-1.1,0.3-1.6,0.7c-0.1,0.1-0.2,0.1-0.2-0.1
		c0-0.5-0.2-1-0.3-1.6C39.2,65,39.2,65,38.6,65c-0.7,0-0.6,0-0.7,0.7c-0.1,0.5-0.2,1-0.3,1.5C37.6,67.3,37.6,67.4,37.6,67.4
		L37.6,67.4z"/>
	<path class="st0" d="M48.8,67.5c-0.2,0.2-0.1,0.3-0.2,0.5c0,0.4,0,0.7-0.1,1.1c-0.1,0.3,0,0.6,0.1,0.8c0.1,0.2,0,0.3-0.1,0.3
		c0,0-0.1,0-0.1,0c-1.6,0.4-1,0.4-1.9-0.9c-0.1-0.1-0.1-0.2,0.1-0.3c0.3-0.2,0.5-0.4,0.8-0.6c0.3-0.2,0.3-0.3,0.2-0.6
		c-0.1-0.4-0.1-0.7-0.2-1.1c0-0.1-0.1-0.2,0-0.2c0.1-0.1,0.1,0,0.2,0.1c0.1,0.1,0.2,0.2,0.3,0.1c0.1-0.1,0-0.2-0.1-0.3
		c-0.3-0.4-0.7-0.7-0.8-1.2c0-0.2-0.1-0.3,0.1-0.4c0.2-0.1,0.4-0.1,0.5,0.1c0.2,0.3,0.5,0.6,0.7,0.9c0.1,0.1,0.1,0.2,0.2,0.2
		c0.1,0.1,0.2,0.1,0.3,0c0.1-0.1,0.1-0.2,0-0.2c-0.4-0.5-0.7-1-1.2-1.4c0.3-0.2,0.5-0.1,0.7,0.1c0.2,0.2,0.3,0.4,0.5,0.7
		c0,0,0.1,0.1,0.1,0.1c0.7,0.1,0.8,0.8,1.1,1.3c0.4,0.6,0.7,1.2,1,1.8c0.1,0.2,0.1,0.3-0.1,0.4c-0.3,0.2-0.7,0.5-1,0.7
		c-0.1,0.1-0.2,0.1-0.3-0.1C49.5,68.7,49.1,68.1,48.8,67.5z"/>
	<path class="st0" d="M44.5,64.5c0,1.1-0.9,2-1.9,2c-1,0-1.9-0.9-1.9-2c0-1.1,0.9-2.1,2-2C43.6,62.4,44.5,63.4,44.5,64.5z"/>
	<path class="st0" d="M48.5,61.6c0,1.1-0.8,2-1.9,2c-1.1,0-1.9-0.9-1.9-2c0-1.1,0.8-2,1.9-2C47.6,59.6,48.5,60.4,48.5,61.6z"/>
	<path class="st0" d="M38.6,59.6c1.1,0,1.9,0.9,1.9,2c0,1.1-0.9,2-2,2c-1.1,0-1.9-1-1.9-2.1C36.7,60.4,37.5,59.6,38.6,59.6z"/>
	<path class="st0" d="M43.8,66.6c0.4-0.3,0.8-0.7,1-1.2c0.1-0.3,0.2-0.6,0.2-0.9c0-0.2,0-0.3,0.2-0.3c0.2,0,0.5-0.2,0.7,0.2
		c0.1,0.2,0.2,0.4,0.4,0.5c0.1,0,0.1,0.1,0.1,0.2c0,0.1-0.1,0.1-0.2,0.1c-0.3,0-0.3,0.2-0.4,0.4c-0.1,0.5-0.3,1.1-0.2,1.6
		c0,0.1,0,0.3-0.1,0.3c-0.1,0.1-0.2-0.1-0.2-0.2C44.9,66.8,44.4,66.6,43.8,66.6z"/>
	<path class="st0" d="M37.6,67.4c0.5,0.2,1,0.5,1.4,0.8c0.1,0,0.2,0.1,0.1,0.2c-0.1,0.1-0.1,0.1-0.2,0c-0.4-0.2-0.8-0.5-1.2-0.7
		C37.6,67.6,37.7,67.5,37.6,67.4L37.6,67.4z"/>
	<path class="st0" d="M39.4,67.9c-0.5-0.3-1-0.6-1.4-0.9c-0.1-0.1-0.2-0.1-0.1-0.2c0.1-0.1,0.2,0,0.3,0c0.4,0.2,0.7,0.5,1.1,0.6
		C39.3,67.5,39.6,67.6,39.4,67.9z"/>
	<path class="st0" d="M47.5,67.9c-0.5-0.4-1-0.7-1.5-0.9c-0.1,0-0.1-0.1-0.1-0.2c0-0.1,0.1-0.1,0.2,0c0.1,0.1,0.3,0.1,0.4,0.2
		c0.3,0.2,0.5,0.4,0.9,0.5C47.4,67.5,47.6,67.6,47.5,67.9z"/>
	<path class="st0" d="M45.8,67.5c0,0,0.1,0.1,0.1,0.1c0.4,0.2,0.7,0.4,1.1,0.6c0.1,0,0.2,0.1,0.1,0.2c-0.1,0.1-0.1,0.1-0.2,0
		c-0.4-0.2-0.8-0.5-1.2-0.7c-0.1,0-0.1-0.1-0.1-0.1C45.7,67.5,45.7,67.5,45.8,67.5z"/>
	<path class="st0" d="M39.3,66.8c0,0.1-0.1,0.2-0.2,0.1c-0.4-0.2-0.7-0.5-1.1-0.7c0,0-0.1-0.1,0-0.2c0-0.1,0.1-0.1,0.2,0
		C38.5,66.2,38.9,66.5,39.3,66.8C39.2,66.7,39.3,66.8,39.3,66.8z"/>
	<path class="st0" d="M39.1,65.9c-0.4-0.1-0.7-0.3-0.9-0.4c-0.1,0-0.1-0.1-0.1-0.2c0.1-0.1,0.1,0,0.2,0C38.6,65.5,39,65.5,39.1,65.9
		z"/>
	<path class="st0" d="M47.1,66c-0.3-0.3-0.7-0.4-1-0.7C46.5,65.3,47,65.6,47.1,66z"/>
	<path class="st1" d="M47.5,66.4C47.5,66.4,47.5,66.4,47.5,66.4C47.5,66.4,47.4,66.4,47.5,66.4C47.4,66.4,47.5,66.4,47.5,66.4
		C47.5,66.4,47.5,66.4,47.5,66.4z"/>
	<path class="st0" d="M73.4,71.5c-0.1,0.6-0.1,1.2-0.2,1.8c0,0.1,0,0.2,0.1,0.3c0.2,0.3,0.1,0.5-0.3,0.6c-1.2,0.3-2.5,0.3-3.7,0
		c-0.2-0.1-0.3-0.2-0.2-0.4c0.1-0.2,0.1-0.4,0.1-0.7c-0.1-0.5-0.1-1.1-0.3-1.6c-0.2,0.3-0.4,0.7-0.5,1c-0.1,0.2-0.2,0.4-0.3,0.6
		c-0.2,0.4-0.2,0.5-0.6,0.2c-0.3-0.2-0.6-0.4-0.9-0.6c-0.2-0.2-0.1-0.4,0-0.5c0.6-1,1.2-2.1,1.8-3.2c0.4-0.7,1.1-0.9,1.8-0.9
		c0.2,0,0.3,0.1,0.3,0.3c0.1,0.3,0.2,0.4,0.5,0.3c0.1,0,0.3,0,0.4,0c0.2,0,0.4-0.1,0.4-0.3c0.1-0.3,0.2-0.3,0.5-0.3
		c1,0,1.5,0.6,1.9,1.4c0.5,0.9,1,1.9,1.5,2.8c0.1,0.2,0.1,0.3-0.1,0.4c-0.3,0.2-0.6,0.5-0.9,0.7c-0.3,0.2-0.3,0-0.4-0.2
		c-0.3-0.5-0.5-1-0.8-1.5C73.5,71.7,73.5,71.6,73.4,71.5z M71.2,69c-0.6,0-0.6,0-0.7,0.6c-0.1,0.8-0.3,1.6-0.4,2.4
		c0,0.1,0,0.2,0.1,0.3c0.3,0.2,0.6,0.6,0.9,0.7c0.4,0.1,0.6-0.4,1-0.6c0.1-0.1,0.3-0.1,0.2-0.4c-0.2-0.8-0.3-1.6-0.4-2.4
		C71.8,69,71.8,69,71.2,69z"/>
	<path class="st0" d="M65.9,64.9c-0.6,0-1,0.2-1.4,0.6c-0.2,0.2-0.3,0.1-0.3-0.1c-0.1-0.6-0.2-1.2-0.4-1.9c0-0.2-0.1-0.2-0.3-0.2
		c-0.9,0-0.9,0-1.1,0.8c0,0.1-0.1,0.2-0.1,0.3c0,0.3-0.2,0.7,0.4,0.8c0.4,0.1,0.7,0.5,1.2,0.7c0.1,0,0.2,0.1,0.1,0.3
		c-0.6-0.3-1.2-0.6-1.7-1.1c-0.2,0.6-0.2,0.6,0.3,0.8c0.3,0.1,0.5,0.3,0.8,0.4c0.2,0.1,0.1,0.2,0.2,0.4c-0.5-0.3-1-0.5-1.4-0.9
		c-0.3,0.5-0.2,0.7,0.3,1c0.2,0.2,0.4,0.4,0.7,0.5c0.1,0,0.1,0.1,0.1,0.2c-0.2,0.3-0.4,0.6-0.5,1c-0.1,0.3-0.3,0.3-0.6,0.3
		c-0.3-0.1-0.6-0.1-0.9-0.2c-0.2-0.1-0.2-0.1-0.1-0.3c0.2-0.2,0.2-0.5,0.1-0.8c-0.1-0.5-0.1-1-0.3-1.6c-0.3,0.6-0.6,1.1-0.9,1.7
		c-0.2,0.4-0.2,0.4-0.6,0.2c0,0-0.1,0-0.1-0.1c-0.3-0.2-0.8-0.4-0.9-0.7c-0.1-0.3,0.3-0.7,0.5-1c0.4-0.8,0.9-1.6,1.3-2.4
		c0.3-0.6,1.2-1,1.9-1c0.2,0,0.2,0.1,0.3,0.2c0.1,0.4,0.3,0.4,0.6,0.4c0.1,0,0.2,0,0.3,0c0.3,0,0.4-0.1,0.5-0.3
		c0.1-0.4,0.4-0.3,0.7-0.3c0.3,0,0.2,0.2,0.2,0.4c0.1,0.8,0.3,1.4,1,1.9c0,0,0.1,0.1,0.1,0.1C65.8,64.8,65.8,64.8,65.9,64.9z"/>
	<path class="st0" d="M66.4,67.9c-0.1,0.2-0.1,0.4-0.1,0.7l0,0c-0.3,0.4-0.3,0.7,0.1,1c0.3,0.2,0.5,0.4,0.8,0.6
		c0.2,0.1,0.1,0.1,0,0.2c-0.2,0.4-0.4,0.7-0.6,1.1c-0.2,0.3-0.4,0.1-0.6,0.1c-0.3,0-0.5-0.1-0.8-0.2c-0.2,0-0.2-0.1-0.1-0.3
		c0.3-0.8,0-1.5,0-2.3c0,0-0.1-0.1-0.1-0.1c-0.3,0.6-0.7,1.2-1,1.8c-0.1,0.2-0.2,0.2-0.3,0.1c-0.4-0.2-0.7-0.5-1-0.8
		c-0.1-0.1-0.2-0.2-0.1-0.3c0.6-1.1,1.3-2.3,1.9-3.4c0.3-0.5,1.2-0.9,1.8-0.8c0.2,0,0.2,0.1,0.2,0.3c0,0.2,0.2,0.3,0.4,0.3
		c0.2,0,0.3,0,0.5,0c0.3,0,0.4,0,0.5-0.4c0.1-0.4,0.4-0.2,0.6-0.2c0.2,0,0.2,0.1,0.2,0.3c0,0.9,0.2,1.1,1.1,2.1
		c-0.6,0.1-1.1,0.3-1.5,0.7c-0.1,0.1-0.2,0.1-0.2-0.1c0-0.2,0-0.3-0.1-0.5c-0.1,0.2-0.2,0.2-0.5,0.1c-0.4-0.3-0.8-0.4-1.2-0.7
		C66.4,67.4,66.3,67.6,66.4,67.9L66.4,67.9z M66.5,67.1c0.6,0.1,1,0.5,1.6,0.8c-0.1-0.6-0.2-1.1-0.3-1.7c0-0.1-0.1-0.1-0.2-0.1
		c-1,0-1-0.2-1.1,0.8C66.5,67.1,66.5,67.1,66.5,67.1z"/>
	<path class="st0" d="M81.4,65.8c-0.1,0.6-0.1,1.2-0.2,1.9c0,0.1,0,0.2,0.1,0.3c0.2,0.3,0.1,0.4-0.2,0.5c-0.1,0-0.1,0.1-0.2,0.1
		c-0.9,0.2-0.9,0.2-1.3-0.6c-0.1-0.1-0.1-0.3-0.2-0.4c-0.1-0.2-0.1-0.2,0.1-0.4c0.3-0.2,0.6-0.4,0.9-0.7c0.1-0.1,0.1-0.1,0.1-0.3
		c-0.2-0.9-0.4-1.9-0.5-2.8c0-0.1,0-0.2-0.1-0.2c-0.3,0-0.6,0-1,0c-0.1,0-0.1,0.1-0.1,0.2c-0.1,0.6-0.2,1.2-0.3,1.8
		c0,0.2,0,0.5-0.4,0.1c-0.4-0.4-0.8-0.6-1.4-0.6c0.1-0.2,0.3-0.3,0.5-0.5c0.4-0.5,0.6-1,0.6-1.6c0-0.2,0-0.4,0.2-0.4
		c0.2,0,0.5-0.2,0.7,0.2c0.1,0.1,0,0.4,0.2,0.4c0.3,0,0.6,0,1,0c0.1,0,0.1-0.1,0.1-0.2c0.1-0.4,0.3-0.4,0.6-0.4
		c0.9,0.1,1.4,0.6,1.8,1.4c0.5,0.9,1,1.9,1.5,2.8c0.1,0.2,0.1,0.3-0.1,0.4c-0.3,0.2-0.6,0.4-0.9,0.7c-0.3,0.2-0.4,0.1-0.5-0.2
		c-0.3-0.5-0.5-1-0.8-1.6C81.5,65.9,81.5,65.8,81.4,65.8z"/>
	<path class="st0" d="M72.5,67.7c0.3-0.3,0.7-0.6,0.9-1.1c0.2-0.3,0.2-0.7,0.2-1.1c0-0.2,0-0.3,0.2-0.3c0.2,0,0.6-0.2,0.7,0.2
		c0.1,0.3,0.2,0.4,0.5,0.4c0.2,0,0.3,0,0.5,0c0.2,0,0.3-0.1,0.3-0.3c0-0.3,0.2-0.3,0.4-0.3c0.8,0,1.4,0.3,1.8,1
		c0.6,1.1,1.2,2.1,1.8,3.2c0.1,0.2,0.1,0.3,0,0.3c-0.4,0.3-0.7,0.5-1.1,0.8c-0.1,0.1-0.2,0.1-0.3-0.1c-0.3-0.6-0.6-1.2-1-1.8
		c-0.2,0.1-0.1,0.3-0.2,0.4c0,0.4-0.1,0.8-0.1,1.3c0,0.3,0.1,0.5,0.1,0.7c0.1,0.1,0,0.2-0.1,0.3c-0.4,0.1-0.7,0.2-1.1,0.3
		c-0.2,0-0.3,0-0.4-0.2c0,0,0-0.1-0.1-0.1c-0.2-0.4-0.6-0.7-0.5-1c0.1-0.3,0.6-0.5,0.9-0.7c0.2-0.2,0.3-0.3,0.2-0.6
		c-0.2-0.8-0.3-1.5-0.4-2.3c-0.1-0.4-0.2-0.6-0.6-0.5c0,0,0,0,0,0c-0.7,0-0.7,0-0.8,0.7c-0.1,0.5-0.2,0.9-0.3,1.4
		c0,0.1,0,0.3-0.3,0.1C73.6,68,73.1,67.8,72.5,67.7z"/>
	<path class="st0" d="M73.2,65.6c0,1.1-0.9,2-1.9,2c-1,0-1.9-1-1.9-2c0-1.1,0.9-2,1.9-2C72.2,63.5,73.2,64.5,73.2,65.6z"/>
	<path class="st0" d="M69.3,59.9c0-1.1,0.9-2.1,2-2c1,0,1.9,1,1.9,2.1c0,1.1-0.9,2-1.9,2C70.2,61.9,69.3,61,69.3,59.9z"/>
	<path class="st0" d="M61.3,59.9c0-1.1,0.9-2,1.9-2c1.1,0,1.9,1,1.9,2.1c0,1.1-0.9,2-2,2C62.1,61.9,61.3,60.9,61.3,59.9z"/>
	<path class="st0" d="M75.2,64.8c-1.1,0-1.9-0.9-1.9-2c0-1.1,0.8-2,1.9-2c1.1,0,1.9,0.9,1.9,2C77.2,63.8,76.3,64.8,75.2,64.8z"/>
	<path class="st0" d="M67.2,60.7c1.1,0,1.9,0.9,1.9,2c0,1.1-0.9,2-1.9,2c-1.1,0-1.9-0.9-1.9-2C65.3,61.6,66.1,60.7,67.2,60.7z"/>
	<path class="st0" d="M81.2,59.9c0,1.1-0.9,2-2,2c-1,0-1.9-1-1.9-2.1c0-1.1,0.9-2,1.9-2C80.3,57.8,81.2,58.8,81.2,59.9z M80.5,60.7
		c0-0.1,0.1-0.2-0.1-0.2c-0.1,0-0.2,0.1-0.2,0.2c0,0.3-0.1,0.4-0.4,0.5c-0.1,0-0.2,0.1-0.1,0.2c0,0.1,0.1,0.1,0.2,0.1
		C80.2,61.4,80.5,61.1,80.5,60.7z M79.1,60.3c0,0.1-0.1,0.3,0.1,0.3c0.2,0,0.2-0.1,0.2-0.3c0-0.2,0.1-0.4,0.3-0.4
		c0.2,0,0.2-0.1,0.2-0.2c0-0.2-0.2-0.1-0.3-0.1C79.3,59.7,79.1,59.9,79.1,60.3z"/>
	<path class="st0" d="M69.4,63.9c0.1-0.4,0.3-0.8,0.3-1.2c0-0.2,0-0.3,0.2-0.3c0.2,0,0.5-0.2,0.6,0.1c0.1,0.1,0.1,0.4,0.3,0.4
		c0.3,0,0.6,0,1,0c0.1,0,0.2-0.2,0.2-0.3c0.1-0.4,0.4-0.2,0.7-0.2c0.3,0,0.2,0.2,0.2,0.4c0,0.2,0,0.4,0.1,0.5c0,0.2,0.1,0.3,0.1,0.6
		C71.8,62.9,70.6,62.9,69.4,63.9z"/>
	<path class="st0" d="M66.3,67.9c0.2,0,0.4,0,0.5,0.2c0.3,0.3,0.7,0.3,0.9,0.5c0.1,0.1,0.4,0.1,0.3,0.4
		C67.5,68.6,66.9,68.4,66.3,67.9L66.3,67.9z"/>
	<path class="st0" d="M66.3,68.6c0.5,0.2,1,0.5,1.4,0.8c0.1,0,0.2,0.1,0.1,0.2c-0.1,0.1-0.1,0.1-0.2,0c-0.4-0.2-0.8-0.5-1.2-0.7
		C66.3,68.8,66.3,68.7,66.3,68.6L66.3,68.6z"/>
	<path class="st0" d="M79.8,66.6c0,0.2-0.1,0.2-0.2,0.1c-0.4-0.2-0.8-0.4-1.2-0.7c-0.1,0-0.1-0.1-0.1-0.2c0-0.1,0.1-0.1,0.2,0
		C79,66,79.4,66.3,79.8,66.6C79.8,66.5,79.8,66.6,79.8,66.6z"/>
	<path class="st0" d="M76,67.9c0,0.1-0.1,0.2-0.2,0.1c-0.4-0.2-0.7-0.5-1.1-0.7c-0.1,0-0.1-0.1,0-0.2c0-0.1,0.1,0,0.2,0
		c0.3,0.2,0.7,0.4,1,0.6C75.9,67.8,75.9,67.9,76,67.9z"/>
	<path class="st0" d="M62.7,64.2c0.4,0.3,1,0.5,1.3,0.9C63.5,65.1,62.6,64.5,62.7,64.2z"/>
	<path class="st0" d="M80.1,66.1c-0.5-0.3-1-0.6-1.5-0.9c-0.1,0-0.1-0.1-0.1-0.2c0.1-0.1,0.1,0,0.2,0.1c0.5,0.2,0.9,0.5,1.3,0.7
		C80.1,65.9,80.2,65.9,80.1,66.1z"/>
	<path class="st0" d="M75.8,69.5c0,0.1-0.1,0.1-0.2,0.1c-0.4-0.2-0.8-0.5-1.3-0.7c0,0-0.1-0.1-0.1-0.1c0-0.1,0.1-0.1,0.2-0.1
		C74.9,68.9,75.4,69.1,75.8,69.5C75.8,69.4,75.8,69.4,75.8,69.5z"/>
	<path class="st0" d="M80.1,65.2c-0.6-0.1-1.4-0.7-1.4-0.9C79.1,64.5,79.7,64.7,80.1,65.2z"/>
	<path class="st0" d="M76.1,68.8c-0.1,0.1-0.1,0.2-0.3,0.1c-0.4-0.3-0.8-0.5-1.3-0.8c-0.1-0.1-0.1-0.1-0.1-0.2c0.1-0.1,0.1,0,0.2,0
		C75.2,68.2,75.7,68.5,76.1,68.8z"/>
	<path class="st0" d="M79.8,64.1c0,0.1-0.1,0.1-0.1,0.1c-0.3-0.2-0.6-0.3-0.8-0.5c0,0,0-0.1,0-0.2c0,0,0.1,0,0.1,0
		C79.2,63.7,79.5,63.8,79.8,64.1C79.8,64.1,79.8,64.1,79.8,64.1z"/>
	<path class="st0" d="M63.8,64.3c-0.3-0.2-0.6-0.4-0.9-0.5c-0.1,0-0.1-0.1-0.1-0.2c0,0,0.1-0.1,0.1,0c0.3,0.2,0.6,0.3,0.9,0.6
		C63.8,64.1,63.8,64.2,63.8,64.3z"/>
	<path class="st0" d="M74.9,66.4c0.3,0.2,0.6,0.3,0.8,0.5c0.1,0.1-0.1,0.1-0.1,0.1c-0.2-0.1-0.5-0.3-0.7-0.4
		C74.8,66.6,74.8,66.5,74.9,66.4C74.8,66.4,74.8,66.4,74.9,66.4z"/>
	<path class="st0" d="M68.5,64.9c0.2-0.2,0.3-0.3,0.5-0.4C68.9,64.7,69,65,68.5,64.9z"/>
	<path class="st0" d="M88.4,45.1c-0.1-0.5-0.2-0.9-0.3-1.3C88,44.2,88,44.6,88,44.9c0,0.3-0.1,0.4-0.4,0.5c-1.5,0.5-2.9,0.5-4.4,0
		C83,45.3,83,45.2,83,45.1c0-0.3,0-0.7,0-1c0-0.1,0-0.3-0.1-0.5c0,0.5-0.2,1-0.3,1.5c-0.6-0.2-1-0.6-1.5-0.9c-0.2-0.2-0.1-0.4,0-0.6
		c0.3-0.9,0.5-1.7,0.6-2.6c0.1-0.4,0.2-0.7,0.5-1c0.3-0.3,0.6-0.5,1.1-0.5c0.4,0,0.8,0,1.2,0c0.2,0,0.3,0.1,0.4,0.3
		c0.1,0.3,0.2,0.4,0.5,0.4c0.1,0,0.3,0,0.4,0c0.3,0,0.4-0.1,0.5-0.3c0.1-0.2,0.2-0.3,0.4-0.3c0.4,0,0.8,0,1.2,0
		c0.3,0,0.6,0.1,0.8,0.3c0.1,0.1,0.3,0.2,0.1,0.4c-0.2,0.1,0,0.2,0.1,0.3c0.3,0.4,0.6,0.8,0.6,1.3c0,0.7,0.3,1.3,0.5,1.9
		c0.1,0.3,0.1,0.5-0.2,0.7C89.3,44.6,88.9,44.9,88.4,45.1z M86.5,43c0.1-0.7-0.2-1.2-0.3-1.8c-0.1-0.3,0-0.6-0.2-0.8
		c-0.2-0.1-0.5,0-0.8,0c-0.2,0-0.3,0-0.3,0.2c-0.1,0.6-0.2,1.3-0.4,1.9c-0.2,1-0.2,0.9,0.6,1.5c0.1,0.1,0.2,0.1,0.3,0.2
		c0.1,0.1,0.1,0.1,0.2,0c0.3-0.2,0.6-0.4,1-0.7c0.1-0.1,0.1-0.2,0.1-0.3c-0.1-0.3-0.3-0.1-0.5-0.2c-0.3-0.3-0.7-0.4-1-0.6
		c-0.1-0.1-0.2-0.1-0.3-0.2c-0.1,0-0.1-0.1-0.1-0.2c0.1-0.1,0.1,0,0.2,0C85.5,42.4,85.9,42.9,86.5,43z"/>
	<path class="st0" d="M76.5,37.1c-0.3,0.6-0.3,0.7,0.2,1c0.4,0.2,0.5,0.5,0.3,0.9c-0.1,0.2-0.1,0.5-0.2,0.7c0,0.2-0.1,0.3-0.3,0.3
		c-0.5-0.1-0.9-0.2-1.4-0.4C75,39.6,75,39.5,75,39.3c0-0.3,0-0.7,0-1c0-0.1,0-0.3-0.1-0.4c-0.1,0.5-0.2,1-0.3,1.5
		c-0.6-0.2-1-0.6-1.5-0.9c-0.2-0.2-0.1-0.4-0.1-0.6c0.3-0.9,0.5-1.9,0.7-2.8c0.1-0.6,0.5-1.1,1.1-1.3c0.2-0.1,0.5,0,0.7,0
		c0.3,0,0.5,0,0.8,0c0.3,0,0.5,0,0.5,0.3c0,0.2,0.2,0.3,0.4,0.3c0.2,0,0.3,0,0.5,0c0.3,0,0.4-0.1,0.5-0.3c0.1-0.2,0.6-0.4,0.8-0.3
		c0.1,0.1,0.1,0.1,0.1,0.2c0,0.8,0.3,1.5,1,2c0.1,0,0.1,0.1,0.1,0.1c0,0.1-0.1,0.1-0.1,0.1c-0.5,0-1-0.1-1.5,0.1
		c-0.2,0.1-0.2-0.1-0.2-0.3c0-0.4-0.1-0.8-0.2-1.2c0-0.1,0-0.2-0.2-0.2c-0.3,0-0.6,0-0.8,0c-0.1,0-0.1,0-0.2,0.2
		c-0.1,0.3-0.1,0.6-0.2,0.9c-0.1,0.3-0.1,0.7,0.4,0.8c0.2,0,0.4,0.2,0.6,0.3c0.1,0,0.1,0.1,0.1,0.2c0,0.1-0.1,0-0.2,0
		c-0.3-0.2-0.7-0.3-0.9-0.7C76.6,36.6,76.4,36.8,76.5,37.1L76.5,37.1z"/>
	<path class="st0" d="M96.4,39.4c-0.1-0.5-0.2-0.9-0.3-1.5C96,38,96,38.2,96,38.3c0,0.2,0,0.3,0,0.5c0,0.9,0,0.9-0.8,1.1
		c0,0-0.1,0-0.1,0c-1,0.2-1,0.2-1.2-1.1c0-0.3-0.1-0.5,0.3-0.6c0.3-0.1,0.5-0.4,0.4-0.9c-0.1-0.8-0.3-1.7-0.5-2.5
		c0-0.2-0.1-0.2-0.2-0.2c0,0,0,0,0,0c-0.9,0-0.9,0-1.1,1.1c0,0.1,0,0.2,0,0.3c0,0.3,0,0.4-0.4,0.3c-0.3-0.1-0.7,0-1.1-0.1
		c-0.1,0-0.3,0.1-0.3,0C90.8,36,91,36,91.1,36c0.5-0.5,0.8-1.1,0.9-1.9c0-0.1-0.1-0.3,0.1-0.3c0.2,0,0.5-0.2,0.7,0.2
		c0.1,0.1,0.1,0.4,0.3,0.4c0.3,0,0.6,0,1,0c0.1,0,0.1-0.1,0.1-0.2c0.1-0.4,0.3-0.4,0.6-0.4c0.3,0,0.6,0.1,0.9,0
		c0.8-0.1,1.6,0.7,1.7,1.5c0,0.5,0.2,0.9,0.3,1.3c0.1,0.5,0.2,0.9,0.4,1.4c0.1,0.3,0,0.5-0.2,0.7C97.3,38.9,96.9,39.2,96.4,39.4z"/>
	<path class="st0" d="M78.9,40.8c-0.1,0.4-0.2,0.8-0.2,1.2c0,0.2-0.2,0.2-0.3,0.1c-0.4-0.3-0.9-0.5-1.2-0.8C77,41.2,76.9,41.2,77,41
		c0.3-1.1,0.5-2.3,0.8-3.4c0.2-0.6,0.6-1,1.3-1c0.4,0,0.9,0,1.3,0c0.2,0,0.3,0.1,0.3,0.3c0,0.2,0.2,0.3,0.4,0.3c0.2,0,0.4,0,0.6,0
		c0.2,0,0.4-0.1,0.4-0.3c0.1-0.5,0.5-0.2,0.7-0.3c0.3,0,0.2,0.2,0.2,0.4c0,0.9,0.4,1.5,1.2,2.1c-0.4,0-0.7,0-1,0c-0.1,0-0.3,0-0.4,0
		c-0.4,0.2-0.4,0-0.5-0.3c0-0.3-0.1-0.7-0.2-1c0-0.2-0.1-0.3-0.4-0.3c-0.8,0-0.8,0-1,0.8c-0.1,0.7-0.3,1.3-0.4,2
		c0,0.2,0,0.4,0.2,0.5c0.1,0.1,0.2,0.2,0.3,0.2c0.3,0.1,0.4,0.4,0.3,0.6c-0.1,0.3-0.2,0.6-0.2,1c0,0.2-0.1,0.3-0.3,0.2
		c-0.5-0.1-0.9-0.2-1.4-0.4C79,42.5,79,42.4,79,42.2C79,41.7,79,41.3,78.9,40.8C79,40.8,78.9,40.8,78.9,40.8z"/>
	<path class="st0" d="M92,40.8c0,0.4,0,0.9,0,1.3c0,0.2-0.1,0.4-0.3,0.4c-0.4,0.1-0.7,0.2-1.1,0.3c-0.1,0-0.4,0.1-0.4,0
		c-0.1-0.2-0.3-0.5-0.1-0.8c0.2-0.2,0.1-0.4,0-0.6c-0.2-0.2-0.1-0.4,0.2-0.5c0.3,0,0.5-0.2,0.4-0.5c-0.2-0.8-0.1-1.7-0.5-2.6
		c-0.1-0.2-0.1-0.4-0.5-0.4c-0.8,0-0.8,0-0.9,0.8c0,0.3,0,0.6-0.2,0.8c-0.2,0.3-0.5-0.1-0.7,0c-0.3,0-0.7,0-1.1,0
		c0.4-0.3,0.7-0.6,0.9-1.1c0.2-0.4,0.3-0.7,0.2-1.1c0-0.2,0.1-0.3,0.2-0.3c0.3,0,0.7-0.1,0.7,0.4c0,0.1,0.1,0.2,0.3,0.2
		c0.2,0,0.4,0,0.5,0c0.3,0,0.5,0,0.5-0.4c0-0.1,0.1-0.2,0.2-0.2c0.6,0,1.1-0.1,1.7,0c0.6,0.1,1.1,0.7,1.1,1.3
		c0.1,0.7,0.2,1.3,0.4,1.9c0.1,0.3,0.1,0.6,0.2,0.8c0.2,0.4,0,0.6-0.3,0.8c-0.3,0.2-0.6,0.4-0.9,0.6c-0.2,0.2-0.4,0.1-0.4-0.2
		C92.2,41.6,92.2,41.2,92,40.8z"/>
	<path class="st0" d="M95.5,31.2c0,1.1-0.9,2-1.9,2c-1.1,0-2-0.9-2-2c0-1.1,0.9-2,1.9-2C94.5,29.2,95.5,30.1,95.5,31.2z"/>
	<path class="st0" d="M79.4,31.2c0,1.1-0.9,2-1.9,2c-1.1,0-2-0.9-2-2c0-1.1,0.9-2,1.9-2C78.5,29.2,79.4,30.1,79.4,31.2z"/>
	<path class="st0" d="M83.6,37c0-1.1,0.9-2,1.9-2c1,0,2,1,2,2.1c0,1.1-0.9,2-1.9,2C84.5,39,83.6,38,83.6,37z"/>
	<path class="st0" d="M87.4,31.2c0,1.1-0.9,2-1.9,2c-1,0-1.9-0.9-1.9-2c0-1.1,0.9-2.1,2-2C86.6,29.2,87.4,30.2,87.4,31.2z"/>
	<path class="st0" d="M89.5,32.1c1.1,0,1.9,0.9,1.9,2c0,1.1-0.9,2-1.9,2c-1.1,0-1.9-0.9-1.9-2C87.6,32.9,88.4,32.1,89.5,32.1z"/>
	<path class="st0" d="M81.5,32.1c1.1,0,1.9,0.9,1.9,2c0,1.1-0.9,2-1.9,2c-1.1,0-1.9-0.9-1.9-2C79.6,33,80.4,32.1,81.5,32.1z"/>
	<path class="st0" d="M83.8,35.1c0.1-0.4,0.2-0.8,0.2-1.2c0-0.1,0-0.1,0.1-0.2c0.3-0.1,0.7,0,0.8,0.3c0.1,0.2,0.2,0.3,0.4,0.2
		c0.1,0,0.3,0,0.4,0c0.3,0.1,0.5,0,0.6-0.4c0.1-0.4,0.5-0.2,0.7-0.2c0.2,0,0.1,0.2,0.1,0.4c0,0.4,0.2,0.7,0.2,1.1
		c-0.2,0-0.3-0.2-0.5-0.3c-0.8-0.5-2.1-0.4-2.8,0.2C83.9,35.1,83.9,35.1,83.8,35.1C83.8,35.1,83.8,35.1,83.8,35.1z"/>
	<path class="st0" d="M92.7,36.4c0.1,0,0.1,0,0.2,0c0.5,0.3,0.9,0.6,1.4,0.8c0.1,0,0.2,0.1,0.1,0.2c-0.1,0.1-0.2,0-0.2,0
		C93.8,37,93.1,36.9,92.7,36.4z"/>
	<path class="st0" d="M78.3,36.5c-0.5,0-1.4-0.6-1.4-0.9C77.4,35.9,77.9,36,78.3,36.5z"/>
	<path class="st0" d="M82.2,39.3c0,0.2-0.2,0.1-0.2,0.1c-0.3-0.2-0.7-0.4-1-0.6c-0.1,0-0.1-0.1,0-0.2c0,0,0.1-0.1,0.1,0
		c0.4,0.2,0.7,0.4,1.1,0.6C82.2,39.2,82.2,39.2,82.2,39.3z"/>
	<path class="st0" d="M90.2,39.3c-0.6,0-0.9-0.4-1.3-0.6c0,0-0.1-0.1,0-0.1c0,0,0.1-0.1,0.1-0.1C89.4,38.7,89.9,38.9,90.2,39.3z"/>
	<path class="st0" d="M94.2,36.3c-0.6,0-1.2-0.4-1.2-0.7C93.3,35.8,93.7,36,94.2,36.3z"/>
	<path class="st0" d="M93.2,34.8c0.3,0.2,0.6,0.4,0.9,0.6c0,0,0,0.1,0,0.1c0,0.1-0.1,0-0.1,0c-0.3-0.2-0.6-0.3-0.8-0.5
		c0,0,0-0.1-0.1-0.2C93.1,34.9,93.1,34.9,93.2,34.8z"/>
	<path class="st0" d="M78,35.6c-0.3-0.2-0.6-0.4-0.9-0.5C77,35.1,77,35,77,34.9c0,0,0.1-0.1,0.1,0c0.3,0.2,0.6,0.3,0.9,0.6
		C78.1,35.5,78,35.5,78,35.6z"/>
	<path class="st0" d="M90,38.5c-0.3-0.2-0.6-0.3-0.8-0.4c-0.1,0-0.2-0.1-0.1-0.2c0.1-0.1,0.2,0,0.2,0C89.6,38,89.9,38,90,38.5z"/>
	<path class="st0" d="M81.4,40.4c0,0.1,0,0.2-0.1,0.1c-0.2-0.1-0.4-0.2-0.6-0.4c-0.1-0.1-0.1-0.2,0-0.2
		C80.8,39.9,81.4,40.3,81.4,40.4z"/>
	<path class="st0" d="M82,38.4c-0.3-0.1-0.6-0.3-0.9-0.4c-0.1-0.1-0.2-0.1-0.1-0.2c0.1-0.1,0.1,0,0.2,0C81.5,38,81.9,38,82,38.4z"/>
	<path class="st0" d="M76.5,37.1c0.3,0,0.5,0.2,0.8,0.3c0.1,0,0.1,0.1,0.1,0.2c0,0.1-0.1,0.1-0.2,0C76.9,37.5,76.6,37.4,76.5,37.1
		L76.5,37.1z"/>
	<path class="st0" d="M81.4,39.7c-0.2-0.1-0.4-0.2-0.6-0.3c0,0-0.1-0.1,0-0.2c0-0.1,0.1,0,0.2,0c0.2,0.1,0.4,0.3,0.6,0.4
		c0,0,0,0,0,0C81.5,39.7,81.5,39.7,81.4,39.7z"/>
	<path class="st0" d="M83.3,35.8c-0.1,0.2-0.1,0.4-0.3,0.4c0,0-0.1,0-0.1,0c0,0,0-0.1,0.1-0.1C83.1,36.1,83.1,35.8,83.3,35.8z"/>
	<path class="st0" d="M87.7,35.8c0.1,0.2,0.4,0.2,0.5,0.4C87.8,36.3,87.8,36,87.7,35.8z"/>
	<path class="st0" d="M89.3,39.6C89.3,39.7,89.2,39.7,89.3,39.6c-0.3,0-0.4-0.1-0.5-0.3c0,0,0-0.1,0-0.1
		C89.1,39.3,89.2,39.4,89.3,39.6z"/>
	<path class="st0" d="M83.8,35.1c0,0,0,0.1-0.1,0.1C83.6,35.2,83.7,35.1,83.8,35.1C83.8,35.1,83.8,35.1,83.8,35.1z"/>
	<path class="st0" d="M15.8,3.1c-0.2,0.7,0.4,0.6,0.6,0.8c-0.2,0.2-0.3,0-0.4,0c-0.1,0-0.2-0.1-0.2,0c-0.1,0.1,0,0.2,0,0.2
		c0,0.1,0.2,0.1,0.1,0.2c-0.1,0.1-0.2-0.1-0.2-0.1c-0.2-0.3-0.5-0.5-0.7-0.8c0,0-0.1-0.1,0-0.2c0.1-0.1,0.1,0,0.2,0
		c0.1,0.1,0.2,0.4,0.4,0.4c0.2,0,0-0.3,0.1-0.5C15.6,3.2,15.6,3.2,15.8,3.1z"/>
	<path class="st0" d="M16.9,3.2c0-0.1-0.1-0.2-0.2-0.3c-0.1-0.1-0.4-0.3-0.2-0.4c0.1-0.1,0.2,0.2,0.4,0.3c0,0,0,0,0,0.1
		c0.3,0.4,0.3,0.6-0.2,0.8c-0.2,0.1-0.3,0-0.4-0.1c-0.1-0.2-0.3-0.3-0.4-0.5C16,3,15.9,3,16,2.9c0.1-0.1,0.1,0,0.2,0.1
		c0.1,0.1,0.2,0.3,0.3,0.4c0.1,0.1,0.1,0.1,0.2,0.1C16.9,3.4,16.9,3.3,16.9,3.2z"/>
	<path class="st0" d="M15.5,4.6C15.5,4.7,15.5,4.7,15.5,4.6c-0.1,0.1-0.2,0.1-0.2,0c-0.1-0.1-0.2-0.3-0.3-0.4
		c-0.1-0.1-0.2-0.2-0.3-0.1c-0.1,0.1-0.1,0.2,0,0.3c0.1,0.1,0.2,0.3,0.3,0.4c0,0.1,0.1,0.1,0,0.2c-0.1,0.1-0.1,0-0.2,0
		c-0.2-0.2-0.3-0.4-0.5-0.6c0,0,0-0.1,0-0.1c0.2-0.1,0.3-0.3,0.5-0.4c0.1-0.1,0.3,0,0.4,0.1C15.2,4.3,15.4,4.5,15.5,4.6z"/>
	<path class="st2" d="M5.5,41.1c0,0.1,0,0.1,0,0.2c-0.1,0.1-0.1,0-0.2-0.1c-0.4-0.3-0.9-0.5-1.3-0.8c-0.1-0.1-0.2-0.1-0.2,0
		c0,0.1,0,0.1,0.1,0.2c0.5,0.3,1,0.7,1.6,0.8c0.1,0,0.1,0.4,0,0.5c-0.3,0.2-0.6,0.4-0.8,0.6c-0.1,0.1-0.1,0.1-0.2,0
		c-0.3-0.2-0.6-0.4-0.9-0.7c-0.1-0.1-0.1-0.1-0.1-0.3c0.2-0.9,0.4-1.8,0.5-2.8c0-0.2,0.1-0.2,0.3-0.2c0.9,0,0.9,0,1,0.8
		c0.1,0.3,0.1,0.5,0.1,0.8C5.4,40.6,5.5,40.8,5.5,41.1z M3.6,41.2C3.6,41.3,3.6,41.3,3.6,41.2c0.5,0.4,0.9,0.6,1.3,0.8
		c0,0,0.1,0,0.1,0c0-0.1,0-0.1-0.1-0.2c-0.4-0.2-0.8-0.5-1.2-0.7C3.7,41.1,3.6,41.1,3.6,41.2z M5.3,40.5c0-0.1-0.1-0.2-0.2-0.2
		c-0.3-0.2-0.6-0.4-0.9-0.5c-0.1,0-0.2-0.2-0.2,0c0,0.1,0,0.2,0.1,0.2c0.4,0.2,0.7,0.4,1.1,0.6C5.2,40.6,5.2,40.6,5.3,40.5z M5,39.6
		c0.1-0.2,0-0.3-0.1-0.3c-0.2-0.1-0.4-0.2-0.6-0.3c-0.1,0-0.2-0.1-0.2,0c-0.1,0.1,0,0.2,0.1,0.2C4.4,39.3,4.7,39.5,5,39.6z"/>
	<path class="st2" d="M11.6,67.3c0.5,0,0.6,0,0.7,0.5c0.2,0.8,0.3,1.6,0.4,2.4c0,0.1,0,0.2-0.1,0.3c0,0-0.1,0-0.1,0.1
		c-0.3,0.2-0.6,0.6-0.9,0.6c-0.3,0-0.6-0.4-0.9-0.6c-0.1-0.1-0.2-0.2-0.2-0.4c0.2-0.8,0.3-1.6,0.4-2.4
		C11.1,67.3,11.1,67.3,11.6,67.3z M12.4,70.1c0-0.1,0-0.2-0.1-0.3c-0.4-0.2-0.8-0.5-1.3-0.7c-0.1,0-0.1,0-0.2,0
		c-0.1,0.1,0,0.2,0.1,0.2C11.5,69.5,11.9,69.8,12.4,70.1z M12.4,69.3c-0.1-0.2-0.1-0.2-0.1-0.2c-0.3-0.3-0.8-0.5-1.2-0.7
		c0,0-0.1-0.1-0.1,0c0,0.1,0,0.2,0.1,0.2C11.5,68.8,11.9,69,12.4,69.3z M10.9,69.8c-0.1,0-0.1,0-0.1,0.1c0,0.1,0,0.1,0.1,0.1
		c0.4,0.2,0.8,0.5,1.2,0.7c0.1,0,0.1,0.1,0.2,0c0-0.1,0-0.1-0.1-0.2c-0.3-0.2-0.6-0.3-0.9-0.5C11.1,69.9,11,69.8,10.9,69.8z
		 M12.2,68.3c0.1-0.2-0.1-0.3-0.2-0.3c-0.2-0.1-0.4-0.2-0.6-0.3c-0.1,0-0.2-0.2-0.2,0c-0.1,0.1,0.1,0.2,0.1,0.2
		C11.6,68,11.9,68.1,12.2,68.3z"/>
	<path class="st2" d="M42.6,67.9c0.1,0,0.2,0,0.3,0c0.2,0,0.3,0,0.3,0.2c0.2,0.9,0.3,1.8,0.5,2.7c0,0.2,0,0.2-0.1,0.3
		c-0.3,0.2-0.5,0.4-0.8,0.6c-0.1,0.1-0.3,0.1-0.4,0c-0.1-0.1-0.2-0.1-0.3-0.2c-0.7-0.5-0.7-0.5-0.6-1.4c0.1-0.6,0.2-1.2,0.3-1.8
		C42,67.9,42,67.9,42.6,67.9z M43.4,70.7c0.1-0.2,0-0.3-0.1-0.3c-0.4-0.2-0.8-0.5-1.2-0.7c-0.1,0-0.1-0.2-0.2,0
		c-0.1,0.1,0,0.2,0.1,0.2C42.4,70.1,42.9,70.4,43.4,70.7z M42,68.8c0,0.3,0.9,0.9,1.4,0.9C43,69.3,42.5,69.1,42,68.8z M43.2,71.2
		C43.2,71.1,43.1,71.1,43.2,71.2c-0.5-0.3-0.9-0.5-1.3-0.8c-0.1,0-0.1,0-0.2,0c0,0,0,0.1,0.1,0.2c0.4,0.2,0.8,0.5,1.2,0.7
		C43.1,71.3,43.2,71.3,43.2,71.2z M43.1,68.7C43.1,68.7,43.1,68.6,43.1,68.7c-0.3-0.3-0.6-0.4-0.9-0.6c-0.1,0-0.1,0-0.1,0
		c0,0.1,0,0.1,0.1,0.2c0.3,0.2,0.5,0.3,0.8,0.5C43,68.8,43.1,68.9,43.1,68.7z"/>
	<path class="st2" d="M71.2,69c0.5,0,0.6,0,0.7,0.5c0.2,0.8,0.3,1.6,0.4,2.4c0,0.2-0.1,0.3-0.2,0.4c-0.4,0.1-0.5,0.7-1,0.6
		c-0.4-0.1-0.6-0.4-0.9-0.7c-0.1-0.1-0.1-0.2-0.1-0.3c0.1-0.8,0.3-1.6,0.4-2.4C70.6,69,70.7,69,71.2,69z M72.1,71.8
		c-0.3-0.4-0.6-0.5-1-0.7c-0.2-0.1-0.5-0.4-0.6-0.2c-0.1,0.3,0.3,0.3,0.5,0.4C71.3,71.4,71.7,71.7,72.1,71.8z M70.3,71.6
		c0.4,0.4,0.9,0.6,1.3,0.9c0.1,0,0.1,0,0.1-0.1c0-0.1,0-0.1-0.1-0.2c-0.2-0.1-0.4-0.3-0.6-0.4C70.9,71.7,70.7,71.5,70.3,71.6z
		 M71.9,70.7c0-0.1-0.1-0.1-0.2-0.2c-0.3-0.2-0.6-0.3-0.9-0.5c-0.1,0-0.1-0.2-0.2-0.1c-0.1,0.1,0,0.2,0.1,0.2c0.3,0.2,0.6,0.4,1,0.6
		C71.8,70.9,71.9,70.9,71.9,70.7z M70.9,69.2c-0.1,0-0.1,0-0.1,0.1c0,0.1,0,0.1,0.1,0.2c0.3,0.2,0.6,0.3,0.8,0.5c0,0,0.1,0.1,0.1,0
		c0,0,0-0.1,0-0.1C71.5,69.6,71.2,69.4,70.9,69.2z"/>
	<path class="st2" d="M66.5,67.1c0,0,0-0.1,0-0.1c0.1-1.1,0.1-0.8,1.1-0.8c0.1,0,0.2,0,0.2,0.1c0.1,0.5,0.2,1.1,0.3,1.7
		C67.5,67.6,67.1,67.2,66.5,67.1z M67.8,67.1c-0.1-0.4-0.5-0.5-0.8-0.7c-0.1,0-0.2-0.1-0.2,0c-0.1,0.1,0,0.2,0.1,0.2
		C67.2,66.8,67.4,67,67.8,67.1z"/>
	<path class="st0" d="M80.5,60.7c0,0.5-0.3,0.7-0.7,0.7c-0.1,0-0.2,0-0.2-0.1c0-0.1,0-0.2,0.1-0.2c0.3,0,0.4-0.2,0.4-0.5
		c0-0.1,0.1-0.2,0.2-0.2C80.6,60.4,80.5,60.6,80.5,60.7z"/>
	<path class="st0" d="M79.1,60.3c0-0.4,0.2-0.6,0.6-0.7c0.1,0,0.2-0.1,0.3,0.1c0,0.2,0,0.2-0.2,0.2c-0.3,0-0.4,0.2-0.3,0.4
		c0,0.1,0,0.3-0.2,0.3C79,60.6,79.1,60.4,79.1,60.3z"/>
	<path class="st2" d="M86.5,43c-0.6-0.2-1-0.6-1.5-0.9c-0.1,0-0.1-0.1-0.2,0c-0.1,0.1,0,0.1,0.1,0.2c0.1,0.1,0.2,0.1,0.3,0.2
		c0.3,0.2,0.7,0.3,1,0.6c0.1,0.1,0.4,0,0.5,0.2c0.1,0.1,0.1,0.2-0.1,0.3c-0.3,0.2-0.7,0.4-1,0.7c-0.1,0.1-0.2,0-0.2,0
		c-0.1-0.1-0.2-0.1-0.3-0.2c-0.8-0.6-0.8-0.6-0.6-1.5c0.1-0.6,0.3-1.3,0.4-1.9c0-0.2,0.1-0.2,0.3-0.2c0.3,0,0.6-0.1,0.8,0
		c0.2,0.1,0.2,0.5,0.2,0.8C86.3,41.8,86.6,42.4,86.5,43z M85,41.3c0,0.3,0.8,0.8,1.3,0.9C85.8,41.8,85.4,41.6,85,41.3z M86.1,41.3
		c-0.1-0.2-0.8-0.7-0.9-0.7c0,0-0.1,0-0.1,0.1c0,0.1,0,0.1,0.1,0.2C85.4,41,85.7,41.2,86.1,41.3z M84.8,42.9c-0.1,0-0.2,0-0.2,0.1
		c0.1,0.2,0.3,0.2,0.5,0.3c0,0,0.1,0,0.1-0.1C85.1,43,84.9,43,84.8,42.9z M85.5,43.3c0.1,0.3,0.3,0.3,0.5,0.4
		C85.9,43.5,85.8,43.4,85.5,43.3z"/>
	<path class="st1" d="M3.6,41.2c0-0.1,0.1-0.2,0.2-0.1c0.4,0.2,0.8,0.5,1.2,0.7c0.1,0,0.1,0.1,0.1,0.2c0,0.1-0.1,0.1-0.1,0
		C4.5,41.8,4.1,41.6,3.6,41.2C3.6,41.3,3.6,41.3,3.6,41.2z"/>
	<path class="st1" d="M5.3,40.5c0,0.1-0.1,0.1-0.2,0.1c-0.4-0.2-0.7-0.4-1.1-0.6c-0.1-0.1-0.1-0.1-0.1-0.2c0.1-0.1,0.2,0,0.2,0
		C4.4,39.9,4.7,40,5,40.2C5.1,40.3,5.2,40.3,5.3,40.5z"/>
	<path class="st1" d="M5,39.6c-0.3-0.2-0.6-0.3-0.9-0.5C4.1,39.1,4,39,4,38.9c0.1-0.1,0.2,0,0.2,0c0.2,0.1,0.4,0.2,0.6,0.3
		C5,39.4,5.1,39.5,5,39.6z"/>
	<path class="st0" d="M12.4,70.1c-0.5-0.2-1-0.5-1.4-0.8c-0.1-0.1-0.1-0.1-0.1-0.2c0,0,0.1,0,0.2,0c0.4,0.3,0.8,0.5,1.3,0.7
		C12.5,69.9,12.4,69.9,12.4,70.1z"/>
	<path class="st0" d="M12.4,69.3c-0.5-0.3-0.9-0.5-1.3-0.7c-0.1,0-0.1-0.1-0.1-0.2c0-0.1,0.1,0,0.1,0c0.4,0.2,0.8,0.4,1.2,0.7
		C12.4,69.1,12.4,69.1,12.4,69.3z"/>
	<path class="st0" d="M10.9,69.8c0.1,0.1,0.2,0.1,0.4,0.2c0.3,0.2,0.6,0.3,0.9,0.5c0.1,0,0.1,0.1,0.1,0.2c0,0.1-0.1,0.1-0.2,0
		c-0.4-0.2-0.8-0.4-1.2-0.7c0,0-0.1-0.1-0.1-0.1C10.8,69.8,10.8,69.8,10.9,69.8z"/>
	<path class="st0" d="M12.2,68.3c-0.3-0.2-0.6-0.3-0.9-0.5c-0.1,0-0.2-0.1-0.1-0.2c0.1-0.2,0.2,0,0.2,0c0.2,0.1,0.4,0.2,0.6,0.3
		C12.1,68,12.3,68.1,12.2,68.3z"/>
	<path class="st0" d="M43.4,70.7c-0.5-0.3-1-0.6-1.5-0.9c-0.1,0-0.2-0.1-0.1-0.2c0.1-0.1,0.2,0,0.2,0c0.4,0.2,0.8,0.5,1.2,0.7
		C43.4,70.4,43.5,70.5,43.4,70.7z"/>
	<path class="st0" d="M42,68.8c0.4,0.3,1,0.5,1.4,0.9C42.9,69.7,42,69.1,42,68.8z"/>
	<path class="st0" d="M43.2,71.2c0,0.2-0.1,0.2-0.2,0.1c-0.4-0.2-0.8-0.5-1.2-0.7c0,0-0.1-0.1-0.1-0.2c0-0.1,0.1-0.1,0.2,0
		C42.3,70.6,42.7,70.9,43.2,71.2C43.1,71.1,43.2,71.1,43.2,71.2z"/>
	<path class="st0" d="M43.1,68.7c0,0.2-0.1,0.1-0.2,0.1c-0.3-0.2-0.5-0.3-0.8-0.5c-0.1,0-0.1-0.1-0.1-0.2c0,0,0.1-0.1,0.1,0
		C42.5,68.3,42.8,68.4,43.1,68.7C43.1,68.6,43.1,68.7,43.1,68.7z"/>
	<path class="st0" d="M72.1,71.8c-0.4-0.1-0.8-0.3-1.1-0.5c-0.2-0.1-0.6-0.1-0.5-0.4c0-0.1,0.4,0.1,0.6,0.2
		C71.5,71.2,71.8,71.4,72.1,71.8z"/>
	<path class="st0" d="M70.3,71.6c0.3-0.1,0.5,0.2,0.7,0.3c0.2,0.1,0.4,0.3,0.6,0.4c0.1,0,0.1,0.1,0.1,0.2c0,0.1-0.1,0.1-0.1,0.1
		C71.2,72.2,70.7,72,70.3,71.6z"/>
	<path class="st0" d="M71.9,70.7c0,0.2-0.1,0.1-0.2,0.1c-0.3-0.2-0.6-0.4-1-0.6c-0.1-0.1-0.2-0.1-0.1-0.2c0.1-0.1,0.1,0,0.2,0.1
		c0.3,0.2,0.6,0.3,0.9,0.5C71.8,70.6,71.9,70.6,71.9,70.7z"/>
	<path class="st0" d="M70.9,69.2c0.3,0.2,0.6,0.4,0.9,0.6c0,0,0,0.1,0,0.1c0,0.1-0.1,0-0.1,0c-0.3-0.2-0.6-0.3-0.8-0.5
		c0,0,0-0.1-0.1-0.2C70.8,69.3,70.8,69.3,70.9,69.2z"/>
	<path class="st0" d="M67.8,67.1c-0.3-0.2-0.6-0.3-0.9-0.5c-0.1-0.1-0.2-0.1-0.1-0.2c0.1-0.1,0.1,0,0.2,0
		C67.3,66.6,67.6,66.7,67.8,67.1z"/>
	<path class="st0" d="M85,41.3c0.4,0.3,0.9,0.5,1.3,0.9C85.7,42.1,84.9,41.6,85,41.3z"/>
	<path class="st0" d="M86.1,41.3c-0.4-0.1-0.7-0.4-1-0.5c-0.1,0-0.1-0.1-0.1-0.2c0-0.1,0.1-0.1,0.1-0.1C85.3,40.6,86,41.1,86.1,41.3
		z"/>
	<path class="st0" d="M84.8,42.9c0.1,0.1,0.4,0.1,0.4,0.3c0,0-0.1,0.1-0.1,0.1c-0.2-0.1-0.4-0.1-0.5-0.3
		C84.6,42.9,84.7,42.9,84.8,42.9z"/>
	<path class="st0" d="M85.5,43.3c0.2,0.1,0.4,0.2,0.5,0.4C85.8,43.6,85.6,43.7,85.5,43.3z"/>
	<g>
		<circle class="st3" cx="42.4" cy="44.3" r="1.6"/>
		<circle class="st3" cx="42.4" cy="29.9" r="1.6"/>
		<path class="st4" d="M40.8,42.5c-2.3-0.7-4-2.8-4-5.4c0-2.5,1.7-4.7,4-5.4c-0.5-0.4-0.8-1.1-0.8-1.8c0-0.5,0.1-0.9,0.3-1.2
			c0,0,0,0,0,0c-3.8,0.9-6.6,4.4-6.6,8.4c0,4.1,2.8,7.5,6.6,8.4c0,0,0,0,0,0c-0.2-0.4-0.3-0.8-0.3-1.2C40,43.5,40.3,42.9,40.8,42.5z
			"/>
		<path class="st4" d="M44.5,28.7c0.2,0.4,0.4,0.8,0.4,1.3c0,0.7-0.3,1.4-0.8,1.8c2.3,0.7,4,2.8,4,5.4c0,2.5-1.7,4.7-4,5.4
			c0.5,0.4,0.8,1.1,0.8,1.8c0,0.5-0.1,0.9-0.4,1.3c3.8-0.9,6.6-4.4,6.6-8.4C51.1,33,48.3,29.6,44.5,28.7z"/>
	</g>
	<path class="st0" d="M42.4,57.6c-0.4,0-0.7-0.3-0.7-0.7v-6.5c0-0.4,0.3-0.7,0.7-0.7c0.4,0,0.7,0.3,0.7,0.7v6.5
		C43.2,57.3,42.8,57.6,42.4,57.6z"/>
	<path class="st0" d="M42.4,24.5c-0.4,0-0.7-0.3-0.7-0.7v-6.5c0-0.4,0.3-0.7,0.7-0.7c0.4,0,0.7,0.3,0.7,0.7v6.5
		C43.2,24.2,42.8,24.5,42.4,24.5z"/>
	<path class="st0" d="M29.1,37.8h-6.5c-0.4,0-0.7-0.3-0.7-0.7s0.3-0.7,0.7-0.7h6.5c0.4,0,0.7,0.3,0.7,0.7S29.5,37.8,29.1,37.8z"/>
	<path class="st0" d="M62.3,37.8h-6.5c-0.4,0-0.7-0.3-0.7-0.7s0.3-0.7,0.7-0.7h6.5c0.4,0,0.7,0.3,0.7,0.7S62.7,37.8,62.3,37.8z"/>
	<path class="st0" d="M51.9,28.4c-0.2,0-0.4-0.1-0.5-0.2c-0.3-0.3-0.3-0.7,0-1l10.4-10.4c0.3-0.3,0.7-0.3,1,0c0.3,0.3,0.3,0.7,0,1
		L52.4,28.2C52.2,28.3,52,28.4,51.9,28.4z"/>
	<path class="st0" d="M22.6,57.6c-0.2,0-0.4-0.1-0.5-0.2c-0.3-0.3-0.3-0.7,0-1L32.5,46c0.3-0.3,0.7-0.3,1,0c0.3,0.3,0.3,0.7,0,1
		L23.1,57.4C23,57.6,22.8,57.6,22.6,57.6z"/>
	<path class="st0" d="M62.3,57.6c-0.2,0-0.4-0.1-0.5-0.2L51.4,47c-0.3-0.3-0.3-0.7,0-1c0.3-0.3,0.7-0.3,1,0l10.4,10.4
		c0.3,0.3,0.3,0.7,0,1C62.6,57.6,62.4,57.6,62.3,57.6z"/>
	<path class="st0" d="M33,28.4c-0.2,0-0.4-0.1-0.5-0.2L22.1,17.8c-0.3-0.3-0.3-0.7,0-1c0.3-0.3,0.7-0.3,1,0l10.4,10.4
		c0.3,0.3,0.3,0.7,0,1C33.4,28.3,33.2,28.4,33,28.4z"/>
</g>
</svg>
