<?xml version="1.0" encoding="utf-8"?>
<!-- Generator: Adobe Illustrator 21.1.0, SVG Export Plug-In . SVG Version: 6.00 Build 0)  -->
<svg version="1.1" id="Layer_1" xmlns="http://www.w3.org/2000/svg" xmlns:xlink="http://www.w3.org/1999/xlink" x="0px" y="0px"
	 viewBox="0 0 88 88" style="enable-background:new 0 0 88 88;" xml:space="preserve">
<style type="text/css">
	.st0{fill:#25668E;}
</style>
<g>
	<g>
		<path class="st0" d="M45.5,22c0-0.6,0-1.3,0-1.9c0-6.4,0-12.8,0-19.2c0-0.7,0.2-0.9,0.9-0.8c1.5,0.2,3,0.3,4.5,0.5
			C60,2,67.9,5.8,74.4,12.2C85.3,23,89.8,36,87.4,51.1c-2.2,13.9-9.9,24.3-22,31.3c-0.8,0.4-1.1,0.4-1.5-0.5
			C57.9,69.5,51.9,57,45.9,44.4c-0.2-0.5-0.4-1-0.4-1.6C45.6,35.9,45.5,28.9,45.5,22C45.5,22,45.5,22,45.5,22z M65,77
			c-0.7,0.4-0.2,0.8,0,1.1c0.5,1,0.5,1,1.4,0.4c3.2-2.1,6.1-4.6,8.6-7.5c0.2-0.2,0.3-0.4,0.4-0.6c0.1,0,0.2-0.1,0.1-0.2
			c0,0-0.1,0-0.2,0.1C71.9,72.6,68.5,74.8,65,77z M58.2,35.7c6.7-4.3,13.3-8.7,20-13c0.7-0.4,0.7-0.8,0.3-1.4
			c-0.7-0.8-1.3-1.7-1.9-2.6c-0.3-0.5-0.6-0.5-1.1-0.2c-5.9,3.8-11.7,7.6-17.6,11.5c-3,1.9-5.9,3.8-8.9,5.7
			c-0.6,0.4-0.8,0.8-0.7,1.4c0,1.6,0,3.2,0,5C51.7,39.9,55,37.8,58.2,35.7z M79.6,25c-8.3,5.4-16.6,10.8-24.8,16.2
			c-1.7,1.1-3.4,2.3-5.2,3.3c-0.4,0.3-0.5,0.5-0.3,0.9c0.5,0.9,1,1.9,1.4,2.9c0.3,0.7,0.5,0.6,1,0.3c6.3-4.1,12.6-8.2,18.9-12.3
			c3.7-2.4,7.3-4.8,11-7.1c0.6-0.4,0.7-0.7,0.4-1.2c-0.5-0.9-0.9-1.9-1.4-2.9c-0.1-0.2-0.1-0.4-0.4-0.5C80,24.7,79.8,24.9,79.6,25z
			 M76.1,36.1c-7.7,5-15.4,10-23.1,15c-0.6,0.4-0.8,0.7-0.4,1.3c0.4,0.7,0.8,1.5,1.1,2.3c0.3,0.6,0.5,0.8,1.2,0.4
			c5.4-3.5,10.8-7,16.3-10.5c4.2-2.7,8.4-5.4,12.6-8.1c0.5-0.3,0.7-0.6,0.5-1.2c-0.3-1.2-0.6-2.5-1-3.8C80.9,33,78.5,34.5,76.1,36.1
			z M85,39.8c0-0.7-0.2-0.7-0.8-0.4c-2.1,1.4-4.3,2.8-6.4,4.1c-7.2,4.7-14.5,9.4-21.8,14c-0.6,0.4-0.7,0.7-0.3,1.3
			c0.5,0.9,0.9,1.9,1.3,2.8c0.3,0.6,0.5,0.6,1,0.2c6.2-4.1,12.3-8.1,18.5-12.1c2.4-1.6,4.8-3.2,7.3-4.8c1-0.6,1.7-1.3,1.4-2.2
			C85.1,41.5,85,40.7,85,39.8z M56.5,27.5c5.7-3.7,11.4-7.4,17.1-11.1c0.7-0.4,0.6-0.6,0.1-1.1c-0.9-0.8-1.8-1.7-2.7-2.5
			c-0.4-0.3-0.6-0.4-1.1-0.1c-5.4,3.5-10.8,7.1-16.2,10.6c-1.6,1-3.2,2.1-4.8,3c-0.5,0.3-0.7,0.6-0.6,1.2c0,1.7,0,3.4,0,5.4
			C51.2,31,53.8,29.3,56.5,27.5z M83.1,48.8c-7.9,5.2-15.8,10.4-23.7,15.5c-0.6,0.4-0.8,0.7-0.4,1.4c0.5,0.8,0.8,1.6,1.1,2.4
			c0.2,0.6,0.4,0.8,1.1,0.3c4.7-3.1,9.4-6.1,14.2-9.2c2.7-1.7,5.3-3.4,8-5.2c0.3-0.2,0.6-0.3,0.7-0.7c0.4-1.9,0.8-3.8,0.9-5.9
			C84.3,48,83.7,48.4,83.1,48.8z M68.1,10.6c-1.2-0.9-2.5-1.7-3.7-2.4c-0.3-0.2-0.5,0-0.7,0.1c-5,3.3-10,6.5-15,9.7
			c-0.3,0.2-0.4,0.4-0.4,0.7c0,1.5,0,3,0,4.7C55,19.1,61.5,14.9,68.1,10.6z M82,58.3c-6.5,4.2-13,8.4-19.5,12.6
			c-0.5,0.3-0.7,0.6-0.4,1.2c0.4,0.7,0.7,1.4,1,2.1c0.2,0.4,0.3,0.6,0.8,0.3c5.2-3.4,10.5-6.8,15.7-10.2c0.4-0.2,0.6-0.5,0.8-0.9
			c0.9-1.7,1.7-3.5,2.4-5.4C82.4,57.9,82.2,58.1,82,58.3z M61.3,6.5c-1.9-0.9-3.7-1.5-5.6-2.1c-0.4-0.1-0.6,0-0.9,0.2
			c-2,1.3-3.9,2.6-5.9,3.8c-0.3,0.2-0.6,0.4-0.5,0.9c0,1.8,0,3.6,0,5.6C52.7,12.1,56.9,9.3,61.3,6.5z M51.5,3.4
			c-1.1-0.2-1.9-0.2-2.7-0.4c-0.5-0.1-0.5,0.1-0.5,0.5c0,0.6,0,1.2,0,2C49.4,4.8,50.4,4.2,51.5,3.4z"/>
		<path class="st0" d="M42.8,41.2c0-1.5,0-2.9,0-4.2c0-12,0-24,0-36c0-0.8-0.2-1-1-0.9C29,0.9,18.5,6.2,10.1,16
			c-0.5,0.6-0.6,0.9,0.1,1.4C20.9,25.1,31.4,32.9,42,40.7C42.2,40.8,42.4,40.9,42.8,41.2z"/>
		<path class="st0" d="M0.2,39.2c0-0.6,0.2-0.7,0.8-0.6c5.3,0.9,10.6,1.7,15.9,2.5c8.5,1.3,17,2.7,25.5,4c0.5,0.1,0.8,0.3,1,0.8
			c6,12.5,11.9,25,17.9,37.5c0.4,0.8,0.2,1-0.5,1.3c-9.9,4-20,4.5-30.2,1.3C12.3,80,0.1,63.2,0,43.6C-0.1,42.3,0.2,40.8,0.2,39.2z
			 M57.2,83c0.7-0.2,0.7-0.4,0.4-1c-5.3-11.1-10.7-22.3-16-33.4c-0.3-0.6-0.6-0.9-1.3-1c-8.1-1.2-16.2-2.5-24.3-3.8
			C12.1,43.1,8,42.5,4,41.8c-1.2-0.2-1.2-0.2-1.2,1C2.5,61.6,14.2,78,31.9,83.4c4,1.2,8,1.8,12.9,1.8C48.6,85.2,53,84.4,57.2,83z"/>
		<path class="st0" d="M38.5,41.6c-2.7-2-5.1-3.8-7.5-5.6c-7.5-5.5-15-11-22.4-16.5c-0.6-0.4-0.8-0.4-1.2,0.2
			C4.2,24.4,2.1,29.5,0.9,35c-0.1,0.6,0,0.8,0.6,0.9c6.9,1.1,13.8,2.2,20.7,3.3c5.1,0.8,10.3,1.6,15.4,2.4
			C37.8,41.6,38,41.6,38.5,41.6z"/>
		<path class="st0" d="M75.5,70.5c0.1,0,0.2-0.1,0.1-0.2c0,0-0.1,0-0.2,0.1C75.4,70.4,75.4,70.4,75.5,70.5z"/>
	</g>
</g>
</svg>
