<?xml version="1.0" encoding="utf-8"?>
<!-- Generator: Adobe Illustrator 21.1.0, SVG Export Plug-In . SVG Version: 6.00 Build 0)  -->
<svg version="1.1" id="Layer_1" xmlns="http://www.w3.org/2000/svg" xmlns:xlink="http://www.w3.org/1999/xlink" x="0px" y="0px"
	 viewBox="0 0 78 88" style="enable-background:new 0 0 78 88;" xml:space="preserve">
<style type="text/css">
	.st0{fill:#25668E;}
</style>
<g>
	<path class="st0" d="M35.5,0c2.3,0,4.6,0,6.9,0c0.4,0.1,0.8,0.1,1.2,0.2c5.1,0.2,10.1,0.9,15,2.1C63,3.4,67.2,4.9,71,7.4
		c4.3,2.9,6.6,6.7,6.5,12.1c-0.1,16.6-0.1,33.2,0,49.9c0,4.1-1.6,7.3-4.6,9.9c-3,2.5-6.5,4.1-10.2,5.4c-6.4,2.1-12.9,3-19.6,3.3
		c-8.2,0.4-16.4-0.3-24.4-2.3c-4.6-1.2-9-2.8-12.8-5.7c-3.3-2.5-5.4-5.7-5.4-10c0-17.2,0-34.4,0-51.7c0-2.9,1-5.4,2.9-7.6
		c2.3-2.6,5.2-4.4,8.4-5.7C17.9,2.1,24.5,1,31.2,0.4C32.6,0.2,34.1,0.1,35.5,0z M39,30.1c1.8,0,3.7,0.1,5.5,0
		c5.6-0.3,11.1-1.2,16.4-2.9c3.2-1.1,6.3-2.4,8.9-4.8c3-2.9,3.1-6.2,0-9c-1.4-1.2-3-2.3-4.6-3.1c-6.4-3.1-13.3-4.2-20.4-4.7
		c-4.5-0.3-9-0.3-13.5,0.2C26,6.3,20.9,7.2,15.9,9c-2.8,1-5.6,2.3-7.8,4.4c-2.9,2.8-2.9,6.1,0,8.9c0.2,0.2,0.5,0.4,0.7,0.6
		c2.5,2,5.3,3.2,8.3,4.2C24.2,29.5,31.6,30.2,39,30.1z M5.9,43.4c0,3.4,0,6.6,0,9.8c0,1.8,0.6,3.2,1.8,4.5c1.4,1.5,3.2,2.6,5,3.5
		c6.5,3,13.4,4.1,20.4,4.6c5.1,0.4,10.2,0.3,15.3-0.3c4.8-0.5,9.4-1.4,14-3.1c2.8-1,5.4-2.3,7.6-4.4c1.4-1.4,2.1-3,2.1-5
		c-0.1-2.9,0-5.8,0-8.7c0-0.3,0-0.5,0-1c-0.2,0.2-0.4,0.3-0.5,0.3c-1.8,1.7-3.9,2.9-6.1,3.9c-6.6,2.9-13.6,3.9-20.7,4.4
		c-6.4,0.4-12.7,0.2-19-0.8C18.6,50.1,11.7,48.4,5.9,43.4z M72,59.9c-3.9,3.1-6.2,4.3-10.8,5.8c-5.9,1.9-12.1,2.7-18.2,3
		c-8.1,0.4-16.1-0.2-24-2.3c-4.7-1.2-9.2-2.9-12.8-6.3c0,0-0.1,0-0.2,0c0,3.1,0.1,6.2,0,9.3c-0.1,2.1,0.7,3.9,2.3,5.2
		c1.4,1.2,3,2.3,4.7,3.1c5.7,2.8,11.9,3.9,18.1,4.5c5.2,0.5,10.4,0.5,15.6,0c5-0.5,10-1.3,14.8-3c2.9-1,5.6-2.2,7.9-4.2
		c1.8-1.5,2.8-3.4,2.7-5.8c-0.1-2.5,0-5,0-7.5C72,61.2,72,60.6,72,59.9z M5.9,27.6c0,3.2,0,6.1,0,9.1c0,1.7,0.6,3.2,1.7,4.4
		c1.4,1.6,3.2,2.7,5.1,3.6c6.5,3,13.4,4.1,20.5,4.6c5.1,0.4,10.2,0.2,15.4-0.3c5-0.6,10-1.6,14.7-3.5c2.5-1,4.9-2.2,6.8-4.2
		c1.3-1.3,1.9-2.8,1.9-4.7c-0.1-2.7,0-5.4,0-8.1c0-0.2,0-0.5,0-0.7c-1.7,0.9-3.3,1.9-5,2.7c-7.2,3.3-14.8,4.5-22.6,5
		c-4.9,0.3-9.8,0.2-14.8-0.3c-5-0.5-9.9-1.4-14.6-3C11.9,31.2,8.8,29.8,5.9,27.6z"/>
	<path class="st0" d="M63.7,52.3c1.5,0,2.7,1.2,2.8,2.7c0,1.5-1.2,2.7-2.7,2.8c-1.5,0-2.7-1.2-2.8-2.7C61,53.6,62.2,52.3,63.7,52.3z
		"/>
	<path class="st0" d="M66.5,71.5c0,1.5-1.2,2.7-2.7,2.7c-1.5,0-2.7-1.2-2.7-2.7c0-1.5,1.2-2.7,2.7-2.7C65.2,68.8,66.5,70,66.5,71.5z
		"/>
	<path class="st0" d="M63.8,35.8c1.5,0,2.7,1.3,2.7,2.8c0,1.5-1.3,2.7-2.8,2.7c-1.5,0-2.7-1.3-2.7-2.8C61,37,62.3,35.8,63.8,35.8z"
		/>
</g>
</svg>
