<svg id="Layer_1" data-name="Layer 1" xmlns="http://www.w3.org/2000/svg" viewBox="0 0 2338.54 283.11"><defs><style>.cls-1{fill:#f96731;}.cls-2{fill:#2b9af3;}.cls-3{fill:#005979;}</style></defs><path d="M51.43,255.5a26.24,26.24,0,0,1-10.85,1.95c-11.59,0-20.31-7.32-20.31-20.79,0-12.87,8.72-21.59,21.46-21.59,5.12,0,8.35,1.1,9.76,1.83l-1.28,4.33a19.25,19.25,0,0,0-8.29-1.71c-9.63,0-16,6.16-16,16.95,0,10.06,5.79,16.53,15.79,16.53a21.21,21.21,0,0,0,8.66-1.71Z"/><path d="M86.7,241.84c0,10.91-7.56,15.67-14.69,15.67-8,0-14.15-5.85-14.15-15.18,0-9.88,6.46-15.67,14.63-15.67C81,226.66,86.7,232.82,86.7,241.84Zm-23.42.31c0,6.46,3.72,11.34,9,11.34s9-4.82,9-11.46c0-5-2.5-11.34-8.84-11.34S63.28,236.54,63.28,242.15Z"/><path d="M95.56,235.32c0-3-.06-5.55-.24-8h4.76l.3,4.88h.12a10.84,10.84,0,0,1,9.76-5.55c4.08,0,10.43,2.44,10.43,12.56v17.62h-5.37v-17c0-4.76-1.77-8.72-6.83-8.72a7.61,7.61,0,0,0-7.19,5.49,7.85,7.85,0,0,0-.36,2.5v17.75H95.57V235.32Z"/><path d="M131.49,235.32c0-3-.06-5.55-.24-8H136l.31,4.88h.12a10.84,10.84,0,0,1,9.76-5.55c4.08,0,10.43,2.44,10.43,12.56v17.62h-5.37v-17c0-4.76-1.77-8.72-6.83-8.72a7.61,7.61,0,0,0-7.19,5.49,7.85,7.85,0,0,0-.36,2.5v17.75h-5.37V235.32Z"/><path d="M170.42,243.06c.12,7.26,4.76,10.24,10.12,10.24a19.46,19.46,0,0,0,8.17-1.52l.92,3.84a24,24,0,0,1-9.82,1.83c-9.09,0-14.51-6-14.51-14.88s5.25-15.91,13.84-15.91c9.63,0,12.2,8.48,12.2,13.9a20.54,20.54,0,0,1-.18,2.5Zm15.73-3.84c.06-3.41-1.4-8.72-7.44-8.72-5.43,0-7.81,5-8.23,8.72Z"/><path d="M221.11,255.75a19.77,19.77,0,0,1-8.48,1.71c-8.9,0-14.7-6-14.7-15.06s6.22-15.67,15.86-15.67a18,18,0,0,1,7.44,1.52L220,232.4a12.46,12.46,0,0,0-6.22-1.4c-6.77,0-10.43,5-10.43,11.16,0,6.83,4.39,11,10.25,11a15.3,15.3,0,0,0,6.59-1.46Z"/><path d="M235.94,218.85v8.48h7.68v4.08h-7.68v15.92c0,3.66,1,5.73,4,5.73a12.13,12.13,0,0,0,3.11-.36l.24,4a13.08,13.08,0,0,1-4.76.73,7.41,7.41,0,0,1-5.79-2.26c-1.52-1.59-2.07-4.21-2.07-7.68v-16.1h-4.57v-4.08h4.57v-7.08Z"/><path d="M257.72,219a3.32,3.32,0,0,1-6.64,0,3.26,3.26,0,0,1,3.35-3.35A3.18,3.18,0,0,1,257.72,219Zm-6,37.8V227.33h5.37v29.51Z"/><path d="M268.1,235.32c0-3-.06-5.55-.24-8h4.76l.3,4.88H273a10.84,10.84,0,0,1,9.76-5.55c4.08,0,10.43,2.44,10.43,12.56v17.62h-5.37v-17c0-4.76-1.77-8.72-6.83-8.72a7.61,7.61,0,0,0-7.19,5.49,7.85,7.85,0,0,0-.36,2.5v17.75h-5.37V235.32Z"/><path d="M329.46,227.33c-.12,2.13-.25,4.51-.25,8.11v17.13c0,6.77-1.34,10.91-4.21,13.48s-7,3.54-10.73,3.54c-3.54,0-7.44-.85-9.82-2.44l1.34-4.09a16.63,16.63,0,0,0,8.66,2.32c5.49,0,9.51-2.87,9.51-10.31v-3.29h-.12a10.53,10.53,0,0,1-9.39,4.94c-7.32,0-12.56-6.22-12.56-14.39,0-10,6.53-15.67,13.29-15.67,5.12,0,7.93,2.68,9.21,5.12h.12l.24-4.45ZM323.91,239a7.83,7.83,0,0,0-7.8-8.11c-5.12,0-8.78,4.33-8.78,11.16,0,5.79,2.93,10.61,8.72,10.61a7.84,7.84,0,0,0,7.44-5.49,9.21,9.21,0,0,0,.43-2.87V239Z"/><path d="M355.4,215.74h5.31v36.65h17.56v4.45H355.4Z"/><path d="M392.06,219a3.32,3.32,0,0,1-6.64,0,3.26,3.26,0,0,1,3.35-3.35A3.18,3.18,0,0,1,392.06,219Zm-6,37.8V227.33h5.37v29.51Z"/><path d="M403,256.84V231.41h-4.15v-4.08H403v-1.4c0-4.15.92-7.93,3.42-10.31a10.26,10.26,0,0,1,7.19-2.75,12.55,12.55,0,0,1,4.57.85l-.73,4.15a7.93,7.93,0,0,0-3.41-.67c-4.57,0-5.73,4-5.73,8.54v1.59h7.13v4.08H408.3v25.43Z"/><path d="M425.32,243.06c.12,7.26,4.75,10.24,10.12,10.24a19.46,19.46,0,0,0,8.17-1.52l.92,3.84a24,24,0,0,1-9.82,1.83c-9.09,0-14.51-6-14.51-14.88s5.25-15.91,13.84-15.91c9.63,0,12.2,8.48,12.2,13.9a20.54,20.54,0,0,1-.18,2.5Zm15.73-3.84c.06-3.41-1.4-8.72-7.44-8.72-5.43,0-7.81,5-8.23,8.72Z"/><path d="M469.43,250.38a18.83,18.83,0,0,0,9.51,2.68c5.43,0,8.6-2.86,8.6-7,0-3.84-2.19-6-7.74-8.17-6.71-2.38-10.86-5.85-10.86-11.65,0-6.4,5.31-11.16,13.29-11.16a18.77,18.77,0,0,1,9.09,2l-1.46,4.33a16.37,16.37,0,0,0-7.81-1.95c-5.61,0-7.74,3.35-7.74,6.16,0,3.84,2.5,5.73,8.17,7.93,6.95,2.68,10.49,6,10.49,12.07,0,6.34-4.69,11.83-14.39,11.83-4,0-8.29-1.16-10.49-2.62Z"/><path d="M523.17,255.75a19.77,19.77,0,0,1-8.48,1.71c-8.9,0-14.7-6-14.7-15.06s6.22-15.67,15.86-15.67a18,18,0,0,1,7.44,1.52l-1.22,4.15a12.46,12.46,0,0,0-6.22-1.4c-6.77,0-10.43,5-10.43,11.16,0,6.83,4.39,11,10.25,11a15.3,15.3,0,0,0,6.59-1.46Z"/><path d="M537.51,219a3.32,3.32,0,0,1-6.64,0,3.26,3.26,0,0,1,3.35-3.35A3.18,3.18,0,0,1,537.51,219Zm-6,37.8V227.33h5.37v29.51Z"/><path d="M550.88,243.06c.12,7.26,4.75,10.24,10.12,10.24a19.46,19.46,0,0,0,8.17-1.52l.92,3.84a24,24,0,0,1-9.82,1.83c-9.09,0-14.51-6-14.51-14.88s5.25-15.91,13.84-15.91c9.63,0,12.2,8.48,12.2,13.9a20.54,20.54,0,0,1-.18,2.5Zm15.73-3.84c.06-3.41-1.4-8.72-7.44-8.72-5.43,0-7.81,5-8.23,8.72Z"/><path d="M580.53,235.32c0-3-.06-5.55-.24-8h4.76l.31,4.88h.12a10.84,10.84,0,0,1,9.76-5.55c4.08,0,10.43,2.44,10.43,12.56v17.62H600.3v-17c0-4.76-1.77-8.72-6.83-8.72a7.61,7.61,0,0,0-7.19,5.49,7.85,7.85,0,0,0-.36,2.5v17.75h-5.37V235.32Z"/><path d="M637.5,255.75a19.77,19.77,0,0,1-8.48,1.71c-8.9,0-14.7-6-14.7-15.06s6.22-15.67,15.86-15.67a18,18,0,0,1,7.44,1.52l-1.22,4.15a12.46,12.46,0,0,0-6.22-1.4c-6.77,0-10.43,5-10.43,11.16,0,6.83,4.39,11,10.25,11a15.3,15.3,0,0,0,6.59-1.46Z"/><path d="M648.86,243.06c.12,7.26,4.76,10.24,10.12,10.24a19.46,19.46,0,0,0,8.17-1.52l.92,3.84a24,24,0,0,1-9.82,1.83c-9.09,0-14.51-6-14.51-14.88s5.25-15.91,13.84-15.91c9.63,0,12.2,8.48,12.2,13.9a20.54,20.54,0,0,1-.18,2.5Zm15.73-3.84c.06-3.41-1.4-8.72-7.44-8.72-5.43,0-7.81,5-8.23,8.72Z"/><path d="M677.78,251.35a14,14,0,0,0,7.08,2.13c3.9,0,5.73-1.95,5.73-4.39s-1.52-4-5.49-5.43c-5.31-1.89-7.81-4.82-7.81-8.35,0-4.75,3.84-8.66,10.18-8.66a14.7,14.7,0,0,1,7.26,1.83l-1.34,3.9a11.5,11.5,0,0,0-6-1.71c-3.17,0-4.94,1.83-4.94,4,0,2.44,1.77,3.54,5.61,5,5.12,1.95,7.74,4.51,7.74,8.9,0,5.18-4,8.84-11,8.84a16.81,16.81,0,0,1-8.29-2Z"/><path d="M722.74,243.06c.12,7.26,4.75,10.24,10.12,10.24a19.46,19.46,0,0,0,8.17-1.52l.92,3.84a24,24,0,0,1-9.82,1.83c-9.09,0-14.51-6-14.51-14.88s5.25-15.91,13.84-15.91c9.63,0,12.2,8.48,12.2,13.9a20.54,20.54,0,0,1-.18,2.5Zm15.73-3.84c.06-3.41-1.4-8.72-7.44-8.72-5.43,0-7.81,5-8.23,8.72Z"/><path d="M754.89,227.33l4.21,6.34c1.1,1.65,2,3.17,3,4.82h.18c1-1.77,2-3.29,2.93-4.88l4.15-6.28h5.79L765.08,241.6l10.37,15.25h-6.1L765,250.2c-1.16-1.71-2.13-3.35-3.17-5.12h-.12c-1,1.77-2,3.35-3.11,5.12l-4.27,6.65h-5.92l10.49-15.06-10-14.45h6Z"/><path d="M782.72,237c0-3.78-.12-6.83-.24-9.63h4.82l.25,5.06h.12a11.59,11.59,0,0,1,10.49-5.73c7.13,0,12.5,6,12.5,15,0,10.61-6.46,15.85-13.42,15.85a10.37,10.37,0,0,1-9.09-4.63H788v16h-5.31Zm5.3,7.87a12.23,12.23,0,0,0,.24,2.19,8.28,8.28,0,0,0,8,6.28c5.67,0,9-4.63,9-11.4,0-5.91-3.11-11-8.78-11a8.56,8.56,0,0,0-8.11,6.65,8.8,8.8,0,0,0-.36,2.19Z"/><path d="M822.49,243.06c.12,7.26,4.76,10.24,10.12,10.24a19.46,19.46,0,0,0,8.17-1.52l.92,3.84a24,24,0,0,1-9.82,1.83c-9.09,0-14.51-6-14.51-14.88s5.25-15.91,13.84-15.91c9.63,0,12.2,8.48,12.2,13.9a20.54,20.54,0,0,1-.18,2.5Zm15.74-3.84c.06-3.41-1.4-8.72-7.44-8.72-5.43,0-7.81,5-8.23,8.72Z"/><path d="M852.15,236.54c0-3.48-.06-6.46-.24-9.21h4.69l.18,5.79H857c1.34-4,4.57-6.46,8.17-6.46a5.82,5.82,0,0,1,1.52.18v5.06a8.21,8.21,0,0,0-1.83-.18c-3.78,0-6.46,2.87-7.2,6.89a15.26,15.26,0,0,0-.24,2.5v15.73h-5.31v-20.3Z"/><path d="M880.64,218.85v8.48h7.68v4.08h-7.68v15.92c0,3.66,1,5.73,4,5.73a12.13,12.13,0,0,0,3.11-.36l.24,4a13.08,13.08,0,0,1-4.76.73,7.41,7.41,0,0,1-5.79-2.26c-1.52-1.59-2.07-4.21-2.07-7.68v-16.1h-4.57v-4.08h4.57v-7.08Z"/><path d="M895.71,251.35a14,14,0,0,0,7.08,2.13c3.9,0,5.73-1.95,5.73-4.39s-1.52-4-5.49-5.43c-5.31-1.89-7.81-4.82-7.81-8.35,0-4.75,3.84-8.66,10.18-8.66a14.7,14.7,0,0,1,7.26,1.83l-1.34,3.9a11.5,11.5,0,0,0-6-1.71c-3.17,0-4.94,1.83-4.94,4,0,2.44,1.77,3.54,5.61,5,5.12,1.95,7.74,4.51,7.74,8.9,0,5.18-4,8.84-11,8.84a16.81,16.81,0,0,1-8.29-2Z"/><path d="M20.27,190.77V13.55H42V114.61l51.5-52.22H121.7L72.62,110l54,80.75H99.82L57.38,125.13,42,139.88v50.89Z"/><path d="M281.63,190.77V62.39h19.58V80.64q14.15-21.15,40.86-21.16a53.62,53.62,0,0,1,21.34,4.17q9.73,4.17,14.57,10.94a42,42,0,0,1,6.77,16.08q1.2,6,1.21,21.16v78.94H364.2V112.68q0-13.29-2.54-19.89a20.88,20.88,0,0,0-9-10.51,28.64,28.64,0,0,0-15.17-3.93,35.27,35.27,0,0,0-24,8.82q-10.1,8.82-10.09,33.49v70.11Z"/><path d="M507.2,149.43l22.48,2.78q-5.32,19.71-19.7,30.58t-36.75,10.88q-28.17,0-44.67-17.35t-16.5-48.66q0-32.4,16.68-50.29T472,59.48q25.75,0,42.07,17.53t16.32,49.32c0,1.29,0,3.22-.12,5.8H434.55q1.2,21.15,12,32.4t26.84,11.24q12,0,20.43-6.29T507.2,149.43Zm-71.44-35.18h71.69Q506,98.05,499.23,90q-10.39-12.57-27-12.57-15,0-25.2,10T435.76,114.25Z"/><path d="M640.78,143.75l21.4,2.78q-3.51,22.13-17.95,34.64t-35.48,12.51q-26.36,0-42.37-17.23t-16-49.38q0-20.79,6.89-36.39a48,48,0,0,1,21-23.39,62.2,62.2,0,0,1,30.64-7.8q20.91,0,34.21,10.58t17,30L639,103.37q-3-12.93-10.7-19.46a27.7,27.7,0,0,0-18.56-6.53q-16.44,0-26.71,11.79t-10.28,37.29q0,25.88,9.91,37.6t25.87,11.73q12.81,0,21.4-7.86T640.78,143.75Z"/><path d="M728.31,171.31l3.14,19.22A80.72,80.72,0,0,1,715,192.46q-11.85,0-18.37-3.75a21,21,0,0,1-9.19-9.85q-2.66-6.11-2.66-25.69V79.31h-16V62.39h16V30.6l21.64-13.06V62.39h21.88V79.31H706.43v75.07q0,9.31,1.15,12a9,9,0,0,0,3.75,4.23q2.59,1.57,7.43,1.57A71.41,71.41,0,0,0,728.31,171.31Z"/><path d="M833.36,174.93q-12.09,10.27-23.27,14.51a67.31,67.31,0,0,1-24,4.23q-21.15,0-32.52-10.33t-11.36-26.41a35.15,35.15,0,0,1,4.29-17.23,35.5,35.5,0,0,1,11.24-12.51,52.85,52.85,0,0,1,15.65-7.13,153.89,153.89,0,0,1,19.34-3.26q26.35-3.14,38.8-7.49c.08-3,.12-4.88.12-5.68q0-13.29-6.17-18.74-8.34-7.36-24.78-7.37-15.36,0-22.67,5.38t-10.82,19L745.93,99q2.9-13.67,9.55-22.06T774.7,64q12.57-4.53,29.13-4.53t26.72,3.87q10.28,3.87,15.11,9.73a34.25,34.25,0,0,1,6.77,14.81q1.1,5.56,1.09,20.07v29q0,30.34,1.39,38.38a48.43,48.43,0,0,0,5.5,15.41H837.68A46.84,46.84,0,0,1,833.36,174.93Zm-1.82-48.59q-11.85,4.83-35.54,8.22-13.43,1.94-19,4.35a18.88,18.88,0,0,0-8.58,7.07A19.25,19.25,0,0,0,772,170.83q6.59,5.8,19.28,5.8a44.81,44.81,0,0,0,22.36-5.5,33.91,33.91,0,0,0,14.39-15q3.51-7.37,3.51-21.76v-8Z"/><path d="M887,190.77V62.39h19.58V81.85q7.5-13.66,13.84-18a24.15,24.15,0,0,1,14-4.35q11,0,22.36,7l-7.49,20.19a31.17,31.17,0,0,0-16-4.71,20.69,20.69,0,0,0-12.81,4.29,23.22,23.22,0,0,0-8.1,11.91,84.71,84.71,0,0,0-3.63,25.39v67.21H887Z"/><circle class="cls-1" cx="195.95" cy="178.5" r="12.21"/><circle class="cls-1" cx="195.95" cy="71.7" r="12.21"/><path class="cls-2" d="M183.87,165.11a41.79,41.79,0,0,1,0-80,18,18,0,0,1-3.4-22.64,0,0,0,0,0,0-.05,64.59,64.59,0,0,0,0,125.4s.05,0,0-.05a18,18,0,0,1,3.41-22.64Z"/><path class="cls-2" d="M211.39,62.38A18,18,0,0,1,208,85.09a41.79,41.79,0,0,1,0,80,18,18,0,0,1,3.36,22.71,64.59,64.59,0,0,0,0-125.44Z"/><path d="M1013.31,41.66c0,16-12.53,28.5-28.84,28.5-16.14,0-29-12.53-29-28.5,0-15.62,12.88-28.15,29-28.15C1000.77,13.5,1013.31,26,1013.31,41.66Zm-50.64,0c0,12.53,9.27,22.49,22,22.49,12.36,0,21.46-10,21.46-22.32,0-12.53-9.1-22.66-21.63-22.66S962.67,29.3,962.67,41.66ZM980,56.42h-6.52V28.27a57.35,57.35,0,0,1,10.81-.86c5.32,0,7.72.86,9.79,2.06a7.82,7.82,0,0,1,2.75,6.18c0,3.09-2.4,5.49-5.84,6.52v.34c2.75,1,4.29,3.09,5.15,6.87.86,4.29,1.37,6,2.06,7h-7c-.86-1-1.37-3.61-2.23-6.87-.51-3.09-2.23-4.46-5.84-4.46H980V56.42Zm.17-16h3.09c3.6,0,6.52-1.2,6.52-4.12,0-2.58-1.89-4.29-6-4.29a15.82,15.82,0,0,0-3.61.34v8.07Z"/><path class="cls-3" d="M1129.91,99.07a46.19,46.19,0,0,1-3.23,17.66,37.25,37.25,0,0,1-9.23,13.42,41.4,41.4,0,0,1-14.73,8.58,63.78,63.78,0,0,1-20.84,3h-14.83v47a2.23,2.23,0,0,1-.46,1.41,3,3,0,0,1-1.41,1,13.63,13.63,0,0,1-2.62.61,35.24,35.24,0,0,1-8.38,0,14.88,14.88,0,0,1-2.67-.61,2.75,2.75,0,0,1-1.41-1,2.46,2.46,0,0,1-.4-1.41V68.28q0-4,2.12-5.75a7.36,7.36,0,0,1,4.74-1.72h28c2.83,0,5.53.12,8.12.35a77.44,77.44,0,0,1,9.18,1.51,37.78,37.78,0,0,1,10.8,4.34,34,34,0,0,1,9.33,7.82,33.66,33.66,0,0,1,5.9,10.75A42.14,42.14,0,0,1,1129.91,99.07Zm-18.27,1.41q0-8-3-13.32a20.71,20.71,0,0,0-7.37-8,24.77,24.77,0,0,0-9.08-3.33,61.45,61.45,0,0,0-9.13-.71h-16v52.38h15.64a36.33,36.33,0,0,0,13.07-2,24.53,24.53,0,0,0,8.73-5.6,23.54,23.54,0,0,0,5.35-8.58A31.56,31.56,0,0,0,1111.64,100.48Z"/><path class="cls-3" d="M1239,185.25a12.63,12.63,0,0,1,.86,3.58,2.48,2.48,0,0,1-.76,2.07,4.93,4.93,0,0,1-2.67.91c-1.25.13-2.91.2-5,.2s-3.75,0-5-.15a11.54,11.54,0,0,1-2.83-.5,2.9,2.9,0,0,1-1.41-1,8,8,0,0,1-.86-1.51l-11.2-31.79h-54.3l-10.7,31.39a5,5,0,0,1-.81,1.56,4,4,0,0,1-1.46,1.11,9.21,9.21,0,0,1-2.72.66,43.35,43.35,0,0,1-4.59.2,36.68,36.68,0,0,1-4.79-.25,4.79,4.79,0,0,1-2.62-1,2.58,2.58,0,0,1-.71-2.07,12.29,12.29,0,0,1,.86-3.58l43.8-121.31a5.36,5.36,0,0,1,1.06-1.82,4.43,4.43,0,0,1,1.92-1.11,14.42,14.42,0,0,1,3.23-.55c1.31-.1,3-.15,5-.15s3.94.05,5.35.15a16.37,16.37,0,0,1,3.43.55,4.59,4.59,0,0,1,2,1.16,5.4,5.4,0,0,1,1.11,1.87ZM1182.79,78.17h-.1l-22.51,65.1h45.42Z"/><path class="cls-3" d="M1278.16,188.78a2.53,2.53,0,0,1-.4,1.41,2.75,2.75,0,0,1-1.41,1,14.88,14.88,0,0,1-2.67.61,34.82,34.82,0,0,1-8.33,0,15.09,15.09,0,0,1-2.73-.61,2.75,2.75,0,0,1-1.41-1,2.46,2.46,0,0,1-.4-1.41V63.44a2.28,2.28,0,0,1,.45-1.41,3.09,3.09,0,0,1,1.51-1,17.74,17.74,0,0,1,2.73-.61,26.88,26.88,0,0,1,4-.25,28.59,28.59,0,0,1,4.19.25,14.88,14.88,0,0,1,2.67.61,2.75,2.75,0,0,1,1.41,1,2.48,2.48,0,0,1,.4,1.41V188.78Z"/><path class="cls-3" d="M1411.58,184.24a7.88,7.88,0,0,1-.68,3.43,6.69,6.69,0,0,1-1.77,2.32,6.84,6.84,0,0,1-2.45,1.31,9.46,9.46,0,0,1-2.71.4h-5.74a18.62,18.62,0,0,1-4.75-.55,10.56,10.56,0,0,1-3.86-2,19.75,19.75,0,0,1-3.65-4,52.15,52.15,0,0,1-3.88-6.46l-39.84-74.28q-3.12-5.75-6.3-12.06T1330,80.08h-.2c.13,4.84.24,9.79.3,14.84s.1,10.06.1,15v78.82a2.4,2.4,0,0,1-.43,1.36,2.67,2.67,0,0,1-1.44,1,15,15,0,0,1-2.66.61,35.57,35.57,0,0,1-8.42,0,13.69,13.69,0,0,1-2.61-.61,2.66,2.66,0,0,1-1.38-1,2.51,2.51,0,0,1-.43-1.36V68.28q0-4,2.29-5.75a8.19,8.19,0,0,1,5-1.72h8.54a21.71,21.71,0,0,1,5,.5A10.57,10.57,0,0,1,1337.4,63a14.23,14.23,0,0,1,3.13,3.23,43.27,43.27,0,0,1,3.17,5.2l30.63,57.32q2.84,5.25,5.46,10.24c1.75,3.33,3.45,6.61,5.07,9.84s3.24,6.41,4.83,9.54,3.17,6.27,4.73,9.44h.1q-.21-8-.25-16.6t0-16.6V63.74a2.19,2.19,0,0,1,.43-1.31,3.38,3.38,0,0,1,1.44-1.06,9.62,9.62,0,0,1,2.66-.66,38.08,38.08,0,0,1,4.31-.2,36.22,36.22,0,0,1,4,.2,8.7,8.7,0,0,1,2.66.66,3.41,3.41,0,0,1,1.38,1.06,2.25,2.25,0,0,1,.43,1.31v120.5Z"/><path class="cls-3" d="M1635,188.78a2.4,2.4,0,0,1-.42,1.41,2.83,2.83,0,0,1-1.46,1,15.94,15.94,0,0,1-2.65.61,28.05,28.05,0,0,1-4.21.25,28.64,28.64,0,0,1-4.11-.25,14.49,14.49,0,0,1-2.7-.61,2.76,2.76,0,0,1-1.4-1,2.4,2.4,0,0,1-.42-1.41V75.05h-.2l-46,114.24a3.38,3.38,0,0,1-.86,1.21,4.52,4.52,0,0,1-1.62.86,11.69,11.69,0,0,1-2.52.5q-1.47.15-3.48.15a28.86,28.86,0,0,1-3.63-.2,13,13,0,0,1-2.52-.55,4.46,4.46,0,0,1-1.56-.86,2.73,2.73,0,0,1-.76-1.11l-44-114.24h-.1V188.79a2.4,2.4,0,0,1-.42,1.41,2.83,2.83,0,0,1-1.46,1,15.73,15.73,0,0,1-2.7.61,29.16,29.16,0,0,1-4.26.25,28.33,28.33,0,0,1-4.16-.25,14.41,14.41,0,0,1-2.65-.61,2.49,2.49,0,0,1-1.35-1,2.69,2.69,0,0,1-.36-1.41V68.69c0-2.83.75-4.84,2.25-6.06a7.76,7.76,0,0,1,5-1.82H1511a23.83,23.83,0,0,1,5.74.61,12.31,12.31,0,0,1,4.3,1.92,11.26,11.26,0,0,1,3.07,3.33,23.7,23.7,0,0,1,2.15,4.74L1563.55,166h.5l38.86-94.26a28.17,28.17,0,0,1,2.46-5.15,13.32,13.32,0,0,1,2.92-3.38,10.11,10.11,0,0,1,3.54-1.82,16.52,16.52,0,0,1,4.51-.55h11.18a9.39,9.39,0,0,1,2.92.45,5.93,5.93,0,0,1,2.36,1.41,7.38,7.38,0,0,1,1.59,2.42,9.26,9.26,0,0,1,.62,3.58V188.78Z"/><path class="cls-3" d="M1742.41,184.24a22.7,22.7,0,0,1-.2,3.18,6.67,6.67,0,0,1-.71,2.27,3.43,3.43,0,0,1-1.16,1.31,2.74,2.74,0,0,1-1.46.4h-62.67a7.17,7.17,0,0,1-4.39-1.56c-1.38-1-2.07-2.88-2.07-5.5V67.88c0-2.62.69-4.46,2.07-5.5a7.17,7.17,0,0,1,4.39-1.56h62a2.81,2.81,0,0,1,1.46.4,2.84,2.84,0,0,1,1.06,1.31,10.33,10.33,0,0,1,.66,2.27,18.9,18.9,0,0,1,.25,3.38,18.48,18.48,0,0,1-.25,3.18,9.23,9.23,0,0,1-.66,2.22,2.85,2.85,0,0,1-1.06,1.26,2.72,2.72,0,0,1-1.46.4h-51.07v41h43.8a2.5,2.5,0,0,1,1.46.45,3.61,3.61,0,0,1,1.11,1.26,6.66,6.66,0,0,1,.66,2.22,24.6,24.6,0,0,1,.2,3.33,21.65,21.65,0,0,1-.2,3.13,6.24,6.24,0,0,1-.66,2.12,2.77,2.77,0,0,1-1.11,1.16,3,3,0,0,1-1.46.35h-43.8V177h51.77a2.78,2.78,0,0,1,1.46.4,3.57,3.57,0,0,1,1.16,1.26,6.17,6.17,0,0,1,.71,2.22A25,25,0,0,1,1742.41,184.24Z"/><path class="cls-3" d="M1871.08,124.19q0,17-4.34,29.62a53.67,53.67,0,0,1-12.67,21,52.26,52.26,0,0,1-20.44,12.46q-12.11,4.14-28.86,4.14h-27.65a7.17,7.17,0,0,1-4.39-1.56c-1.38-1-2.07-2.88-2.07-5.5V67.88c0-2.62.69-4.46,2.07-5.5a7.17,7.17,0,0,1,4.39-1.56h29.57q16.95,0,28.66,4.39A52.26,52.26,0,0,1,1855,77.83a54,54,0,0,1,12,19.93A79.71,79.71,0,0,1,1871.08,124.19Zm-18.26.71a71.57,71.57,0,0,0-2.62-19.73A42.27,42.27,0,0,0,1842,89.38,38,38,0,0,0,1827.79,79q-8.58-3.74-22.1-3.73H1788V176.88h17.86q12.51,0,21.09-3.13a34.66,34.66,0,0,0,14.33-9.59,41.59,41.59,0,0,0,8.63-16.2A81.8,81.8,0,0,0,1852.82,124.9Z"/><path class="cls-3" d="M1915.19,188.78a2.53,2.53,0,0,1-.4,1.41,2.75,2.75,0,0,1-1.41,1,14.88,14.88,0,0,1-2.67.61,34.82,34.82,0,0,1-8.33,0,15.09,15.09,0,0,1-2.73-.61,2.75,2.75,0,0,1-1.41-1,2.46,2.46,0,0,1-.4-1.41V63.44a2.28,2.28,0,0,1,.45-1.41,3.09,3.09,0,0,1,1.51-1,17.74,17.74,0,0,1,2.73-.61,26.88,26.88,0,0,1,4-.25,28.59,28.59,0,0,1,4.19.25,14.88,14.88,0,0,1,2.67.61,2.75,2.75,0,0,1,1.41,1,2.48,2.48,0,0,1,.4,1.41V188.78Z"/><path class="cls-3" d="M2037.1,172.94c0,1.08,0,2-.1,2.83a12.65,12.65,0,0,1-.35,2.12,7,7,0,0,1-.66,1.61,9.21,9.21,0,0,1-1.41,1.72,29.4,29.4,0,0,1-4.24,3.08,50.5,50.5,0,0,1-8,4,67.15,67.15,0,0,1-11,3.33,63.22,63.22,0,0,1-13.57,1.36,59.45,59.45,0,0,1-23-4.24,46.47,46.47,0,0,1-17.46-12.51,57.1,57.1,0,0,1-11.1-20.44,92.07,92.07,0,0,1-3.89-28,92.45,92.45,0,0,1,4.19-29,62.83,62.83,0,0,1,11.76-21.55,50.12,50.12,0,0,1,18.12-13.47,57.45,57.45,0,0,1,23.36-4.64,56.21,56.21,0,0,1,11,1.06,71.66,71.66,0,0,1,9.89,2.67,45.08,45.08,0,0,1,8.07,3.73,27.4,27.4,0,0,1,4.9,3.48,11.85,11.85,0,0,1,1.77,2.07,6.92,6.92,0,0,1,.66,1.67,16.21,16.21,0,0,1,.4,2.27,28.15,28.15,0,0,1,.15,3.13,25.44,25.44,0,0,1-.2,3.43,9.92,9.92,0,0,1-.61,2.37,3.56,3.56,0,0,1-1,1.41,2.11,2.11,0,0,1-1.37.45c-1,0-2.27-.66-4-2a64.31,64.31,0,0,0-6.54-4.34,52.93,52.93,0,0,0-9.74-4.34,42.6,42.6,0,0,0-13.75-2,35.81,35.81,0,0,0-15.88,3.48,33.55,33.55,0,0,0-12.23,10.24,50.38,50.38,0,0,0-7.86,16.5,80.91,80.91,0,0,0-2.79,22.25,81.2,81.2,0,0,0,2.69,22,45.61,45.61,0,0,0,7.71,15.95,32.32,32.32,0,0,0,12.33,9.69,39.9,39.9,0,0,0,16.54,3.28,43.64,43.64,0,0,0,13.64-1.92,53.35,53.35,0,0,0,9.94-4.29,77.64,77.64,0,0,0,6.75-4.29c1.76-1.28,3.14-1.92,4.16-1.92a2.37,2.37,0,0,1,1.22.3,2.08,2.08,0,0,1,.81,1.16,11.13,11.13,0,0,1,.46,2.37C2037.05,170.11,2037.1,171.39,2037.1,172.94Z"/><path class="cls-3" d="M2077.47,188.78a2.53,2.53,0,0,1-.4,1.41,2.75,2.75,0,0,1-1.41,1,14.88,14.88,0,0,1-2.67.61,34.82,34.82,0,0,1-8.33,0,15.09,15.09,0,0,1-2.73-.61,2.75,2.75,0,0,1-1.41-1,2.46,2.46,0,0,1-.4-1.41V63.44a2.28,2.28,0,0,1,.45-1.41,3.09,3.09,0,0,1,1.51-1,17.74,17.74,0,0,1,2.73-.61,26.88,26.88,0,0,1,4-.25,28.59,28.59,0,0,1,4.19.25,14.88,14.88,0,0,1,2.67.61,2.75,2.75,0,0,1,1.41,1,2.48,2.48,0,0,1,.4,1.41V188.78Z"/><path class="cls-3" d="M2210.89,184.24a7.88,7.88,0,0,1-.68,3.43,6.69,6.69,0,0,1-1.77,2.32,6.84,6.84,0,0,1-2.45,1.31,9.46,9.46,0,0,1-2.71.4h-5.74a18.62,18.62,0,0,1-4.75-.55,10.56,10.56,0,0,1-3.86-2,19.75,19.75,0,0,1-3.65-4,52.15,52.15,0,0,1-3.88-6.46l-39.84-74.28q-3.12-5.75-6.3-12.06t-5.91-12.26h-.2c.13,4.84.24,9.79.3,14.84s.1,10.06.1,15v78.82a2.4,2.4,0,0,1-.43,1.36,2.67,2.67,0,0,1-1.44,1,15,15,0,0,1-2.66.61,35.57,35.57,0,0,1-8.42,0,13.69,13.69,0,0,1-2.61-.61,2.66,2.66,0,0,1-1.38-1,2.51,2.51,0,0,1-.43-1.36V68.28q0-4,2.29-5.75a8.19,8.19,0,0,1,5-1.72H2128a21.71,21.71,0,0,1,5,.5,10.57,10.57,0,0,1,3.65,1.67,14.23,14.23,0,0,1,3.13,3.23,43.27,43.27,0,0,1,3.17,5.2l30.63,57.32q2.84,5.25,5.46,10.24c1.75,3.33,3.45,6.61,5.07,9.84s3.24,6.41,4.83,9.54,3.17,6.27,4.73,9.44h.1q-.21-8-.25-16.6t0-16.6V63.74a2.19,2.19,0,0,1,.43-1.31,3.38,3.38,0,0,1,1.44-1.06,9.62,9.62,0,0,1,2.66-.66,38.08,38.08,0,0,1,4.31-.2,36.22,36.22,0,0,1,4.05.2,8.7,8.7,0,0,1,2.66.66,3.41,3.41,0,0,1,1.38,1.06,2.25,2.25,0,0,1,.43,1.31v120.5Z"/><path class="cls-3" d="M2318.27,184.24a22.7,22.7,0,0,1-.2,3.18,6.67,6.67,0,0,1-.71,2.27,3.43,3.43,0,0,1-1.16,1.31,2.74,2.74,0,0,1-1.46.4h-62.67a7.17,7.17,0,0,1-4.39-1.56c-1.38-1-2.07-2.88-2.07-5.5V67.88c0-2.62.69-4.46,2.07-5.5a7.17,7.17,0,0,1,4.39-1.56h62a2.81,2.81,0,0,1,1.46.4,2.84,2.84,0,0,1,1.06,1.31,10.33,10.33,0,0,1,.66,2.27,18.9,18.9,0,0,1,.25,3.38,18.48,18.48,0,0,1-.25,3.18,9.23,9.23,0,0,1-.66,2.22,2.85,2.85,0,0,1-1.06,1.26,2.72,2.72,0,0,1-1.46.4H2263v41h43.8a2.5,2.5,0,0,1,1.46.45,3.61,3.61,0,0,1,1.11,1.26,6.66,6.66,0,0,1,.66,2.22,24.6,24.6,0,0,1,.2,3.33,21.65,21.65,0,0,1-.2,3.13,6.24,6.24,0,0,1-.66,2.12,2.77,2.77,0,0,1-1.11,1.16,3,3,0,0,1-1.46.35H2263V177h51.77a2.78,2.78,0,0,1,1.46.4,3.57,3.57,0,0,1,1.16,1.26,6.17,6.17,0,0,1,.71,2.22A25,25,0,0,1,2318.27,184.24Z"/></svg>