<?xml version="1.0" encoding="utf-8"?>
<!-- Generator: Adobe Illustrator 23.0.6, SVG Export Plug-In . SVG Version: 6.00 Build 0)  -->
<svg version="1.1" id="Layer_1" xmlns="http://www.w3.org/2000/svg" xmlns:xlink="http://www.w3.org/1999/xlink" x="0px" y="0px"
	 width="134px" height="107.7px" viewBox="0 0 134 107.7" style="enable-background:new 0 0 134 107.7;" xml:space="preserve">
<style type="text/css">
	.st0{fill:#F1F2F6;}
</style>
<g>
	<g>
		<path class="st0" d="M29.9,100.7c0.7-2.3,1.2-4.8,2.3-7c3-6.5,8.2-10.8,14.8-13.1c12.7-4.4,25.6-4.5,38.3,0.3
			c8.4,3.2,14.1,9.1,16,18.2c0.2,1.1,0.4,2.2,0.3,3.3c-0.1,2.9-2,4.5-4.5,5.4c-20.8,0-41.7,0-62.5,0c-2.4-0.7-4-2.3-4.7-4.7
			C29.9,102.2,29.9,101.4,29.9,100.7z M66,104c9.7,0,19.5,0,29.2,0c2.3,0,3-0.8,2.7-2.9c-1.1-7.4-5.2-12.8-11.9-15.7
			c-13.3-5.8-26.9-5.8-40.2,0c-6.6,2.8-10.7,8.2-11.9,15.4c-0.4,2.5,0.2,3.3,2.8,3.3C46.4,104,56.2,104,66,104z"/>
		<path class="st0" d="M67.9,32.1c2.9,1,6.1,1.7,8.7,3.2c7.7,4.4,11.4,13.6,9.4,22.4c-2,8.7-9.5,15.1-18.4,15.9
			c-11.4,0.9-21.1-7.1-22.4-18.6C44,44.1,51.8,34.1,62.8,32.4c0.3,0,0.5-0.2,0.8-0.3C65,32.1,66.4,32.1,67.9,32.1z M82.9,52.9
			c0-9.4-7.8-17-17.2-17c-9.2,0.1-17,7.9-16.9,17.1c0.1,9.3,7.8,17,17,17C75.1,70,82.9,62.2,82.9,52.9z"/>
	</g>
	<g>
		<path class="st0" d="M0,74.8c3.5,0.3,6.7-0.5,9.8-2.7c-1.5-0.3-2.8-0.6-3.9-1.6c-1.1-0.9-1.9-1.9-2.3-3.4c0.9,0,1.7,0,2.5,0
			c0-0.1,0-0.1,0.1-0.2c-3.1-1.2-4.8-3.3-5-6.8c1,0.3,1.8,0.5,2.6,0.7c0,0,0.1-0.1,0.1-0.1c-2.8-2.6-3.5-5.5-1.8-9.1
			c0.3,0.3,0.6,0.5,0.8,0.8c3.1,3.4,7,5.5,11.6,6.2c0.3,0.1,0.7,0.1,1,0.1c0.8,0.1,0.8,0,0.8-0.7c-0.4-3.2,1.7-6.4,4.7-7.3
			c2.5-0.8,4.8-0.3,6.9,1.4c0.4,0.3,0.7,0.4,1.1,0.2c1-0.4,1.9-0.7,2.9-1.1c0.2-0.1,0.4-0.2,0.8-0.4c-0.4,1.6-1.4,2.7-2.5,3.7
			c1.1-0.3,2.2-0.6,3.4-1c-0.4,0.5-0.6,0.9-0.9,1.2c-0.7,0.7-1.4,1.3-2,2c-0.2,0.3-0.5,0.7-0.5,1c-0.1,6.1-2.4,11.2-6.9,15.3
			c-2.9,2.6-6.4,4.1-10.2,4.6C9,78.4,5,77.7,1.3,75.7C0.8,75.5,0.4,75.2,0,75C0,74.9,0,74.9,0,74.8z"/>
	</g>
	<g>
		<path class="st0" d="M134,58.2c0,3.8,0,7.7,0,11.5c0,0.1-0.1,0.2-0.1,0.3c-0.7,3.8-3.5,6.2-7.4,6.2c-6.7,0-13.5,0-20.2,0
			c-3.1,0-5.9-2-6.8-5c-0.2-0.5-0.3-1-0.4-1.5c0-3.9,0-7.8,0-11.6c0.1-0.2,0.1-0.3,0.1-0.5c0.6-3.4,3.5-6,7-6c6.9,0,13.8,0,20.6,0
			c2.3,0,4.1,1,5.6,2.8C133.4,55.5,133.8,56.8,134,58.2z M111.7,63.9c0,1.4,0,2.9,0,4.3c0,0.8,0.2,0.9,1,0.6c3-1.4,5.9-2.8,8.9-4.2
			c0.2-0.1,0.5-0.3,0.5-0.6c0-0.1-0.3-0.4-0.5-0.5c-3-1.5-5.9-3-8.9-4.5c-0.7-0.4-1-0.2-1,0.6C111.7,61,111.7,62.4,111.7,63.9z"/>
	</g>
	<g>
		<g>
			<path class="st0" d="M28.5,22.2c-1.4,0-2.8,0-4.1,0c0-0.2-0.1-0.3-0.1-0.4c0.1-1.5,0.4-2.9,0.7-3.3c1.4,0,2.8,0,4.2,0
				c0.4-1.6,0.7-3.2,1.1-4.9c-0.3,0-0.4,0-0.6,0c-1,0-1.9,0-2.9,0c-0.2,0-0.4,0-0.6-0.1c-0.1-0.4,0-0.7,0-1c0.1-0.7,0.2-1.3,0.3-2
				c0.1-0.7,0.2-0.7,0.8-0.7c1,0,2,0,2.9,0c0.2,0,0.4,0,0.6,0c0.6-2.5,1.2-5,1.8-7.5c0.4-0.1,2.2-0.1,3-0.1c0,0.1,0,0.3,0,0.5
				c-0.3,1.5-0.7,3-1,4.5c-0.2,0.8-0.3,1.5-0.5,2.3c0,0.1,0,0.1,0,0.2c0.4,0.1,2.5,0.2,3.4,0.1C37.8,8.5,38,7.3,38.3,6
				c0.3-1.2,0.5-2.5,0.9-3.8c1,0,2,0,3,0c0.1,0.3,0.1,0.5,0,0.8c-0.5,2.2-1,4.4-1.5,6.5c0,0,0,0.1,0,0.2c0.1,0,0.3,0,0.4,0
				c1.1,0,2.1,0,3.2,0c0.2,0,0.4,0,0.6,0c0.2,0.5,0,0.8,0,1.2c0,0.4-0.1,0.8-0.2,1.3c-0.1,0.4,0,0.8-0.3,1.2c-1.4,0-2.8,0-4.3,0
				c-0.4,1.6-0.7,3.2-1.1,4.8c0.2,0,0.4,0,0.5,0c1.1,0,2.1,0,3.2,0c0.2,0,0.4,0.1,0.6,0.1c-0.2,1.2-0.4,2.4-0.6,3.6
				c-1.5,0-3,0-4.5,0c-0.1,0.2-0.1,0.3-0.2,0.5c-0.5,2.2-1,4.4-1.5,6.7c0,0.2-0.1,0.4-0.2,0.6c-1,0-2,0-2.9,0
				c-0.2-0.2-0.1-0.4-0.1-0.5c0.5-2.2,1-4.4,1.4-6.7c0-0.1,0-0.3,0.1-0.4c-0.4-0.1-2.6-0.2-3.4-0.1c-0.6,2.5-1.1,5.1-1.8,7.7
				c-1,0-2,0-2.9,0c-0.2-0.2-0.1-0.4-0.1-0.5c0.4-1.6,0.7-3.1,1.1-4.7C28.1,23.9,28.3,23.1,28.5,22.2z M35.7,18.5
				c0.4-1.6,0.7-3.2,1.1-4.8c-1.2,0-2.3,0-3.4,0c-0.4,1.6-0.8,3.2-1.1,4.8C33.5,18.5,34.6,18.5,35.7,18.5z"/>
		</g>
	</g>
	<g>
		<path class="st0" d="M97.2,26.7c-0.6,0-1.2,0-1.8,0c0,0-0.1,0-0.1,0c-0.5,0-1,0-1.5-0.1c-0.5,0-1,0-1.5-0.1
			c-0.6,0-1.3-0.1-1.9-0.2c-0.5-0.1-1-0.1-1.5-0.2c-0.5-0.1-0.9-0.2-1.4-0.3c-0.9-0.2-1.7-0.3-2.6-0.5c0,0-0.1,0-0.1,0
			c0-3.6,0-7.3,0-10.9c0.5,0.1,1-0.1,1.4-0.4c0.2-0.2,0.4-0.3,0.5-0.5c0.3-0.4,0.6-0.9,0.9-1.3c0.4-0.6,0.7-1.3,1-1.9
			c0.3-0.7,0.6-1.3,0.9-2c0.1-0.2,0.2-0.4,0.4-0.5c0.2-0.2,0.4-0.5,0.7-0.7c0.3-0.3,0.6-0.5,0.9-0.8C91.8,6,92,5.6,92.2,5.2
			c0.1-0.2,0.2-0.5,0.3-0.7c0.3-0.8,0.4-1.6,0.5-2.4c0.1-0.6,0.1-1.2,0.2-1.8c0,0,0-0.1,0.1-0.1C93.4,0.1,93.5,0,93.7,0
			c0.3,0,0.6,0,0.9,0.1c0.9,0.3,1.5,0.9,1.9,1.8c0.2,0.4,0.2,0.9,0.3,1.4c0.1,0.6,0,1.2-0.2,1.9c-0.2,0.7-0.4,1.3-0.8,2
			c-0.2,0.4-0.5,0.9-0.7,1.4C95.1,8.7,95,8.9,95,9.1c-0.1,0.4-0.2,0.7-0.2,1.1c0,0.1,0,0.2,0.1,0.3c0,0,0,0,0,0
			c0.3,0.1,0.7,0.1,1,0.1c0.4,0,0.8,0,1.3-0.1c0.2,0,0.4,0,0.5,0c0.6,0,1.2,0,1.8,0c0.7,0,1.4,0.1,2.1,0.2c0.3,0.1,0.6,0.2,0.9,0.4
			c0.1,0,0.1,0.1,0.2,0.1c0.5,0.4,0.8,1,1,1.6c0.1,0.2,0.1,0.3,0.2,0.5c0,0,0,0.1,0,0.1c0,0,0,0,0,0c0,0.2-0.1,0.3-0.2,0.4
			c-0.1,0.2-0.2,0.4-0.3,0.5c-0.1,0.1-0.2,0.3-0.2,0.4c-0.1,0.1-0.1,0.2-0.1,0.4c0,0.3,0.1,0.5,0.3,0.7c0.1,0.1,0.1,0.1,0.2,0.2
			c0.2,0.2,0.3,0.4,0.3,0.7c0,0.3,0,0.6-0.2,0.9c-0.1,0.3-0.3,0.5-0.6,0.7c-0.1,0.1-0.1,0.1-0.2,0.2c-0.1,0.2-0.1,0.4-0.1,0.6
			c0,0.2,0.1,0.4,0.2,0.6c0.1,0.2,0.2,0.4,0.2,0.6c0.1,0.1,0.1,0.3,0.1,0.5c0,0.2-0.1,0.4-0.2,0.6c-0.2,0.2-0.4,0.5-0.7,0.7
			c-0.2,0.2-0.4,0.4-0.5,0.6c-0.2,0.3-0.2,0.6-0.2,0.9c0,0.2,0,0.4,0,0.6c-0.1,0.3-0.3,0.6-0.5,0.9c-0.3,0.4-0.8,0.7-1.2,0.9
			c0,0-0.1,0-0.1,0c-0.4,0.2-0.9,0.3-1.4,0.4c-0.4,0.1-0.8,0.1-1.2,0.1C97.3,26.7,97.3,26.7,97.2,26.7z"/>
		<path class="st0" d="M78.3,14.9c0-0.1,0-0.1,0-0.2c0.1-0.5,0.5-0.9,1-0.9c0.2,0,0.4,0,0.6,0c0.9,0,1.8,0,2.6,0
			c0.4,0,0.7,0.2,0.9,0.5c0.1,0.2,0.1,0.3,0.1,0.5c0,0,0,0,0,0.1c0,3.4,0,6.7,0,10.1c0,0.2,0,0.3-0.1,0.5c-0.2,0.4-0.5,0.6-1,0.6
			c-0.2,0-0.4,0-0.5,0c-0.9,0-1.8,0-2.7,0c-0.2,0-0.3,0-0.5-0.1c-0.4-0.1-0.6-0.4-0.6-0.8c0-0.1,0-0.1,0-0.2
			C78.3,21.7,78.3,18.3,78.3,14.9z"/>
	</g>
	<circle class="st0" cx="65.6" cy="53.2" r="19.7"/>
	<polygon class="st0" points="33.4,95.9 32.2,104.7 40.6,105.5 69.6,105.5 98.2,104.9 99.3,102.5 97.8,95.8 92.6,88.3 82.7,81.2 
		62.7,78.8 51.8,81.1 40.3,84.3 37.6,88.8 	"/>
</g>
</svg>
