<?xml version="1.0" encoding="utf-8"?>
<!-- Generator: Adobe Illustrator 23.0.6, SVG Export Plug-In . SVG Version: 6.00 Build 0)  -->
<svg version="1.1" id="Layer_1" xmlns="http://www.w3.org/2000/svg" xmlns:xlink="http://www.w3.org/1999/xlink" x="0px" y="0px"
	 width="121.4px" height="114.4px" viewBox="0 0 121.4 114.4" style="enable-background:new 0 0 121.4 114.4;" xml:space="preserve"
	>
<style type="text/css">
	.st0{fill:#BACEE2;}
	.st1{fill:#FFFFFF;}
</style>
<g>
	<g>
		<path class="st0" d="M8.1,19.4c0,0,0,0.1,0,0.1l0.3,1.4l1.4-0.5c0.1-0.1,0.3-0.1,0.4-0.2c0.2-0.1,0.5-0.2,0.7-0.3c0,0,0,0,0,0
			c-0.1,0.6-0.3,1.3-0.7,2.2c-0.4,0.8-0.3,1.5,0.1,2.3c1,2,1.6,3.8,1.8,5.6c0.1,1,0.6,1.6,1.5,1.9c0.4,0.1,0.7,0.3,1.1,0.5
			c4.2,2.3,6.8,5.3,8,9.2c1,3.1,0.9,6.4-0.2,10c-0.3,0.9-0.2,1.6,0.3,2.4c1.4,2.1,2.2,4.5,2.3,7.1c0.3,6.2-3.2,11.7-8.8,14
			c-1.9,0.8-3.8,1.2-5.6,1.2c-2.4,0-4.8-0.7-7.2-2C3.4,74.3,3,74,3.1,73.5c0.1-0.4,0.4-0.7,0.8-0.7c0.2,0,0.3,0,0.5,0.1
			c1.8,1,3.6,1.6,5.4,1.7c0.3,0,0.7,0,1,0c5,0,9-2.3,11.4-6.7c2.5-4.7,2.1-9.5-1.2-14c-0.5-0.6-1.1-1-1.9-1l-2.4,0c-1,0-2,0-3,0
			c-2.5,0-5.5,0-8.5-0.1c-1.1,0-2.3-0.3-3.5-0.5c0.2-0.1,0.4-0.2,0.7-0.2c0.1,0,0.2,0,0.3,0c0.4,0.1,0.6,0.1,0.9,0.1
			c1.6,0,2.1-1.3,2.3-1.8c0.8-2.3,0.8-4.6,0-6.8c-0.5-1.4-1.4-2.4-2.3-3.4c-1-1.2-1.6-2.6-1.8-4.3c-0.2-2.2,0.2-4.4,1.4-7
			c0.2,0,0.4,0.1,0.6,0.1l0.2,0c0.4,0.1,0.8,0.1,1.3,0.1c0.5,0,1-0.1,1.5-0.2l3.9-1.3l-3.9-1.1c-0.1,0-0.2-0.1-0.3-0.1
			c-0.1,0-0.2,0-0.2-0.1c-0.3-0.1-0.6-0.2-0.9-0.3c-0.7-0.3-1.4-0.5-2.1-0.8c-0.3-0.1-0.8-0.4-0.9-0.8c-0.1-0.7-0.2-1.5-0.2-2.4
			l0-0.1C3,21.8,4,21.5,4.9,20.7c0,0,0.2-0.1,0.5-0.2c0,0,0.1,0,0.2,0c0.1,0,0.3,0,0.4,0l0.1,0c0.1,0,0.1,0,0.2,0
			c0.8,0,1.3-0.5,1.5-0.7C7.9,19.6,8,19.5,8.1,19.4 M8.5,17.6c-0.1,0-0.3,0-0.4,0.1c-0.5,0.3-0.9,0.8-1.3,1.2
			c-0.2,0.2-0.3,0.3-0.5,0.3c0,0-0.1,0-0.1,0c-0.2,0-0.4,0-0.7,0c-0.2,0-0.3,0-0.4,0c-0.4,0.1-0.8,0.2-1,0.5
			c-0.7,0.7-1.5,0.9-2.4,1.1c-0.5,0.1-0.8,0.3-0.7,0.8c0,1,0,2.1,0.2,3.1c0.2,0.8,0.9,1.4,1.6,1.7c1,0.4,2,0.8,3.1,1.2
			c0.2,0.1,0.3,0.1,0.6,0.2C6,28,5.6,28,5.2,28c-0.4,0-0.9-0.1-1.3-0.1c-0.2,0-0.5-0.1-0.7-0.1c-0.3-0.1-0.5-0.1-0.6-0.1
			c-0.3,0-0.3,0.2-0.6,0.7c-1.1,2.5-1.8,5-1.5,7.8c0.2,1.9,0.8,3.6,2.1,5.1c0.8,0.9,1.6,1.8,2,3c0.7,2,0.7,4,0,6
			c-0.3,0.7-0.5,1-1.1,1c-0.2,0-0.4,0-0.7-0.1C2.7,51,2.5,51,2.4,51c-0.9,0-1.7,0.5-2.2,1.3c-0.3,0.6-0.2,1,0.4,1.1
			c1.5,0.3,3,0.7,4.5,0.7c2.8,0.1,5.7,0.1,8.5,0.1c1.8,0,3.6,0,5.4,0c0,0,0,0,0,0c0.4,0,0.7,0.1,0.9,0.4c2.9,4,3.4,8.3,1.1,12.7
			c-2.2,4.1-5.7,6.1-10.3,6.1c-0.3,0-0.6,0-1,0c-1.7-0.1-3.3-0.7-4.8-1.5c-0.4-0.2-0.7-0.3-1.1-0.3c-0.9,0-1.8,0.6-2,1.7
			C1.7,74.2,2.1,75,3,75.5c2.5,1.4,5.1,2.1,7.8,2.1c2,0,4-0.4,6.1-1.3c6.1-2.5,9.9-8.6,9.6-15.2c-0.1-2.8-1-5.4-2.5-7.7
			c-0.3-0.4-0.4-0.8-0.2-1.3c1.1-3.5,1.3-7.1,0.2-10.7c-1.4-4.5-4.5-7.7-8.6-9.9c-0.4-0.2-0.9-0.5-1.3-0.6c-0.4-0.2-0.6-0.4-0.7-0.9
			c-0.3-2.1-1-4.1-2-6c-0.2-0.4-0.2-0.8,0-1.3c0.4-0.8,0.7-1.7,0.8-2.6c0.1-0.9-0.2-1.4-0.9-1.4c-0.2,0-0.4,0-0.6,0.1
			c-0.4,0.1-0.8,0.3-1.2,0.5c-0.1-0.4-0.1-0.7-0.2-1.1C9,17.8,8.8,17.6,8.5,17.6L8.5,17.6z"/>
	</g>
	<g>
		<g>
			<path class="st0" d="M99.5,14.6c3.1,2.9,6.8,5,11.2,6.4c0,0,0,0,0,0.1c0,0.6,0,1.2,0,1.8c0,0.8,0,1.6,0.1,2.4
				c0,1.1,0.1,2.2,0.1,3.2c0,1.1-0.3,2.1-0.9,2.9c-1,1.3-1.9,2.8-2.8,4.1l-0.6,1c-0.3,0.4-0.4,1-0.3,1.5c0.1,0.9,0.3,1.8,0.5,2.8
				c0.5,2.1,1.1,4.6,2.5,7c0.5,0.9,1.3,1.1,1.9,1.1c0.1,0,0.3,0,0.4,0c0.1,0,0.1,0,0.2,0c0.8,0,1.7,0.6,2,1.3
				c-0.2,0-0.3,0.1-0.5,0.1c-0.1,0-0.3,0.1-0.4,0.1l-1.3,0.3l0.7,1.1c0.1,0.1,0.1,0.2,0.2,0.3c0.1,0.2,0.2,0.3,0.2,0.4
				c-0.8,0.1-1.6,0.1-2.3,0.2l-0.1,0c-1.4,0-2.4-0.6-3.1-2.1c-0.6-1.2-1.2-2.3-1.8-3.4c-0.4-0.8-0.8-1.5-1.2-2.3
				c-0.8-1.5-1.5-3-1.8-4.6c-0.1-0.9-0.2-1.9-0.2-2.9c0-0.5,0-0.9-0.1-1.4c0-0.2,0-0.3,0-0.5l0-0.2l-0.7-8l-1.3,8
				c-0.1,0.3-0.1,0.6-0.1,0.9c-0.1,0.6-0.2,1.3-0.3,1.9c-0.9-1-1.8-1.8-2.8-2.3c-1.5-0.9-3.2-1.3-5.2-1.3l-0.1,0l-3.3,0l2.8,1.8
				c0.2,0.1,0.5,0.2,0.6,0.3c1.9,0.5,3.4,1.1,4.6,2c2.9,2,4,5.1,3,8.3c-0.4,1.4-0.9,2.5-2.2,3.1L94.3,51l2.6,0.7
				c0.8,0.2,1.8,0.5,2.9,0.5c0.3,0,0.6,0,0.8-0.1c0.6-0.1,1.3-0.2,1.9-0.3c0.4-0.1,0.8-0.2,1.2-0.2c0.1,0,0.1,0,0.2,0
				c0.6,0,1.2,0.5,1.4,1.1c-0.1,0-0.2,0-0.3,0c-5.4,0-10.7,0-16.1,0c-0.1,0-0.2,0-0.2,0c-0.4,0-0.9-0.1-1.1-0.4
				c-0.2-0.3-0.2-0.8-0.2-1.1c0-0.4-0.1-0.6-0.2-0.7l-0.6-1l-0.9,0.7c-1.3,1-1.9,2.1-2,3.5c-0.1,1.7,0.6,3.1,1.3,4.2
				c0.7,1.1,1.6,2.2,2.5,3.1c-1.9,0.1-3.5,0.6-4.3,1.5l-2.1,2.3l3.1-0.6c1.1-0.2,2.3-0.3,3.4-0.3c1.9,0,3.8,0.3,6,0.8
				c2.2,0.6,4.1,1.4,5.8,2.6c-0.8,0-1.5,0.1-2.2,0.3c-0.3,0.1-0.5,0.2-0.7,0.3c-0.1,0-0.1,0.1-0.2,0.1l-3.3,1.7l3.7,0.2
				c5.3,0.3,9,2,11.5,5.3c-1.7-0.5-3.4-0.7-5-0.8c-1.5-0.1-3-0.3-4.5-0.4c-1.8-0.2-3.7-0.3-5.5-0.5c-2.9-0.3-5.4-0.9-7.6-1.8
				c-6.3-2.6-9-8.6-6.9-14.8c1.1-3.2,2.9-5.3,5.6-6.4c0.3-0.1,0.4-0.3,0.5-0.4l0.4-0.5L85,48.9c-0.1-0.1-0.1-0.2-0.2-0.3
				c-0.1-0.2-0.2-0.4-0.3-0.6c-2.5-5.4-2.7-11-0.4-16.5c1.6-3.9,4.5-7,8.9-9.4c1.3-0.7,2.2-1.7,2.8-3.1C96.5,17,97.8,15.6,99.5,14.6
				 M99.6,13.4c-2.2,1.1-3.8,2.8-4.7,5.1c-0.5,1.2-1.2,2-2.3,2.6c-4.2,2.3-7.5,5.5-9.4,9.9c-2.4,5.8-2.2,11.6,0.4,17.3
				c0.2,0.3,0.4,0.7,0.6,1c0,0,0,0.1-0.1,0.1c-3.2,1.4-5,3.9-6.1,7c-2.3,6.8,0.7,13.3,7.5,16.1c2.5,1,5.2,1.6,7.9,1.9
				c3.3,0.3,6.7,0.6,10,0.9c2.5,0.2,4.9,0.6,7.2,1.7c0,0,0,0,0,0c0,0,0.1,0,0.1,0c-2.9-5.7-7.8-7.8-13.8-8.1
				c0.2-0.1,0.5-0.3,0.7-0.4c0.6-0.2,1.3-0.3,1.9-0.3c0.6,0,1.2,0.1,1.8,0.1c0.4,0.1,0.8,0.1,1.3,0.2c-2.5-2.5-5.4-4.1-8.6-4.9
				c-2.1-0.6-4.1-0.9-6.2-0.9c-1.2,0-2.4,0.1-3.6,0.4c0.6-0.6,2.1-1.2,4-1.2c0.7,0,1.4,0.1,2.2,0.2c-0.2-0.2-0.3-0.3-0.4-0.4
				c-1.5-1.3-2.8-2.7-3.9-4.4c-0.7-1.1-1.3-2.2-1.2-3.6c0.1-1.2,0.7-2,1.6-2.7c0,0.1,0.1,0.1,0.1,0.1c-0.1,1.6,0.6,2.5,2.2,2.6
				c0.1,0,0.2,0,0.3,0c0,0,0,0,0,0c5.4,0,10.7,0,16.1,0c0.2,0,0.4,0,0.6,0c0.8-0.1,0.8-0.2,0.7-0.9c-0.2-1.2-1.3-2.1-2.4-2.1
				c-0.1,0-0.3,0-0.4,0c-1,0.2-2,0.4-3,0.5c-0.2,0-0.5,0-0.7,0c-0.9,0-1.7-0.2-2.7-0.4c1.7-0.8,2.3-2.2,2.7-3.7
				c1.1-3.7-0.2-7.2-3.4-9.4c-1.5-1.1-3.2-1.7-4.9-2.2c-0.1,0-0.2-0.1-0.4-0.1c0,0,0.1,0,0.1,0c1.7,0,3.3,0.3,4.7,1.2
				c1.5,0.9,2.6,2.1,3.7,3.6c0.7-1.5,0.8-3.1,1.1-4.7c0,0.2,0,0.4,0.1,0.6c0.1,1.5,0.1,2.9,0.3,4.4c0.2,1.8,1,3.4,1.9,5
				c1,1.9,2.1,3.8,3.1,5.7c0.8,1.7,2.1,2.6,4,2.6c0,0,0,0,0.1,0c0.9,0,1.7,0,2.5-0.2c0.9-0.1,1-0.5,0.7-1.3
				c-0.1-0.3-0.3-0.5-0.5-0.8c0.4-0.1,0.8-0.2,1.2-0.3c0.5-0.1,0.6-0.5,0.5-0.9c-0.3-1.2-1.7-2.3-3-2.3c-0.1,0-0.3,0-0.4,0
				c-0.1,0-0.2,0-0.3,0c-0.4,0-0.7-0.2-1-0.6c-1.2-2.1-1.9-4.3-2.4-6.7c-0.2-0.9-0.4-1.8-0.5-2.7c0-0.3,0-0.6,0.2-0.8
				c1.1-1.7,2.2-3.4,3.4-5.1c0.8-1.1,1.1-2.2,1.1-3.5c0-1.9-0.1-3.7-0.2-5.6c0-0.9,0-1.7,0-2.6C107.2,18.9,103.1,16.8,99.6,13.4
				L99.6,13.4z"/>
		</g>
		<g>
			<path class="st0" d="M116.2,1C116.2,1,116.2,1,116.2,1c0,0,0,0.1,0,0.2c0,0.2,0,0.4-0.1,0.6c0,0.1,0,0.2,0,0.4L116,3.4l1.2-0.1
				c0.1,0,0.3,0,0.4,0c0.2,0,0.4,0,0.6,0l0.1,0c0.1,0,0.1,0,0.2,0c0,0,0,0.1,0,0.1c-0.3,0.7-0.7,1.4-1.2,2.1l-0.1,0.1
				c-0.2,0.3-0.5,0.7-0.8,1c-0.1,0.2-0.3,0.3-0.4,0.5l-0.4,0.6l0.4,0.6c1,1.4,1.4,2.8,1.3,4.4c0,0.6,0.2,1.1,0.6,1.6
				c0.5,0.5,0.9,1,1.3,1.5l-0.1-0.1l-0.5,1.1c-0.2,0.5-0.3,0.9-0.1,1.3c-0.7,0.3-1.4,0.5-2.1,0.5c-0.1,0-0.3,0-0.4,0
				c-1.1-0.1-1.9-0.7-2.8-1.9l-1.4-2.1l-0.4,2.5l-0.1,0.4c-2.1-0.6-4.2-1.6-6.2-3c-0.8-0.6-1.6-1.2-2.4-1.9
				c-0.1-0.1-0.3-0.2-0.4-0.4c1.8-3.6,4.6-6.2,8.3-7.7c0.3-0.1,0.5-0.3,0.7-0.4l0.1-0.1c0.4-0.3,0.7-0.5,1.1-0.8
				c0.8-0.6,1.6-1.2,2.5-1.7c0.3-0.2,0.7-0.3,1.3-0.4C116.1,1,116.1,1,116.2,1 M116.2,0c-0.1,0-0.2,0-0.3,0
				c-0.6,0.1-1.2,0.2-1.7,0.5c-1.2,0.8-2.4,1.7-3.6,2.5c-0.2,0.1-0.4,0.3-0.6,0.4c-4.1,1.7-7.1,4.5-9,8.5c-0.1,0.1,0,0.4,0.1,0.5
				c1.1,0.9,2.1,1.9,3.2,2.6c2.3,1.5,4.7,2.7,7.3,3.4c0.1,0,0.1,0,0.2,0.1c0.1-0.5,0.1-0.9,0.2-1.4c0.9,1.3,2,2.2,3.5,2.4
				c0.2,0,0.3,0,0.5,0c1.3,0,2.4-0.4,3.6-1.1c-0.6-0.6-0.6-0.8-0.4-1.2c0.3,0.2,0.5,0.6,0.9,0.7c0.1,0,0.1,0,0.2,0
				c0.3,0,0.7-0.1,1-0.2c-0.8-1.6-1.7-3-2.9-4.2c-0.2-0.2-0.3-0.5-0.3-0.8c0.1-1.8-0.4-3.5-1.4-5c0.4-0.5,0.9-1.1,1.2-1.6
				c0.5-0.8,1-1.5,1.3-2.3c0.4-1,0-1.5-1-1.5c0,0-0.1,0-0.1,0c-0.4,0-0.7,0.1-1.1,0.1c0-0.4,0.1-0.7,0.1-1.1
				C117.2,0.4,116.9,0,116.2,0L116.2,0z"/>
		</g>
		<g>
			<path class="st0" d="M112.8,19.6C112.7,19.6,112.7,19.6,112.8,19.6c-0.3,0-0.5,0.4-0.6,0.7c-0.1,0.2-0.1,0.5-0.1,0.6
				c0.1,0.8,0.2,1.5,0.7,2c0.2,0.2,0.5,0.4,0.7,0.4c0,0,0,0,0.1,0c0.2,0,0.5-0.4,0.5-0.6c0.3-1,0.1-1.9-0.5-2.7
				C113.3,19.8,113,19.6,112.8,19.6L112.8,19.6z"/>
		</g>
	</g>
	<g>
		<g>
			<g>
				<g>
					<path class="st1" d="M32.2,26.5c2.3-3.4,5.1-6.2,8.5-8.5c0.9-0.4,1.7-0.9,2.6-1.3c1.9-0.7,3.7-1.3,5.7-1.8
						c0.5,0.1,1-0.1,1.5-0.2c1.4-0.1,2.7-0.2,4.1-0.2c0.4,0,0.9,0.1,1.3,0.1c1.1,0.1,2.2,0.3,3.3,0.4c0.3,0.2,0.7,0.2,1,0.3
						c1,0.3,1.9,0.6,2.9,0.9c0.2,0.2,0.5,0.3,0.8,0.3c0.9,0.4,1.7,0.9,2.6,1.3c0.1,0.2,0.3,0.3,0.5,0.3c0.9,0.6,1.7,1.2,2.6,1.8
						c0.3,0.2,0.5,0.5,0.8,0.7c0.6,0.5,1.2,1.1,1.7,1.6c0.3,0.3,0.5,0.6,0.8,0.9c0.5,0.6,1,1.3,1.6,1.9c0.3,0.4,0.5,0.8,0.8,1.1
						c0.4,0.6,0.7,1.3,1.1,1.9c0.1,0.3,0.3,0.5,0.4,0.8c0.4,0.9,0.7,1.9,1.1,2.8c0.1,0.4,0.2,0.7,0.3,1.1c0.2,1,0.5,2,0.7,3.1
						c0,0.4,0,0.9,0.2,1.3c0,1.2,0.1,2.4,0.1,3.6c0,0.4,0,0.9,0,1.3c-0.3,1.6-0.6,3.1-0.9,4.7c-0.2,0.7-0.4,1.4-0.6,2
						c-1.9,4.5-4.6,8.4-8.6,11.3c-0.7,0.5-1.3,1.1-2,1.3c-1.6,0.6-2,1.8-1.6,3.3c-0.1,0.5-0.1,1,0,1.6c-0.2,1.6-0.2,1.6,2.4,2.1
						c0.3,0.3,0.7,0.3,1,0.4c0.9,0.3,1.7,0.6,2.6,0.9c0.3,0.3,0.7,0.4,1,0.5c0.8,0.4,1.5,0.7,2.3,1.1c0.3,0.3,0.7,0.4,1.1,0.6
						c0.9,0.5,1.7,1,2.6,1.5c0.1,0.1,0.3,0.2,0.4,0.3c0.9,0.6,1.8,1.3,2.7,1.9c0.2,0.1,0.4,0.3,0.5,0.4c0.8,0.6,1.5,1.3,2.3,1.9
						c0.2,0.2,0.3,0.3,0.5,0.5c0.6,0.6,1.2,1.2,1.8,1.8c0.3,0.3,0.5,0.5,0.8,0.8c0.5,0.6,1,1.2,1.6,1.8c0.2,0.3,0.5,0.5,0.7,0.8
						c0.6,0.8,1.2,1.6,1.8,2.4c0.2,0.3,0.3,0.5,0.5,0.8c0.5,0.8,1,1.6,1.5,2.4c0.2,0.3,0.4,0.6,0.6,1c0.4,0.8,0.8,1.6,1.2,2.4
						c0.1,0.2,0.1,0.5,0.3,0.6c0.4,0.9,0.7,1.7,1.1,2.6c0.1,0.4,0.3,0.7,0.4,1.1c0.3,0.9,0.6,1.9,0.9,2.8c0.1,0.3,0.2,0.7,0.3,1
						c0.2,1,0.5,2.1,0.7,3.1c0,0.4,0,0.7,0.2,1c0.1,1.1,0.3,2.3,0.4,3.4c0,0.4,0.1,0.8,0.1,1.3c0,1.2,0.1,2.4,0.1,3.6
						c0,0.5,0,1,0,1.6c-0.1,0.1-0.3,0.2-0.4,0.3c-0.4,0-0.9,0-1.3,0c-1.3,0-2.6,0-3.9,0c-0.4,0-0.9,0-1.3,0c-1.3,0-2.6,0-3.9,0
						c-0.4,0-0.9,0-1.3,0c-1.3,0-2.6,0-3.9,0c-0.4,0-0.9,0-1.3,0c-1.3,0-2.6,0-3.9,0c-0.4,0-0.9,0-1.3,0c-1.3,0-2.6,0-3.9,0
						c-0.4,0-0.9,0-1.3,0c-1.3,0-2.6,0-3.9,0c-0.4,0-0.9,0-1.3,0c-1.3,0-2.6,0-3.9,0c-0.4,0-0.9,0-1.3,0c-1.3,0-2.6,0-3.9,0
						c-0.4,0-0.9,0-1.3,0c-1.3,0-2.6,0-3.9,0c-0.4,0-0.9,0-1.3,0c-1.3,0-2.6,0-3.9,0c-0.4,0-0.9,0-1.3,0c-1.3,0-2.6,0-3.9,0
						c-0.4,0-0.9,0-1.3,0c-1.3,0-2.6,0-3.9,0c-0.4,0-0.9,0-1.3,0c-1.3,0-2.6,0-3.9,0c-0.4,0-0.9,0-1.3,0c-1.3,0-2.6,0-3.9,0
						c-0.4,0-0.9,0-1.3,0c-1.3,0-2.6,0-3.9,0c-0.4,0-0.9,0-1.3,0c-1.3,0-2.6,0-3.9,0c-0.4,0-0.9,0-1.3,0c-1.3,0-2.6,0-3.9,0
						c-0.4,0-0.9,0-1.3,0c-0.9-0.2-1.9,0.3-2.7-0.3c0-0.5,0-1,0-1.5c0-1.3,0.1-2.6,0.1-3.9c0.1-0.5,0.1-1,0.2-1.6
						c0.2-1.5,0.4-2.9,0.7-4.4c0.1-0.6,0.3-1.2,0.4-1.8c0.6-1.9,1.2-3.8,1.8-5.7c0.4-0.6,0.7-1.3,0.8-2c1.7-3.4,3.7-6.7,6-9.8
						c2.2-2.6,4.5-5,7.1-7.2c3.1-2.3,6.3-4.3,9.8-6.1c0.8-0.3,1.5-0.7,2.3-1c0.8-0.3,1.5-0.5,2.3-0.8c1-0.4,2.6-0.2,3-1.2
						c0.4-0.9,0.1-2.3,0.1-3.4c0-0.5,0.3-1.1-0.2-1.6c-0.7-0.4-1.5-0.9-2.2-1.3c-0.3-0.2-0.5-0.3-0.8-0.5c-0.7-0.6-1.5-1.2-2.2-1.7
						c-0.2-0.2-0.4-0.4-0.6-0.6c-0.6-0.7-1.3-1.3-1.9-2c-0.2-0.3-0.5-0.6-0.7-0.9c-0.5-0.6-0.9-1.3-1.4-1.9
						c-0.1-0.3-0.2-0.6-0.5-0.8c-0.5-1-1-2-1.5-3c-0.1-0.2-0.2-0.4-0.2-0.6c-0.3-0.9-0.6-1.9-0.9-2.8c-0.1-0.3-0.2-0.7-0.3-1
						c-0.2-1.1-0.3-2.2-0.5-3.3c0-0.4,0-0.9,0-1.3c0.1-1.3,0.1-2.6,0.2-3.9c0.1-0.6,0.2-1.2,0.3-1.8c0.5-1.9,1-3.7,1.8-5.4
						C31.3,28.4,31.7,27.5,32.2,26.5z M78.4,98.3c-1.1-1.2-2.5-1.3-3.5-0.2c-1,1.1-0.8,2.3,0.4,3.4c1.1,0.9,2.1,0.6,3-0.2
						C79.1,100.5,79.1,99.4,78.4,98.3z M53.8,110.2c4.8,0,9.6,0,14.4,0c8.7,0,17.4,0,26.1,0c0.9,0,1.3-0.2,1.2-1.2
						c-0.1-1.3-0.3-2.5-0.5-3.8C93.4,95.1,88.5,86.8,80.7,80c-0.7-0.6-0.9-0.5-1.1,0.4c-0.9,3.8-1.2,7.7-1.3,11.6c0,1,0.2,1.6,1.2,2
						c2.6,1.2,4,4.3,3.3,6.9c-0.7,3-3.2,5.1-6.2,5.2c-2.7,0.1-5.5-2-6.2-4.7c-0.8-2.8,0.4-5.9,3-7.3c0.8-0.4,1-0.9,1-1.8
						c-0.1-5,0.2-10,1.9-14.8c0.2-0.7-0.2-0.8-0.6-1.1c-2.9-1.8-6-3.2-9.3-4.3c-0.7-0.3-1.1-0.2-1.6,0.6c-2.9,4.6-8.4,6.8-13.7,5.5
						c-3.4-0.8-6.1-2.7-8-5.7c-0.3-0.5-0.6-0.9-1.3-0.6c-3.2,1-6.2,2.3-9.1,4c-0.5,0.3-0.6,0.5-0.4,1c0.5,1.2,0.9,2.4,1.1,3.7
						c0.1,0.7,0.5,1.1,1.2,1.4c1.9,0.7,3.1,2.1,3.3,4.1c0.2,2.8,0.9,5.5,1.5,8.2c0.7,2.8,1.8,5.5,1.6,8.5c-0.2,3.8-2.6,6.2-6.2,6
						c-1.3-0.1-2-0.9-2.1-2c0-1.2,0.7-1.9,2-2.1c2-0.2,2-0.2,2.3-2.2c0.1-0.8,0-1.6-0.2-2.4c-1.2-4.3-2.5-8.6-2.9-13.1
						c-0.1-1.4-1.2-1.4-2.3-1.4c-1,0-1.6,0.4-1.8,1.6c-0.3,2.5-0.9,5-1.4,7.5c-0.6,2.5-1.8,4.9-1.6,7.6c0.1,2,0.2,2.2,2.2,2.4
						c1.2,0.1,1.9,0.9,2,2c0,1.1-0.7,1.9-1.8,2.1c-2.7,0.4-5.1-1-5.9-3.6c-0.7-2-0.7-4.1-0.1-6.2c1.1-4.1,2.5-8.2,2.8-12.5
						c0.1-1.8,0.9-3.3,2.7-4.1c1-0.4,1-1,0.7-1.8c-0.1-0.3-0.2-0.6-0.3-1c-0.2-0.9-0.5-0.8-1.1-0.3c-3.1,2.4-5.7,5.2-8,8.3
						c-4.6,6.3-7.1,13.4-7.9,21.1c-0.1,1.2,0.1,1.7,1.5,1.7C27,110.2,40.4,110.2,53.8,110.2z M75,39.7c0-0.9,0-2-0.2-3.1
						c-0.1-1-0.5-1-1.3-1c-7.6,0.7-15-0.1-22-3.4c-0.7-0.3-0.9-0.1-1.3,0.4c-0.9,1.4-2,2.7-3.3,3.8c-3.7,3.1-8,4.9-12.6,5.9
						c-1,0.2-1.4,0.6-1.2,1.7c2.5,11.6,13.2,18.4,23.9,16.8C68.1,58.9,75.1,49.6,75,39.7z M69.1,31.9c1,0.1,2.1-0.2,3.1-0.2
						c1.4,0,1.1-0.6,0.7-1.4c-1.2-2.4-2.9-4.6-4.9-6.4c-6.3-5.4-13.3-6.7-21.2-4.2c-1,0.3-1.1,0.8-0.8,1.7c1,2.8,2.9,4.7,5.4,6.1
						C56.8,30.9,62.9,31.6,69.1,31.9z M61.3,64c-2.4,0.5-6.4,1.9-14.6,0c0,1.8,0,3.6,0,5.4c0,0.8,0.2,1.3,0.7,1.9
						c3.3,4.2,9.9,4.3,13.4,0.2c0.3-0.3,0.5-0.7,0.5-1.1C61.3,68.3,61.3,66.1,61.3,64z M32.7,37.6c0,0.8,0.2,1,1.1,0.7
						c2.7-0.7,5.4-1.7,7.8-3.1c2-1.2,3.9-2.7,5.1-4.8c0.3-0.5,0.5-0.8-0.1-1.3c-2-1.6-3.5-3.7-4.4-6.1c-0.3-0.8-0.6-0.7-1.2-0.3
						c-1.3,1-2.5,2.1-3.5,3.4C34.8,29.4,33.2,33.3,32.7,37.6z"/>
				</g>
			</g>
		</g>
	</g>
</g>
</svg>
