<?xml version="1.0" encoding="utf-8"?>
<!-- Generator: Adobe Illustrator 23.0.6, SVG Export Plug-In . SVG Version: 6.00 Build 0)  -->
<svg version="1.1" id="Layer_1" xmlns="http://www.w3.org/2000/svg" xmlns:xlink="http://www.w3.org/1999/xlink" x="0px" y="0px"
	 width="121.4px" height="114.4px" viewBox="0 0 121.4 114.4" style="enable-background:new 0 0 121.4 114.4;" xml:space="preserve"
	>
<style type="text/css">
	.st0{fill:#FFFFFF;}
</style>
<g>
	<path class="st0" d="M8.8,56.4c0.7-1,1.2-2.2,2.1-3c5.3-5.4,10.7-10.7,16.1-16.1c2.3-2.3,4.7-2.3,7.1,0c2.9,2.9,5.8,5.8,8.7,8.7
		c0.2,0.2,0.5,0.5,0.7,0.6C54.6,35.3,65.9,24,77.2,12.7c-2.3-2.4-4.7-4.8-7.2-7.4c7.1,0,14,0,21,0c0,7.1,0,14.2,0,21.1
		c-2.5-2.4-5.1-4.8-7.9-7.4c-0.2,0.2-0.3,0.6-0.6,0.9C70.7,31.7,58.9,43.5,47.1,55.3c-2.5,2.5-4.8,2.5-7.3,0
		c-2.9-2.9-5.7-5.7-8.6-8.6c-0.2-0.2-0.4-0.4-0.8-0.7c-0.8,0.8-1.5,1.6-2.3,2.4c-3.7,3.7-7.5,7.3-11.1,11.2
		c-2.9,3.1-7.2,2.2-8.2-1.6C8.8,57.4,8.8,56.9,8.8,56.4z"/>
	<path class="st0" d="M107.4,109.1c-1-0.8-2.2-1.4-3.1-2.3c-4.2-4.1-8.2-8.2-12.4-12.3c-0.3-0.3-0.5-0.5-0.8-0.8
		c-9.1,5.1-18.6,1.4-23.1-5.2c-4.7-6.9-3.7-16.3,2.4-22.2c6.1-5.9,15.6-6.5,22.3-1.4c6.5,4.8,9.4,14.2,4.6,22.7
		c0.2,0.2,0.5,0.5,0.7,0.8c4.2,4.2,8.4,8.6,12.7,12.7c2.8,2.6,2.6,6.7-1.5,8.1C108.7,109.1,108.1,109.1,107.4,109.1z M82.4,65.9
		c-7.3,0-13,5.8-13,13.1c0,7.1,5.9,12.9,13,12.9c7.1,0,13-5.9,13-13C95.4,71.7,89.6,65.8,82.4,65.9z"/>
	<path class="st0" d="M26.2,57.2c2.9,0,5.7,0,8.6,0c0,10.1,0,20.1,0,30.2c-2.8,0-5.7,0-8.6,0C26.2,77.4,26.2,67.3,26.2,57.2z"/>
	<path class="st0" d="M60.7,87.4c-2.9,0-5.7,0-8.5,0c0-10.1,0-20.1,0-30.2c2.8,0,5.7,0,8.5,0C60.7,67.3,60.7,77.3,60.7,87.4z"/>
	<path class="st0" d="M78.1,35.5c2.9,0,5.7,0,8.5,0c0,7.3,0,14.6,0,21.8c-2.8,0-5.6,0-8.5,0C78.1,50.2,78.1,43,78.1,35.5z"/>
	<path class="st0" d="M21.7,87.4c-2.9,0-5.6,0-8.5,0c0-7.2,0-14.3,0-21.5c2.8,0,5.7,0,8.5,0C21.7,73.1,21.7,80.2,21.7,87.4z"/>
	<path class="st0" d="M47.7,87.4c-2.9,0-5.7,0-8.6,0c0-7.2,0-14.3,0-21.5c2.9,0,5.7,0,8.6,0C47.7,73.1,47.7,80.2,47.7,87.4z"/>
	<path class="st0" d="M65.1,44.2c2.9,0,5.7,0,8.6,0c0,0.4,0.1,0.7,0.1,1c0,4.3,0,8.5,0,12.8c0,0.7-0.1,1.1-0.8,1.4
		c-2.8,1.3-5.1,3.2-7,5.5c-0.2,0.2-0.4,0.5-0.6,0.7c0,0-0.1,0-0.2,0C65.1,58.5,65.1,51.4,65.1,44.2z"/>
</g>
</svg>
