<?xml version="1.0" encoding="utf-8"?>
<!-- Generator: Adobe Illustrator 24.1.1, SVG Export Plug-In . SVG Version: 6.00 Build 0)  -->
<svg version="1.1" id="Layer_1" xmlns="http://www.w3.org/2000/svg" xmlns:xlink="http://www.w3.org/1999/xlink" x="0px" y="0px"
	 width="254.9px" height="56px" viewBox="0 0 254.9 56" style="enable-background:new 0 0 254.9 56;" xml:space="preserve">
<style type="text/css">
	.st0{fill:#F96731;}
	.st1{fill:#2B9AF3;}
	.st2{fill:none;}
	.st3{fill:#1C96E8;}
</style>
<g>
	<g>
		<g>
			<g>
				<path d="M1,35.1V1.8h4.1v19l9.7-9.8h5.3l-9.2,9L21,35.1h-5L8,22.8l-2.9,2.8v9.6L1,35.1L1,35.1z"/>
				<path d="M50.2,35.1V11h3.7v3.4c1.8-2.7,4.3-4,7.7-4c1.5,0,2.8,0.3,4,0.8c1.2,0.5,2.1,1.2,2.7,2.1c0.6,0.8,1,1.9,1.3,3
					c0.2,0.8,0.2,2.1,0.2,4v14.9h-4.1V20.5c0-1.7-0.2-2.9-0.5-3.7s-0.9-1.5-1.7-2s-1.8-0.7-2.9-0.7c-1.7,0-3.2,0.6-4.5,1.7
					c-1.3,1.1-1.9,3.2-1.9,6.3v13.2h-4V35.1z"/>
				<path d="M92.6,27.4l4.2,0.5c-0.7,2.5-1.9,4.4-3.7,5.8c-1.8,1.4-4.1,2-6.9,2c-3.5,0-6.3-1.1-8.4-3.3s-3.1-5.2-3.1-9.2
					c0-4.1,1-7.2,3.1-9.5c2.2-2.1,4.9-3.3,8.2-3.3c3.2,0,5.9,1.1,7.9,3.3S97,19,97,23c0,0.2,0,0.6,0,1.1H79c0.2,2.7,0.9,4.7,2.3,6.1
					c1.3,1.4,3,2.1,5,2.1c1.5,0,2.8-0.4,3.8-1.2C91.2,30.4,92,29.1,92.6,27.4z M79.2,20.7h13.5c-0.2-2-0.7-3.6-1.5-4.6
					c-1.3-1.6-3-2.4-5.1-2.4c-1.9,0-3.5,0.6-4.7,1.9C80,17,79.3,18.6,79.2,20.7z"/>
				<path d="M117.8,26.3l4,0.5c-0.4,2.8-1.6,4.9-3.4,6.5c-1.8,1.6-4,2.4-6.7,2.4c-3.3,0-6-1.1-8-3.2c-2-2.2-3-5.3-3-9.3
					c0-2.6,0.4-4.9,1.3-6.8c0.9-2,2.2-3.4,3.9-4.4c1.8-1,3.7-1.5,5.8-1.5c2.6,0,4.8,0.7,6.4,2c1.7,1.3,2.7,3.2,3.2,5.7l-4,0.6
					c-0.4-1.6-1.1-2.8-2-3.7c-1-0.8-2.1-1.2-3.5-1.2c-2.1,0-3.7,0.7-5,2.2c-1.3,1.5-1.9,3.8-1.9,7s0.6,5.6,1.9,7.1
					c1.2,1.5,2.9,2.2,4.9,2.2c1.6,0,2.9-0.5,4-1.5C116.8,29.9,117.5,28.3,117.8,26.3z"/>
				<path d="M134.2,31.5l0.6,3.6c-1.2,0.2-2.2,0.4-3.1,0.4c-1.5,0-2.6-0.2-3.5-0.7c-0.8-0.5-1.4-1.1-1.7-1.9
					c-0.3-0.8-0.5-2.4-0.5-4.8V14.2h-3V11h3V5l4.1-2.5v8.4h4.1v3.2h-4.1v14.1c0,1.2,0.1,1.9,0.2,2.3c0.1,0.3,0.4,0.6,0.7,0.8
					c0.3,0.2,0.8,0.3,1.4,0.3C132.9,31.6,133.5,31.6,134.2,31.5z"/>
				<path d="M154,32.2c-1.5,1.3-3,2.2-4.4,2.7s-2.9,0.8-4.5,0.8c-2.7,0-4.7-0.6-6.1-1.9c-1.4-1.3-2.1-3-2.1-5c0-1.2,0.3-2.3,0.8-3.2
					c0.5-1,1.2-1.8,2.1-2.4c0.9-0.6,1.9-1,2.9-1.3c0.8-0.2,2-0.4,3.6-0.6c3.3-0.4,5.7-0.9,7.3-1.4c0-0.6,0-0.9,0-1.1
					c0-1.7-0.4-2.8-1.2-3.5c-1-0.9-2.6-1.4-4.7-1.4c-1.9,0-3.3,0.3-4.3,1c-0.9,0.7-1.6,1.9-2,3.6l-4-0.5c0.4-1.7,1-3.1,1.8-4.2
					s2-1.9,3.6-2.4c1.6-0.6,3.4-0.9,5.5-0.9s3.7,0.2,5,0.7s2.2,1.1,2.8,1.8s1,1.7,1.3,2.8c0.1,0.7,0.2,2,0.2,3.8v5.5
					c0,3.8,0.1,6.2,0.3,7.2s0.5,2,1,2.9h-4.3C154.4,34.3,154.1,33.3,154,32.2z M153.7,23c-1.5,0.6-3.7,1.1-6.7,1.5
					c-1.7,0.2-2.9,0.5-3.6,0.8c-0.7,0.3-1.2,0.7-1.6,1.3c-0.4,0.6-0.6,1.2-0.6,1.9c0,1.1,0.4,2,1.2,2.7s2,1.1,3.6,1.1s3-0.3,4.2-1
					c1.2-0.7,2.1-1.6,2.7-2.8c0.4-0.9,0.7-2.3,0.7-4.1V23H153.7z"/>
				<path d="M164.1,35.1V11h3.7v3.7c0.9-1.7,1.8-2.8,2.6-3.4c0.8-0.5,1.7-0.8,2.6-0.8c1.4,0,2.8,0.4,4.2,1.3l-1.4,3.8
					c-1-0.6-2-0.9-3-0.9c-0.9,0-1.7,0.3-2.4,0.8c-0.7,0.5-1.2,1.3-1.5,2.2c-0.5,1.5-0.7,3-0.7,4.8v12.6
					C168.2,35.1,164.1,35.1,164.1,35.1z"/>
				<g>
					<circle class="st0" cx="34.1" cy="32.8" r="2.3"/>
					<circle class="st0" cx="34.1" cy="12.7" r="2.3"/>
					<path class="st1" d="M31.8,30.3c-3.2-1-5.6-4-5.6-7.5s2.4-6.6,5.6-7.5c-0.7-0.6-1.1-1.5-1.1-2.5c0-0.6,0.2-1.2,0.5-1.7l0,0
						c-5.3,1.3-9.2,6.1-9.2,11.8s3.9,10.5,9.2,11.8l0,0c-0.3-0.5-0.5-1.1-0.5-1.7C30.7,31.8,31.1,30.9,31.8,30.3z"/>
					<path class="st1" d="M37,11c0.3,0.5,0.5,1.1,0.5,1.8c0,1-0.4,1.9-1.1,2.5c3.2,1,5.6,4,5.6,7.5s-2.4,6.6-5.6,7.5
						c0.7,0.6,1.1,1.5,1.1,2.5c0,0.6-0.2,1.2-0.5,1.8c5.3-1.3,9.2-6.1,9.2-11.8S42.3,12.3,37,11z"/>
				</g>
			</g>
			<g>
				<rect x="177.2" y="5.7" class="st2" width="3.2" height="4.7"/>
			</g>
		</g>
		<g>
			<g>
				<g>
					<path class="st3" d="M210.3,31.3c0,0.2,0,0.4,0,0.5s0,0.3-0.1,0.4c0,0.1-0.1,0.2-0.1,0.3s-0.1,0.2-0.3,0.3
						c-0.1,0.1-0.4,0.3-0.8,0.6c-0.4,0.2-0.9,0.5-1.4,0.7s-1.2,0.4-2,0.6c-0.7,0.2-1.6,0.2-2.4,0.2c-1.5,0-2.9-0.3-4.1-0.8
						c-1.2-0.5-2.3-1.3-3.1-2.2s-1.5-2.2-2-3.7s-0.7-3.1-0.7-5s0.3-3.7,0.8-5.2s1.2-2.8,2.1-3.9s2-1.9,3.2-2.4s2.7-0.8,4.2-0.8
						c0.7,0,1.3,0.1,2,0.2c0.6,0.1,1.2,0.3,1.8,0.5c0.5,0.2,1,0.4,1.4,0.7s0.7,0.5,0.9,0.6c0.2,0.2,0.3,0.3,0.3,0.4
						c0,0.1,0.1,0.2,0.1,0.3s0.1,0.3,0.1,0.4c0,0.2,0,0.3,0,0.6c0,0.2,0,0.4,0,0.6s-0.1,0.3-0.1,0.4s-0.1,0.2-0.2,0.3
						c-0.1,0.1-0.1,0.1-0.2,0.1c-0.2,0-0.4-0.1-0.7-0.4c-0.3-0.2-0.7-0.5-1.2-0.8s-1.1-0.5-1.7-0.8c-0.7-0.2-1.5-0.4-2.5-0.4
						s-2,0.2-2.8,0.6s-1.6,1-2.2,1.8c-0.6,0.8-1.1,1.8-1.4,3c-0.3,1.2-0.5,2.5-0.5,4s0.2,2.8,0.5,3.9s0.8,2.1,1.4,2.9
						c0.6,0.8,1.3,1.3,2.2,1.7c0.9,0.4,1.9,0.6,3,0.6c0.9,0,1.7-0.1,2.4-0.3c0.7-0.2,1.3-0.5,1.8-0.8s0.9-0.5,1.2-0.8
						c0.3-0.2,0.6-0.3,0.7-0.3c0.1,0,0.2,0,0.2,0.1c0.1,0,0.1,0.1,0.1,0.2s0.1,0.2,0.1,0.4S210.3,31.1,210.3,31.3z"/>
					<path class="st3" d="M232.1,33.4c0,0.2,0,0.4-0.1,0.6c-0.1,0.2-0.2,0.3-0.3,0.4c-0.1,0.1-0.3,0.2-0.4,0.2
						c-0.2,0-0.3,0.1-0.5,0.1h-1c-0.3,0-0.6,0-0.9-0.1c-0.2-0.1-0.5-0.2-0.7-0.4s-0.4-0.4-0.7-0.7c-0.2-0.3-0.4-0.7-0.7-1.2
						L219.7,19c-0.4-0.7-0.8-1.4-1.1-2.2c-0.4-0.8-0.7-1.5-1.1-2.2l0,0c0,0.9,0,1.8,0.1,2.7c0,0.9,0,1.8,0,2.7v14.1
						c0,0.1,0,0.2-0.1,0.2c-0.1,0.1-0.1,0.1-0.3,0.2c-0.1,0-0.3,0.1-0.5,0.1s-0.4,0-0.8,0s-0.6,0-0.8,0s-0.4-0.1-0.5-0.1
						s-0.2-0.1-0.2-0.2c-0.1-0.1-0.1-0.2-0.1-0.2V12.6c0-0.5,0.1-0.8,0.4-1s0.6-0.3,0.9-0.3h1.5c0.4,0,0.7,0,0.9,0.1
						s0.5,0.2,0.7,0.3s0.4,0.3,0.6,0.6c0.2,0.2,0.4,0.6,0.6,0.9l5.5,10.3c0.3,0.6,0.7,1.2,1,1.8c0.3,0.6,0.6,1.2,0.9,1.8
						c0.3,0.6,0.6,1.1,0.9,1.7s0.6,1.1,0.8,1.7l0,0c0-1,0-1.9,0-3c0-1,0-2,0-3V11.8c0-0.1,0-0.2,0.1-0.2c0.1-0.1,0.1-0.1,0.3-0.2
						c0.1-0.1,0.3-0.1,0.5-0.1s0.5,0,0.8,0s0.5,0,0.7,0s0.4,0.1,0.5,0.1c0.1,0.1,0.2,0.1,0.2,0.2c0.1,0.1,0.1,0.2,0.1,0.2
						L232.1,33.4L232.1,33.4z"/>
					<path class="st3" d="M250.9,28.1c0,1.1-0.2,2.1-0.6,2.9c-0.4,0.9-1,1.6-1.7,2.2s-1.6,1-2.5,1.3s-2,0.5-3.1,0.5
						c-0.8,0-1.5-0.1-2.2-0.2s-1.3-0.3-1.8-0.5s-1-0.4-1.3-0.6c-0.4-0.2-0.6-0.4-0.7-0.5c-0.1-0.1-0.2-0.3-0.3-0.6
						c-0.1-0.2-0.1-0.5-0.1-0.9c0-0.3,0-0.5,0-0.7s0.1-0.3,0.1-0.4s0.1-0.2,0.2-0.2c0.1,0,0.2-0.1,0.3-0.1c0.2,0,0.4,0.1,0.7,0.3
						s0.7,0.4,1.2,0.7c0.5,0.2,1.1,0.5,1.7,0.7c0.6,0.2,1.5,0.3,2.4,0.3c0.7,0,1.3-0.1,1.9-0.3c0.6-0.2,1-0.4,1.4-0.8
						s0.7-0.7,0.9-1.2s0.3-1,0.3-1.6c0-0.7-0.2-1.2-0.5-1.7s-0.7-0.9-1.2-1.2c-0.5-0.4-1.1-0.7-1.7-1s-1.3-0.6-1.9-0.9
						c-0.7-0.3-1.3-0.6-1.9-1c-0.6-0.4-1.2-0.8-1.7-1.3s-0.9-1.1-1.2-1.8c-0.3-0.7-0.5-1.5-0.5-2.5s0.2-1.8,0.5-2.6
						c0.4-0.8,0.8-1.4,1.5-1.9c0.6-0.5,1.4-0.9,2.3-1.2c0.9-0.3,1.8-0.4,2.8-0.4c0.5,0,1,0,1.6,0.1c0.5,0.1,1,0.2,1.5,0.4
						s0.9,0.3,1.2,0.5c0.4,0.2,0.6,0.3,0.7,0.5c0.1,0.1,0.2,0.2,0.2,0.3s0.1,0.2,0.1,0.3s0,0.2,0.1,0.4c0,0.1,0,0.3,0,0.6
						c0,0.2,0,0.4,0,0.6c0,0.2,0,0.3-0.1,0.4s-0.1,0.2-0.2,0.3s-0.1,0.1-0.2,0.1c-0.1,0-0.3-0.1-0.6-0.3s-0.6-0.4-1-0.6
						c-0.4-0.2-0.9-0.4-1.5-0.6s-1.2-0.3-1.9-0.3s-1.2,0.1-1.7,0.3s-0.9,0.4-1.2,0.7s-0.5,0.6-0.7,1c-0.2,0.4-0.2,0.8-0.2,1.3
						c0,0.7,0.2,1.2,0.5,1.7s0.7,0.9,1.2,1.2s1.1,0.7,1.7,1c0.6,0.3,1.3,0.6,2,0.9s1.3,0.6,2,1c0.6,0.4,1.2,0.8,1.7,1.3
						s0.9,1.1,1.2,1.8C250.8,26.4,250.9,27.2,250.9,28.1z"/>
				</g>
			</g>
		</g>
	</g>
	<g>
		<path d="M187.1,5.7c0,2.5-1.9,4.4-4.5,4.4c-2.5,0-4.5-1.9-4.5-4.4c0-2.4,2-4.3,4.5-4.3C185.1,1.4,187.1,3.3,187.1,5.7z M179.2,5.7
			c0,1.9,1.4,3.5,3.4,3.5c1.9,0,3.3-1.5,3.3-3.4s-1.4-3.5-3.3-3.5C180.7,2.3,179.2,3.8,179.2,5.7z M181.9,8h-1V3.7
			c0.4-0.1,1-0.1,1.7-0.1c0.8,0,1.2,0.1,1.5,0.3c0.2,0.2,0.4,0.5,0.4,1s-0.4,0.8-0.9,1V6c0.4,0.2,0.7,0.5,0.8,1.1
			c0.1,0.7,0.2,0.9,0.3,1.1h-1.1c-0.1-0.2-0.2-0.6-0.3-1.1s-0.3-0.7-0.9-0.7h-0.5V8z M181.9,5.6h0.5c0.6,0,1-0.2,1-0.6
			s-0.3-0.7-0.9-0.7c-0.3,0-0.5,0-0.6,0.1V5.6z"/>
	</g>
</g>
<g>
	<path d="M0,46.2c0-2.4,1.4-3.9,3.3-3.9c0.9,0,1.6,0.4,2.1,0.9l-0.5,0.6c-0.4-0.4-0.9-0.7-1.5-0.7c-1.4,0-2.4,1.2-2.4,3
		c0,1.9,0.9,3.1,2.3,3.1c0.7,0,1.3-0.3,1.7-0.9L5.6,49c-0.6,0.7-1.3,1.1-2.3,1.1C1.4,50.1,0,48.7,0,46.2z"/>
	<path d="M6.9,47.2c0-1.9,1.2-2.9,2.6-2.9c1.4,0,2.6,1.1,2.6,2.9c0,1.9-1.2,2.9-2.6,2.9C8.1,50.1,6.9,49,6.9,47.2z M11.1,47.2
		c0-1.3-0.6-2.2-1.6-2.2c-1,0-1.6,0.9-1.6,2.2c0,1.3,0.7,2.1,1.6,2.1C10.4,49.3,11.1,48.5,11.1,47.2z"/>
	<path d="M13.9,44.4h0.8l0.1,0.8h0c0.5-0.5,1.1-0.9,1.9-0.9c1.2,0,1.7,0.8,1.7,2.2V50h-0.9v-3.4c0-1-0.3-1.5-1.1-1.5
		c-0.6,0-1,0.3-1.5,0.9v4h-0.9V44.4z"/>
	<path d="M20.6,44.4h0.8l0.1,0.8h0c0.5-0.5,1.1-0.9,1.9-0.9c1.2,0,1.7,0.8,1.7,2.2V50h-0.9v-3.4c0-1-0.3-1.5-1.1-1.5
		c-0.6,0-1,0.3-1.5,0.9v4h-0.9V44.4z"/>
	<path d="M26.9,47.2c0-1.8,1.2-2.9,2.5-2.9c1.4,0,2.2,1,2.2,2.6c0,0.2,0,0.4,0,0.5h-3.8c0.1,1.2,0.8,1.9,1.9,1.9
		c0.5,0,1-0.2,1.4-0.4l0.3,0.6c-0.5,0.3-1.1,0.6-1.8,0.6C28.1,50.1,26.9,49,26.9,47.2z M30.8,46.7c0-1.1-0.5-1.7-1.4-1.7
		c-0.8,0-1.5,0.6-1.6,1.7H30.8z"/>
	<path d="M33,47.2c0-1.9,1.3-2.9,2.7-2.9c0.7,0,1.2,0.3,1.6,0.7l-0.5,0.6c-0.3-0.3-0.7-0.5-1.1-0.5c-1,0-1.7,0.9-1.7,2.2
		c0,1.3,0.7,2.1,1.7,2.1c0.5,0,1-0.3,1.3-0.6l0.4,0.6c-0.5,0.4-1.1,0.7-1.8,0.7C34.1,50.1,33,49,33,47.2z"/>
	<path d="M39.2,48.2v-3.1h-0.8v-0.7l0.9-0.1l0.1-1.6h0.8v1.6h1.5v0.8h-1.5v3.1c0,0.7,0.2,1.1,0.9,1.1c0.2,0,0.4-0.1,0.6-0.1l0.2,0.7
		c-0.3,0.1-0.7,0.2-1,0.2C39.6,50.1,39.2,49.4,39.2,48.2z"/>
	<path d="M43.1,42.6c0-0.4,0.3-0.6,0.7-0.6c0.4,0,0.7,0.2,0.7,0.6c0,0.4-0.3,0.6-0.7,0.6C43.4,43.2,43.1,43,43.1,42.6z M43.3,44.4
		h0.9V50h-0.9V44.4z"/>
	<path d="M46.5,44.4h0.8l0.1,0.8h0c0.5-0.5,1.1-0.9,1.9-0.9c1.2,0,1.7,0.8,1.7,2.2V50h-0.9v-3.4c0-1-0.3-1.5-1.1-1.5
		c-0.6,0-1,0.3-1.5,0.9v4h-0.9V44.4z"/>
	<path d="M52.8,51c0-0.5,0.3-0.9,0.8-1.3v0c-0.3-0.2-0.5-0.5-0.5-0.9c0-0.5,0.3-0.8,0.6-1v0c-0.4-0.3-0.7-0.8-0.7-1.5
		c0-1.2,1-2,2.1-2c0.3,0,0.6,0.1,0.8,0.1h1.9v0.7h-1.1c0.3,0.3,0.5,0.7,0.5,1.1c0,1.2-0.9,1.9-2,1.9c-0.3,0-0.6-0.1-0.8-0.2
		c-0.2,0.2-0.4,0.4-0.4,0.7c0,0.4,0.2,0.6,1,0.6H56c1.3,0,2,0.4,2,1.3c0,1-1.1,1.9-2.8,1.9C53.7,52.5,52.8,52,52.8,51z M57,50.8
		c0-0.5-0.4-0.7-1.1-0.7h-1c-0.2,0-0.5,0-0.7-0.1c-0.4,0.3-0.6,0.6-0.6,0.9c0,0.6,0.6,1,1.6,1C56.3,51.9,57,51.3,57,50.8z
		 M56.3,46.2c0-0.8-0.5-1.3-1.2-1.3c-0.7,0-1.2,0.5-1.2,1.3s0.5,1.3,1.2,1.3C55.8,47.6,56.3,47.1,56.3,46.2z"/>
	<path d="M62.2,42.4h1v6.7h3.3V50h-4.3V42.4z"/>
	<path d="M67.9,42.6c0-0.4,0.3-0.6,0.7-0.6c0.4,0,0.7,0.2,0.7,0.6c0,0.4-0.3,0.6-0.7,0.6C68.2,43.2,67.9,43,67.9,42.6z M68.1,44.4
		H69V50h-0.9V44.4z"/>
	<path d="M71.5,45.2h-0.8v-0.7l0.8-0.1v-0.9c0-1.1,0.5-1.9,1.6-1.9c0.3,0,0.7,0.1,0.9,0.2l-0.2,0.7c-0.2-0.1-0.4-0.1-0.6-0.1
		c-0.5,0-0.8,0.4-0.8,1.1v0.9h1.2v0.8h-1.2V50h-0.9V45.2z"/>
	<path d="M74.7,47.2c0-1.8,1.2-2.9,2.5-2.9c1.4,0,2.2,1,2.2,2.6c0,0.2,0,0.4,0,0.5h-3.8c0.1,1.2,0.8,1.9,1.9,1.9
		c0.5,0,1-0.2,1.4-0.4l0.3,0.6c-0.5,0.3-1.1,0.6-1.8,0.6C75.8,50.1,74.7,49,74.7,47.2z M78.6,46.7c0-1.1-0.5-1.7-1.4-1.7
		c-0.8,0-1.5,0.6-1.6,1.7H78.6z"/>
	<path d="M83.4,49l0.6-0.7c0.5,0.6,1.3,0.9,2.1,0.9c1,0,1.6-0.5,1.6-1.2c0-0.8-0.5-1-1.3-1.3l-1.1-0.5c-0.7-0.3-1.5-0.8-1.5-1.9
		c0-1.1,1-2,2.4-2c0.9,0,1.7,0.4,2.2,0.9l-0.5,0.6c-0.5-0.4-1-0.7-1.7-0.7c-0.8,0-1.4,0.4-1.4,1.1c0,0.7,0.7,1,1.3,1.3l1.1,0.5
		c0.9,0.4,1.6,0.9,1.6,2c0,1.2-1,2.2-2.6,2.2C85,50.1,84.1,49.7,83.4,49z"/>
	<path d="M90,47.2c0-1.9,1.3-2.9,2.7-2.9c0.7,0,1.2,0.3,1.6,0.7l-0.5,0.6c-0.3-0.3-0.7-0.5-1.1-0.5c-1,0-1.7,0.9-1.7,2.2
		c0,1.3,0.7,2.1,1.7,2.1c0.5,0,1-0.3,1.3-0.6l0.4,0.6c-0.5,0.4-1.1,0.7-1.8,0.7C91.1,50.1,90,49,90,47.2z"/>
	<path d="M95.9,42.6c0-0.4,0.3-0.6,0.7-0.6s0.7,0.2,0.7,0.6c0,0.4-0.3,0.6-0.7,0.6S95.9,43,95.9,42.6z M96,44.4H97V50H96V44.4z"/>
	<path d="M98.8,47.2c0-1.8,1.2-2.9,2.5-2.9c1.4,0,2.2,1,2.2,2.6c0,0.2,0,0.4,0,0.5h-3.8c0.1,1.2,0.8,1.9,1.9,1.9
		c0.5,0,1-0.2,1.4-0.4l0.3,0.6c-0.5,0.3-1.1,0.6-1.8,0.6C100,50.1,98.8,49,98.8,47.2z M102.8,46.7c0-1.1-0.5-1.7-1.4-1.7
		c-0.8,0-1.5,0.6-1.6,1.7H102.8z"/>
	<path d="M105.4,44.4h0.8l0.1,0.8h0c0.5-0.5,1.1-0.9,1.9-0.9c1.2,0,1.7,0.8,1.7,2.2V50h-0.9v-3.4c0-1-0.3-1.5-1.1-1.5
		c-0.6,0-1,0.3-1.5,0.9v4h-0.9V44.4z"/>
	<path d="M111.6,47.2c0-1.9,1.3-2.9,2.7-2.9c0.7,0,1.2,0.3,1.6,0.7l-0.5,0.6c-0.3-0.3-0.7-0.5-1.1-0.5c-1,0-1.7,0.9-1.7,2.2
		c0,1.3,0.7,2.1,1.7,2.1c0.5,0,1-0.3,1.3-0.6l0.4,0.6c-0.5,0.4-1.1,0.7-1.8,0.7C112.8,50.1,111.6,49,111.6,47.2z"/>
	<path d="M117.3,47.2c0-1.8,1.2-2.9,2.5-2.9c1.4,0,2.2,1,2.2,2.6c0,0.2,0,0.4,0,0.5h-3.8c0.1,1.2,0.8,1.9,1.9,1.9
		c0.5,0,1-0.2,1.4-0.4l0.3,0.6c-0.5,0.3-1.1,0.6-1.8,0.6C118.4,50.1,117.3,49,117.3,47.2z M121.2,46.7c0-1.1-0.5-1.7-1.4-1.7
		c-0.8,0-1.5,0.6-1.6,1.7H121.2z"/>
	<path d="M123.2,49.3l0.5-0.6c0.5,0.4,1,0.7,1.6,0.7c0.7,0,1.1-0.4,1.1-0.9c0-0.6-0.7-0.8-1.3-1.1c-0.8-0.3-1.7-0.7-1.7-1.6
		c0-0.9,0.7-1.6,1.9-1.6c0.7,0,1.3,0.3,1.7,0.6l-0.4,0.6c-0.4-0.3-0.8-0.5-1.3-0.5c-0.7,0-1,0.4-1,0.8c0,0.5,0.6,0.7,1.2,1
		c0.8,0.3,1.7,0.6,1.7,1.7c0,0.9-0.7,1.7-2,1.7C124.4,50.1,123.7,49.8,123.2,49.3z"/>
	<path d="M131.8,42.4h4.3v0.8h-3.4v2.4h2.9v0.8h-2.9v2.7h3.5V50h-4.5V42.4z"/>
	<path d="M139.2,47.1l-1.7-2.7h1l0.7,1.2c0.2,0.3,0.4,0.6,0.6,0.9h0c0.2-0.3,0.3-0.6,0.5-0.9l0.7-1.2h1l-1.7,2.8l1.8,2.8h-1
		l-0.8-1.3c-0.2-0.3-0.4-0.7-0.6-1h0c-0.2,0.3-0.4,0.7-0.6,1l-0.8,1.3h-1L139.2,47.1z"/>
	<path d="M143.7,44.4h0.8l0.1,0.6h0c0.5-0.4,1.1-0.8,1.8-0.8c1.4,0,2.2,1.1,2.2,2.9c0,1.9-1.1,3-2.4,3c-0.5,0-1-0.2-1.6-0.6l0,1v1.9
		h-0.9V44.4z M147.6,47.1c0-1.2-0.4-2.1-1.5-2.1c-0.5,0-0.9,0.3-1.5,0.8v2.9c0.5,0.4,1,0.6,1.4,0.6
		C146.9,49.3,147.6,48.5,147.6,47.1z"/>
	<path d="M150,47.2c0-1.8,1.2-2.9,2.5-2.9c1.4,0,2.2,1,2.2,2.6c0,0.2,0,0.4,0,0.5H151c0.1,1.2,0.8,1.9,1.9,1.9c0.5,0,1-0.2,1.4-0.4
		l0.3,0.6c-0.5,0.3-1.1,0.6-1.8,0.6C151.2,50.1,150,49,150,47.2z M153.9,46.7c0-1.1-0.5-1.7-1.4-1.7c-0.8,0-1.5,0.6-1.6,1.7H153.9z"
		/>
	<path d="M156.5,44.4h0.8l0.1,1h0c0.4-0.7,1-1.1,1.6-1.1c0.2,0,0.4,0,0.6,0.1l-0.2,0.8c-0.2-0.1-0.3-0.1-0.5-0.1
		c-0.5,0-1,0.3-1.4,1.3V50h-0.9V44.4z"/>
	<path d="M161.1,48.2v-3.1h-0.8v-0.7l0.9-0.1l0.1-1.6h0.8v1.6h1.5v0.8H162v3.1c0,0.7,0.2,1.1,0.9,1.1c0.2,0,0.4-0.1,0.6-0.1l0.2,0.7
		c-0.3,0.1-0.7,0.2-1,0.2C161.5,50.1,161.1,49.4,161.1,48.2z"/>
	<path d="M164.6,49.3l0.5-0.6c0.5,0.4,1,0.7,1.6,0.7c0.7,0,1.1-0.4,1.1-0.9c0-0.6-0.7-0.8-1.3-1.1c-0.8-0.3-1.7-0.7-1.7-1.6
		c0-0.9,0.7-1.6,1.9-1.6c0.7,0,1.3,0.3,1.7,0.6l-0.4,0.6c-0.4-0.3-0.8-0.5-1.3-0.5c-0.7,0-1,0.4-1,0.8c0,0.5,0.6,0.7,1.2,1
		c0.8,0.3,1.7,0.6,1.7,1.7c0,0.9-0.7,1.7-2,1.7C165.9,50.1,165.1,49.8,164.6,49.3z"/>
</g>
</svg>
