<?xml version="1.0" encoding="utf-8"?>
<!-- Generator: Adobe Illustrator 24.1.1, SVG Export Plug-In . SVG Version: 6.00 Build 0)  -->
<svg version="1.1" id="Layer_1" xmlns="http://www.w3.org/2000/svg" xmlns:xlink="http://www.w3.org/1999/xlink" x="0px" y="0px"
	 width="254.9px" height="38.3px" viewBox="0 0 254.9 38.3" style="enable-background:new 0 0 254.9 38.3;" xml:space="preserve">
<style type="text/css">
	.st0{fill:#F96731;}
	.st1{fill:#2B9AF3;}
	.st2{fill:none;}
	.st3{fill:#1C96E8;}
</style>
<g>
	<g>
		<g>
			<g>
				<path d="M1,34.7V1.4h4.1v19l9.7-9.8h5.3l-9.2,9L21,34.7h-5L8,22.4l-2.9,2.8v9.6H1z"/>
				<path d="M50.2,34.7V10.6h3.7V14c1.8-2.7,4.3-4,7.7-4c1.5,0,2.8,0.3,4,0.8c1.2,0.5,2.1,1.2,2.7,2.1c0.6,0.8,1,1.9,1.3,3
					c0.2,0.8,0.2,2.1,0.2,4v14.9h-4.1V20.1c0-1.7-0.2-2.9-0.5-3.7c-0.3-0.8-0.9-1.5-1.7-2c-0.8-0.5-1.8-0.7-2.9-0.7
					c-1.7,0-3.2,0.6-4.5,1.7c-1.3,1.1-1.9,3.2-1.9,6.3v13.2H50.2z"/>
				<path d="M92.6,27l4.2,0.5c-0.7,2.5-1.9,4.4-3.7,5.8c-1.8,1.4-4.1,2-6.9,2c-3.5,0-6.3-1.1-8.4-3.3c-2.1-2.2-3.1-5.2-3.1-9.2
					c0-4.1,1-7.2,3.1-9.5C80,11.2,82.7,10,86,10c3.2,0,5.9,1.1,7.9,3.3c2,2.2,3.1,5.3,3.1,9.3c0,0.2,0,0.6,0,1.1H79
					c0.2,2.7,0.9,4.7,2.3,6.1c1.3,1.4,3,2.1,5,2.1c1.5,0,2.8-0.4,3.8-1.2C91.2,30,92,28.7,92.6,27z M79.2,20.3h13.5
					c-0.2-2-0.7-3.6-1.5-4.6c-1.3-1.6-3-2.4-5.1-2.4c-1.9,0-3.5,0.6-4.7,1.9C80,16.6,79.3,18.2,79.2,20.3z"/>
				<path d="M117.8,25.9l4,0.5c-0.4,2.8-1.6,4.9-3.4,6.5c-1.8,1.6-4,2.4-6.7,2.4c-3.3,0-6-1.1-8-3.2c-2-2.2-3-5.3-3-9.3
					c0-2.6,0.4-4.9,1.3-6.8c0.9-2,2.2-3.4,3.9-4.4c1.8-1,3.7-1.5,5.8-1.5c2.6,0,4.8,0.7,6.4,2c1.7,1.3,2.7,3.2,3.2,5.7l-4,0.6
					c-0.4-1.6-1.1-2.8-2-3.7c-1-0.8-2.1-1.2-3.5-1.2c-2.1,0-3.7,0.7-5,2.2c-1.3,1.5-1.9,3.8-1.9,7c0,3.2,0.6,5.6,1.9,7.1
					c1.2,1.5,2.9,2.2,4.9,2.2c1.6,0,2.9-0.5,4-1.5C116.8,29.5,117.5,27.9,117.8,25.9z"/>
				<path d="M134.2,31.1l0.6,3.6c-1.2,0.2-2.2,0.4-3.1,0.4c-1.5,0-2.6-0.2-3.5-0.7c-0.8-0.5-1.4-1.1-1.7-1.9
					c-0.3-0.8-0.5-2.4-0.5-4.8V13.8h-3v-3.2h3v-6l4.1-2.5v8.4h4.1v3.2h-4.1v14.1c0,1.2,0.1,1.9,0.2,2.3c0.1,0.3,0.4,0.6,0.7,0.8
					c0.3,0.2,0.8,0.3,1.4,0.3C132.9,31.2,133.5,31.2,134.2,31.1z"/>
				<path d="M154,31.8c-1.5,1.3-3,2.2-4.4,2.7c-1.4,0.5-2.9,0.8-4.5,0.8c-2.7,0-4.7-0.6-6.1-1.9c-1.4-1.3-2.1-3-2.1-5
					c0-1.2,0.3-2.3,0.8-3.2c0.5-1,1.2-1.8,2.1-2.4c0.9-0.6,1.9-1,2.9-1.3c0.8-0.2,2-0.4,3.6-0.6c3.3-0.4,5.7-0.9,7.3-1.4
					c0-0.6,0-0.9,0-1.1c0-1.7-0.4-2.8-1.2-3.5c-1-0.9-2.6-1.4-4.7-1.4c-1.9,0-3.3,0.3-4.3,1c-0.9,0.7-1.6,1.9-2,3.6l-4-0.5
					c0.4-1.7,1-3.1,1.8-4.2c0.8-1.1,2-1.9,3.6-2.4c1.6-0.6,3.4-0.9,5.5-0.9c2.1,0,3.7,0.2,5,0.7c1.3,0.5,2.2,1.1,2.8,1.8
					c0.6,0.7,1,1.7,1.3,2.8c0.1,0.7,0.2,2,0.2,3.8v5.5c0,3.8,0.1,6.2,0.3,7.2c0.2,1,0.5,2,1,2.9h-4.3
					C154.4,33.9,154.1,32.9,154,31.8z M153.7,22.6c-1.5,0.6-3.7,1.1-6.7,1.5c-1.7,0.2-2.9,0.5-3.6,0.8c-0.7,0.3-1.2,0.7-1.6,1.3
					c-0.4,0.6-0.6,1.2-0.6,1.9c0,1.1,0.4,2,1.2,2.7c0.8,0.7,2,1.1,3.6,1.1c1.6,0,3-0.3,4.2-1c1.2-0.7,2.1-1.6,2.7-2.8
					c0.4-0.9,0.7-2.3,0.7-4.1V22.6z"/>
				<path d="M164.1,34.7V10.6h3.7v3.7c0.9-1.7,1.8-2.8,2.6-3.4c0.8-0.5,1.7-0.8,2.6-0.8c1.4,0,2.8,0.4,4.2,1.3l-1.4,3.8
					c-1-0.6-2-0.9-3-0.9c-0.9,0-1.7,0.3-2.4,0.8c-0.7,0.5-1.2,1.3-1.5,2.2c-0.5,1.5-0.7,3-0.7,4.8v12.6H164.1z"/>
				<g>
					<circle class="st0" cx="34.1" cy="32.4" r="2.3"/>
					<circle class="st0" cx="34.1" cy="12.3" r="2.3"/>
					<path class="st1" d="M31.8,29.9c-3.2-1-5.6-4-5.6-7.5c0-3.5,2.4-6.6,5.6-7.5c-0.7-0.6-1.1-1.5-1.1-2.5c0-0.6,0.2-1.2,0.5-1.7
						c0,0,0,0,0,0c-5.3,1.3-9.2,6.1-9.2,11.8c0,5.7,3.9,10.5,9.2,11.8c0,0,0,0,0,0c-0.3-0.5-0.5-1.1-0.5-1.7
						C30.7,31.4,31.1,30.5,31.8,29.9z"/>
					<path class="st1" d="M37,10.6c0.3,0.5,0.5,1.1,0.5,1.8c0,1-0.4,1.9-1.1,2.5c3.2,1,5.6,4,5.6,7.5c0,3.5-2.4,6.6-5.6,7.5
						c0.7,0.6,1.1,1.5,1.1,2.5c0,0.6-0.2,1.2-0.5,1.8c5.3-1.3,9.2-6.1,9.2-11.8C46.2,16.7,42.3,11.9,37,10.6z"/>
				</g>
			</g>
			<g>
				<rect x="177.2" y="5.3" class="st2" width="3.2" height="4.7"/>
			</g>
		</g>
		<g>
			
				<image style="overflow:visible;opacity:0.2;" width="291" height="152" xlink:href="866653C.png"  transform="matrix(0.24 0 0 0.24 188.2156 5.2923)">
			</image>
			<g>
				<g>
					<path class="st3" d="M210.3,30.9c0,0.2,0,0.4,0,0.5c0,0.1,0,0.3-0.1,0.4c0,0.1-0.1,0.2-0.1,0.3c0,0.1-0.1,0.2-0.3,0.3
						c-0.1,0.1-0.4,0.3-0.8,0.6c-0.4,0.2-0.9,0.5-1.4,0.7s-1.2,0.4-2,0.6c-0.7,0.2-1.6,0.2-2.4,0.2c-1.5,0-2.9-0.3-4.1-0.8
						c-1.2-0.5-2.3-1.3-3.1-2.2s-1.5-2.2-2-3.7c-0.5-1.5-0.7-3.1-0.7-5c0-1.9,0.3-3.7,0.8-5.2s1.2-2.8,2.1-3.9s2-1.9,3.2-2.4
						s2.7-0.8,4.2-0.8c0.7,0,1.3,0.1,2,0.2c0.6,0.1,1.2,0.3,1.8,0.5c0.5,0.2,1,0.4,1.4,0.7c0.4,0.3,0.7,0.5,0.9,0.6
						c0.2,0.2,0.3,0.3,0.3,0.4c0,0.1,0.1,0.2,0.1,0.3c0,0.1,0.1,0.3,0.1,0.4c0,0.2,0,0.3,0,0.6c0,0.2,0,0.4,0,0.6s-0.1,0.3-0.1,0.4
						s-0.1,0.2-0.2,0.3c-0.1,0.1-0.1,0.1-0.2,0.1c-0.2,0-0.4-0.1-0.7-0.4c-0.3-0.2-0.7-0.5-1.2-0.8s-1.1-0.5-1.7-0.8
						c-0.7-0.2-1.5-0.4-2.5-0.4c-1,0-2,0.2-2.8,0.6s-1.6,1-2.2,1.8c-0.6,0.8-1.1,1.8-1.4,3c-0.3,1.2-0.5,2.5-0.5,4
						c0,1.5,0.2,2.8,0.5,3.9c0.3,1.1,0.8,2.1,1.4,2.9c0.6,0.8,1.3,1.3,2.2,1.7c0.9,0.4,1.9,0.6,3,0.6c0.9,0,1.7-0.1,2.4-0.3
						c0.7-0.2,1.3-0.5,1.8-0.8c0.5-0.3,0.9-0.5,1.2-0.8c0.3-0.2,0.6-0.3,0.7-0.3c0.1,0,0.2,0,0.2,0.1c0.1,0,0.1,0.1,0.1,0.2
						c0,0.1,0.1,0.2,0.1,0.4C210.3,30.4,210.3,30.7,210.3,30.9z"/>
					<path class="st3" d="M232.1,33c0,0.2,0,0.4-0.1,0.6c-0.1,0.2-0.2,0.3-0.3,0.4c-0.1,0.1-0.3,0.2-0.4,0.2c-0.2,0-0.3,0.1-0.5,0.1
						h-1c-0.3,0-0.6,0-0.9-0.1c-0.2-0.1-0.5-0.2-0.7-0.4c-0.2-0.2-0.4-0.4-0.7-0.7c-0.2-0.3-0.4-0.7-0.7-1.2l-7.1-13.3
						c-0.4-0.7-0.8-1.4-1.1-2.2c-0.4-0.8-0.7-1.5-1.1-2.2h0c0,0.9,0,1.8,0.1,2.7c0,0.9,0,1.8,0,2.7v14.1c0,0.1,0,0.2-0.1,0.2
						c-0.1,0.1-0.1,0.1-0.3,0.2c-0.1,0-0.3,0.1-0.5,0.1c-0.2,0-0.4,0-0.8,0s-0.6,0-0.8,0c-0.2,0-0.4-0.1-0.5-0.1
						c-0.1,0-0.2-0.1-0.2-0.2c-0.1-0.1-0.1-0.2-0.1-0.2V12.2c0-0.5,0.1-0.8,0.4-1s0.6-0.3,0.9-0.3h1.5c0.4,0,0.7,0,0.9,0.1
						c0.2,0.1,0.5,0.2,0.7,0.3c0.2,0.1,0.4,0.3,0.6,0.6c0.2,0.2,0.4,0.6,0.6,0.9l5.5,10.3c0.3,0.6,0.7,1.2,1,1.8
						c0.3,0.6,0.6,1.2,0.9,1.8c0.3,0.6,0.6,1.1,0.9,1.7s0.6,1.1,0.8,1.7h0c0-1,0-1.9,0-3c0-1,0-2,0-3V11.4c0-0.1,0-0.2,0.1-0.2
						c0.1-0.1,0.1-0.1,0.3-0.2c0.1-0.1,0.3-0.1,0.5-0.1s0.5,0,0.8,0c0.3,0,0.5,0,0.7,0c0.2,0,0.4,0.1,0.5,0.1
						c0.1,0.1,0.2,0.1,0.2,0.2c0.1,0.1,0.1,0.2,0.1,0.2V33z"/>
					<path class="st3" d="M250.9,27.7c0,1.1-0.2,2.1-0.6,2.9c-0.4,0.9-1,1.6-1.7,2.2c-0.7,0.6-1.6,1-2.5,1.3s-2,0.5-3.1,0.5
						c-0.8,0-1.5-0.1-2.2-0.2s-1.3-0.3-1.8-0.5s-1-0.4-1.3-0.6c-0.4-0.2-0.6-0.4-0.7-0.5c-0.1-0.1-0.2-0.3-0.3-0.6
						c-0.1-0.2-0.1-0.5-0.1-0.9c0-0.3,0-0.5,0-0.7c0-0.2,0.1-0.3,0.1-0.4c0-0.1,0.1-0.2,0.2-0.2c0.1,0,0.2-0.1,0.3-0.1
						c0.2,0,0.4,0.1,0.7,0.3s0.7,0.4,1.2,0.7c0.5,0.2,1.1,0.5,1.7,0.7s1.5,0.3,2.4,0.3c0.7,0,1.3-0.1,1.9-0.3c0.6-0.2,1-0.4,1.4-0.8
						s0.7-0.7,0.9-1.2s0.3-1,0.3-1.6c0-0.7-0.2-1.2-0.5-1.7s-0.7-0.9-1.2-1.2c-0.5-0.4-1.1-0.7-1.7-1s-1.3-0.6-1.9-0.9
						c-0.7-0.3-1.3-0.6-1.9-1c-0.6-0.4-1.2-0.8-1.7-1.3c-0.5-0.5-0.9-1.1-1.2-1.8c-0.3-0.7-0.5-1.5-0.5-2.5c0-1,0.2-1.8,0.5-2.6
						c0.4-0.8,0.8-1.4,1.5-1.9c0.6-0.5,1.4-0.9,2.3-1.2c0.9-0.3,1.8-0.4,2.8-0.4c0.5,0,1,0,1.6,0.1c0.5,0.1,1,0.2,1.5,0.4
						c0.5,0.2,0.9,0.3,1.2,0.5c0.4,0.2,0.6,0.3,0.7,0.5c0.1,0.1,0.2,0.2,0.2,0.3c0,0.1,0.1,0.2,0.1,0.3s0,0.2,0.1,0.4
						c0,0.1,0,0.3,0,0.6c0,0.2,0,0.4,0,0.6c0,0.2,0,0.3-0.1,0.4s-0.1,0.2-0.2,0.3s-0.1,0.1-0.2,0.1c-0.1,0-0.3-0.1-0.6-0.3
						c-0.3-0.2-0.6-0.4-1-0.6c-0.4-0.2-0.9-0.4-1.5-0.6s-1.2-0.3-1.9-0.3c-0.7,0-1.2,0.1-1.7,0.3c-0.5,0.2-0.9,0.4-1.2,0.7
						c-0.3,0.3-0.5,0.6-0.7,1s-0.2,0.8-0.2,1.3c0,0.7,0.2,1.2,0.5,1.7c0.3,0.5,0.7,0.9,1.2,1.2s1.1,0.7,1.7,1c0.6,0.3,1.3,0.6,2,0.9
						c0.7,0.3,1.3,0.6,2,1c0.6,0.4,1.2,0.8,1.7,1.3c0.5,0.5,0.9,1.1,1.2,1.8C250.8,26,250.9,26.8,250.9,27.7z"/>
				</g>
			</g>
		</g>
	</g>
	<g>
		<path d="M187.1,5.3c0,2.5-1.9,4.4-4.5,4.4c-2.5,0-4.5-1.9-4.5-4.4c0-2.4,2-4.3,4.5-4.3C185.1,1,187.1,2.9,187.1,5.3z M179.2,5.3
			c0,1.9,1.4,3.5,3.4,3.5c1.9,0,3.3-1.5,3.3-3.4c0-1.9-1.4-3.5-3.3-3.5C180.7,1.9,179.2,3.4,179.2,5.3z M181.9,7.6h-1V3.3
			c0.4-0.1,1-0.1,1.7-0.1c0.8,0,1.2,0.1,1.5,0.3c0.2,0.2,0.4,0.5,0.4,1c0,0.5-0.4,0.8-0.9,1v0.1c0.4,0.2,0.7,0.5,0.8,1.1
			c0.1,0.7,0.2,0.9,0.3,1.1h-1.1c-0.1-0.2-0.2-0.6-0.3-1.1c-0.1-0.5-0.3-0.7-0.9-0.7h-0.5V7.6z M181.9,5.2h0.5c0.6,0,1-0.2,1-0.6
			c0-0.4-0.3-0.7-0.9-0.7c-0.3,0-0.5,0-0.6,0.1V5.2z"/>
	</g>
</g>
</svg>
