<?xml version="1.0" encoding="utf-8"?>
<!-- Generator: Adobe Illustrator 24.1.1, SVG Export Plug-In . SVG Version: 6.00 Build 0)  -->
<svg version="1.1" id="Layer_1" xmlns="http://www.w3.org/2000/svg" xmlns:xlink="http://www.w3.org/1999/xlink" x="0px" y="0px"
	 width="360.3px" height="89.1px" viewBox="0 0 360.3 89.1" style="enable-background:new 0 0 360.3 89.1;" xml:space="preserve">
<style type="text/css">
	.st0{fill:#010101;}
	.st1{fill:#F26836;}
	.st2{fill:#4E94D0;}
	.st3{fill:#144982;}
</style>
<g>
	<g>
		<g>
			<g>
				<g>
					<g>
						<path class="st0" d="M5.6,34.7V1.4h4.1v19l9.7-9.8h5.3l-9.2,9l10.2,15.2h-5l-8-12.3l-2.9,2.8v9.6H5.6z"/>
						<path class="st0" d="M54.8,34.7V10.6h3.7V14c1.8-2.7,4.3-4,7.7-4c1.5,0,2.8,0.3,4,0.8c1.2,0.5,2.1,1.2,2.7,2.1
							c0.6,0.8,1,1.9,1.3,3c0.2,0.8,0.2,2.1,0.2,4v14.8h-4.1V20c0-1.7-0.2-2.9-0.5-3.7c-0.3-0.8-0.9-1.5-1.7-2
							c-0.8-0.5-1.8-0.7-2.9-0.7c-1.7,0-3.2,0.6-4.5,1.7c-1.3,1.1-1.9,3.2-1.9,6.3v13.2H54.8z"/>
						<path class="st0" d="M97.2,26.9l4.2,0.5c-0.7,2.5-1.9,4.4-3.7,5.7c-1.8,1.4-4.1,2-6.9,2c-3.5,0-6.3-1.1-8.4-3.3
							c-2.1-2.2-3.1-5.2-3.1-9.1c0-4.1,1-7.2,3.1-9.5c2.1-2.2,4.8-3.4,8.1-3.4c3.2,0,5.9,1.1,7.9,3.3c2,2.2,3.1,5.3,3.1,9.3
							c0,0.2,0,0.6,0,1.1h-18c0.2,2.7,0.9,4.7,2.2,6.1c1.3,1.4,3,2.1,5,2.1c1.5,0,2.8-0.4,3.8-1.2C95.7,29.9,96.6,28.7,97.2,26.9z
							 M83.7,20.3h13.5c-0.2-2-0.7-3.6-1.5-4.6c-1.3-1.6-3-2.4-5.1-2.4c-1.9,0-3.5,0.6-4.7,1.9C84.6,16.5,83.9,18.2,83.7,20.3z"/>
						<path class="st0" d="M122.3,25.9l4,0.5c-0.4,2.8-1.6,4.9-3.4,6.5c-1.8,1.6-4,2.4-6.7,2.4c-3.3,0-6-1.1-8-3.2
							c-2-2.2-3-5.3-3-9.3c0-2.6,0.4-4.9,1.3-6.8c0.9-2,2.2-3.4,3.9-4.4c1.8-1,3.7-1.5,5.8-1.5c2.6,0,4.8,0.7,6.4,2
							c1.7,1.3,2.7,3.2,3.2,5.6l-4,0.6c-0.4-1.6-1-2.8-2-3.7c-1-0.8-2.1-1.2-3.5-1.2c-2.1,0-3.7,0.7-5,2.2c-1.3,1.5-1.9,3.8-1.9,7
							c0,3.2,0.6,5.6,1.9,7.1c1.2,1.5,2.9,2.2,4.9,2.2c1.6,0,2.9-0.5,4-1.5C121.3,29.4,122,27.9,122.3,25.9z"/>
						<path class="st0" d="M138.7,31l0.6,3.6c-1.2,0.2-2.2,0.4-3.1,0.4c-1.5,0-2.6-0.2-3.5-0.7s-1.4-1.1-1.7-1.9
							c-0.3-0.8-0.5-2.4-0.5-4.8V13.8h-3v-3.2h3v-6l4.1-2.5v8.4h4.1v3.2h-4.1v14.1c0,1.2,0.1,1.9,0.2,2.2c0.1,0.3,0.4,0.6,0.7,0.8
							c0.3,0.2,0.8,0.3,1.4,0.3C137.4,31.2,138,31.2,138.7,31z"/>
						<path class="st0" d="M158.5,31.7c-1.5,1.3-3,2.2-4.4,2.7c-1.4,0.5-2.9,0.8-4.5,0.8c-2.7,0-4.7-0.6-6.1-1.9
							c-1.4-1.3-2.1-3-2.1-5c0-1.2,0.3-2.3,0.8-3.2c0.5-1,1.2-1.8,2.1-2.4c0.9-0.6,1.9-1,2.9-1.3c0.8-0.2,2-0.4,3.6-0.6
							c3.3-0.4,5.7-0.9,7.3-1.4c0-0.6,0-0.9,0-1.1c0-1.7-0.4-2.8-1.2-3.5c-1-0.9-2.6-1.4-4.7-1.4c-1.9,0-3.3,0.3-4.3,1
							c-0.9,0.7-1.6,1.9-2,3.6l-4-0.5c0.4-1.7,1-3.1,1.8-4.1c0.8-1.1,2-1.9,3.6-2.4c1.6-0.6,3.4-0.9,5.5-0.9c2.1,0,3.7,0.2,5,0.7
							c1.3,0.5,2.2,1.1,2.8,1.8c0.6,0.7,1,1.7,1.3,2.8c0.1,0.7,0.2,2,0.2,3.8v5.5c0,3.8,0.1,6.2,0.3,7.2c0.2,1,0.5,2,1,2.9h-4.3
							C158.9,33.9,158.6,32.9,158.5,31.7z M158.1,22.6c-1.5,0.6-3.7,1.1-6.7,1.5c-1.7,0.2-2.9,0.5-3.6,0.8c-0.7,0.3-1.2,0.7-1.6,1.3
							c-0.4,0.6-0.6,1.2-0.6,1.9c0,1.1,0.4,2,1.2,2.7c0.8,0.7,2,1.1,3.6,1.1c1.6,0,3-0.3,4.2-1c1.2-0.7,2.1-1.6,2.7-2.8
							c0.4-0.9,0.7-2.3,0.7-4.1V22.6z"/>
						<path class="st0" d="M168.6,34.7V10.6h3.7v3.7c0.9-1.7,1.8-2.8,2.6-3.4c0.8-0.5,1.7-0.8,2.6-0.8c1.4,0,2.8,0.4,4.2,1.3
							l-1.4,3.8c-1-0.6-2-0.9-3-0.9c-0.9,0-1.7,0.3-2.4,0.8c-0.7,0.5-1.2,1.3-1.5,2.2c-0.5,1.5-0.7,3-0.7,4.8v12.6H168.6z"/>
						<g>
							<circle class="st1" cx="38.7" cy="32.4" r="2.3"/>
							<circle class="st1" cx="38.7" cy="12.3" r="2.3"/>
							<path class="st2" d="M36.4,29.9c-3.2-1-5.6-4-5.6-7.5c0-3.5,2.4-6.5,5.6-7.5c-0.7-0.6-1.1-1.5-1.1-2.5c0-0.6,0.2-1.2,0.5-1.7
								c0,0,0,0,0,0c-5.3,1.3-9.2,6.1-9.2,11.8c0,5.7,3.9,10.5,9.2,11.8c0,0,0,0,0,0c-0.3-0.5-0.5-1.1-0.5-1.7
								C35.3,31.4,35.7,30.5,36.4,29.9z"/>
							<path class="st2" d="M41.6,10.6c0.3,0.5,0.5,1.1,0.5,1.8c0,1-0.4,1.9-1.1,2.5c3.2,1,5.6,4,5.6,7.5c0,3.5-2.4,6.5-5.6,7.5
								c0.7,0.6,1.1,1.5,1.1,2.5c0,0.6-0.2,1.2-0.5,1.8c5.3-1.3,9.2-6.1,9.2-11.8C50.8,16.7,46.9,11.9,41.6,10.6z"/>
						</g>
					</g>
				</g>
			</g>
			<g>
				<path class="st0" d="M187.4,6.2c0,1.7-1.3,3-3.1,3c-1.7,0-3.1-1.3-3.1-3c0-1.7,1.4-3,3.1-3C186,3.2,187.4,4.5,187.4,6.2z
					 M182,6.2c0,1.3,1,2.4,2.3,2.4c1.3,0,2.3-1.1,2.3-2.4c0-1.3-1-2.4-2.3-2.4C182.9,3.8,182,4.9,182,6.2z M183.8,7.8h-0.7v-3
					c0.3-0.1,0.7-0.1,1.2-0.1c0.6,0,0.8,0.1,1,0.2c0.2,0.1,0.3,0.4,0.3,0.7c0,0.3-0.3,0.6-0.6,0.7v0c0.3,0.1,0.5,0.3,0.6,0.7
					c0.1,0.5,0.1,0.6,0.2,0.8H185c-0.1-0.1-0.1-0.4-0.2-0.7c-0.1-0.3-0.2-0.5-0.6-0.5h-0.3V7.8z M183.8,6.1h0.3
					c0.4,0,0.7-0.1,0.7-0.4c0-0.3-0.2-0.5-0.6-0.5c-0.2,0-0.3,0-0.4,0V6.1z"/>
			</g>
		</g>
	</g>
	<g>
		<g>
			<path class="st3" d="M24.1,52.5h4.5l-9.2,26.3h-4.5L5.6,52.5h4.4l5.5,16.4c0.3,0.8,0.6,1.8,0.9,3c0.3,1.2,0.5,2.1,0.6,2.7
				c0.2-0.9,0.4-2,0.7-3.2c0.3-1.2,0.6-2.1,0.8-2.7L24.1,52.5z"/>
			<path class="st3" d="M31.3,53.7c0-0.8,0.2-1.3,0.6-1.7c0.4-0.4,1-0.6,1.8-0.6c0.7,0,1.3,0.2,1.7,0.6c0.4,0.4,0.6,1,0.6,1.7
				c0,0.7-0.2,1.3-0.6,1.7c-0.4,0.4-1,0.6-1.7,0.6c-0.8,0-1.4-0.2-1.8-0.6C31.5,55,31.3,54.4,31.3,53.7z M35.8,78.8h-4.2V58.9h4.2
				V78.8z"/>
			<path class="st3" d="M51.9,58.6c0.9,0,1.6,0.1,2.1,0.2l-0.4,3.9c-0.6-0.1-1.2-0.2-1.9-0.2c-1.7,0-3.1,0.6-4.1,1.7
				c-1,1.1-1.6,2.5-1.6,4.3v10.4h-4.2V58.9h3.3l0.6,3.5h0.2c0.7-1.2,1.5-2.1,2.6-2.8C49.6,58.9,50.7,58.6,51.9,58.6z"/>
			<path class="st3" d="M65.2,75.8c1,0,2.1-0.2,3.1-0.5v3.2c-0.5,0.2-1.1,0.4-1.8,0.5s-1.5,0.2-2.3,0.2c-4,0-6-2.1-6-6.3V62.1h-2.7
				v-1.9l2.9-1.5l1.4-4.2h2.6v4.4h5.7v3.2h-5.7v10.7c0,1,0.3,1.8,0.8,2.3S64.3,75.8,65.2,75.8z"/>
			<path class="st3" d="M86.3,78.8l-0.6-2.6h-0.2c-0.6,0.9-1.4,1.6-2.5,2.2c-1.1,0.5-2.3,0.8-3.7,0.8c-2.4,0-4.2-0.6-5.4-1.8
				c-1.2-1.2-1.8-3-1.8-5.5v-13h4.3v12.3c0,1.5,0.3,2.7,0.9,3.4c0.6,0.8,1.6,1.1,2.9,1.1c1.8,0,3.1-0.5,3.9-1.6s1.3-2.8,1.3-5.3
				v-9.9h4.2v19.9H86.3z"/>
			<path class="st3" d="M108.1,78.8l-0.8-2.8h-0.1c-1,1.2-1.9,2-2.9,2.5c-1,0.4-2.2,0.7-3.7,0.7c-2,0-3.5-0.5-4.6-1.6
				c-1.1-1.1-1.6-2.5-1.6-4.5c0-2.1,0.8-3.6,2.3-4.6c1.5-1,3.8-1.6,7-1.7l3.4-0.1v-1.1c0-1.3-0.3-2.2-0.9-2.9s-1.5-0.9-2.8-0.9
				c-1,0-2,0.2-2.9,0.4c-0.9,0.3-1.8,0.7-2.7,1.1l-1.4-3c1.1-0.6,2.3-1,3.5-1.3c1.3-0.3,2.5-0.4,3.6-0.4c2.5,0,4.4,0.6,5.7,1.7
				s1.9,2.8,1.9,5.2v13.4H108.1z M101.8,76c1.5,0,2.8-0.4,3.7-1.3c0.9-0.9,1.4-2.1,1.4-3.6v-1.7l-2.6,0.1c-2,0.1-3.4,0.4-4.3,1
				c-0.9,0.6-1.4,1.5-1.4,2.7c0,0.9,0.3,1.6,0.8,2.1C99.9,75.7,100.7,76,101.8,76z"/>
			<path class="st3" d="M121.2,78.8H117v-28h4.2V78.8z"/>
			<path class="st3" d="M152.2,78.8h-14.9V52.5h14.9v3.6h-10.6v7.2h9.9v3.6h-9.9v8.3h10.6V78.8z"/>
			<path class="st3" d="M174.9,78.8h-4.2V66.6c0-1.5-0.3-2.7-0.9-3.4c-0.6-0.8-1.6-1.1-2.9-1.1c-1.8,0-3.1,0.5-3.9,1.6
				c-0.8,1.1-1.2,2.8-1.2,5.3v9.9h-4.2V58.9h3.3l0.6,2.6h0.2c0.6-0.9,1.5-1.7,2.6-2.2c1.1-0.5,2.3-0.8,3.7-0.8
				c4.8,0,7.2,2.4,7.2,7.3V78.8z"/>
			<path class="st3" d="M197.6,58.9v2.3l-3.4,0.6c0.3,0.4,0.6,0.9,0.8,1.5c0.2,0.6,0.3,1.3,0.3,1.9c0,2.1-0.7,3.7-2.1,4.8
				s-3.4,1.8-5.8,1.8c-0.6,0-1.2,0-1.7-0.1c-0.9,0.6-1.4,1.2-1.4,2c0,0.5,0.2,0.8,0.6,1c0.4,0.2,1.2,0.3,2.3,0.3h3.5
				c2.2,0,3.9,0.5,5,1.4s1.7,2.3,1.7,4c0,2.3-0.9,4-2.8,5.2c-1.9,1.2-4.5,1.8-8.1,1.8c-2.7,0-4.8-0.5-6.2-1.4
				c-1.4-1-2.1-2.3-2.1-4.1c0-1.2,0.4-2.3,1.2-3.1s1.9-1.4,3.2-1.7c-0.6-0.2-1-0.6-1.4-1.2c-0.4-0.5-0.5-1.1-0.5-1.7
				c0-0.7,0.2-1.4,0.6-1.9c0.4-0.5,1-1,1.9-1.5c-1-0.4-1.9-1.2-2.5-2.2s-1-2.2-1-3.5c0-2.2,0.7-3.8,2-5s3.3-1.8,5.8-1.8
				c0.6,0,1.2,0,1.8,0.1c0.6,0.1,1.1,0.2,1.4,0.2H197.6z M181.9,81.9c0,0.9,0.4,1.6,1.2,2.1c0.8,0.5,2,0.7,3.5,0.7
				c2.3,0,4-0.3,5.1-1c1.1-0.7,1.7-1.5,1.7-2.6c0-0.9-0.3-1.5-0.9-1.8c-0.6-0.4-1.8-0.5-3.4-0.5h-3.2c-1.2,0-2.2,0.3-2.9,0.9
				S181.9,81,181.9,81.9z M183.8,65.4c0,1.2,0.3,2.2,1,2.9s1.6,1,2.8,1c2.4,0,3.7-1.3,3.7-3.9c0-1.3-0.3-2.3-0.9-3
				c-0.6-0.7-1.5-1.1-2.8-1.1c-1.2,0-2.2,0.3-2.8,1C184.1,63,183.8,64.1,183.8,65.4z"/>
			<path class="st3" d="M213.7,78.8l-0.8-2.8h-0.1c-1,1.2-1.9,2-2.9,2.5c-1,0.4-2.2,0.7-3.7,0.7c-2,0-3.5-0.5-4.6-1.6
				c-1.1-1.1-1.6-2.5-1.6-4.5c0-2.1,0.8-3.6,2.3-4.6c1.5-1,3.8-1.6,7-1.7l3.4-0.1v-1.1c0-1.3-0.3-2.2-0.9-2.9s-1.5-0.9-2.8-0.9
				c-1,0-2,0.2-2.9,0.4c-0.9,0.3-1.8,0.7-2.7,1.1l-1.4-3c1.1-0.6,2.3-1,3.5-1.3c1.3-0.3,2.5-0.4,3.6-0.4c2.5,0,4.4,0.6,5.7,1.7
				s1.9,2.8,1.9,5.2v13.4H213.7z M207.4,76c1.5,0,2.8-0.4,3.7-1.3c0.9-0.9,1.4-2.1,1.4-3.6v-1.7l-2.6,0.1c-2,0.1-3.4,0.4-4.3,1
				c-0.9,0.6-1.4,1.5-1.4,2.7c0,0.9,0.3,1.6,0.8,2.1C205.6,75.7,206.4,76,207.4,76z"/>
			<path class="st3" d="M239.4,58.9v2.3l-3.4,0.6c0.3,0.4,0.6,0.9,0.8,1.5c0.2,0.6,0.3,1.3,0.3,1.9c0,2.1-0.7,3.7-2.1,4.8
				s-3.4,1.8-5.8,1.8c-0.6,0-1.2,0-1.7-0.1c-0.9,0.6-1.4,1.2-1.4,2c0,0.5,0.2,0.8,0.6,1c0.4,0.2,1.2,0.3,2.3,0.3h3.5
				c2.2,0,3.9,0.5,5,1.4s1.7,2.3,1.7,4c0,2.3-0.9,4-2.8,5.2c-1.9,1.2-4.5,1.8-8.1,1.8c-2.7,0-4.8-0.5-6.2-1.4
				c-1.4-1-2.1-2.3-2.1-4.1c0-1.2,0.4-2.3,1.2-3.1s1.9-1.4,3.2-1.7c-0.6-0.2-1-0.6-1.4-1.2c-0.4-0.5-0.5-1.1-0.5-1.7
				c0-0.7,0.2-1.4,0.6-1.9c0.4-0.5,1-1,1.9-1.5c-1-0.4-1.9-1.2-2.5-2.2s-1-2.2-1-3.5c0-2.2,0.7-3.8,2-5s3.3-1.8,5.8-1.8
				c0.6,0,1.2,0,1.8,0.1c0.6,0.1,1.1,0.2,1.4,0.2H239.4z M223.8,81.9c0,0.9,0.4,1.6,1.2,2.1c0.8,0.5,2,0.7,3.5,0.7
				c2.3,0,4-0.3,5.1-1c1.1-0.7,1.7-1.5,1.7-2.6c0-0.9-0.3-1.5-0.9-1.8c-0.6-0.4-1.8-0.5-3.4-0.5h-3.2c-1.2,0-2.2,0.3-2.9,0.9
				S223.8,81,223.8,81.9z M225.6,65.4c0,1.2,0.3,2.2,1,2.9s1.6,1,2.8,1c2.4,0,3.7-1.3,3.7-3.9c0-1.3-0.3-2.3-0.9-3
				c-0.6-0.7-1.5-1.1-2.8-1.1c-1.2,0-2.2,0.3-2.8,1C225.9,63,225.6,64.1,225.6,65.4z"/>
			<path class="st3" d="M251.8,79.2c-3.1,0-5.5-0.9-7.3-2.7s-2.6-4.3-2.6-7.5c0-3.3,0.8-5.8,2.4-7.7c1.6-1.9,3.8-2.8,6.7-2.8
				c2.6,0,4.7,0.8,6.2,2.4c1.5,1.6,2.3,3.8,2.3,6.6v2.3h-13.3c0.1,1.9,0.6,3.4,1.6,4.5c1,1,2.4,1.6,4.2,1.6c1.2,0,2.3-0.1,3.3-0.3
				s2.1-0.6,3.3-1.1v3.4c-1,0.5-2.1,0.8-3.1,1C254.4,79.1,253.2,79.2,251.8,79.2z M251,61.8c-1.3,0-2.4,0.4-3.2,1.3
				s-1.3,2.1-1.4,3.7h9c0-1.6-0.4-2.9-1.2-3.7S252.4,61.8,251,61.8z"/>
			<path class="st3" d="M281.1,78.8h-4.2V66.6c0-1.5-0.3-2.7-0.9-3.4c-0.6-0.7-1.5-1.1-2.7-1.1c-1.6,0-2.8,0.5-3.6,1.6
				c-0.8,1.1-1.1,2.8-1.1,5.3v9.9h-4.2V58.9h3.3l0.6,2.6h0.2c0.6-0.9,1.4-1.7,2.4-2.2c1-0.5,2.2-0.8,3.5-0.8c3.1,0,5.1,1,6.1,3.1
				h0.3c0.6-1,1.4-1.8,2.5-2.3c1.1-0.6,2.3-0.8,3.7-0.8c2.4,0,4.1,0.6,5.2,1.8c1.1,1.2,1.6,3,1.6,5.5v13h-4.2V66.6
				c0-1.5-0.3-2.7-0.9-3.4c-0.6-0.7-1.5-1.1-2.7-1.1c-1.6,0-2.8,0.5-3.6,1.5c-0.8,1-1.1,2.6-1.1,4.7V78.8z"/>
			<path class="st3" d="M308.3,79.2c-3.1,0-5.5-0.9-7.3-2.7s-2.6-4.3-2.6-7.5c0-3.3,0.8-5.8,2.4-7.7c1.6-1.9,3.8-2.8,6.7-2.8
				c2.6,0,4.7,0.8,6.2,2.4c1.5,1.6,2.3,3.8,2.3,6.6v2.3h-13.3c0.1,1.9,0.6,3.4,1.6,4.5c1,1,2.4,1.6,4.2,1.6c1.2,0,2.3-0.1,3.3-0.3
				s2.1-0.6,3.3-1.1v3.4c-1,0.5-2.1,0.8-3.1,1C310.8,79.1,309.6,79.2,308.3,79.2z M307.5,61.8c-1.3,0-2.4,0.4-3.2,1.3
				s-1.3,2.1-1.4,3.7h9c0-1.6-0.4-2.9-1.2-3.7S308.8,61.8,307.5,61.8z"/>
			<path class="st3" d="M338.3,78.8h-4.2V66.6c0-1.5-0.3-2.7-0.9-3.4c-0.6-0.8-1.6-1.1-2.9-1.1c-1.8,0-3.1,0.5-3.9,1.6
				c-0.8,1.1-1.2,2.8-1.2,5.3v9.9h-4.2V58.9h3.3l0.6,2.6h0.2c0.6-0.9,1.5-1.7,2.6-2.2s2.3-0.8,3.7-0.8c4.8,0,7.2,2.4,7.2,7.3V78.8z"
				/>
			<path class="st3" d="M351.6,75.8c1,0,2.1-0.2,3.1-0.5v3.2c-0.5,0.2-1.1,0.4-1.8,0.5c-0.7,0.1-1.5,0.2-2.3,0.2c-4,0-6-2.1-6-6.3
				V62.1h-2.7v-1.9l2.9-1.5l1.4-4.2h2.6v4.4h5.7v3.2h-5.7v10.7c0,1,0.3,1.8,0.8,2.3S350.8,75.8,351.6,75.8z"/>
		</g>
	</g>
</g>
</svg>
