<svg width="70" height="70" viewBox="0 0 70 70" fill="none" xmlns="http://www.w3.org/2000/svg">
<path fill-rule="evenodd" clip-rule="evenodd" d="M55.3931 20.9067C56.1402 20.7551 56.8561 20.5193 57.5301 20.2096C59.061 23.3975 59.9174 26.9622 59.9174 30.7243C59.9174 31.1762 59.905 31.6252 59.8806 32.0711C59.2223 31.4959 58.4846 31.0072 57.6857 30.6231C57.6701 27.1388 56.8476 23.8425 55.3931 20.9067ZM34.9997 6.13867C38.3085 6.13867 41.4667 6.77502 44.3555 7.93044C44.0813 8.61073 43.8835 9.32917 43.7726 10.0755C41.0739 8.9579 38.1099 8.34037 34.9997 8.34037C32.6607 8.34037 30.4043 8.68964 28.2813 9.3382C28.1305 8.60815 27.9043 7.90516 27.6111 7.2375C29.9457 6.52332 32.4272 6.13867 34.9997 6.13867ZM14.2619 21.6348C13.5477 21.4018 12.8665 21.0975 12.2268 20.7304C10.8482 23.7839 10.082 27.1658 10.082 30.7243C10.082 31.517 10.1201 32.3009 10.1944 33.0744C10.839 32.5225 11.5577 32.0526 12.3338 31.6813C12.3203 31.3639 12.3135 31.0449 12.3135 30.7243C12.3135 27.4881 13.0095 24.4124 14.2619 21.6348ZM27.7345 54.2484C24.5299 53.2862 21.5991 51.7039 19.0856 49.6433C19.9238 49.4242 20.7177 49.0978 21.4513 48.6798C23.0168 49.8316 24.738 50.7888 26.5781 51.5151C26.8118 52.4972 27.207 53.4179 27.7345 54.2484ZM43.6194 53.7991C46.7194 52.6714 49.5296 50.9529 51.9097 48.782C51.0219 48.6458 50.1737 48.3915 49.3822 48.0358C47.9321 49.21 46.3319 50.2103 44.6141 51.0045C44.4377 52.0013 44.0965 52.9423 43.6194 53.7991Z" fill="#FA7A4A"/>
<path fill-rule="evenodd" clip-rule="evenodd" d="M41.0923 48.1356C41.0923 49.6349 40.4507 51.0728 39.3086 52.133C38.1665 53.1932 36.6175 53.7888 35.0023 53.7888C33.3872 53.7888 31.8382 53.1932 30.6961 52.133C29.554 51.0728 28.9124 49.6349 28.9124 48.1356C28.9124 46.6363 29.554 45.1984 30.6961 44.1382C31.8382 43.078 33.3872 42.4824 35.0023 42.4824C36.6175 42.4824 38.1665 43.078 39.3086 44.1382C40.4507 45.1984 41.0923 46.6363 41.0923 48.1356ZM35.0002 56.8418C32.668 56.8422 30.4113 57.6092 28.6303 59.007C26.8492 60.4047 25.659 62.3427 25.2706 64.4774C25.1227 65.3089 25.8748 65.9991 26.7831 65.9991H43.2216C44.1299 65.9991 44.8819 65.3089 44.7341 64.4774C44.3456 62.3421 43.1547 60.4035 41.3728 59.0057C39.5909 57.6079 37.3332 56.8413 35.0002 56.8418Z" fill="#FA7A4A"/>
<path d="M24.1673 40.3439C24.1673 44.4764 20.772 47.8265 16.5836 47.8265C12.3953 47.8265 9 44.4764 9 40.3439C9 36.2114 12.3953 32.8613 16.5836 32.8613C20.772 32.8613 24.1673 36.2114 24.1673 40.3439Z" fill="#FA7A4A"/>
<path d="M25.2493 11.4826C25.2493 15.6151 21.854 18.9651 17.6657 18.9651C13.4773 18.9651 10.082 15.6151 10.082 11.4826C10.082 7.35006 13.4773 4 17.6657 4C21.854 4 25.2493 7.35006 25.2493 11.4826Z" fill="#FA7A4A"/>
<path d="M60.9993 11.4826C60.9993 15.6151 57.604 18.9651 53.4157 18.9651C49.2273 18.9651 45.832 15.6151 45.832 11.4826C45.832 7.35006 49.2273 4 53.4157 4C57.604 4 60.9993 7.35006 60.9993 11.4826Z" fill="#FA7A4A"/>
<path d="M60.9993 39.2755C60.9993 43.408 57.604 46.7581 53.4157 46.7581C49.2273 46.7581 45.832 43.408 45.832 39.2755C45.832 35.143 49.2273 31.793 53.4157 31.793C57.604 31.793 60.9993 35.143 60.9993 39.2755Z" fill="#FA7A4A"/>
<path d="M40.4197 18.9638C40.4197 21.9156 37.9945 24.3085 35.0028 24.3085C32.0112 24.3085 29.5859 21.9156 29.5859 18.9638C29.5859 16.012 32.0112 13.6191 35.0028 13.6191C37.9945 13.6191 40.4197 16.012 40.4197 18.9638Z" fill="#FA7A4A"/>
<path d="M48.7478 29.1396C48.7478 32.0914 46.3226 34.4843 43.3309 34.4843C40.3393 34.4843 37.9141 32.0914 37.9141 29.1396C37.9141 26.1878 40.3393 23.7949 43.3309 23.7949C46.3226 23.7949 48.7478 26.1878 48.7478 29.1396Z" fill="#FA7A4A"/>
<path d="M31.2635 29.1396C31.2635 32.0914 28.8382 34.4843 25.8466 34.4843C22.8549 34.4843 20.4297 32.0914 20.4297 29.1396C20.4297 26.1878 22.8549 23.7949 25.8466 23.7949C28.8382 23.7949 31.2635 26.1878 31.2635 29.1396Z" fill="#FA7A4A"/>
<path fill-rule="evenodd" clip-rule="evenodd" d="M18.6122 38.1241C18.6122 38.6693 18.3983 39.1921 18.0176 39.5777C17.6369 39.9632 17.1206 40.1798 16.5822 40.1798C16.0438 40.1798 15.5274 39.9632 15.1467 39.5777C14.766 39.1921 14.5522 38.6693 14.5522 38.1241C14.5522 37.5789 14.766 37.056 15.1467 36.6705C15.5274 36.2849 16.0438 36.0684 16.5822 36.0684C17.1206 36.0684 17.6369 36.2849 18.0176 36.6705C18.3983 37.056 18.6122 37.5789 18.6122 38.1241ZM16.5815 41.29C15.8041 41.2901 15.0518 41.569 14.4581 42.0773C13.8645 42.5855 13.4677 43.2903 13.3383 44.0665C13.289 44.3689 13.5396 44.6199 13.8424 44.6199H19.3219C19.6247 44.6199 19.8754 44.3689 19.8261 44.0665C19.6966 43.29 19.2996 42.5851 18.7057 42.0768C18.1117 41.5685 17.3591 41.2898 16.5815 41.29Z" fill="white"/>
<path fill-rule="evenodd" clip-rule="evenodd" d="M19.6981 9.26273C19.6981 9.80794 19.4842 10.3308 19.1035 10.7163C18.7228 11.1018 18.2065 11.3184 17.6681 11.3184C17.1297 11.3184 16.6134 11.1018 16.2327 10.7163C15.852 10.3308 15.6381 9.80794 15.6381 9.26273C15.6381 8.71753 15.852 8.19465 16.2327 7.80913C16.6134 7.42361 17.1297 7.20703 17.6681 7.20703C18.2065 7.20703 18.7228 7.42361 19.1035 7.80913C19.4842 8.19465 19.6981 8.71753 19.6981 9.26273ZM17.6674 12.4286C16.89 12.4288 16.1377 12.7077 15.5441 13.216C14.9504 13.7242 14.5536 14.429 14.4242 15.2052C14.3749 15.5076 14.6256 15.7585 14.9283 15.7585H20.4079C20.7106 15.7585 20.9613 15.5076 20.912 15.2052C20.7825 14.4287 20.3856 13.7238 19.7916 13.2155C19.1976 12.7072 18.445 12.4284 17.6674 12.4286Z" fill="white"/>
<path fill-rule="evenodd" clip-rule="evenodd" d="M55.4501 9.26273C55.4501 9.80794 55.2362 10.3308 54.8555 10.7163C54.4748 11.1018 53.9584 11.3184 53.4201 11.3184C52.8817 11.3184 52.3653 11.1018 51.9846 10.7163C51.6039 10.3308 51.3901 9.80794 51.3901 9.26273C51.3901 8.71753 51.6039 8.19465 51.9846 7.80913C52.3653 7.42361 52.8817 7.20703 53.4201 7.20703C53.9584 7.20703 54.4748 7.42361 54.8555 7.80913C55.2362 8.19465 55.4501 8.71753 55.4501 9.26273ZM53.4193 12.4286C52.6419 12.4288 51.8897 12.7077 51.296 13.216C50.7023 13.7242 50.3056 14.429 50.1761 15.2052C50.1269 15.5076 50.3775 15.7585 50.6803 15.7585H56.1598C56.4626 15.7585 56.7133 15.5076 56.664 15.2052C56.5345 14.4287 56.1375 13.7238 55.5435 13.2155C54.9496 12.7072 54.197 12.4284 53.4193 12.4286Z" fill="white"/>
<path fill-rule="evenodd" clip-rule="evenodd" d="M55.4501 37.0557C55.4501 37.6009 55.2362 38.1238 54.8555 38.5093C54.4748 38.8948 53.9584 39.1114 53.4201 39.1114C52.8817 39.1114 52.3653 38.8948 51.9846 38.5093C51.6039 38.1238 51.3901 37.6009 51.3901 37.0557C51.3901 36.5105 51.6039 35.9876 51.9846 35.6021C52.3653 35.2166 52.8817 35 53.4201 35C53.9584 35 54.4748 35.2166 54.8555 35.6021C55.2362 35.9876 55.4501 36.5105 55.4501 37.0557ZM53.4193 40.2216C52.6419 40.2217 51.8897 40.5007 51.296 41.0089C50.7023 41.5172 50.3056 42.2219 50.1761 42.9982C50.1269 43.3005 50.3775 43.5515 50.6803 43.5515H56.1598C56.4626 43.5515 56.7133 43.3005 56.664 42.9982C56.5345 42.2217 56.1375 41.5168 55.5435 41.0085C54.9496 40.5002 54.197 40.2214 53.4193 40.2216Z" fill="white"/>
<path d="M26.5582 28.668L28.6893 25.9316H27.7381L26.1115 28.0215L24.6685 25.9316H22.5977L25.0139 29.4303L22.7431 32.3453H23.6947L25.4606 30.0781L27.0271 32.3453H29.0979L26.5582 28.668ZM25.8215 29.614L25.3742 28.9666L23.6377 26.4534H24.3527L25.7543 28.4791L26.201 29.1269L28.0638 31.8235H27.3487L25.8215 29.614Z" fill="white"/>
<path d="M41.9691 25.9316H44.6992C45.7392 25.9316 46.5842 26.7654 46.5842 27.7916V30.4853C46.5842 30.9786 46.3856 31.4517 46.0321 31.8005C45.6786 32.1493 45.1991 32.3453 44.6992 32.3453H41.9691C40.929 32.3453 40.084 31.5115 40.084 30.4853V27.7916C40.084 27.2983 40.2826 26.8252 40.6361 26.4764C40.9896 26.1276 41.4691 25.9316 41.9691 25.9316ZM41.9041 26.573C41.5937 26.573 41.2961 26.6946 41.0767 26.9111C40.8573 27.1276 40.734 27.4213 40.734 27.7275V30.5495C40.734 31.1876 41.2573 31.7039 41.9041 31.7039H44.7642C45.0745 31.7039 45.3721 31.5823 45.5915 31.3658C45.8109 31.1493 45.9342 30.8556 45.9342 30.5495V27.7275C45.9342 27.0893 45.411 26.573 44.7642 26.573H41.9041ZM45.0404 27.054C45.1482 27.054 45.2515 27.0963 45.3277 27.1714C45.4039 27.2466 45.4467 27.3486 45.4467 27.4549C45.4467 27.5612 45.4039 27.6631 45.3277 27.7383C45.2515 27.8135 45.1482 27.8557 45.0404 27.8557C44.9327 27.8557 44.8294 27.8135 44.7532 27.7383C44.677 27.6631 44.6342 27.5612 44.6342 27.4549C44.6342 27.3486 44.677 27.2466 44.7532 27.1714C44.8294 27.0963 44.9327 27.054 45.0404 27.054ZM43.3341 27.535C43.7651 27.535 44.1785 27.704 44.4832 28.0047C44.788 28.3054 44.9592 28.7132 44.9592 29.1385C44.9592 29.5637 44.788 29.9715 44.4832 30.2722C44.1785 30.5729 43.7651 30.7419 43.3341 30.7419C42.9031 30.7419 42.4898 30.5729 42.185 30.2722C41.8803 29.9715 41.7091 29.5637 41.7091 29.1385C41.7091 28.7132 41.8803 28.3054 42.185 28.0047C42.4898 27.704 42.9031 27.535 43.3341 27.535ZM43.3341 28.1764C43.0755 28.1764 42.8275 28.2778 42.6447 28.4582C42.4618 28.6386 42.3591 28.8833 42.3591 29.1385C42.3591 29.3936 42.4618 29.6383 42.6447 29.8187C42.8275 29.9991 43.0755 30.1005 43.3341 30.1005C43.5927 30.1005 43.8407 29.9991 44.0236 29.8187C44.2064 29.6383 44.3092 29.3936 44.3092 29.1385C44.3092 28.8833 44.2064 28.6386 44.0236 28.4582C43.8407 28.2778 43.5927 28.1764 43.3341 28.1764Z" fill="white"/>
<path fill-rule="evenodd" clip-rule="evenodd" d="M34.493 17.3593C34.4573 17.3381 34.4165 17.3267 34.3749 17.3262C34.3333 17.3257 34.2923 17.336 34.2561 17.3563C34.2198 17.3765 34.1897 17.4059 34.1687 17.4413C34.1478 17.4768 34.1367 17.5172 34.1367 17.5582V19.4147C34.1367 19.4558 34.1478 19.4961 34.1687 19.5316C34.1897 19.5671 34.2198 19.5964 34.2561 19.6167C34.2923 19.6369 34.3333 19.6473 34.3749 19.6467C34.4165 19.6462 34.4573 19.6348 34.493 19.6137L36.0609 18.6854C36.0958 18.6648 36.1246 18.6356 36.1446 18.6008C36.1646 18.5659 36.1751 18.5265 36.1751 18.4865C36.1751 18.4464 36.1646 18.407 36.1446 18.3722C36.1246 18.3373 36.0958 18.3081 36.0609 18.2875L34.493 17.3593ZM35.4827 18.4865L34.6071 19.0047V17.9682L35.4827 18.4865Z" fill="white"/>
<path fill-rule="evenodd" clip-rule="evenodd" d="M36.5756 16.2092C35.5256 16.1282 34.4708 16.1282 33.4208 16.2092L32.7181 16.2637C32.5104 16.2796 32.3141 16.3637 32.1605 16.5025C32.0069 16.6413 31.9048 16.8268 31.8704 17.0295C31.7073 17.994 31.7073 18.9785 31.8704 19.9429C31.9048 20.1456 32.0069 20.3311 32.1605 20.4699C32.3141 20.6087 32.5104 20.6928 32.7181 20.7087L33.4205 20.7632C34.4707 20.8443 35.5257 20.8443 36.5759 20.7632L37.2784 20.7087C37.486 20.6928 37.6823 20.6087 37.8359 20.4699C37.9895 20.3311 38.0916 20.1456 38.126 19.9429C38.2891 18.9785 38.2891 17.9939 38.126 17.0295C38.0916 16.8268 37.9895 16.6413 37.8359 16.5025C37.6823 16.3637 37.486 16.2796 37.2784 16.2637L36.5756 16.2092ZM33.4575 16.6721C34.4833 16.5929 35.5138 16.5929 36.5395 16.6721L37.242 16.7263C37.454 16.7426 37.6274 16.8995 37.6622 17.1062C37.8173 18.0198 37.8173 18.9526 37.6622 19.8662C37.6452 19.9667 37.5946 20.0588 37.5185 20.1276C37.4423 20.1965 37.345 20.2382 37.242 20.2462L36.5395 20.3003C35.5138 20.3795 34.4833 20.3795 33.4575 20.3003L32.7551 20.2462C32.6521 20.2382 32.5547 20.1965 32.4786 20.1276C32.4024 20.0588 32.3518 19.9667 32.3348 19.8662C32.1797 18.9526 32.1797 18.0198 32.3348 17.1062C32.3518 17.0057 32.4024 16.9136 32.4786 16.8448C32.5547 16.7759 32.6521 16.7342 32.7551 16.7263L33.4575 16.6721Z" fill="white"/>
</svg>
