<svg width="70" height="70" viewBox="0 0 70 70" fill="none" xmlns="http://www.w3.org/2000/svg">
<rect x="13" y="6" width="44" height="58" rx="2" fill="white"/>
<rect x="19.5996" y="15.8496" width="15.4003" height="2.18873" fill="#FA7A4A"/>
<rect x="19.5996" y="27.8867" width="15.4003" height="2.18873" fill="#FA7A4A"/>
<rect x="19.5996" y="39.9238" width="15.4003" height="2.18873" fill="#FA7A4A"/>
<rect x="19.5996" y="51.9629" width="15.4003" height="2.18873" fill="#FA7A4A"/>
<path d="M40.1621 14.1061C39.8043 13.6854 39.1732 13.6344 38.7525 13.9922C38.3318 14.3501 38.2808 14.9812 38.6387 15.4019L40.1621 14.1061ZM42.1925 18.0367L41.4307 18.6846L42.0682 19.4341L42.828 18.8089L42.1925 18.0367ZM38.6387 15.4019L41.4307 18.6846L42.9542 17.3889L40.1621 14.1061L38.6387 15.4019ZM42.828 18.8089L52.1349 11.1491L50.864 9.60483L41.557 17.2646L42.828 18.8089Z" fill="#FA7A4A"/>
<path d="M40.1621 25.0495C39.8043 24.6288 39.1732 24.5778 38.7525 24.9356C38.3318 25.2934 38.2808 25.9245 38.6387 26.3452L40.1621 25.0495ZM42.1925 28.9801L41.4307 29.628L42.0682 30.3775L42.828 29.7522L42.1925 28.9801ZM38.6387 26.3452L41.4307 29.628L42.9542 28.3322L40.1621 25.0495L38.6387 26.3452ZM42.828 29.7522L52.1349 22.0924L50.864 20.5482L41.557 28.208L42.828 29.7522Z" fill="#FA7A4A"/>
<path d="M40.1621 37.0885C39.8043 36.6678 39.1732 36.6168 38.7525 36.9747C38.3318 37.3325 38.2808 37.9636 38.6387 38.3843L40.1621 37.0885ZM42.1925 41.0192L41.4307 41.667L42.0682 42.4166L42.828 41.7913L42.1925 41.0192ZM38.6387 38.3843L41.4307 41.667L42.9542 40.3713L40.1621 37.0885L38.6387 38.3843ZM42.828 41.7913L52.1349 34.1315L50.864 32.5873L41.557 40.247L42.828 41.7913Z" fill="#FA7A4A"/>
<path d="M40.1621 49.1256C39.8043 48.7049 39.1732 48.654 38.7525 49.0118C38.3318 49.3696 38.2808 50.0007 38.6387 50.4214L40.1621 49.1256ZM42.1925 53.0563L41.4307 53.7042L42.0682 54.4537L42.828 53.8284L42.1925 53.0563ZM38.6387 50.4214L41.4307 53.7042L42.9542 52.4084L40.1621 49.1256L38.6387 50.4214ZM42.828 53.8284L52.1349 46.1686L50.864 44.6244L41.557 52.2841L42.828 53.8284Z" fill="#FA7A4A"/>
</svg>
