<svg width="70" height="70" viewBox="0 0 70 70" fill="none" xmlns="http://www.w3.org/2000/svg">
    <path
        d="M23.1478 9.96154C23.1478 9.44131 22.9368 8.94238 22.5611 8.57452C22.1854 8.20666 21.6758 8 21.1445 8C20.6132 8 20.1036 8.20666 19.7279 8.57452C19.3522 8.94238 19.1412 9.44131 19.1412 9.96154V14.0938C15.2948 14.3946 12.7733 15.1322 10.9195 16.9498C9.0631 18.7649 8.30985 21.2365 8 25H61C60.6902 21.2338 59.9369 18.7649 58.0805 16.9498C56.2267 15.1322 53.7025 14.3946 49.8588 14.0912V9.96154C49.8588 9.44131 49.6478 8.94238 49.2721 8.57452C48.8964 8.20666 48.3868 8 47.8555 8C47.3242 8 46.8146 8.20666 46.4389 8.57452C46.0632 8.94238 45.8522 9.44131 45.8522 9.96154V13.9186C44.0759 13.8846 42.0833 13.8846 39.8422 13.8846H29.1578C26.9167 13.8846 24.9241 13.8846 23.1478 13.9186V9.96154Z"
        fill="#FA7A4A" />
    <path fill-rule="evenodd" clip-rule="evenodd"
        d="M8 35.0612C8 32.8011 8 30.7914 8.03445 29H60.9655C61 30.7914 61 32.8011 61 35.0612V40.449C61 50.6076 61 55.6882 57.8942 58.8428C54.7884 61.9973 49.7932 62 39.8 62H29.2C19.2069 62 14.209 62 11.1058 58.8428C8.00265 55.6855 8 50.6076 8 40.449V35.0612ZM47.75 40.449C48.4528 40.449 49.1269 40.1652 49.6238 39.66C50.1208 39.1548 50.4 38.4696 50.4 37.7551C50.4 37.0406 50.1208 36.3554 49.6238 35.8502C49.1269 35.345 48.4528 35.0612 47.75 35.0612C47.0472 35.0612 46.3731 35.345 45.8762 35.8502C45.3792 36.3554 45.1 37.0406 45.1 37.7551C45.1 38.4696 45.3792 39.1548 45.8762 39.66C46.3731 40.1652 47.0472 40.449 47.75 40.449ZM47.75 51.2245C48.4528 51.2245 49.1269 50.9407 49.6238 50.4355C50.1208 49.9303 50.4 49.2451 50.4 48.5306C50.4 47.8162 50.1208 47.131 49.6238 46.6257C49.1269 46.1206 48.4528 45.8367 47.75 45.8367C47.0472 45.8367 46.3731 46.1206 45.8762 46.6257C45.3792 47.131 45.1 47.8162 45.1 48.5306C45.1 49.2451 45.3792 49.9303 45.8762 50.4355C46.3731 50.9407 47.0472 51.2245 47.75 51.2245ZM37.15 37.7551C37.15 38.4696 36.8708 39.1548 36.3738 39.66C35.8769 40.1652 35.2028 40.449 34.5 40.449C33.7972 40.449 33.1231 40.1652 32.6262 39.66C32.1292 39.1548 31.85 38.4696 31.85 37.7551C31.85 37.0406 32.1292 36.3554 32.6262 35.8502C33.1231 35.345 33.7972 35.0612 34.5 35.0612C35.2028 35.0612 35.8769 35.345 36.3738 35.8502C36.8708 36.3554 37.15 37.0406 37.15 37.7551ZM37.15 48.5306C37.15 49.2451 36.8708 49.9303 36.3738 50.4355C35.8769 50.9407 35.2028 51.2245 34.5 51.2245C33.7972 51.2245 33.1231 50.9407 32.6262 50.4355C32.1292 49.9303 31.85 49.2451 31.85 48.5306C31.85 47.8162 32.1292 47.131 32.6262 46.6257C33.1231 46.1206 33.7972 45.8367 34.5 45.8367C35.2028 45.8367 35.8769 46.1206 36.3738 46.6257C36.8708 47.131 37.15 47.8162 37.15 48.5306ZM21.25 40.449C21.9528 40.449 22.6269 40.1652 23.1238 39.66C23.6208 39.1548 23.9 38.4696 23.9 37.7551C23.9 37.0406 23.6208 36.3554 23.1238 35.8502C22.6269 35.345 21.9528 35.0612 21.25 35.0612C20.5472 35.0612 19.8731 35.345 19.3762 35.8502C18.8792 36.3554 18.6 37.0406 18.6 37.7551C18.6 38.4696 18.8792 39.1548 19.3762 39.66C19.8731 40.1652 20.5472 40.449 21.25 40.449ZM21.25 51.2245C21.9528 51.2245 22.6269 50.9407 23.1238 50.4355C23.6208 49.9303 23.9 49.2451 23.9 48.5306C23.9 47.8162 23.6208 47.131 23.1238 46.6257C22.6269 46.1206 21.9528 45.8367 21.25 45.8367C20.5472 45.8367 19.8731 46.1206 19.3762 46.6257C18.8792 47.131 18.6 47.8162 18.6 48.5306C18.6 49.2451 18.8792 49.9303 19.3762 50.4355C19.8731 50.9407 20.5472 51.2245 21.25 51.2245Z"
        fill="#FA7A4A" />
</svg>