<svg width="490" height="13" viewBox="0 0 490 13" fill="none" xmlns="http://www.w3.org/2000/svg">
<path d="M458.931 6.86986C458.262 6.88074 457.586 6.88822 456.931 6.90453C456.505 6.91473 456.323 6.88482 456.039 6.86918C455.944 6.86375 455.843 6.85286 455.755 6.85422C455.092 6.8651 454.43 6.87734 453.768 6.88958C453.565 6.91609 453.437 6.95145 453.126 6.96437C452.822 6.9766 452.464 6.97661 452.126 6.98272C451.68 6.9902 451.234 6.99769 450.788 7.00449C450.565 7.00789 450.382 7.0208 450.308 7.04528C450.295 7.04936 450.443 7.05955 450.524 7.06567C450.795 7.08607 451.058 7.10919 451.355 7.12482C451.639 7.13978 451.991 7.11531 452.295 7.13434C452.977 7.17718 452.984 7.1765 453.505 7.16834C453.951 7.16086 454.397 7.15271 454.843 7.14727C454.93 7.14591 455.032 7.1561 455.126 7.16154C455.41 7.1765 455.593 7.2105 456.012 7.19758C456.329 7.18738 456.681 7.18534 457.012 7.1799C457.289 7.19962 457.546 7.22205 457.843 7.23769C458.12 7.25265 458.201 7.26421 458.052 7.28393C457.917 7.30229 457.728 7.30977 457.478 7.31113C457.255 7.31181 457.032 7.31792 456.809 7.32132C456.694 7.32336 456.586 7.32472 456.478 7.32676C456.052 7.33424 456.052 7.33424 455.275 7.29073C454.971 7.27373 454.626 7.29752 454.336 7.28121C454.14 7.27033 453.971 7.25401 453.782 7.24246C453.7 7.2377 453.572 7.23701 453.471 7.23837C453.133 7.24313 452.795 7.24653 452.471 7.25537C452.241 7.26149 452.106 7.28053 452.133 7.29957C452.139 7.30704 452.302 7.31793 452.396 7.31861C452.612 7.31997 452.842 7.31044 453.052 7.3152C453.254 7.31996 453.464 7.33356 453.613 7.34852C453.917 7.37979 454.261 7.35192 454.552 7.36008C454.856 7.36892 455.106 7.39612 455.397 7.41243C455.471 7.41651 455.613 7.40971 455.728 7.40767C456.059 7.40291 456.39 7.39883 456.721 7.39407C456.998 7.41379 457.296 7.43147 457.546 7.45391C457.998 7.4947 458.485 7.51033 459.073 7.49062C459.404 7.47974 459.728 7.48382 459.992 7.51034C460.262 7.53753 460.573 7.53482 460.918 7.52938C461.235 7.52394 461.56 7.50898 461.884 7.52802C462.587 7.57017 462.594 7.57221 463.425 7.55589C463.675 7.55113 463.864 7.54978 464.053 7.56541C464.229 7.57969 464.418 7.59193 464.601 7.60553C464.932 7.60077 465.27 7.59601 465.601 7.59057C466.027 7.58309 466.263 7.59261 466.364 7.63068C466.425 7.6538 466.452 7.67488 466.601 7.69052C466.777 7.70955 466.966 7.70887 467.223 7.70343C467.466 7.69867 467.642 7.6912 467.743 7.66672C467.784 7.65652 467.865 7.647 467.939 7.63884C468 7.63272 468.094 7.62321 468.148 7.62457C468.25 7.62729 468.385 7.63476 468.419 7.6436C468.75 7.72587 468.75 7.72655 469.088 7.75035C469.459 7.77686 469.845 7.80066 470.183 7.83057C470.487 7.85709 470.791 7.84554 471.122 7.84554C471.372 7.84554 471.534 7.86322 471.514 7.88089C471.5 7.89109 471.406 7.90604 471.325 7.9074C470.662 7.921 469.993 7.93256 469.324 7.94208C469.243 7.94344 469.142 7.9312 469.047 7.92508C468.858 7.91284 468.689 7.8938 468.486 7.88972C468.284 7.88565 468.047 7.89584 467.824 7.89924C467.601 7.90264 467.365 7.91149 467.162 7.90605C466.959 7.90061 466.797 7.88089 466.608 7.86797C466.52 7.86185 466.398 7.85302 466.324 7.85506C465.831 7.87138 465.466 7.84894 465.114 7.81902C465.04 7.8129 464.912 7.80882 464.817 7.81018C464.033 7.82174 463.256 7.83533 462.472 7.84825C462.154 7.85369 461.898 7.82989 461.83 7.78978C461.796 7.76734 461.729 7.74491 461.729 7.72247C461.729 7.68167 461.357 7.65924 461.087 7.664C460.641 7.6708 460.188 7.67623 459.749 7.68643C459.391 7.69459 459.086 7.68643 458.843 7.66196C458.559 7.63408 458.235 7.63952 457.911 7.647C457.667 7.65244 457.6 7.67488 457.613 7.73131C457.627 7.77686 457.512 7.79114 457.072 7.79862C456.518 7.80814 455.957 7.81766 455.397 7.82514C455.309 7.8265 455.207 7.81494 455.12 7.80882C454.93 7.79658 454.761 7.77686 454.559 7.77278C454.356 7.76802 454.119 7.77822 453.896 7.7823C453.673 7.7857 453.437 7.79522 453.234 7.79046C453.031 7.7857 452.862 7.76531 452.68 7.75239C452.592 7.74627 452.484 7.73743 452.396 7.73879C451.95 7.74423 451.504 7.75239 451.058 7.75987C450.558 7.76803 450.558 7.76803 449.849 7.72587C449.524 7.70683 449.2 7.72179 448.882 7.72723C448.544 7.73267 448.227 7.73539 447.963 7.70819C447.787 7.69052 447.591 7.67964 447.382 7.68304C446.821 7.6912 446.267 7.7014 445.706 7.70955C445.611 7.71091 445.483 7.70752 445.409 7.7014C445.051 7.67284 444.699 7.6504 444.199 7.66468C443.767 7.67692 443.3 7.6776 442.868 7.68915C442.631 7.69527 442.523 7.71703 442.57 7.73403C442.597 7.74287 442.739 7.75307 442.834 7.75307C443.05 7.75375 443.287 7.74355 443.49 7.74763C443.909 7.75578 444.118 7.8129 444.665 7.79726C444.99 7.78774 445.328 7.78434 445.665 7.78162C445.753 7.78094 445.848 7.79386 445.943 7.80066C446.213 7.81902 446.449 7.84281 446.841 7.83057C447.166 7.82105 447.51 7.81834 447.841 7.8129C448.369 7.80406 448.369 7.80474 449.051 7.84622C449.376 7.86594 449.7 7.8503 450.017 7.84554C450.254 7.84214 450.477 7.83534 450.666 7.84486C450.957 7.85913 451.166 7.89176 451.524 7.88972C451.862 7.88769 452.193 7.87817 452.531 7.87477C452.741 7.87273 452.937 7.88361 453.106 7.90197C453.281 7.92032 453.471 7.92848 453.7 7.9244C454.031 7.91896 454.369 7.91216 454.707 7.90876C454.802 7.90808 454.91 7.91421 454.998 7.91965C455.187 7.93188 455.37 7.94616 455.552 7.95908C455.883 7.955 456.221 7.95364 456.546 7.94548C456.796 7.93936 456.971 7.94208 457.174 7.95568C457.431 7.97404 457.64 8.00668 458.059 7.99104C458.269 7.98356 458.512 7.9856 458.721 7.9788C458.978 7.96996 459.154 7.97336 459.336 7.99375C459.681 8.03251 460.114 8.03319 460.56 8.01823C461.046 8.00191 461.411 8.02096 461.776 8.05087C462.161 8.08215 462.161 8.08146 462.459 8.15693C462.546 8.17869 462.796 8.18889 463.006 8.18481C463.357 8.17801 463.661 8.18141 463.918 8.20725C464.188 8.23512 464.513 8.23172 464.844 8.22424C465.283 8.21405 465.722 8.20521 466.081 8.24465C466.256 8.26368 466.446 8.26844 466.682 8.26368C467.351 8.25144 468.027 8.24397 468.682 8.22901C469.081 8.21949 469.311 8.24124 469.581 8.2596C469.946 8.28476 470.345 8.30719 470.345 8.36091C470.345 8.36975 470.439 8.37995 470.52 8.38674C470.696 8.40102 470.885 8.41326 471.068 8.42686C471.338 8.44725 471.602 8.46425 471.973 8.45337C472.298 8.44454 472.642 8.44182 472.973 8.4357C473.305 8.42958 473.609 8.42618 473.906 8.45201C474.251 8.48125 474.616 8.50913 475.008 8.53089C475.285 8.54652 475.65 8.52001 475.947 8.54109C476.129 8.554 476.305 8.56896 476.501 8.57984C476.582 8.5846 476.711 8.5812 476.819 8.57984C477.042 8.57712 477.271 8.57508 477.488 8.56828C477.738 8.56081 477.927 8.56217 478.116 8.5778C478.292 8.59208 478.468 8.6118 478.67 8.61587C478.974 8.62199 479.312 8.5948 479.616 8.62607C479.772 8.64171 479.968 8.65667 480.171 8.66143C480.373 8.66619 480.61 8.65599 480.826 8.65667C480.921 8.65667 481.035 8.66755 481.089 8.67639C481.123 8.68115 481.076 8.69406 481.029 8.70086C480.968 8.70902 480.88 8.7199 480.792 8.72126C480.123 8.7335 479.454 8.7437 478.785 8.75526C478.386 8.76206 478.386 8.76206 477.582 8.71922C477.393 8.70902 477.184 8.71106 476.947 8.71582C476.629 8.72194 476.305 8.7335 475.974 8.72126C475.542 8.67503 475.008 8.67094 474.44 8.68862C474.203 8.6961 473.987 8.6961 473.811 8.68319C473.44 8.65735 473.048 8.63356 472.717 8.60296C472.46 8.57916 472.338 8.57712 472.23 8.60976C472.196 8.61996 472.163 8.63083 472.169 8.64035C472.21 8.67435 472.284 8.70766 472.325 8.74166C472.338 8.75118 472.284 8.76206 472.25 8.77226C472.142 8.80081 472 8.79877 471.764 8.77497C471.527 8.75117 471.244 8.73554 470.865 8.74642C470.541 8.75594 470.189 8.75458 469.865 8.76478C469.365 8.77974 469.013 8.75798 468.655 8.72874C468.581 8.72262 468.453 8.71922 468.358 8.72058C467.351 8.73622 466.351 8.7539 465.344 8.76954C465.128 8.77293 464.932 8.76274 464.763 8.74438C464.587 8.72602 464.391 8.7165 464.175 8.7199C463.283 8.73418 462.391 8.7471 461.499 8.76478C461.134 8.77226 460.843 8.76341 460.593 8.73961C460.404 8.72194 460.228 8.7165 459.992 8.71854C459.735 8.72058 459.553 8.72738 459.424 8.7471C459.303 8.76614 459.39 8.77769 459.661 8.79265C459.951 8.80897 460.222 8.83005 460.499 8.84909C460.722 8.84637 460.945 8.84092 461.161 8.8416C461.256 8.8416 461.344 8.85384 461.438 8.86064C461.708 8.88036 461.958 8.90008 462.344 8.8892C462.668 8.87968 463.013 8.87764 463.344 8.87152C463.803 8.86404 463.803 8.86404 464.547 8.90688C464.736 8.91776 464.938 8.91707 465.182 8.91095C465.391 8.90619 465.608 8.91571 465.756 8.93611C465.817 8.94427 465.797 8.95787 465.668 9.00275C465.668 9.03606 465.81 9.0211 465.858 8.99935C465.932 8.96807 465.79 8.95787 465.52 8.97487C465.33 8.98711 465.236 9.00479 465.283 9.01907C465.31 9.02655 465.439 9.03606 465.668 9.00275C466.263 8.96195 466.716 8.95719 467.148 8.94631C467.405 8.94019 467.567 8.94291 467.77 8.96059C468.013 8.98166 468.257 9.00411 468.655 8.99323C469.088 8.98099 469.547 8.97962 469.987 8.96943C470.392 8.95991 470.602 8.98983 470.858 9.0075C471.169 9.02858 471.514 9.00479 471.798 9.01702C472.095 9.02926 472.304 9.05918 472.649 9.06462C473.149 9.04626 473.467 9.08026 473.845 9.10269C474.143 9.11969 474.494 9.10473 474.812 9.09725C475.17 9.08909 475.467 9.09658 475.717 9.12105C476.001 9.14893 476.319 9.14281 476.643 9.13669C477.4 9.12309 477.427 9.12105 477.866 9.15844C478.184 9.18564 478.488 9.1734 478.805 9.17C479.083 9.18836 479.353 9.20807 479.643 9.22439C479.718 9.22847 479.86 9.22168 479.975 9.21964C480.306 9.2142 480.644 9.20876 480.975 9.20332C481.198 9.19992 481.434 9.18972 481.637 9.1938C481.84 9.19856 482.009 9.21828 482.191 9.2312C482.374 9.24412 482.563 9.25703 482.738 9.27063C483.009 9.29103 483.265 9.30803 483.644 9.29783C483.968 9.28899 484.306 9.28627 484.644 9.28015C485.07 9.27267 485.056 9.27471 485.847 9.31551C486.273 9.33794 486.712 9.31075 487.144 9.30803C487.361 9.30667 487.57 9.31415 487.719 9.33387C487.78 9.34202 487.759 9.35562 487.78 9.36718C486.665 9.38554 485.543 9.40117 484.441 9.42361C484.016 9.43245 483.793 9.40797 483.563 9.38757C483.184 9.35494 482.684 9.40253 482.326 9.36038C482.11 9.33522 481.799 9.32095 481.427 9.33319C481.211 9.33998 480.981 9.3393 480.758 9.34542C480.191 9.36038 479.67 9.36106 479.218 9.31415C479.062 9.29783 478.839 9.28899 478.677 9.27335C478.488 9.25635 478.305 9.24683 478.082 9.25023C477.075 9.26655 476.075 9.28286 475.075 9.30054C474.987 9.3019 474.899 9.3121 474.825 9.31958C474.636 9.33862 474.697 9.35358 475.001 9.36582C475.102 9.3699 475.183 9.37873 475.278 9.38553C475.46 9.39845 475.629 9.41885 475.832 9.42361C476.035 9.42837 476.271 9.41885 476.494 9.41545C476.717 9.41205 476.954 9.40185 477.157 9.40593C477.359 9.41069 477.528 9.43041 477.717 9.44265C477.805 9.44877 477.913 9.45897 478.001 9.45829C478.447 9.45421 478.887 9.44673 479.333 9.44061C479.61 9.45897 479.846 9.48548 480.177 9.4916C480.387 9.49568 480.61 9.4882 480.826 9.48956C480.921 9.49024 481.042 9.50044 481.089 9.50928C481.117 9.51472 481.029 9.52832 480.961 9.53512C480.704 9.56095 480.353 9.55619 480.035 9.56435C479.691 9.57319 479.38 9.57047 479.116 9.54396C478.941 9.52628 478.745 9.51676 478.528 9.52016C477.967 9.529 477.413 9.5392 476.852 9.54668C476.758 9.54804 476.643 9.54192 476.555 9.53716C475.845 9.49568 475.845 9.49432 475.345 9.50316C474.609 9.51608 474.609 9.51608 474.116 9.48004C474.021 9.47324 473.92 9.46033 473.838 9.46101C473.055 9.47189 472.277 9.48276 471.5 9.4984C471.243 9.50316 471.068 9.50316 470.879 9.48549C470.716 9.47053 470.527 9.45353 470.324 9.44945C470.115 9.44537 469.885 9.45557 469.662 9.45897C469.439 9.46237 469.203 9.4712 469.007 9.46576C468.804 9.46033 468.628 9.44129 468.453 9.42769C468.27 9.41342 468.074 9.41409 467.824 9.41953C467.054 9.43517 467.047 9.43313 466.283 9.39098C466.195 9.38622 466.081 9.38078 465.986 9.38214C465.425 9.3903 464.871 9.4005 464.31 9.40865C464.094 9.41205 463.884 9.40322 463.736 9.3835C463.675 9.37534 463.695 9.36174 463.655 9.33522C463.607 9.3291 463.661 9.33998 463.675 9.35018C463.776 9.34882 463.898 9.35018 463.972 9.34474C464.161 9.33182 464.256 9.31482 464.209 9.30054C464.182 9.29306 464.053 9.28354 463.972 9.28354C463.824 9.28354 463.695 9.2985 463.655 9.33522C463.229 9.35766 462.776 9.36242 462.337 9.3733C462.08 9.3801 461.918 9.3767 461.715 9.35902C461.472 9.33727 461.222 9.31618 460.823 9.32706C460.391 9.3393 459.931 9.34134 459.485 9.35086C458.971 9.36174 458.748 9.30054 458.316 9.3019C457.87 9.30326 457.424 9.31483 456.978 9.32298C456.586 9.32978 456.586 9.32978 455.775 9.28559C455.478 9.26927 455.126 9.29306 454.836 9.27607C454.64 9.26519 454.471 9.24887 454.282 9.23732C454.201 9.23256 454.072 9.23255 453.971 9.23391C453.41 9.24207 452.842 9.24751 452.302 9.26247C451.687 9.28015 451.22 9.26111 450.781 9.221C450.227 9.22848 449.666 9.23256 449.119 9.24547C448.72 9.25499 448.49 9.23256 448.22 9.2142C448.125 9.20808 448.044 9.19788 447.943 9.19516C447.842 9.19244 447.72 9.19788 447.612 9.19992C447.166 9.2074 446.706 9.2108 446.274 9.22304C445.74 9.23868 445.537 9.18292 445.125 9.17612C444.848 9.20944 444.699 9.25499 444.152 9.25839C443.706 9.26111 443.26 9.27199 442.814 9.27947C442.591 9.28287 442.368 9.28695 442.145 9.29035C441.787 9.29647 441.618 9.32298 441.692 9.36378C441.733 9.38622 441.766 9.40865 441.8 9.43109C441.868 9.4712 441.699 9.5052 441.415 9.50996C440.631 9.52288 439.854 9.53647 439.07 9.54803C438.86 9.55143 438.658 9.53987 438.489 9.52151C438.313 9.50316 438.117 9.495 437.901 9.4984C437.117 9.51132 436.34 9.52492 435.556 9.53648C435.468 9.53784 435.353 9.53104 435.265 9.5256C435.076 9.51336 434.894 9.49908 434.711 9.48617C434.265 9.49228 433.826 9.49636 433.387 9.50452C432.677 9.51675 432.677 9.51744 432.157 9.48004C432.062 9.47324 431.968 9.46033 431.88 9.46101C431.542 9.46373 431.211 9.47053 430.873 9.47665C429.88 9.49432 429.879 9.49432 429.589 9.47392C429.325 9.45489 429.089 9.43177 428.69 9.44265C428.258 9.45489 427.798 9.45897 427.352 9.46576C427.021 9.47052 426.69 9.47597 426.359 9.47733C426.271 9.47801 426.176 9.46509 426.082 9.45829C425.811 9.43721 425.548 9.42021 425.176 9.43177C424.96 9.43857 424.73 9.43993 424.507 9.44333C423.926 9.45285 423.926 9.45284 422.973 9.41205C422.878 9.40797 422.764 9.40321 422.669 9.40525C421.885 9.41749 421.108 9.43109 420.324 9.44265C420.229 9.44401 420.115 9.43992 420.02 9.43652C418.952 9.39709 418.952 9.39709 417.817 9.41613C417.384 9.42293 417.371 9.42565 416.918 9.38962C416.715 9.37398 416.546 9.3665 416.31 9.37126C415.418 9.38757 414.519 9.39846 413.634 9.41749C413.235 9.42565 413.005 9.40525 412.735 9.38689C412.641 9.38077 412.539 9.36718 412.458 9.36786C411.566 9.38078 410.674 9.39642 409.782 9.40934C409.701 9.4107 409.599 9.39709 409.505 9.39098C409.322 9.37874 409.147 9.36038 408.944 9.3563C408.734 9.35222 408.505 9.36242 408.275 9.36582C407.714 9.37466 407.714 9.37398 407.065 9.33387C406.977 9.32843 406.863 9.32094 406.775 9.3223C405.883 9.3359 404.984 9.34746 404.099 9.36718C403.592 9.37806 403.247 9.35834 402.889 9.32978C402.815 9.32366 402.686 9.32094 402.592 9.3223C401.585 9.33794 400.585 9.35562 399.578 9.37126C399.368 9.37466 399.166 9.3631 398.997 9.34542C398.726 9.31754 398.409 9.32094 398.071 9.32706C397.294 9.34134 397.287 9.34066 396.827 9.30803C396.733 9.30123 396.652 9.29239 396.55 9.28899C396.456 9.28559 396.334 9.28763 396.233 9.28899C395.787 9.29579 395.341 9.30326 394.895 9.31074C394.449 9.31822 393.996 9.32231 393.557 9.33387C393.016 9.34814 392.759 9.30394 392.381 9.28354C391.827 9.29238 391.259 9.29783 390.712 9.3121C390.293 9.32298 390.097 9.29307 389.82 9.27743C389.725 9.27199 389.624 9.26043 389.536 9.26179C388.529 9.27675 387.522 9.29307 386.522 9.31142C386.279 9.3155 386.116 9.31006 385.914 9.29375C385.461 9.25703 385.441 9.25839 384.684 9.27199C384.353 9.27811 384.035 9.28355 383.751 9.25567C383.501 9.23052 383.197 9.22439 382.839 9.23255C382.4 9.24275 381.947 9.24819 381.501 9.25499C381.055 9.26247 380.609 9.27267 380.163 9.27607C379.805 9.27947 379.588 9.24752 379.305 9.2312C379.217 9.22644 379.095 9.22575 378.994 9.22711C378.548 9.23323 378.088 9.23799 377.656 9.24955C377.129 9.26383 376.838 9.22644 376.466 9.20468C376.385 9.19992 376.25 9.20264 376.149 9.20468C375.365 9.21692 374.588 9.23051 373.804 9.24343C373.527 9.22507 373.243 9.2074 372.966 9.18904C372.52 9.19584 372.074 9.20332 371.628 9.21012C371.29 9.21556 370.945 9.2176 370.628 9.2278C370.215 9.24139 370.013 9.20944 369.736 9.1938C369.641 9.18836 369.54 9.1768 369.452 9.17816C368.891 9.18564 368.33 9.1938 367.776 9.20536C367.249 9.21692 367.039 9.15572 366.607 9.1564C366.161 9.15708 365.701 9.16593 365.269 9.17816C364.769 9.19244 364.417 9.17068 364.059 9.14145C363.985 9.13533 363.856 9.13193 363.762 9.13329C363.201 9.14145 362.647 9.15165 362.086 9.1598C361.991 9.16116 361.876 9.15777 361.782 9.15369C360.714 9.11357 360.714 9.11289 360.248 9.12105C359.917 9.12649 359.579 9.13329 359.241 9.13669C359.146 9.13805 359.031 9.13193 358.944 9.12649C358.241 9.08501 358.241 9.08433 357.734 9.09249C357.288 9.09997 356.842 9.10745 356.396 9.11493C356.119 9.09657 355.835 9.0789 355.558 9.06054C355.004 9.06938 354.436 9.07617 353.889 9.08841C353.632 9.09385 353.463 9.09181 353.267 9.07481C353.024 9.05442 352.78 9.03062 352.375 9.04218C351.943 9.05442 351.483 9.05578 351.044 9.06598C350.517 9.07821 350.3 9.01634 349.875 9.01702C349.429 9.0177 348.969 9.02654 348.537 9.03878C348.037 9.05306 347.685 9.0313 347.327 9.00207C347.253 8.99595 347.124 8.99255 347.03 8.99391C345.8 9.01363 344.577 9.03334 343.347 9.05441C342.59 9.06733 342.59 9.06801 341.151 9.03062C341.049 9.0279 340.941 9.02518 340.84 9.02654C340.394 9.03266 339.934 9.03742 339.501 9.04898C338.974 9.06326 338.684 9.02654 338.312 9.0041C338.231 8.99934 338.103 9.00206 337.995 9.00342C337.657 9.00818 337.326 9.01431 336.988 9.01975C336.542 9.02723 336.096 9.0347 335.65 9.04218C335.373 9.0245 335.089 9.00614 334.812 8.98847C334.258 8.9973 333.69 9.00207 333.143 9.01634C332.724 9.02722 332.528 8.99867 332.25 8.98235C332.156 8.97691 332.055 8.96535 331.967 8.96603C330.96 8.98099 329.953 8.99663 328.953 9.01566C328.541 9.02382 328.351 8.99322 328.074 8.97758C327.98 8.97283 327.872 8.96399 327.784 8.96535C327.115 8.97487 326.446 8.98643 325.777 8.99798C325.398 9.00478 325.398 9.00478 324.574 8.96263C324.479 8.95787 324.371 8.95311 324.276 8.95447C322.155 8.98847 320.039 9.0245 317.917 9.0585C317.701 9.0619 317.505 9.0517 317.336 9.03334C317.161 9.01498 316.965 9.00547 316.748 9.00887C315.856 9.02314 314.958 9.03606 314.072 9.05374C313.707 9.06122 313.417 9.05237 313.167 9.02858C312.977 9.0109 312.802 9.00411 312.565 9.00819C312.119 9.01634 311.673 9.02314 311.227 9.03062C310.781 9.0381 310.335 9.04558 309.889 9.05306C309.443 9.06054 308.99 9.06462 308.551 9.07618C308.011 9.09045 307.747 9.0483 307.375 9.02722C306.706 9.03742 306.037 9.04762 305.375 9.0585C304.483 9.07278 303.591 9.08842 302.699 9.10201C302.618 9.10337 302.517 9.09114 302.422 9.08502C302.145 9.06802 301.942 9.04422 301.53 9.0517C299.53 9.08774 297.516 9.11833 295.509 9.15369C295.09 9.16117 294.907 9.13193 294.623 9.11629C294.529 9.11153 294.421 9.10201 294.333 9.10337C293.218 9.12037 292.103 9.13941 290.988 9.15776C290.535 9.16524 290.535 9.16524 289.778 9.12309C289.69 9.11833 289.575 9.11221 289.481 9.11357C288.028 9.13668 286.582 9.16116 285.129 9.18496C284.913 9.18836 284.717 9.17884 284.541 9.16048C284.372 9.14213 284.169 9.13193 283.96 9.13533C282.622 9.15709 281.277 9.17816 279.946 9.20196C279.588 9.20876 279.29 9.20264 279.033 9.17816C278.851 9.16049 278.669 9.153 278.439 9.15708C276.432 9.1904 274.425 9.22236 272.418 9.25772C272.032 9.26451 271.762 9.25159 271.519 9.22916C271.323 9.21148 271.154 9.20808 270.911 9.2108C270.654 9.2142 270.498 9.22167 270.357 9.24207C270.174 9.26859 270.059 9.30191 269.627 9.30395C269.181 9.30598 268.728 9.31415 268.289 9.32571C267.87 9.33727 267.674 9.30667 267.41 9.28831C267.214 9.27539 267.032 9.27335 266.782 9.27947C266.552 9.28491 266.41 9.29646 266.275 9.31822C265.978 9.36446 265.95 9.36446 265.586 9.33522C265.39 9.31958 265.214 9.30734 264.998 9.31006C264.106 9.32366 263.214 9.33862 262.322 9.35426C261.808 9.3631 261.801 9.36446 261.416 9.33046C261.227 9.31347 261.044 9.3053 260.821 9.30938C258.368 9.35018 255.915 9.38962 253.462 9.43245C253.084 9.43925 252.827 9.42497 252.557 9.40457C252.469 9.39777 252.381 9.38825 252.28 9.38553C252.178 9.38281 252.063 9.38553 251.955 9.38689C250.171 9.41613 248.38 9.44401 246.603 9.47665C246.198 9.48412 245.981 9.46237 245.704 9.44469C245.61 9.43857 245.529 9.42905 245.427 9.42633C245.326 9.42429 245.204 9.42905 245.096 9.43109C243.312 9.46032 241.521 9.48821 239.744 9.52084C239.318 9.52832 239.136 9.49976 238.859 9.4848C238.764 9.47936 238.663 9.46916 238.575 9.47052C238.014 9.478 237.46 9.4882 236.899 9.49704C235.561 9.51947 234.223 9.54056 232.885 9.56368C232.371 9.57252 232.148 9.512 231.716 9.51472C231.155 9.51812 230.601 9.53172 230.04 9.54123C229.594 9.54871 229.148 9.55552 228.702 9.56368C228.263 9.57116 228.263 9.57115 227.168 9.53171C227.073 9.52831 226.958 9.52356 226.864 9.52492C225.303 9.55007 223.735 9.57523 222.181 9.60243C221.822 9.60855 221.525 9.60515 221.268 9.57999C221.086 9.56232 220.897 9.55347 220.674 9.55755C218.329 9.59631 215.99 9.63507 213.646 9.67314C213.558 9.6745 213.443 9.6677 213.355 9.66226C213.166 9.65002 212.983 9.63575 212.801 9.62283C212.666 9.63847 212.49 9.65274 212.402 9.67042C212.281 9.69422 212.118 9.70102 211.862 9.7051C211.605 9.70917 211.443 9.70782 211.24 9.69014C210.997 9.66838 210.747 9.65138 210.348 9.65818C207.895 9.70101 205.442 9.73977 202.989 9.78193C202.583 9.78872 202.394 9.7588 202.11 9.74317C202.016 9.73841 201.907 9.73093 201.82 9.73229C200.813 9.74793 199.813 9.76493 198.806 9.78125C196.015 9.82748 193.224 9.87168 190.44 9.92063C189.933 9.92947 189.588 9.91247 189.23 9.88323C189.156 9.87711 189.027 9.87371 188.933 9.87507C185.027 9.93898 181.121 10.0036 177.221 10.0682C177.012 10.0716 176.809 10.0607 176.64 10.043C176.465 10.0247 176.269 10.0158 176.052 10.0192C174.268 10.0485 172.484 10.0777 170.7 10.1076C170.254 10.1151 170.247 10.1158 169.788 10.0831C169.693 10.0763 169.592 10.0634 169.518 10.0648C169.362 10.0682 169.214 10.0852 169.105 10.1083C168.997 10.1328 168.828 10.1396 168.578 10.1443C168.322 10.1491 168.153 10.147 167.957 10.1307C167.707 10.1103 167.477 10.0906 167.071 10.0974C161.942 10.1844 156.813 10.2681 151.684 10.3544C151.272 10.3612 151.082 10.3327 150.799 10.317C150.704 10.3123 150.609 10.3055 150.508 10.3041C150.4 10.3027 150.285 10.3068 150.177 10.3089C141.811 10.4469 133.445 10.5856 125.079 10.7236C124.579 10.7318 124.586 10.7318 124.038 10.7943C123.971 10.8018 123.883 10.812 123.788 10.8133C121.227 10.8569 118.659 10.899 116.091 10.9412C114.976 10.9595 113.861 10.9786 112.746 10.9962C112.347 11.0024 112.347 11.0024 111.394 11.0758C111.313 11.0819 111.219 11.0901 111.124 11.0914C106.664 11.1655 102.204 11.2397 97.737 11.3124C97.3856 11.3178 97.1018 11.3301 96.9396 11.3627C96.8247 11.3858 96.6761 11.3994 96.4531 11.4035C93.331 11.4552 90.209 11.5075 87.0802 11.5579C86.7085 11.564 86.4854 11.583 86.3029 11.6116C86.2421 11.6211 86.188 11.632 86.1002 11.6388C86.0191 11.6449 85.8975 11.6469 85.7961 11.649C83.12 11.6932 80.4441 11.7387 77.7612 11.7809C77.3625 11.787 77.2003 11.8121 77.0043 11.8387C76.9367 11.8475 76.8894 11.8597 76.8015 11.8659C76.7137 11.8713 76.5853 11.8713 76.4772 11.8727C74.2471 11.9094 72.0171 11.9468 69.7871 11.9835C69.3546 11.9801 69.2599 12.0195 69.0504 12.0433C68.9761 12.0515 68.9222 12.0624 68.8343 12.0678C68.7397 12.0732 68.6179 12.0725 68.503 12.0739C66.719 12.1031 64.935 12.1344 63.1442 12.1616C62.732 12.1677 62.6508 12.2024 62.4278 12.2262C62.3535 12.2337 62.2793 12.2452 62.1914 12.2473C61.0764 12.267 59.9614 12.2854 58.8464 12.303C58.4747 12.3092 58.4747 12.3085 57.8192 12.3758C57.7448 12.3833 57.6569 12.3914 57.5623 12.3935C55.8931 12.422 54.2173 12.4492 52.5413 12.4771C52.3251 12.4805 52.1765 12.4968 52.0683 12.5199C51.9602 12.543 51.8048 12.558 51.5886 12.5614C50.2505 12.5838 48.9124 12.607 47.5744 12.6274C47.2027 12.6328 46.9595 12.6498 46.7973 12.6804C46.6756 12.7035 46.527 12.7151 46.2904 12.7191C44.9524 12.7409 43.6144 12.7647 42.2696 12.7837C41.8777 12.7892 41.6749 12.8123 41.5127 12.8408C41.3843 12.864 41.2356 12.8721 40.9856 12.8762C38.5325 12.9156 36.0728 12.9551 33.6265 12.9986C33.2142 13.0061 33.0047 12.9823 32.7344 12.9653C32.3492 12.9415 31.9912 12.9156 31.9912 12.8626C31.9912 12.8544 31.8762 12.8449 31.7952 12.8381C31.1937 12.7871 31.1937 12.7871 31.0991 12.7327C31.045 12.6994 30.9842 12.6654 30.9369 12.6314C30.8491 12.5757 30.6327 12.5614 30.011 12.5716C29.788 12.575 29.565 12.5798 29.342 12.5825C29.0109 12.5872 28.7609 12.5648 28.7001 12.524C28.6663 12.5016 28.6258 12.4791 28.592 12.4567C28.9299 12.4513 28.923 12.4506 29.5177 12.3683C29.7678 12.3336 29.7679 12.3336 29.2881 12.299C29.1056 12.286 28.9299 12.2718 28.7339 12.2595C28.646 12.2541 28.5312 12.2507 28.4366 12.252C27.8757 12.2602 27.3216 12.2697 26.7674 12.2792C25.8754 12.2942 25.8753 12.2942 24.9698 12.2248C24.8954 12.2194 24.7806 12.2092 24.7941 12.2038C24.8684 12.1786 25.0508 12.1677 25.2806 12.165C25.6185 12.1609 25.9496 12.1541 26.2807 12.1487C26.5037 12.1453 26.7267 12.1412 26.9497 12.1378C27.1592 12.112 27.3756 12.0868 27.5716 12.0603C27.8824 12.0195 27.8823 12.0182 27.4566 11.9896C27.1863 11.9706 26.8957 11.9536 26.6186 11.9359C26.2875 11.9413 25.9496 11.9474 25.6185 11.9522C25.1995 11.9583 25.0306 11.9454 24.9224 11.9012C24.8278 11.8625 24.9427 11.8291 25.2671 11.821C25.5982 11.8128 25.9092 11.8074 26.0781 11.7727C26.2403 11.7394 26.5241 11.7265 26.8755 11.7238C27.0985 11.7217 27.3215 11.717 27.5445 11.7129C27.8351 11.7074 27.9906 11.6728 27.9297 11.634C27.896 11.6088 27.8284 11.5878 27.5648 11.5823C26.3957 11.5585 26.3821 11.5592 25.801 11.513C25.7469 11.5089 25.7064 11.4967 25.7267 11.4905C25.7605 11.4803 25.8349 11.4654 25.916 11.4633C26.6931 11.4484 27.4702 11.4348 28.2473 11.4246C28.5041 11.4212 28.6934 11.4164 28.7812 11.3913C28.9029 11.3566 28.8488 11.3246 28.6123 11.3008C28.538 11.2934 28.4162 11.2838 28.3351 11.2845C27.4431 11.2968 26.5579 11.3124 25.6658 11.3246C25.5848 11.326 25.4362 11.3144 25.4024 11.3056C25.3348 11.2893 25.4361 11.2675 25.6726 11.2601C25.9835 11.2499 26.3011 11.2492 26.5106 11.2152C26.8011 11.1669 27.1593 11.1227 27.4836 11.0765C27.5377 11.0683 27.6257 11.0527 27.6054 11.0513C27.4364 11.0364 27.2404 11.0248 27.0647 11.0105C26.7674 10.9867 26.7673 10.9534 26.8349 10.9215C26.889 10.8956 27.0917 10.8854 27.3417 10.8854C27.4499 10.8854 27.585 10.8854 27.6729 10.8793C27.9026 10.8643 27.977 10.8453 27.8621 10.831C27.7945 10.8229 27.673 10.8113 27.5919 10.8127C26.1457 10.8351 24.6927 10.8569 23.2533 10.8847C22.8276 10.8929 22.6317 10.8671 22.3749 10.8487C22.1789 10.8344 21.9964 10.829 21.7531 10.8392C21.5233 10.8487 21.3004 10.8433 21.1585 10.8208C21.0436 10.8025 21.2463 10.7868 21.7937 10.7692C21.895 10.7658 22.0099 10.7637 22.0842 10.7569C22.8681 10.6835 22.8681 10.6828 23.4087 10.6733C23.9358 10.6645 23.9359 10.6638 24.213 10.6243C24.3414 10.606 24.4832 10.5876 24.6048 10.5686C24.6521 10.5611 24.7333 10.5475 24.7063 10.5434C24.5576 10.5223 24.3548 10.5176 24.1183 10.5224C23.5912 10.5339 22.9696 10.5244 22.6925 10.589C22.5844 10.6135 22.4154 10.6203 22.1721 10.6243C19.7259 10.6638 17.2795 10.7059 14.8264 10.744C14.4277 10.7501 14.2454 10.7753 14.0899 10.8032C13.9548 10.8263 13.8061 10.8331 13.5493 10.8372C13.2925 10.8412 13.0897 10.8433 12.941 10.8208C12.8531 10.8072 12.9275 10.7882 13.1302 10.7692C13.4208 10.742 13.3667 10.708 13.2721 10.676C13.2045 10.6549 12.995 10.64 12.772 10.6413C12.4409 10.6441 12.1234 10.6515 11.8463 10.6243C11.6841 10.6087 11.4814 10.5978 11.2989 10.5842C10.9475 10.5563 10.5961 10.5278 10.1028 10.5461C9.76489 10.5393 9.52837 10.5149 9.25806 10.4958C8.80529 10.4646 8.76474 10.4598 9.08911 10.4265C9.45403 10.3891 9.17015 10.3401 9.37289 10.3034C9.58913 10.264 9.88657 10.2293 10.1501 10.1926C10.2177 10.1831 10.2785 10.1742 10.3461 10.1647C10.1907 10.1511 10.0488 10.1341 9.86635 10.1246C9.62983 10.1124 9.50819 10.0974 9.5217 10.0553C9.4744 10.0491 9.49453 10.0648 9.54859 10.0688C9.60941 10.0729 9.75819 10.0695 9.83253 10.0648C10.0217 10.0519 10.1163 10.0349 10.069 10.0206C10.0419 10.0131 9.91362 10.0036 9.83253 10.0036C9.68386 10.0036 9.55548 10.0185 9.51494 10.0553C8.75807 10.0831 7.97405 10.0967 7.19015 10.1076C7.10906 10.109 7.00775 10.0954 6.91314 10.0886C6.60229 10.0654 6.60225 10.0661 5.68996 10.0593C5.59535 10.0586 5.46702 10.0491 5.41971 10.0396C5.22374 9.99814 5.23055 9.95258 5.13594 9.90839C5.31164 9.87983 5.4872 9.85196 5.66966 9.82408C6.03458 9.76765 6.50773 9.71802 6.79155 9.65614C6.73073 9.62283 6.64963 9.58951 6.94697 9.56231C7.79168 9.52832 7.78498 9.52832 8.01474 9.49568C8.67024 9.40322 9.31894 9.31006 10.0015 9.21896C10.1839 9.19516 10.184 9.18225 9.85959 9.17205C9.75822 9.16933 9.64995 9.16864 9.54183 9.17C9.20394 9.17476 8.86606 9.187 8.53493 9.18428C8.2038 9.18224 7.96053 9.15232 7.69022 9.13397C7.41315 9.11493 7.1361 9.09521 6.85903 9.0755C6.54142 9.07754 6.22386 9.09657 5.90625 9.06598C5.66297 9.04218 5.35889 9.02518 5.08183 9.00546C5.29132 8.95379 5.68332 8.91435 5.98742 8.8688C6.26449 8.82732 6.27109 8.82801 7.01444 8.79605C7.36585 8.78109 7.48749 8.70426 7.19015 8.68182C6.83199 8.65463 6.45364 8.62947 6.08872 8.60363C5.77111 8.60567 5.4468 8.62404 5.1427 8.59344C4.90618 8.57032 4.63582 8.55468 4.24387 8.56352C3.58162 8.57848 2.90586 8.58596 2.23685 8.5982C2.00709 8.60228 1.75698 8.59956 1.65561 8.57644C1.58803 8.56012 1.78402 8.53769 2.00703 8.53293C2.34491 8.52613 2.64898 8.51797 2.81792 8.48398C2.98011 8.44998 3.27741 8.43978 3.62881 8.43502C3.72342 8.43366 3.83163 8.4255 3.87893 8.41734C4.12221 8.3779 4.39254 8.34391 4.91288 8.34527C5.12913 8.33167 5.24394 8.31467 5.17636 8.29835C5.13582 8.28951 4.99398 8.27796 4.91288 8.27932C4.35199 8.28612 3.79112 8.29292 3.24374 8.30516C2.98695 8.3106 2.79087 8.31195 2.62868 8.29156C2.5138 8.27796 2.57462 8.2596 2.79086 8.23988C2.98008 8.22288 3.0342 8.20317 3.02069 8.18005C2.9869 8.12634 2.78413 8.1107 2.13538 8.1141C1.6691 8.11682 1.55421 8.10798 1.45285 8.06174C1.42581 8.05087 1.35836 8.03591 1.40566 8.02843C1.69624 7.9822 1.88547 7.92509 2.43285 7.90333C2.6491 7.89517 2.87877 7.89517 3.01392 7.87749C3.14908 7.85981 3.27077 7.83941 3.41269 7.82241C3.58839 7.80202 3.70991 7.78299 3.62881 7.77007C3.49366 7.74695 3.27749 7.74491 3.02745 7.75307C2.8112 7.75987 2.58145 7.76054 2.35844 7.76462C1.95974 7.7721 1.63544 7.75443 1.58813 7.72451C1.45974 7.64564 1.32454 7.56745 1.20966 7.48858C1.19614 7.47906 1.22984 7.46682 1.2839 7.45866C1.47312 7.43011 1.67593 7.40291 1.8719 7.37504C2.10167 7.34308 2.46664 7.3492 2.7775 7.34308C3.21675 7.33424 3.2166 7.33492 3.80452 7.26965C4.03429 7.24381 4.43301 7.25401 4.66953 7.23089C4.74387 7.22341 4.85875 7.21118 4.83848 7.20438C4.81144 7.19554 4.67636 7.18874 4.575 7.18466C4.48039 7.18058 4.36553 7.17854 4.26417 7.18058C3.03426 7.2003 1.81114 7.22138 0.581237 7.24041C0.371748 7.24381 0.141978 7.22886 0.0676433 7.20778C-0.00669174 7.18806 0.0135155 7.16426 0 7.14182C0.195974 7.11395 0.418893 7.08811 0.587837 7.05819C0.716234 7.03508 0.86493 7.02488 1.12172 7.02352C1.45961 7.02148 1.79077 7.01332 2.1692 7.0072C2.87201 6.90793 3.56125 6.80391 4.31812 6.70464C4.62221 6.66453 4.548 6.62373 4.60882 6.58089C4.66964 6.54146 5.12238 6.54758 5.42648 6.53603C5.66975 6.52651 5.75074 6.50475 5.65613 6.48979C5.60207 6.48095 5.4805 6.47075 5.38589 6.47075C5.16289 6.47075 4.93989 6.47687 4.71688 6.48027C4.49388 6.48367 4.2371 6.48163 4.05464 6.49319C3.87894 6.50407 3.76399 6.52718 3.64911 6.5469C3.52071 6.56866 3.35189 6.57614 3.09509 6.5775C2.76396 6.57886 2.43286 6.58497 2.10173 6.58973C1.73681 6.56322 1.3583 6.53738 1.0069 6.50951C0.939318 6.50407 0.92573 6.48843 0.932487 6.47824C0.946003 6.45172 0.844663 6.4354 0.621658 6.42248C0.432442 6.4116 0.277001 6.39596 0.1013 6.38237C0.236455 6.36401 0.385177 6.34633 0.493301 6.32661C0.729822 6.28513 1.02719 6.25522 1.54078 6.25658C1.74351 6.23007 1.90565 6.19743 2.1692 6.17907C2.41924 6.16139 2.845 6.17907 3.03421 6.13895C3.12882 6.11923 3.27081 6.0968 3.45327 6.08864C3.74385 6.07572 4.12228 6.08253 4.29122 6.04445C4.39259 6.02269 4.5412 6.00297 4.73717 5.99753C4.96018 5.99141 5.18988 5.99006 5.35207 5.97714C5.43992 5.97034 5.53454 5.95946 5.53454 5.94994C5.53454 5.94382 5.39949 5.9343 5.30488 5.93022C5.21703 5.92546 5.10202 5.92206 5.00065 5.92342C4.66277 5.9275 4.33165 5.93498 3.99376 5.93906C3.89915 5.94042 3.79106 5.93566 3.68969 5.93158C3.39235 5.9207 3.41259 5.90711 3.64911 5.88263C3.88563 5.85883 4.05466 5.82823 4.25064 5.80036C4.46689 5.7956 4.73716 5.79764 4.88583 5.78472C5.13586 5.76364 5.31152 5.73304 5.51425 5.70653C5.73725 5.70245 5.967 5.70109 6.17649 5.69361C6.26434 5.69089 6.30492 5.67594 6.37926 5.6671C6.51441 5.6501 6.62939 5.62562 6.81184 5.61746C7.10918 5.60523 7.4741 5.60998 7.6498 5.57259C7.75116 5.55083 7.90653 5.52772 8.09575 5.52636C8.62285 5.52364 8.84586 5.48624 9.11617 5.45088C9.3189 5.42436 9.75141 5.43797 9.97442 5.41145C10.1231 5.39445 10.2313 5.37337 10.3799 5.35705C10.4408 5.35025 10.5691 5.34686 10.6705 5.34482C11.2246 5.33462 11.7855 5.32714 12.3396 5.31626C12.4275 5.31422 12.5086 5.30403 12.5762 5.29587C12.7181 5.27819 12.8059 5.25371 12.9816 5.24215C13.1573 5.23059 13.4073 5.23059 13.6235 5.2272C14.3196 5.217 14.3737 5.21971 14.6913 5.16192C14.9481 5.115 15.5766 5.14832 15.7861 5.09665C15.9078 5.06673 16.1307 5.04226 16.5294 5.03886C17.0903 5.0341 17.6444 5.02118 18.2053 5.01234C18.7054 5.00418 18.6986 5.00418 19.2392 4.94095C19.4825 4.91239 19.8407 4.91647 20.1584 4.91103C20.4962 4.9056 20.8071 4.89744 20.9693 4.86344C21.1314 4.83013 21.4287 4.81924 21.7734 4.81448C22.091 4.80972 22.4492 4.81313 22.6993 4.78593C23.3075 4.72066 23.3007 4.71998 23.7265 4.71318C24.3955 4.7023 25.0645 4.69142 25.7335 4.67986C26.1795 4.67238 26.6458 4.67103 27.0647 4.65607C27.3688 4.64519 27.504 4.60711 27.6999 4.5806C28.2541 4.5704 28.8082 4.5602 29.3623 4.55068C30.1394 4.53708 30.9233 4.52484 31.7072 4.51193C32.0451 4.48609 32.0925 4.42898 32.6602 4.42626C32.998 4.4249 33.3292 4.41606 33.6671 4.41062C34.2279 4.4011 34.7821 4.38886 35.343 4.3841C35.7687 4.3807 35.8429 4.34398 36.0659 4.32087C36.1403 4.31271 36.2079 4.30115 36.2957 4.29911C37.1742 4.28008 38.0797 4.276 38.938 4.24812C39.0258 4.2454 39.1069 4.23112 39.1272 4.22092C39.1407 4.21548 39.0258 4.20529 38.9515 4.20053C38.8636 4.19509 38.7488 4.18965 38.6542 4.19101C35.8632 4.23656 33.0724 4.2828 30.2814 4.32835C29.8895 4.33515 29.8895 4.33447 28.9366 4.40926C28.8556 4.41538 28.7608 4.42218 28.6595 4.42422C28.2135 4.43237 27.7607 4.43714 27.3215 4.44734C26.9633 4.4555 26.6661 4.44733 26.4093 4.42285C26.2268 4.40518 26.0375 4.39974 25.8077 4.4011C25.5509 4.40314 25.3821 4.41062 25.2334 4.42898C25.0374 4.45414 24.936 4.48677 24.5238 4.49357C22.6249 4.5228 20.7259 4.55544 18.8337 4.58672C18.5702 4.5772 18.4418 4.56292 18.5093 4.54592C18.5499 4.53572 18.631 4.52213 18.7121 4.52077C19.4893 4.50649 20.2731 4.49425 21.0503 4.48065C21.1584 4.47861 21.307 4.47997 21.3679 4.47317C21.6652 4.44257 21.7734 4.39294 22.3343 4.38954C22.6587 4.3875 22.9898 4.3773 23.3006 4.36779C23.3885 4.36507 23.4696 4.35079 23.4899 4.34059C23.4966 4.33515 23.3885 4.32495 23.3074 4.32019C23.0101 4.30047 22.6655 4.32427 22.3682 4.31068C22.2668 4.30592 22.1248 4.29911 22.1045 4.29096C22.091 4.28348 22.2059 4.27124 22.287 4.26376C22.3613 4.25696 22.4626 4.25084 22.564 4.2488C23.456 4.23316 24.3482 4.21684 25.2402 4.20461C25.6051 4.19985 25.8618 4.18285 26.024 4.15157C26.1457 4.12845 26.2943 4.11622 26.5241 4.11282C28.0851 4.08766 29.6461 4.05979 31.2139 4.03667C31.6059 4.03123 31.8087 4.00879 31.9709 3.97956C32.0993 3.95644 32.2479 3.94828 32.498 3.9442C34.7348 3.90885 36.958 3.86941 39.1948 3.83542C39.6071 3.8293 39.7288 3.80006 39.9382 3.7749C40.0126 3.76607 40.0598 3.75519 40.1544 3.74975C40.249 3.74431 40.3706 3.74498 40.4855 3.74362C42.2695 3.71439 44.0537 3.68312 45.8445 3.65592C46.2635 3.6498 46.3444 3.6158 46.5607 3.592C46.635 3.58452 46.7027 3.57229 46.7905 3.57025C48.1285 3.54713 49.4665 3.52538 50.8046 3.50294C51.6966 3.48798 52.5886 3.47302 53.4806 3.45874C53.9199 3.45194 53.9199 3.45126 54.5146 3.38667C54.5821 3.37919 54.6768 3.37035 54.7647 3.36831C57.3326 3.3248 59.8937 3.28333 62.4617 3.24049C62.6779 3.23709 62.8333 3.22145 62.9414 3.19833C63.0495 3.17522 63.2051 3.15958 63.4146 3.15618C65.4216 3.12218 67.4286 3.08887 69.4424 3.05691C69.8074 3.05147 70.0641 3.03515 70.2263 3.00456C70.3479 2.98144 70.4966 2.96921 70.7263 2.96581C72.7334 2.93317 74.7405 2.89849 76.7543 2.86722C77.1395 2.8611 77.3287 2.83798 77.5179 2.81079C77.5855 2.80127 77.6396 2.78563 77.7207 2.78427C78.7208 2.76523 79.7141 2.74551 80.721 2.73259C81.14 2.72715 81.282 2.6986 81.4509 2.6714C81.5861 2.64964 81.7416 2.64217 81.9984 2.63945C82.5592 2.63333 83.1133 2.62177 83.6607 2.61021C83.7418 2.60818 83.8432 2.59322 83.85 2.5837C83.8635 2.56602 83.708 2.55378 83.4512 2.54766C80.7751 2.59185 78.0924 2.63604 75.4163 2.68024C74.9771 2.68772 74.9771 2.68772 74.3824 2.75231C74.3148 2.75979 74.2201 2.76863 74.1255 2.77067C71.5576 2.81351 68.9965 2.85566 66.4285 2.8985C66.2123 2.9019 66.0569 2.91753 65.9487 2.94065C65.8406 2.96377 65.6851 2.97941 65.4756 2.98281C63.0225 3.0236 60.5695 3.06508 58.1097 3.10383C57.7448 3.10927 57.4881 3.1249 57.3259 3.15618C57.2042 3.17929 57.0556 3.19154 56.8258 3.19494C54.4809 3.23301 52.1426 3.27312 49.7909 3.30984C49.5544 3.31324 49.3788 3.29352 49.3923 3.27516C49.3991 3.26564 49.5003 3.25001 49.5814 3.24865C50.8045 3.22622 52.021 3.2031 53.2509 3.1861C53.6632 3.18066 53.7847 3.15074 53.9942 3.12559C54.0618 3.11675 54.1159 3.10519 54.2037 3.10043C54.2983 3.09499 54.42 3.09567 54.5348 3.09431C57.4339 3.04604 60.3331 2.99709 63.2389 2.95153C63.6579 2.94473 63.7388 2.91141 63.9551 2.88762C64.0294 2.87946 64.0971 2.86722 64.1849 2.86586C65.0769 2.84954 65.9689 2.83526 66.8609 2.82099C68.422 2.79515 69.983 2.76931 71.5508 2.74347C72.0035 2.736 72.0035 2.73599 72.5847 2.67208C72.6523 2.6646 72.747 2.65509 72.8348 2.65373C76.9638 2.58506 81.0928 2.51639 85.2218 2.4484C85.438 2.445 85.5935 2.42936 85.7016 2.40624C85.8097 2.3838 85.9651 2.36749 86.1746 2.36341C91.7565 2.27094 97.3316 2.17847 102.913 2.08736C103.278 2.08124 103.535 2.06696 103.697 2.035C103.812 2.01189 103.968 1.99965 104.197 1.99557C110.333 1.89426 116.469 1.79296 122.612 1.69097C126.741 1.62298 130.87 1.55363 134.999 1.487C135.378 1.48088 135.58 1.4598 135.769 1.43192C135.83 1.4224 135.891 1.40676 135.972 1.4054C136.858 1.38841 137.743 1.37277 138.628 1.35713C138.905 1.37549 139.182 1.39317 139.459 1.41153C139.669 1.38569 139.872 1.35917 140.081 1.33334C141.419 1.31362 142.737 1.28302 144.088 1.27351C144.176 1.27283 144.271 1.28575 144.365 1.29254C144.994 1.33538 145.352 1.33198 145.751 1.27487C145.893 1.25447 146.014 1.23611 146.23 1.23271C146.899 1.22047 147.575 1.21231 148.238 1.19804C148.596 1.19056 148.893 1.19735 149.15 1.22183C149.332 1.23951 149.522 1.24699 149.745 1.24291C150.975 1.22252 152.198 1.2028 153.428 1.18104C153.515 1.17968 153.596 1.16812 153.664 1.15996C153.806 1.14228 153.928 1.12325 154.063 1.10489C154.245 1.11645 154.448 1.12529 154.597 1.14025C154.786 1.15792 154.961 1.15792 155.218 1.15316C160.124 1.07089 165.037 0.990662 169.943 0.907712C170.362 0.900913 170.545 0.929472 170.829 0.94443C170.923 0.94987 171.018 0.956665 171.119 0.958025C171.227 0.959385 171.342 0.955309 171.45 0.953269C175.133 0.892077 178.816 0.831561 182.499 0.770369C182.986 0.76221 182.986 0.76221 183.709 0.804364C183.797 0.809804 183.912 0.815924 184.006 0.813884C185.682 0.787368 187.358 0.758814 189.027 0.731617C189.243 0.728218 189.426 0.739094 189.622 0.754732C190.007 0.785328 190.034 0.785331 190.318 0.740457C190.453 0.719379 190.595 0.706455 190.818 0.700336C191.061 0.693537 191.257 0.695584 191.447 0.707822C191.717 0.72482 191.913 0.753372 192.325 0.745893C194.109 0.713937 195.9 0.687423 197.677 0.654787C198.083 0.647308 198.299 0.670424 198.569 0.687421C198.664 0.693541 198.752 0.70306 198.853 0.7051C198.954 0.70714 199.076 0.702376 199.184 0.700336C201.414 0.663621 203.651 0.627592 205.874 0.588157C206.293 0.580678 206.476 0.609909 206.759 0.624867C206.854 0.630306 206.962 0.63983 207.05 0.63847C208.388 0.617393 209.733 0.594949 211.071 0.572512C211.551 0.564353 211.551 0.565033 212.28 0.606508C212.368 0.611947 212.483 0.617387 212.578 0.616027C214.139 0.590871 215.707 0.565034 217.268 0.539197C217.748 0.531038 217.748 0.53104 219.133 0.566395C219.234 0.569115 219.342 0.5732 219.444 0.57184C221.228 0.542603 223.019 0.514043 224.803 0.482767C225.161 0.476648 225.458 0.482086 225.715 0.506563C225.897 0.52424 226.087 0.531723 226.31 0.527644C228.317 0.494328 230.33 0.462374 232.331 0.427018C232.716 0.420219 232.966 0.435171 233.236 0.454889C233.324 0.461688 233.412 0.471208 233.513 0.473928C233.615 0.476648 233.73 0.473926 233.838 0.471886C235.845 0.438571 237.859 0.407296 239.859 0.371261C240.264 0.363782 240.481 0.386897 240.751 0.403895C240.845 0.410014 240.947 0.422253 241.028 0.421574C241.812 0.410015 242.596 0.39982 243.373 0.382822C243.792 0.373303 243.974 0.404574 244.258 0.419532C244.353 0.424291 244.461 0.434495 244.549 0.433135C246.225 0.406618 247.901 0.378744 249.57 0.350188C249.806 0.346108 249.982 0.352222 250.171 0.3699C250.421 0.393696 250.712 0.403216 251.077 0.395737C251.854 0.380099 252.638 0.369223 253.422 0.356305C253.881 0.348826 253.881 0.348828 255.287 0.384183C255.388 0.386903 255.496 0.390979 255.598 0.38962C256.936 0.367862 258.28 0.346787 259.612 0.32299C259.97 0.31619 260.267 0.322308 260.524 0.346785C260.706 0.364463 260.889 0.371946 261.119 0.367866C262.349 0.347469 263.572 0.32707 264.802 0.306672C265.248 0.299193 265.694 0.286272 266.14 0.286272C266.464 0.286952 266.701 0.319586 266.991 0.335904C267.072 0.340663 267.207 0.33523 267.316 0.333871C268.877 0.308034 270.444 0.284235 271.999 0.254998C272.404 0.247519 272.62 0.270635 272.891 0.287633C272.985 0.293752 273.087 0.305991 273.168 0.305311C273.729 0.297832 274.283 0.287633 274.844 0.278794C275.513 0.267915 276.188 0.259756 276.851 0.244798C277.391 0.23256 277.594 0.29171 278.026 0.29375C278.358 0.295789 278.695 0.284233 279.027 0.278794C279.696 0.267915 280.365 0.255678 281.034 0.246159C281.27 0.24276 281.453 0.231876 281.527 0.2074C281.541 0.20264 281.426 0.192446 281.351 0.186327C280.453 0.116976 280.452 0.116972 279.547 0.13193C278.986 0.141449 278.432 0.15097 277.871 0.159128C277.776 0.160488 277.668 0.155049 277.574 0.15097C277.303 0.139411 277.33 0.125814 277.56 0.101338C277.79 0.0768608 277.966 0.0469473 278.162 0.0190709C278.439 0.0367486 278.709 0.05442 278.986 0.0720977C279.209 0.0686982 279.432 0.0646247 279.655 0.0612251C280.77 0.0435474 281.885 0.0251884 283 0.00887056C283.081 0.00751073 283.183 0.021111 283.277 0.0279101C283.548 0.0476275 283.791 0.0646207 284.183 0.0571417C285.183 0.0374242 286.19 0.0231461 287.19 0.00614825C287.629 -0.00133078 287.629 -0.00133011 288.4 0.0408244C288.487 0.0455838 288.602 0.0510234 288.697 0.0496636C289.704 0.0340256 290.704 0.0170298 291.711 0.000711945C291.927 -0.00268761 292.137 0.00615091 292.292 0.0258684C292.353 0.0340273 292.339 0.0476229 292.596 0.159128C293.394 0.249557 293.941 0.240043 294.495 0.231884C294.732 0.228484 294.941 0.225081 295.096 0.211483C295.178 0.204004 295.279 0.193124 295.279 0.184285C295.279 0.177486 295.13 0.166605 295.036 0.165245C294.367 0.151647 293.731 0.180207 293.076 0.186327C292.772 0.189046 292.508 0.165249 292.454 0.126494C292.441 0.115615 292.42 0.104058 292.4 0.093179C292.38 0.0823004 292.366 0.0707426 292.346 0.059864C292.083 0.0564644 291.927 0.0687008 291.812 0.0918178C291.718 0.110855 291.582 0.132613 291.4 0.142811C291.218 0.15369 290.968 0.151654 290.745 0.155053C290.528 0.158453 290.292 0.167291 290.089 0.162531C289.886 0.157092 289.724 0.137371 289.535 0.125133C289.447 0.119014 289.339 0.110178 289.251 0.111538C288.474 0.123096 287.704 0.134651 286.933 0.149609C286.528 0.157768 286.325 0.129216 286.068 0.111538C285.866 0.0979397 285.663 0.101335 285.629 0.132611C285.541 0.207401 285.852 0.238676 286.541 0.224397C287.109 0.212159 287.622 0.210126 288.069 0.25636C288.129 0.262479 288.271 0.265197 288.359 0.263838C288.913 0.255679 289.461 0.245479 290.015 0.23732C290.116 0.23596 290.224 0.238676 290.319 0.241395C291.697 0.27811 291.697 0.278794 292.164 0.270635C292.387 0.266556 292.603 0.263156 292.583 0.159809C293.008 0.0489834 293.684 0.0415057 294.34 0.0251878C294.765 0.0149891 294.948 0.0449066 295.225 0.0605445C295.319 0.0659838 295.421 0.0768604 295.509 0.0755006C296.962 0.0530635 298.408 0.0292633 299.854 0.00410653C300.097 2.70536e-05 300.273 0.00410719 300.462 0.0217849C300.705 0.044222 300.976 0.0585031 301.361 0.0503442C302.131 0.0340263 302.915 0.02383 303.699 0.0102317C304.098 0.00343259 304.098 0.00342562 304.902 0.0455802C304.99 0.0503395 305.105 0.0557792 305.199 0.0544194C305.983 0.0428609 306.76 0.028587 307.538 0.0163486C307.754 0.012949 307.95 0.0224668 308.119 0.0408244C308.288 0.0591821 308.49 0.0686998 308.7 0.0653003C309.484 0.0530619 310.261 0.0394679 311.038 0.0272295C311.133 0.0258697 311.247 0.0306287 311.335 0.0353881C312.16 0.0775427 312.16 0.0775357 312.538 0.0707366C313.092 0.0605379 313.66 0.0557838 314.207 0.0421856C314.741 0.0285873 315.018 0.0680189 315.383 0.0897761C316.383 0.0741381 317.39 0.0612231 318.384 0.0421856C318.789 0.0340266 319.005 0.0564617 319.276 0.0741395C319.37 0.0802587 319.465 0.0931783 319.553 0.0924984C319.891 0.0897788 320.222 0.0823011 320.553 0.0768618C320.884 0.0714225 321.222 0.0659838 321.553 0.0605445C321.932 0.080262 322.182 0.126495 322.722 0.110857C323.047 0.101339 323.391 0.0992989 323.722 0.0938596C324.053 0.0884203 324.391 0.0829816 324.722 0.0775423C324.945 0.0741428 325.175 0.0721001 325.391 0.0659808C325.79 0.0557822 325.986 0.0891018 326.27 0.10406C326.365 0.108819 326.473 0.116973 326.561 0.115613C327.23 0.106094 327.905 0.097936 328.561 0.0822981C329.068 0.0700596 329.412 0.0904597 329.77 0.119016C329.845 0.125135 329.973 0.128534 330.068 0.127175C330.852 0.115616 331.629 0.101334 332.406 0.0890955C332.615 0.085696 332.818 0.0965742 332.987 0.114252C333.163 0.13261 333.359 0.141455 333.575 0.138056C334.352 0.125817 335.136 0.112215 335.913 0.0999764C336.008 0.0986166 336.123 0.104057 336.211 0.109496C336.967 0.151651 336.967 0.152331 337.413 0.144172C337.522 0.142133 337.636 0.140768 337.745 0.138728C338.299 0.129209 338.873 0.125814 339.414 0.109496C340.035 0.0911386 340.488 0.114257 340.927 0.153012C341.482 0.144853 342.049 0.140092 342.59 0.126494C342.995 0.116295 343.212 0.142131 343.482 0.159128C343.577 0.165248 343.678 0.177486 343.759 0.176126C344.543 0.164568 345.327 0.154373 346.097 0.137375C346.516 0.127856 346.699 0.158447 346.982 0.174085C347.077 0.179524 347.178 0.189048 347.266 0.187688C347.712 0.182248 348.158 0.174086 348.604 0.166607C349.125 0.157768 349.125 0.158447 349.814 0.199922C350.138 0.219639 350.463 0.204 350.78 0.199241C351.118 0.193802 351.436 0.189724 351.706 0.2176C351.875 0.235278 352.078 0.246157 352.287 0.243437C352.733 0.237318 353.186 0.231201 353.625 0.221003C353.977 0.212844 354.281 0.21828 354.537 0.243437C354.72 0.261115 354.909 0.269959 355.132 0.265879C356.132 0.249561 357.139 0.232557 358.139 0.216919C358.227 0.215559 358.349 0.221681 358.43 0.2278C358.619 0.240039 358.802 0.253634 358.984 0.267232C359.423 0.261113 359.876 0.2584 360.309 0.248882C360.768 0.239363 361.187 0.235962 361.545 0.273357C361.62 0.281516 361.728 0.293068 361.816 0.292389C362.153 0.289669 362.485 0.282872 362.816 0.277433C363.147 0.271993 363.485 0.266555 363.816 0.261115C364.201 0.278113 364.444 0.327066 364.985 0.311428C365.309 0.301909 365.654 0.29987 365.985 0.29443C366.316 0.288991 366.654 0.282872 366.985 0.278113C367.093 0.276753 367.215 0.273352 367.31 0.276071C367.411 0.278791 367.499 0.288312 367.587 0.295111C367.857 0.314828 368.107 0.334548 368.492 0.32299C368.817 0.313471 369.161 0.31143 369.492 0.305311C369.945 0.297832 369.945 0.297834 370.695 0.340668C370.999 0.358346 371.344 0.33523 371.635 0.350188C371.831 0.360386 372 0.377381 372.189 0.388939C372.27 0.393698 372.398 0.395735 372.493 0.394375C372.939 0.388256 373.392 0.38214 373.831 0.371941C374.189 0.363782 374.486 0.37194 374.736 0.396417C374.919 0.414095 375.101 0.421578 375.331 0.417498C376.446 0.398461 377.561 0.382138 378.669 0.36106C379.048 0.353581 379.352 0.365143 379.561 0.38962C379.919 0.431774 380.426 0.382142 380.798 0.416137C381.028 0.437214 381.258 0.461693 381.677 0.451494C382.447 0.433816 383.231 0.424292 384.008 0.412054C384.285 0.430411 384.562 0.448773 384.846 0.467131C385.292 0.459652 385.738 0.452168 386.184 0.445369C386.515 0.439929 386.853 0.433811 387.184 0.429052C387.292 0.427692 387.407 0.424971 387.508 0.428371C387.61 0.431771 387.691 0.440611 387.786 0.447411C388.252 0.480726 388.252 0.481409 389.022 0.467811C389.353 0.461692 389.671 0.457613 389.948 0.484809C390.205 0.509966 390.509 0.514722 390.86 0.507243C391.523 0.493645 392.192 0.483447 392.867 0.473928C393.077 0.470529 393.273 0.482087 393.449 0.499765C393.712 0.527641 394.036 0.524922 394.368 0.517443C394.807 0.507925 395.239 0.498408 395.611 0.536483C395.685 0.544642 395.8 0.556194 395.881 0.555514C396.435 0.550075 396.996 0.545998 397.537 0.53308C398.078 0.520162 398.341 0.562315 398.713 0.582712C399.267 0.573874 399.828 0.565034 400.382 0.556195C400.49 0.554155 400.618 0.548039 400.713 0.551439C401.112 0.565717 401.342 0.616709 401.889 0.601071C402.207 0.592232 402.551 0.589516 402.882 0.587476C402.97 0.586796 403.085 0.598349 403.146 0.607188C403.18 0.611948 403.146 0.624865 403.105 0.631664C402.984 0.650702 402.835 0.668385 402.727 0.688102C402.713 0.690822 402.842 0.703055 402.916 0.708494C403.099 0.720733 403.308 0.718698 403.551 0.713258C403.761 0.708499 403.977 0.718018 404.126 0.738415C404.187 0.746574 404.166 0.760171 404.038 0.805045C404.038 0.838361 404.18 0.823399 404.227 0.801642C404.301 0.770366 404.159 0.760168 403.889 0.777166C403.7 0.789405 403.605 0.807084 403.653 0.821362C403.68 0.828841 403.808 0.838361 404.038 0.805045C404.633 0.76425 405.079 0.756775 405.525 0.749296C405.64 0.747256 405.775 0.740452 405.856 0.744532C406.146 0.76085 406.417 0.78057 406.701 0.798928C407.025 0.794849 407.329 0.784645 407.647 0.811162C408.093 0.848557 408.113 0.845158 408.545 0.837679C408.768 0.8336 408.991 0.830206 409.214 0.826807C409.437 0.823407 409.613 0.833603 409.809 0.849241C410.208 0.881197 410.241 0.881194 410.505 0.837679C410.66 0.811163 410.769 0.802326 410.965 0.814565C411.613 0.856039 411.62 0.858757 412.174 0.846519C412.634 0.83632 413.066 0.833601 413.404 0.872356C413.634 0.899552 413.708 0.893434 413.891 0.864878C414.377 0.789407 414.6 0.790764 415.512 0.845157C415.938 0.870994 416.378 0.843121 416.81 0.839721C417.175 0.837001 417.432 0.853316 417.459 0.896151C417.479 0.922667 417.54 0.941708 417.783 0.950547C417.878 0.953947 417.993 0.958704 418.087 0.957345C418.648 0.949186 419.202 0.939665 419.763 0.930146C420.047 0.925387 420.202 0.893437 420.148 0.851283C420.087 0.806408 420.196 0.790085 420.601 0.777166C420.844 0.769687 421.04 0.771053 421.236 0.783291C421.453 0.79689 421.392 0.809127 421.203 0.833604C420.75 0.893436 420.804 0.930145 421.385 0.97162C421.588 0.985898 421.75 0.998822 421.797 1.0199C421.824 1.03078 421.797 1.04506 421.858 1.05321C422.189 1.09877 422.649 1.12801 423.162 1.14977C423.656 1.13141 423.993 1.162 424.372 1.18647C424.669 1.20551 425.021 1.1892 425.338 1.1824C425.696 1.17492 425.994 1.18036 426.251 1.20551C426.433 1.22319 426.622 1.23135 426.845 1.22795C427.291 1.22047 427.744 1.21571 428.183 1.20483C428.562 1.19531 428.845 1.20891 429.082 1.23203C429.379 1.26127 429.711 1.24155 430.021 1.24563C430.44 1.25039 430.65 1.3109 431.197 1.29458C431.522 1.28506 431.859 1.28166 432.197 1.27894C432.285 1.27826 432.393 1.28982 432.468 1.29798C432.826 1.33538 433.245 1.33334 433.704 1.32246C434.022 1.31498 434.333 1.30818 434.644 1.33402C435.157 1.37753 435.725 1.41561 436.266 1.45573C436.34 1.487 436.286 1.52371 436.671 1.54207C436.874 1.55159 437.063 1.56587 437.218 1.58151C437.408 1.59987 437.583 1.60463 437.826 1.59987C438.266 1.59035 438.725 1.5883 439.158 1.57606C439.557 1.56518 439.807 1.58763 440.05 1.60871C440.246 1.6257 440.428 1.63386 440.665 1.62162C440.908 1.61006 441.084 1.61754 441.28 1.6359C441.557 1.66105 441.577 1.65834 442.496 1.66582C442.591 1.6665 442.706 1.67669 442.76 1.68553C442.787 1.69029 442.726 1.70389 442.679 1.71069C442.618 1.71885 442.523 1.72836 442.435 1.7304C441.435 1.74808 440.428 1.76372 439.428 1.7814C439.327 1.78344 439.219 1.7882 439.144 1.795C439.063 1.80248 438.962 1.81267 438.962 1.82219C438.962 1.82899 439.097 1.83715 439.192 1.84191C439.489 1.85755 439.84 1.83375 440.131 1.85143C440.327 1.86299 440.489 1.8793 440.685 1.89018C440.766 1.89494 440.895 1.89426 440.996 1.8929C441.334 1.88814 441.665 1.88135 442.003 1.87727C442.097 1.87659 442.206 1.88339 442.293 1.88883C442.942 1.92962 442.942 1.92962 443.503 1.92078C443.726 1.91738 443.963 1.90718 444.172 1.91126C444.375 1.91534 444.551 1.9337 444.733 1.94526C445.111 1.96974 445.47 1.99353 445.497 2.04657C445.51 2.06696 445.733 2.08464 445.956 2.086C446.172 2.08736 446.402 2.07988 446.625 2.0758C447.152 2.06765 447.152 2.06765 447.835 2.10912C448.024 2.12068 448.227 2.12204 448.47 2.11524C448.565 2.11252 448.68 2.11524 448.781 2.11864C449.112 2.12884 449.112 2.14175 448.896 2.16623C448.592 2.20227 448.619 2.20567 449.47 2.23626C449.794 2.24782 450.044 2.26958 450.315 2.28862C450.754 2.31921 450.747 2.31921 450.457 2.35932C450.389 2.36816 450.328 2.37768 450.261 2.3872C450.065 2.41372 449.909 2.44227 449.504 2.44499C449.058 2.44771 448.612 2.45859 448.166 2.46607C447.733 2.47355 447.618 2.48986 447.659 2.5361C447.706 2.59185 447.794 2.59797 448.571 2.59729C448.794 2.59729 448.99 2.60273 449.159 2.62109C449.078 2.64284 448.93 2.65984 448.713 2.66392C448.159 2.67412 447.598 2.68296 447.044 2.6918C446.598 2.69928 446.152 2.70676 445.706 2.71424C445.429 2.71899 445.253 2.75435 445.328 2.79379C445.368 2.81622 445.402 2.83866 445.436 2.8611C445.51 2.90597 445.652 2.91753 446.105 2.91549C446.22 2.91481 446.328 2.90937 446.436 2.91073C446.875 2.91549 447.085 2.97192 447.612 2.96036C448.051 2.95084 448.511 2.94881 448.943 2.93657C449.342 2.92569 449.565 2.95017 449.842 2.96853C449.936 2.97465 450.038 2.98756 450.119 2.98688C450.68 2.9794 451.241 2.97193 451.788 2.95901C452.045 2.95357 452.2 2.95765 452.403 2.97397C452.889 3.0134 452.903 3.01136 453.626 2.99912C454.153 2.9896 454.16 2.99096 454.836 3.03244C455.025 3.044 455.228 3.04399 455.471 3.03855C455.789 3.03176 456.12 3.02088 456.451 3.03108C456.552 3.0338 456.681 3.04196 456.714 3.0508C456.735 3.05692 456.64 3.07187 456.559 3.07663C455.964 3.11199 455.268 3.10587 454.62 3.12015C454.417 3.12423 454.214 3.11131 454.045 3.09295C453.869 3.07459 453.68 3.06712 453.45 3.07052C453.004 3.078 452.552 3.08275 452.112 3.09363C451.734 3.10315 451.47 3.08751 451.207 3.06643C451.119 3.05963 451.018 3.04671 450.93 3.04739C449.93 3.06099 448.923 3.07459 447.929 3.09363C447.531 3.10179 447.301 3.08003 447.031 3.06168C446.936 3.05556 446.841 3.04264 446.754 3.04332C446.416 3.04604 446.085 3.05352 445.747 3.05895C444.517 3.07935 443.293 3.09975 442.064 3.11879C441.982 3.12015 441.881 3.10587 441.787 3.09975C441.604 3.08751 441.415 3.07595 441.226 3.06439C440.888 3.06983 440.557 3.07663 440.219 3.08071C439.975 3.08343 439.759 3.09295 439.725 3.11879C439.705 3.13579 439.928 3.15142 440.165 3.15006C440.395 3.1487 440.624 3.14054 440.814 3.14938C441.753 3.19289 441.753 3.19358 442.341 3.18474C442.854 3.17658 442.8 3.16978 443.253 3.20717C443.449 3.22349 443.625 3.23301 443.848 3.22893C444.402 3.21941 444.963 3.20989 445.524 3.20173C445.611 3.20038 445.726 3.20718 445.814 3.21262C446.476 3.25341 446.476 3.25477 447.024 3.24457C447.74 3.23233 447.767 3.22893 448.247 3.27041C448.578 3.29896 448.882 3.27924 449.2 3.27788C449.565 3.3044 449.964 3.3282 450.295 3.35812C450.687 3.39347 451.099 3.38735 451.545 3.37715C451.876 3.36967 452.2 3.36695 452.471 3.39483C452.727 3.42066 453.038 3.42339 453.39 3.41659C453.707 3.41047 454.032 3.39755 454.363 3.41251C454.451 3.41659 454.586 3.42679 454.579 3.43291C454.572 3.44243 454.484 3.45603 454.396 3.4601C453.775 3.48798 453.092 3.4873 452.437 3.50022C452.349 3.50226 452.234 3.49478 452.146 3.48934C451.957 3.4771 451.775 3.46282 451.592 3.4499C451.261 3.45398 450.923 3.45534 450.599 3.4635C450.349 3.46962 450.159 3.46894 449.977 3.45263C449.808 3.43767 449.626 3.41931 449.423 3.41455C449.22 3.40979 448.984 3.41999 448.761 3.42407C448.538 3.42815 448.281 3.4261 448.105 3.43698C447.929 3.44786 447.821 3.47166 447.706 3.4907C447.578 3.51177 447.402 3.51858 447.145 3.52062C446.909 3.52266 446.72 3.51994 446.544 3.5009C446.47 3.49274 446.368 3.48662 446.267 3.48118C446.172 3.47642 446.064 3.46894 445.976 3.4703C444.969 3.48593 443.969 3.50294 442.962 3.51926C442.462 3.52742 442.469 3.52741 441.428 3.48729C441.334 3.4839 441.219 3.47914 441.124 3.4805C440.563 3.48866 440.009 3.49818 439.448 3.5077C438.881 3.51721 438.888 3.51585 437.921 3.47302C437.745 3.46486 437.489 3.47574 437.279 3.47438C436.84 3.47098 436.624 3.41387 436.11 3.42475C435.671 3.43427 435.211 3.4363 434.772 3.44854C434.373 3.45942 434.144 3.43563 433.873 3.41727C433.779 3.41115 433.677 3.39755 433.596 3.39891C432.589 3.41387 431.589 3.43087 430.251 3.43291C429.92 3.43291 430.069 3.44719 430.285 3.45195C430.596 3.45943 430.697 3.44515 430.528 3.41795C430.407 3.39891 430.231 3.38939 430.089 3.39415C430.015 3.39687 429.92 3.40979 430.251 3.43291C430.602 3.45874 430.582 3.47302 430.643 3.48118C430.792 3.5009 431.001 3.50905 431.218 3.50633C431.555 3.50157 431.887 3.49478 432.224 3.4907C432.319 3.48934 432.434 3.4941 432.522 3.49954C433.265 3.54169 433.272 3.54441 434.063 3.5281C434.313 3.52334 434.495 3.52334 434.691 3.53625C434.961 3.55393 435.157 3.58384 435.569 3.57433C436.117 3.56141 436.678 3.55393 437.239 3.54645C437.326 3.5451 437.421 3.55733 437.522 3.56277C437.799 3.57909 438.002 3.60969 438.414 3.59677C438.732 3.58657 439.077 3.58384 439.415 3.5818C439.502 3.58112 439.638 3.592 439.678 3.60084C439.759 3.61648 439.658 3.63484 439.428 3.64776C439.334 3.6532 439.205 3.65184 439.097 3.65388C438.651 3.66136 438.205 3.66951 437.759 3.67563C437.522 3.67903 437.299 3.68923 437.272 3.71439C437.252 3.73139 437.495 3.74634 437.725 3.74498C438.063 3.74294 438.401 3.73751 438.725 3.72867C439.3 3.71371 439.8 3.71779 440.266 3.76062C440.597 3.79054 440.577 3.77966 440.928 3.86805C441.016 3.89049 441.28 3.89253 441.51 3.89117C442.064 3.88777 442.32 3.89797 442.273 3.91905C442.212 3.94488 442.016 3.95304 441.766 3.95644C441.32 3.96187 440.874 3.97072 440.428 3.9782C440.32 3.98024 440.199 3.98431 440.097 3.98295C439.996 3.98159 439.901 3.97344 439.813 3.96732C439.624 3.9544 439.462 3.93468 439.259 3.92992C439.056 3.92516 438.82 3.93536 438.597 3.93944C438.374 3.94284 438.137 3.95304 437.935 3.94828C437.732 3.94352 437.563 3.92313 437.381 3.91089C437.293 3.90477 437.185 3.89524 437.097 3.89592C436.651 3.90136 436.205 3.9102 435.759 3.917C435.211 3.92584 435.211 3.92584 434.549 3.88369C434.36 3.87145 434.164 3.87213 433.914 3.87757C433.373 3.88845 433.366 3.88641 432.38 3.84697C432.285 3.84289 432.17 3.83813 432.076 3.84017C431.069 3.85581 430.069 3.87281 429.068 3.88912C428.21 3.9034 428.21 3.90341 427.737 3.9714C427.386 4.02171 427.379 4.02171 427.724 4.04483C428.001 4.06387 428.251 4.09174 428.555 4.10194C428.839 4.11146 429.19 4.08086 429.501 4.11214C429.656 4.12778 429.859 4.14478 430.055 4.14749C430.366 4.15089 430.697 4.13117 430.995 4.16109C431.143 4.17605 431.366 4.19169 431.555 4.19237C431.887 4.19373 432.224 4.18285 432.556 4.17809C432.657 4.17673 432.772 4.17673 432.866 4.18013C432.968 4.18421 433.056 4.19237 433.143 4.19917C433.414 4.22229 433.704 4.23316 434.056 4.2216C434.63 4.20257 435.144 4.21208 435.59 4.2556C435.651 4.26172 435.799 4.2624 435.894 4.25968C436.137 4.25288 436.347 4.2522 436.529 4.26512C436.603 4.27056 436.711 4.28007 436.698 4.28619C436.678 4.29639 436.597 4.30999 436.509 4.31339C435.874 4.33651 435.191 4.33923 434.536 4.35147C434.448 4.35283 434.34 4.34398 434.252 4.33787C434.063 4.32563 433.9 4.30523 433.698 4.30048C433.495 4.29572 433.258 4.30455 433.035 4.30795C432.812 4.31135 432.576 4.32155 432.373 4.31747C432.17 4.31271 431.981 4.29571 431.819 4.28076C431.63 4.26376 431.447 4.26172 431.197 4.26852C430.873 4.27736 430.535 4.27872 430.204 4.28348C430.021 4.27056 429.839 4.25628 429.65 4.24404C429.562 4.23792 429.454 4.23044 429.359 4.23112C428.913 4.23656 428.467 4.24472 428.021 4.2522C427.575 4.25967 427.575 4.25968 426.818 4.21753C426.73 4.21277 426.615 4.20733 426.521 4.20869C425.96 4.21685 425.406 4.22704 424.845 4.2352C424.629 4.2386 424.433 4.22908 424.257 4.21072C424.088 4.19236 423.885 4.18217 423.676 4.18557C422.784 4.19984 421.892 4.21344 421 4.23044C420.642 4.23724 420.337 4.23112 420.094 4.20665C419.81 4.17877 419.493 4.18557 419.162 4.19101C418.412 4.20461 418.405 4.20392 417.925 4.16925C417.83 4.16245 417.736 4.14953 417.648 4.15021C416.871 4.16041 416.087 4.16993 415.317 4.18625C414.911 4.19509 414.695 4.17129 414.425 4.15361C414.33 4.14749 414.229 4.13457 414.148 4.13593C413.587 4.14341 413.026 4.15021 412.478 4.16381C411.931 4.17741 411.721 4.11418 411.309 4.11486C410.748 4.11554 410.194 4.13118 409.64 4.1407C409.194 4.14818 408.748 4.15565 408.302 4.16313C407.856 4.17061 407.41 4.17673 406.964 4.18557C406.727 4.19032 406.552 4.1842 406.356 4.16721C406.106 4.14477 405.809 4.1271 405.538 4.1067C405.126 4.07747 405.126 4.07746 404.626 4.08562C404.518 4.08766 404.403 4.08902 404.295 4.09106C403.477 4.10601 403.477 4.10466 402.436 4.06183C402.389 4.05979 402.267 4.06727 402.22 4.07271C402.078 4.09038 401.95 4.10942 401.821 4.12777C401.639 4.1169 401.416 4.11078 401.294 4.09514C400.95 4.05095 400.409 4.11146 400.058 4.06794C399.929 4.05162 399.706 4.03735 399.503 4.03327C399.294 4.02919 399.057 4.03871 398.841 4.04279C398.28 4.05298 398.28 4.05231 397.8 4.11282C397.557 4.14274 397.206 4.13729 396.888 4.14409C396.557 4.15157 396.239 4.15565 395.962 4.12777C395.712 4.10262 395.408 4.0965 395.05 4.10466C394.611 4.11486 394.158 4.12098 393.712 4.12709C393.618 4.12845 393.503 4.12506 393.408 4.12098C392.374 4.08086 392.374 4.08018 391.874 4.08902C391.651 4.0931 391.421 4.09446 391.205 4.10058C390.84 4.11146 390.563 4.09718 390.299 4.07542C390.212 4.06862 390.11 4.05571 390.022 4.05639C389.576 4.05979 389.137 4.06591 388.698 4.07203C388.36 4.07679 388.022 4.0795 387.698 4.08902C387.157 4.10466 386.894 4.06046 386.522 4.04006C385.968 4.0489 385.407 4.05502 384.853 4.06726C384.596 4.0727 384.427 4.07067 384.231 4.05435C383.981 4.03395 383.751 4.01083 383.346 4.02103C382.805 4.03463 382.237 4.03939 381.683 4.04755C381.312 4.02647 381.041 3.98363 380.508 3.99927C380.183 4.00879 379.839 4.01083 379.507 4.01627C379.061 4.02375 378.615 4.03055 378.169 4.03871C377.69 4.04687 377.696 4.04483 376.96 4.00471C376.534 3.98092 376.095 4.00743 375.662 4.01151C375.324 4.01491 375.155 4.04619 375.236 4.0863C375.318 4.12642 375.135 4.15769 374.824 4.16313C374.047 4.17605 373.263 4.18964 372.486 4.2012C372.391 4.20256 372.277 4.1978 372.189 4.19304C371.358 4.15021 371.358 4.1509 370.986 4.15701C370.432 4.16721 369.864 4.17265 369.317 4.18557C368.938 4.1944 368.661 4.18013 368.418 4.15701C368.229 4.13934 368.053 4.13526 367.81 4.13934C365.134 4.18489 362.458 4.22704 359.788 4.27396C359.39 4.28076 359.16 4.26104 358.89 4.24268C358.795 4.23657 358.707 4.22364 358.612 4.22364C358.389 4.22364 358.166 4.22977 357.943 4.23385C356.943 4.25016 355.943 4.26988 354.936 4.28212C354.51 4.28756 354.396 4.31883 354.213 4.34467C354.071 4.36439 353.909 4.37254 353.659 4.37526C353.416 4.37798 353.24 4.37458 353.051 4.3569C352.807 4.33379 352.531 4.31951 352.152 4.32903C351.713 4.3399 351.267 4.34467 350.814 4.35215C350.584 4.35555 350.409 4.36778 350.334 4.39226C350.321 4.39634 350.463 4.40654 350.544 4.41266C350.814 4.43306 351.071 4.45686 351.375 4.47113C351.686 4.48541 352.024 4.46909 352.348 4.46501C352.463 4.46365 352.571 4.45957 352.679 4.46025C352.78 4.46093 352.902 4.46433 352.977 4.47045C353.328 4.50105 353.699 4.52213 354.186 4.50377C354.605 4.51261 354.821 4.56904 355.355 4.55408C355.68 4.54524 356.018 4.54116 356.355 4.53776C356.443 4.53708 356.538 4.54932 356.632 4.55544C356.903 4.57244 357.119 4.59963 357.524 4.58808C357.957 4.57584 358.416 4.5738 358.856 4.56428C359.099 4.55884 359.275 4.5636 359.464 4.58128C359.707 4.60372 359.984 4.62071 360.363 4.60983C360.687 4.60031 361.032 4.59827 361.363 4.59215C361.795 4.58467 361.795 4.58535 362.566 4.62751C362.654 4.63227 362.768 4.63771 362.863 4.63635C363.424 4.62819 363.978 4.61799 364.539 4.60983C364.755 4.60643 364.965 4.61527 365.113 4.63499C365.174 4.64315 365.154 4.65675 365.174 4.66831C364.059 4.68667 362.944 4.7023 361.836 4.72474C361.417 4.73358 361.228 4.7057 360.951 4.69006C360.856 4.68462 360.755 4.67307 360.667 4.67443C359.883 4.68599 359.106 4.69822 358.329 4.71318C358.085 4.71794 357.903 4.71522 357.72 4.6955C357.254 4.64315 356.687 4.6717 356.159 4.67918C355.754 4.68462 355.626 4.7057 355.673 4.75058C355.734 4.80361 355.977 4.81993 356.599 4.81041C356.822 4.80701 357.045 4.80225 357.268 4.79953C357.484 4.79681 357.68 4.80565 357.856 4.824C358.025 4.84236 358.227 4.85188 358.437 4.84916C358.883 4.84304 359.335 4.83692 359.768 4.82673C360.126 4.81857 360.423 4.82536 360.674 4.85052C360.951 4.8784 361.275 4.87228 361.599 4.86616C362.356 4.85256 362.363 4.85324 362.836 4.88724C362.931 4.89404 363.025 4.90696 363.113 4.90628C363.89 4.89608 364.674 4.88724 365.438 4.87092C365.836 4.86276 366.066 4.88452 366.33 4.9022C366.424 4.90831 366.519 4.92191 366.607 4.92055C367.168 4.91308 367.729 4.90559 368.276 4.89268C368.533 4.88656 368.688 4.89063 368.898 4.90695C369.398 4.94707 369.411 4.94571 370.121 4.93279C370.337 4.92871 370.574 4.92123 370.776 4.92667C370.979 4.93211 371.141 4.95183 371.33 4.96407C371.418 4.96951 371.526 4.97698 371.621 4.97562C372.067 4.97018 372.513 4.96203 372.959 4.95455C373.378 4.94707 373.378 4.94775 374.162 4.98991C374.48 5.00758 374.811 4.99262 375.128 4.98718C375.473 4.98107 375.784 4.98107 376.047 5.00759C376.311 5.0341 376.629 5.03274 376.966 5.0273C377.284 5.02186 377.608 5.00691 377.933 5.02526C378.676 5.06742 378.676 5.06809 379.136 5.05993C379.805 5.04837 380.467 5.0375 381.143 5.0273C381.231 5.02594 381.345 5.0341 381.433 5.03954C381.622 5.05178 381.785 5.07217 381.987 5.07693C382.19 5.08237 382.427 5.07421 382.643 5.07013C383.339 5.05721 383.386 5.05246 383.853 5.09733C384.245 5.13405 384.731 5.08101 385.096 5.12317C385.306 5.14696 385.589 5.166 385.981 5.15444C386.306 5.14492 386.643 5.1422 386.981 5.13676C387.515 5.12792 387.515 5.12861 388.191 5.1694C388.279 5.17484 388.394 5.18164 388.482 5.18028C388.928 5.17484 389.38 5.17008 389.813 5.15784C390.32 5.14356 390.644 5.1694 391.022 5.19456C391.32 5.21428 391.671 5.19796 391.989 5.19116C392.334 5.18436 392.644 5.18639 392.901 5.21291C393.171 5.24011 393.489 5.23671 393.827 5.23127C394.145 5.22651 394.469 5.21087 394.793 5.22991C395.489 5.27206 395.489 5.27206 395.996 5.26391C396.442 5.25643 396.888 5.24827 397.334 5.24283C397.422 5.24147 397.53 5.25031 397.618 5.25643C397.807 5.26867 397.969 5.28907 398.172 5.29383C398.375 5.29858 398.611 5.28975 398.834 5.28635C399.057 5.28295 399.294 5.27275 399.497 5.27683C399.699 5.28091 399.889 5.29791 400.051 5.31286C400.24 5.33054 400.416 5.33258 400.672 5.32578C400.997 5.31694 401.335 5.3149 401.666 5.31014C401.848 5.32306 402.038 5.33598 402.213 5.35026C402.396 5.36521 402.592 5.36385 402.842 5.35909C403.673 5.34278 403.68 5.34482 404.376 5.38697C404.693 5.40601 405.025 5.39037 405.342 5.38561C405.68 5.38017 405.998 5.37745 406.261 5.40465C406.518 5.43049 406.836 5.43388 407.173 5.42572C407.39 5.42028 407.62 5.41689 407.842 5.41485C407.944 5.41417 408.065 5.41689 408.14 5.42233C408.498 5.45089 408.849 5.47672 409.343 5.45837C409.775 5.46381 409.991 5.51956 410.512 5.50868C410.951 5.49916 411.411 5.49711 411.843 5.48488C412.242 5.474 412.526 5.49304 412.728 5.51684C413.093 5.55899 413.607 5.50188 413.972 5.54336C414.181 5.56715 414.452 5.58619 414.857 5.57599C415.303 5.56511 415.445 5.57939 415.573 5.62222C415.648 5.6467 415.634 5.66642 415.499 5.68546C415.364 5.70517 415.215 5.70178 414.999 5.67934C414.749 5.65418 414.452 5.64942 414.093 5.65485C413.742 5.66029 413.526 5.62495 413.235 5.61135C412.945 5.59707 412.6 5.62087 412.296 5.60251C411.58 5.55967 411.58 5.55967 411.093 5.56783C410.762 5.57327 410.417 5.57599 410.093 5.58551C409.708 5.59707 409.458 5.57599 409.194 5.55695C409.099 5.55015 409.005 5.53723 408.924 5.53791C408.147 5.54811 407.363 5.55763 406.592 5.57463C406.187 5.58347 405.971 5.55899 405.7 5.542C405.606 5.53588 405.504 5.52364 405.423 5.525C404.754 5.53452 404.092 5.54675 403.423 5.55831C403.295 5.57667 403.153 5.59434 403.031 5.61406C402.903 5.63446 402.727 5.6433 402.47 5.64262C402.044 5.64262 401.625 5.67118 401.2 5.63514C400.76 5.59843 400.727 5.60047 400.301 5.60931C399.76 5.62086 399.186 5.61815 398.679 5.64466C398.591 5.64942 398.497 5.66233 398.497 5.67185C398.49 5.67797 398.632 5.68681 398.72 5.69225C399.017 5.70857 399.361 5.68477 399.659 5.70177C399.855 5.71265 400.017 5.72897 400.213 5.74052C400.294 5.74528 400.416 5.74461 400.524 5.74393C400.639 5.74325 400.747 5.73849 400.855 5.73917C400.956 5.73985 401.065 5.74392 401.146 5.75004C401.517 5.77588 401.909 5.79968 402.24 5.83028C402.565 5.86019 402.869 5.8398 403.193 5.83844C404.491 5.88603 404.491 5.88671 405.362 5.87175C405.579 5.86835 405.802 5.86427 406.025 5.86495C406.119 5.86495 406.207 5.87719 406.302 5.88398C406.572 5.90438 406.829 5.92274 407.207 5.91186C407.532 5.90234 407.876 5.9003 408.207 5.89418C408.653 5.88671 408.653 5.88671 409.41 5.92954C409.6 5.94042 409.802 5.93906 410.046 5.93362C410.255 5.92887 410.471 5.93906 410.62 5.95878C410.681 5.96694 410.66 5.98054 410.681 5.9921C410.012 6.00297 409.336 6.01045 408.687 6.02677C408.268 6.03697 408.079 6.00773 407.802 5.9921C407.707 5.98666 407.606 5.9751 407.518 5.97646C406.856 5.98666 406.194 5.99821 405.531 6.01181C405.45 6.01317 405.349 6.02881 405.342 6.03833C405.329 6.056 405.497 6.073 405.741 6.07232C406.065 6.07164 406.383 6.06008 406.673 6.08796C406.917 6.11243 407.221 6.12332 407.579 6.11244C407.795 6.10632 408.025 6.10632 408.241 6.10088C408.816 6.08456 409.336 6.08796 409.768 6.1342C410.099 6.14643 410.424 6.13488 410.742 6.12876C410.978 6.124 411.208 6.11924 411.377 6.13215C411.735 6.15935 412.086 6.18655 412.58 6.16819C413.114 6.18723 413.519 6.22734 413.965 6.25998C414.175 6.27562 414.337 6.28446 414.58 6.27426C414.681 6.27018 414.803 6.27018 414.911 6.26814C415.134 6.26474 415.371 6.25454 415.573 6.25862C415.776 6.26338 415.945 6.2831 416.128 6.29533C416.215 6.30145 416.317 6.31165 416.405 6.31097C416.742 6.30757 417.074 6.30077 417.405 6.29533C417.736 6.29058 418.067 6.28582 418.398 6.28106C418.675 6.29874 418.959 6.31642 419.236 6.33409C419.682 6.32661 420.128 6.31913 420.567 6.31233C421.061 6.30417 421.061 6.30485 421.77 6.34701C422.088 6.36605 422.426 6.35381 422.73 6.34497C423.237 6.33069 423.575 6.35653 423.933 6.38373C424.007 6.38917 424.142 6.39256 424.23 6.38984C424.581 6.38032 424.885 6.3878 425.142 6.41296C425.325 6.43064 425.507 6.4388 425.73 6.4354C426.507 6.42248 427.284 6.40888 428.062 6.39732C428.156 6.39596 428.264 6.40208 428.352 6.40752C429.041 6.449 429.048 6.45103 429.555 6.44016C430.008 6.43064 430.427 6.42656 430.785 6.46395C430.859 6.47211 430.974 6.48367 431.055 6.48299C431.609 6.47619 432.17 6.46871 432.718 6.45715C432.968 6.45171 433.143 6.45376 433.339 6.4694C433.589 6.48911 433.812 6.51291 434.225 6.50407C435.367 6.47892 435.374 6.48299 436.725 6.5299C436.82 6.5333 436.948 6.52786 437.056 6.52515C437.286 6.51835 437.455 6.52787 437.658 6.5435C438.11 6.57886 438.124 6.57682 438.556 6.56934C438.887 6.56322 439.232 6.56186 439.556 6.55166C440.057 6.5367 440.388 6.56322 440.759 6.58838C441.057 6.6081 441.401 6.59178 441.719 6.58566C442.064 6.57886 442.375 6.58089 442.631 6.60673C442.807 6.62441 442.996 6.63393 443.219 6.63053C443.996 6.6183 444.774 6.60469 445.551 6.59246C445.645 6.5911 445.76 6.59654 445.848 6.60129C446.618 6.64345 446.618 6.64549 447.382 6.62985C447.625 6.62509 447.828 6.62373 448.01 6.63801C448.186 6.65161 448.375 6.66453 448.558 6.67744C448.889 6.67269 449.227 6.67133 449.551 6.66317C449.801 6.65705 449.977 6.65977 450.173 6.67405C450.43 6.69241 450.646 6.72436 451.051 6.70872C451.261 6.70124 451.504 6.70328 451.714 6.69648C451.964 6.68765 452.133 6.69308 452.329 6.71076C452.572 6.73184 452.822 6.75359 453.214 6.74271C453.646 6.73047 454.106 6.72844 454.545 6.71892C454.788 6.71348 454.957 6.71892 455.153 6.7366C455.397 6.75903 455.674 6.77331 456.052 6.76448C456.823 6.74748 456.829 6.75087 457.579 6.79371C457.769 6.80459 457.971 6.80323 458.215 6.79779C458.424 6.79303 458.64 6.80323 458.789 6.82295C458.931 6.8447 458.917 6.8583 458.931 6.86986ZM398.713 0.737734C398.49 0.741134 398.267 0.745213 397.942 0.68606C397.922 0.675862 397.936 0.663626 397.888 0.654787C397.78 0.636429 397.611 0.623512 397.409 0.621472C397.044 0.618752 396.604 0.641865 396.611 0.659543C396.618 0.674501 396.733 0.687417 396.956 0.699655C397.05 0.704415 397.125 0.712575 397.213 0.718014C397.469 0.733652 397.672 0.764253 398.044 0.748615C397.976 0.706461 398.01 0.727538 398.044 0.748615C398.01 0.774452 398.111 0.79281 398.355 0.800289C398.422 0.802329 398.524 0.800966 398.578 0.796886C398.787 0.781928 398.821 0.761535 398.665 0.707822C398.638 0.716661 398.659 0.732294 398.72 0.736373C398.78 0.740453 398.929 0.737057 399.003 0.732298C399.193 0.71938 399.287 0.70238 399.24 0.688102C399.213 0.680623 399.084 0.671104 399.003 0.671104C398.861 0.671104 398.733 0.686061 398.713 0.737734ZM453.356 8.62267C452.862 8.63559 452.295 8.63083 451.802 8.65735C451.714 8.66211 451.626 8.67435 451.619 8.68387C451.612 8.68999 451.748 8.69883 451.829 8.70359C452.011 8.71446 452.214 8.71106 452.45 8.70766C452.808 8.7029 453.018 8.73418 453.295 8.74981C453.383 8.75457 453.498 8.75797 453.592 8.75661C454.14 8.74845 454.68 8.73962 455.228 8.7301C455.322 8.72806 455.424 8.7233 455.505 8.71718C455.775 8.69746 455.748 8.68455 455.484 8.66959C455.194 8.65327 454.964 8.62607 454.667 8.61315C454.241 8.59479 453.809 8.61927 453.356 8.62267ZM414.979 9.11901C414.648 9.12445 414.323 9.12989 413.992 9.13533C413.884 9.13737 413.769 9.13805 413.668 9.14076C413.458 9.14552 413.303 9.1598 413.201 9.18224C413.357 9.19992 413.546 9.21012 413.756 9.20808C414.087 9.204 414.411 9.19516 414.742 9.19312C415.1 9.1904 415.31 9.221 415.587 9.23663C415.675 9.24139 415.783 9.24207 415.884 9.24275C416.384 9.24547 416.688 9.21012 416.594 9.16048C416.526 9.12173 416.269 9.09861 415.959 9.10337C415.634 9.10813 415.303 9.11357 414.979 9.11901ZM455.667 7.61776C455.748 7.6062 455.836 7.59805 455.876 7.58785C455.998 7.55317 455.951 7.52733 455.728 7.50014C455.457 7.46682 455.126 7.48926 454.822 7.49266C454.748 7.49334 454.667 7.50762 454.626 7.51645C454.599 7.52257 454.599 7.5355 454.64 7.5389C454.971 7.56609 455.322 7.59124 455.667 7.61776ZM397.044 5.60931C396.719 5.61474 396.388 5.61882 396.064 5.6263C395.983 5.62834 395.908 5.64126 395.861 5.6501C395.773 5.66642 395.868 5.68885 396.145 5.69089C396.462 5.69361 396.794 5.68206 397.125 5.67662C397.544 5.66982 397.794 5.64466 397.638 5.6229C397.49 5.60182 397.287 5.59775 397.044 5.60931ZM41.3235 4.15633C41.5397 4.15293 41.7627 4.15021 41.9789 4.14545C42.1817 4.14069 42.3372 4.12574 42.4386 4.1033C42.2696 4.08562 42.0804 4.0761 41.8709 4.07814C41.5397 4.08222 41.2154 4.08766 40.891 4.09446C40.6883 4.09854 40.4924 4.1135 40.4451 4.13661C40.3978 4.15429 40.8504 4.16449 41.3235 4.15633ZM368.465 4.05162C368.553 4.05774 368.641 4.06998 368.729 4.06998C368.945 4.06998 369.168 4.0659 369.371 4.0591C369.459 4.05638 369.526 4.04415 369.567 4.03463C369.594 4.02851 369.587 4.01763 369.547 4.01219C369.351 3.97956 368.567 3.99112 368.438 4.02851C368.425 4.03531 368.458 4.04415 368.465 4.05162ZM347.145 0.328426C347.165 0.339305 347.172 0.350182 347.199 0.36106C347.253 0.381458 347.401 0.396419 347.618 0.406617C347.786 0.38962 347.874 0.370585 347.868 0.350188C347.861 0.339309 347.841 0.328424 347.814 0.317545C347.759 0.297148 347.611 0.282195 347.395 0.271996C347.226 0.288314 347.145 0.307349 347.145 0.328426ZM471.284 9.23732C471.223 9.24615 471.162 9.25499 471.095 9.26315C471.277 9.28287 471.446 9.28899 471.575 9.27811C471.656 9.27131 471.703 9.26111 471.764 9.25227C471.581 9.23255 471.419 9.22712 471.284 9.23732ZM467.081 9.32978C467.169 9.3359 467.25 9.34406 467.344 9.34814C467.5 9.35494 467.642 9.34338 467.75 9.3189C467.662 9.31278 467.581 9.30462 467.486 9.30054C467.331 9.29374 467.189 9.30531 467.081 9.32978ZM469.743 9.20536C469.696 9.22168 469.791 9.23528 470.041 9.24683C470.102 9.238 470.183 9.22984 470.223 9.22032C470.291 9.20468 470.176 9.1904 469.932 9.17952C469.865 9.18768 469.804 9.19652 469.743 9.20536ZM455.478 8.47241C455.43 8.48873 455.525 8.50233 455.775 8.51389C455.836 8.50505 455.917 8.49689 455.958 8.48737C456.025 8.47173 455.91 8.45746 455.667 8.44658C455.599 8.45474 455.539 8.46358 455.478 8.47241ZM436.043 3.66136C435.982 3.67019 435.921 3.67903 435.853 3.68719C436.036 3.70691 436.205 3.71303 436.333 3.70215C436.414 3.69535 436.461 3.68515 436.522 3.67631C436.34 3.65659 436.178 3.65116 436.043 3.66136ZM417.425 1.10896C417.587 1.11372 417.722 1.10421 417.837 1.07905C417.749 1.07293 417.668 1.06477 417.574 1.06069C417.418 1.05389 417.276 1.06546 417.168 1.08993C417.256 1.09673 417.344 1.10284 417.425 1.10896ZM407.538 0.949186C407.478 0.958025 407.417 0.966864 407.349 0.975023C407.532 0.99474 407.701 1.00086 407.829 0.989979C407.91 0.98318 407.957 0.972981 408.018 0.964142C407.836 0.944425 407.674 0.939667 407.538 0.949186ZM340.495 0.327745C340.434 0.336584 340.373 0.345423 340.306 0.353582C340.488 0.3733 340.657 0.379417 340.786 0.368538C340.867 0.361739 340.914 0.35154 340.975 0.342701C340.792 0.322984 340.63 0.318227 340.495 0.327745ZM6.66979 5.85951C6.58194 5.85339 6.49417 5.84728 6.41308 5.84048C6.2171 5.85883 6.1563 5.87583 6.26443 5.88875C6.33201 5.89691 6.43329 5.90167 6.52114 5.90779C6.72388 5.88943 6.77116 5.87311 6.66979 5.85951Z" fill="#99CFFF"/>
<path d="M45.8661 3.45907C45.0889 3.47199 44.3186 3.48831 43.5415 3.49646C43.1292 3.50054 42.9807 3.52978 42.8117 3.55698C42.6766 3.57873 42.5211 3.58553 42.2711 3.58961C40.1627 3.62293 38.061 3.65828 35.9593 3.69296C35.6957 3.68412 35.5674 3.66985 35.6282 3.65285C35.662 3.64265 35.7431 3.62837 35.8242 3.62701C37.2636 3.60185 38.6961 3.57601 40.1423 3.5563C40.5545 3.55086 40.6695 3.52094 40.8789 3.49646C40.9465 3.48831 41.0006 3.47607 41.0885 3.47131C41.1763 3.46587 41.3047 3.46655 41.4196 3.46519C43.7443 3.42644 46.069 3.38836 48.3936 3.34961C48.6572 3.35845 48.7856 3.37272 48.7247 3.38972C48.691 3.39992 48.6098 3.4142 48.5287 3.41556C47.6367 3.42984 46.7513 3.44412 45.8661 3.45907Z" fill="#FFE492"/>
<path d="M471.825 7.07936C471.473 7.08752 471.027 7.09907 470.662 7.05964C470.487 7.0406 470.297 7.03448 470.068 7.03856C469.736 7.04536 469.398 7.0508 469.061 7.05488C468.973 7.05556 468.858 7.04808 468.77 7.04196C468.581 7.02972 468.419 7.00933 468.216 7.00389C468.013 6.99845 467.77 7.0134 467.56 7.01C467.283 7.00524 467.168 6.98689 467.243 6.96989C467.283 6.96037 467.364 6.94677 467.452 6.94474C468.703 6.91958 468.709 6.91958 469.061 6.94405C469.331 6.96309 469.581 6.98416 469.966 6.97261C470.291 6.96309 470.635 6.96105 470.966 6.95493C471.426 6.94677 471.426 6.94745 472.169 6.99028C472.358 7.00116 472.561 7.00049 472.804 6.99437C473.014 6.98961 473.217 7.00049 473.386 7.01884C473.278 7.04196 473.122 7.05692 472.912 7.061C472.575 7.0678 472.244 7.07256 471.825 7.07936Z" fill="#FFE492"/>
<path d="M458.672 6.86946C459.523 6.85518 460.382 6.84295 461.233 6.82663C461.584 6.81983 461.862 6.82731 462.105 6.85042C462.368 6.87558 462.666 6.87354 462.99 6.86878C463.193 6.86606 463.389 6.87694 463.524 6.89597C463.578 6.90345 463.564 6.91706 463.585 6.92794C462.841 6.94017 462.091 6.95309 461.341 6.96396C461.253 6.96532 461.145 6.95853 461.064 6.95309C460.882 6.94153 460.726 6.92113 460.53 6.91705C460.111 6.90754 459.692 6.92589 459.267 6.92929C459.064 6.93065 458.868 6.92046 458.733 6.9021C458.679 6.89326 458.692 6.88033 458.672 6.86946Z" fill="#FFE492"/>
<path d="M150.998 1.02466C151.883 1.0097 152.769 0.995427 153.654 0.980469C153.917 0.989988 154.039 1.00358 153.985 1.02058C153.951 1.03078 153.87 1.04506 153.789 1.04642C152.019 1.07701 150.248 1.10625 148.484 1.13548C148.221 1.12596 148.099 1.11237 148.153 1.09537C148.187 1.08517 148.268 1.07089 148.349 1.06953C149.228 1.05389 150.113 1.03961 150.998 1.02466Z" fill="#FFE492"/>
<path d="M14.285 4.80121C13.8863 4.80257 13.4674 4.82773 13.0214 4.80869C12.9335 4.80529 12.8119 4.79441 12.8186 4.78829C12.8321 4.77809 12.9133 4.76517 13.0011 4.76109C13.3863 4.74409 13.8661 4.74205 14.0621 4.69446C14.1567 4.66998 14.3324 4.66183 14.5689 4.65707C14.819 4.65163 14.9946 4.65366 15.1906 4.66794C15.4474 4.6863 15.6637 4.7203 16.0691 4.70262C16.0894 4.7135 16.1366 4.72573 16.1163 4.73593C16.096 4.74613 16.0083 4.75565 15.9273 4.76313C15.8529 4.76993 15.7515 4.77605 15.6568 4.77809C15.2108 4.78625 14.7648 4.79305 14.285 4.80121Z" fill="#FFE492"/>
<path d="M365.691 4.66566C366.022 4.66022 366.366 4.6575 366.691 4.64798C366.948 4.6405 367.11 4.64526 367.312 4.66157C367.657 4.69013 367.677 4.68742 368.522 4.69149C368.617 4.69217 368.732 4.70237 368.786 4.71121C368.82 4.71597 368.772 4.72889 368.732 4.73569C368.671 4.74453 368.583 4.75608 368.502 4.75608C367.968 4.75812 367.427 4.79824 366.907 4.75201C366.644 4.72889 366.353 4.71801 365.995 4.7282C365.778 4.73432 365.549 4.73705 365.326 4.73977C365.109 4.74249 364.887 4.73501 364.751 4.71461C364.555 4.68469 364.67 4.67314 365.022 4.67518C365.245 4.67654 365.468 4.66906 365.691 4.66566Z" fill="#FFE492"/>
<path d="M488.148 9.35259C488.574 9.34579 489 9.33763 489.432 9.33219C489.52 9.33083 489.628 9.33832 489.709 9.34307C490.034 9.36347 489.986 9.39814 490 9.42874C490.007 9.46069 489.257 9.48653 488.939 9.46477C488.588 9.4403 488.27 9.41243 487.783 9.42738C487.594 9.43282 487.371 9.42058 487.249 9.40087C487.067 9.37231 487.168 9.36075 487.513 9.36279C487.716 9.36415 487.932 9.35667 488.148 9.35259Z" fill="#FFE492"/>
<path d="M273.599 0.0978519C274.038 0.0903729 274.477 0.07882 274.917 0.0781401C275.173 0.0774602 275.302 0.099893 275.241 0.116211C275.207 0.12641 275.126 0.140688 275.045 0.142048C274.167 0.158366 273.288 0.171966 272.41 0.186924C272.153 0.177406 272.024 0.16313 272.085 0.146812C272.119 0.136613 272.2 0.123015 272.281 0.120975C272.72 0.111456 273.16 0.105331 273.599 0.0978519Z" fill="#FFE492"/>
<path d="M479.615 7.13767C480.041 7.13087 480.473 7.12067 480.899 7.11727C481.122 7.11591 481.298 7.13155 481.325 7.14922C481.338 7.15738 481.23 7.17166 481.142 7.17506C480.534 7.19818 479.879 7.2009 479.243 7.21246C479.041 7.21586 478.824 7.20498 478.703 7.18594C478.52 7.15671 478.622 7.14583 478.966 7.14787C479.183 7.14855 479.399 7.14107 479.615 7.13767Z" fill="#FFE492"/>
<path d="M376.928 4.75808C377.144 4.75468 377.367 4.74584 377.577 4.74856C377.8 4.75196 377.942 4.77168 378.009 4.79139C378.083 4.81383 378.077 4.83491 378.009 4.85395C377.901 4.88658 377.793 4.88523 377.543 4.86347C377.157 4.82947 377.13 4.83355 376.367 4.83491C376.279 4.83491 376.171 4.82471 376.103 4.81587C376.002 4.80227 376.056 4.7812 376.293 4.76896C376.468 4.76012 376.712 4.76148 376.928 4.75808Z" fill="#FFE492"/>
<path d="M465.032 6.91664C465.349 6.9112 465.667 6.90237 465.985 6.90237C466.208 6.90169 466.383 6.91732 466.404 6.93432C466.41 6.94248 466.309 6.95608 466.228 6.96016C465.843 6.97851 465.41 6.97987 464.991 6.98599C464.795 6.98871 464.579 6.97783 464.457 6.95879C464.275 6.93024 464.383 6.91732 464.714 6.9214C464.816 6.92276 464.924 6.91868 465.032 6.91664Z" fill="#FFE492"/>
<path d="M413.975 6.08253C413.502 6.09069 413.056 6.0805 413.09 6.06282C413.137 6.0397 413.333 6.02474 413.536 6.02066C413.86 6.01386 414.184 6.00842 414.515 6.00434C414.725 6.00162 414.914 6.01182 415.083 6.0295C414.982 6.05126 414.826 6.06689 414.624 6.07165C414.414 6.07641 414.191 6.07913 413.975 6.08253Z" fill="#FFE492"/>
<path d="M410.905 5.99477C411.222 5.98933 411.54 5.98049 411.858 5.98049C412.081 5.97981 412.256 5.99545 412.277 6.01244C412.283 6.0206 412.182 6.0342 412.101 6.03828C411.716 6.05664 411.283 6.058 410.864 6.06412C410.668 6.06684 410.452 6.05596 410.33 6.03692C410.148 6.00836 410.256 5.99545 410.587 5.99953C410.689 6.00089 410.797 5.99681 410.905 5.99477Z" fill="#FFE492"/>
<path d="M373.866 4.75327C374.183 4.74783 374.501 4.73898 374.819 4.7383C375.042 4.73762 375.217 4.75327 375.237 4.77026C375.244 4.77842 375.143 4.79134 375.062 4.7961C374.677 4.81446 374.244 4.81582 373.825 4.82194C373.629 4.82466 373.413 4.81378 373.291 4.79474C373.109 4.76618 373.217 4.75326 373.548 4.75734C373.649 4.7587 373.758 4.75463 373.866 4.75327Z" fill="#FFE492"/>
<path d="M371.209 4.71196C371.547 4.70652 371.655 4.70312 371.763 4.70312C371.966 4.70312 372.176 4.71129 372.297 4.731C372.48 4.75956 372.372 4.76772 372.04 4.76908C371.615 4.77044 371.196 4.78472 370.77 4.78744C370.547 4.7888 370.371 4.77248 370.358 4.75548C370.351 4.74732 370.452 4.73304 370.533 4.73032C370.817 4.72012 371.128 4.714 371.209 4.71196Z" fill="#FFE492"/>
<path d="M408.37 0.712957C408.154 0.716357 407.924 0.725876 407.721 0.722477C407.451 0.717718 407.343 0.699362 407.41 0.682364C407.451 0.672846 407.525 0.659248 407.606 0.657208C408.039 0.647689 408.478 0.641565 408.91 0.634766C409.167 0.644964 409.282 0.659241 409.214 0.676239C409.174 0.685758 409.1 0.698676 409.018 0.701396C408.809 0.708195 408.586 0.709558 408.37 0.712957Z" fill="#FFE492"/>
<path d="M146.072 1.10551C146.282 1.10483 146.471 1.11366 146.633 1.13066C146.532 1.15242 146.383 1.1667 146.18 1.17282C146.079 1.17554 145.964 1.17757 145.856 1.17825C145.646 1.17961 145.457 1.17009 145.295 1.1531C145.396 1.13134 145.552 1.11706 145.748 1.11094C145.849 1.10822 145.964 1.10754 146.072 1.10551Z" fill="#FFE492"/>
<path d="M478.613 7.13719C478.607 7.11747 479.019 7.09504 479.39 7.09572C479.586 7.0964 479.789 7.10592 479.904 7.12428C480.08 7.15215 479.978 7.16303 479.647 7.16099C479.444 7.15963 479.228 7.17119 479.025 7.16915C478.796 7.16847 478.661 7.15351 478.613 7.13719Z" fill="#FFE492"/>
<path d="M378.929 4.83981C378.922 4.83233 378.888 4.82349 378.909 4.81669C379.037 4.7793 379.814 4.76774 380.017 4.80038C380.051 4.80649 380.064 4.81669 380.037 4.82281C379.997 4.83233 379.922 4.84457 379.841 4.84729C379.632 4.85408 379.416 4.85749 379.199 4.85817C379.105 4.85817 379.017 4.84661 378.929 4.83981Z" fill="#FFE492"/>
<path d="M17.8317 4.69342C17.0343 4.7077 17.0208 4.70633 17.1627 4.67234C17.2911 4.64174 17.5276 4.62339 17.8723 4.62339C17.9736 4.62339 18.0817 4.62203 18.1696 4.62475C18.2642 4.62815 18.3994 4.63494 18.4197 4.6431C18.4602 4.65874 18.3452 4.67574 18.1425 4.68729C18.0547 4.69273 17.9398 4.69138 17.8317 4.69342Z" fill="#FFE492"/>
<path d="M155.898 1.00836C155.662 1.01992 155.459 1.01585 155.31 0.994089C155.162 0.972332 155.398 0.946493 155.81 0.940373C155.918 0.939014 156.033 0.933579 156.135 0.936298C156.236 0.938338 156.338 0.94649 156.398 0.954649C156.506 0.968247 156.439 0.98661 156.223 1.00225C156.135 1.00837 156.006 1.007 155.898 1.00836Z" fill="#FFE492"/>
<path d="M477.202 7.08638C477.262 7.07755 477.323 7.06871 477.391 7.06055C477.641 7.07211 477.749 7.0857 477.681 7.10134C477.641 7.11086 477.56 7.11902 477.499 7.12786C477.249 7.1163 477.148 7.10202 477.202 7.08638Z" fill="#FFE492"/>
<path d="M28.4883 12.4332C28.4883 12.4251 28.5829 12.4121 28.6572 12.4094C28.7991 12.4047 28.9748 12.4142 29.0964 12.4332C29.2654 12.4604 29.1641 12.4747 28.8532 12.4672C28.637 12.4618 28.4883 12.4482 28.4883 12.4332Z" fill="#FFE492"/>
<path d="M382.162 4.20626C382.25 4.21238 382.338 4.2185 382.419 4.2253C382.304 4.25046 382.162 4.26133 382.014 4.25453C381.919 4.25045 381.838 4.24229 381.75 4.23617C381.865 4.21102 382 4.2015 382.162 4.20626Z" fill="#FFE492"/>
<path d="M380.509 4.17691C380.644 4.16671 380.806 4.17216 380.995 4.19187C380.934 4.20071 380.88 4.21091 380.806 4.21771C380.678 4.22859 380.509 4.22314 380.326 4.20275C380.38 4.19459 380.441 4.18575 380.509 4.17691Z" fill="#FFE492"/>
<path d="M377.893 4.2065C377.98 4.21262 378.068 4.21874 378.149 4.22554C378.035 4.2507 377.899 4.26157 377.744 4.25477C377.649 4.25069 377.568 4.24253 377.48 4.23641C377.595 4.21126 377.73 4.20106 377.893 4.2065Z" fill="#FFE492"/>
<path d="M376.515 4.16943C376.616 4.18303 376.562 4.19934 376.366 4.2177C376.278 4.21158 376.177 4.20683 376.109 4.19867C376.001 4.18575 376.055 4.16875 376.258 4.15039C376.339 4.15719 376.427 4.16331 376.515 4.16943Z" fill="#FFE492"/>
</svg>
