<svg width="300" height="10" viewBox="0 0 300 10" fill="none" xmlns="http://www.w3.org/2000/svg">
<mask id="mask0_1879_1051" style="mask-type:alpha" maskUnits="userSpaceOnUse" x="0" y="0" width="300" height="11">
<rect y="0.757812" width="300" height="9.24262" fill="#99CFFF"/>
</mask>
<g mask="url(#mask0_1879_1051)">
<path d="M45.0594 -1.19738L45.7926 -1.31921L44.3659 -1.49388L45.0498 -1.62173C45.7356 -1.62056 46.6242 -1.42899 47.1078 -1.53078C47.1669 -1.62934 46.4201 -1.66097 46.2295 -1.7395C46.0609 -1.81998 45.9232 -1.89995 45.8182 -1.97843C46.1917 -1.97758 46.6024 -1.9586 47.0258 -1.9226C47.5952 -1.86379 48.1538 -1.8352 48.6398 -1.83999C49.6337 -1.82411 50.5939 -1.83995 51.6744 -1.83646L51.3149 -2.07366L52.7075 -2.01817C52.8551 -2.0001 53.031 -2.02916 53.1761 -2.00681C54.383 -1.81766 54.8936 -1.92073 55.473 -2.00619C55.5918 -2.02831 55.7349 -2.04482 55.8985 -2.05529C57.5085 -2.00999 58.9603 -1.74486 60.4102 -1.60876C60.6831 -1.57401 60.9448 -1.5294 61.1769 -1.4781C61.6812 -1.37838 62.2422 -1.29695 62.8085 -1.24128C63.3748 -1.18562 63.9283 -1.15748 64.4185 -1.15945C65.5026 -1.16165 66.7273 -1.09569 67.9742 -0.967944C68.345 -0.925866 68.716 -0.898112 69.0636 -0.88644C69.4113 -0.87477 69.7279 -0.879438 69.9932 -0.900161L70.8362 -0.764758C71.2016 -0.819698 71.665 -0.849846 72.1982 -0.853361C72.7314 -0.856878 73.3232 -0.833693 73.9379 -0.785214C74.5929 -0.732623 75.2582 -0.697172 75.9379 -0.641569C77.3417 -0.535271 78.708 -0.470262 79.9942 -0.448562C81.9097 -0.384255 83.7812 -0.334534 85.7135 -0.25436C86.9224 -0.215662 88.1003 -0.194376 89.24 -0.190617C90.6054 -0.17548 92.0822 -0.102201 93.5993 0.0256832C93.5274 0.145667 92.8621 0.11022 92.4157 0.106159C90.9753 0.0862172 89.5011 0.0345395 88.0193 -0.00428114C87.3517 -0.0194344 86.7026 -0.025174 86.0755 -0.0214574C85.0272 -0.0264314 83.9221 -0.0584018 82.7792 -0.116821C80.9736 -0.181103 79.2257 -0.212003 77.5534 -0.209206C77.4223 -0.204453 77.3022 -0.196032 77.1951 -0.184082C77.1727 -0.173732 77.1683 -0.160679 77.1822 -0.14618C77.1962 -0.13168 77.2281 -0.116212 77.2747 -0.101264C77.3214 -0.0863156 77.3814 -0.0723887 77.4489 -0.060809C77.5164 -0.0492284 77.5892 -0.0403835 77.6603 -0.0351282C78.3245 0.0461844 79.0379 0.133517 79.6643 0.145804C79.6885 0.146722 79.7143 0.148817 79.7398 0.151943C79.7653 0.155068 79.79 0.159144 79.8119 0.163873C81.2141 0.335533 82.367 0.306484 83.4593 0.334413C85.2728 0.409894 87.0209 0.445151 88.6773 0.439652C88.9277 0.440026 89.198 0.449839 89.4785 0.468735C91.2133 0.545332 92.8356 0.553899 94.2691 0.494048C94.8591 0.478885 95.4076 0.444846 96.0417 0.444277C96.4323 0.441934 96.7722 0.420211 97.0411 0.380411C97.31 0.340609 97.5023 0.283552 97.6065 0.21267C97.874 0.249989 98.1457 0.283248 98.4183 0.312049C98.5811 0.328517 98.7373 0.332891 98.8551 0.324273C98.973 0.315656 99.0439 0.294691 99.0535 0.265619C99.1023 0.184201 98.7307 0.143314 98.4084 0.108449C98.6028 0.0909871 98.8218 0.080715 99.0604 0.0778787C100.404 0.0592751 101.845 0.0812335 103.352 0.143269C104.522 0.217525 105.456 0.157086 106.687 0.261802C106.835 0.279872 106.956 0.253351 107.092 0.246982C107.446 0.213448 107.888 0.205911 108.378 0.225029C108.868 0.244148 109.392 0.289345 109.904 0.356702C110.543 0.172681 111.922 0.382909 112.941 0.401803C113.254 0.495387 112.894 0.478935 112.879 0.504646C112.863 0.530357 112.879 0.50464 112.756 0.489582C111.739 0.622114 110.346 0.651013 108.772 0.572217C108.481 0.572544 108.203 0.578582 107.942 0.590272C107.547 0.606819 107.102 0.605166 106.625 0.585387C106.104 0.570862 105.626 0.577761 105.213 0.605751C104.976 0.605296 104.775 0.619317 104.629 0.646526C104.484 0.673734 104.398 0.713249 104.381 0.761394C104.539 0.79851 104.715 0.832472 104.901 0.861931C105.874 0.978248 106.843 1.02639 107.619 0.996898C108.97 0.946075 110.578 0.995671 112.014 0.97832C112.985 0.971292 114.018 0.991313 115.094 1.03801C115.094 1.03801 115.066 1.08515 115.063 1.08943C115.19 1.10984 115.324 1.12621 115.457 1.13762C115.457 1.13762 115.457 1.13762 115.47 1.11619C115.411 1.09562 115.331 1.07626 115.239 1.06036L114.919 1.02121C115.137 1.01102 115.34 0.980689 115.566 0.999223C116.044 1.03366 116.5 1.04819 116.907 1.04197C117.315 1.03575 117.666 1.00889 117.938 0.963004C118.421 0.904201 119.022 0.877459 119.701 0.884506C120.222 0.878086 120.724 0.864288 121.205 0.843182C121.205 0.843182 121.236 0.791765 121.463 0.764435C121.248 0.730727 121.023 0.703203 120.799 0.683125C119.826 0.632962 118.85 0.587083 117.894 0.552787C117.541 0.549083 117.21 0.554828 116.906 0.569914C116.065 0.587568 115.119 0.562513 114.125 0.496212C114.125 0.496212 113.928 0.472119 113.83 0.460074C114.109 0.347041 115.071 0.4602 115.46 0.383652C115.697 0.385045 116.114 0.394671 116.099 0.374519C116.067 0.347627 116.063 0.322645 116.088 0.301364C116.113 0.280083 116.166 0.263031 116.244 0.251431C116.321 0.23983 116.421 0.233966 116.537 0.234264C116.652 0.234563 116.78 0.241016 116.911 0.253156C118.006 0.318828 119.038 0.337091 119.942 0.306825C120.285 0.307409 120.67 0.326873 121.01 0.331743C121.218 0.337609 121.408 0.334345 121.57 0.322137C122.393 0.23222 123.499 0.225653 124.724 0.303423C125.316 0.331384 125.869 0.335123 126.354 0.314449C126.7 0.310748 126.846 0.374677 127.092 0.404794L128.137 0.468278L126.795 0.547826C127.082 0.730124 127.31 0.790235 127.779 0.801592C128.462 0.818743 129.128 0.826491 129.771 0.824788C130.248 0.82329 130.641 0.78403 131.286 0.853761C131.399 0.865134 131.509 0.868816 131.596 0.864187C132.351 0.802282 133.26 0.788074 134.262 0.822535C134.78 0.706611 135.663 0.819319 136.48 0.910131C136.744 0.82281 136.266 0.782727 135.981 0.729446C136.664 0.7349 137.353 0.731786 138.058 0.744537C138.27 0.739895 138.513 0.747835 138.767 0.767733C139.02 0.78763 139.279 0.81894 139.521 0.859214C139.639 0.885235 139.781 0.904821 139.919 0.913903C140.056 0.922983 140.177 0.920865 140.257 0.907986C140.624 0.870004 141.21 0.904985 141.512 0.840829C141.62 0.826074 141.774 0.824014 141.946 0.83501C142.119 0.846005 142.298 0.869345 142.453 0.900842C142.284 0.910671 142.133 0.926148 142.003 0.94693C141.54 1.01444 141.71 1.12725 142.299 1.29126C143.202 1.28224 144.124 1.2848 144.962 1.25389C145.428 1.22614 146 1.23481 146.613 1.27894C147.225 1.32306 147.854 1.40088 148.429 1.50364C148.638 1.54316 148.875 1.57053 149.094 1.58031C149.313 1.5901 149.498 1.58159 149.612 1.55647C149.684 1.52741 149.706 1.49064 149.677 1.44934L149.086 1.37706C149.086 1.37706 149.109 1.3385 149.115 1.32993L149.963 1.32345C150.412 1.32322 150.881 1.33458 151.305 1.33134C151.929 1.30982 152.641 1.32182 153.397 1.36659C154.094 1.4125 154.78 1.4472 155.447 1.47039C156.093 1.49426 156.561 1.41817 157.175 1.40602C157.64 1.39686 158.151 1.40665 158.69 1.435C159.619 1.48529 160.473 1.48538 161.172 1.43527C161.987 1.70525 162.383 1.74915 163.14 1.67619L163.495 1.65535L163.593 1.71326L163.864 1.70053C164.373 1.68918 164.881 1.67785 165.412 1.6738C166.15 1.69886 166.946 1.76627 167.724 1.86945C167.872 1.88751 168.072 1.94891 168.202 1.99697C168.332 2.04504 168.614 2.19004 168.822 2.28443C168.596 2.35334 168.345 2.41923 168.165 2.49845C168.147 2.51198 168.149 2.52812 168.171 2.54556C168.192 2.56301 168.232 2.58128 168.289 2.59889C168.345 2.61651 168.415 2.63299 168.494 2.647C168.573 2.66102 168.659 2.67218 168.743 2.6796C168.909 2.69557 169.072 2.70622 169.226 2.7111C169.986 2.71953 170.714 2.71327 171.403 2.69238C171.654 2.66291 171.998 2.66011 172.381 2.68443C172.763 2.70875 173.162 2.7588 173.514 2.82664C174.415 2.78591 175.462 2.79794 176.582 2.8619C177.767 2.823 179.199 2.90166 180.306 2.81643C180.281 2.85929 180.395 2.93306 180.554 2.97557C180.806 3.04014 181.092 3.09997 181.399 3.15255L183.74 3.2552C183.828 3.30798 183.937 3.36141 184.067 3.4148C184.156 3.45697 184.311 3.49823 184.499 3.52984C184.687 3.56145 184.893 3.58093 185.074 3.58414C185.54 3.59978 185.931 3.56481 186.486 3.65122C185.631 3.73289 184.477 3.72204 183.23 3.62059C182.059 3.54344 180.933 3.50488 179.893 3.50634C179.55 3.50576 179.098 3.51027 178.991 3.55694C178.753 3.68885 178.132 3.668 177.407 3.64366C176.838 3.61703 176.318 3.62002 175.89 3.65239C175.462 3.68476 175.138 3.74558 174.946 3.82985C174.897 3.91127 175.014 3.98077 175.513 4.02814L177.591 4.21812C177.897 4.19369 178.188 4.16478 178.462 4.1315C178.923 4.0873 179.492 4.07517 180.125 4.09605C180.758 4.11692 181.439 4.17026 182.113 4.25189C182.457 4.29405 182.801 4.33621 183.051 4.31618C183.27 4.29317 183.472 4.26562 183.655 4.23373C183.692 4.21236 183.707 4.18776 183.699 4.16088C183.831 4.17338 183.964 4.18963 184.092 4.20906C185.118 4.43585 185.913 4.43192 186.635 4.3731C186.83 4.35561 186.979 4.32782 187.176 4.30605C187.374 4.28428 187.444 4.25602 187.624 4.26425C189.058 4.33863 189.471 4.0902 190.68 4.10018C190.739 4.09048 190.775 4.07597 190.786 4.058C190.797 4.04002 190.782 4.01917 190.741 3.99734C190.656 3.97763 190.557 3.96068 190.454 3.94805C190.351 3.93542 190.247 3.92752 190.151 3.92506C189.595 3.89319 189.104 3.90296 188.761 3.95272C188.519 3.97305 188.262 3.98925 187.993 4.00123L186.783 3.64149C187.955 3.67446 189.064 3.67425 190.084 3.64084C190.306 3.62208 190.683 3.6544 190.996 3.66055L193.3 3.69417C193.773 3.69696 194.177 3.64056 194.837 3.77202C194.837 3.77202 195.274 3.79322 195.39 3.77527C195.506 3.75732 196.022 3.64568 196.33 3.57296C196.687 3.59369 197.182 3.64964 197.404 3.63088C197.793 3.58481 198.129 3.52574 198.408 3.45474L199.799 3.5561C199.798 3.64614 199.747 3.73084 199.648 3.80892C199.539 3.88423 199.543 3.97462 199.658 4.07271C199.774 4.1708 199.998 4.2738 200.313 4.37331L201.687 4.90029C201.911 4.93558 202.15 4.95934 202.371 4.96833C202.593 4.97733 202.786 4.97113 202.924 4.95057C203.515 4.88955 204.177 4.84184 204.768 4.78081C205.531 4.87417 205.335 5.02496 205.889 5.15724L207.685 5.37708C207.959 5.5808 208.238 5.77595 207.405 5.84416C207.24 5.85608 207.351 5.93415 207.2 5.96623C207.848 6.11912 208.56 6.16488 209.216 6.25905C209.475 6.32677 209.691 6.39846 209.855 6.47065C210.035 6.57934 210.399 6.69037 210.869 6.77977C211.339 6.86916 211.877 6.92974 212.368 6.94842C213.19 7.00566 214.032 7.09161 214.856 7.20245C215.137 7.24099 215.427 7.26907 215.704 7.2848C215.982 7.30052 216.241 7.30353 216.465 7.29362C217.262 7.27617 217.937 7.21616 218.445 7.11749C218.948 7.03376 219.626 6.99341 220.417 7.00009C221.77 7.16572 222.043 7.41531 222.861 7.63514L221.447 7.65979C221.396 7.74549 221.489 7.85355 220.91 7.85157C220.33 7.8496 220.624 7.9316 220.812 8.01441C220.878 8.05607 221.008 8.09892 221.178 8.13571C221.348 8.17249 221.549 8.20096 221.747 8.21629L222.951 8.32228C223.378 8.36262 223.791 8.37984 224.145 8.37206C224.499 8.36429 224.781 8.3318 224.958 8.27819C225.162 8.22727 225.443 8.19283 225.784 8.17698C226.22 8.13544 226.577 8.07367 226.845 7.994L228.544 8.11008C228.617 8.03002 228.85 7.97388 229.206 7.95116C229.561 7.92844 230.016 7.94052 230.494 7.98537L231.64 8.05662C232.913 8.13435 233.193 8.10876 233.566 7.88304L232.038 7.47986C232.26 7.37366 232.475 7.28031 232.689 7.18697C232.308 7.05414 231.801 6.92851 231.217 6.82282C230.673 6.70927 230.113 6.59929 229.54 6.49331C228.919 6.38501 228.262 6.29084 227.49 6.16876C227.356 6.12926 227.16 6.0593 226.91 5.99189C226.66 5.92639 226.398 5.86218 226.127 5.79951C226.179 5.71381 226.225 5.63668 226.126 5.53719C226.601 5.56893 227.093 5.62446 227.555 5.69875C228.018 5.77304 228.437 5.86376 228.776 5.96274C228.833 5.98029 228.902 5.99678 228.98 6.01109C229.058 6.0254 229.143 6.03719 229.228 6.04567C230.063 6.10649 230.462 6.23354 230.87 6.38932C231.145 6.46895 231.499 6.53967 231.884 6.59166C232.622 6.68201 233.345 6.79807 234.05 6.89826C234.266 6.93165 234.491 6.95913 234.715 6.97957C235.452 7.04457 236.195 7.13546 236.904 7.24761C237.136 7.27611 237.358 7.31383 237.552 7.35762C237.746 7.4014 237.907 7.44998 238.021 7.49929C237.845 7.55332 237.75 7.62151 237.742 7.69976C237.711 7.75118 238.229 7.85601 238.474 7.93199C238.719 8.00797 238.239 7.97217 238.076 7.97981C237.407 7.99451 237.283 8.02531 237.683 8.19395C237.817 8.24697 237.906 8.30003 237.944 8.34982C237.983 8.39961 237.969 8.44507 237.906 8.48338C237.811 8.64193 237.522 8.77211 237.323 8.92718C237.631 9.02934 238.147 9.13843 238.203 9.26491C238.23 9.29296 238.287 9.32269 238.37 9.35194C238.453 9.38118 238.56 9.40921 238.683 9.434C239.006 9.48753 239.301 9.55154 239.543 9.62107C239.785 9.69061 239.969 9.7638 240.079 9.83499C240.116 9.86443 240.203 9.89566 240.324 9.92242C240.445 9.94919 240.591 9.96952 240.732 9.97931C240.901 9.99133 241.052 9.98975 241.155 9.97488C241.257 9.96 241.302 9.93297 241.282 9.89939C241.286 9.8363 241.264 9.77052 241.215 9.70263C241.243 9.65549 241.271 9.60835 241.16 9.53029C241.664 9.55878 242.193 9.61587 242.69 9.69537C243.187 9.77487 243.633 9.87373 243.979 9.9812C244.361 10.0924 244.714 10.2091 245.137 10.3392C245.05 10.4849 245.05 10.4849 245.952 10.7425L250.735 10.8681L251.716 11.0387C252.63 11.1874 252.847 11.1773 253.421 11.1004L253.808 11.0281C254.62 11.1275 255.555 11.2419 256.062 11.0557C256.227 11.1771 256.335 11.2178 256.297 11.2363C256.055 11.4154 255.634 11.5674 255.051 11.6862C254.902 11.714 254.797 11.7564 254.624 11.7811C254.065 11.921 253.936 12.1372 254.262 12.3854C254.423 12.4952 254.659 12.6077 254.959 12.7191C254.519 12.8739 253.936 13.002 253.226 13.1003C252.623 13.1763 252.126 13.278 251.75 13.4026C251.413 13.5283 250.908 13.6227 250.264 13.6806C249.937 13.7052 249.698 13.7537 249.572 13.8213C249.534 14.0043 249.621 14.2003 249.829 14.4048C249.869 14.467 249.98 14.5342 250.155 14.6012C250.331 14.6681 250.565 14.7329 250.839 14.7906C250.839 14.7906 250.971 14.8343 251.035 14.8605C251.088 15.0821 250.89 15.2775 250.454 15.4333C250.382 15.4776 250.236 15.5095 250.031 15.5257C249.826 15.542 249.569 15.5418 249.289 15.5254C248.698 15.499 248.145 15.4957 247.573 15.4809C246.957 15.4599 246.414 15.4765 246.002 15.5288C245.589 15.5811 245.323 15.6672 245.23 15.7782C245.224 15.8096 245.206 15.8396 245.176 15.8681C245.158 15.8828 245.149 15.8986 245.148 15.9153L246.461 16.2785L244.975 16.4231C244.888 16.5688 245.601 16.6562 245.959 16.7643L245.738 16.8247C245.453 16.8588 245.07 16.7935 244.723 16.7556L244.379 16.7135L244.337 16.782C244.123 16.8754 243.341 16.7704 243.036 16.8389C242.731 16.9073 242.949 16.9846 243.406 17.0589C243.723 17.1142 244.065 17.1583 244.404 17.1878C244.743 17.2174 245.071 17.2317 245.363 17.2296C245.538 17.2222 245.682 17.2055 245.789 17.1805C246.405 17.0737 247.087 16.9819 247.828 16.9058C248.396 16.8374 249.108 16.8083 249.912 16.8206C250.149 16.8154 250.433 16.8316 250.717 16.8663C251 16.901 251.264 16.952 251.462 17.0103L251.879 17.0199C251.879 17.0199 252.107 17.08 252.075 17.0899C251.916 17.268 252.1 17.4857 252.6 17.7108L252.165 17.7312C251.544 17.7103 251.938 17.8459 251.845 17.9127C251.404 17.9001 250.83 17.8437 250.621 17.9285L250.308 17.9223L250.431 17.9374L250.58 17.9096L251.164 18.0363C250.887 18.0576 250.687 18.0837 250.442 18.0951C250.307 18.1051 250.199 18.1227 250.126 18.1469C250.052 18.1711 250.014 18.2014 250.014 18.236C250.015 18.2891 249.942 18.3339 249.803 18.3659C249.663 18.398 249.462 18.4163 249.218 18.4191C248.927 18.4202 248.76 18.478 248.589 18.4985L249.331 18.8469C249.331 18.8469 248.962 18.8017 249.163 18.8631L249.189 18.8202L249.638 18.9075C249.962 18.9839 250.188 19.0024 250.38 18.9477C250.571 18.8929 250.527 18.9657 250.619 18.9448C250.586 19.0005 250.378 19.0394 250.199 19.0727C249.993 19.0989 249.76 19.1182 249.505 19.1303C249.965 19.3752 249.987 19.3825 249.314 19.4474C248.642 19.5122 248.874 19.6096 248.311 19.6235C247.748 19.6374 248.388 19.8032 248.765 19.8355C249.044 19.8567 249.329 19.8898 249.6 19.9325C249.87 19.9752 250.121 20.0264 250.333 20.0827L250.22 20.2712C250.054 20.2556 249.888 20.2353 249.728 20.211C249.183 20.1074 248.687 20.0099 248.202 20.0701L248.433 20.2134L246.74 20.1303C246.783 20.2377 247.041 20.36 247.459 20.4714C247.396 20.5326 247.358 20.597 247.344 20.6642C247.315 20.7114 247.148 20.6817 247.04 20.6868C246.652 20.6947 246.334 20.7266 246.113 20.7798C245.892 20.833 245.776 20.9058 245.774 20.9919C245.73 21.0647 246.326 21.2159 246.699 21.2109C247.63 21.2254 248.636 21.2814 249.663 21.376C250.29 21.3883 250.378 21.1967 251.409 21.3275C251.429 21.4159 251.297 21.4875 251.033 21.5315C250.768 21.5754 250.385 21.5894 249.942 21.5711C250.194 21.7675 251.589 21.8188 251.651 22.0241C251.304 22.0096 250.932 21.9755 250.573 21.9251C250.215 21.8747 249.881 21.8098 249.605 21.7368C249.546 21.7189 249.471 21.7023 249.388 21.6886C249.305 21.675 249.217 21.6647 249.131 21.6588C249.045 21.6529 248.964 21.6514 248.896 21.6547C248.829 21.6579 248.776 21.6657 248.743 21.6773C248.936 21.7515 249.149 21.8374 249.391 21.9176C249.634 21.9979 249.692 22.0326 249.867 22.0494C251.171 22.209 251.79 22.4965 252.918 22.6852C253.214 22.7213 253.25 22.8362 252.994 22.8233C252.75 22.8103 252.529 22.812 252.357 22.8282C252.184 22.8444 252.065 22.8744 252.015 22.915C251.826 22.9623 251.59 22.9999 251.314 23.0269C252.471 23.3219 253.85 23.5826 255.322 23.7844C255.601 23.8243 255.892 23.8486 256.152 23.8538C256.974 23.8541 257.846 23.8775 258.751 23.9236C259.072 23.9362 259.368 23.935 259.624 23.9201C260.464 23.8849 261.131 23.962 261.74 24.1791L262.748 24.5233C262.715 24.5791 262.546 24.6411 262.415 24.7264L263.203 24.9102L269.213 24.4868L270.42 24.8967L272.15 24.874C272.282 24.8858 272.416 24.9021 272.543 24.9221C272.893 25.0432 273.167 25.1595 273.546 25.2749C273.926 25.3904 274.604 25.4044 275.077 25.5405C275.55 25.6766 276.024 25.6794 276.609 25.7602C276.664 25.8656 276.607 25.9604 276.442 26.0388C276.388 26.1288 276.091 26.1843 276.039 26.2701C276.045 26.3567 275.934 26.4302 275.718 26.484C275.501 26.5378 275.185 26.5701 274.798 26.5781C273.715 26.7625 272.41 26.8938 270.92 26.9681C270.79 26.9735 270.681 26.986 270.602 27.0047C270.522 27.0235 270.474 27.0482 270.459 27.0772C270.461 27.1613 270.362 27.2339 270.168 27.2898C269.975 27.3457 269.692 27.3835 269.341 27.4003C269.247 27.4037 269.177 27.4142 269.138 27.4307C269.005 27.4413 268.908 27.4615 268.856 27.4895C268.805 27.5175 268.801 27.5522 268.844 27.5904C268.888 27.6285 268.977 27.6688 269.105 27.7073C269.232 27.7458 269.392 27.7813 269.571 27.8102C269.829 27.8568 270.093 27.9014 270.362 27.9439C270.346 27.9696 270.08 27.9737 270.119 27.9969C270.224 28.0708 270.248 28.1401 270.19 28.1992C270.132 28.2583 269.992 28.3057 269.783 28.3375L271.219 28.9365C272.091 29.0195 272.946 29.1602 273.622 29.332C273.623 29.3601 273.584 29.3837 273.509 29.4003C273.435 29.417 273.326 29.4262 273.196 29.4269C272.845 29.4392 272.514 29.463 272.136 29.4766C271.905 29.4867 271.713 29.509 271.571 29.5421C271.429 29.5752 271.339 29.6185 271.308 29.6695L272.151 29.8924C271.881 29.9467 271.68 29.9727 271.502 30.0061C271.603 30.0761 271.777 30.1486 272.01 30.2178C272.243 30.287 272.53 30.3512 272.847 30.4053C272.932 30.4165 273.019 30.4246 273.102 30.4293C273.185 30.434 273.264 30.4351 273.332 30.4326C273.985 30.3561 274.749 30.4911 275.491 30.6187C276.234 30.7463 276.636 30.8233 277.184 30.9225L278.232 30.9359C278.498 30.9828 278.734 31.0381 278.924 31.0972C279.113 31.1563 279.249 31.2176 279.322 31.2762C279.266 31.3705 278.768 31.3189 278.472 31.3286C277.769 31.3873 276.845 31.3747 275.853 31.2931C275.607 31.263 275.355 31.2873 275.115 31.2902C274.599 31.3019 274.103 31.321 273.629 31.3474C273.317 31.3719 273.025 31.4023 272.756 31.4383C272.684 31.5583 273.816 31.6509 273.173 31.7102C273.395 31.7373 273.478 31.7751 273.592 31.7614C274.321 31.8393 275.039 31.8779 275.664 31.8725C276.862 31.856 278.223 31.9107 279.635 32.0321C281.159 32.1579 282.62 32.2107 283.899 32.1862C284.386 32.1847 284.931 32.2105 285.491 32.2615C286.153 32.3321 286.81 32.3765 287.42 32.3918C287.622 32.3923 287.847 32.4044 288.077 32.4269C288.306 32.4494 288.534 32.4818 288.742 32.5214C288.724 32.5514 288.526 32.5732 288.57 32.5878C289.201 32.8122 289.457 33.046 290.429 33.2753C291.093 33.3566 291.855 33.45 292.29 33.3421C292.724 33.2343 292.568 33.1417 291.704 32.8657C291.892 32.8617 292.118 32.8746 292.342 32.9021C292.567 32.9296 292.777 32.97 292.934 33.0162L293.682 33.2228L294.355 33.4202C294.296 33.5188 294.25 33.5959 294.201 33.6773C294.124 33.7638 294.209 33.8691 294.443 33.9783C294.585 34.038 294.708 34.0977 294.812 34.1568C295.233 34.3934 295.355 34.617 295.164 34.8025C294.798 35.0693 294.289 35.3147 293.641 35.5361C292.958 35.7514 292.584 36.0229 292.02 36.2576C291.733 36.3644 291.384 36.4602 290.977 36.5439C290.206 36.73 289.36 36.907 288.586 37.0974C287.812 37.2878 286.937 37.4246 286.078 37.5815C284.797 37.7677 283.413 37.9286 281.934 38.0631C281.018 38.181 280.078 38.2959 279.231 38.4314C278.23 38.5841 277.055 38.6938 275.734 38.7577C274.568 38.8342 273.525 38.9473 272.627 39.0949C272.533 39.1108 272.459 39.1312 272.406 39.1552C272.245 39.3057 271.792 39.4118 271.116 39.4572C271.157 39.5013 271.21 39.5461 271.273 39.5915C271.367 39.6455 271.387 39.6961 271.329 39.7367C271.272 39.7772 271.141 39.8059 270.952 39.8189C270.412 39.8562 269.963 39.9195 269.625 40.0061C269.501 40.0278 269.424 40.0594 269.401 40.0982C269.378 40.137 269.409 40.1819 269.492 40.2289C269.565 40.2773 269.57 40.3219 269.507 40.3567C269.444 40.3916 269.315 40.4153 269.137 40.4246C268.679 40.4704 268.19 40.5073 267.671 40.535C266.567 40.596 265.283 40.5953 263.896 40.5328C263.749 40.5148 263.6 40.5426 263.428 40.5215C262.447 40.4515 261.537 40.4407 260.806 40.4903C259.949 40.5096 259.054 40.5058 258.151 40.5148C256.846 40.5087 255.642 40.5455 254.573 40.6242C253.351 40.5482 252.665 40.6803 251.633 40.6829C250.681 40.6964 249.779 40.729 248.934 40.7802C247.573 40.8482 246.217 40.9076 244.876 40.9871C243.617 41.0251 242.458 41.0975 241.419 41.2033C241.021 41.2511 240.3 41.1766 240.028 41.2768C239.757 41.377 239.21 41.3652 238.767 41.3984L237.371 41.4805C237.131 41.5 236.867 41.5124 236.583 41.5174C235.285 41.5241 234.387 41.6579 233.182 41.6852L233.059 41.6701C230.92 41.869 228.472 41.9781 225.788 41.9943C224.22 42.0553 222.505 42.0524 220.841 42.0971C220.444 42.1865 219.507 42.0763 219.009 42.158C218.511 42.2396 217.698 42.1861 217.056 42.1995C216.415 42.2129 215.787 42.2465 215.101 42.2454C214.506 42.2457 214.003 42.2822 213.638 42.3514C212.806 42.4659 211.792 42.5331 210.641 42.5502C209.118 42.58 207.678 42.6475 206.129 42.6326C206.151 42.716 206.056 42.787 205.854 42.8382C205.651 42.8894 205.349 42.919 204.977 42.924C203.321 42.9558 201.819 43.0387 200.141 43.0632L199.692 43.0635L194.672 43.1113C193.32 43.1206 192.017 43.1359 190.638 43.1464C190.121 43.0831 190.108 43.192 189.751 43.1713C189.651 43.1176 189.533 43.094 189.358 43.1231L189.319 43.1874L183.591 43.2726C181.348 43.335 178.989 43.3537 176.533 43.3286C175.951 43.3349 175.407 43.3562 174.911 43.3921C174.451 43.4052 173.971 43.411 173.474 43.4095C172.803 43.3933 172.147 43.3851 171.509 43.385C169.83 43.4095 168.069 43.3963 166.232 43.3783C164.394 43.3604 163.002 43.3923 161.366 43.3898C160.258 43.3876 159.156 43.3768 158.009 43.3515C157.462 43.3396 156.787 43.2755 156.22 43.2521C155.653 43.2287 155.468 43.229 155.393 43.2658C155.147 43.369 154.527 43.3023 154.031 43.2922C153.064 43.2751 152.927 43.2398 152.664 42.9731L153.85 42.8884C154.141 42.861 154.507 42.8562 154.912 42.8744C155.318 42.8926 155.749 42.9332 156.165 42.9923C156.328 43.0176 156.499 43.0376 156.668 43.0512C156.837 43.0647 157 43.0715 157.147 43.0712C158.344 43.0567 159.524 43.0264 160.675 43.0016L160.843 42.9854L160.853 42.7475C160.701 42.7242 160.543 42.7048 160.386 42.6903L154.616 42.5359C153.292 42.4981 151.918 42.4126 150.618 42.3777C149.319 42.3428 148.619 42.3215 147.611 42.2854C147.185 42.2649 146.751 42.2379 146.312 42.2047C146.338 42.1818 146.352 42.1574 146.356 42.1319C146.379 42.0933 146.41 42.0419 146.223 42.0006C146.02 41.9424 145.748 41.8927 145.462 41.8614C145.193 41.8407 144.933 41.829 144.69 41.8268C143.52 41.8068 142.184 41.6812 140.966 41.4766L140.541 41.6131C138.712 41.5364 136.856 41.461 134.946 41.3881C134.563 41.3683 134.162 41.3301 133.771 41.2766C133.353 41.2254 132.968 41.1185 132.528 41.06C132.093 41.0179 131.661 40.9851 131.24 40.9621C131.354 40.927 131.505 40.8989 131.686 40.8787C131.865 40.8717 131.996 40.8497 132.059 40.8161C132.121 40.7824 132.114 40.7388 132.036 40.6916C131.9 40.6105 131.84 40.5342 132.136 40.5245C132.41 40.506 132.606 40.4659 132.701 40.4091C132.796 40.3523 132.786 40.281 132.672 40.2036C132.622 40.1584 132.587 40.1142 132.567 40.0712L132.444 40.0561C132.038 39.896 131.228 39.8382 130.646 39.7072C130.371 39.6693 130.087 39.6474 129.838 39.6451C129.195 39.617 128.569 39.6047 127.903 39.5693C127.586 39.5529 127.253 39.5232 126.926 39.4818C126.458 39.4246 126.409 39.4186 126.138 39.2105C126.559 39.2142 126.893 39.1831 127.084 39.1226C127.274 39.062 127.309 38.9758 127.182 38.8784C126.834 38.6656 126.467 38.4413 124.894 38.2901C125.407 38.2827 125.901 38.2679 126.373 38.2458C126.51 38.241 126.613 38.2254 126.668 38.201C126.723 38.1766 126.726 38.1446 126.678 38.1092C126.631 38.0739 126.534 38.0369 126.401 38.0032C126.268 37.9695 126.105 37.9407 125.934 37.9207C125.104 37.8003 124.238 37.7198 123.433 37.6881C122.755 37.6741 122.143 37.6819 121.351 37.6816L120.416 37.5671C120.432 37.5414 120.294 37.5062 120.329 37.4921C120.567 37.3602 120.829 37.2313 121.099 37.0895C120.668 37.013 120.294 36.9206 120.021 36.8229C119.748 36.7252 119.587 36.6262 119.555 36.5372C119.532 36.5103 119.538 36.4859 119.573 36.4655C119.608 36.4451 119.671 36.4294 119.758 36.4194C120.004 36.4022 120.194 36.3693 120.313 36.3233C120.432 36.2773 120.477 36.2193 120.445 36.154L119.718 35.9132C117.529 35.7414 115.38 35.6186 113.309 35.5472L111.441 35.4932C111.215 35.4288 111.285 35.4006 111.497 35.3989C111.709 35.3973 112.306 35.4152 112.723 35.4248C113.083 35.4374 113.402 35.4291 113.651 35.4007C113.899 35.3723 114.068 35.3247 114.14 35.2625L113.513 34.9879C113.544 34.9365 113.587 34.8637 113.928 34.8685C114.16 34.8626 114.332 34.8367 114.414 34.7951C114.496 34.7534 114.485 34.6984 114.382 34.639C114.367 34.596 114.39 34.5568 114.452 34.5233C114.955 34.5205 115.456 34.522 115.912 34.509C116.125 34.5046 116.305 34.4887 116.439 34.4623C116.573 34.4359 116.659 34.3996 116.691 34.3559C116.707 34.3132 116.667 34.2646 116.574 34.214C116.48 34.1634 116.336 34.1122 116.152 34.0646C115.437 34.0056 114.782 34.0049 114.332 34.0625C114.171 34.1076 113.914 34.1323 113.592 34.1332C113.271 34.1341 112.902 34.1113 112.533 34.0676C112.111 34.0174 111.689 33.9953 111.344 34.0053C110.999 34.0154 110.754 34.0569 110.652 34.1225C110.218 34.097 109.834 34.0776 109.454 34.0495C109.007 34.0142 108.584 34.0037 108.231 34.0194C107.667 34.0305 107.059 34.024 106.421 34.0001C104.582 33.9406 102.74 33.8853 100.959 33.8605C100.488 33.8534 100.081 33.8725 99.6149 33.8569C99.149 33.8412 98.7804 33.8835 98.1977 33.7984C98.0867 33.7852 97.975 33.7767 97.8715 33.7736C97.7679 33.7705 97.6753 33.7728 97.601 33.7805C96.5778 33.8479 95.3781 33.8574 94.0723 33.8085C92.2839 33.7966 90.4294 33.7627 88.6384 33.755C88.1131 33.7616 87.6167 33.7793 87.1544 33.8079C86.8025 33.8252 86.434 33.8369 86.0507 33.843C85.7569 33.8485 85.476 33.8325 85.5256 33.9259C85.5752 34.0194 85.135 33.9609 84.8813 33.9436C84.0096 33.8983 83.1188 33.837 82.2186 33.7603C81.3317 33.6769 80.4627 33.6284 79.6636 33.6177C79.0864 33.6114 78.4912 33.6351 77.7492 33.5075C77.7774 33.4604 77.8057 33.4132 77.9672 33.364C77.3621 33.2286 76.6716 33.112 75.953 33.0241C75.2343 32.9361 74.5081 32.8792 73.8344 32.858L72.9055 32.6017C72.6767 32.5716 72.4432 32.5497 72.2191 32.5373C71.9951 32.5249 71.7851 32.5223 71.602 32.5296C71.4605 32.5333 71.2881 32.5237 71.1164 32.5027C70.9447 32.4817 70.7852 32.4506 70.6672 32.4151C70.4908 32.37 70.2753 32.3311 70.0478 32.3032C69.8203 32.2753 69.5907 32.2598 69.388 32.2585C68.7497 32.2306 68.0684 32.1663 67.4138 32.072C67.2439 32.0168 67.1374 31.9597 67.1075 31.9078C67.0776 31.8559 67.1257 31.8115 67.2456 31.7801C67.439 31.7245 67.5476 31.6537 67.5648 31.572C67.582 31.4903 67.5075 31.3994 67.3457 31.3047C67.2629 31.2466 67.2352 31.1916 67.2644 31.143C67.2935 31.0944 67.3789 31.0532 67.5153 31.0219C68.0245 30.8773 67.8883 30.7962 67.0552 30.5562C66.9199 30.5162 66.7567 30.4788 66.5761 30.4464C66.3955 30.414 66.2015 30.3873 66.0062 30.368C65.548 30.3289 65.0961 30.2998 64.6587 30.2812C64.4127 30.2511 64.1604 30.2754 63.877 30.2637C62.4597 30.2052 62.2523 30.1108 61.7933 29.9075L61.4588 29.7607C60.8384 29.6418 60.1599 29.5431 59.4722 29.4717C58.7845 29.4002 58.1047 29.3578 57.4817 29.3474C57.2341 29.3466 56.9494 29.3263 56.6714 29.2896C55.7664 29.1773 54.8499 29.0996 53.9826 29.0616C53.4421 29.0403 52.8596 28.985 52.3049 28.9024C51.7501 28.8198 51.2468 28.7134 50.8554 28.596C50.5038 28.4903 50.0438 28.3954 49.5395 28.3245C48.9491 28.2522 48.8944 28.1674 49.2241 28.1019C49.5538 28.0365 50.106 27.9523 50.5961 27.8835C50.7667 27.8601 50.8724 27.8221 50.9014 27.7737C50.9304 27.7253 50.8817 27.6683 50.7606 27.6093C50.6828 27.5082 50.6693 27.4122 50.7204 27.3238C50.7478 27.287 50.7289 27.2449 50.6651 27.2002C50.6013 27.1555 50.4941 27.1093 50.3507 27.0647C50.2073 27.0201 50.031 26.9782 49.8337 26.9417C49.6364 26.9053 49.4226 26.8751 49.207 26.8533C48.2968 26.7419 47.4111 26.6335 46.4829 26.552C46.094 26.5137 45.7054 26.4661 45.3267 26.4105C44.5516 26.273 43.7225 26.159 42.8873 26.075C42.4909 26.0375 42.1034 25.9719 41.8086 25.8924C40.8787 25.6782 40.0219 25.453 39.2537 25.2208C39.0685 25.1488 38.8263 25.0786 38.5421 25.0145C38.2579 24.9504 37.9379 24.8939 37.6022 24.8485C37.3316 24.8153 37.1113 24.7424 36.9028 24.6939C36.7512 24.5815 36.735 24.4775 36.8557 24.3917C36.9764 24.3059 37.2301 24.2411 37.5929 24.2034C37.9369 24.1581 38.2589 24.1055 38.5563 24.0499C38.9148 24.005 39.3409 23.978 39.819 23.9699C40.3851 23.9458 40.8037 23.8768 41.0203 23.772C39.4705 23.5823 37.9966 23.3099 36.6382 23.3735L35.606 23.2012C35.6471 23.1326 35.6831 23.0726 35.7165 23.0169C35.962 22.9155 36.0386 22.7876 35.94 22.6441C35.8587 22.5747 35.866 22.5115 35.9613 22.461C36.0565 22.4104 36.2362 22.3743 36.4823 22.3563C37.9399 22.1714 39.6255 22.0466 40.9923 21.8367C41.4209 21.7973 41.9226 21.7795 42.4763 21.7838C43.012 21.7712 42.9896 21.6765 42.3731 21.5596C42.0271 21.4985 41.6744 21.44 41.3164 21.3842C39.7377 21.3749 39.0945 21.655 37.2928 21.577L36.4578 21.208C36.232 21.2023 36.0128 21.2001 35.8017 21.2013L32.7808 21.3512C32.5292 21.3587 32.3333 21.3844 32.2154 21.4252C32.0976 21.4661 32.0624 21.5205 32.114 21.5824C32.1345 21.658 32.0929 21.7274 31.9907 21.7881C31.9248 21.8305 31.967 21.8869 32.1079 21.945C32.4255 22.0759 32.018 22.095 31.7606 22.1279C31.6948 22.1311 31.619 22.1307 31.5374 22.1269C31.4559 22.123 31.3703 22.1156 31.2857 22.1053C31.201 22.0949 31.1189 22.0817 31.0442 22.0665C30.9695 22.0512 30.9036 22.0342 30.8504 22.0164C30.397 21.8919 30.0004 21.7606 29.5546 21.6232C29.8711 21.4918 29.4987 21.276 29.9925 21.1571C30.0478 21.1333 30.0699 21.1044 30.0575 21.072C30.0451 21.0396 29.9985 21.0045 29.9205 20.9689C29.7194 20.8768 29.6237 20.787 29.6429 20.7086C29.6621 20.6302 29.7955 20.5659 30.0298 20.5223L30.0581 20.4751C29.4402 20.3167 29.6039 20.1758 29.3612 20.008L28.7667 19.8985C27.2878 19.6346 27.2852 19.6389 26.0119 19.6486C25.7552 19.5482 26.0813 19.5329 26.3258 19.5215L28.3738 19.4088C29.7128 19.3335 31.0908 19.2815 32.5866 19.253C34.0823 19.2245 35.7499 19.1297 37.296 19.0614C37.3742 19.0561 37.434 19.0456 37.4704 19.0309C37.5068 19.0161 37.5187 18.9975 37.5053 18.9766C37.4438 18.954 37.3634 18.9322 37.2699 18.9128C37.1764 18.8934 37.0723 18.8769 36.9651 18.8645C36.4731 18.8042 35.9683 18.7654 35.444 18.7151L34.4666 18.6276L34.1659 18.5126C33.9702 18.4426 33.8365 18.3573 33.5762 18.307C33.3616 18.2695 33.1288 18.2411 32.9018 18.2246C32.6748 18.2081 32.462 18.2043 32.2856 18.2134C31.7966 18.2363 31.3541 18.2696 30.8871 18.2998C30.4201 18.33 30.1627 18.3629 29.7578 18.3777C28.935 18.3845 28.1398 18.4023 27.3757 18.4311C26.7321 18.4992 26.1368 18.58 25.5936 18.6729C25.2547 18.7096 24.9378 18.7536 24.3591 18.7057C24.0846 18.6624 23.8478 18.6054 23.6908 18.5449C23.5337 18.4844 23.4665 18.4243 23.501 18.3753C23.5321 18.3369 23.62 18.3065 23.7564 18.287C23.8929 18.2675 24.0734 18.2595 24.2808 18.2638C24.8617 18.2567 25.3988 18.2329 25.8813 18.1929C26.553 18.1204 27.3706 18.0892 28.2865 18.101C28.5971 18.1114 28.8053 18.0725 29.077 18.0598C29.3487 18.0471 29.5789 18.0154 29.8818 18.0387C30.8228 18.0987 31.2741 18.0068 31.838 17.947C32.0289 17.9205 32.1472 17.8777 32.1798 17.8233C32.2125 17.7688 32.1582 17.7049 32.023 17.6385C31.7627 17.5062 31.4443 17.3732 31.0728 17.2416C30.8815 17.1769 30.6365 17.1154 30.357 17.062C30.0775 17.0087 29.771 16.9648 29.4616 16.9339C29.2764 16.853 29.1776 16.7733 29.1741 16.7022C29.1707 16.6311 29.2626 16.5708 29.4417 16.5267C29.8981 16.4262 30.3026 16.324 31.3252 16.3801C31.8059 16.4016 32.2584 16.4057 32.6645 16.3923C33.5654 16.374 34.6046 16.4141 35.6841 16.509C35.9634 16.5333 36.2379 16.5499 36.4996 16.5582C38.3658 16.6165 40.144 16.6456 41.9272 16.6661C42.8719 16.676 43.8244 16.673 44.8105 16.7017C47.1233 16.7641 49.2286 16.732 51.4609 16.7523C52.63 16.7628 53.6765 16.7208 54.5454 16.6286C54.7146 16.5977 54.8599 16.5616 54.9797 16.5208C54.4039 16.4136 53.7714 16.3288 53.1428 16.2744C52.5143 16.22 51.9107 16.1979 51.3899 16.2101C51.1037 16.2401 50.7336 16.2456 50.3211 16.2259C49.9086 16.2063 49.4698 16.1623 49.0537 16.0989L50.2635 16.063C51.0657 16.0462 51.8874 16.041 52.6676 16.0169C53.9071 15.9755 55.0559 15.9091 56.3395 15.8823C57.3758 15.8576 58.3031 15.7945 59.0924 15.6949C59.6626 15.6223 60.3138 15.5708 61.0328 15.5415C61.5439 15.5259 61.5439 15.5259 61.8706 15.3773C61.6114 15.2812 61.2762 15.2677 60.9605 15.2659C59.0674 15.2054 57.2659 15.1948 55.5926 15.2343C54.7483 15.2378 53.9993 15.2785 53.3816 15.3546C53.2303 15.3867 52.8433 15.3715 52.5327 15.3611C51.559 15.3452 50.6283 15.3498 49.7519 15.3748C48.5402 15.4165 47.1906 15.4066 45.7557 15.3455C45.4836 15.2708 45.7968 15.277 45.8122 15.2513C46.9236 15.2033 48.013 15.1481 49.1464 15.1075C49.4562 15.093 49.7874 15.0858 50.1362 15.0861C51.4385 15.1113 52.5237 15.0415 53.2398 14.8865C53.2757 14.8265 53.7468 14.8335 53.955 14.7946C54.0574 14.7609 54.1256 14.7213 54.1576 14.6768C53.8543 14.5661 53.5114 14.5655 53.2474 14.5654C52.4814 14.5778 51.7444 14.6012 51.0401 14.6356C50.3854 14.6683 49.6607 14.677 48.8856 14.6616C48.3135 14.6468 47.8245 14.6697 47.2473 14.6634C46.9343 14.6502 46.6102 14.6291 46.2817 14.6004C46.6474 14.5232 47.1446 14.4758 47.7382 14.4613C48.1883 14.4152 48.7512 14.4014 48.8231 14.2814C48.6105 14.1955 48.3737 14.1941 48.1835 14.2031C47.7876 14.2027 47.4052 14.2081 47.0384 14.2193C46.2604 14.2437 45.4181 14.244 44.5292 14.2203C44.0611 14.2114 43.6169 14.2141 43.2041 14.2282C42.2686 14.2471 41.372 14.2891 40.5154 14.3085C38.7608 14.3282 37.1604 14.3991 35.4744 14.4365C35.0992 14.4457 34.7628 14.4782 34.2683 14.4222C33.7737 14.3663 33.7517 14.359 33.6933 14.3242C33.5549 14.2663 33.513 14.21 33.5762 14.1673C33.6743 14.1273 33.8654 14.1051 34.1155 14.1045C35.6226 14.041 37.0522 13.9517 38.3951 13.8373C38.9861 13.8144 39.5039 13.7676 39.9305 13.6987C40.2688 13.6512 40.6701 13.6197 41.1219 13.6053C41.7789 13.571 42.4638 13.5459 43.1739 13.53C43.5043 13.5215 43.7852 13.496 44.0002 13.4552C44.2151 13.4144 44.3597 13.3589 44.4255 13.2922L43.555 13.0707C43.4182 13.0603 43.2825 13.0514 43.1485 13.0439L35.9232 13.2035L35.2077 13.2079C34.4234 13.1947 34.2317 13.162 33.4878 12.9054C35.1856 12.845 36.5202 12.669 37.3587 12.3949C37.1572 12.3654 36.9506 12.3401 36.7437 12.3196C35.3869 12.2548 34.1044 12.2376 32.9454 12.2686C32.257 12.2717 31.5491 12.2632 30.8387 12.2591C31.0465 12.1327 31.8424 12.1704 32.3612 12.1419C33.6008 12.0973 34.6969 12.0052 35.6146 11.8686C35.931 11.8153 36.3268 11.7813 36.7839 11.768C37.2414 11.7634 37.6235 11.7312 37.8971 11.6741C38.1707 11.617 38.3273 11.5367 38.3534 11.4403C38.3965 11.3531 38.4894 11.272 38.6306 11.1983C38.3808 11.0937 37.984 10.9936 37.5148 10.9167C37.0455 10.8397 36.5361 10.7913 36.0821 10.7805C35.1129 10.7375 34.1077 10.667 33.092 10.5708C32.586 10.5224 32.0899 10.4945 31.6358 10.4892C31.2354 10.485 30.7802 10.45 30.3398 10.3895C29.8993 10.3289 29.4978 10.2461 29.1963 10.1537C28.7895 10.0395 28.4098 9.92405 28.0301 9.80858C27.6505 9.6931 27.2099 9.54717 26.7667 9.40553C26.376 9.38337 25.9954 9.36913 25.6304 9.363C25.3463 9.3682 25.0149 9.35275 24.6751 9.3185C24.3354 9.28424 24.0015 9.2326 23.713 9.16967C23.8822 9.1076 24.0735 9.05282 24.2751 8.9809C23.9984 8.88594 23.7979 8.78909 23.6855 8.69626C23.5732 8.60343 23.5515 8.51656 23.6218 8.44096C23.6629 8.3724 23.3622 8.25738 23.2583 8.16647C23.1245 8.08809 23.0994 8.01495 23.1862 7.95663C23.273 7.8983 23.4677 7.85753 23.7447 7.83965C24.0884 7.80664 24.368 7.75694 24.5723 7.69257C24.6398 7.67586 24.6742 7.65298 24.6723 7.62602C24.6704 7.59905 24.6322 7.56887 24.5613 7.53823C24.4903 7.50758 24.3889 7.47745 24.2663 7.45059C24.1436 7.42374 24.0037 7.40101 23.8592 7.38449C23.4167 7.33766 22.9772 7.30731 22.566 7.29518C21.8577 7.27285 21.1795 7.25883 20.5316 7.25311C19.8151 7.24449 19.0179 7.19134 18.2211 7.09903C17.5077 7.0117 16.868 6.93339 16.5192 6.7665C16.1704 6.5996 15.6127 6.60492 15.1838 6.48342C15.4247 6.3739 15.8529 6.29781 16.4251 6.26281C16.7996 6.25032 17.1122 6.21754 17.3428 6.16657C17.5735 6.11559 17.7171 6.04755 17.7645 5.96681L16.4625 5.62803C15.4226 5.46853 14.8473 5.59129 13.7238 5.52734L14.8815 5.40228C14.9047 5.38992 14.9134 5.3754 14.9071 5.35943C14.7948 5.10648 14.6159 5.05239 13.4326 4.91212L12.7684 4.83081L11.7172 4.73432C11.5488 4.68248 11.4324 4.62842 11.3795 4.57755C11.3266 4.52668 11.339 4.48077 11.4157 4.44443C11.5697 4.38331 11.6165 4.30521 11.5519 4.21731C11.4499 4.15909 11.4415 4.10542 11.5281 4.0656C11.6146 4.02579 11.7907 4.00235 12.0258 3.99936C12.2134 3.99473 12.2274 3.92744 12.3294 3.88934C12.4308 3.83682 12.6044 3.79652 12.8383 3.77118C13.0722 3.74585 13.3609 3.73606 13.6849 3.7425C14.64 3.74775 15.5373 3.72804 16.3607 3.6837L16.2131 3.66564C17.0714 3.70456 17.8738 3.70928 18.5813 3.67957C19.2903 3.64217 20.2001 3.66616 20.9532 3.64336C21.5662 3.64859 22.0329 3.59683 22.2543 3.49907C22.4687 3.40572 23.2478 3.42751 23.8445 3.44535C24.1979 3.45689 24.5395 3.46179 24.8656 3.45997C25.3033 3.43884 25.8505 3.45876 26.4161 3.51639C26.5858 3.53411 26.753 3.54349 26.9015 3.54362C28.3393 3.56785 29.7745 3.59635 31.1928 3.609C31.5202 3.60172 31.9041 3.61839 32.2994 3.65708C32.4656 3.67387 32.6273 3.68083 32.7628 3.67701C35.0039 3.63859 37.5329 3.73661 39.7299 3.6836C39.9962 3.67108 40.2911 3.66848 40.606 3.67586C41.3138 3.707 41.9284 3.68696 42.3566 3.61879C42.5876 3.58252 42.8838 3.56254 43.2262 3.56012C43.5687 3.55769 43.9499 3.57287 44.3455 3.60469C45.0039 3.64682 45.6124 3.65138 46.1067 3.61791C47.0706 3.58698 48.0843 3.57427 49.1398 3.57986C49.4632 3.58527 49.7475 3.57325 49.9707 3.54474C50.1938 3.51622 50.3498 3.47197 50.4266 3.41541C50.1674 3.31928 49.884 3.30759 49.6149 3.31604C48.5718 3.29413 47.5312 3.26794 46.5076 3.25762C45.5914 3.22813 44.7123 3.21912 43.8832 3.23071C43.4715 3.24378 42.9578 3.21397 42.4542 3.14776C41.837 3.06392 41.2012 3.02226 40.6756 3.03122C40.2859 3.03345 39.8745 3.02622 39.4475 3.00966C39.1741 2.98969 38.8939 2.95539 38.6357 2.91028C38.5332 2.89069 38.4216 2.87422 38.3082 2.86192C38.1947 2.84962 38.0819 2.84177 37.9768 2.83886C37.8717 2.83595 37.7766 2.83804 37.6977 2.84501C37.6189 2.85198 37.558 2.86368 37.5188 2.87934C37.1234 3.01032 36.2393 2.94348 35.4822 2.92899C34.3476 2.7073 33.5032 2.83852 32.4428 2.7133C32.359 2.705 32.2763 2.69997 32.2 2.69854C32.1237 2.69711 32.0553 2.69929 31.9989 2.70495C29.9469 2.78032 27.5552 2.71751 25.4008 2.74354C25.1632 2.74734 24.8874 2.7343 24.6048 2.70589C22.7578 2.51784 20.982 2.46446 19.6246 2.55617C19.4594 2.56443 19.2715 2.56479 19.0695 2.55721C18.1414 2.48248 17.2539 2.45268 16.481 2.47031C15.2697 2.46462 14.1051 2.46923 12.8744 2.45196C12.026 2.42738 11.2818 2.45364 10.7162 2.52812C10.6982 2.55812 10.3215 2.5258 10.0329 2.52267C9.86695 2.44715 9.72306 2.37894 9.55195 2.312C9.399 2.22918 9.16986 2.14536 8.88016 2.06625C8.59046 1.98714 8.24699 1.91457 7.87288 1.85346C7.23328 1.77516 7.16931 1.66153 7.61687 1.61973C8.77045 1.48143 10.221 1.42482 11.8619 1.45406C13.2336 1.4564 14.63 1.46176 16.0211 1.47568C16.8326 1.48762 17.688 1.51414 18.4774 1.51879C18.7437 1.52899 19.0173 1.54403 19.2954 1.56374C19.6366 1.59232 19.9678 1.60789 20.2713 1.60962C21.2459 1.58555 22.3334 1.60652 23.4822 1.67152C23.9029 1.68569 24.307 1.69047 24.6883 1.68578C25.5903 1.66813 26.5682 1.68112 27.5961 1.72439C28.235 1.74878 28.8545 1.76154 29.4481 1.76252C29.6578 1.76519 29.8285 1.74469 30.0304 1.76022C31.8079 1.92262 33.0665 1.80531 34.6662 1.86776C35.4437 1.88518 36.1865 1.88522 36.8842 1.86791C38.2457 1.86875 39.6452 1.88655 41.0771 1.92125C42.9706 1.97826 44.7252 1.95848 46.5331 1.98202C46.89 1.98696 47.2346 1.98612 47.5644 1.97949C49.1689 1.93568 50.9115 1.94497 52.7498 2.00714C53.1673 2.01612 53.5421 2.00513 53.8511 1.97489C54.16 1.94464 54.3963 1.89578 54.5451 1.83135C54.6081 1.78713 54.5673 1.7297 54.4306 1.67014C54.2037 1.59406 53.9475 1.51953 53.6661 1.44776L43.433 1.20693C43.0032 1.19435 42.5841 1.18758 42.1777 1.18665C40.9826 1.18455 39.7507 1.16582 38.4881 1.13054C37.2405 1.09739 36.0487 1.10328 34.84 1.0933C34.484 1.08996 34.1186 1.08207 33.7452 1.06966C31.2215 0.971457 28.7606 0.911474 26.3799 0.890145C25.3783 0.887118 24.2963 0.842048 23.2752 0.827439C22.2542 0.812831 20.8579 0.807483 19.6466 0.80179L15.8965 0.802664C15.1589 0.799756 14.4407 0.808429 13.7251 0.812819C12.8567 0.499524 12.5575 0.42609 11.3987 0.288831C11.0023 0.238199 10.5991 0.207983 10.2363 0.201723C9.08601 0.226491 7.64268 0.123392 6.55186 0.137042C5.89364 0.130309 5.33512 0.165112 4.93346 0.237891C4.58479 0.295009 4.18609 0.340204 3.7435 0.372795C2.53109 0.104779 2.42424 -0.0692907 3.33625 -0.13703C3.58334 -0.152777 3.92369 -0.147906 4.10213 -0.181259C4.20451 -0.201569 4.34437 -0.213186 4.51057 -0.215195C4.67677 -0.217203 4.8647 -0.209549 5.05964 -0.19283C5.67486 -0.14897 6.25151 -0.138654 6.73171 -0.16292C7.18364 -0.195037 7.7376 -0.193755 8.34019 -0.159194C8.783 -0.104985 9.1722 -0.181529 9.55514 -0.203644C9.93808 -0.225758 10.2523 -0.265484 10.8504 -0.206062C10.96 -0.194231 11.0687 -0.187126 11.1683 -0.185298C11.2679 -0.183469 11.3557 -0.186963 11.4251 -0.195512C12.0674 -0.233783 12.834 -0.229762 13.6625 -0.183779C14.9332 -0.138529 16.1255 -0.136832 17.1979 -0.178747C17.8398 -0.21542 18.3872 -0.280458 18.8185 -0.37132C18.9361 -0.40171 19.1106 -0.419934 19.3255 -0.424243C20.4045 -0.405284 21.5761 -0.333932 22.7647 -0.214793C23.2125 -0.167055 23.6597 -0.129295 24.0968 -0.102316C24.9951 -0.0423826 25.8639 -0.00879996 26.6776 -0.00255954C27.8598 -0.00156947 29.0908 0.0214901 30.3594 0.0664102C31.1424 0.0914222 31.8968 0.100653 32.6137 0.0940033C33.3507 0.0908694 34.1375 0.109948 34.9563 0.150797C35.7706 0.184083 36.4882 0.164905 37.0226 0.0955798C37.1986 0.0582238 37.3403 0.0138625 37.4452 -0.0366729C36.2529 -0.201116 35.0198 -0.28469 33.9942 -0.270563C33.6046 -0.281455 33.2812 -0.270458 32.8707 -0.334511L32.8578 -0.313087C32.7761 -0.299185 32.6529 -0.295904 32.5116 -0.303872C32.3703 -0.311841 32.2208 -0.330497 32.0916 -0.356293C32.1404 -0.437712 32.1867 -0.514845 32.2201 -0.570551C33.0015 -0.560722 33.7602 -0.561518 34.4924 -0.572944C35.1096 -0.589381 35.9475 -0.445412 36.4817 -0.499605C37.5237 -0.431837 38.1871 -0.525407 39.1215 -0.498407C40.056 -0.471407 41.0851 -0.382211 42.0196 -0.355212C42.8349 -0.340394 43.6266 -0.337175 44.3903 -0.345565C44.6538 -0.357341 44.9577 -0.35458 45.2832 -0.337445C45.7408 -0.30521 46.1663 -0.299808 46.5111 -0.321863C46.8559 -0.343918 47.106 -0.392541 47.2328 -0.462152C47.1134 -0.527358 46.9526 -0.611438 46.7672 -0.698533C47.1083 -0.770101 47.6264 -0.800235 48.2446 -0.784452L49.1181 -0.78791C49.3496 -0.786019 49.5265 -0.805368 49.6123 -0.841949C49.6981 -0.878529 49.6863 -0.929541 49.5792 -0.984441C47.9229 -1.2608 47.8619 -1.29127 46.6463 -1.11351L45.0322 -1.19611L45.0594 -1.19738ZM66.8908 -0.438222L66.7678 -0.453276L66.8908 -0.438222ZM268.033 28.9651L268.005 29.0122L268.036 28.9608L268.306 28.9939L268.324 28.9639L268.033 28.9651ZM228.745 8.30477C228.362 8.25334 227.976 8.20606 227.588 8.16322C227.487 8.15658 227.392 8.15508 227.311 8.15885C227.231 8.16262 227.168 8.17154 227.126 8.18487C227.096 8.23629 227.312 8.27197 227.509 8.29606C227.757 8.32849 228.01 8.34909 228.243 8.35576C228.476 8.36242 228.679 8.35489 228.833 8.33396L229.055 8.31519L228.745 8.30477ZM31.742 20.8377C31.9938 20.8463 32.2326 20.8477 32.4525 20.8419C33.428 20.8003 34.362 20.7398 35.3621 20.7013C36.624 20.6034 38.0741 20.5636 39.6578 20.5832C40.2766 20.5928 40.7993 20.5611 41.165 20.4918C41.384 20.4546 41.6666 20.4328 41.9955 20.4278L46.1825 20.3149C46.4414 20.2914 46.6651 20.2586 46.8486 20.217C46.4796 20.1718 46.2336 20.1417 46.086 20.1237C45.7797 20.1186 45.5165 20.1324 45.3227 20.1636C45.1145 20.2166 44.7626 20.2375 44.3368 20.2223C43.907 20.2097 43.4879 20.203 43.0816 20.202C42.3142 20.2047 41.5416 20.2159 40.7717 20.2228C40.4721 20.3701 39.588 20.3033 38.8309 20.2888L38.246 20.2954C36.3342 20.3718 34.508 20.4768 32.7762 20.6101C32.4415 20.6326 32.1531 20.6686 31.92 20.7169C31.8322 20.7545 31.8041 20.8015 31.8378 20.854L31.7148 20.839L31.742 20.8377ZM117.116 34.9231C117.58 34.9332 118.063 34.9538 118.558 34.9846C118.94 35.0162 119.312 35.0353 119.66 35.0413C121.61 35.0743 123.642 35.1506 125.728 35.2691C126.001 35.287 126.264 35.2958 126.505 35.2952L128.213 35.2651C128.751 35.2482 128.762 35.231 128.37 35.0037C128.045 34.9596 127.716 34.9193 127.386 34.8832C127.189 34.8591 126.869 34.82 126.794 34.8568C126.338 34.9573 125.506 34.8922 124.805 34.8709C122.779 34.816 120.688 34.7349 118.642 34.6684C118.21 34.6521 117.791 34.6439 117.39 34.6438C117.141 34.6404 116.914 34.6468 116.718 34.6628C116.661 34.6644 116.613 34.6692 116.578 34.6767C116.542 34.6843 116.52 34.6945 116.513 34.7067C116.506 34.7188 116.513 34.7327 116.535 34.7473C116.557 34.7619 116.593 34.7769 116.641 34.7913C116.808 34.8419 117.002 34.8904 117.215 34.9352L117.116 34.9231ZM131.963 1.92565L133.96 1.89869C134.199 1.8958 134.402 1.86546 134.659 1.87844C136.026 1.91956 137.291 1.90811 138.402 1.84456C138.78 1.81863 139.223 1.81345 139.705 1.82929C141.182 1.87625 142.575 1.87818 143.847 1.83503C144.669 1.82637 145.439 1.79729 146.144 1.74821C146.198 1.73682 146.232 1.72135 146.243 1.70286C146.254 1.68437 146.242 1.6633 146.208 1.64108C146.199 1.62704 146.175 1.61194 146.137 1.59682C146.1 1.58169 146.049 1.5669 145.989 1.55347C145.93 1.54004 145.862 1.52829 145.791 1.51902C145.721 1.50975 145.649 1.50318 145.58 1.49977C144.689 1.43334 143.843 1.41019 143.112 1.43222C142.434 1.45857 141.703 1.46628 140.933 1.45523C140.195 1.45232 139.695 1.53825 138.783 1.47268C138.398 1.45109 138.058 1.4582 137.821 1.49282C137.343 1.55019 136.677 1.55338 135.941 1.50182C135.5 1.47573 135.079 1.46454 134.693 1.46868C133.757 1.48754 132.863 1.52528 131.997 1.56175C131.723 1.57019 131.431 1.57135 131.123 1.56522L126.783 1.49381C125.739 1.4719 124.699 1.44571 123.675 1.43539C122.838 1.41297 122.059 1.41999 121.366 1.4562C120.626 1.49426 119.82 1.50971 118.961 1.50226C117.629 1.52309 116.303 1.53105 114.853 1.52825C113.928 1.52997 112.98 1.5244 112.014 1.50725C111.525 1.48517 111.109 1.50315 110.848 1.55773C110.689 1.60267 110.315 1.56606 110.004 1.55563C108.347 1.45512 106.794 1.43131 105.451 1.48584C105.28 1.49473 105.092 1.49795 104.891 1.49544C103.598 1.49357 102.259 1.48138 101.018 1.48125C100.691 1.48549 100.384 1.49711 100.099 1.51598C100.13 1.54677 100.217 1.58013 100.342 1.60916C100.467 1.63819 100.621 1.66065 100.772 1.67188C101.945 1.75789 103.079 1.80332 104.124 1.80628C105.864 1.79532 107.686 1.81995 109.572 1.87991C111.036 1.94035 112.37 1.92763 113.476 1.84268C114.341 1.77929 115.465 1.80314 116.657 1.91013C117.167 1.96123 117.662 1.98166 118.074 1.96863C118.471 1.95155 118.927 1.95569 119.414 1.98082C120.441 2.0286 121.429 2.05077 122.358 2.04688C123.266 2.02929 124.114 1.98124 125.047 1.96666C125.98 1.95208 127.401 1.96044 128.551 1.93567C129.701 1.9109 130.839 1.90756 131.963 1.92565ZM49.2316 -0.58083C49.337 -0.448333 49.71 -0.365864 50.1114 -0.330533C51.4949 -0.173658 52.8628 -0.106902 53.9852 -0.141469C54.5916 -0.189684 55.3999 -0.171125 56.2513 -0.0894355C57.2428 -0.00451679 58.1694 0.00956513 58.868 -0.0496685C59.0392 -0.0600192 59.1703 -0.0818985 59.2495 -0.113362C59.2649 -0.139072 59.2932 -0.186207 59.2983 -0.194777C59.2249 -0.216513 59.1349 -0.236651 59.0352 -0.253641C58.9355 -0.27063 58.8288 -0.284015 58.7234 -0.292764L54.1405 -0.444435L53.3419 -0.47781C51.8832 -0.56525 50.4932 -0.600086 49.2316 -0.58083ZM58.2461 1.51628C58.9613 1.73263 58.9638 1.72834 59.3303 1.7778C61.0981 1.98323 62.8647 2.09413 64.4199 2.0973C64.7655 2.09667 65.0589 2.07578 65.275 2.0364C65.3863 2.03106 65.4571 2.0141 65.472 1.98921C65.4869 1.96433 65.4447 1.93354 65.3547 1.90356L64.7859 1.75114C63.753 1.68515 62.7349 1.63272 61.7377 1.59416C60.5768 1.54862 59.548 1.54687 58.3444 1.52832L58.2461 1.51628ZM117.031 33.9651C117.697 34.2629 117.7 34.2586 118.816 34.3354C119.593 34.3898 120.347 34.4218 121.056 34.4303C121.922 34.4397 122.809 34.4564 123.673 34.47C123.883 34.4795 124.062 34.4717 124.174 34.4479C124.286 34.4242 124.323 34.3864 124.278 34.3417C124.164 34.2933 123.987 34.2464 123.775 34.2087C123.563 34.171 123.328 34.1448 123.108 34.1342L122.637 34.1271C122.065 34.1123 121.471 34.0901 120.919 34.0869C120.56 34.0992 120.145 34.0897 119.705 34.059C119.265 34.0283 118.813 33.9773 118.384 33.91L117.031 33.9651ZM61.805 -0.191493C61.9829 -0.139924 62.1842 -0.090534 62.4034 -0.0446347C63.2522 0.0825838 64.1507 0.154839 64.9225 0.157966C65.2875 0.165847 65.6212 0.137709 65.9928 0.178598C66.6592 0.233237 67.305 0.262342 67.8955 0.264337C67.8955 0.264337 68.061 0.252407 68.1153 0.24986L68.2284 0.0613137C67.9489 0.0176344 67.6574 -0.018049 67.3674 -0.0440939C66.394 -0.0942574 65.4376 -0.128552 64.4837 -0.167133C63.5298 -0.205715 63.1972 -0.223437 62.5734 -0.240009C62.2951 -0.2309 62.0377 -0.214648 61.805 -0.191493ZM40.7268 23.2485L42.0005 23.6344C42.4127 23.668 42.7978 23.6741 43.0972 23.6518C43.3965 23.6294 43.5937 23.58 43.6589 23.5109C43.7638 23.4786 43.7743 23.4307 43.6882 23.3772C43.6021 23.3238 43.426 23.269 43.197 23.2244C42.9765 23.1714 42.7249 23.1239 42.4576 23.0849C42.1903 23.0458 41.9131 23.016 41.6432 22.9973L40.7268 23.2485ZM51.3321 21.3271C50.499 21.2616 49.7022 21.2349 49.0025 21.2489C48.5617 21.2871 47.9644 21.2749 47.3331 21.2147C46.185 21.0946 45.0782 21.0614 44.2463 21.122C44.2463 21.122 44.2155 21.1734 44.0745 21.1883C43.9335 21.2033 44.4927 21.2395 44.6157 21.2546C45.5178 21.2914 46.425 21.3197 47.2093 21.3329C47.6962 21.3323 48.2112 21.3445 48.7455 21.3692C49.4806 21.4072 50.1777 21.4196 50.8097 21.4057C50.8097 21.4057 51.0542 21.3942 51.3295 21.3313L51.3321 21.3271ZM140.304 1.22648C139.906 1.1538 139.475 1.09473 139.042 1.0537C138.609 1.01268 138.187 0.990764 137.806 0.989597C137.514 0.985805 137.278 1.00499 137.135 1.04413C136.992 1.08327 136.95 1.14012 137.016 1.2057C137.311 1.24184 137.705 1.29002 137.926 1.31713C138.693 1.31447 139.348 1.27962 140.304 1.22648ZM214.793 7.35116C214.474 7.29265 214.122 7.24792 213.778 7.22207C213.434 7.19622 213.112 7.19029 212.848 7.20497C212.712 7.21134 212.804 7.27782 212.781 7.31639C212.766 7.32513 212.766 7.336 212.781 7.34787C212.797 7.35974 212.827 7.37217 212.868 7.38384C212.91 7.39552 212.962 7.40602 213.018 7.41424C213.074 7.42246 213.133 7.42811 213.188 7.43058C213.534 7.45579 213.861 7.46329 214.139 7.45242C214.418 7.44155 214.639 7.41265 214.783 7.3683L214.793 7.35116ZM219.784 8.18754C219.735 8.15301 219.629 8.11703 219.488 8.08619C219.346 8.05534 219.178 8.03169 219.013 8.0196C218.722 8.01797 218.458 8.02754 218.231 8.04796C217.983 8.0637 218.161 8.16366 218.495 8.22296C218.637 8.24677 218.788 8.26533 218.937 8.27719C219.086 8.28904 219.228 8.29386 219.353 8.29125C219.477 8.28864 219.581 8.27868 219.655 8.26217C219.729 8.24565 219.771 8.22303 219.779 8.19611L219.784 8.18754ZM74.7612 0.175723C74.0166 0.0523676 73.4435 0.0834009 72.8131 0.0338211C72.1827 -0.015757 72.0274 -0.0209735 72.1118 0.0583612C72.1963 0.137696 72.6284 0.121607 72.899 0.154734C73.2647 0.198693 73.6325 0.223933 73.9613 0.22764C74.2902 0.231348 74.5672 0.213372 74.7612 0.175723ZM229.924 21.0477C229.529 21.02 229.143 21.0004 228.77 20.9893C228.721 21.0008 228.691 21.0158 228.68 21.0334C228.67 21.0511 228.679 21.071 228.709 21.0921C228.709 21.0921 228.961 21.1552 229.109 21.1733C229.653 21.2353 229.679 21.1466 229.924 21.0477ZM285.667 32.5406C285.934 32.6239 286.059 32.6805 286.272 32.7205C286.37 32.7343 286.472 32.7444 286.569 32.7499C286.666 32.7555 286.757 32.7563 286.834 32.7524C286.928 32.7284 286.95 32.6917 286.896 32.6496C286.896 32.6496 286.624 32.5749 286.52 32.5714C286.225 32.5538 285.938 32.5434 285.667 32.5406ZM62.0869 -0.529556C61.5211 -0.598823 60.9798 -0.665083 60.5881 -0.58425C61.4865 -0.497258 61.4866 -0.497252 62.0869 -0.529556ZM71.2509 0.261142C70.6796 0.113004 70.3443 0.0995609 70.07 0.116582C70.0117 0.120869 69.9732 0.130424 69.9602 0.143796C69.9471 0.157168 69.9604 0.173632 69.9979 0.190697C70.0354 0.207762 70.0951 0.224498 70.168 0.238376C70.2409 0.252254 70.3231 0.262518 70.402 0.267613C70.6999 0.271877 70.9841 0.269712 71.2509 0.261142ZM100.656 0.323782C100.669 0.302357 100.684 0.276646 100.536 0.258577C100.498 0.249404 100.452 0.241515 100.405 0.235701C100.357 0.229885 100.309 0.226353 100.266 0.225454C100.266 0.225454 100.25 0.251166 100.24 0.268306L100.656 0.323782ZM121.075 35.8953L120.747 35.9149L120.894 35.933L121.284 35.9439L121.075 35.8953ZM236.779 7.85321C236.656 7.83815 236.533 7.82309 236.515 7.85309C236.489 7.85773 236.473 7.86444 236.468 7.87264C236.463 7.88084 236.469 7.89029 236.486 7.90022C236.486 7.90022 236.659 7.92131 236.732 7.93034L236.779 7.85321ZM217.623 8.09311C217.542 8.09139 217.469 8.0934 217.408 8.09902L217.392 8.12473L217.638 8.15485L217.623 8.09311ZM50.6824 14.2192C50.5874 14.2036 50.4867 14.1913 50.3872 14.1831L50.2642 14.168C50.2642 14.168 50.3963 14.2118 50.4702 14.2208C50.5439 14.2298 50.6035 14.2187 50.6824 14.2192Z" fill="#99CFFF"/>
</g>
</svg>
