<?xml version="1.0" encoding="utf-8"?>
<!-- Generator: Adobe Illustrator 24.1.1, SVG Export Plug-In . SVG Version: 6.00 Build 0)  -->
<svg version="1.1" id="Layer_1" xmlns="http://www.w3.org/2000/svg" xmlns:xlink="http://www.w3.org/1999/xlink" x="0px" y="0px"
	 width="403.9px" height="56px" viewBox="0 0 403.9 56" style="enable-background:new 0 0 403.9 56;" xml:space="preserve">
<style type="text/css">
	.st0{fill:#F96731;}
	.st1{fill:#2B9AF3;}
	.st2{fill:#1C96E8;}
</style>
<g>
	<g>
		<g>
			<g>
				<path d="M0,34.7V1.4h4.1v19l9.7-9.8h5.3l-9.2,9L20,34.7h-5L7,22.4l-2.9,2.8v9.6L0,34.7L0,34.7z"/>
				<path d="M49.2,34.7V10.6h3.7V14c1.8-2.7,4.3-4,7.7-4c1.5,0,2.8,0.3,4,0.8c1.2,0.5,2.1,1.2,2.7,2.1c0.6,0.8,1,1.9,1.3,3
					c0.2,0.8,0.2,2.1,0.2,4v14.9h-4.1V20.1c0-1.7-0.2-2.9-0.5-3.7c-0.3-0.8-0.9-1.5-1.7-2s-1.8-0.7-2.9-0.7c-1.7,0-3.2,0.6-4.5,1.7
					s-1.9,3.2-1.9,6.3v13.2h-4V34.7z"/>
				<path d="M91.6,27l4.2,0.5c-0.7,2.5-1.9,4.4-3.7,5.8c-1.8,1.4-4.1,2-6.9,2c-3.5,0-6.3-1.1-8.4-3.3s-3.1-5.2-3.1-9.2
					c0-4.1,1-7.2,3.1-9.5C79,11.2,81.7,10,85,10c3.2,0,5.9,1.1,7.9,3.3s3.1,5.3,3.1,9.3c0,0.2,0,0.6,0,1.1H78
					c0.2,2.7,0.9,4.7,2.3,6.1c1.3,1.4,3,2.1,5,2.1c1.5,0,2.8-0.4,3.8-1.2C90.2,30,91,28.7,91.6,27z M78.2,20.3h13.5
					c-0.2-2-0.7-3.6-1.5-4.6c-1.3-1.6-3-2.4-5.1-2.4c-1.9,0-3.5,0.6-4.7,1.9C79,16.6,78.3,18.2,78.2,20.3z"/>
				<path d="M116.8,25.9l4,0.5c-0.4,2.8-1.6,4.9-3.4,6.5c-1.8,1.6-4,2.4-6.7,2.4c-3.3,0-6-1.1-8-3.2c-2-2.2-3-5.3-3-9.3
					c0-2.6,0.4-4.9,1.3-6.8c0.9-2,2.2-3.4,3.9-4.4c1.8-1,3.7-1.5,5.8-1.5c2.6,0,4.8,0.7,6.4,2c1.7,1.3,2.7,3.2,3.2,5.7l-4,0.6
					c-0.4-1.6-1.1-2.8-2-3.7c-1-0.8-2.1-1.2-3.5-1.2c-2.1,0-3.7,0.7-5,2.2s-1.9,3.8-1.9,7s0.6,5.6,1.9,7.1c1.2,1.5,2.9,2.2,4.9,2.2
					c1.6,0,2.9-0.5,4-1.5C115.8,29.5,116.5,27.9,116.8,25.9z"/>
				<path d="M133.2,31.1l0.6,3.6c-1.2,0.2-2.2,0.4-3.1,0.4c-1.5,0-2.6-0.2-3.5-0.7c-0.8-0.5-1.4-1.1-1.7-1.9
					c-0.3-0.8-0.5-2.4-0.5-4.8V13.8h-3v-3.2h3v-6l4.1-2.5v8.4h4.1v3.2h-4.1v14.1c0,1.2,0.1,1.9,0.2,2.3c0.1,0.3,0.4,0.6,0.7,0.8
					c0.3,0.2,0.8,0.3,1.4,0.3C131.9,31.2,132.5,31.2,133.2,31.1z"/>
				<path d="M153,31.8c-1.5,1.3-3,2.2-4.4,2.7s-2.9,0.8-4.5,0.8c-2.7,0-4.7-0.6-6.1-1.9c-1.4-1.3-2.1-3-2.1-5c0-1.2,0.3-2.3,0.8-3.2
					c0.5-1,1.2-1.8,2.1-2.4c0.9-0.6,1.9-1,2.9-1.3c0.8-0.2,2-0.4,3.6-0.6c3.3-0.4,5.7-0.9,7.3-1.4c0-0.6,0-0.9,0-1.1
					c0-1.7-0.4-2.8-1.2-3.5c-1-0.9-2.6-1.4-4.7-1.4c-1.9,0-3.3,0.3-4.3,1c-0.9,0.7-1.6,1.9-2,3.6l-4-0.5c0.4-1.7,1-3.1,1.8-4.2
					s2-1.9,3.6-2.4c1.6-0.6,3.4-0.9,5.5-0.9s3.7,0.2,5,0.7s2.2,1.1,2.8,1.8s1,1.7,1.3,2.8c0.1,0.7,0.2,2,0.2,3.8v5.5
					c0,3.8,0.1,6.2,0.3,7.2s0.5,2,1,2.9h-4.3C153.4,33.9,153.1,32.9,153,31.8z M152.7,22.6c-1.5,0.6-3.7,1.1-6.7,1.5
					c-1.7,0.2-2.9,0.5-3.6,0.8c-0.7,0.3-1.2,0.7-1.6,1.3c-0.4,0.6-0.6,1.2-0.6,1.9c0,1.1,0.4,2,1.2,2.7s2,1.1,3.6,1.1s3-0.3,4.2-1
					s2.1-1.6,2.7-2.8c0.4-0.9,0.7-2.3,0.7-4.1v-1.4H152.7z"/>
				<path d="M163.1,34.7V10.6h3.7v3.7c0.9-1.7,1.8-2.8,2.6-3.4c0.8-0.5,1.7-0.8,2.6-0.8c1.4,0,2.8,0.4,4.2,1.3l-1.4,3.8
					c-1-0.6-2-0.9-3-0.9c-0.9,0-1.7,0.3-2.4,0.8s-1.2,1.3-1.5,2.2c-0.5,1.5-0.7,3-0.7,4.8v12.6C167.2,34.7,163.1,34.7,163.1,34.7z"
					/>
				<g>
					<circle class="st0" cx="33.1" cy="32.4" r="2.3"/>
					<circle class="st0" cx="33.1" cy="12.3" r="2.3"/>
					<path class="st1" d="M30.8,29.9c-3.2-1-5.6-4-5.6-7.5s2.4-6.6,5.6-7.5c-0.7-0.6-1.1-1.5-1.1-2.5c0-0.6,0.2-1.2,0.5-1.7l0,0
						C24.9,12,21,16.8,21,22.5s3.9,10.5,9.2,11.8l0,0c-0.3-0.5-0.5-1.1-0.5-1.7C29.7,31.4,30.1,30.5,30.8,29.9z"/>
					<path class="st1" d="M36,10.6c0.3,0.5,0.5,1.1,0.5,1.8c0,1-0.4,1.9-1.1,2.5c3.2,1,5.6,4,5.6,7.5s-2.4,6.6-5.6,7.5
						c0.7,0.6,1.1,1.5,1.1,2.5c0,0.6-0.2,1.2-0.5,1.8c5.3-1.3,9.2-6.1,9.2-11.8S41.3,11.9,36,10.6z"/>
				</g>
			</g>
		</g>
		<g>
			<g>
				<g>
					<path class="st2" d="M213.3,22.3c0,1.9-0.2,3.6-0.7,5.1c-0.4,1.5-1.1,2.8-2,3.9c-0.9,1.1-2,1.9-3.3,2.5s-2.9,0.9-4.7,0.9
						s-3.3-0.3-4.6-0.8s-2.3-1.3-3.2-2.3c-0.8-1-1.5-2.2-1.9-3.7s-0.6-3.2-0.6-5.1c0-1.8,0.2-3.5,0.7-5c0.4-1.5,1.1-2.8,2-3.8
						c0.9-1.1,2-1.9,3.3-2.4c1.3-0.6,2.9-0.9,4.7-0.9c1.7,0,3.2,0.3,4.5,0.8s2.3,1.3,3.2,2.3s1.5,2.2,1.9,3.7S213.3,20.4,213.3,22.3
						z M210,22.5c0-1.3-0.1-2.6-0.4-3.7c-0.2-1.1-0.6-2.1-1.2-3c-0.5-0.8-1.3-1.5-2.2-2s-2-0.7-3.4-0.7c-1.3,0-2.5,0.3-3.4,0.8
						s-1.7,1.2-2.2,2c-0.6,0.8-1,1.8-1.2,3c-0.2,1.1-0.4,2.3-0.4,3.6c0,1.4,0.1,2.6,0.3,3.8c0.2,1.2,0.6,2.2,1.2,3
						c0.5,0.8,1.3,1.5,2.2,2s2.1,0.7,3.4,0.7c1.4,0,2.5-0.3,3.4-0.8s1.7-1.2,2.2-2.1s1-1.9,1.2-3C209.9,25,210,23.8,210,22.5z"/>
					<path class="st2" d="M233.8,33.8c0,0.1,0,0.2-0.1,0.3c0,0.1-0.1,0.1-0.2,0.2c-0.1,0-0.3,0.1-0.5,0.1s-0.5,0-0.9,0
						c-0.3,0-0.6,0-0.8,0s-0.4-0.1-0.5-0.1c-0.1-0.1-0.2-0.1-0.3-0.2c-0.1-0.1-0.1-0.2-0.2-0.4l-2.2-5.5c-0.3-0.6-0.5-1.2-0.8-1.7
						s-0.6-1-1-1.4s-0.8-0.7-1.3-0.9c-0.5-0.2-1.1-0.3-1.8-0.3h-2.1v10c0,0.1,0,0.2-0.1,0.3s-0.1,0.1-0.3,0.2
						c-0.1,0-0.3,0.1-0.5,0.1s-0.4,0-0.8,0c-0.3,0-0.6,0-0.8,0s-0.4-0.1-0.5-0.1s-0.2-0.1-0.3-0.2c0-0.1-0.1-0.2-0.1-0.3V12.1
						c0-0.5,0.1-0.8,0.4-1s0.5-0.3,0.8-0.3h5c0.6,0,1.1,0,1.5,0s0.7,0.1,1.1,0.1c0.9,0.2,1.7,0.4,2.4,0.7s1.3,0.8,1.7,1.3
						c0.5,0.5,0.8,1.1,1.1,1.8c0.2,0.7,0.4,1.4,0.4,2.2c0,0.8-0.1,1.5-0.3,2.1s-0.5,1.2-0.9,1.6c-0.4,0.5-0.9,0.9-1.4,1.2
						c-0.6,0.4-1.2,0.6-1.9,0.9c0.4,0.2,0.7,0.4,1,0.6c0.3,0.3,0.6,0.6,0.9,0.9s0.5,0.8,0.8,1.2c0.2,0.5,0.5,1,0.7,1.6l2.1,5.2
						c0.2,0.4,0.3,0.7,0.3,0.9C233.8,33.5,233.8,33.7,233.8,33.8z M229.2,17.3c0-0.9-0.2-1.7-0.6-2.3c-0.4-0.6-1.1-1.1-2.1-1.4
						c-0.3-0.1-0.6-0.1-1-0.2s-0.9-0.1-1.5-0.1h-2.6v7.9h3c0.8,0,1.5-0.1,2.1-0.3c0.6-0.2,1.1-0.5,1.5-0.8c0.4-0.4,0.7-0.8,0.9-1.3
						C229.1,18.4,229.2,17.9,229.2,17.3z"/>
					<path class="st2" d="M255.9,33.1c0.1,0.3,0.1,0.5,0.2,0.6c0,0.2,0,0.3-0.1,0.4c-0.1,0.1-0.3,0.1-0.5,0.2c-0.2,0-0.5,0-0.9,0
						s-0.7,0-0.9,0s-0.4,0-0.5-0.1c-0.1,0-0.2-0.1-0.3-0.2c-0.1-0.1-0.1-0.2-0.2-0.3l-2-5.7H241l-1.9,5.6c0,0.1-0.1,0.2-0.1,0.3
						c-0.1,0.1-0.1,0.1-0.3,0.2c-0.1,0.1-0.3,0.1-0.5,0.1s-0.5,0-0.8,0s-0.6,0-0.9,0c-0.2,0-0.4-0.1-0.5-0.2s-0.1-0.2-0.1-0.4
						s0.1-0.4,0.2-0.6l7.9-21.7c0-0.1,0.1-0.2,0.2-0.3c0.1-0.1,0.2-0.2,0.3-0.2c0.2,0,0.3-0.1,0.6-0.1s0.5,0,0.9,0s0.7,0,1,0
						s0.5,0.1,0.6,0.1c0.2,0,0.3,0.1,0.4,0.2s0.2,0.2,0.2,0.3L255.9,33.1z M245.8,14L245.8,14l-4.1,11.7h8.1L245.8,14z"/>
					<path class="st2" d="M271.9,32.9c0,0.2,0,0.4,0,0.6c0,0.2-0.1,0.3-0.1,0.4c-0.1,0.1-0.1,0.2-0.2,0.3s-0.2,0.1-0.3,0.1H261
						c-0.3,0-0.5-0.1-0.8-0.3s-0.4-0.5-0.4-1V11.3c0-0.1,0-0.2,0.1-0.3c0-0.1,0.1-0.1,0.3-0.2c0.1,0,0.3-0.1,0.5-0.1s0.5,0,0.7,0
						c0.3,0,0.6,0,0.8,0c0.2,0,0.4,0.1,0.5,0.1s0.2,0.1,0.3,0.2c0,0.1,0.1,0.2,0.1,0.3v20.2h8.4c0.1,0,0.2,0,0.3,0.1
						c0.1,0.1,0.1,0.1,0.2,0.2s0.1,0.2,0.1,0.4C271.9,32.4,271.9,32.7,271.9,32.9z"/>
					<path class="st2" d="M300.6,33.8c0,0.1,0,0.2-0.1,0.3c0,0.1-0.1,0.1-0.3,0.2c-0.1,0-0.3,0.1-0.5,0.1s-0.4,0-0.7,0
						c-0.3,0-0.6,0-0.8,0c-0.2,0-0.3-0.1-0.5-0.1c-0.1,0-0.2-0.1-0.3-0.2c0-0.1-0.1-0.2-0.1-0.3V23.4h-10.7v10.4
						c0,0.1,0,0.2-0.1,0.3c0,0.1-0.1,0.1-0.3,0.2c-0.1,0-0.3,0.1-0.5,0.1s-0.5,0-0.8,0s-0.5,0-0.7,0s-0.4-0.1-0.5-0.1
						s-0.2-0.1-0.3-0.2c0-0.1-0.1-0.2-0.1-0.3V11.3c0-0.1,0-0.2,0.1-0.3c0-0.1,0.1-0.1,0.3-0.2c0.1,0,0.3-0.1,0.5-0.1s0.5,0,0.7,0
						c0.3,0,0.6,0,0.8,0c0.2,0,0.4,0.1,0.5,0.1s0.2,0.1,0.3,0.2c0,0.1,0.1,0.2,0.1,0.3v9.4h10.7v-9.4c0-0.1,0-0.2,0.1-0.3
						c0-0.1,0.1-0.1,0.3-0.2c0.1,0,0.3-0.1,0.5-0.1s0.4,0,0.8,0c0.3,0,0.5,0,0.7,0s0.4,0.1,0.5,0.1s0.2,0.1,0.3,0.2
						c0,0.1,0.1,0.2,0.1,0.3V33.8z"/>
					<path class="st2" d="M319.8,33c0,0.2,0,0.4,0,0.6c0,0.2-0.1,0.3-0.1,0.4s-0.1,0.2-0.2,0.2s-0.2,0.1-0.3,0.1H308
						c-0.3,0-0.5-0.1-0.8-0.3c-0.2-0.2-0.4-0.5-0.4-1V12.1c0-0.5,0.1-0.8,0.4-1c0.2-0.2,0.5-0.3,0.8-0.3h11.1c0.1,0,0.2,0,0.3,0.1
						c0.1,0,0.1,0.1,0.2,0.2c0,0.1,0.1,0.2,0.1,0.4s0,0.4,0,0.6c0,0.2,0,0.4,0,0.6c0,0.2-0.1,0.3-0.1,0.4c0,0.1-0.1,0.2-0.2,0.2
						s-0.2,0.1-0.3,0.1h-9.2v7.3h7.9c0.1,0,0.2,0,0.3,0.1c0.1,0.1,0.1,0.1,0.2,0.2s0.1,0.2,0.1,0.4s0,0.4,0,0.6s0,0.4,0,0.6
						s-0.1,0.3-0.1,0.4c-0.1,0.1-0.1,0.2-0.2,0.2s-0.2,0.1-0.3,0.1h-7.9v8.4h9.3c0.1,0,0.2,0,0.3,0.1c0.1,0,0.1,0.1,0.2,0.2
						c0.1,0.1,0.1,0.2,0.1,0.4C319.8,32.5,319.8,32.7,319.8,33z"/>
					<path class="st2" d="M342,33.1c0.1,0.3,0.1,0.5,0.2,0.6c0,0.2,0,0.3-0.1,0.4c-0.1,0.1-0.3,0.1-0.5,0.2c-0.2,0-0.5,0-0.9,0
						s-0.7,0-0.9,0c-0.2,0-0.4,0-0.5-0.1c-0.1,0-0.2-0.1-0.3-0.2c-0.1-0.1-0.1-0.2-0.2-0.3l-2-5.7h-9.7l-1.9,5.6
						c0,0.1-0.1,0.2-0.1,0.3c-0.1,0.1-0.1,0.1-0.3,0.2c-0.1,0.1-0.3,0.1-0.5,0.1s-0.5,0-0.8,0s-0.6,0-0.9,0c-0.2,0-0.4-0.1-0.5-0.2
						s-0.1-0.2-0.1-0.4s0.1-0.4,0.2-0.6l7.9-21.7c0-0.1,0.1-0.2,0.2-0.3s0.2-0.2,0.3-0.2c0.2,0,0.3-0.1,0.6-0.1s0.5,0,0.9,0
						s0.7,0,1,0s0.5,0.1,0.6,0.1c0.2,0,0.3,0.1,0.4,0.2s0.2,0.2,0.2,0.3L342,33.1z M332,14L332,14l-4.1,11.7h8.1L332,14z"/>
					<path class="st2" d="M358.1,32.9c0,0.2,0,0.4,0,0.6c0,0.2-0.1,0.3-0.1,0.4c-0.1,0.1-0.1,0.2-0.2,0.3s-0.2,0.1-0.3,0.1h-10.3
						c-0.3,0-0.5-0.1-0.8-0.3s-0.4-0.5-0.4-1V11.3c0-0.1,0-0.2,0.1-0.3c0-0.1,0.1-0.1,0.3-0.2c0.1,0,0.3-0.1,0.5-0.1s0.5,0,0.7,0
						c0.3,0,0.6,0,0.8,0c0.2,0,0.4,0.1,0.5,0.1s0.2,0.1,0.3,0.2c0,0.1,0.1,0.2,0.1,0.3v20.2h8.4c0.1,0,0.2,0,0.3,0.1
						c0.1,0.1,0.1,0.1,0.2,0.2s0.1,0.2,0.1,0.4C358.1,32.4,358.1,32.7,358.1,32.9z"/>
					<path class="st2" d="M373.5,12.2c0,0.2,0,0.4,0,0.6c0,0.2-0.1,0.3-0.1,0.4c-0.1,0.1-0.1,0.2-0.2,0.2s-0.2,0.1-0.3,0.1h-6.6
						v20.3c0,0.1,0,0.2-0.1,0.3c0,0.1-0.1,0.1-0.3,0.2c-0.1,0-0.3,0.1-0.5,0.1s-0.4,0-0.8,0c-0.3,0-0.5,0-0.7,0s-0.4-0.1-0.5-0.1
						s-0.2-0.1-0.3-0.2c0-0.1-0.1-0.2-0.1-0.3V13.5h-6.6c-0.1,0-0.2,0-0.3-0.1c-0.1,0-0.1-0.1-0.2-0.2c0-0.1-0.1-0.2-0.1-0.4
						s0-0.4,0-0.6c0-0.2,0-0.4,0-0.6s0.1-0.3,0.1-0.4c0-0.1,0.1-0.2,0.2-0.2s0.2-0.1,0.3-0.1h16.3c0.1,0,0.2,0,0.3,0.1
						c0.1,0,0.1,0.1,0.2,0.2c0.1,0.1,0.1,0.3,0.1,0.4C373.5,11.7,373.5,12,373.5,12.2z"/>
					<path class="st2" d="M393.7,33.8c0,0.1,0,0.2-0.1,0.3c0,0.1-0.1,0.1-0.3,0.2c-0.1,0-0.3,0.1-0.5,0.1s-0.4,0-0.7,0
						c-0.3,0-0.6,0-0.8,0c-0.2,0-0.3-0.1-0.5-0.1c-0.1,0-0.2-0.1-0.3-0.2c0-0.1-0.1-0.2-0.1-0.3V23.4H380v10.4c0,0.1,0,0.2-0.1,0.3
						c0,0.1-0.1,0.1-0.3,0.2c-0.1,0-0.3,0.1-0.5,0.1s-0.4,0-0.8,0c-0.3,0-0.5,0-0.7,0s-0.4-0.1-0.5-0.1s-0.2-0.1-0.3-0.2
						c0-0.1-0.1-0.2-0.1-0.3V11.3c0-0.1,0-0.2,0.1-0.3c0-0.1,0.1-0.1,0.3-0.2c0.1,0,0.3-0.1,0.5-0.1s0.5,0,0.7,0c0.3,0,0.6,0,0.8,0
						c0.2,0,0.4,0.1,0.5,0.1s0.2,0.1,0.3,0.2c0,0.1,0.1,0.2,0.1,0.3v9.4h10.7v-9.4c0-0.1,0-0.2,0.1-0.3c0-0.1,0.1-0.1,0.3-0.2
						c0.1,0,0.3-0.1,0.5-0.1s0.4,0,0.8,0c0.3,0,0.5,0,0.7,0s0.4,0.1,0.5,0.1s0.2,0.1,0.3,0.2c0,0.1,0.1,0.2,0.1,0.3v22.5H393.7z"/>
				</g>
			</g>
		</g>
	</g>
	<g>
		<path d="M185.1,6.3c0,2.5-1.9,4.4-4.5,4.4c-2.5,0-4.5-1.9-4.5-4.4c0-2.4,2-4.3,4.5-4.3C183.1,2,185.1,3.9,185.1,6.3z M177.2,6.3
			c0,1.9,1.4,3.5,3.4,3.5c1.9,0,3.3-1.5,3.3-3.4s-1.4-3.5-3.3-3.5C178.7,2.9,177.2,4.4,177.2,6.3z M179.9,8.6h-1V4.3
			c0.4-0.1,1-0.1,1.7-0.1c0.8,0,1.2,0.1,1.5,0.3c0.2,0.2,0.4,0.5,0.4,1s-0.4,0.8-0.9,1v0.1c0.4,0.2,0.7,0.5,0.8,1.1
			c0.1,0.7,0.2,0.9,0.3,1.1h-1.1c-0.1-0.2-0.2-0.6-0.3-1.1S181,7,180.4,7h-0.5V8.6z M179.9,6.2h0.5c0.6,0,1-0.2,1-0.6
			s-0.3-0.7-0.9-0.7c-0.3,0-0.5,0-0.6,0.1V6.2z"/>
	</g>
</g>
<g>
	<path d="M0,46.2c0-2.4,1.4-3.9,3.3-3.9c0.9,0,1.6,0.4,2.1,0.9l-0.5,0.6c-0.4-0.4-0.9-0.7-1.5-0.7c-1.4,0-2.3,1.2-2.3,3
		c0,1.9,0.9,3.1,2.3,3.1c0.7,0,1.3-0.3,1.7-0.8L5.6,49C5,49.6,4.2,50,3.3,50C1.4,50,0,48.6,0,46.2z"/>
	<path d="M6.8,47.1c0-1.9,1.2-2.9,2.6-2.9c1.4,0,2.6,1.1,2.6,2.9C12,49,10.8,50,9.4,50C8,50,6.8,49,6.8,47.1z M11,47.1
		c0-1.3-0.6-2.1-1.6-2.1c-0.9,0-1.6,0.9-1.6,2.1c0,1.3,0.6,2.1,1.6,2.1C10.4,49.3,11,48.4,11,47.1z"/>
	<path d="M13.8,44.4h0.8l0.1,0.8h0c0.5-0.5,1.1-0.9,1.9-0.9c1.2,0,1.7,0.8,1.7,2.2v3.5h-0.9v-3.4c0-1-0.3-1.5-1-1.5
		c-0.6,0-1,0.3-1.5,0.9v4h-0.9V44.4z"/>
	<path d="M20.4,44.4h0.8l0.1,0.8h0c0.5-0.5,1.1-0.9,1.9-0.9c1.2,0,1.7,0.8,1.7,2.2v3.5h-0.9v-3.4c0-1-0.3-1.5-1-1.5
		c-0.6,0-1,0.3-1.5,0.9v4h-0.9V44.4z"/>
	<path d="M26.7,47.1c0-1.8,1.2-2.9,2.5-2.9c1.4,0,2.2,1,2.2,2.6c0,0.2,0,0.4,0,0.5h-3.7c0.1,1.2,0.8,1.9,1.8,1.9
		c0.5,0,1-0.2,1.4-0.4l0.3,0.6c-0.5,0.3-1.1,0.6-1.8,0.6C27.8,50,26.7,49,26.7,47.1z M30.5,46.7c0-1.1-0.5-1.7-1.4-1.7
		c-0.8,0-1.5,0.6-1.6,1.7H30.5z"/>
	<path d="M32.7,47.1c0-1.9,1.2-2.9,2.7-2.9c0.7,0,1.2,0.3,1.6,0.6l-0.5,0.6c-0.3-0.3-0.7-0.5-1.1-0.5c-1,0-1.7,0.9-1.7,2.1
		c0,1.3,0.7,2.1,1.7,2.1c0.5,0,1-0.3,1.3-0.6l0.4,0.6C36.6,49.8,36,50,35.3,50C33.8,50,32.7,49,32.7,47.1z"/>
	<path d="M38.9,48.2v-3.1H38v-0.7l0.9-0.1l0.1-1.6h0.8v1.6h1.5v0.8h-1.5v3.1c0,0.7,0.2,1.1,0.9,1.1c0.2,0,0.4-0.1,0.6-0.1l0.2,0.7
		c-0.3,0.1-0.7,0.2-1,0.2C39.3,50,38.9,49.3,38.9,48.2z"/>
	<path d="M42.8,42.6c0-0.4,0.3-0.6,0.6-0.6c0.4,0,0.6,0.2,0.6,0.6c0,0.4-0.3,0.6-0.6,0.6C43.1,43.2,42.8,43,42.8,42.6z M43,44.4h0.9
		v5.5H43V44.4z"/>
	<path d="M46.1,44.4h0.8l0.1,0.8h0c0.5-0.5,1.1-0.9,1.9-0.9c1.2,0,1.7,0.8,1.7,2.2v3.5h-0.9v-3.4c0-1-0.3-1.5-1-1.5
		c-0.6,0-1,0.3-1.5,0.9v4h-0.9V44.4z"/>
	<path d="M52.4,51c0-0.5,0.3-0.9,0.8-1.3v0c-0.3-0.2-0.5-0.5-0.5-0.9c0-0.5,0.3-0.8,0.6-1v0c-0.4-0.3-0.7-0.8-0.7-1.5
		c0-1.2,1-2,2.1-2c0.3,0,0.6,0.1,0.8,0.1h1.9v0.7h-1.1c0.3,0.3,0.5,0.7,0.5,1.1c0,1.2-0.9,1.9-2,1.9c-0.3,0-0.6-0.1-0.8-0.2
		c-0.2,0.2-0.4,0.4-0.4,0.7c0,0.4,0.2,0.6,1,0.6h1.1c1.3,0,1.9,0.4,1.9,1.3c0,1-1.1,1.9-2.8,1.9C53.3,52.5,52.4,51.9,52.4,51z
		 M56.5,50.7c0-0.5-0.4-0.7-1.1-0.7h-1c-0.2,0-0.5,0-0.7-0.1c-0.4,0.3-0.6,0.6-0.6,0.9c0,0.6,0.6,1,1.6,1
		C55.8,51.8,56.5,51.3,56.5,50.7z M55.8,46.2c0-0.8-0.5-1.3-1.2-1.3c-0.6,0-1.2,0.5-1.2,1.3c0,0.8,0.5,1.3,1.2,1.3
		C55.3,47.5,55.8,47,55.8,46.2z"/>
	<path d="M61.7,42.4h0.9v6.7h3.3v0.8h-4.2V42.4z"/>
	<path d="M67.3,42.6c0-0.4,0.3-0.6,0.6-0.6s0.6,0.2,0.6,0.6c0,0.4-0.3,0.6-0.6,0.6S67.3,43,67.3,42.6z M67.5,44.4h0.9v5.5h-0.9V44.4
		z"/>
	<path d="M70.9,45.1h-0.8v-0.7l0.8-0.1v-0.9c0-1.1,0.5-1.8,1.6-1.8c0.3,0,0.7,0.1,0.9,0.2l-0.2,0.7c-0.2-0.1-0.4-0.1-0.6-0.1
		c-0.5,0-0.8,0.4-0.8,1.1v0.9H73v0.8h-1.2v4.8h-0.9V45.1z"/>
	<path d="M74,47.1c0-1.8,1.2-2.9,2.5-2.9c1.4,0,2.2,1,2.2,2.6c0,0.2,0,0.4,0,0.5h-3.7c0.1,1.2,0.8,1.9,1.8,1.9c0.5,0,1-0.2,1.4-0.4
		l0.3,0.6C78,49.8,77.4,50,76.7,50C75.2,50,74,49,74,47.1z M77.9,46.7c0-1.1-0.5-1.7-1.4-1.7c-0.8,0-1.5,0.6-1.6,1.7H77.9z"/>
	<path d="M82.7,48.9l0.6-0.7c0.5,0.6,1.3,0.9,2.1,0.9c1,0,1.6-0.5,1.6-1.2c0-0.8-0.5-1-1.2-1.3l-1.1-0.5c-0.7-0.3-1.5-0.8-1.5-1.9
		c0-1.1,1-2,2.3-2c0.9,0,1.7,0.4,2.2,0.9l-0.5,0.6c-0.5-0.4-1-0.7-1.7-0.7c-0.8,0-1.4,0.4-1.4,1.1c0,0.7,0.6,1,1.2,1.2l1.1,0.5
		c0.9,0.4,1.5,0.9,1.5,2c0,1.2-1,2.1-2.5,2.1C84.3,50,83.3,49.6,82.7,48.9z"/>
	<path d="M89.2,47.1c0-1.9,1.2-2.9,2.7-2.9c0.7,0,1.2,0.3,1.6,0.6L93,45.5c-0.3-0.3-0.7-0.5-1.1-0.5c-1,0-1.7,0.9-1.7,2.1
		c0,1.3,0.7,2.1,1.7,2.1c0.5,0,1-0.3,1.3-0.6l0.4,0.6c-0.5,0.4-1.1,0.7-1.8,0.7C90.3,50,89.2,49,89.2,47.1z"/>
	<path d="M95,42.6c0-0.4,0.3-0.6,0.6-0.6s0.6,0.2,0.6,0.6c0,0.4-0.3,0.6-0.6,0.6S95,43,95,42.6z M95.2,44.4h0.9v5.5h-0.9V44.4z"/>
	<path d="M98,47.1c0-1.8,1.2-2.9,2.5-2.9c1.4,0,2.2,1,2.2,2.6c0,0.2,0,0.4,0,0.5h-3.7c0.1,1.2,0.8,1.9,1.8,1.9c0.5,0,1-0.2,1.4-0.4
		l0.3,0.6c-0.5,0.3-1.1,0.6-1.8,0.6C99.2,50,98,49,98,47.1z M101.9,46.7c0-1.1-0.5-1.7-1.4-1.7c-0.8,0-1.5,0.6-1.6,1.7H101.9z"/>
	<path d="M104.5,44.4h0.8l0.1,0.8h0c0.5-0.5,1.1-0.9,1.9-0.9c1.2,0,1.7,0.8,1.7,2.2v3.5H108v-3.4c0-1-0.3-1.5-1-1.5
		c-0.6,0-1,0.3-1.5,0.9v4h-0.9V44.4z"/>
	<path d="M110.7,47.1c0-1.9,1.2-2.9,2.7-2.9c0.7,0,1.2,0.3,1.6,0.6l-0.5,0.6c-0.3-0.3-0.7-0.5-1.1-0.5c-1,0-1.7,0.9-1.7,2.1
		c0,1.3,0.7,2.1,1.7,2.1c0.5,0,1-0.3,1.3-0.6l0.4,0.6c-0.5,0.4-1.1,0.7-1.8,0.7C111.8,50,110.7,49,110.7,47.1z"/>
	<path d="M116.3,47.1c0-1.8,1.2-2.9,2.5-2.9c1.4,0,2.2,1,2.2,2.6c0,0.2,0,0.4,0,0.5h-3.7c0.1,1.2,0.8,1.9,1.8,1.9
		c0.5,0,1-0.2,1.4-0.4l0.3,0.6c-0.5,0.3-1.1,0.6-1.8,0.6C117.4,50,116.3,49,116.3,47.1z M120.1,46.7c0-1.1-0.5-1.7-1.4-1.7
		c-0.8,0-1.5,0.6-1.6,1.7H120.1z"/>
	<path d="M122.1,49.3l0.5-0.6c0.5,0.4,1,0.7,1.6,0.7c0.7,0,1.1-0.4,1.1-0.9c0-0.6-0.7-0.8-1.3-1c-0.8-0.3-1.7-0.7-1.7-1.6
		c0-0.9,0.7-1.6,1.9-1.6c0.7,0,1.3,0.3,1.7,0.6l-0.4,0.6c-0.4-0.3-0.8-0.5-1.3-0.5c-0.7,0-1,0.4-1,0.8c0,0.5,0.6,0.7,1.2,1
		c0.8,0.3,1.7,0.6,1.7,1.7c0,0.9-0.7,1.7-2,1.7C123.4,50,122.6,49.7,122.1,49.3z"/>
	<path d="M130.6,42.4h4.3v0.8h-3.4v2.3h2.8v0.8h-2.8v2.7h3.5v0.8h-4.4V42.4z"/>
	<path d="M138,47l-1.7-2.6h1l0.7,1.2c0.2,0.3,0.4,0.6,0.5,0.9h0c0.2-0.3,0.3-0.6,0.5-0.9l0.7-1.2h1l-1.7,2.7l1.8,2.8h-1l-0.8-1.3
		c-0.2-0.3-0.4-0.7-0.6-1h0c-0.2,0.3-0.4,0.6-0.6,1l-0.8,1.3h-1L138,47z"/>
	<path d="M142.4,44.4h0.8l0.1,0.6h0c0.5-0.4,1.1-0.8,1.8-0.8c1.4,0,2.2,1.1,2.2,2.8c0,1.9-1.1,3-2.4,3c-0.5,0-1-0.2-1.5-0.6l0,1v1.9
		h-0.9V44.4z M146.3,47.1c0-1.2-0.4-2-1.5-2c-0.5,0-0.9,0.3-1.5,0.8v2.9c0.5,0.4,1,0.6,1.4,0.6C145.6,49.3,146.3,48.4,146.3,47.1z"
		/>
	<path d="M148.7,47.1c0-1.8,1.2-2.9,2.5-2.9c1.4,0,2.2,1,2.2,2.6c0,0.2,0,0.4,0,0.5h-3.7c0.1,1.2,0.8,1.9,1.8,1.9
		c0.5,0,1-0.2,1.4-0.4l0.3,0.6c-0.5,0.3-1.1,0.6-1.8,0.6C149.9,50,148.7,49,148.7,47.1z M152.6,46.7c0-1.1-0.5-1.7-1.4-1.7
		c-0.8,0-1.5,0.6-1.6,1.7H152.6z"/>
	<path d="M155.2,44.4h0.8l0.1,1h0c0.4-0.7,0.9-1.1,1.6-1.1c0.2,0,0.4,0,0.6,0.1l-0.2,0.8c-0.2-0.1-0.3-0.1-0.5-0.1
		c-0.5,0-1,0.3-1.4,1.3v3.6h-0.9V44.4z"/>
	<path d="M159.7,48.2v-3.1h-0.8v-0.7l0.9-0.1l0.1-1.6h0.8v1.6h1.5v0.8h-1.5v3.1c0,0.7,0.2,1.1,0.9,1.1c0.2,0,0.4-0.1,0.6-0.1
		l0.2,0.7c-0.3,0.1-0.7,0.2-1,0.2C160.1,50,159.7,49.3,159.7,48.2z"/>
	<path d="M163.2,49.3l0.5-0.6c0.5,0.4,1,0.7,1.6,0.7c0.7,0,1.1-0.4,1.1-0.9c0-0.6-0.7-0.8-1.3-1c-0.8-0.3-1.7-0.7-1.7-1.6
		c0-0.9,0.7-1.6,1.9-1.6c0.7,0,1.3,0.3,1.7,0.6l-0.4,0.6c-0.4-0.3-0.8-0.5-1.3-0.5c-0.7,0-1,0.4-1,0.8c0,0.5,0.6,0.7,1.2,1
		c0.8,0.3,1.7,0.6,1.7,1.7c0,0.9-0.7,1.7-2,1.7C164.4,50,163.7,49.7,163.2,49.3z"/>
</g>
</svg>
