<?xml version="1.0" encoding="utf-8"?>
<!-- Generator: Adobe Illustrator 25.2.1, SVG Export Plug-In . SVG Version: 6.00 Build 0)  -->
<svg version="1.0" id="Layer_1" xmlns="http://www.w3.org/2000/svg" xmlns:xlink="http://www.w3.org/1999/xlink" x="0px" y="0px"
	 width="119.3px" height="134.1px" viewBox="0 0 119.3 134.1" style="enable-background:new 0 0 119.3 134.1;" xml:space="preserve"
	>
<style type="text/css">
	.st0{fill:#25668E;}
</style>
<g>
	<g>
		<polygon class="st0" points="24.6,45.8 27.2,53.8 35.6,53.8 28.8,58.7 31.4,66.7 24.6,61.8 17.8,66.7 20.4,58.7 13.6,53.8 
			22,53.8 		"/>
	</g>
	<g>
		<polygon class="st0" points="95.4,45.8 98,53.8 106.4,53.8 99.6,58.7 102.2,66.7 95.4,61.8 88.6,66.7 91.2,58.7 84.4,53.8 
			92.8,53.8 		"/>
	</g>
	<g>
		<polygon class="st0" points="60,2.3 63.8,14.2 76.3,14.2 66.2,21.5 70.1,33.3 60,26 49.9,33.3 53.8,21.5 43.7,14.2 56.2,14.2 		
			"/>
	</g>
	<g>
		<path class="st0" d="M6,130.7c-2.2,0-4-1.8-4-4c0-2.2,1.8-4,4-4c0.2,0,0.5,0,0.7,0.1l31-31c0-0.1,0-0.1,0-0.2c0-2.2,1.8-4,4-4
			c2.2,0,4,1.8,4,4c0,0.1,0,0.1,0,0.2l16.5,17.9l47.1-31.4c0.1-2.1,1.9-3.7,4-3.7c2.2,0,4,1.8,4,4c0,2.2-1.8,4-4,4
			c-0.5,0-1.1-0.1-1.5-0.3l-50.3,33.5L42.7,95.4c-0.3,0.1-0.7,0.1-1,0.1c-0.3,0-0.7,0-1-0.1L10,126.1c0,0.2,0,0.4,0,0.6
			C10,128.9,8.2,130.7,6,130.7z"/>
	</g>
	<g>
		<polygon class="st0" points="36.8,71.6 12.4,71.6 12.4,114.4 36.8,90 		"/>
	</g>
	<g>
		<polygon class="st0" points="12.4,131.8 36.8,131.8 36.8,101.9 12.4,126.3 		"/>
	</g>
	<g>
		<polygon class="st0" points="61.4,118.3 60.7,117.6 47.8,103.6 47.8,131.8 72.2,131.8 72.2,111.1 62.2,117.8 		"/>
	</g>
	<g>
		<polygon class="st0" points="72.2,100.4 72.2,37.4 47.8,37.4 47.8,91.4 62.3,107 		"/>
	</g>
	<g>
		<polygon class="st0" points="83.2,131.8 107.6,131.8 107.6,87.6 83.2,103.8 		"/>
	</g>
	<g>
		<polygon class="st0" points="107.6,71.2 83.2,71.2 83.2,93.1 107.6,76.9 		"/>
	</g>
</g>
</svg>
