<?xml version="1.0" encoding="utf-8"?>
<!-- Generator: Adobe Illustrator 25.2.1, SVG Export Plug-In . SVG Version: 6.00 Build 0)  -->
<svg version="1.0" id="Layer_1" xmlns="http://www.w3.org/2000/svg" xmlns:xlink="http://www.w3.org/1999/xlink" x="0px" y="0px"
	 width="173px" height="134.1px" viewBox="0 0 173 134.1" style="enable-background:new 0 0 173 134.1;" xml:space="preserve">
<style type="text/css">
	.st0{fill:#005E8B;}
	.st1{fill:#20A6D0;}
	.st2{fill:#007EA9;}
</style>
<g>
	<g>
		<g>
			<path class="st0" d="M26,17.9c0.1,0,0.2,0,0.2,0c2.1,0.6,4.2,1.2,6.3,1.9c2.1,0.7,4.2,1.5,6.3,2.1c1.6,0.5,3.3,0.9,4.9,1.3
				c2.3,0.5,4.6,1,6.8,1.5c1.4,0.3,2.9,0.8,4.3,1.1c1.4,0.3,2.9,0.3,4.4,0.6c1.8,0.3,3.6,0.7,5.4,1c0.8,0.1,1.5,0.3,2.3,0.4
				c0.1,0,0.3,0,0.4,0c1.6,0.4,3.3,0.6,5,0.6c0.1,0,0.1,0,0.2,0c0,0,0,0,0,0c0.6,0,1.3,0.2,1.9,0.4c1.6,0.5,3.2,0.4,4.8,0.4
				c3.3,0.1,6.5,0.4,9.8,0.6c0,0,0.1,0,0.1,0c0.5,0,0.6-0.4,0.8-0.7c0.2-0.2,0.4-0.4,0.5-0.7c0.2,0.2,0.5,0.4,0.6,0.7
				c0.2,0.4,0.3,0.8,0.5,1.1c0.1,0.2,0.4,0.5,0.6,0.5c0.8,0.2,1.7,0.2,2.5,0.4c0.7,0.1,1.5,0.3,2.2,0.6c0.8,0.3,1.6,0.8,2.4,1.2
				c0.2,0.1,0.4,0.1,0.6,0.1c0.9,0.1,1.8,0.2,2.6,0.4c0.3,0.1,0.7,0.4,0.7,0.6c0,0.3-0.3,0.6-0.5,0.8c-1.1,0.8-2.1,1.5-3.2,2.3
				c-0.5,0.4-1,0.8-1.5,1.2c0.1,0.1,0.2,0.2,0.2,0.3c0.4-0.2,0.8-0.5,1.3-0.7c0.3-0.1,0.5-0.2,0.7-0.2c0.4,0,0.6,0.3,0.8,1.1
				c0.6-0.2,1.3-0.4,1.9-0.6c1.6-0.6,2.9-1.6,4.2-2.6c0.1-0.1,0.3-0.1,0.5-0.1c0.2,0,0.4,0,0.6,0c0,0,0.1,0,0.1,0
				c-0.1,0.3-0.2,0.7-0.3,0.9c-0.3,0.4-0.6,0.7-0.8,0.9c0.8,0.5,1.5,1,2.2,1.2c0.4,0.1,0.8,0.3,1.3,0.3c0.3,0,0.6-0.1,0.9-0.4
				c0.3-0.3,0.9-0.4,1.4-0.5c0.3-0.1,0.7-0.1,1.1-0.2c0.2-0.1,0.4-0.1,0.6-0.1c0.3,0,0.6,0.1,0.8,0.4c0.1,0.1,0.2,0.2,0.3,0.2
				c0,0,0,0,0,0c0.1,0,0.2,0,0.3,0c1,0,1.5,0.7,2,1.5c0.3,0.5,0.3,0.7-0.2,0.9c-0.6,0.2-1.1,0.4-1.7,0.5c0,0,0,0-0.1,0
				c-0.2,0-0.4-0.2-0.6-0.3c-0.3-0.2-0.5-0.3-0.8-0.3c-0.2,0-0.5,0.1-0.8,0.4c-0.6,0.6-1.3,1-2.1,1.3c0,0-0.1,0-0.1,0
				c-0.2,0-0.6-0.2-1-0.4c-0.6,0.9-1.4,2.1-2.2,3.2c0.1,0.1,0.1,0.1,0.2,0.2c0.3-0.4,0.6-0.9,1-1.2c0.1-0.1,0.5-0.1,0.7-0.1
				c0,0.2,0.2,0.5,0.1,0.7c-1,1.6-0.8,3.4-1.3,5.1c-0.6,1.8-0.2,3.4,0.1,5c0.2,0.7,0.8,1.3,1.2,2c0.5-0.6,1.1-1.2,1.5-1.8
				c0.2-0.2,0.2-0.6,0.3-1c0.1-1.1,0.5-2.4,0.1-3.3c-0.7-1.7-0.3-3.2,0-4.8c0.1-0.8,0.7-1.4,1.1-2.1c0.1,0,0.2,0,0.4,0
				c0.1,0.2,0.3,0.4,0.3,0.5c0.3-0.5,0.6-1,0.8-1.5c0.1,0,0.1,0,0.2,0.1c-0.1-0.2-0.1-0.4-0.2-0.6c-0.1-0.4,0.1-0.7,0.4-0.7
				c0.1,0,0.1,0,0.2,0c1.2,0.3,2.4,0.6,3.5,1.1c0.3,0.1,0.5,0.8,0.7,1.2c0.1,0.4,0.1,0.9,0.2,1.4c0.2,0.8,0.2,1.5-0.4,2.2
				c-0.3,0.3-0.5,0.8-0.7,1.2c0.1,0.1,0.2,0.1,0.3,0.2c0.2-0.2,0.3-0.3,0.5-0.5c0.2-0.2,0.2-0.5,0.4-0.5c0.3-0.2,0.9-0.5,1.1-0.5
				c0,0,0.1,0,0.1,0c0.5,0.5,0.8,1.2,1.1,1.8c0.2,0.4,0.2,1,0.4,1.4c0.4,0.8-0.1,1.4-0.4,2c-0.3,0.7-0.7,1.3-0.9,2
				c-0.2,0.4-0.2,0.9-0.3,1.4c0.4,0.4,1.1,0.6,1.7,0.6c0.3,0,0.7,0,1-0.1c1.3-0.3,2-1.4,3.1-1.9c1.8-0.7,3.1-2.1,4.5-3.4
				c0.2-0.2,0.2-0.9,0.1-1.3c-0.2-0.7-0.2-1.1,0.6-1.3c0.9-0.2,1.8-0.3,2.6-0.4c0.7-0.1,1.4,0,2.1-0.2c0.6-0.2,1.1-0.7,1.7-1.1
				c-0.2-0.7-0.3-1.3-0.4-1.9c0-0.1,0-0.2,0-0.3c0.6-1,1.2-2,2-2.9c0.4-0.5,1.1-0.7,1.7-0.9c1.6-0.4,3.2-0.8,4.8-1.2
				c0.8-0.2,1.6-0.3,2.5-0.4c0.2-1.1,0.3-1.3,2-1.6c0.2-0.4,0.3-0.8,0.5-1.2c0.1-0.2,0.1-0.3,0.2-0.5c0-0.7,0.1-1.5,0-2.2
				c-0.3-1.3,0.1-2.5,0.5-3.7c0.2-0.6,0.4-0.9,0.8-0.9c0.2,0,0.4,0.1,0.7,0.2c0.2,0.1,0.5,0.2,0.7,0.2c0.3,0,0.5-0.1,0.7-0.4
				c0.2-0.2,0.4-0.3,0.6-0.3c0.2,0,0.4,0.1,0.6,0.2c0.8,0.5,1.3,1.1,1.5,2.1c0.2,1.1,0.3,2.3,1,3.1c0.4,0.5,0.5,1.7,1.6,1.7
				c0.1,0,0.2,0,0.3,0c0,0,0,0,0,0c0.3,0,0.8,0.9,1,1.4c0.1,0.1-0.4,0.6-0.7,0.8c-0.7,0.6-1.4,1.3-2.2,1.8c-0.2,0.1-0.4,0.1-0.6,0.1
				c-0.2,0-0.5,0-0.7,0c-0.1,0-0.1,0-0.2,0c0.1,1.2-1.1,1.8-2,2.6c-0.1,0.1-0.3,0-0.4,0.1c-0.2,0.2-0.5,0.4-0.7,0.7
				c-0.3,0.6-0.5,1.2-0.7,1.8c-0.1,0.3-0.3,0.6-0.3,0.9c0,0.7,0,1.6,0.3,2.2c0.4,0.7,1.1,1.1,1.7,1.6c0,0,0,0,0.1,0
				c0.2,0,0.6-0.3,1-0.5c0,0.4,0.1,0.8,0,1.1c-0.2,0.4-0.7,0.6-1.2,0.6c-0.2,0-0.5,0-0.7-0.1c-0.3,0.3-0.5,0.7-0.9,0.7
				c-0.2,0-0.3-0.1-0.5-0.2c-0.4,1.3-1.5,1.8-2.7,2c-1.9,0.2-3,1.5-4,2.9c-0.3,0.4-0.3,0.8,0.2,1.3c0.3,0.3,0.5,0.9,0.4,1.2
				c-0.3,1.2-0.7,2.3-1.1,3.4c-0.1,0.3-0.3,0.5-0.5,0.5c-0.1,0-0.3-0.1-0.5-0.2c-0.5-0.3-1.1-0.5-1.9-0.9c0.5,0.7,0.8,1.3,1.2,1.8
				c0.6,0.7,0.8,1.5,0.7,2.4c-0.2,1.1-0.4,2.2-0.5,3.3c0,0.3-0.1,0.6-0.3,0.8c-0.1,0.2-0.3,0.3-0.4,0.3c-0.2,0-0.3-0.1-0.4-0.3
				c-0.2-0.6-0.2-1.2-0.1-1.9c0.1-0.6,0.2-1.1-0.4-1.5c-1.3-1-1.3-2.4-1.2-3.8c0-0.3,0.1-0.5,0.2-1.1c-0.5,0.7-0.8,1.1-1.1,1.6
				c0.3,0.9,0.6,1.8,0.9,2.8c0.2,0.5,0,0.7-0.4,0.7c-0.1,0-0.1,0-0.2,0c-0.2,0-0.3-0.1-0.6-0.2c0,0.1,0,0.2,0,0.2
				c1.2,0,1.7,0.7,1.7,1.9c0,0.7,0.4,1.4,0.7,2.2c0.9,0.1,1.3,0.8,1.2,1.8c0,0.2,0.2,0.4,0.2,0.5c0,0.2-0.2,0.5-0.3,0.6
				c-0.2,0.2-0.4,0.2-0.7,0.3c0,0.1,0,0.2,0.1,0.3c0.2,0,0.5-0.1,0.7-0.1c0.1,0,0.3,0,0.3,0.1c0.4,0.3,0.8,0.9,0.7,1.3
				c-0.1,0.5-0.6,1-1.1,1.3c-0.1,0-0.2,0.1-0.2,0.1c-0.3,0-0.6-0.1-0.8-0.2c0.1,0.3,0.2,0.7,0.3,1.2c0.5,0,0.6,0.5,0.3,0.9
				c-0.3,0.4-0.7,0.8-1.1,0.9c-1.2,0.3-1.9,0.9-2.3,2c-0.3,0.7-0.7,1.1-1.4,1.3c-1.5,0.5-2,1.7-2.5,3c-0.2,0.5-0.7,1-1.1,1.4
				c-0.1,0.1-0.4,0.2-0.4,0.4c-0.5,0.8-1.1,1.2-1.9,1.2c-0.2,0-0.4,0-0.6-0.1c0.3,0.7,0.4,1.2-0.4,1.4c-0.2,0-0.3,0.4-0.3,0.6
				c-0.3,1.1-0.7,2.2-1,3.3c-0.2,0.8-0.3,1.7,0,2.4c0.7,2.1,1.2,4.3,2.9,5.9c0.1,0.1,0.2,0.3,0.3,0.4c0.6,2.1,1.8,4,2.5,6
				c0.3,0.9,0.3,2,0.3,3c0,0.9-0.1,1.8-0.1,2.8c0,0.6-0.3,0.9-0.9,1.1c-0.3,0.1-0.6,0.2-1,0.3c-0.2,0.1-0.4,0.1-0.6,0.1
				c-0.5,0-0.6-0.3-0.9-0.9c-0.2-0.5-0.6-0.9-1-1.3c-0.4-0.5-0.9-0.8-1.2-1.3c-0.5-0.7-0.7-1.8-1.4-2.2c-0.8-0.4-1.1-1-1.3-1.7
				c-0.2-0.5-0.3-1.1-0.4-1.8c-0.6-0.1-0.7-0.6-0.7-1.3c0-1,0-2-0.3-2.9c-0.1-0.4-0.7-0.7-1.1-1.1c-0.5-0.5-1.1-1-1.5-1.6
				c-0.5-0.6-0.9-0.9-1.4-0.9c-0.4,0-0.7,0.1-1.2,0.4c-0.6,0.4-1.3,0.8-1.9,1c-0.1,0-0.1,0-0.2,0c-0.3,0-0.6-0.2-0.9-0.3
				c-0.6-0.3-1.1-0.7-1.7-1c-0.4-0.3-0.9-0.6-1.3-0.8c-0.2-0.1-0.5-0.2-0.8-0.2c-0.1,0-0.2,0-0.2,0c-0.4,0-0.7,0.3-1,0.3
				c-0.2,0-0.3-0.1-0.5-0.2c0,0,0,0,0,0c-0.1,0-0.3,0.1-0.4,0.2c-0.2,0.1-0.4,0.3-0.7,0.4c-0.5,0.2-0.9,0.4-1.1,0.4
				c-0.3,0-0.4-0.3-0.5-1.1c-0.3,0.2-0.7,0.6-1.1,0.7c-1.4,0.2-2.8,0.3-4.3,0.4c0.1,0.3,0.2,0.5,0.2,0.7c0.2-0.1,0.4-0.3,0.5-0.3
				c0.1,0,0.2,0,0.3,0c0.1,0,0.2,0,0.3,0.1c0.1,0.1,0.2,0.5,0.2,0.7c-0.1,0.3-0.2,0.6-0.4,0.8c-0.5,0.7-0.4,0.9,0.3,1.3
				c0.3,0.2,0.6,0.5,0.9,0.8c0,0-0.2,0.5-0.3,0.5c0,0,0,0,0,0c-0.4-0.1-0.9-0.2-1.3-0.4c-0.4-0.2-0.7-0.5-1.2-0.8
				c-0.3,0.6-0.6,0.8-1.2,0.8c-0.1,0-0.2,0-0.3,0c-0.1,0-0.2,0-0.2,0c-0.3,0-0.6,0-0.9,0c-0.3,0-0.6-0.1-0.9-0.3
				c-0.4-0.3-0.6-0.6-1-0.9c-0.6-0.4-1.2-0.7-1.9-1.1c-0.2,0.6-0.6,0.8-1.1,0.8c-0.2,0-0.5,0-0.7-0.1c-1-0.3-1.9-0.5-2.9-0.5
				c-1.1,0-2.2,0.2-3.3,0.6c0,0-0.1,0-0.1,0c-0.3,0-0.6-0.2-1-0.3c-0.1,0.3-0.2,0.8-0.2,1.3c0,0.9-0.4,1.5-1.2,1.9
				c-0.5,0.2-1,0.5-1.6,0.8c-0.1,0-0.2,0-0.3,0c-0.1,0-0.2,0-0.2,0c-0.1-0.4-0.3-0.5-0.6-0.5c-0.2,0-0.5,0.1-0.7,0.1
				c0.1,1.2-1.3,1-1.8,1.9c0.2,0.6-0.2,1-0.8,1.1c-0.2,1-0.6,2-0.7,2.9c0,1,0.2,2,0.4,3.1c0,0.3,0.1,0.5,0.1,0.8
				c-0.2,0-0.5,0.2-0.7,0.2c-0.1,0-0.1,0-0.2,0c-1.1-0.3-2.2-0.7-3.2-1.2c-1-0.5-2.2-0.8-2.7-1.9c-0.3-0.7-0.6-1.4-0.8-2.2
				c-0.2-0.9-0.6-1.7-1.3-2.5c-0.7-0.8-1.3-1.8-1.5-2.8c-0.5-1.9-1.5-3.4-2.7-4.8c-0.1-0.1-0.3-0.2-0.5-0.2
				c-0.8-0.1-1.6-0.2-2.4-0.3c-0.1,0-0.3,0-0.4,0c-0.5,0-0.9,0.2-1.2,0.8c-0.1,0.3-0.2,0.6-0.4,0.8c-0.3,0.7-0.7,1-1.2,1
				c-0.3,0-0.6-0.2-1-0.5c-1.5-1.3-3.1-2.6-3.2-4.9c0-1.3-1.1-2.1-1.8-3.1c-0.6-0.9-1.4-1.8-2.1-2.7c-0.4-0.6-1-0.9-1.7-0.9
				c-1.2-0.1-2.4-0.3-3.6-0.5C48,90.6,47.8,91,47.2,91c-0.3,0-0.7-0.1-1.3-0.2c-1.8-0.3-3.6-0.5-5.4-0.9c-0.5-0.1-1-0.4-1.5-0.7
				c-1.4-1-2.8-2.1-4.2-3.1c-1-0.7-2-1.4-3-2c-1-0.7-2-1.5-3.1-2c-0.7-0.3-1.6-0.3-2.4-0.4c-1.2-0.2-2.4-0.4-3.6-0.7
				c-0.2-0.1-0.5-0.6-0.4-0.8c0.4-1.2,0-2.1-0.7-3.1C21,76.3,20,75.7,20,74.6c0-0.1-0.2-0.3-0.3-0.3c0,0,0,0,0,0c0,0,0,0,0,0
				c-1,0-1.2-0.9-1.7-1.4c-0.3-0.3-0.8-0.5-1.1-0.8c-0.7-0.5-1.5-0.9-2.1-1.6c-0.2-0.3,0.1-1,0.1-1.6c0-0.3-0.1-0.6-0.1-0.9
				c0-0.1-0.2-0.2-0.1-0.3c0.1-1.6-1.1-2.7-1.5-4.1c-0.2-0.7-0.3-1.2,0.3-1.8c0.4-0.4,0.5-0.8,0-1.1c-0.7-0.5-0.8-1.1-0.7-1.9
				c0.1-0.5,0.2-1.1,0.3-1.6c0.1,0,0.2,0,0.3,0c0.2,0.2,0.3,0.5,0.5,0.7c0-0.4-0.1-0.8-0.1-1.2c-0.1,0-0.2,0.1-0.3,0.1
				c-0.5,0-1-0.5-1-1.2c0-0.5,0-1.2-0.3-1.6c-0.8-1.2-0.6-2.5-0.3-3.6c0.3-1.1,0.2-2.1-0.2-3.2c-0.2-0.6-0.1-1.2,0.4-1.6
				c1-0.7,1.2-1.8,1.4-2.9c0.3-1.5,0.4-3.1,0.6-4.6c0.1-0.4,0.2-0.9,0.5-1.2c0.9-0.9,1.2-2,1.7-3.1c0.5-0.9,1-1.8,1.3-2.7
				c0.4-1.4,1.7-2.5,1.8-4.1c0-0.2,0.3-0.5,0.4-0.6c-0.1-0.5-0.3-1.1-0.1-1.4c0.5-1.2,0.2-2.5,0.4-3.7c0.1-0.5-0.1-1-0.1-1.5
				c0-0.5,0.2-1,0.4-1.4c0.1-0.2,0.3-0.4,0.5-0.4c0.2,0,0.4,0.1,0.6,0.3c0.8,0.7,1.7,1.4,2.6,1.8c0.7,0.3,0.8,0.6,0.5,1.2
				c0.2,0.1,0.4,0.1,0.8,0.2c0-0.4,0.2-0.9,0.1-1.2c-0.3-0.7-0.3-1.2,0.3-1.4c-0.1-0.4-0.2-0.8-0.3-1.1C25.4,18,25.7,17.9,26,17.9
				 M26,11.9c-0.8,0-1.4,0.1-1.7,0.2l-2.5,0.3c-0.5-0.1-0.9-0.1-1.2-0.1c-0.9,0-1.9,0.2-2.7,0.6l-0.6,0.1l0.1,0.2
				c-1,0.6-1.9,1.5-2.6,2.6c-0.6,1.1-1,2.4-1.1,3.7c-0.1,0.7,0,1.4,0,1.8c-0.1,0.6-0.1,1.1-0.1,1.5c0,0.1,0,0.3,0,0.5
				c-0.3,0.8-0.4,1.6-0.4,2.2c-0.1,0.3-0.1,0.6-0.2,0.8c-0.1,0.1-0.1,0.2-0.2,0.3c-0.4,0.7-1,1.7-1.4,3.1c-0.1,0.2-0.3,0.7-0.5,1
				c-0.1,0.2-0.2,0.4-0.3,0.6c-0.3,0.5-0.5,1-0.7,1.4c-0.1,0.1-0.1,0.3-0.2,0.5c-1.4,1.5-1.9,3.3-2,4.3c-0.1,0.7-0.2,1.4-0.2,2.1
				c-0.1,0.8-0.2,1.5-0.3,2.2c-1.9,1.9-2.6,4.7-1.7,7.5c0,0,0,0,0,0.1c-0.3,1.3-0.9,4.1,0.5,7.1c0.1,0.7,0.2,1.5,0.5,2.1
				c-0.1,1.2,0,2.4,0.3,3.4c-0.1,1-0.1,2.1,0.3,3.4c0.3,1.2,0.9,2.2,1.2,2.8c0,0.1,0.1,0.1,0.1,0.2c0,0.3,0.1,0.6,0.1,0.9
				C8.5,71.2,9,73,10.2,74.5c1,1.1,2.1,1.8,2.8,2.3c0.1,0.1,0.3,0.2,0.4,0.3c0.1,0.1,0.2,0.2,0.3,0.2c0.5,0.6,1,1.1,1.5,1.5
				c0.4,0.6,0.8,1.1,1.1,1.4c0,1.1,0.3,2.2,0.8,3.3c0.9,1.7,2.4,2.9,4.2,3.3c1.2,0.3,2.4,0.5,3.5,0.7l0.5,0.1
				c0.5,0.1,0.9,0.1,1.3,0.2c0.3,0.2,0.6,0.4,0.9,0.7c0.3,0.2,0.7,0.5,1,0.7c0.3,0.2,0.6,0.4,0.9,0.6c0.7,0.5,1.4,0.9,2,1.4
				c0.6,0.4,1.2,0.9,1.8,1.3c0.8,0.6,1.6,1.2,2.5,1.8c0.8,0.6,2.2,1.3,3.8,1.6c1,0.2,2,0.3,2.9,0.5c0.9,0.1,1.7,0.3,2.5,0.4l0.1,0
				c0.7,0.1,1.4,0.3,2.2,0.3c1.3,0,2.3-0.3,3.2-0.8c0.2,0.2,0.4,0.4,0.5,0.6c0.3,0.5,0.6,0.9,0.9,1.2c0.6,4.2,3.5,6.7,5.2,8.1
				l0.1,0.1c1.9,1.6,3.7,1.9,4.9,1.9c0.7,0,1.9-0.1,3.2-0.8c0.5,1.5,1.4,2.9,2.5,4.2c0.3,1.2,0.7,2.2,1.1,3.1c1.3,3.1,4,4.2,5.1,4.7
				c0.1,0,0.2,0.1,0.3,0.1c1.3,0.7,2.7,1.1,3.7,1.4l0.4,0.1c0.6,0.2,1.3,0.3,2,0.3c0.9,0,1.6-0.2,1.9-0.3l5.7-1l-1-5.9l-0.1-0.3
				c0-0.1,0-0.2-0.1-0.3c-0.1-0.4-0.1-0.8-0.2-1.1c0-0.2-0.1-0.4-0.1-0.6c0,0,0.1-0.1,0.1-0.1c0.5-0.1,0.9-0.2,1.4-0.4
				c0.4-0.2,0.7-0.4,1.1-0.5c0.2-0.1,0.4-0.2,0.5-0.3c1.4-0.7,2.5-1.6,3.3-2.8c0.3,0,0.6,0.1,0.9,0.2c0.9,0.3,1.7,0.4,2.5,0.4
				c0.1,0,0.3,0,0.4,0c1.3,0.9,2.8,1.4,4.5,1.4c0.3,0,0.6,0,0.8,0c0.2,0,0.4,0,0.6,0c0.4,0,0.9,0,1.3-0.1c0.4,0.1,0.9,0.2,1.3,0.3
				l0.5,0.1l0.5,0c2.4,0,4.6-1.4,5.7-3.8c0.2-0.3,0.3-0.7,0.4-1c0.3-0.1,0.6-0.2,0.9-0.3c0.1,0,0.2,0,0.3,0l0.1,0
				c0.5,0.3,1.1,0.7,1.8,1c0.8,0.4,2,0.9,3.6,0.9c0.6,0,1.1-0.1,1.6-0.2c0.1,1.6,0.6,2.8,1.3,3.8c0.1,0.2,0.1,0.5,0.2,0.7
				c0.3,0.7,0.9,2.4,2.7,3.9c0.2,0.4,0.4,0.8,0.7,1.2c0.5,0.7,1,1.2,1.4,1.6c0.1,0.1,0.1,0.1,0.2,0.2c0.1,0.1,0.2,0.2,0.3,0.3
				c1.8,3.6,4.9,4,6.2,4c0.6,0,1.2-0.1,2-0.2c0.2-0.1,0.5-0.1,0.7-0.2c0.1,0,0.1,0,0.2-0.1c3.2-0.7,5.4-3.2,5.6-6.5l0-0.5
				c0.1-0.9,0.1-1.8,0.1-2.9c0-0.1,0-0.3,0-0.4c0-1.1,0-2.7-0.6-4.3c-0.4-1.2-0.9-2.3-1.4-3.3c-0.4-0.9-0.8-1.7-1-2.4
				c-0.3-1.2-1-2.4-2-3.3c-0.3-0.3-0.7-1.5-1-2.5c0-0.1,0-0.1-0.1-0.2c0,0,0,0,0,0c0.1-0.4,0.2-0.8,0.4-1.3c0.1-0.1,0.2-0.2,0.3-0.3
				c0.8-0.5,1.5-1.1,2.1-1.9c0.2-0.2,0.4-0.4,0.6-0.6c0,0,0.1-0.1,0.1-0.1c0.5-0.5,1.5-1.5,2-3c1.3-0.7,2.4-1.7,3.2-3
				c2-0.9,3.2-2.5,3.6-3.2c0.4-0.7,0.7-1.4,0.9-2.2c0.6-0.8,1.1-1.7,1.4-2.9c0.4-1.6,0.1-3.3-0.7-4.9c0-0.2-0.1-0.4-0.1-0.6
				c0-0.1,0-0.2,0-0.3c0.1-0.4,0.2-0.8,0.3-1.2c0.2-0.9,0.3-1.8,0.4-2.6l0.1-0.8c0.1-0.4,0.1-0.9,0.1-1.3c0.3-0.4,0.5-0.9,0.6-1.3
				l0.1-0.3c0.4-1.1,0.8-2.4,1.2-3.8c0.1-0.4,0.1-0.8,0.2-1.2c1.3-0.4,2.5-1.1,3.4-1.9c0,0,0,0,0,0c2.2-0.4,4.2-1.7,5.3-3.6
				c1-1.8,0.8-3.5,0.8-4.1v-4.6c0.9-0.6,1.6-1.3,2.2-1.8c0.1-0.1,0.3-0.2,0.4-0.4l0,0c3.6-3.2,2.9-6.3,2.1-7.9
				c-0.9-1.8-2-3.2-3.3-3.9c0-0.1,0-0.1,0-0.2l-0.1-0.5c-0.5-2.7-2-4.9-4.4-6.3c-1.1-0.7-2.3-1-3.6-1c-0.7,0-1.4,0.1-2.1,0.3
				c-0.2,0-0.4,0-0.6,0c-2.4,0-5.4,1.4-6.5,5.1l-0.1,0.3c-0.4,1.1-0.9,2.9-0.7,5c-0.1,0.1-0.1,0.1-0.2,0.2c0,0-0.1,0-0.1,0
				c-1.6,0.4-3.4,0.8-5.1,1.2c-2,0.6-3.5,1.5-4.6,2.7c-0.9,1-1.5,2-2,2.9c-0.1,0.2-0.3,0.5-0.4,0.7c-0.2,0.4-0.4,0.7-0.6,1.2
				c-0.6,0.1-1.2,0.2-1.8,0.4c-1.8,0.4-3,1.4-3.7,2.2c-0.3-0.6-0.8-1.2-1.3-1.7c-0.1-0.4-0.1-0.8-0.3-1.4c-0.2-0.7-0.6-1.9-1.6-3.1
				c-0.2-0.7-0.5-1.5-1-2.3c-0.6-0.9-2.1-3.2-5-4c-0.6-0.3-1.3-0.6-1.9-0.7l1-2.9l-8.9,0.5c-0.2,0-0.4,0-0.5,0c-0.1,0-0.2,0-0.3,0
				c-1-1-2.3-1.6-3.5-1.9c-0.9-0.2-1.7-0.3-2.4-0.3c-0.1,0-0.1,0-0.2,0c-0.6-0.3-1.2-0.6-2-0.9c-1-0.4-2-0.7-3.2-0.9
				c-0.1,0-0.1,0-0.2,0c-0.3-0.4-0.6-0.7-0.8-0.9l0,0l-4.6-5l-3.6,4.3c-2.5-0.2-4.8-0.3-7.1-0.4c-0.5,0-0.9,0-1.4,0
				c-0.7,0-1.5,0-1.8-0.1c-1.4-0.5-2.6-0.7-3.8-0.7h0l-0.1,0l-0.1,0c-1.1,0-2.3-0.2-3.6-0.5c-0.4-0.1-0.8-0.1-1.1-0.2l-0.3,0
				c-0.5-0.1-1.1-0.2-1.6-0.3c-0.6-0.1-1.3-0.2-1.9-0.4c-1.2-0.2-2.4-0.5-3.7-0.7c-0.8-0.1-1.6-0.2-2.3-0.3
				c-0.7-0.1-1.3-0.1-1.9-0.2c-0.7-0.1-1.4-0.3-2.2-0.5c-0.6-0.2-1.2-0.3-1.9-0.5c-1.1-0.3-2.2-0.5-3.2-0.7
				c-1.2-0.3-2.4-0.5-3.6-0.8l-0.2,0c-1.5-0.4-3-0.7-4.4-1.1c-1-0.3-2.1-0.7-3.2-1.1c-1-0.3-2-0.7-3.1-1c-1.9-0.6-4-1.2-6.5-1.9
				C27.2,12,26.6,11.9,26,11.9L26,11.9z"/>
		</g>
	</g>
	<path class="st1" d="M64.1,70.4c-0.1,0-0.2,0-0.3,0.1c0-0.2,0.1-0.3,0.1-0.4c0-1.5-0.6-2.9-1.5-4c0.9-1.1,1.5-2.5,1.5-4
		c0-3.5-2.8-6.3-6.3-6.3s-6.3,2.8-6.3,6.3c0,1.5,0.6,2.9,1.5,4c-0.9,1.1-1.5,2.5-1.5,4c0,3.5,2.8,6.3,6.3,6.3c0.1,0,0.2,0,0.3-0.1
		c0,0.2-0.1,0.3-0.1,0.4c0,3.5,2.8,6.3,6.3,6.3c3.5,0,6.3-2.8,6.3-6.3C70.4,73.2,67.6,70.4,64.1,70.4z"/>
	<path class="st2" d="M63.7,70.3c-0.1,0-0.1,0-0.2,0c0-0.1,0.1-0.3,0.1-0.4c0-1.4-0.5-2.6-1.4-3.5c0.8-1,1.4-2.2,1.4-3.5
		c0-3.1-2.5-5.5-5.5-5.5c-3.1,0-5.5,2.5-5.5,5.5c0,1.4,0.5,2.6,1.4,3.5c-0.8,1-1.4,2.2-1.4,3.5c0,3.1,2.5,5.5,5.5,5.5
		c0.1,0,0.1,0,0.2,0c0,0.1-0.1,0.3-0.1,0.4c0,3.1,2.5,5.5,5.5,5.5s5.5-2.5,5.5-5.5S66.8,70.3,63.7,70.3z"/>
	<circle class="st1" cx="123.2" cy="70.4" r="5.8"/>
	<path class="st0" d="M63.5,70.2c-0.1,0-0.1,0-0.2,0c0-0.1,0.1-0.2,0.1-0.4c0-1.2-0.5-2.3-1.2-3.2c0.7-0.9,1.2-2,1.2-3.2
		c0-2.8-2.3-5.1-5.1-5.1s-5.1,2.3-5.1,5.1c0,1.2,0.5,2.3,1.2,3.2c-0.7,0.9-1.2,2-1.2,3.2c0,2.8,2.3,5.1,5.1,5.1c0.1,0,0.1,0,0.2,0
		c0,0.1-0.1,0.2-0.1,0.4c0,2.8,2.3,5.1,5.1,5.1s5.1-2.3,5.1-5.1C68.5,72.5,66.3,70.2,63.5,70.2z"/>
	<circle class="st2" cx="123.2" cy="70.4" r="4.8"/>
	<circle class="st0" cx="123.2" cy="70.4" r="3.9"/>
	<circle class="st1" cx="77.3" cy="80.5" r="3.5"/>
	<circle class="st2" cx="77.3" cy="80.5" r="2.9"/>
	<circle class="st0" cx="77.3" cy="80.5" r="2.4"/>
	<path class="st1" d="M42.7,36.9c-4.2,1.3-4.8,7.5-9.2,5.3c-0.7-0.5-1.7-0.8-2.6-0.5c-1.6,0.5-2.4,2.1-2,3.7c0.5,1.6,2.1,2.4,3.7,2
		c0.6-0.2,1-0.5,1.4-1c6.1-3.7,5.4-1.8,11.5-0.5c6.5,1.3,10.9-5.5,10.2-8C54.8,35.4,49.1,35,42.7,36.9z"/>
	<path class="st2" d="M42.7,37.5c-3.8,1.2-4.2,6.7-8.2,4.7c-0.6-0.5-1.5-0.7-2.3-0.4c-1.4,0.4-2.2,1.9-1.7,3.3
		c0.4,1.4,1.9,2.2,3.3,1.7c0.5-0.2,0.9-0.5,1.2-0.9c5.5-3.3,4.8-1.6,10.2-0.5c5.8,1.2,9.7-4.9,9-7.1C53.5,36.2,48.4,35.8,42.7,37.5z
		"/>
	<path class="st0" d="M42.7,38.1c-3.4,1-3.8,6-7.4,4.2c-0.6-0.4-1.3-0.6-2.1-0.4c-1.2,0.4-1.9,1.7-1.6,2.9c0.4,1.2,1.7,1.9,2.9,1.6
		c0.5-0.1,0.8-0.4,1.1-0.8c4.9-3,4.3-1.4,9.1-0.4c5.2,1.1,8.7-4.4,8.1-6.4C52.3,36.8,47.7,36.5,42.7,38.1z"/>
</g>
</svg>
