<?xml version="1.0" encoding="utf-8"?>
<!-- Generator: Adobe Illustrator 25.2.1, SVG Export Plug-In . SVG Version: 6.00 Build 0)  -->
<svg version="1.0" id="Layer_1" xmlns="http://www.w3.org/2000/svg" xmlns:xlink="http://www.w3.org/1999/xlink" x="0px" y="0px"
	 width="145.7px" height="134.1px" viewBox="0 0 145.7 134.1" style="enable-background:new 0 0 145.7 134.1;" xml:space="preserve"
	>
<style type="text/css">
	.st0{fill:#25668E;}
</style>
<g>
	<path class="st0" d="M71.5,35.3c13.2,0.4,23.2,5,32.2,12.1c4,3.2,7.8,6.9,11.1,10.8c5.1,6.1,4.8,12.2-0.3,18.2
		c-8.2,9.5-18,16.9-30.1,20.6c-10.5,3.2-20.6,1.9-30.4-2.9c-9.1-4.4-16.8-10.6-23.2-18.5c-4.4-5.5-4.6-11.5-0.2-16.9
		C39,48.1,49.6,40.4,62.8,36.8C66.1,35.9,69.6,35.6,71.5,35.3z M72.8,42.9c-2.6,0.4-5.2,0.6-7.8,1.2c-11.4,2.9-20.3,9.7-27.9,18.4
		c-3.3,3.7-3.1,5.6,0.2,9.3c5.7,6.5,12.3,11.7,20.1,15.5c6.8,3.3,14,4.7,21.4,3.1c12.6-2.7,22.4-10.2,30.6-19.9
		c2.1-2.5,2-4.4-0.2-7.1c-5.4-6.6-11.9-11.9-19.5-15.9C84.4,44.8,78.9,43.1,72.8,42.9z"/>
	<path class="st0" d="M14.4,63.6c1.9,0,3.8,0,5.7,0c2.4,0,3.9,1.5,3.9,3.4c0,1.9-1.6,3.3-3.8,3.4c-3.9,0-7.8,0-11.7,0
		c-2.3,0-3.7-1.3-3.7-3.3c0-2.1,1.4-3.4,3.8-3.5C10.5,63.6,12.5,63.6,14.4,63.6z"/>
	<path class="st0" d="M131.5,63.7c2,0,3.9,0,5.9,0c2.2,0.1,3.5,1.4,3.6,3.3c0.1,2-1.3,3.5-3.6,3.5c-4.1,0.1-8.1,0.1-12.2,0
		c-2.1,0-3.5-1.5-3.5-3.4c0-1.8,1.5-3.3,3.5-3.4C127.3,63.6,129.4,63.7,131.5,63.7z"/>
	<path class="st0" d="M69.8,18.4c0-1.9,0-3.8,0-5.7c0.1-2.4,1.5-4,3.4-4c2,0,3.4,1.6,3.4,4c0.1,3.8,0.1,7.5,0,11.3
		c0,2.5-1.4,3.9-3.4,3.9c-2,0-3.4-1.5-3.4-3.9C69.8,22.2,69.8,20.3,69.8,18.4C69.8,18.4,69.8,18.4,69.8,18.4z"/>
	<path class="st0" d="M76.7,115.8c0,1.8,0,3.6,0,5.4c0,2.6-1.4,4.2-3.5,4.1c-2,0-3.4-1.6-3.4-4c0-3.8-0.1-7.5,0-11.3
		c0-2.5,1.4-3.9,3.5-3.9c2.1,0,3.3,1.5,3.4,4C76.8,112,76.7,113.9,76.7,115.8z"/>
	<path class="st0" d="M43.3,29.6c-0.7,0.9-1.2,2.2-2.2,2.6c-0.9,0.4-2.7,0.5-3.4-0.2c-3.4-3.1-6.6-6.3-9.7-9.6
		c-1.2-1.3-0.9-3.1,0.4-4.3c1.4-1.3,3.1-1.5,4.5-0.2c3.2,3,6.2,6.1,9.2,9.2C42.7,27.7,42.9,28.5,43.3,29.6z"/>
	<path class="st0" d="M105.1,33c-0.8-0.7-2.1-1.2-2.5-2.2c-0.4-0.9-0.4-2.7,0.2-3.4c3.1-3.4,6.3-6.6,9.6-9.7c1.3-1.2,3-0.9,4.3,0.4
		c1.3,1.3,1.5,3,0.3,4.3c-3.1,3.3-6.3,6.4-9.5,9.6C107,32.5,106.2,32.6,105.1,33z"/>
	<path class="st0" d="M43.4,104.6c-0.7,1.2-1,2.1-1.6,2.7c-2.8,2.9-5.6,5.7-8.4,8.5c-1.7,1.6-3.5,1.7-5,0.2
		c-1.3-1.3-1.4-3.4,0.1-4.9c2.9-3,5.7-6,8.8-8.7c0.8-0.7,2.6-1,3.7-0.6C42,102.1,42.6,103.6,43.4,104.6z"/>
	<path class="st0" d="M118.1,113.9c-0.8,0.9-1.4,2.2-2.3,2.6c-1,0.4-2.7,0.4-3.4-0.3c-3.3-3-6.5-6.2-9.6-9.5c-1.3-1.4-1-3.3,0.4-4.5
		c1.5-1.2,3.1-1.4,4.5-0.1c3.1,2.9,6.1,6,9.1,9.1C117.3,111.9,117.5,112.8,118.1,113.9z"/>
	<path class="st0" d="M87,67c0.1,7.7-6.3,14.1-14,14.2c-7.7,0.1-14.1-6.3-14.2-14c-0.1-7.7,6.2-14.1,14.1-14.2
		C80.5,52.8,86.9,59.2,87,67z M80.6,67c-0.1-4.2-3.7-7.7-7.9-7.7c-4.2,0.1-7.7,3.6-7.6,7.9c0.1,4.2,3.6,7.7,7.9,7.7
		C77.2,74.7,80.7,71.1,80.6,67z"/>
</g>
</svg>
