<?xml version="1.0" encoding="utf-8"?>
<!-- Generator: Adobe Illustrator 24.1.1, SVG Export Plug-In . SVG Version: 6.00 Build 0)  -->
<svg version="1.1" id="Layer_1" xmlns="http://www.w3.org/2000/svg" xmlns:xlink="http://www.w3.org/1999/xlink" x="0px" y="0px"
	 width="48.7px" height="48.7px" viewBox="0 0 48.7 48.7" style="enable-background:new 0 0 48.7 48.7;" xml:space="preserve">
<style type="text/css">
	.st0{fill:none;stroke:#0071BC;stroke-miterlimit:10;}
	.st1{fill:#0071BC;}
</style>
<circle class="st0" cx="24.4" cy="24.4" r="22.1"/>
<g>
	<path class="st1" d="M12.9,37.6c0.3-1.4,0.5-2.6,0.7-3.9c0.9-4.7,1.8-9.5,2.7-14.2c0.1-0.4,0.3-0.6,0.7-0.8c2-0.7,4.1-1.3,6-2.2
		c2.4-1.1,4.5-2.7,6.1-4.8c0.2-0.3,0.4-0.6,0.7-1c0.3,1.1,0.7,2.1,1,3.1c1.1,3.5,2.2,6.9,3.3,10.4c0.1,0.3,0.1,0.6-0.1,0.9
		c-0.7,0.7-1.3,1.6-2,2.2c-3.7,3.4-7.9,5.9-12.5,7.8c-2,0.8-4,1.5-6.1,2.3C13.3,37.5,13.2,37.5,12.9,37.6z M29.3,14.4
		c-1.8,1.8-3.8,3.2-6.1,4.1c-1.5,0.6-3.1,1.2-4.7,1.7c-0.4,0.1-0.6,0.3-0.6,0.7c-0.2,1-0.4,2-0.6,3.1c-0.2,1.1-0.4,2.2-0.6,3.4
		c1.2-0.4,2.2-0.7,3.3-1.1c3.9-1.3,7.4-3.1,10.5-5.9c0.5-0.4,0.6-0.8,0.4-1.4C30.2,17.4,29.8,15.9,29.3,14.4z"/>
	<path class="st1" d="M34.7,31.3c0.4,1,0.7,1.9,1.1,2.9c-5,1.8-10.3,2.3-15.5,2.9C25.2,35.6,30.2,34.1,34.7,31.3z"/>
	<path class="st1" d="M20.9,35.8c4.9-2.2,9.4-4.9,13.1-8.7c0.3,0.8,0.7,1.5,0.9,2.3c0,0.1-0.1,0.3-0.2,0.4c-0.9,0.6-1.7,1.2-2.7,1.7
		c-3.5,1.9-7.2,3.2-10.9,4.3C21.1,35.8,21.1,35.8,20.9,35.8z"/>
	<path class="st1" d="M19.5,38c5.2-0.5,10.5-0.9,15.6-2.3c0.1,0.3,0.2,0.6,0.3,1c0.1,0.3,0.2,0.6,0.3,1C30.3,37.8,24.9,37.9,19.5,38
		z"/>
</g>
</svg>
