<?xml version="1.0" encoding="utf-8"?>
<!-- Generator: Adobe Illustrator 24.1.1, SVG Export Plug-In . SVG Version: 6.00 Build 0)  -->
<svg version="1.1" id="Layer_1" xmlns="http://www.w3.org/2000/svg" xmlns:xlink="http://www.w3.org/1999/xlink" x="0px" y="0px"
	 width="48.7px" height="48.7px" viewBox="0 0 48.7 48.7" style="enable-background:new 0 0 48.7 48.7;" xml:space="preserve">
<style type="text/css">
	.st0{fill:none;stroke:#0071BC;stroke-miterlimit:10;}
	.st1{fill:#0071BC;}
</style>
<g>
	<circle class="st0" cx="24.4" cy="24.4" r="22.1"/>
	<g>
		<path class="st1" d="M15.6,32.5c-1.2,0-2.4,0-3.6,0c-0.9,0-1.7-0.7-1.9-1.6c-0.2-0.7-0.3-1.5-0.5-2.2c-0.5-1.5,0.2-2.4,1.5-2.8
			c0-0.3-0.1-0.7-0.1-1c-0.1-1.8,0.3-3.4,1.4-4.9c0.1-0.2,0.2-0.5,0.2-0.7c-0.2-1.1,0.2-2.2,1.2-2.7c0.9-0.5,2.1-0.3,2.8,0.5
			c0.7,0.8,0.8,2,0.1,2.9c-0.6,0.9-1.7,1.2-2.8,0.8c-0.1,0-0.2-0.1-0.3-0.1c-1.1,1.5-1.5,3.2-1.1,5c0,0.1,0.4,0.3,0.6,0.3
			c3.2,0,6.4,0,9.7,0c4.8,0,9.5,0,14.3,0c0.9,0,1.6,0.2,2,1c0.2,0.4,0.3,0.8,0.2,1.2c-0.2,1-0.4,1.9-0.6,2.8
			c-0.2,0.8-0.9,1.5-1.7,1.5c-1.2,0-2.5,0-3.7,0c-0.2-1-0.7-2-1.6-2.5c-0.5-0.3-1.2-0.5-1.8-0.5c-3.6,0-7.1,0-10.7,0
			c-1.8,0-2.9,0.9-3.4,2.6C15.6,32.2,15.6,32.3,15.6,32.5z"/>
		<path class="st1" d="M31.8,33c0.1-1.3-0.8-2.2-2.1-2.2c-3.6,0-7.1,0-10.7,0c-1.5,0-2.2,1.3-2.2,2.3c0.1,1.3,0.2,2.6,0.2,3.9h14.4
			C31.7,35.7,31.8,34.4,31.8,33z"/>
		<path class="st1" d="M32.3,24.6c-5.3,0-10.6,0-15.9,0c0,0,0-0.1-0.1-0.1c0.4-0.2,0.8-0.5,1.2-0.6c1.2-0.4,2.4-0.7,3.7-1
			c0.5-0.1,1-0.4,1-1.1c0-0.3-0.1-0.5-0.2-0.8c-0.3-0.7-0.6-1.3-0.9-2c-0.1-0.1-0.1-0.2-0.2-0.3c-0.6-0.7-0.9-1.5-0.5-2.4
			c0.1-0.2,0-0.5,0-0.7c0-1.8,1-3.1,2.8-3.7c1.6-0.5,3.6,0.2,4.6,1.5c0,0.1,0.1,0.1,0.1,0.2c0.6,1.2,0.5,2.6,0.5,3.9
			c0,0.4-0.4,0.8-0.6,1.1c0,0.1-0.1,0.2-0.2,0.2c-0.3,0.8-0.7,1.5-1,2.3c-0.3,0.6-0.1,1.3,0.6,1.5c1,0.3,2,0.5,3,0.8
			c0.5,0.1,1,0.3,1.5,0.5C32,24.1,32.2,24.3,32.3,24.6C32.4,24.5,32.3,24.6,32.3,24.6z"/>
	</g>
</g>
</svg>
