<?xml version="1.0" encoding="utf-8"?>
<!-- Generator: Adobe Illustrator 23.0.6, SVG Export Plug-In . SVG Version: 6.00 Build 0)  -->
<svg version="1.1" id="Layer_1" xmlns="http://www.w3.org/2000/svg" xmlns:xlink="http://www.w3.org/1999/xlink" x="0px" y="0px"
	 width="397px" height="35px" viewBox="0 0 397 35" style="enable-background:new 0 0 397 35;" xml:space="preserve">
<style type="text/css">
	.st0{fill:#F96731;}
	.st1{fill:#2B9AF3;}
	.st2{fill:#205F7F;}
</style>
<g>
	<g>
		<g>
			<g>
				<path d="M2.1,33.3V0h4.1v19l9.7-9.8h5.3l-9.2,9l10.2,15.2h-5.1L9.1,21l-2.9,2.8v9.6H2.1z"/>
				<path d="M51.3,33.3V9.2H55v3.4c1.8-2.7,4.3-4,7.7-4c1.5,0,2.8,0.3,4,0.8s2.1,1.2,2.8,2.1c0.6,0.9,1,1.9,1.3,3
					c0.2,0.8,0.2,2.1,0.2,4v14.9h-4.1V18.6c0-1.7-0.2-2.9-0.5-3.7c-0.3-0.8-0.9-1.5-1.7-2c-0.8-0.5-1.8-0.7-2.8-0.7
					c-1.7,0-3.3,0.5-4.5,1.7c-1.3,1.1-1.9,3.2-1.9,6.3v13.2H51.3z"/>
				<path d="M93.8,25.6l4.2,0.5c-0.7,2.5-1.9,4.4-3.7,5.8c-1.8,1.4-4.1,2-6.9,2c-3.5,0-6.3-1.1-8.4-3.3c-2.1-2.2-3.1-5.2-3.1-9.2
					c0-4.1,1.1-7.2,3.1-9.5s4.8-3.4,8.2-3.4c3.2,0,5.9,1.1,7.9,3.3s3.1,5.3,3.1,9.3c0,0.2,0,0.6,0,1.1h-18c0.2,2.7,0.9,4.7,2.3,6.1
					c1.3,1.4,3,2.1,5.1,2.1c1.5,0,2.8-0.4,3.8-1.2C92.3,28.6,93.2,27.3,93.8,25.6z M80.3,19h13.5c-0.2-2-0.7-3.5-1.5-4.6
					c-1.3-1.6-3-2.4-5.1-2.4c-1.9,0-3.5,0.6-4.7,1.9C81.2,15.1,80.5,16.8,80.3,19z"/>
				<path d="M118.9,24.5l4,0.5c-0.4,2.8-1.6,5-3.4,6.5c-1.8,1.6-4,2.4-6.7,2.4c-3.3,0-6-1.1-8-3.2c-2-2.2-3-5.3-3-9.3
					c0-2.6,0.4-4.9,1.3-6.8s2.2-3.4,3.9-4.4c1.8-1,3.7-1.5,5.8-1.5c2.6,0,4.8,0.7,6.4,2c1.7,1.3,2.7,3.2,3.2,5.7l-4,0.6
					c-0.4-1.6-1.1-2.8-2-3.7c-1-0.8-2.1-1.2-3.5-1.2c-2.1,0-3.7,0.7-5,2.2s-1.9,3.8-1.9,7c0,3.2,0.6,5.6,1.9,7.1
					c1.2,1.5,2.9,2.2,4.9,2.2c1.6,0,2.9-0.5,4-1.5C118,28.1,118.6,26.5,118.9,24.5z"/>
				<path d="M135.4,29.7l0.6,3.6c-1.2,0.2-2.2,0.4-3.1,0.4c-1.5,0-2.6-0.2-3.5-0.7c-0.8-0.5-1.4-1.1-1.7-1.9
					c-0.3-0.8-0.5-2.4-0.5-4.8V12.4h-3V9.2h3v-6l4.1-2.5v8.4h4.1v3.2h-4.1v14.1c0,1.2,0.1,1.9,0.2,2.3c0.1,0.3,0.4,0.6,0.7,0.8
					c0.3,0.2,0.8,0.3,1.4,0.3C134.1,29.9,134.7,29.8,135.4,29.7z"/>
				<path d="M155.2,30.4c-1.5,1.3-3,2.2-4.4,2.7s-2.9,0.8-4.5,0.8c-2.7,0-4.7-0.6-6.1-2c-1.4-1.3-2.1-3-2.1-5c0-1.2,0.3-2.3,0.8-3.2
					c0.5-1,1.2-1.8,2.1-2.4c0.9-0.6,1.9-1,2.9-1.3c0.8-0.2,2-0.4,3.6-0.6c3.3-0.4,5.7-0.9,7.3-1.4c0-0.6,0-0.9,0-1.1
					c0-1.7-0.4-2.8-1.2-3.5c-1.1-0.9-2.6-1.4-4.7-1.4c-1.9,0-3.4,0.3-4.3,1c-0.9,0.7-1.6,1.9-2,3.6l-4-0.5c0.4-1.7,1-3.1,1.8-4.2
					c0.8-1.1,2-1.9,3.6-2.4c1.6-0.6,3.4-0.9,5.5-0.9c2.1,0,3.7,0.2,5,0.7c1.3,0.5,2.2,1.1,2.8,1.8c0.6,0.7,1,1.7,1.3,2.8
					c0.1,0.7,0.2,2,0.2,3.8v5.5c0,3.8,0.1,6.2,0.3,7.2s0.5,2,1,2.9H156C155.6,32.5,155.3,31.5,155.2,30.4z M154.8,21.2
					c-1.5,0.6-3.7,1.1-6.7,1.5c-1.7,0.2-2.9,0.5-3.6,0.8c-0.7,0.3-1.2,0.7-1.6,1.3c-0.4,0.6-0.6,1.2-0.6,2c0,1.1,0.4,2,1.2,2.7
					c0.8,0.7,2,1.1,3.6,1.1c1.6,0,3-0.4,4.2-1c1.2-0.7,2.1-1.6,2.7-2.8c0.4-0.9,0.7-2.3,0.7-4.1L154.8,21.2L154.8,21.2z"/>
				<path d="M165.3,33.3V9.2h3.7v3.7c0.9-1.7,1.8-2.8,2.6-3.4c0.8-0.5,1.7-0.8,2.6-0.8c1.4,0,2.8,0.4,4.2,1.3l-1.4,3.8
					c-1-0.6-2-0.9-3-0.9c-0.9,0-1.7,0.3-2.4,0.8c-0.7,0.5-1.2,1.3-1.5,2.2c-0.4,1.5-0.7,3-0.7,4.8v12.7H165.3z"/>
				<g>
					<circle class="st0" cx="35.2" cy="31" r="2.3"/>
					<circle class="st0" cx="35.2" cy="10.9" r="2.3"/>
					<path class="st1" d="M32.9,28.5c-3.2-1-5.6-4-5.6-7.5c0-3.5,2.4-6.6,5.6-7.5c-0.7-0.6-1.1-1.5-1.1-2.5c0-0.6,0.2-1.2,0.5-1.7
						c0,0,0,0,0,0C27,10.5,23,15.3,23,21s3.9,10.5,9.2,11.8c0,0,0,0,0,0c-0.3-0.5-0.5-1.1-0.5-1.7C31.8,30,32.2,29.2,32.9,28.5z"/>
					<path class="st1" d="M38.1,9.2c0.3,0.5,0.5,1.1,0.5,1.8c0,1-0.4,1.9-1.1,2.5c3.2,1,5.6,4,5.6,7.5s-2.4,6.6-5.6,7.5
						c0.7,0.6,1.1,1.5,1.1,2.5c0,0.6-0.2,1.2-0.5,1.8c5.3-1.3,9.3-6.1,9.3-11.8C47.3,15.3,43.4,10.5,38.1,9.2z"/>
				</g>
			</g>
		</g>
	</g>
	<g>
		<path d="M184.7,4.5c0,2.2-1.7,4-4,4c-2.2,0-4-1.7-4-4c0-2.2,1.8-3.9,4-3.9C182.9,0.6,184.7,2.4,184.7,4.5z M177.6,4.5
			c0,1.7,1.3,3.1,3.1,3.1c1.7,0,3-1.4,3-3.1c0-1.7-1.3-3.2-3-3.2C178.9,1.4,177.6,2.8,177.6,4.5z M180,6.6h-0.9V2.7
			c0.4-0.1,0.9-0.1,1.5-0.1c0.7,0,1.1,0.1,1.4,0.3c0.2,0.2,0.4,0.5,0.4,0.9c0,0.4-0.3,0.8-0.8,0.9v0.1c0.4,0.1,0.6,0.4,0.7,1
			c0.1,0.6,0.2,0.8,0.3,1h-1c-0.1-0.1-0.2-0.5-0.3-1C181.2,5.2,181,5,180.5,5h-0.4L180,6.6L180,6.6z M180.1,4.4h0.4
			c0.5,0,0.9-0.2,0.9-0.6c0-0.4-0.3-0.6-0.8-0.6c-0.2,0-0.4,0-0.5,0L180.1,4.4L180.1,4.4z"/>
	</g>
</g>
<g>
	<g>
		<path class="st2" d="M215.5,29.5c0,0.2,0,0.4,0,0.5c0,0.1,0,0.3-0.1,0.4c0,0.1-0.1,0.2-0.1,0.3c0,0.1-0.1,0.2-0.3,0.3
			c-0.1,0.1-0.4,0.3-0.8,0.6c-0.4,0.2-0.9,0.5-1.4,0.7c-0.6,0.2-1.2,0.4-2,0.6c-0.7,0.2-1.6,0.2-2.4,0.2c-1.5,0-2.9-0.3-4.1-0.8
			c-1.2-0.5-2.3-1.3-3.1-2.2s-1.5-2.2-2-3.7c-0.5-1.5-0.7-3.1-0.7-5c0-1.9,0.3-3.7,0.8-5.2s1.2-2.8,2.1-3.9c0.9-1.1,2-1.9,3.2-2.4
			c1.3-0.6,2.7-0.8,4.2-0.8c0.7,0,1.3,0.1,2,0.2c0.6,0.1,1.2,0.3,1.8,0.5c0.5,0.2,1,0.4,1.4,0.7c0.4,0.3,0.7,0.5,0.9,0.6
			c0.2,0.2,0.3,0.3,0.3,0.4c0,0.1,0.1,0.2,0.1,0.3c0,0.1,0.1,0.3,0.1,0.4c0,0.2,0,0.3,0,0.6c0,0.2,0,0.4,0,0.6
			c0,0.2-0.1,0.3-0.1,0.4s-0.1,0.2-0.2,0.3c-0.1,0.1-0.1,0.1-0.2,0.1c-0.2,0-0.4-0.1-0.7-0.4c-0.3-0.2-0.7-0.5-1.2-0.8
			s-1.1-0.5-1.7-0.8c-0.7-0.2-1.5-0.4-2.5-0.4c-1,0-2,0.2-2.8,0.6c-0.9,0.4-1.6,1-2.2,1.8c-0.6,0.8-1.1,1.8-1.4,3
			c-0.3,1.2-0.5,2.5-0.5,4c0,1.5,0.2,2.8,0.5,3.9c0.3,1.1,0.8,2.1,1.4,2.9c0.6,0.8,1.3,1.3,2.2,1.7c0.9,0.4,1.9,0.6,3,0.6
			c0.9,0,1.7-0.1,2.4-0.3c0.7-0.2,1.3-0.5,1.8-0.8c0.5-0.3,0.9-0.5,1.2-0.8s0.6-0.3,0.7-0.3c0.1,0,0.2,0,0.2,0.1
			c0.1,0,0.1,0.1,0.1,0.2c0,0.1,0.1,0.2,0.1,0.4C215.5,29,215.5,29.3,215.5,29.5z"/>
		<path class="st2" d="M237.1,31.7c0.1,0.3,0.1,0.5,0.2,0.6c0,0.2,0,0.3-0.1,0.4s-0.3,0.1-0.5,0.2c-0.2,0-0.5,0-0.9,0
			c-0.4,0-0.7,0-0.9,0c-0.2,0-0.4,0-0.5-0.1c-0.1,0-0.2-0.1-0.3-0.2c-0.1-0.1-0.1-0.2-0.2-0.3l-2-5.7h-9.7l-1.9,5.6
			c0,0.1-0.1,0.2-0.1,0.3c-0.1,0.1-0.1,0.1-0.3,0.2c-0.1,0.1-0.3,0.1-0.5,0.1c-0.2,0-0.5,0-0.8,0c-0.3,0-0.6,0-0.9,0
			c-0.2,0-0.4-0.1-0.5-0.2c-0.1-0.1-0.1-0.2-0.1-0.4c0-0.2,0.1-0.4,0.2-0.6l7.9-21.7c0-0.1,0.1-0.2,0.2-0.3c0.1-0.1,0.2-0.2,0.3-0.2
			c0.2,0,0.3-0.1,0.6-0.1c0.2,0,0.5,0,0.9,0c0.4,0,0.7,0,1,0c0.3,0,0.5,0.1,0.6,0.1c0.2,0,0.3,0.1,0.4,0.2c0.1,0.1,0.2,0.2,0.2,0.3
			L237.1,31.7z M227.1,12.6L227.1,12.6L223,24.2h8.1L227.1,12.6z"/>
		<path class="st2" d="M256.7,32.4c0,0.1,0,0.2-0.1,0.3s-0.1,0.1-0.2,0.2c-0.1,0-0.3,0.1-0.5,0.1c-0.2,0-0.5,0-0.9,0
			c-0.3,0-0.6,0-0.8,0c-0.2,0-0.4-0.1-0.5-0.1c-0.1-0.1-0.2-0.1-0.3-0.2c-0.1-0.1-0.1-0.2-0.2-0.4l-2.2-5.5
			c-0.3-0.6-0.5-1.2-0.8-1.7c-0.3-0.5-0.6-1-1-1.4s-0.8-0.7-1.3-0.9s-1.1-0.3-1.8-0.3h-2.1v10c0,0.1,0,0.2-0.1,0.3
			c-0.1,0.1-0.1,0.1-0.3,0.2c-0.1,0-0.3,0.1-0.5,0.1c-0.2,0-0.5,0-0.8,0c-0.3,0-0.6,0-0.8,0c-0.2,0-0.4-0.1-0.5-0.1
			c-0.1,0-0.2-0.1-0.3-0.2c0-0.1-0.1-0.2-0.1-0.3V10.7c0-0.5,0.1-0.8,0.4-1c0.2-0.2,0.5-0.3,0.8-0.3h5c0.6,0,1.1,0,1.5,0
			s0.7,0.1,1.1,0.1c0.9,0.2,1.7,0.4,2.4,0.7c0.7,0.3,1.3,0.8,1.7,1.3c0.5,0.5,0.8,1.1,1.1,1.8c0.2,0.7,0.4,1.4,0.4,2.2
			c0,0.8-0.1,1.5-0.3,2.1s-0.5,1.2-0.9,1.6c-0.4,0.5-0.9,0.9-1.4,1.2s-1.2,0.6-1.9,0.9c0.4,0.2,0.7,0.4,1,0.6
			c0.3,0.3,0.6,0.6,0.9,0.9s0.5,0.8,0.8,1.2c0.2,0.5,0.5,1,0.7,1.6l2.1,5.2c0.2,0.4,0.3,0.7,0.3,0.9
			C256.6,32.1,256.7,32.3,256.7,32.4z M252,15.9c0-0.9-0.2-1.7-0.6-2.3c-0.4-0.6-1.1-1.1-2.1-1.4c-0.3-0.1-0.6-0.1-1-0.2
			s-0.9-0.1-1.5-0.1h-2.6v7.9h3c0.8,0,1.5-0.1,2.1-0.3c0.6-0.2,1.1-0.5,1.5-0.8c0.4-0.4,0.7-0.8,0.9-1.3C251.9,17,252,16.5,252,15.9
			z"/>
		<path class="st2" d="M279.2,20.8c0,2-0.3,3.8-0.8,5.3c-0.5,1.5-1.3,2.8-2.3,3.8c-1,1-2.2,1.7-3.7,2.2c-1.4,0.5-3.2,0.7-5.2,0.7h-5
			c-0.3,0-0.5-0.1-0.8-0.3c-0.2-0.2-0.4-0.5-0.4-1V10.7c0-0.5,0.1-0.8,0.4-1c0.2-0.2,0.5-0.3,0.8-0.3h5.3c2,0,3.7,0.3,5.1,0.8
			c1.4,0.5,2.6,1.3,3.5,2.3c0.9,1,1.7,2.2,2.2,3.6C278.9,17.5,279.2,19,279.2,20.8z M275.9,20.9c0-1.3-0.2-2.4-0.5-3.5
			s-0.8-2-1.5-2.8c-0.7-0.8-1.5-1.4-2.5-1.9s-2.3-0.7-4-0.7h-3.2v18.2h3.2c1.5,0,2.8-0.2,3.8-0.6s1.9-0.9,2.6-1.7
			c0.7-0.8,1.2-1.7,1.5-2.9S275.9,22.5,275.9,20.9z"/>
		<path class="st2" d="M287.1,32.4c0,0.1,0,0.2-0.1,0.3c0,0.1-0.1,0.1-0.3,0.2c-0.1,0-0.3,0.1-0.5,0.1c-0.2,0-0.5,0-0.8,0
			c-0.3,0-0.5,0-0.7,0c-0.2,0-0.4-0.1-0.5-0.1c-0.1,0-0.2-0.1-0.3-0.2c0-0.1-0.1-0.2-0.1-0.3V9.9c0-0.1,0-0.2,0.1-0.3
			c0.1-0.1,0.1-0.1,0.3-0.2s0.3-0.1,0.5-0.1c0.2,0,0.4,0,0.7,0c0.3,0,0.6,0,0.8,0c0.2,0,0.4,0.1,0.5,0.1c0.1,0,0.2,0.1,0.3,0.2
			c0,0.1,0.1,0.2,0.1,0.3V32.4z"/>
		<path class="st2" d="M312.9,20.9c0,1.9-0.2,3.6-0.7,5.1s-1.1,2.8-2,3.9c-0.9,1.1-2,1.9-3.3,2.5c-1.3,0.6-2.9,0.9-4.7,0.9
			c-1.8,0-3.3-0.3-4.6-0.8c-1.3-0.5-2.3-1.3-3.2-2.3c-0.8-1-1.5-2.2-1.9-3.7c-0.4-1.5-0.6-3.2-0.6-5.1c0-1.8,0.2-3.5,0.7-5
			s1.1-2.8,2-3.8c0.9-1.1,2-1.9,3.3-2.4s2.9-0.9,4.7-0.9c1.7,0,3.2,0.3,4.5,0.8c1.3,0.5,2.3,1.3,3.2,2.3c0.9,1,1.5,2.2,1.9,3.7
			S312.9,19,312.9,20.9z M309.6,21.1c0-1.3-0.1-2.6-0.4-3.7c-0.2-1.1-0.6-2.1-1.2-3c-0.5-0.8-1.3-1.5-2.2-2s-2-0.7-3.4-0.7
			s-2.5,0.3-3.4,0.8c-0.9,0.5-1.7,1.2-2.2,2c-0.6,0.8-1,1.8-1.2,3s-0.4,2.3-0.4,3.6c0,1.4,0.1,2.6,0.3,3.8c0.2,1.2,0.6,2.2,1.2,3
			c0.5,0.8,1.3,1.5,2.2,2c0.9,0.5,2,0.7,3.4,0.7c1.4,0,2.5-0.3,3.4-0.8c0.9-0.5,1.7-1.2,2.2-2.1c0.6-0.9,1-1.9,1.2-3
			C309.5,23.6,309.6,22.4,309.6,21.1z"/>
		<path class="st2" d="M330,31.5c0,0.2,0,0.4,0,0.6c0,0.2-0.1,0.3-0.1,0.4c-0.1,0.1-0.1,0.2-0.2,0.3s-0.2,0.1-0.3,0.1H319
			c-0.3,0-0.5-0.1-0.8-0.3c-0.2-0.2-0.4-0.5-0.4-1V9.9c0-0.1,0-0.2,0.1-0.3c0-0.1,0.1-0.1,0.3-0.2c0.1,0,0.3-0.1,0.5-0.1
			c0.2,0,0.5,0,0.7,0c0.3,0,0.6,0,0.8,0c0.2,0,0.4,0.1,0.5,0.1c0.1,0,0.2,0.1,0.3,0.2c0,0.1,0.1,0.2,0.1,0.3v20.2h8.4
			c0.1,0,0.2,0,0.3,0.1s0.1,0.1,0.2,0.2c0.1,0.1,0.1,0.2,0.1,0.4C330,31,330,31.3,330,31.5z"/>
		<path class="st2" d="M352.2,20.9c0,1.9-0.2,3.6-0.7,5.1c-0.4,1.5-1.1,2.8-2,3.9c-0.9,1.1-2,1.9-3.3,2.5c-1.3,0.6-2.9,0.9-4.7,0.9
			c-1.8,0-3.3-0.3-4.6-0.8c-1.3-0.5-2.3-1.3-3.2-2.3c-0.8-1-1.5-2.2-1.9-3.7c-0.4-1.5-0.6-3.2-0.6-5.1c0-1.8,0.2-3.5,0.7-5
			s1.1-2.8,2-3.8c0.9-1.1,2-1.9,3.3-2.4c1.3-0.6,2.9-0.9,4.7-0.9c1.7,0,3.2,0.3,4.5,0.8c1.3,0.5,2.3,1.3,3.2,2.3
			c0.9,1,1.5,2.2,1.9,3.7S352.2,19,352.2,20.9z M348.9,21.1c0-1.3-0.1-2.6-0.4-3.7c-0.2-1.1-0.6-2.1-1.2-3s-1.3-1.5-2.2-2
			c-0.9-0.5-2-0.7-3.4-0.7c-1.3,0-2.5,0.3-3.4,0.8c-0.9,0.5-1.7,1.2-2.2,2c-0.6,0.8-1,1.8-1.2,3s-0.4,2.3-0.4,3.6
			c0,1.4,0.1,2.6,0.3,3.8c0.2,1.2,0.6,2.2,1.2,3c0.5,0.8,1.3,1.5,2.2,2c0.9,0.5,2.1,0.7,3.4,0.7c1.4,0,2.5-0.3,3.4-0.8
			c0.9-0.5,1.7-1.2,2.2-2.1s1-1.9,1.2-3C348.8,23.6,348.9,22.4,348.9,21.1z"/>
		<path class="st2" d="M374.7,12.6c0,0.2,0,0.4,0,0.6c0,0.2-0.1,0.3-0.1,0.4c0,0.1-0.1,0.2-0.2,0.2c-0.1,0-0.2,0.1-0.2,0.1
			c-0.1,0-0.4-0.1-0.7-0.3c-0.3-0.2-0.8-0.5-1.4-0.8c-0.6-0.3-1.2-0.5-2-0.8c-0.8-0.2-1.7-0.3-2.8-0.3c-1.3,0-2.4,0.2-3.5,0.7
			c-1,0.5-1.9,1.1-2.6,2c-0.7,0.8-1.3,1.8-1.6,3c-0.4,1.1-0.6,2.4-0.6,3.7c0,1.5,0.2,2.8,0.6,4c0.4,1.2,1,2.1,1.7,2.9
			c0.7,0.8,1.6,1.4,2.6,1.8c1,0.4,2.1,0.6,3.4,0.6c0.7,0,1.5-0.1,2.2-0.3c0.7-0.2,1.4-0.4,2.1-0.8v-6.8h-5.4c-0.2,0-0.4-0.1-0.5-0.3
			c-0.1-0.2-0.2-0.5-0.2-1c0-0.2,0-0.4,0-0.6c0-0.2,0.1-0.3,0.1-0.4c0.1-0.1,0.1-0.2,0.2-0.2s0.2-0.1,0.3-0.1h7.4
			c0.1,0,0.3,0,0.4,0.1s0.3,0.1,0.4,0.2c0.1,0.1,0.2,0.2,0.3,0.4c0.1,0.2,0.1,0.4,0.1,0.6v8.9c0,0.3-0.1,0.6-0.2,0.8
			c-0.1,0.2-0.3,0.4-0.7,0.6c-0.3,0.2-0.8,0.4-1.4,0.6s-1.1,0.4-1.7,0.5c-0.6,0.1-1.2,0.3-1.8,0.3c-0.6,0.1-1.2,0.1-1.8,0.1
			c-1.8,0-3.4-0.3-4.8-0.8c-1.4-0.6-2.6-1.4-3.6-2.4c-1-1-1.7-2.3-2.3-3.7s-0.8-3.1-0.8-4.8c0-1.9,0.3-3.5,0.8-5s1.4-2.8,2.4-3.9
			c1-1.1,2.2-1.9,3.7-2.5c1.4-0.6,3-0.9,4.7-0.9c0.9,0,1.7,0.1,2.5,0.2c0.8,0.2,1.5,0.3,2.1,0.6c0.6,0.2,1.1,0.4,1.5,0.7
			s0.7,0.5,0.9,0.6c0.2,0.2,0.3,0.3,0.3,0.5C374.7,11.9,374.7,12.2,374.7,12.6z"/>
		<path class="st2" d="M387.4,23.8v8.6c0,0.1,0,0.2-0.1,0.3s-0.1,0.1-0.3,0.2c-0.1,0-0.3,0.1-0.5,0.1c-0.2,0-0.4,0-0.7,0
			c-0.3,0-0.5,0-0.7,0c-0.2,0-0.4-0.1-0.5-0.1c-0.1,0-0.2-0.1-0.3-0.2c0-0.1-0.1-0.2-0.1-0.3v-8.6l-6.6-13.2
			c-0.1-0.3-0.2-0.5-0.2-0.7s0-0.3,0.1-0.4c0.1-0.1,0.3-0.1,0.5-0.2s0.6,0,1,0c0.4,0,0.7,0,0.9,0c0.2,0,0.4,0.1,0.5,0.1
			c0.1,0,0.2,0.1,0.3,0.2s0.1,0.2,0.2,0.3l3.2,6.7c0.3,0.6,0.6,1.3,0.9,2c0.3,0.7,0.6,1.4,0.9,2.1h0c0.3-0.7,0.6-1.4,0.9-2.1
			c0.3-0.7,0.6-1.4,0.9-2l3.3-6.8c0-0.1,0.1-0.2,0.2-0.3c0.1-0.1,0.2-0.1,0.3-0.2c0.1,0,0.3-0.1,0.5-0.1s0.5,0,0.8,0
			c0.4,0,0.8,0,1,0c0.2,0,0.4,0.1,0.5,0.2s0.1,0.2,0.1,0.4c0,0.2-0.1,0.4-0.2,0.6L387.4,23.8z"/>
	</g>
</g>
</svg>
