<svg width="70" height="70" viewBox="0 0 70 70" fill="none" xmlns="http://www.w3.org/2000/svg">
<path fill-rule="evenodd" clip-rule="evenodd" d="M25.0992 15H44.7147V18.5542C44.7147 19.8402 45.7479 20.8827 47.0224 20.8827C48.2969 20.8827 49.3301 19.8402 49.3301 18.5542V15H65V55H5V15H20.4838V18.554C20.4838 19.8399 21.517 20.8824 22.7915 20.8824C24.066 20.8824 25.0992 19.8399 25.0992 18.554V15ZM16.4147 33.1935L16.25 33.2078L16.2489 33.2114C16.056 33.2329 15.8772 33.0731 15.8607 32.8084L15.6819 30.5063V30.498C15.6823 30.4053 15.7163 30.316 15.7775 30.2472C15.8384 30.1787 15.922 30.1352 16.0124 30.125C15.8564 28.9474 15.9486 27.7494 16.283 26.6103L16.2959 26.5781C16.6352 25.8361 17.1447 25.1872 17.7819 24.6855C18.4191 24.1838 19.1655 23.8439 19.9587 23.6942L19.9163 23.7013C20.318 23.6153 20.7268 23.5682 21.1372 23.5606H21.1619C21.5543 23.5722 21.9449 23.6168 22.3299 23.6942L22.3605 23.6989C23.1543 23.8513 23.9002 24.1955 24.5347 24.7023C25.1693 25.2091 25.6739 25.8636 26.0056 26.6103L25.9903 26.5495C26.3361 27.707 26.4332 28.9261 26.275 30.1248H26.2973C26.388 30.1367 26.4713 30.1816 26.5317 30.2511C26.592 30.3207 26.6254 30.4101 26.6255 30.5028V30.5051L26.4467 32.8073C26.4303 33.066 26.2538 33.2329 26.0539 33.2114L25.888 33.1971H25.8868C25.828 33.1903 25.7717 33.1686 25.7233 33.1339C25.5598 33.6859 25.3728 34.2641 25.1317 34.8709L25.087 34.9973C24.8188 35.6685 24.5142 36.3194 24.2237 36.8512C24.2408 37.0462 24.2556 37.2398 24.2704 37.4326L24.2704 37.4329L24.2704 37.4329C24.2891 37.6772 24.3077 37.9201 24.3307 38.1626L24.3319 38.1804C24.3561 38.4204 24.4041 38.6573 24.4754 38.8874C24.4965 38.9041 24.5377 41.3684 24.5377 41.3684C24.5333 42.1407 24.2722 42.889 23.7965 43.4923C23.3207 44.0957 22.6582 44.5188 21.9159 44.6934L21.9147 44.6898C21.8808 44.6051 21.8229 44.5325 21.7484 44.481C21.674 44.4295 21.5862 44.4013 21.496 44.4001H20.8208C20.7297 44.3997 20.6406 44.4277 20.5656 44.4801C20.4905 44.5325 20.4331 44.6069 20.4009 44.6934L20.3774 44.6886C19.6413 44.5089 18.9861 44.0836 18.5172 43.4809C18.0483 42.8783 17.7929 42.1334 17.7921 41.366C17.7921 41.366 17.8108 39.0459 17.8248 38.894C17.903 38.6563 17.9524 38.4099 17.972 38.1602C18.0165 37.731 18.0505 37.2876 18.0786 36.8559C17.7566 36.2535 17.4659 35.6255 17.171 34.8685C16.9299 34.2617 16.737 33.6823 16.5794 33.1315L16.5806 33.1303C16.5315 33.1654 16.4744 33.1871 16.4147 33.1935ZM17.8254 38.8892L17.8248 38.894L17.8203 38.9077L17.8254 38.8892ZM17.8262 38.8862C17.8259 38.8863 17.8256 38.8873 17.8254 38.8892L17.8262 38.8862ZM33.5874 48.2109C33.5104 44.9662 33.1898 44.0988 32.9943 43.5699C32.9833 43.5402 32.9728 43.5117 32.9627 43.4838C32.955 43.4623 32.9474 43.4279 32.9374 43.3827C32.8498 42.9865 32.5774 41.7538 30.401 40.9242C29.6984 40.6557 28.8993 40.5116 28.0805 40.3639L28.0804 40.3639C27.167 40.1991 26.2289 40.03 25.3729 39.6787V41.5317C25.3716 42.4817 25.0298 43.4018 24.406 44.1339C23.7822 44.866 22.9154 45.3647 21.9542 45.5442L21.9275 45.5487C21.9101 45.6487 21.8571 45.7395 21.7777 45.8055C21.6983 45.8714 21.5976 45.9082 21.4932 45.9094H21.4723V47.307C21.4723 47.9628 21.7407 48.5918 22.2185 49.0556C22.6963 49.5193 23.3443 49.7799 24.02 49.7799C24.6957 49.7799 25.3438 49.5193 25.8216 49.0556C26.2994 48.5918 26.5678 47.9628 26.5678 47.307V46.3309C26.2171 46.281 25.8974 46.1081 25.6692 45.8448C25.441 45.5816 25.3201 45.2463 25.3293 44.9024C25.3386 44.5584 25.4774 44.2298 25.7195 43.9785C25.9616 43.7272 26.2902 43.5707 26.6431 43.5387C26.996 43.5066 27.3488 43.6012 27.6347 43.8046C27.9206 44.0079 28.1198 44.3059 28.1946 44.6422C28.2694 44.9785 28.2147 45.3298 28.0407 45.6295C27.8668 45.9293 27.5857 46.1567 27.2506 46.2689L27.2401 46.2723V47.36C27.2401 48.1892 26.9008 48.9845 26.2966 49.5708C25.6925 50.1572 24.8732 50.4866 24.0189 50.4866C23.1645 50.4866 22.3452 50.1572 21.7411 49.5708C21.137 48.9845 20.7976 48.1892 20.7976 47.36V47.3059V47.3036V45.8959C20.6981 45.8895 20.6038 45.8506 20.53 45.7855C20.4562 45.7204 20.4072 45.633 20.3912 45.5374V45.5352C19.4292 45.3571 18.5609 44.8599 17.935 44.1287C17.3092 43.3974 16.9649 42.4778 16.9609 41.5272V39.6596C16.0942 40.0209 15.1427 40.1939 14.2171 40.3623C13.4016 40.5106 12.6061 40.6553 11.9061 40.9219C9.71992 41.7518 9.45418 42.9844 9.36879 43.3805C9.35921 43.4249 9.35189 43.4588 9.34439 43.4805C9.33268 43.5137 9.3203 43.5479 9.30734 43.5837C9.11462 44.1158 8.79581 44.996 8.71965 48.2087C8.70571 48.6595 8.71965 49.3504 10.1201 49.9546C13.1695 51.1155 17.0979 51.4762 20.9706 51.7354H21.3422C25.2231 51.4784 29.1457 51.1189 32.1928 49.9546C33.5874 49.3538 33.6002 48.6663 33.5874 48.2109ZM16.5394 46.8133H15.0925V48.2233H14.059V46.8178H12.6121V45.8147H14.059V44.4103H15.0925V45.8147H16.5394V46.8133ZM58.8584 26.3856H36.9353V28.7386H58.8584V26.3856ZM36.9353 31.6993H58.8584V34.0522H36.9353V31.6993ZM58.8584 37.0129H36.9353V39.3659H58.8584V37.0129ZM36.9353 42.326H58.8584V44.6789H36.9353V42.326ZM58.8584 47.6379H36.9353V49.9909H58.8584V47.6379Z" fill="#0163BB"/>
</svg>
