<svg width="70" height="70" viewBox="0 0 70 70" fill="none" xmlns="http://www.w3.org/2000/svg">
<rect x="9.42773" y="32.7676" width="12.1419" height="31.2298" fill="#0163BB"/>
<rect x="28.8574" y="21.6172" width="12.1419" height="42.3832" fill="#0163BB"/>
<rect x="48.2793" y="32.7676" width="12.1419" height="31.2298" fill="#0163BB"/>
<path d="M15.4994 17.1523L17.4076 22.5472H23.5827L18.5869 25.8813L20.4952 31.2761L15.4994 27.942L10.5036 31.2761L12.4118 25.8813L7.41599 22.5472H13.5911L15.4994 17.1523Z" fill="#0163BB"/>
<path d="M34.931 6L36.8392 11.3948H43.0144L38.0186 14.729L39.9268 20.1238L34.931 16.7896L29.9352 20.1238L31.8434 14.729L26.8476 11.3948H33.0228L34.931 6Z" fill="#0163BB"/>
<path d="M54.3529 17.1504L56.2611 22.5452H62.4363L57.4405 25.8794L59.3487 31.2742L54.3529 27.94L49.3571 31.2742L51.2653 25.8794L46.2695 22.5452H52.4447L54.3529 17.1504Z" fill="#0163BB"/>
</svg>
