<svg width="70" height="70" viewBox="0 0 70 70" fill="none" xmlns="http://www.w3.org/2000/svg">
<path d="M27.5106 36.0891L27.7622 36.0683C27.8533 36.059 27.9406 36.0274 28.0155 35.9766L28.0137 35.9783C28.2546 36.7782 28.5493 37.6197 28.9177 38.501C29.3903 39.6542 29.8558 40.6013 30.3769 41.5155L30.305 41.377C30.2619 42.0072 30.2098 42.6548 30.1415 43.2816C30.1109 43.6513 30.0331 44.0159 29.9097 44.3672L29.9186 44.3361C29.8971 44.3447 29.8665 47.9375 29.8665 47.9375C29.8678 49.0521 30.258 50.134 30.9744 51.0092C31.6908 51.8844 32.6918 52.5021 33.8165 52.7631L33.8524 52.77C33.9016 52.6445 33.9893 52.5364 34.104 52.4602C34.2187 52.3841 34.3547 52.3436 34.494 52.3441H35.5255C35.6633 52.3459 35.7974 52.3867 35.9112 52.4615C36.025 52.5364 36.1134 52.6419 36.1653 52.7648L36.1671 52.77C37.3012 52.5165 38.3134 51.9019 39.0403 51.0257C39.7671 50.1494 40.1661 49.0627 40.1728 47.941C40.1728 47.941 40.1099 44.362 40.0775 44.3378C39.9687 44.0035 39.8952 43.6595 39.8583 43.311L39.8565 43.2851C39.7936 42.6548 39.7522 42.0228 39.6929 41.3805C40.1368 40.6082 40.6023 39.6628 41.012 38.688L41.0803 38.5045C41.4487 37.6232 41.7344 36.7834 41.9842 35.9818C42.0582 36.0321 42.1441 36.0636 42.234 36.0735H42.2358L42.4892 36.0943C42.7947 36.1255 43.0643 35.8831 43.0894 35.5073L43.3626 32.1639V32.1604C43.3624 32.0259 43.3115 31.896 43.2192 31.795C43.1269 31.694 42.9997 31.6288 42.8612 31.6116H42.827C43.0688 29.8706 42.9205 28.1 42.3922 26.4189L42.4155 26.5072C41.9086 25.4228 41.1377 24.4723 40.1682 23.7362C39.1987 23.0001 38.0592 22.5002 36.8464 22.279L36.7997 22.272C36.2115 22.1597 35.6146 22.0948 35.0152 22.0781H34.9774C34.3503 22.089 33.7257 22.1575 33.1121 22.2824L33.1767 22.272C31.9649 22.4895 30.8245 22.9832 29.851 23.7118C28.8775 24.4404 28.0991 25.3829 27.5807 26.4605L27.5609 26.5072C27.0437 28.1823 26.9058 29.9448 27.1565 31.6756L27.1494 31.6116C27.0105 31.626 26.882 31.6893 26.7886 31.7893C26.6951 31.8893 26.6431 32.0189 26.6426 32.1535V32.1656L26.9157 35.5091C26.9409 35.8935 27.214 36.1255 27.5088 36.0943L27.5106 36.0891Z" fill="#0163BB"/>
<path d="M53.9971 57.8824C53.8729 52.9061 53.3336 51.7799 53.0426 51.017C52.9273 50.7109 52.8333 48.6418 49.1288 47.2995C46.8579 46.4745 43.9269 46.4582 41.4466 45.4907V48.1819C41.4447 49.5617 40.9225 50.8978 39.9694 51.9611C39.0164 53.0245 37.692 53.7486 36.2235 54.0094L36.1827 54.0159C36.1561 54.1611 36.0751 54.2931 35.9538 54.3888C35.8326 54.4846 35.6787 54.538 35.5191 54.5397H35.4872V56.5696C35.4872 57.5221 35.8973 58.4356 36.6273 59.1091C37.3573 59.7826 38.3474 60.161 39.3797 60.161C40.4121 60.161 41.4022 59.7826 42.1322 59.1091C42.8622 58.4356 43.2723 57.5221 43.2723 56.5696V55.152C42.7364 55.0795 42.248 54.8283 41.8993 54.446C41.5507 54.0637 41.3659 53.5767 41.3801 53.0772C41.3943 52.5777 41.6064 52.1004 41.9762 51.7354C42.3461 51.3704 42.8481 51.1432 43.3873 51.0966C43.9265 51.0501 44.4655 51.1875 44.9023 51.4829C45.3391 51.7782 45.6435 52.211 45.7578 52.6994C45.8721 53.1878 45.7885 53.6979 45.5227 54.1333C45.2569 54.5686 44.8274 54.899 44.3155 55.0619L44.2995 55.0668V56.6465C44.2995 57.8508 43.781 59.0058 42.858 59.8574C41.935 60.709 40.6832 61.1874 39.3779 61.1874C38.0727 61.1874 36.8209 60.709 35.8979 59.8574C34.9749 59.0058 34.4564 57.8508 34.4564 56.6465V56.5646V56.5679V54.5201C34.3044 54.5108 34.1602 54.4543 34.0475 54.3598C33.9347 54.2653 33.86 54.1383 33.8354 53.9996V53.9963C32.3656 53.7376 31.039 53.0155 30.0828 51.9535C29.1267 50.8916 28.6006 49.5559 28.5945 48.1753V45.4629C26.1036 46.45 23.1549 46.4696 20.8716 47.2963C17.1564 48.6369 17.0713 50.7011 16.9577 51.0121C16.6739 51.7782 16.1274 52.8995 16.0032 57.8791C15.9819 58.5339 16.0032 59.5373 18.1429 60.4147C22.8019 62.1008 28.8039 62.6246 34.7207 63.0011H35.2885C41.2178 62.6279 47.2109 62.1057 51.8663 60.4147C53.9971 59.5422 54.0166 58.5437 53.9971 57.8824ZM27.9505 55.8526H25.7399V57.9004H24.1609V55.8591H21.9503V54.4022H24.1609V52.3626H25.7399V54.4022H27.9505V55.8526Z" fill="#0163BB"/>
<path d="M18.0867 24.2326L18.9732 20.2506L16 17.5724L19.9279 17.2181L21.4554 13.4629L22.9829 17.2181L26.9108 17.5724L23.9376 20.2506L24.8241 24.2326L21.4554 22.1212L18.0867 24.2326Z" fill="#0163BB"/>
<path d="M31.1804 17.7697L32.0669 13.7877L29.0938 11.1095L33.0216 10.7552L34.5491 7L36.0766 10.7552L40.0045 11.1095L37.0313 13.7877L37.9178 17.7697L34.5491 15.6583L31.1804 17.7697Z" fill="#0163BB"/>
<path d="M44.2722 24.2326L45.1587 20.2506L42.1855 17.5724L46.1134 17.2181L47.6409 13.4629L49.1684 17.2181L53.0963 17.5724L50.1231 20.2506L51.0096 24.2326L47.6409 22.1212L44.2722 24.2326Z" fill="#0163BB"/>
</svg>
