<?xml version="1.0" encoding="utf-8"?>
<!-- Generator: Adobe Illustrator 24.1.1, SVG Export Plug-In . SVG Version: 6.00 Build 0)  -->
<svg version="1.1" id="Layer_1" xmlns="http://www.w3.org/2000/svg" xmlns:xlink="http://www.w3.org/1999/xlink" x="0px" y="0px"
	 width="299.6px" height="38.5px" viewBox="0 0 299.6 38.5" style="enable-background:new 0 0 299.6 38.5;" xml:space="preserve">
<style type="text/css">
	.st0{fill:#F96731;}
	.st1{fill:#2B9AF3;}
	.st2{fill:#205F7F;}
</style>
<g>
	<g>
		<g>
			<g>
				<path d="M1.4,34.8V1.4h4.1v19l9.7-9.8h5.3l-9.2,9l10.2,15.2h-5.1l-8-12.4l-2.9,2.8v9.6H1.4z"/>
				<path d="M50.6,34.8V10.6h3.7V14c1.8-2.7,4.3-4,7.7-4c1.5,0,2.8,0.3,4,0.8s2.1,1.2,2.8,2.1c0.6,0.9,1,1.9,1.3,3
					c0.2,0.8,0.2,2.1,0.2,4v14.9h-4.1V20c0-1.7-0.2-2.9-0.5-3.7c-0.3-0.8-0.9-1.5-1.7-2c-0.8-0.5-1.8-0.7-2.8-0.7
					c-1.7,0-3.3,0.5-4.5,1.7c-1.3,1.1-1.9,3.2-1.9,6.3v13.2H50.6z"/>
				<path d="M93.1,27l4.2,0.5c-0.7,2.5-1.9,4.4-3.7,5.8c-1.8,1.4-4.1,2-6.9,2c-3.5,0-6.3-1.1-8.4-3.3s-3.1-5.2-3.1-9.2
					c0-4.1,1.1-7.2,3.1-9.5s4.8-3.4,8.2-3.4c3.2,0,5.9,1.1,7.9,3.3s3.1,5.3,3.1,9.3c0,0.2,0,0.6,0,1.1h-18c0.2,2.7,0.9,4.7,2.3,6.1
					c1.3,1.4,3,2.1,5.1,2.1c1.5,0,2.8-0.4,3.8-1.2C91.6,30,92.5,28.7,93.1,27z M79.6,20.4h13.5c-0.2-2-0.7-3.5-1.5-4.6
					c-1.3-1.6-3-2.4-5.1-2.4c-1.9,0-3.5,0.6-4.7,1.9C80.5,16.6,79.8,18.3,79.6,20.4z"/>
				<path d="M118.2,25.9l4,0.5c-0.4,2.8-1.6,5-3.4,6.5c-1.8,1.6-4,2.4-6.7,2.4c-3.3,0-6-1.1-8-3.2c-2-2.2-3-5.3-3-9.3
					c0-2.6,0.4-4.9,1.3-6.8s2.2-3.4,3.9-4.4c1.8-1,3.7-1.5,5.8-1.5c2.6,0,4.8,0.7,6.4,2c1.7,1.3,2.7,3.2,3.2,5.7l-4,0.6
					c-0.4-1.6-1.1-2.8-2-3.7c-1-0.8-2.1-1.2-3.5-1.2c-2.1,0-3.7,0.7-5,2.2s-1.9,3.8-1.9,7s0.6,5.6,1.9,7.1c1.2,1.5,2.9,2.2,4.9,2.2
					c1.6,0,2.9-0.5,4-1.5C117.3,29.5,118,27.9,118.2,25.9z"/>
				<path d="M134.7,31.1l0.6,3.6c-1.2,0.2-2.2,0.4-3.1,0.4c-1.5,0-2.6-0.2-3.5-0.7c-0.8-0.5-1.4-1.1-1.7-1.9
					c-0.3-0.8-0.5-2.4-0.5-4.8V13.8h-3v-3.2h3v-6l4.1-2.5v8.4h4.1v3.2h-4.1v14.1c0,1.2,0.1,1.9,0.2,2.3c0.1,0.3,0.4,0.6,0.7,0.8
					c0.3,0.2,0.8,0.3,1.4,0.3C133.4,31.3,134,31.2,134.7,31.1z"/>
				<path d="M154.5,31.8c-1.5,1.3-3,2.2-4.4,2.7s-2.9,0.8-4.5,0.8c-2.7,0-4.7-0.6-6.1-2c-1.4-1.3-2.1-3-2.1-5c0-1.2,0.3-2.3,0.8-3.2
					c0.5-1,1.2-1.8,2.1-2.4c0.9-0.6,1.9-1,2.9-1.3c0.8-0.2,2-0.4,3.6-0.6c3.3-0.4,5.7-0.9,7.3-1.4c0-0.6,0-0.9,0-1.1
					c0-1.7-0.4-2.8-1.2-3.5c-1.1-0.9-2.6-1.4-4.7-1.4c-1.9,0-3.4,0.3-4.3,1c-0.9,0.7-1.6,1.9-2,3.6l-4-0.5c0.4-1.7,1-3.1,1.8-4.2
					s2-1.9,3.6-2.4c1.6-0.6,3.4-0.9,5.5-0.9s3.7,0.2,5,0.7s2.2,1.1,2.8,1.8s1,1.7,1.3,2.8c0.1,0.7,0.2,2,0.2,3.8v5.5
					c0,3.8,0.1,6.2,0.3,7.2s0.5,2,1,2.9h-4.3C154.9,33.9,154.6,32.9,154.5,31.8z M154.2,22.6c-1.5,0.6-3.7,1.1-6.7,1.5
					c-1.7,0.2-2.9,0.5-3.6,0.8c-0.7,0.3-1.2,0.7-1.6,1.3c-0.4,0.6-0.6,1.2-0.6,2c0,1.1,0.4,2,1.2,2.7s2,1.1,3.6,1.1s3-0.4,4.2-1
					c1.2-0.7,2.1-1.6,2.7-2.8c0.4-0.9,0.7-2.3,0.7-4.1L154.2,22.6L154.2,22.6z"/>
				<path d="M164.6,34.8V10.6h3.7v3.7c0.9-1.7,1.8-2.8,2.6-3.4c0.8-0.5,1.7-0.8,2.6-0.8c1.4,0,2.8,0.4,4.2,1.3l-1.4,3.8
					c-1-0.6-2-0.9-3-0.9c-0.9,0-1.7,0.3-2.4,0.8s-1.2,1.3-1.5,2.2c-0.4,1.5-0.7,3-0.7,4.8v12.7C168.7,34.8,164.6,34.8,164.6,34.8z"
					/>
				<g>
					<circle class="st0" cx="34.5" cy="32.5" r="2.3"/>
					<circle class="st0" cx="34.5" cy="12.3" r="2.3"/>
					<path class="st1" d="M32.2,29.9c-3.2-1-5.6-4-5.6-7.5s2.4-6.6,5.6-7.5c-0.7-0.6-1.1-1.5-1.1-2.5c0-0.6,0.2-1.2,0.5-1.7l0,0
						c-5.3,1.3-9.2,6.1-9.2,11.8s3.9,10.5,9.2,11.8l0,0c-0.3-0.5-0.5-1.1-0.5-1.7C31.1,31.5,31.5,30.6,32.2,29.9z"/>
					<path class="st1" d="M37.4,10.6c0.3,0.5,0.5,1.1,0.5,1.8c0,1-0.4,1.9-1.1,2.5c3.2,1,5.6,4,5.6,7.5S40,29,36.8,29.9
						c0.7,0.6,1.1,1.5,1.1,2.5c0,0.6-0.2,1.2-0.5,1.8c5.3-1.3,9.3-6.1,9.3-11.8C46.7,16.7,42.7,11.9,37.4,10.6z"/>
				</g>
			</g>
		</g>
	</g>
	<g>
		<path d="M184,5.9c0,2.2-1.7,4-4,4c-2.2,0-4-1.7-4-4c0-2.2,1.8-3.9,4-3.9C182.3,2,184,3.8,184,5.9z M176.9,5.9
			c0,1.7,1.3,3.1,3.1,3.1c1.7,0,3-1.4,3-3.1s-1.3-3.2-3-3.2C178.3,2.8,176.9,4.2,176.9,5.9z M179.4,8h-0.9V4.1
			C178.9,4,179.4,4,180,4c0.7,0,1.1,0.1,1.4,0.3c0.2,0.2,0.4,0.5,0.4,0.9S181.5,6,181,6.1v0.1c0.4,0.1,0.6,0.4,0.7,1
			c0.1,0.6,0.2,0.8,0.3,1h-1c-0.1-0.1-0.2-0.5-0.3-1c-0.1-0.4-0.3-0.6-0.8-0.6h-0.4L179.4,8L179.4,8z M179.4,5.8h0.4
			c0.5,0,0.9-0.2,0.9-0.6s-0.3-0.6-0.8-0.6c-0.2,0-0.4,0-0.5,0L179.4,5.8L179.4,5.8z"/>
	</g>
</g>
<g>
	
		<image style="overflow:visible;opacity:0.2;" width="119" height="38" xlink:href="1315FBB1.png"  transform="matrix(1 0 0 1 183.7846 5.136)">
	</image>
	<g>
		<g>
			<path class="st2" d="M203.4,28.3c0,1.1-0.2,2.1-0.6,2.9c-0.4,0.9-1,1.6-1.7,2.2c-0.7,0.6-1.6,1-2.5,1.3c-1,0.3-2,0.5-3.1,0.5
				c-0.8,0-1.5-0.1-2.2-0.2s-1.3-0.3-1.8-0.5c-0.5-0.2-1-0.4-1.3-0.6c-0.4-0.2-0.6-0.4-0.7-0.5s-0.2-0.3-0.3-0.6S189,32.3,189,32
				c0-0.3,0-0.5,0-0.7c0-0.2,0.1-0.3,0.1-0.4c0-0.1,0.1-0.2,0.2-0.2s0.2-0.1,0.3-0.1c0.2,0,0.4,0.1,0.7,0.3s0.7,0.4,1.2,0.7
				c0.5,0.2,1.1,0.5,1.7,0.7c0.7,0.2,1.5,0.3,2.4,0.3c0.7,0,1.3-0.1,1.9-0.3c0.6-0.2,1-0.4,1.4-0.8c0.4-0.3,0.7-0.7,0.9-1.2
				c0.2-0.5,0.3-1,0.3-1.6c0-0.7-0.2-1.2-0.5-1.7c-0.3-0.5-0.7-0.9-1.2-1.2s-1.1-0.7-1.7-1c-0.6-0.3-1.3-0.6-1.9-0.9
				c-0.7-0.3-1.3-0.6-1.9-1c-0.6-0.4-1.2-0.8-1.7-1.3c-0.5-0.5-0.9-1.1-1.2-1.8c-0.3-0.7-0.5-1.5-0.5-2.5c0-1,0.2-1.8,0.5-2.6
				c0.4-0.8,0.9-1.4,1.5-1.9c0.6-0.5,1.4-0.9,2.3-1.2c0.9-0.3,1.8-0.4,2.8-0.4c0.5,0,1,0,1.6,0.1c0.5,0.1,1,0.2,1.5,0.4
				c0.5,0.2,0.9,0.3,1.2,0.5c0.4,0.2,0.6,0.3,0.7,0.5s0.2,0.2,0.2,0.3s0.1,0.2,0.1,0.3c0,0.1,0,0.2,0.1,0.4c0,0.1,0,0.3,0,0.6
				c0,0.2,0,0.4,0,0.6s0,0.3-0.1,0.4c0,0.1-0.1,0.2-0.2,0.3c-0.1,0.1-0.1,0.1-0.2,0.1c-0.1,0-0.3-0.1-0.6-0.3
				c-0.3-0.2-0.6-0.4-1-0.6c-0.4-0.2-0.9-0.4-1.5-0.6c-0.6-0.2-1.2-0.3-1.9-0.3c-0.7,0-1.2,0.1-1.7,0.3c-0.5,0.2-0.9,0.4-1.2,0.7
				c-0.3,0.3-0.5,0.6-0.7,1c-0.2,0.4-0.2,0.8-0.2,1.3c0,0.7,0.2,1.2,0.5,1.7c0.3,0.5,0.7,0.9,1.2,1.2c0.5,0.4,1.1,0.7,1.7,1
				c0.6,0.3,1.3,0.6,2,0.9c0.7,0.3,1.3,0.6,2,1c0.6,0.4,1.2,0.8,1.7,1.3c0.5,0.5,0.9,1.1,1.2,1.8C203.2,26.6,203.4,27.4,203.4,28.3z
				"/>
			<path class="st2" d="M227.4,22.9c0,1.9-0.2,3.6-0.7,5.1c-0.4,1.5-1.1,2.8-2,3.9s-2,1.9-3.3,2.5c-1.3,0.6-2.9,0.9-4.7,0.9
				c-1.8,0-3.3-0.3-4.6-0.8c-1.3-0.5-2.3-1.3-3.2-2.3c-0.8-1-1.5-2.2-1.9-3.7s-0.6-3.2-0.6-5.1c0-1.8,0.2-3.5,0.7-5
				c0.4-1.5,1.1-2.8,2-3.8c0.9-1.1,2-1.9,3.3-2.4c1.3-0.6,2.9-0.9,4.7-0.9c1.7,0,3.2,0.3,4.5,0.8s2.3,1.3,3.2,2.3
				c0.9,1,1.5,2.2,1.9,3.7C227.2,19.3,227.4,21,227.4,22.9z M224.2,23.1c0-1.3-0.1-2.6-0.4-3.7s-0.6-2.1-1.2-3
				c-0.5-0.8-1.3-1.5-2.2-2c-0.9-0.5-2-0.7-3.4-0.7c-1.3,0-2.5,0.3-3.4,0.8c-0.9,0.5-1.7,1.2-2.2,2c-0.6,0.8-1,1.8-1.2,3
				s-0.4,2.3-0.4,3.6c0,1.4,0.1,2.6,0.3,3.8c0.2,1.2,0.6,2.2,1.2,3c0.5,0.8,1.3,1.5,2.2,2c0.9,0.5,2.1,0.7,3.4,0.7
				c1.4,0,2.5-0.3,3.4-0.8c0.9-0.5,1.7-1.2,2.2-2.1c0.6-0.9,1-1.9,1.2-3C224,25.6,224.2,24.4,224.2,23.1z"/>
			<path class="st2" d="M248,31.6c0,0.2,0,0.4,0,0.5s0,0.3-0.1,0.4s-0.1,0.2-0.1,0.3c0,0.1-0.1,0.2-0.3,0.3
				c-0.1,0.1-0.4,0.3-0.8,0.6c-0.4,0.2-0.9,0.5-1.4,0.7c-0.6,0.2-1.2,0.4-2,0.6c-0.7,0.2-1.6,0.2-2.4,0.2c-1.5,0-2.9-0.3-4.1-0.8
				c-1.2-0.5-2.3-1.3-3.1-2.2c-0.9-1-1.5-2.2-2-3.7s-0.7-3.1-0.7-5c0-1.9,0.2-3.7,0.8-5.2c0.5-1.5,1.2-2.8,2.1-3.9
				c0.9-1.1,2-1.9,3.2-2.4c1.3-0.6,2.7-0.8,4.2-0.8c0.7,0,1.3,0.1,2,0.2c0.6,0.1,1.2,0.3,1.8,0.5c0.5,0.2,1,0.4,1.4,0.7
				s0.7,0.5,0.9,0.6c0.2,0.2,0.3,0.3,0.3,0.4c0,0.1,0.1,0.2,0.1,0.3c0,0.1,0.1,0.3,0.1,0.4c0,0.2,0,0.3,0,0.6c0,0.2,0,0.4,0,0.6
				s-0.1,0.3-0.1,0.4c0,0.1-0.1,0.2-0.2,0.3c-0.1,0.1-0.1,0.1-0.2,0.1c-0.2,0-0.4-0.1-0.7-0.4c-0.3-0.2-0.7-0.5-1.2-0.8
				s-1.1-0.5-1.7-0.8c-0.7-0.2-1.5-0.4-2.5-0.4c-1,0-2,0.2-2.8,0.6c-0.9,0.4-1.6,1-2.2,1.8c-0.6,0.8-1.1,1.8-1.4,3
				c-0.3,1.2-0.5,2.5-0.5,4c0,1.5,0.2,2.8,0.5,3.9s0.8,2.1,1.4,2.9s1.3,1.3,2.2,1.7c0.9,0.4,1.9,0.6,3,0.6c0.9,0,1.7-0.1,2.4-0.3
				c0.7-0.2,1.3-0.5,1.8-0.8c0.5-0.3,0.9-0.5,1.2-0.8c0.3-0.2,0.6-0.3,0.7-0.3c0.1,0,0.2,0,0.2,0.1s0.1,0.1,0.1,0.2s0.1,0.2,0.1,0.4
				C248,31.1,248,31.3,248,31.6z"/>
			<path class="st2" d="M255.2,34.4c0,0.1,0,0.2-0.1,0.3c0,0.1-0.1,0.1-0.3,0.2c-0.1,0-0.3,0.1-0.5,0.1c-0.2,0-0.5,0-0.8,0
				c-0.3,0-0.5,0-0.7,0s-0.4-0.1-0.5-0.1c-0.1,0-0.2-0.1-0.3-0.2c0-0.1-0.1-0.2-0.1-0.3V11.9c0-0.1,0-0.2,0.1-0.3
				c0.1-0.1,0.1-0.1,0.3-0.2s0.3-0.1,0.5-0.1s0.4,0,0.7,0c0.3,0,0.6,0,0.8,0c0.2,0,0.4,0.1,0.5,0.1c0.1,0,0.2,0.1,0.3,0.2
				c0,0.1,0.1,0.2,0.1,0.3V34.4z"/>
			<path class="st2" d="M279,33.8c0.1,0.3,0.1,0.5,0.2,0.6s0,0.3-0.1,0.4c-0.1,0.1-0.3,0.1-0.5,0.2c-0.2,0-0.5,0-0.9,0
				c-0.4,0-0.7,0-0.9,0c-0.2,0-0.4,0-0.5-0.1c-0.1,0-0.2-0.1-0.3-0.2c-0.1-0.1-0.1-0.2-0.2-0.3l-2-5.7h-9.7l-1.9,5.6
				c0,0.1-0.1,0.2-0.1,0.3c-0.1,0.1-0.1,0.1-0.3,0.2c-0.1,0.1-0.3,0.1-0.5,0.1s-0.5,0-0.8,0c-0.3,0-0.6,0-0.9,0
				c-0.2,0-0.4-0.1-0.5-0.2c-0.1-0.1-0.1-0.2-0.1-0.4c0-0.2,0.1-0.4,0.2-0.6L267,12c0-0.1,0.1-0.2,0.2-0.3s0.2-0.2,0.3-0.2
				c0.2,0,0.3-0.1,0.6-0.1c0.2,0,0.5,0,0.9,0c0.4,0,0.7,0,1,0c0.3,0,0.5,0.1,0.6,0.1c0.2,0,0.3,0.1,0.4,0.2c0.1,0.1,0.2,0.2,0.2,0.3
				L279,33.8z M268.9,14.6L268.9,14.6l-4.1,11.7h8.1L268.9,14.6z"/>
			<path class="st2" d="M295,33.5c0,0.2,0,0.4,0,0.6c0,0.2-0.1,0.3-0.1,0.4c-0.1,0.1-0.1,0.2-0.2,0.3c-0.1,0.1-0.2,0.1-0.3,0.1H284
				c-0.3,0-0.5-0.1-0.8-0.3c-0.2-0.2-0.4-0.5-0.4-1V11.9c0-0.1,0-0.2,0.1-0.3c0-0.1,0.1-0.1,0.3-0.2c0.1,0,0.3-0.1,0.5-0.1
				s0.5,0,0.7,0c0.3,0,0.6,0,0.8,0c0.2,0,0.4,0.1,0.5,0.1c0.1,0,0.2,0.1,0.3,0.2c0,0.1,0.1,0.2,0.1,0.3v20.2h8.4
				c0.1,0,0.2,0,0.3,0.1c0.1,0.1,0.1,0.1,0.2,0.2c0.1,0.1,0.1,0.2,0.1,0.4S295,33.3,295,33.5z"/>
		</g>
	</g>
</g>
</svg>
