<?xml version="1.0" encoding="utf-8"?>
<!-- Generator: Adobe Illustrator 23.0.6, SVG Export Plug-In . SVG Version: 6.00 Build 0)  -->
<svg version="1.1" id="Layer_1" xmlns="http://www.w3.org/2000/svg" xmlns:xlink="http://www.w3.org/1999/xlink" x="0px" y="0px"
	 width="175px" height="175px" viewBox="0 0 175 175" style="enable-background:new 0 0 175 175;" xml:space="preserve">
<style type="text/css">
	.st0{fill:#005E8C;}
	.st1{fill:#F8FAFB;}
	.st2{fill:none;stroke:#F8FAFB;stroke-width:3;stroke-miterlimit:10;}
	.st3{fill:#FFFFFF;}
</style>
<g>
	<path class="st0" d="M87.5,175L87.5,175C39.2,175,0,135.8,0,87.5v0C0,39.2,39.2,0,87.5,0h0C135.8,0,175,39.2,175,87.5v0
		C175,135.8,135.8,175,87.5,175z"/>
	<g>
		<path class="st1" d="M124.5,45.6v83.8H46.3c-6.3,0-11.3-5.1-11.3-11.3V45.6H124.5 M127.5,42.6H32v75.5c0,7.9,6.4,14.3,14.3,14.3
			h81.2V42.6L127.5,42.6z"/>
	</g>
	<g>
		<path class="st1" d="M140,62.7v54.8c-0.6,6.4-3.9,9.4-6.5,10.8V62.7H140 M143,59.7h-12.5v72.7c0,0,11.3-1.5,12.5-14.8V59.7
			L143,59.7z"/>
	</g>
	<path class="st2" d="M113.7,63.5H48.5c-2.3,0-4.2-1.9-4.2-4.2v0c0-2.3,1.9-4.2,4.2-4.2h65.2c2.3,0,4.2,1.9,4.2,4.2v0
		C117.9,61.6,116.1,63.5,113.7,63.5z"/>
	<rect x="44.3" y="71.4" class="st2" width="37.7" height="41.2"/>
	<g>
		<path class="st3" d="M53.1,81.8c12.2-0.1,22.8,10.3,22.5,22.9c-0.9,0-1.9,0-2.8,0c0.2-10.6-8.7-20-19.6-20.1
			C53.2,83.6,53.2,82.7,53.1,81.8z"/>
		<path class="st3" d="M69.4,104.6c-0.9,0-1.9,0-2.8,0.1c0.1-7.5-6.2-13.8-13.6-13.9c0-0.9,0-1.8,0-2.7
			C61.1,87.6,69.7,94.9,69.4,104.6z"/>
		<path class="st3" d="M50,107.4c-1.7-1.7-1.7-4.4,0-6c1.7-1.7,4.4-1.6,6,0c1.6,1.7,1.6,4.4,0,6C54.4,109.1,51.7,109.1,50,107.4z"/>
		<path class="st3" d="M53,96.8c0-1-0.1-1.9-0.1-2.8c5.2-0.2,10.5,4.4,10.4,10.4c-0.9,0-1.9,0-2.8,0C60.4,99.9,56.8,96.9,53,96.8z"
			/>
	</g>
	<g>
		<path class="st3" d="M99.7,85.2c-1,0-2,0-3,0c0-0.1-0.1-0.2-0.1-0.3c0.1-1.1,0.3-2.1,0.5-2.4c1,0,2,0,3.1,0
			c0.3-1.2,0.5-2.3,0.8-3.5c-0.2,0-0.3,0-0.4,0c-0.7,0-1.4,0-2.1,0c-0.1,0-0.3,0-0.4,0c-0.1-0.3,0-0.5,0-0.7c0.1-0.5,0.1-1,0.2-1.4
			c0.1-0.5,0.1-0.5,0.6-0.5c0.7,0,1.4,0,2.1,0c0.1,0,0.3,0,0.4,0c0.5-1.8,0.8-3.6,1.3-5.4c0.3-0.1,1.6-0.1,2.2,0c0,0.1,0,0.2,0,0.3
			c-0.2,1.1-0.5,2.2-0.7,3.2c-0.1,0.5-0.2,1.1-0.4,1.6c0,0.1,0,0.1,0,0.2c0.3,0.1,1.8,0.1,2.4,0c0.2-0.9,0.4-1.8,0.6-2.7
			c0.2-0.9,0.4-1.8,0.6-2.7c0.7,0,1.4,0,2.1,0c0.1,0.2,0.1,0.4,0,0.6c-0.4,1.6-0.7,3.1-1.1,4.7c0,0,0,0.1,0,0.1c0.1,0,0.2,0,0.3,0
			c0.8,0,1.5,0,2.3,0c0.1,0,0.3,0,0.4,0c0.2,0.3,0,0.6,0,0.9c0,0.3-0.1,0.6-0.1,0.9c-0.1,0.3,0,0.6-0.2,0.9c-1,0-2,0-3.1,0
			c-0.3,1.2-0.5,2.3-0.8,3.5c0.2,0,0.3,0,0.4,0c0.8,0,1.6,0,2.3,0c0.1,0,0.3,0,0.5,0.1c-0.1,0.9-0.3,1.7-0.4,2.6c-1.1,0-2.1,0-3.2,0
			c0,0.1-0.1,0.2-0.1,0.4c-0.4,1.6-0.7,3.2-1,4.8c0,0.2-0.1,0.3-0.2,0.4c-0.7,0-1.4,0-2.1,0c-0.1-0.1-0.1-0.3,0-0.4
			c0.3-1.6,0.7-3.2,1-4.8c0-0.1,0-0.2,0-0.3c-0.3-0.1-1.9-0.1-2.4,0c-0.4,1.8-0.8,3.7-1.3,5.5c-0.8,0-1.4,0-2.1,0
			c-0.1-0.1-0.1-0.3-0.1-0.4c0.3-1.1,0.5-2.3,0.8-3.4C99.4,86.5,99.6,85.9,99.7,85.2z M104.9,82.6c0.3-1.2,0.5-2.3,0.8-3.5
			c-0.8,0-1.6,0-2.5,0c-0.3,1.2-0.6,2.3-0.8,3.5C103.3,82.6,104.1,82.6,104.9,82.6z"/>
	</g>
	<g>
		<path class="st3" d="M108.5,113.4c-0.4,0-0.8,0-1.2,0c0,0-0.1,0-0.1,0c-0.3,0-0.7,0-1,0c-0.4,0-0.7,0-1.1-0.1
			c-0.4,0-0.9-0.1-1.3-0.1c-0.4,0-0.7-0.1-1.1-0.2c-0.3-0.1-0.7-0.1-1-0.2c-0.6-0.1-1.2-0.2-1.8-0.3c0,0,0,0-0.1,0
			c0-2.6,0-5.1,0-7.7c0.4,0,0.7-0.1,1-0.3c0.1-0.1,0.3-0.2,0.4-0.4c0.2-0.3,0.5-0.6,0.6-0.9c0.3-0.4,0.5-0.9,0.7-1.3
			c0.2-0.5,0.4-0.9,0.6-1.4c0.1-0.1,0.1-0.3,0.2-0.4c0.1-0.2,0.3-0.3,0.5-0.5c0.2-0.2,0.4-0.4,0.6-0.5c0.2-0.2,0.4-0.5,0.6-0.8
			c0.1-0.2,0.1-0.3,0.2-0.5c0.2-0.5,0.3-1.1,0.3-1.7c0-0.4,0.1-0.8,0.1-1.3c0,0,0-0.1,0-0.1c0.1-0.1,0.2-0.1,0.3-0.1
			c0.2,0,0.4,0,0.7,0.1c0.6,0.2,1.1,0.7,1.3,1.3c0.1,0.3,0.2,0.6,0.2,1c0,0.4,0,0.9-0.1,1.3c-0.1,0.5-0.3,0.9-0.6,1.4
			c-0.2,0.3-0.3,0.6-0.5,1c-0.1,0.1-0.1,0.3-0.2,0.4c-0.1,0.3-0.1,0.5-0.1,0.8c0,0.1,0,0.2,0,0.2c0,0,0,0,0,0
			c0.2,0.1,0.5,0.1,0.7,0.1c0.3,0,0.6,0,0.9,0c0.1,0,0.3,0,0.4,0c0.4,0,0.8,0,1.2,0c0.5,0,1,0,1.5,0.1c0.2,0,0.4,0.1,0.6,0.3
			c0,0,0.1,0.1,0.1,0.1c0.3,0.3,0.6,0.7,0.7,1.1c0,0.1,0.1,0.2,0.1,0.3c0,0,0,0.1,0,0.1c0,0,0,0,0,0c0,0.1-0.1,0.2-0.1,0.3
			c-0.1,0.1-0.2,0.2-0.2,0.4c-0.1,0.1-0.1,0.2-0.2,0.3c0,0.1-0.1,0.2-0.1,0.3c0,0.2,0.1,0.3,0.2,0.5c0,0.1,0.1,0.1,0.1,0.2
			c0.1,0.1,0.2,0.3,0.2,0.5c0,0.2,0,0.4-0.1,0.6c-0.1,0.2-0.2,0.3-0.4,0.5c0,0-0.1,0.1-0.1,0.1c-0.1,0.1-0.1,0.3-0.1,0.4
			c0,0.2,0.1,0.3,0.1,0.4c0.1,0.1,0.1,0.3,0.2,0.4c0,0.1,0.1,0.2,0,0.3c0,0.2-0.1,0.3-0.2,0.4c-0.2,0.2-0.3,0.3-0.5,0.5
			c-0.1,0.1-0.3,0.3-0.4,0.4c-0.1,0.2-0.2,0.4-0.1,0.6c0,0.1,0,0.3,0,0.4c-0.1,0.2-0.2,0.4-0.4,0.6c-0.2,0.3-0.5,0.5-0.8,0.7
			c0,0,0,0-0.1,0c-0.3,0.1-0.6,0.2-1,0.3c-0.3,0-0.6,0.1-0.8,0.1C108.5,113.3,108.5,113.3,108.5,113.4z"/>
		<path class="st3" d="M95.1,105c0,0,0-0.1,0-0.1c0.1-0.3,0.4-0.6,0.7-0.6c0.1,0,0.3,0,0.4,0c0.6,0,1.2,0,1.9,0
			c0.3,0,0.5,0.1,0.6,0.4c0.1,0.1,0.1,0.2,0.1,0.4c0,0,0,0,0,0c0,2.4,0,4.7,0,7.1c0,0.1,0,0.2-0.1,0.3c-0.1,0.3-0.4,0.4-0.7,0.4
			c-0.1,0-0.2,0-0.4,0c-0.6,0-1.2,0-1.9,0c-0.1,0-0.2,0-0.3-0.1c-0.2-0.1-0.4-0.3-0.5-0.6c0,0,0-0.1,0-0.1
			C95.1,109.8,95.1,107.4,95.1,105z"/>
	</g>
</g>
</svg>
