<?xml version="1.0" encoding="utf-8"?>
<!-- Generator: Adobe Illustrator 23.0.6, SVG Export Plug-In . SVG Version: 6.00 Build 0)  -->
<svg version="1.1" id="Layer_1" xmlns="http://www.w3.org/2000/svg" xmlns:xlink="http://www.w3.org/1999/xlink" x="0px" y="0px"
	 width="175px" height="175px" viewBox="0 0 175 175" style="enable-background:new 0 0 175 175;" xml:space="preserve">
<style type="text/css">
	.st0{fill:#005E8C;}
	.st1{fill:none;stroke:#F1F2F6;stroke-width:2.2552;stroke-miterlimit:10;}
</style>
<g>
	<path class="st0" d="M87.5,175L87.5,175C39.2,175,0,135.8,0,87.5v0C0,39.2,39.2,0,87.5,0h0C135.8,0,175,39.2,175,87.5v0
		C175,135.8,135.8,175,87.5,175z"/>
	<g>
		<path class="st1" d="M130.2,97.4c0,10.2-0.1,20.4,0.1,30.5c0,3.2-2.6,6.2-5.2,6.8c-4.4,1.1-8.7-2.2-8.7-6.8c0-13.3,0-26.5,0-39.8
			c0-7,0-14,0-21.1c0-3,1.3-5.3,4.1-6.6c5-2.3,9.8,2,9.7,5.9c0,4.6,0,9.2,0,13.7C130.2,85.9,130.2,91.7,130.2,97.4z"/>
		<path class="st1" d="M82.3,106.7c0,7.1,0,14.2,0,21.3c0,2.6-1.1,4.5-3.2,5.9c-2.9,2-8.1,1.1-9.9-2.8c-0.5-1-0.8-2.3-0.8-3.4
			c-0.1-14.1,0-28.1,0-42.2c0-2.8,1.2-4.9,3.4-6.4c2.2-1.4,4.6-1.4,6.9-0.2c2.2,1.1,3.5,2.9,3.5,5.4C82.4,91.8,82.3,99.3,82.3,106.7
			C82.3,106.7,82.3,106.7,82.3,106.7z"/>
		<path class="st1" d="M92.6,113.8c0-4.7,0.1-9.3,0-13.9c-0.1-3.1,2-6.5,6.4-7.2c2.4-0.3,5.6,1.6,6.6,4.1c0.5,1.1,0.8,2.2,0.8,3.4
			c0.1,9.2,0.1,18.4,0,27.7c0,4.7-3.9,8.1-9,6.9c-2.7-0.6-4.9-3.7-4.8-6C92.7,123.7,92.6,118.7,92.6,113.8
			C92.6,113.8,92.6,113.8,92.6,113.8z"/>
		<path class="st1" d="M44.8,113.7c0-4.7,0.1-9.3,0-14c-0.1-4.6,3.4-6.8,6.8-7c2.1-0.2,4,0.8,5.3,2.5c1.2,1.4,1.8,3,1.8,5
			c-0.1,9.2,0,18.3,0,27.5c0,5.2-4.7,8.5-9.6,6.7c-2.5-0.9-4.2-3.4-4.2-6.2C44.8,123.4,44.8,118.5,44.8,113.7z"/>
		<path class="st1" d="M103.6,74.7c0.1,0.4,0.1,0.7,0.2,1.1c0.8,3.1-0.8,5.8-3.9,6.3c-1.5,0.3-3.9-1.1-4.5-2.8
			c-0.4-0.9-0.6-1.8-0.9-2.9c-5.2-3.2-10.6-6.5-16-9.8c-2,0.8-3.8,1.5-5.5-0.2c-5.5,3.4-10.9,6.7-16.5,10.1c-0.1,3-1.5,5.1-4.8,5.6
			c-3.9-1.2-5.4-3.3-4.3-6.4c0.9-2.7,3.7-3.6,7.1-2.2c5.4-3.3,10.8-6.6,16.3-10c0.1-1.4,0.4-2.8,1.5-4c2.6-2.7,6.4-1.6,7.6,1.6
			c0.3,0.8,0.5,1.7,0.7,2.5c5.4,3.3,10.7,6.6,16,9.8c0.8-0.3,1.5-0.6,2.1-0.7c0.6-0.1,1.2-0.1,2-0.2c6.2-8.5,12.3-17,18.5-25.5
			c-1.2-5.1,0.6-7.4,5.9-7.1c0.4,0.3,0.9,0.7,1.3,1.2c0.4,0.4,0.8,0.9,1.2,1.3c1.1,3.7-1.1,6.9-5.4,6.6
			C116.1,57.6,109.8,66.1,103.6,74.7z"/>
	</g>
</g>
</svg>
