<?xml version="1.0" encoding="utf-8"?>
<!-- Generator: Adobe Illustrator 23.0.6, SVG Export Plug-In . SVG Version: 6.00 Build 0)  -->
<svg version="1.1" id="Layer_1" xmlns="http://www.w3.org/2000/svg" xmlns:xlink="http://www.w3.org/1999/xlink" x="0px" y="0px"
	 width="175px" height="175px" viewBox="0 0 175 175" style="enable-background:new 0 0 175 175;" xml:space="preserve">
<style type="text/css">
	.st0{fill:#005E8C;}
	.st1{fill:#F1F2F6;}
	.st2{fill:none;stroke:#F1F2F6;stroke-width:2;stroke-miterlimit:10;}
</style>
<g>
	<path class="st0" d="M87.5,175L87.5,175C39.2,175,0,135.8,0,87.5v0C0,39.2,39.2,0,87.5,0h0C135.8,0,175,39.2,175,87.5v0
		C175,135.8,135.8,175,87.5,175z"/>
	<g>
		<path class="st1" d="M51.1,127.9c0.7-2.4,1.3-4.8,2.3-7.1c3-6.6,8.3-10.9,15-13.3c12.9-4.5,26-4.5,38.8,0.3
			c8.5,3.2,14.3,9.3,16.3,18.4c0.2,1.1,0.4,2.3,0.3,3.4c-0.1,2.9-2,4.5-4.6,5.4c-21.1,0-42.3,0-63.4,0c-2.5-0.7-4.1-2.3-4.8-4.8
			C51.1,129.4,51.1,128.7,51.1,127.9z M87.7,131.2c9.9,0,19.7,0,29.6,0c2.3,0,3-0.8,2.7-3c-1.1-7.5-5.3-13-12.1-16
			c-13.5-5.9-27.3-5.9-40.8,0c-6.7,2.9-10.8,8.3-12.1,15.6c-0.4,2.5,0.2,3.4,2.8,3.4C67.8,131.2,77.7,131.2,87.7,131.2z"/>
		<path class="st1" d="M89.6,58.3c3,1,6.2,1.7,8.9,3.2c7.8,4.4,11.6,13.8,9.6,22.7c-2,8.8-9.7,15.4-18.7,16.1
			c-11.6,0.9-21.4-7.2-22.8-18.9c-1.2-11,6.7-21.1,17.9-22.8c0.3,0,0.5-0.2,0.8-0.3C86.7,58.3,88.1,58.3,89.6,58.3z M104.8,79.4
			c0-9.5-7.9-17.3-17.4-17.2c-9.4,0.1-17.2,8-17.2,17.3c0.1,9.4,7.9,17.2,17.3,17.3C97,96.8,104.9,88.8,104.8,79.4z"/>
	</g>
	<g>
		<path class="st2" d="M20.8,101.6c3.6,0.3,6.8-0.5,9.9-2.8c-1.5-0.3-2.9-0.7-4-1.6c-1.1-0.9-1.9-1.9-2.3-3.4c0.9,0,1.7,0,2.5,0
			c0-0.1,0-0.1,0.1-0.2c-3.1-1.2-4.9-3.4-5.1-6.9c1,0.3,1.8,0.5,2.7,0.8c0,0,0.1-0.1,0.1-0.1c-2.8-2.6-3.6-5.6-1.8-9.2
			c0.3,0.3,0.6,0.5,0.8,0.8c3.2,3.5,7.1,5.6,11.7,6.3c0.3,0.1,0.7,0.1,1,0.1c0.8,0.1,0.9,0,0.8-0.7c-0.4-3.3,1.7-6.5,4.8-7.4
			c2.6-0.8,4.9-0.3,7,1.4c0.4,0.3,0.7,0.4,1.1,0.3c1-0.4,2-0.7,2.9-1.1c0.2-0.1,0.4-0.2,0.8-0.4c-0.4,1.7-1.5,2.7-2.5,3.8
			c1.1-0.3,2.2-0.6,3.5-1c-0.4,0.5-0.6,0.9-0.9,1.2c-0.7,0.7-1.4,1.3-2,2c-0.3,0.3-0.5,0.7-0.5,1c-0.1,6.2-2.4,11.4-6.9,15.5
			c-2.9,2.7-6.5,4.1-10.4,4.6c-4.2,0.5-8.3-0.2-12.1-2.2c-0.4-0.2-0.9-0.5-1.3-0.7C20.8,101.8,20.8,101.7,20.8,101.6z"/>
	</g>
	<g>
		<path class="st2" d="M156.7,84.8c0,3.9,0,7.8,0,11.7c0,0.1-0.1,0.2-0.1,0.3c-0.7,3.9-3.6,6.3-7.5,6.3c-6.8,0-13.6,0-20.5,0
			c-3.2,0-6-2.1-6.9-5.1c-0.2-0.5-0.3-1-0.4-1.5c0-3.9,0-7.9,0-11.8c0.1-0.2,0.1-0.3,0.2-0.5c0.6-3.5,3.6-6.1,7.1-6.1
			c7,0,14,0,20.9,0c2.3,0,4.2,1,5.6,2.8C156.1,82,156.5,83.4,156.7,84.8z M134.1,90.5c0,1.5,0,2.9,0,4.4c0,0.8,0.2,0.9,1,0.6
			c3-1.4,6-2.8,9-4.3c0.2-0.1,0.5-0.3,0.5-0.6c0-0.1-0.3-0.4-0.5-0.5c-3-1.5-6-3.1-9-4.6c-0.7-0.4-1-0.2-1,0.6
			C134.1,87.7,134.1,89.1,134.1,90.5z"/>
	</g>
	<g>
		<g>
			<path class="st1" d="M55.6,28c0.5,0,1,0,1.3,0.1c0,0.1,0,0.3,0,0.5c-0.3,1.5-0.7,3-1,4.6c-0.2,0.8-0.3,1.5-0.5,2.3
				c0,0.1,0,0.1,0,0.2c0.2,0.1,1.1,0.1,1.9,0.1c0.6,0,1.1,0,1.5-0.1c0.3-1.3,0.6-2.5,0.8-3.8c0.3-1.3,0.5-2.5,0.9-3.8
				c0.5,0,1,0,1.5,0c0.5,0,1,0,1.5,0c0.1,0.3,0.1,0.6,0,0.8c-0.5,2.2-1,4.4-1.5,6.6c0,0,0,0.1,0,0.2c0.1,0,0.3,0,0.5,0
				c1.1,0,2.1,0,3.2,0c0.2,0,0.4,0,0.6,0c0.2,0.5,0,0.9,0,1.3c0,0.4-0.1,0.9-0.2,1.3c-0.1,0.4,0,0.8-0.3,1.2c-0.5,0-1,0-1.5,0
				c-0.5,0-1,0-1.5,0c-0.4,0-0.9,0-1.3,0c-0.4,1.6-0.7,3.2-1.1,4.9c0.2,0,0.4,0,0.5,0c0.3,0,0.6,0,0.9,0c0.2,0,0.5,0,0.7,0
				c0.5,0,1.1,0,1.6,0c0.2,0,0.4,0.1,0.6,0.1c-0.2,1.2-0.4,2.4-0.6,3.6c-1.5,0-3,0-4.5,0c-0.1,0.2-0.1,0.3-0.2,0.5
				c-0.5,2.3-1,4.5-1.5,6.8c0,0.2-0.1,0.4-0.2,0.6c-1,0-2,0-3,0c-0.2-0.2-0.1-0.4-0.1-0.5c0.5-2.3,1-4.5,1.5-6.8
				c0-0.1,0-0.3,0.1-0.4c-0.2-0.1-1.1-0.1-1.9-0.1c-0.6,0-1.2,0-1.5,0.1c-0.6,2.6-1.2,5.2-1.8,7.8c-1.1,0-2,0-3,0
				c-0.2-0.2-0.1-0.4-0.1-0.6c0.4-1.6,0.7-3.2,1.1-4.8c0.2-0.8,0.4-1.6,0.6-2.5c-1.5,0-2.8,0-4.2,0c0-0.2-0.1-0.3-0.1-0.4
				c0.1-1.5,0.4-3,0.7-3.4c1.4,0,2.8,0,4.3,0c0.4-1.6,0.7-3.3,1.1-4.9c-0.3,0-0.4,0-0.6,0c-0.2,0-0.5,0-0.7,0c-0.3,0-0.6,0-0.9,0
				c-0.4,0-0.9,0-1.3,0c-0.2,0-0.4,0-0.6-0.1c-0.1-0.4,0-0.7,0-1.1c0.1-0.7,0.2-1.3,0.3-2c0.1-0.7,0.2-0.7,0.8-0.7
				c0.4,0,0.8,0,1.3,0c0.6,0,1.1,0,1.7,0c0,0,0,0,0.1,0c0.2,0,0.4,0,0.6,0c0.7-2.5,1.2-5.1,1.8-7.6C54.2,28.1,54.9,28,55.6,28
				 M58.2,39.6c-1.2,0-2.3,0-3.4,0c-0.4,1.6-0.8,3.2-1.1,4.9c1.2,0,2.3,0,3.5,0C57.4,42.8,57.8,41.2,58.2,39.6 M55.6,26
				c-1,0-1.8,0.1-2.2,0.2l-1.1,0.3l-0.3,1.1c-0.3,1.2-0.6,2.5-0.9,3.7c-0.2,0.8-0.4,1.6-0.6,2.4l-0.8,0l-1.3,0
				c-1.6,0-2.5,0.8-2.8,2.4c-0.1,0.4-0.1,0.9-0.2,1.3c0,0.2-0.1,0.5-0.1,0.7c0,0,0,0.1,0,0.1c-0.1,0.4-0.2,1.1,0.1,1.9l0.4,1.1
				l1.2,0.1l0.1,0c0.2,0,0.4,0.1,0.7,0.1c0.4,0,0.7,0,1.1,0l0,0.2l-0.2,0.8h-2.7H45l-0.6,0.9c-0.6,1-0.9,3.3-1,4.3
				c0,0.5,0.1,0.8,0.1,1l0.4,1.5l1.6,0h1.7c0,0,0,0,0,0.1c-0.4,1.6-0.7,3.2-1.1,4.8c-0.3,1.3,0.3,2.1,0.7,2.5l0.6,0.5h0.8h3h1.6
				l0.3-1.2c0.1,0.3,0.3,0.5,0.5,0.7l0.6,0.6h0.8h3h1.4l0.5-1.3c0,0,0-0.1,0.1-0.1c0.1-0.2,0.2-0.4,0.2-0.7c0.3-1.3,0.6-2.5,0.8-3.8
				l0.4-1.9h3h1.7l0.3-1.7l0.6-3.6l0.3-2l-2-0.3c-0.1,0-0.1,0-0.2,0c-0.2,0-0.5-0.1-0.8-0.1c-0.4,0-0.9,0-1.3,0l0.2-1l0.4,0l0.8,0
				c0.5,0,1.1,0,1.6,0l1,0l0.6-0.8c0.5-0.7,0.6-1.4,0.7-1.8c0-0.1,0-0.1,0-0.2l0-0.1c0.1-0.4,0.2-0.9,0.2-1.4c0,0,0-0.1,0-0.1
				c0.1-0.4,0.3-1.3-0.2-2.3l-0.5-1l-1.1-0.1l-0.1,0c-0.2,0-0.4,0-0.6,0c-0.4,0-0.8,0-1.2,0c0.3-1.5,0.7-2.9,1-4.4
				c0.1-0.4,0.3-1.2-0.1-2.1l-0.5-1.1l-1.3,0c-0.5,0-1,0-1.5,0c-0.5,0-1,0-1.5,0l-1.5,0l-0.1,0.3v0l-1.8-0.2
				C56.6,26,55.9,26,55.6,26L55.6,26z"/>
		</g>
	</g>
	<g>
		<path class="st2" d="M119.4,52.9c-0.6,0-1.2,0-1.8,0c0,0-0.1,0-0.1,0c-0.5,0-1,0-1.5-0.1c-0.5,0-1,0-1.6-0.1
			c-0.6,0-1.3-0.1-1.9-0.2c-0.5-0.1-1-0.2-1.5-0.2c-0.5-0.1-1-0.2-1.4-0.3c-0.9-0.2-1.8-0.3-2.7-0.5c0,0-0.1,0-0.1,0
			c0-3.7,0-7.4,0-11.1c0.6,0.1,1-0.1,1.5-0.4c0.2-0.2,0.4-0.3,0.6-0.5c0.3-0.4,0.7-0.9,0.9-1.3c0.4-0.6,0.7-1.3,1-1.9
			c0.3-0.7,0.6-1.3,0.9-2c0.1-0.2,0.2-0.4,0.4-0.5c0.2-0.2,0.4-0.5,0.7-0.7c0.3-0.3,0.6-0.5,0.9-0.8c0.3-0.3,0.6-0.7,0.8-1.1
			c0.1-0.2,0.2-0.5,0.3-0.7c0.3-0.8,0.4-1.6,0.5-2.4c0.1-0.6,0.1-1.2,0.2-1.8c0,0,0-0.1,0.1-0.1c0.1-0.1,0.3-0.2,0.5-0.2
			c0.3,0,0.6,0,0.9,0.1c0.9,0.3,1.6,0.9,1.9,1.8c0.2,0.4,0.3,0.9,0.3,1.4c0.1,0.6,0,1.3-0.2,1.9c-0.2,0.7-0.4,1.4-0.8,2
			c-0.2,0.5-0.5,0.9-0.7,1.4c-0.1,0.2-0.2,0.4-0.2,0.6c-0.1,0.4-0.2,0.7-0.2,1.1c0,0.1,0,0.2,0.1,0.3c0,0,0,0,0,0
			c0.3,0.1,0.7,0.1,1.1,0.1c0.4,0,0.8,0,1.3-0.1c0.2,0,0.4,0,0.5,0c0.6,0,1.2,0,1.8,0c0.7,0,1.4,0.1,2.2,0.2
			c0.3,0.1,0.6,0.2,0.9,0.4c0.1,0,0.1,0.1,0.2,0.1c0.5,0.4,0.8,1,1,1.6c0.1,0.2,0.1,0.3,0.2,0.5c0,0,0,0.1,0,0.1c0,0,0,0,0,0
			c0,0.2-0.1,0.3-0.2,0.5c-0.1,0.2-0.2,0.4-0.3,0.5c-0.1,0.1-0.2,0.3-0.2,0.4c-0.1,0.1-0.1,0.2-0.1,0.4c0,0.3,0.1,0.5,0.3,0.7
			c0.1,0.1,0.1,0.1,0.2,0.2c0.2,0.2,0.3,0.4,0.3,0.7c0,0.3-0.1,0.6-0.2,0.9c-0.1,0.3-0.3,0.5-0.6,0.7c-0.1,0.1-0.1,0.1-0.2,0.2
			c-0.1,0.2-0.1,0.4-0.1,0.6c0,0.2,0.1,0.4,0.2,0.6c0.1,0.2,0.2,0.4,0.2,0.6c0.1,0.2,0.1,0.3,0.1,0.5c0,0.2-0.1,0.4-0.2,0.6
			c-0.2,0.2-0.4,0.5-0.7,0.7c-0.2,0.2-0.4,0.4-0.5,0.6c-0.2,0.3-0.2,0.6-0.2,0.9c0,0.2,0,0.4,0,0.6c-0.1,0.3-0.3,0.6-0.5,0.9
			c-0.3,0.4-0.8,0.7-1.2,1c0,0-0.1,0-0.1,0c-0.4,0.2-0.9,0.3-1.4,0.4c-0.4,0.1-0.8,0.1-1.2,0.1C119.5,52.9,119.4,52.9,119.4,52.9z"
			/>
		<path class="st2" d="M100.2,40.9c0-0.1,0-0.1,0-0.2c0.1-0.5,0.5-0.9,1-0.9c0.2,0,0.4,0,0.6,0c0.9,0,1.8,0,2.7,0
			c0.4,0,0.7,0.2,0.9,0.5c0.1,0.2,0.1,0.3,0.1,0.5c0,0,0,0,0,0.1c0,3.4,0,6.8,0,10.2c0,0.2,0,0.3-0.1,0.5c-0.2,0.4-0.5,0.6-1,0.6
			c-0.2,0-0.4,0-0.5,0c-0.9,0-1.8,0-2.7,0c-0.2,0-0.3,0-0.5-0.1c-0.4-0.2-0.6-0.4-0.7-0.8c0-0.1,0-0.1,0-0.2
			C100.2,47.8,100.2,44.3,100.2,40.9z"/>
	</g>
</g>
</svg>
