<?xml version="1.0" encoding="utf-8"?>
<!-- Generator: Adobe Illustrator 23.0.6, SVG Export Plug-In . SVG Version: 6.00 Build 0)  -->
<svg version="1.1" id="Layer_1" xmlns="http://www.w3.org/2000/svg" xmlns:xlink="http://www.w3.org/1999/xlink" x="0px" y="0px"
	 width="175px" height="175px" viewBox="0 0 175 175" style="enable-background:new 0 0 175 175;" xml:space="preserve">
<style type="text/css">
	.st0{fill:#005E8C;}
	.st1{fill:#F1F2F6;}
</style>
<g>
	<path class="st0" d="M87.5,175L87.5,175C39.2,175,0,135.8,0,87.5v0C0,39.2,39.2,0,87.5,0h0C135.8,0,175,39.2,175,87.5v0
		C175,135.8,135.8,175,87.5,175z"/>
	<g>
		<path class="st1" d="M78.8,143.1c0-10.8,0-21.6,0-32.4c0-7.5,0-14.9,0-22.4c0-0.4,0-0.8,0-1.2c5.8,0,11.6,0,17.4,0
			c0,0.3,0,0.6,0,0.9c0,18.3,0,36.5,0,54.8c0,0.1,0,0.2,0,0.3C90.4,143.1,84.6,143.1,78.8,143.1z M81.4,89.6c0,17.4,0,34.7,0,52.1
			c4.1,0,8.1,0,12.1,0c0-17.4,0-34.7,0-52.1C89.5,89.6,85.5,89.6,81.4,89.6z"/>
		<path class="st1" d="M106.4,143.1c0-0.5,0.1-0.9,0.1-1.4c0-12.8,0-25.6,0-38.4c0-0.4,0-0.9,0-1.4c5.8,0,11.6,0,17.5,0
			c0,0.4,0,0.8,0,1.2c0,12.9,0,25.7,0,38.6c0,0.4,0,0.9,0,1.3C118.1,143.1,112.2,143.1,106.4,143.1z M121.3,141.7
			c0-12.5,0-24.8,0-37.2c-4.1,0-8.1,0-12.2,0c0,12.4,0,24.8,0,37.2C113.2,141.7,117.2,141.7,121.3,141.7z"/>
		<path class="st1" d="M51.2,143.1c0-13.7,0-27.4,0-41.2c5.8,0,11.5,0,17.3,0c0,0.3,0.1,0.5,0.1,0.8c0,13.3,0,26.5,0,39.8
			c0,0.2,0,0.4-0.1,0.5C62.8,143.1,57,143.1,51.2,143.1z M65.9,141.7c0-12.5,0-24.8,0-37.2c-4.1,0-8.1,0-12.2,0
			c0,12.4,0,24.8,0,37.2C57.8,141.7,61.8,141.7,65.9,141.7z"/>
		<path class="st1" d="M115,51.1c-0.3,0.2-0.7,0.4-1,0.6c-4,3.9-8,7.8-12,11.6c-0.5,0.5-0.7,1-0.5,1.7c1.1,5.6,2.1,11.3,3.1,17
			c0,0.3,0,0.6,0.1,1c-2.5-1.3-4.8-2.5-7.2-3.8c-3-1.6-5.9-3.1-8.9-4.7c-0.6-0.3-1.1-0.4-1.8,0c-5,2.7-10,5.3-15,8
			c-0.3,0.2-0.7,0.3-1.2,0.6c0.6-3.5,1.2-6.9,1.8-10.2c0.5-2.6,0.9-5.2,1.4-7.8c0.1-0.7,0-1.2-0.6-1.7c-4.1-3.9-8.2-7.8-12.3-11.6
			c-0.3-0.3-0.6-0.4-1-0.7c0.1-0.1,0.1-0.2,0.2-0.3c1.9-0.3,3.8-0.5,5.6-0.8c4.2-0.6,8.3-1.1,12.5-1.7c0.6-0.1,0.9-0.4,1.2-0.9
			c2.3-4.9,4.7-9.8,7.1-14.6c0.2-0.3,0.6-0.8,0.9-0.8c0.3,0,0.8,0.4,0.9,0.8c2.4,4.8,4.7,9.7,7,14.5c0.3,0.6,0.6,0.9,1.3,1
			c5.7,0.7,11.5,1.5,17.2,2.3c0.3,0,0.5,0.1,0.8,0.2C114.8,50.9,114.9,51,115,51.1z M109.2,52.7c-0.3-0.1-0.5-0.1-0.6-0.1
			c-4.6-0.6-9.2-1.3-13.8-1.9c-0.6-0.1-0.9-0.3-1.2-0.9c-0.9-2-1.9-4-2.9-6c-1.1-2.3-2.2-4.6-3.4-7.1c-0.2,0.5-0.4,0.8-0.6,1.1
			c-1.9,4-3.8,7.9-5.7,11.9c-0.3,0.5-0.5,0.8-1.2,0.9c-2.5,0.3-5.1,0.7-7.6,1c-2.2,0.3-4.4,0.6-6.6,0.9c0,0.1-0.1,0.2-0.1,0.3
			c0.3,0.2,0.6,0.4,0.9,0.6c3.2,3.1,6.4,6.1,9.5,9.2c0.3,0.3,0.6,1,0.5,1.5c-0.2,1.8-0.6,3.5-0.9,5.2c-0.5,3-1.1,5.9-1.6,9.1
			c0.5-0.2,0.8-0.4,1.1-0.6c3.9-2.1,7.8-4.2,11.6-6.3c0.6-0.3,1.1-0.4,1.8,0c3.8,2.1,7.6,4.2,11.4,6.3c0.3,0.2,0.6,0.3,1,0.5
			c0-0.4,0-0.6-0.1-0.8c-0.8-4.4-1.6-8.8-2.4-13.2c-0.2-0.8,0-1.3,0.6-1.9C102.3,59.4,105.6,56.1,109.2,52.7z"/>
		<path class="st1" d="M123.3,69.7c-4.5-2.4-8.8-4.8-13.3-7.1c0.4-0.8,0.8-1.5,1.2-2.2c2.9,1.5,5.7,3,8.7,4.6c-0.4-2.1-0.7-4-1-5.9
			c-0.2-1.2-0.5-2.4-0.6-3.6c0-0.4,0.1-1,0.4-1.3c2.2-2.2,4.5-4.3,6.9-6.6c-1.3-0.2-2.3-0.4-3.4-0.6c-2-0.3-3.9-0.6-5.9-0.9
			c-0.7-0.1-1.1-0.4-1.3-1c-1.3-2.8-2.7-5.5-4.2-8.5c-1.5,3-2.9,5.9-4.3,8.9c-0.7-0.4-1.4-0.8-2.2-1.2c0.3-0.6,0.5-1.2,0.8-1.8
			c1.6-3.2,3.1-6.4,4.7-9.7c0.2-0.4,0.4-1.1,1-0.8c0.4,0.1,0.8,0.5,1,0.8c1.7,3.3,3.3,6.7,4.9,10c0.3,0.6,0.6,0.8,1.3,0.9
			c4.1,0.5,8.2,1.2,12.2,1.7c0.3,0,0.6,0.1,1.1,0.5c-0.3,0.2-0.7,0.4-1,0.6c-2.9,2.8-5.8,5.5-8.7,8.3c-0.5,0.5-0.7,1-0.5,1.7
			c0.8,4.2,1.5,8.3,2.3,12.5C123.3,69.2,123.3,69.3,123.3,69.7z"/>
		<path class="st1" d="M70.7,44.2c-0.8,0.4-1.5,0.8-2.2,1.2c-1.4-2.9-2.8-5.8-4.3-8.8c-0.6,1.3-1.2,2.3-1.7,3.4
			c-0.8,1.7-1.7,3.4-2.5,5.2c-0.3,0.6-0.6,0.9-1.3,0.9c-3,0.4-6.1,0.9-9.3,1.4c0.2,0.3,0.4,0.5,0.6,0.7c2.1,2,4.1,4,6.2,5.9
			c0.4,0.4,0.6,0.8,0.4,1.4c-0.6,2.7-1,5.5-1.5,8.2c-0.1,0.3-0.1,0.6-0.1,1.2c3-1.6,5.7-3,8.6-4.5c0.4,0.7,0.8,1.4,1.2,2.2
			c-4.4,2.4-8.7,4.7-13.3,7.2c0.3-1.7,0.5-3.1,0.8-4.5c0.5-3,1.1-5.9,1.6-8.8c0.1-0.7-0.1-1.1-0.6-1.5c-3-2.8-5.9-5.6-8.8-8.4
			c-0.3-0.2-0.6-0.4-0.9-0.6c0.1-0.1,0.1-0.2,0.2-0.3c2.4-0.4,4.8-0.7,7.3-1.1c2-0.3,4.1-0.6,6.1-0.9c0.4-0.1,0.8-0.5,1-0.8
			c1.7-3.3,3.3-6.7,5-10c0.2-0.4,0.7-0.8,1-0.8c0.3,0,0.7,0.4,0.9,0.8C67,36.5,68.8,40.3,70.7,44.2z"/>
	</g>
</g>
</svg>
