<?xml version="1.0" encoding="utf-8"?>
<!-- Generator: Adobe Illustrator 23.0.6, SVG Export Plug-In . SVG Version: 6.00 Build 0)  -->
<svg version="1.1" id="Layer_1" xmlns="http://www.w3.org/2000/svg" xmlns:xlink="http://www.w3.org/1999/xlink" x="0px" y="0px"
	 width="545.8px" height="57.5px" viewBox="0 0 545.8 57.5" style="enable-background:new 0 0 545.8 57.5;" xml:space="preserve">
<style type="text/css">
	.st0{fill:#1A1A1A;}
	.st1{fill:#F96731;}
	.st2{fill:#2B9AF3;}
</style>
<g>
	<g>
		<path class="st0" d="M35.5,46.1h-6l-5.8-20.3c-0.2-0.9-0.6-2.2-0.9-3.8s-0.6-2.8-0.7-3.5c-0.2,1-0.4,2.3-0.8,3.9
			C21,24,20.7,25.2,20.5,26l-5.6,20.2h-6l-4.4-17L0,12.2h5.7l4.9,19.8c0.8,3.2,1.3,6,1.6,8.4c0.2-1.3,0.4-2.8,0.8-4.4
			c0.3-1.6,0.6-2.9,0.9-3.9l5.5-19.8h5.5l5.7,19.9c0.5,1.8,1.1,4.6,1.7,8.3c0.2-2.2,0.8-5,1.7-8.5l4.8-19.7h5.6L35.5,46.1z"/>
		<path class="st0" d="M71.2,46.1h-5.5V30.3c0-2-0.4-3.5-1.2-4.4s-2.1-1.5-3.8-1.5c-2.3,0-4,0.7-5.1,2.1s-1.6,3.7-1.6,6.9v12.8h-5.5
			V10h5.5v9.2c0,1.5-0.1,3-0.3,4.7h0.3c0.7-1.2,1.8-2.2,3.1-2.9s2.9-1,4.6-1c6.2,0,9.3,3.1,9.3,9.4V46.1z"/>
		<path class="st0" d="M74.9,20.4h5.9L86.1,35c0.8,2.1,1.3,4,1.6,5.9h0.2c0.1-0.9,0.4-1.9,0.8-3.1c0.4-1.2,2.3-7,5.9-17.3h5.9
			l-11,29.1c-2,5.3-5.3,8-10,8c-1.2,0-2.4-0.1-3.5-0.4v-4.3c0.8,0.2,1.8,0.3,2.8,0.3c2.6,0,4.5-1.5,5.6-4.6l1-2.4L74.9,20.4z"/>
		<path class="st0" d="M416.7,36.9c0,3-1.1,5.4-3.3,7.1c-2.2,1.7-5.2,2.6-9,2.6s-7-0.6-9.4-1.8v-5.2c1.5,0.7,3.2,1.3,4.9,1.7
			c1.7,0.4,3.4,0.6,4.9,0.6c2.2,0,3.8-0.4,4.9-1.3c1-0.8,1.6-2,1.6-3.4c0-1.3-0.5-2.3-1.4-3.2c-1-0.9-2.9-1.9-5.9-3.1
			c-3.1-1.3-5.3-2.7-6.5-4.3c-1.3-1.6-1.9-3.5-1.9-5.8c0-2.8,1-5.1,3-6.7s4.7-2.4,8.1-2.4c3.3,0,6.5,0.7,9.7,2.1l-1.8,4.5
			c-3-1.3-5.7-1.9-8.1-1.9c-1.8,0-3.2,0.4-4.1,1.2c-0.9,0.8-1.4,1.8-1.4,3.1c0,0.9,0.2,1.6,0.6,2.3c0.4,0.6,1,1.2,1.8,1.8
			c0.9,0.6,2.4,1.3,4.6,2.2c2.5,1,4.3,2,5.5,2.9c1.2,0.9,2,1.9,2.6,3C416.4,34,416.7,35.4,416.7,36.9z"/>
		<path class="st0" d="M445.4,33.2c0,4.2-1.1,7.5-3.2,9.8s-5.1,3.5-9,3.5c-2.4,0-4.5-0.5-6.4-1.6s-3.3-2.6-4.3-4.7
			c-1-2-1.5-4.4-1.5-7.1c0-4.2,1.1-7.4,3.2-9.8c2.1-2.3,5.1-3.5,9-3.5c3.7,0,6.7,1.2,8.8,3.6C444.3,25.9,445.4,29.2,445.4,33.2z
			 M426.7,33.2c0,5.9,2.2,8.9,6.6,8.9c4.3,0,6.5-3,6.5-8.9c0-5.9-2.2-8.8-6.5-8.8c-2.3,0-4,0.8-5,2.3
			C427.2,28.2,426.7,30.4,426.7,33.2z"/>
		<path class="st0" d="M462.1,46.6c-3.9,0-6.8-1.1-8.9-3.4c-2-2.3-3-5.5-3-9.8c0-4.3,1.1-7.6,3.2-10c2.1-2.3,5.2-3.5,9.2-3.5
			c2.7,0,5.1,0.5,7.3,1.5l-1.6,4.4c-2.3-0.9-4.2-1.3-5.7-1.3c-4.4,0-6.7,2.9-6.7,8.8c0,2.9,0.6,5,1.7,6.5c1.1,1.4,2.7,2.2,4.9,2.2
			c2.4,0,4.7-0.6,6.9-1.8V45c-1,0.6-2,1-3.1,1.2C465,46.5,463.6,46.6,462.1,46.6z"/>
		<path class="st0" d="M474.9,13.6c0-1,0.3-1.7,0.8-2.3s1.3-0.8,2.3-0.8c1,0,1.7,0.3,2.2,0.8s0.8,1.3,0.8,2.3c0,0.9-0.3,1.7-0.8,2.2
			c-0.5,0.5-1.3,0.8-2.2,0.8c-1,0-1.8-0.3-2.3-0.8C475.2,15.3,474.9,14.6,474.9,13.6z M480.7,46.1h-5.5V20.4h5.5V46.1z"/>
		<path class="st0" d="M504.6,46.1l-1.1-3.6h-0.2c-1.2,1.6-2.5,2.6-3.7,3.2c-1.3,0.6-2.9,0.8-4.8,0.8c-2.5,0-4.5-0.7-5.9-2
			c-1.4-1.4-2.1-3.3-2.1-5.8c0-2.6,1-4.6,3-6c2-1.3,5-2.1,9-2.2l4.4-0.1V29c0-1.6-0.4-2.9-1.1-3.7c-0.8-0.8-2-1.2-3.6-1.2
			c-1.3,0-2.6,0.2-3.8,0.6c-1.2,0.4-2.4,0.8-3.5,1.4l-1.8-3.9c1.4-0.7,2.9-1.3,4.6-1.7c1.7-0.4,3.2-0.6,4.7-0.6
			c3.3,0,5.7,0.7,7.4,2.1c1.7,1.4,2.5,3.7,2.5,6.7v17.3H504.6z M496.5,42.4c2,0,3.6-0.6,4.8-1.7c1.2-1.1,1.8-2.7,1.8-4.7v-2.2
			l-3.3,0.1c-2.6,0.1-4.4,0.5-5.6,1.3c-1.2,0.8-1.8,1.9-1.8,3.5c0,1.1,0.3,2,1,2.7C494.1,42.1,495.1,42.4,496.5,42.4z"/>
		<path class="st0" d="M521.6,46.1h-5.5V10h5.5V46.1z"/>
		<path class="st0" d="M532,35.8v-1.5c0-1.7,0.3-3.1,0.9-4.3c0.6-1.1,1.7-2.3,3.3-3.5c1.8-1.5,3-2.6,3.6-3.4
			c0.5-0.8,0.8-1.8,0.8-2.9c0-1.3-0.4-2.3-1.3-3c-0.9-0.7-2.1-1-3.7-1c-1.5,0-2.8,0.2-4.1,0.6s-2.5,0.9-3.7,1.5l-2-4.1
			c3.1-1.7,6.5-2.6,10.1-2.6c3,0,5.4,0.7,7.2,2.2s2.7,3.5,2.7,6.2c0,1.2-0.2,2.2-0.5,3.1c-0.3,0.9-0.9,1.8-1.5,2.6
			c-0.7,0.8-1.9,1.9-3.6,3.2c-1.4,1.1-2.4,2.1-2.9,2.8c-0.5,0.7-0.7,1.7-0.7,3v1H532z M531.1,43.2c0-2.3,1.1-3.5,3.4-3.5
			c1.1,0,2,0.3,2.6,0.9c0.6,0.6,0.9,1.5,0.9,2.6c0,1.1-0.3,2-0.9,2.6c-0.6,0.6-1.4,1-2.5,1s-1.9-0.3-2.5-0.9
			C531.4,45.2,531.1,44.3,531.1,43.2z"/>
	</g>
	<g>
		<g>
			<g>
				<g>
					<g>
						<path class="st0" d="M124.1,47.2v-47h5.8V27l13.7-13.8h7.5l-13,12.6l14.3,21.4h-7.1l-11.2-17.4l-4.1,3.9v13.5H124.1z"/>
						<path class="st0" d="M193.4,47.2v-34h5.2V18c2.5-3.7,6.1-5.6,10.8-5.6c2.1,0,3.9,0.4,5.7,1.1c1.7,0.7,3,1.7,3.9,2.9
							c0.9,1.2,1.5,2.6,1.8,4.3c0.2,1.1,0.3,2.9,0.3,5.6v20.9h-5.8V26.5c0-2.3-0.2-4.1-0.7-5.3c-0.4-1.2-1.2-2.1-2.4-2.8
							c-1.1-0.7-2.5-1-4-1c-2.5,0-4.6,0.8-6.4,2.3c-1.8,1.6-2.7,4.5-2.7,8.9v18.6H193.4z"/>
						<path class="st0" d="M253.2,36.3l6,0.7c-0.9,3.5-2.7,6.2-5.2,8.1c-2.5,1.9-5.8,2.9-9.7,2.9c-5,0-8.9-1.5-11.8-4.6
							c-2.9-3.1-4.4-7.4-4.4-12.9c0-5.7,1.5-10.2,4.4-13.3c2.9-3.2,6.8-4.7,11.5-4.7c4.6,0,8.3,1.5,11.2,4.6
							c2.9,3.1,4.3,7.5,4.3,13.1c0,0.3,0,0.9,0,1.5h-25.4c0.2,3.7,1.3,6.6,3.2,8.6c1.9,2,4.3,3,7.1,3c2.1,0,3.9-0.6,5.4-1.7
							C251.1,40.5,252.3,38.7,253.2,36.3z M234.2,26.9h19c-0.3-2.9-1-5-2.2-6.4c-1.8-2.2-4.2-3.3-7.1-3.3c-2.6,0-4.9,0.9-6.7,2.7
							C235.4,21.6,234.4,24,234.2,26.9z"/>
						<path class="st0" d="M288.6,34.8l5.7,0.7c-0.6,3.9-2.2,7-4.8,9.2c-2.6,2.2-5.7,3.3-9.4,3.3c-4.7,0-8.4-1.5-11.2-4.6
							c-2.8-3-4.2-7.4-4.2-13.1c0-3.7,0.6-6.9,1.8-9.6s3.1-4.8,5.6-6.2c2.5-1.4,5.2-2.1,8.1-2.1c3.7,0,6.7,0.9,9.1,2.8
							c2.3,1.9,3.9,4.5,4.5,8l-5.6,0.9c-0.5-2.3-1.5-4-2.8-5.2c-1.4-1.2-3-1.7-4.9-1.7c-2.9,0-5.3,1-7.1,3.1
							c-1.8,2.1-2.7,5.4-2.7,9.9c0,4.6,0.9,7.9,2.6,10c1.8,2.1,4,3.1,6.9,3.1c2.3,0,4.2-0.7,5.7-2.1
							C287.2,39.8,288.2,37.6,288.6,34.8z"/>
						<path class="st0" d="M311.8,42.1l0.8,5.1c-1.6,0.3-3.1,0.5-4.4,0.5c-2.1,0-3.7-0.3-4.9-1c-1.2-0.7-2-1.5-2.4-2.6
							c-0.5-1.1-0.7-3.3-0.7-6.8V17.7H296v-4.5h4.2V4.8l5.7-3.5v11.9h5.8v4.5H306v19.9c0,1.6,0.1,2.7,0.3,3.2c0.2,0.5,0.5,0.8,1,1.1
							c0.5,0.3,1.1,0.4,2,0.4C309.9,42.3,310.7,42.2,311.8,42.1z"/>
						<path class="st0" d="M339.6,43c-2.1,1.8-4.2,3.1-6.2,3.8c-2,0.7-4.1,1.1-6.4,1.1c-3.7,0-6.6-0.9-8.6-2.7c-2-1.8-3-4.2-3-7
							c0-1.7,0.4-3.2,1.1-4.6c0.8-1.4,1.8-2.5,3-3.3c1.2-0.8,2.6-1.5,4.1-1.9c1.1-0.3,2.8-0.6,5.1-0.9c4.7-0.6,8.1-1.2,10.3-2
							c0-0.8,0-1.3,0-1.5c0-2.3-0.5-4-1.6-5c-1.5-1.3-3.7-2-6.6-2c-2.7,0-4.7,0.5-6,1.4c-1.3,1-2.2,2.6-2.9,5l-5.6-0.8
							c0.5-2.4,1.4-4.4,2.5-5.8c1.2-1.5,2.9-2.6,5.1-3.4c2.2-0.8,4.8-1.2,7.7-1.2c2.9,0,5.3,0.3,7.1,1c1.8,0.7,3.2,1.5,4,2.6
							c0.9,1,1.5,2.3,1.8,3.9c0.2,1,0.3,2.8,0.3,5.3V33c0,5.4,0.1,8.8,0.4,10.2c0.2,1.4,0.7,2.8,1.5,4.1h-6
							C340.2,46,339.8,44.6,339.6,43z M339.1,30.1c-2.1,0.9-5.2,1.6-9.4,2.2c-2.4,0.3-4,0.7-5,1.2c-1,0.4-1.7,1.1-2.3,1.9
							c-0.5,0.8-0.8,1.7-0.8,2.7c0,1.5,0.6,2.8,1.7,3.8c1.2,1,2.9,1.5,5.1,1.5c2.2,0,4.2-0.5,5.9-1.5c1.7-1,3-2.3,3.8-4
							c0.6-1.3,0.9-3.2,0.9-5.8V30.1z"/>
						<path class="st0" d="M353.9,47.2v-34h5.2v5.2c1.3-2.4,2.5-4,3.7-4.8c1.1-0.8,2.4-1.2,3.7-1.2c1.9,0,3.9,0.6,5.9,1.9l-2,5.4
							c-1.4-0.8-2.8-1.2-4.2-1.2c-1.3,0-2.4,0.4-3.4,1.1c-1,0.8-1.7,1.8-2.1,3.2c-0.6,2.1-1,4.3-1,6.7v17.8H353.9z"/>
						<g>
							<circle class="st1" cx="170.6" cy="44" r="3.2"/>
							<circle class="st1" cx="170.6" cy="15.7" r="3.2"/>
							<path class="st2" d="M167.4,40.4c-4.6-1.4-7.9-5.6-7.9-10.6c0-5,3.3-9.2,7.9-10.6c-1-0.9-1.6-2.1-1.6-3.5
								c0-0.9,0.3-1.7,0.7-2.5c0,0,0,0,0,0c-7.5,1.8-13,8.6-13,16.6c0,8,5.5,14.8,13,16.6c0,0,0,0,0,0c-0.4-0.7-0.7-1.6-0.7-2.5
								C165.9,42.6,166.5,41.3,167.4,40.4z"/>
							<path class="st2" d="M174.7,13.2c0.4,0.7,0.7,1.6,0.7,2.5c0,1.4-0.6,2.7-1.6,3.5c4.6,1.4,7.9,5.6,7.9,10.6
								c0,5-3.3,9.2-7.9,10.6c1,0.9,1.6,2.1,1.6,3.5c0,0.9-0.3,1.7-0.7,2.5c7.5-1.8,13-8.6,13-16.6C187.8,21.8,182.2,15,174.7,13.2z
								"/>
						</g>
					</g>
				</g>
			</g>
			<g>
				<path class="st0" d="M383.2,5.6c0,3.2-2.5,5.7-5.8,5.7c-3.2,0-5.8-2.5-5.8-5.7c0-3.1,2.6-5.6,5.8-5.6
					C380.7,0,383.2,2.5,383.2,5.6z M373.1,5.6c0,2.5,1.9,4.5,4.4,4.5c2.5,0,4.3-2,4.3-4.5c0-2.5-1.8-4.5-4.3-4.5
					C374.9,1.1,373.1,3.2,373.1,5.6z M376.5,8.6h-1.3V2.9c0.5-0.1,1.2-0.2,2.2-0.2c1.1,0,1.5,0.2,2,0.4c0.3,0.2,0.5,0.7,0.5,1.2
					c0,0.6-0.5,1.1-1.2,1.3v0.1c0.5,0.2,0.9,0.6,1,1.4c0.2,0.9,0.3,1.2,0.4,1.4h-1.4c-0.2-0.2-0.3-0.7-0.4-1.4
					c-0.1-0.6-0.4-0.9-1.2-0.9h-0.6V8.6z M376.6,5.4h0.6c0.7,0,1.3-0.2,1.3-0.8c0-0.5-0.4-0.9-1.2-0.9c-0.3,0-0.6,0-0.7,0.1V5.4z"/>
			</g>
		</g>
	</g>
</g>
</svg>
