<?xml version="1.0" encoding="utf-8"?>
<!-- Generator: Adobe Illustrator 23.0.6, SVG Export Plug-In . SVG Version: 6.00 Build 0)  -->
<svg version="1.1" id="Layer_1" xmlns="http://www.w3.org/2000/svg" xmlns:xlink="http://www.w3.org/1999/xlink" x="0px" y="0px"
	 width="382px" height="36.7px" viewBox="0 0 382 36.7" style="enable-background:new 0 0 382 36.7;" xml:space="preserve">
<style type="text/css">
	.st0{fill:#205F7F;}
	.st1{fill:#F96731;}
	.st2{fill:#2B9AF3;}
</style>
<g>
	<g>
		<g>
			<path class="st0" d="M222.7,22.9c0,2-0.2,3.8-0.7,5.4c-0.5,1.6-1.2,3-2.1,4.1c-0.9,1.1-2.1,2-3.5,2.6c-1.4,0.6-3.1,0.9-5,0.9
				c-1.9,0-3.5-0.3-4.8-0.8c-1.4-0.6-2.5-1.4-3.4-2.4c-0.9-1.1-1.6-2.4-2-4c-0.4-1.6-0.7-3.4-0.7-5.4c0-2,0.2-3.7,0.7-5.3
				c0.5-1.6,1.2-3,2.1-4.1c0.9-1.1,2.1-2,3.6-2.6c1.4-0.6,3.1-0.9,5-0.9c1.8,0,3.4,0.3,4.8,0.8c1.4,0.6,2.5,1.4,3.4,2.4
				c0.9,1.1,1.6,2.4,2,3.9C222.5,19.1,222.7,20.9,222.7,22.9z M219.2,23.1c0-1.4-0.1-2.7-0.4-3.9c-0.2-1.2-0.7-2.3-1.2-3.1
				c-0.6-0.9-1.4-1.6-2.3-2.1c-1-0.5-2.2-0.7-3.6-0.7s-2.6,0.3-3.6,0.8c-1,0.5-1.8,1.3-2.4,2.2c-0.6,0.9-1,1.9-1.3,3.1
				c-0.3,1.2-0.4,2.5-0.4,3.8c0,1.5,0.1,2.8,0.4,4c0.2,1.2,0.7,2.3,1.2,3.2c0.6,0.9,1.3,1.6,2.3,2.1c1,0.5,2.2,0.7,3.6,0.7
				c1.4,0,2.7-0.3,3.6-0.8c1-0.5,1.8-1.3,2.4-2.2c0.6-0.9,1-2,1.3-3.2C219.1,25.7,219.2,24.4,219.2,23.1z"/>
			<path class="st0" d="M246.7,34.2c0,0.3,0,0.5-0.1,0.7c-0.1,0.2-0.2,0.3-0.3,0.4c-0.1,0.1-0.3,0.2-0.5,0.2
				c-0.2,0.1-0.3,0.1-0.5,0.1h-1.1c-0.3,0-0.6,0-0.9-0.1c-0.3-0.1-0.5-0.2-0.7-0.4c-0.2-0.2-0.5-0.4-0.7-0.8
				c-0.2-0.3-0.5-0.7-0.7-1.2L233.5,19c-0.4-0.7-0.8-1.5-1.2-2.3s-0.8-1.6-1.1-2.3h0c0,0.9,0,1.9,0.1,2.8c0,1,0,1.9,0,2.9v15
				c0,0.1,0,0.2-0.1,0.3c-0.1,0.1-0.1,0.1-0.3,0.2c-0.1,0-0.3,0.1-0.5,0.1c-0.2,0-0.5,0-0.8,0c-0.3,0-0.6,0-0.8,0
				c-0.2,0-0.4-0.1-0.5-0.1s-0.2-0.1-0.3-0.2c-0.1-0.1-0.1-0.2-0.1-0.3V12.2c0-0.5,0.1-0.9,0.4-1.1c0.3-0.2,0.6-0.3,1-0.3h1.6
				c0.4,0,0.7,0,1,0.1c0.3,0.1,0.5,0.2,0.7,0.3c0.2,0.1,0.4,0.4,0.6,0.6c0.2,0.3,0.4,0.6,0.6,1l5.8,10.9c0.4,0.7,0.7,1.3,1,1.9
				c0.3,0.6,0.7,1.3,1,1.9c0.3,0.6,0.6,1.2,0.9,1.8c0.3,0.6,0.6,1.2,0.9,1.8h0c0-1,0-2.1,0-3.2c0-1.1,0-2.1,0-3.2V11.3
				c0-0.1,0-0.2,0.1-0.2c0.1-0.1,0.1-0.1,0.3-0.2c0.1-0.1,0.3-0.1,0.5-0.1c0.2,0,0.5,0,0.8,0c0.3,0,0.6,0,0.8,0
				c0.2,0,0.4,0.1,0.5,0.1c0.1,0.1,0.2,0.1,0.3,0.2c0.1,0.1,0.1,0.2,0.1,0.2V34.2z"/>
			<path class="st0" d="M269.9,32.1c0,0.2,0,0.4,0,0.5c0,0.2,0,0.3-0.1,0.4c0,0.1-0.1,0.2-0.1,0.3c-0.1,0.1-0.1,0.2-0.3,0.3
				c-0.1,0.1-0.4,0.3-0.8,0.6c-0.4,0.3-0.9,0.5-1.5,0.8c-0.6,0.2-1.3,0.5-2.1,0.6c-0.8,0.2-1.6,0.3-2.6,0.3c-1.6,0-3.1-0.3-4.4-0.8
				c-1.3-0.5-2.4-1.3-3.3-2.4c-0.9-1-1.6-2.3-2.1-3.9c-0.5-1.5-0.7-3.3-0.7-5.3c0-2.1,0.3-3.9,0.8-5.5c0.5-1.6,1.3-3,2.2-4.1
				c1-1.1,2.1-2,3.4-2.6c1.3-0.6,2.8-0.9,4.4-0.9c0.7,0,1.4,0.1,2.1,0.2c0.7,0.1,1.3,0.3,1.9,0.5c0.6,0.2,1.1,0.4,1.5,0.7
				c0.4,0.3,0.8,0.5,0.9,0.7c0.2,0.2,0.3,0.3,0.3,0.4c0.1,0.1,0.1,0.2,0.1,0.3c0,0.1,0.1,0.3,0.1,0.4c0,0.2,0,0.4,0,0.6
				c0,0.3,0,0.5,0,0.7c0,0.2-0.1,0.3-0.1,0.5c-0.1,0.1-0.1,0.2-0.2,0.3c-0.1,0.1-0.2,0.1-0.3,0.1c-0.2,0-0.4-0.1-0.8-0.4
				c-0.3-0.2-0.7-0.5-1.2-0.8c-0.5-0.3-1.1-0.6-1.9-0.8c-0.7-0.2-1.6-0.4-2.6-0.4c-1.1,0-2.1,0.2-3,0.7c-0.9,0.4-1.7,1.1-2.3,1.9
				s-1.1,1.9-1.5,3.1c-0.4,1.2-0.5,2.6-0.5,4.2c0,1.6,0.2,3,0.5,4.2c0.3,1.2,0.8,2.2,1.5,3c0.6,0.8,1.4,1.4,2.3,1.8
				c0.9,0.4,2,0.6,3.1,0.6c1,0,1.9-0.1,2.6-0.4c0.7-0.2,1.4-0.5,1.9-0.8c0.5-0.3,0.9-0.6,1.3-0.8s0.6-0.4,0.8-0.4
				c0.1,0,0.2,0,0.2,0.1c0.1,0,0.1,0.1,0.2,0.2s0.1,0.3,0.1,0.5S269.9,31.8,269.9,32.1z"/>
			<path class="st0" d="M294.8,22.9c0,2-0.2,3.8-0.7,5.4c-0.5,1.6-1.2,3-2.1,4.1c-0.9,1.1-2.1,2-3.5,2.6c-1.4,0.6-3.1,0.9-5,0.9
				c-1.9,0-3.5-0.3-4.8-0.8c-1.4-0.6-2.5-1.4-3.4-2.4c-0.9-1.1-1.6-2.4-2-4c-0.4-1.6-0.7-3.4-0.7-5.4c0-2,0.2-3.7,0.7-5.3
				c0.5-1.6,1.2-3,2.1-4.1c0.9-1.1,2.1-2,3.6-2.6c1.4-0.6,3.1-0.9,5-0.9c1.8,0,3.4,0.3,4.8,0.8s2.5,1.4,3.4,2.4
				c0.9,1.1,1.6,2.4,2,3.9C294.6,19.1,294.8,20.9,294.8,22.9z M291.3,23.1c0-1.4-0.1-2.7-0.4-3.9c-0.2-1.2-0.7-2.3-1.2-3.1
				c-0.6-0.9-1.4-1.6-2.3-2.1c-1-0.5-2.2-0.7-3.6-0.7s-2.6,0.3-3.6,0.8c-1,0.5-1.8,1.3-2.4,2.2c-0.6,0.9-1,1.9-1.3,3.1
				c-0.3,1.2-0.4,2.5-0.4,3.8c0,1.5,0.1,2.8,0.4,4c0.2,1.2,0.7,2.3,1.2,3.2c0.6,0.9,1.3,1.6,2.3,2.1c1,0.5,2.2,0.7,3.6,0.7
				c1.4,0,2.7-0.3,3.6-0.8c1-0.5,1.8-1.3,2.4-2.2c0.6-0.9,1-2,1.3-3.2C291.2,25.7,291.3,24.4,291.3,23.1z"/>
			<path class="st0" d="M312.9,34.1c0,0.3,0,0.5,0,0.6c0,0.2-0.1,0.3-0.1,0.4c-0.1,0.1-0.1,0.2-0.2,0.3s-0.2,0.1-0.3,0.1h-11
				c-0.3,0-0.6-0.1-0.8-0.3c-0.3-0.2-0.4-0.5-0.4-1v-23c0-0.1,0-0.2,0.1-0.3c0.1-0.1,0.1-0.1,0.3-0.2c0.1,0,0.3-0.1,0.5-0.1
				c0.2,0,0.5,0,0.8,0c0.3,0,0.6,0,0.8,0c0.2,0,0.4,0.1,0.5,0.1c0.1,0,0.2,0.1,0.3,0.2c0.1,0.1,0.1,0.2,0.1,0.3v21.5h8.9
				c0.1,0,0.2,0,0.3,0.1c0.1,0.1,0.2,0.1,0.2,0.2c0.1,0.1,0.1,0.3,0.1,0.4C312.9,33.7,312.9,33.9,312.9,34.1z"/>
			<path class="st0" d="M336.5,22.9c0,2-0.2,3.8-0.7,5.4c-0.5,1.6-1.2,3-2.1,4.1c-0.9,1.1-2.1,2-3.5,2.6c-1.4,0.6-3.1,0.9-5,0.9
				c-1.9,0-3.5-0.3-4.8-0.8c-1.4-0.6-2.5-1.4-3.4-2.4c-0.9-1.1-1.6-2.4-2-4c-0.4-1.6-0.7-3.4-0.7-5.4c0-2,0.2-3.7,0.7-5.3
				c0.5-1.6,1.2-3,2.1-4.1c0.9-1.1,2.1-2,3.6-2.6c1.4-0.6,3.1-0.9,5-0.9c1.8,0,3.4,0.3,4.8,0.8c1.4,0.6,2.5,1.4,3.4,2.4
				c0.9,1.1,1.6,2.4,2,3.9C336.3,19.1,336.5,20.9,336.5,22.9z M333,23.1c0-1.4-0.1-2.7-0.4-3.9c-0.2-1.2-0.7-2.3-1.2-3.1
				c-0.6-0.9-1.4-1.6-2.3-2.1c-1-0.5-2.2-0.7-3.6-0.7c-1.4,0-2.6,0.3-3.6,0.8c-1,0.5-1.8,1.3-2.4,2.2c-0.6,0.9-1,1.9-1.3,3.1
				c-0.3,1.2-0.4,2.5-0.4,3.8c0,1.5,0.1,2.8,0.4,4c0.2,1.2,0.7,2.3,1.2,3.2c0.6,0.9,1.3,1.6,2.3,2.1c1,0.5,2.2,0.7,3.6,0.7
				c1.4,0,2.7-0.3,3.6-0.8c1-0.5,1.8-1.3,2.4-2.2c0.6-0.9,1-2,1.3-3.2C332.9,25.7,333,24.4,333,23.1z"/>
			<path class="st0" d="M360.4,14.1c0,0.2,0,0.5,0,0.6c0,0.2-0.1,0.3-0.1,0.5c-0.1,0.1-0.1,0.2-0.2,0.3c-0.1,0.1-0.2,0.1-0.2,0.1
				c-0.2,0-0.4-0.1-0.8-0.4s-0.8-0.5-1.4-0.8c-0.6-0.3-1.3-0.6-2.2-0.8c-0.8-0.2-1.8-0.4-3-0.4c-1.4,0-2.6,0.2-3.7,0.7
				c-1.1,0.5-2,1.2-2.8,2.1s-1.3,1.9-1.7,3.2c-0.4,1.2-0.6,2.5-0.6,4c0,1.6,0.2,3,0.7,4.2c0.4,1.2,1.1,2.3,1.8,3.1
				c0.8,0.8,1.7,1.5,2.8,1.9c1.1,0.4,2.3,0.7,3.6,0.7c0.8,0,1.5-0.1,2.3-0.3c0.8-0.2,1.5-0.5,2.2-0.8v-7.2h-5.8
				c-0.2,0-0.4-0.1-0.5-0.3c-0.1-0.2-0.2-0.6-0.2-1c0-0.2,0-0.5,0-0.6c0-0.2,0.1-0.3,0.1-0.4c0.1-0.1,0.1-0.2,0.2-0.2
				c0.1-0.1,0.2-0.1,0.3-0.1h7.9c0.1,0,0.3,0,0.4,0.1c0.1,0.1,0.3,0.1,0.4,0.2c0.1,0.1,0.2,0.2,0.3,0.4c0.1,0.2,0.1,0.4,0.1,0.6v9.5
				c0,0.3-0.1,0.6-0.2,0.9c-0.1,0.2-0.4,0.5-0.7,0.6c-0.4,0.2-0.9,0.4-1.4,0.6c-0.6,0.2-1.2,0.4-1.8,0.6c-0.6,0.2-1.3,0.3-1.9,0.3
				c-0.6,0.1-1.3,0.1-1.9,0.1c-1.9,0-3.6-0.3-5.1-0.9c-1.5-0.6-2.8-1.4-3.8-2.5c-1-1.1-1.8-2.4-2.4-4c-0.6-1.5-0.8-3.3-0.8-5.1
				c0-2,0.3-3.8,0.9-5.4c0.6-1.6,1.4-3,2.5-4.1c1.1-1.1,2.4-2,3.9-2.6c1.5-0.6,3.2-0.9,5-0.9c0.9,0,1.8,0.1,2.7,0.2
				c0.8,0.2,1.6,0.4,2.2,0.6c0.6,0.2,1.2,0.5,1.6,0.7c0.4,0.3,0.7,0.5,0.9,0.6c0.2,0.2,0.3,0.4,0.3,0.6
				C360.4,13.4,360.4,13.7,360.4,14.1z"/>
			<path class="st0" d="M373.9,25.9v9.2c0,0.1,0,0.2-0.1,0.3c-0.1,0.1-0.1,0.1-0.3,0.2c-0.1,0-0.3,0.1-0.5,0.1c-0.2,0-0.5,0-0.8,0
				c-0.3,0-0.6,0-0.8,0c-0.2,0-0.4-0.1-0.5-0.1c-0.1,0-0.2-0.1-0.3-0.2c-0.1-0.1-0.1-0.2-0.1-0.3v-9.2l-7-14
				c-0.1-0.3-0.2-0.5-0.3-0.7c0-0.2,0-0.3,0.1-0.4c0.1-0.1,0.3-0.1,0.5-0.2c0.2,0,0.6,0,1,0c0.4,0,0.7,0,0.9,0
				c0.2,0,0.4,0.1,0.6,0.1c0.1,0,0.2,0.1,0.3,0.2c0.1,0.1,0.1,0.2,0.2,0.3l3.4,7.1c0.3,0.7,0.6,1.4,1,2.1c0.3,0.7,0.6,1.5,1,2.2h0
				c0.3-0.7,0.6-1.5,0.9-2.2c0.3-0.7,0.6-1.4,0.9-2.1l3.5-7.2c0-0.1,0.1-0.2,0.2-0.3c0.1-0.1,0.2-0.2,0.3-0.2c0.1,0,0.3-0.1,0.5-0.1
				c0.2,0,0.5,0,0.8,0c0.5,0,0.8,0,1.1,0c0.3,0,0.4,0.1,0.5,0.2c0.1,0.1,0.1,0.2,0.1,0.4c0,0.2-0.1,0.4-0.3,0.7L373.9,25.9z"/>
		</g>
	</g>
	<g>
		<g>
			<g>
				<g>
					<path d="M0.5,36.1V0.7h4.3v20.2l10.3-10.4h5.6L10.9,20l10.8,16.2h-5.4L7.9,23L4.8,26v10.1H0.5z"/>
					<path d="M52.7,36.1V10.5h3.9v3.6c1.9-2.8,4.6-4.2,8.2-4.2c1.6,0,3,0.3,4.3,0.8s2.3,1.3,2.9,2.2c0.6,0.9,1.1,2,1.3,3.2
						c0.2,0.8,0.2,2.2,0.2,4.2v15.8h-4.3V20.5c0-1.8-0.2-3.1-0.5-4c-0.3-0.9-0.9-1.6-1.8-2.1c-0.9-0.5-1.9-0.8-3-0.8
						c-1.8,0-3.5,0.6-4.8,1.8s-2,3.4-2,6.7v14H52.7z"/>
					<path d="M97.8,27.9l4.5,0.6c-0.7,2.6-2,4.7-3.9,6.1C96.5,36,94,36.7,91,36.7c-3.7,0-6.7-1.2-8.9-3.5c-2.2-2.3-3.3-5.6-3.3-9.7
						c0-4.3,1.1-7.7,3.3-10s5.1-3.6,8.7-3.6c3.4,0,6.2,1.2,8.4,3.5c2.2,2.3,3.3,5.6,3.3,9.9c0,0.2,0,0.6,0,1.2H83.3
						c0.2,2.8,1,5,2.4,6.5c1.4,1.5,3.2,2.3,5.4,2.3c1.6,0,3-0.4,4.1-1.3C96.3,31.1,97.2,29.7,97.8,27.9z M83.5,20.8h14.3
						c-0.2-2.2-0.7-3.8-1.6-4.9c-1.4-1.7-3.2-2.5-5.4-2.5c-2,0-3.7,0.7-5,2C84.4,16.8,83.7,18.6,83.5,20.8z"/>
					<path d="M124.5,26.7l4.3,0.6c-0.5,2.9-1.7,5.3-3.6,6.9s-4.3,2.5-7.1,2.5c-3.5,0-6.3-1.1-8.5-3.4c-2.1-2.3-3.2-5.6-3.2-9.9
						c0-2.8,0.5-5.2,1.4-7.3s2.3-3.6,4.2-4.7c1.9-1,3.9-1.6,6.1-1.6c2.8,0,5.1,0.7,6.8,2.1c1.8,1.4,2.9,3.4,3.4,6l-4.2,0.7
						c-0.4-1.7-1.1-3-2.1-3.9c-1-0.9-2.3-1.3-3.7-1.3c-2.2,0-4,0.8-5.3,2.4c-1.4,1.6-2.1,4.1-2.1,7.5c0,3.4,0.7,5.9,2,7.5
						c1.3,1.6,3,2.3,5.2,2.3c1.7,0,3.1-0.5,4.3-1.6C123.5,30.5,124.2,28.9,124.5,26.7z"/>
					<path d="M142,32.2l0.6,3.9c-1.2,0.2-2.3,0.4-3.3,0.4c-1.6,0-2.8-0.2-3.7-0.7c-0.9-0.5-1.5-1.2-1.8-2c-0.4-0.8-0.5-2.5-0.5-5.1
						V13.8h-3.2v-3.4h3.2V4.1l4.3-2.6v9h4.4v3.4h-4.4v15c0,1.2,0.1,2,0.2,2.4c0.1,0.4,0.4,0.6,0.7,0.8c0.4,0.2,0.8,0.3,1.5,0.3
						C140.6,32.4,141.2,32.4,142,32.2z"/>
					<path d="M163,33c-1.6,1.4-3.2,2.3-4.7,2.9c-1.5,0.6-3.1,0.8-4.8,0.8c-2.8,0-5-0.7-6.5-2.1c-1.5-1.4-2.3-3.1-2.3-5.3
						c0-1.3,0.3-2.4,0.8-3.4c0.6-1,1.3-1.9,2.3-2.5c0.9-0.6,2-1.1,3.1-1.4c0.8-0.2,2.1-0.4,3.9-0.7c3.5-0.4,6.1-0.9,7.8-1.5
						c0-0.6,0-1,0-1.1c0-1.8-0.4-3-1.2-3.7c-1.1-1-2.8-1.5-4.9-1.5c-2.1,0-3.6,0.4-4.5,1.1s-1.7,2-2.2,3.8l-4.2-0.6
						c0.4-1.8,1-3.3,1.9-4.4c0.9-1.1,2.2-2,3.9-2.6c1.7-0.6,3.6-0.9,5.8-0.9c2.2,0,4,0.2,5.3,0.8s2.4,1.2,3,1.9
						c0.6,0.8,1.1,1.8,1.3,3c0.1,0.7,0.2,2.1,0.2,4v5.8c0,4,0.1,6.6,0.3,7.7c0.2,1.1,0.6,2.1,1.1,3.1h-4.5
						C163.5,35.2,163.2,34.2,163,33z M162.7,23.2c-1.6,0.6-4,1.2-7.1,1.6c-1.8,0.2-3,0.5-3.8,0.9c-0.7,0.3-1.3,0.8-1.7,1.4
						c-0.4,0.6-0.6,1.3-0.6,2.1c0,1.2,0.4,2.1,1.3,2.9c0.9,0.8,2.2,1.2,3.9,1.2c1.7,0,3.2-0.4,4.5-1.1c1.3-0.7,2.3-1.7,2.9-3
						c0.5-1,0.7-2.4,0.7-4.3L162.7,23.2L162.7,23.2z"/>
					<path d="M173.8,36.1V10.5h3.9v3.9c1-1.8,1.9-3,2.8-3.6c0.8-0.6,1.8-0.9,2.8-0.9c1.5,0,3,0.5,4.5,1.4l-1.5,4
						c-1.1-0.6-2.1-1-3.2-1c-1,0-1.8,0.3-2.6,0.8c-0.8,0.6-1.3,1.4-1.6,2.4c-0.5,1.6-0.7,3.2-0.7,5.1v13.4H173.8z"/>
					<g>
						<circle class="st1" cx="35.6" cy="33.7" r="2.4"/>
						<circle class="st1" cx="35.6" cy="12.3" r="2.4"/>
						<path class="st2" d="M33.2,31c-3.4-1-5.9-4.2-5.9-8s2.5-7,5.9-8c-0.7-0.7-1.2-1.6-1.2-2.7c0-0.7,0.2-1.3,0.5-1.8c0,0,0,0,0,0
							c-5.6,1.4-9.8,6.5-9.8,12.5s4.2,11.1,9.8,12.5c0,0,0,0,0,0C32.2,35,32,34.4,32,33.7C32,32.6,32.4,31.7,33.2,31z"/>
						<path class="st2" d="M38.7,10.5c0.3,0.5,0.5,1.2,0.5,1.9c0,1.1-0.5,2-1.2,2.7c3.4,1,5.9,4.2,5.9,8s-2.5,7-5.9,8
							c0.7,0.7,1.2,1.6,1.2,2.7c0,0.7-0.2,1.3-0.5,1.9c5.6-1.4,9.8-6.5,9.8-12.5C48.5,16.9,44.3,11.9,38.7,10.5z"/>
					</g>
				</g>
			</g>
		</g>
		<g>
			<path d="M194.3,5.5c0,2.4-1.8,4.2-4.3,4.2c-2.4,0-4.3-1.8-4.3-4.2c0-2.3,1.9-4.2,4.3-4.2C192.5,1.4,194.3,3.2,194.3,5.5z
				 M186.9,5.5c0,1.8,1.4,3.3,3.3,3.3c1.8,0,3.2-1.5,3.2-3.3c0-1.8-1.3-3.4-3.2-3.4C188.2,2.2,186.9,3.7,186.9,5.5z M189.4,7.7h-1
				V3.6c0.4-0.1,0.9-0.1,1.6-0.1c0.8,0,1.1,0.1,1.4,0.3c0.2,0.2,0.4,0.5,0.4,0.9c0,0.5-0.4,0.8-0.9,1v0.1c0.4,0.1,0.6,0.5,0.8,1
				c0.1,0.6,0.2,0.9,0.3,1h-1c-0.1-0.1-0.2-0.5-0.3-1c-0.1-0.5-0.3-0.7-0.9-0.7h-0.5L189.4,7.7L189.4,7.7z M189.4,5.4h0.5
				c0.5,0,1-0.2,1-0.6c0-0.4-0.3-0.6-0.9-0.6c-0.2,0-0.4,0-0.5,0L189.4,5.4L189.4,5.4z"/>
		</g>
	</g>
</g>
</svg>
