<?xml version="1.0" encoding="utf-8"?>
<!-- Generator: Adobe Illustrator 24.1.1, SVG Export Plug-In . SVG Version: 6.00 Build 0)  -->
<svg version="1.1" id="Layer_1" xmlns="http://www.w3.org/2000/svg" xmlns:xlink="http://www.w3.org/1999/xlink" x="0px" y="0px"
	 width="306.6px" height="39px" viewBox="0 0 306.6 39" style="enable-background:new 0 0 306.6 39;" xml:space="preserve">
<style type="text/css">
	.st0{fill:#8CC63F;}
	.st1{fill:#1C96E8;}
	.st2{fill:#F96731;}
	.st3{fill:#2B9AF3;}
</style>
<g>
	<g>
		
			<image style="overflow:visible;opacity:0.2;" width="119" height="38" xlink:href="D9BA7746.png"  transform="matrix(1 0 0 1 190.1531 5.7735)">
		</image>
		<g>
			<g>
				<path class="st1" d="M209.9,29c0,1.1-0.2,2.1-0.6,2.9c-0.4,0.9-1,1.6-1.7,2.2c-0.7,0.6-1.6,1-2.5,1.3s-2,0.5-3.1,0.5
					c-0.8,0-1.5-0.1-2.2-0.2c-0.7-0.1-1.3-0.3-1.8-0.5c-0.5-0.2-1-0.4-1.3-0.6c-0.4-0.2-0.6-0.4-0.7-0.5c-0.1-0.1-0.2-0.3-0.3-0.6
					c-0.1-0.2-0.1-0.5-0.1-0.9c0-0.3,0-0.5,0-0.7c0-0.2,0.1-0.3,0.1-0.4c0-0.1,0.1-0.2,0.2-0.2c0.1,0,0.2-0.1,0.3-0.1
					c0.2,0,0.4,0.1,0.7,0.3c0.3,0.2,0.7,0.4,1.2,0.7c0.5,0.2,1.1,0.5,1.7,0.7s1.5,0.3,2.4,0.3c0.7,0,1.3-0.1,1.9-0.3
					c0.6-0.2,1-0.4,1.4-0.8s0.7-0.7,0.9-1.2s0.3-1,0.3-1.6c0-0.7-0.2-1.2-0.5-1.7c-0.3-0.5-0.7-0.9-1.2-1.2c-0.5-0.4-1.1-0.7-1.7-1
					s-1.3-0.6-1.9-0.9c-0.7-0.3-1.3-0.6-1.9-1c-0.6-0.4-1.2-0.8-1.7-1.3s-0.9-1.1-1.2-1.8c-0.3-0.7-0.5-1.5-0.5-2.5
					c0-1,0.2-1.8,0.5-2.6c0.4-0.8,0.9-1.4,1.5-1.9c0.6-0.5,1.4-0.9,2.3-1.2c0.9-0.3,1.8-0.4,2.8-0.4c0.5,0,1,0,1.6,0.1
					c0.5,0.1,1,0.2,1.5,0.4s0.9,0.3,1.2,0.5s0.6,0.3,0.7,0.5c0.1,0.1,0.2,0.2,0.2,0.3s0.1,0.2,0.1,0.3c0,0.1,0,0.2,0.1,0.4
					c0,0.1,0,0.3,0,0.6c0,0.2,0,0.4,0,0.6s0,0.3-0.1,0.4c0,0.1-0.1,0.2-0.2,0.3s-0.1,0.1-0.2,0.1c-0.1,0-0.3-0.1-0.6-0.3
					c-0.3-0.2-0.6-0.4-1-0.6c-0.4-0.2-0.9-0.4-1.5-0.6s-1.2-0.3-1.9-0.3c-0.7,0-1.2,0.1-1.7,0.3c-0.5,0.2-0.9,0.4-1.2,0.7
					s-0.5,0.6-0.7,1c-0.2,0.4-0.2,0.8-0.2,1.3c0,0.7,0.2,1.2,0.5,1.7c0.3,0.5,0.7,0.9,1.2,1.2c0.5,0.4,1.1,0.7,1.7,1
					c0.6,0.3,1.3,0.6,2,0.9c0.7,0.3,1.3,0.6,2,1c0.6,0.4,1.2,0.8,1.7,1.3c0.5,0.5,0.9,1.1,1.2,1.8C209.8,27.2,209.9,28,209.9,29z"/>
				<path class="st1" d="M234,23.5c0,1.9-0.2,3.6-0.7,5.1s-1.1,2.8-2,3.9s-2,1.9-3.3,2.5c-1.3,0.6-2.9,0.9-4.7,0.9
					c-1.8,0-3.3-0.3-4.6-0.8c-1.3-0.5-2.3-1.3-3.2-2.3c-0.8-1-1.5-2.2-1.9-3.7s-0.6-3.2-0.6-5.1c0-1.8,0.2-3.5,0.7-5
					c0.4-1.5,1.1-2.8,2-3.8s2-1.9,3.3-2.4c1.3-0.6,2.9-0.9,4.7-0.9c1.7,0,3.2,0.3,4.5,0.8c1.3,0.5,2.3,1.3,3.2,2.3
					c0.9,1,1.5,2.2,1.9,3.7S234,21.7,234,23.5z M230.7,23.8c0-1.3-0.1-2.6-0.4-3.7s-0.6-2.1-1.2-3c-0.5-0.8-1.3-1.5-2.2-2
					c-0.9-0.5-2-0.7-3.4-0.7c-1.3,0-2.5,0.3-3.4,0.8c-0.9,0.5-1.7,1.2-2.2,2c-0.6,0.8-1,1.8-1.2,3c-0.2,1.1-0.4,2.3-0.4,3.6
					c0,1.4,0.1,2.6,0.3,3.8s0.6,2.2,1.2,3c0.5,0.8,1.3,1.5,2.2,2c0.9,0.5,2.1,0.7,3.4,0.7c1.4,0,2.5-0.3,3.4-0.8
					c0.9-0.5,1.7-1.2,2.2-2.1c0.6-0.9,1-1.9,1.2-3C230.6,26.2,230.7,25,230.7,23.8z"/>
				<path class="st1" d="M254.6,32.2c0,0.2,0,0.4,0,0.5c0,0.1,0,0.3-0.1,0.4c0,0.1-0.1,0.2-0.1,0.3c0,0.1-0.1,0.2-0.3,0.3
					c-0.1,0.1-0.4,0.3-0.8,0.6c-0.4,0.2-0.9,0.5-1.4,0.7c-0.6,0.2-1.2,0.4-2,0.6c-0.7,0.2-1.6,0.2-2.4,0.2c-1.5,0-2.9-0.3-4.1-0.8
					c-1.2-0.5-2.3-1.3-3.1-2.2s-1.5-2.2-2-3.7c-0.5-1.5-0.7-3.1-0.7-5c0-1.9,0.3-3.7,0.8-5.2s1.2-2.8,2.1-3.9s2-1.9,3.2-2.4
					s2.7-0.8,4.2-0.8c0.7,0,1.3,0.1,2,0.2s1.2,0.3,1.8,0.5s1,0.4,1.4,0.7c0.4,0.3,0.7,0.5,0.9,0.6c0.2,0.2,0.3,0.3,0.3,0.4
					c0,0.1,0.1,0.2,0.1,0.3c0,0.1,0.1,0.3,0.1,0.4c0,0.2,0,0.3,0,0.6c0,0.2,0,0.4,0,0.6c0,0.2-0.1,0.3-0.1,0.4
					c0,0.1-0.1,0.2-0.2,0.3c-0.1,0.1-0.1,0.1-0.2,0.1c-0.2,0-0.4-0.1-0.7-0.4c-0.3-0.2-0.7-0.5-1.2-0.8c-0.5-0.3-1.1-0.5-1.7-0.8
					c-0.7-0.2-1.5-0.4-2.5-0.4c-1,0-2,0.2-2.8,0.6c-0.9,0.4-1.6,1-2.2,1.8c-0.6,0.8-1.1,1.8-1.4,3c-0.3,1.2-0.5,2.5-0.5,4
					c0,1.5,0.2,2.8,0.5,3.9c0.3,1.1,0.8,2.1,1.4,2.9c0.6,0.8,1.3,1.3,2.2,1.7c0.9,0.4,1.9,0.6,3,0.6c0.9,0,1.7-0.1,2.4-0.3
					s1.3-0.5,1.8-0.8c0.5-0.3,0.9-0.5,1.2-0.8c0.3-0.2,0.6-0.3,0.7-0.3c0.1,0,0.2,0,0.2,0.1s0.1,0.1,0.1,0.2c0,0.1,0.1,0.2,0.1,0.4
					C254.5,31.7,254.6,31.9,254.6,32.2z"/>
				<path class="st1" d="M261.8,35.1c0,0.1,0,0.2-0.1,0.3c0,0.1-0.1,0.1-0.3,0.2c-0.1,0-0.3,0.1-0.5,0.1c-0.2,0-0.4,0-0.8,0
					c-0.3,0-0.5,0-0.7,0c-0.2,0-0.4-0.1-0.5-0.1c-0.1,0-0.2-0.1-0.3-0.2c0-0.1-0.1-0.2-0.1-0.3V12.6c0-0.1,0-0.2,0.1-0.3
					c0.1-0.1,0.1-0.1,0.3-0.2c0.1,0,0.3-0.1,0.5-0.1c0.2,0,0.4,0,0.7,0c0.3,0,0.6,0,0.8,0c0.2,0,0.4,0.1,0.5,0.1
					c0.1,0,0.2,0.1,0.3,0.2c0,0.1,0.1,0.2,0.1,0.3V35.1z"/>
				<path class="st1" d="M285.5,34.4c0.1,0.3,0.1,0.5,0.2,0.6c0,0.2,0,0.3-0.1,0.4c-0.1,0.1-0.3,0.1-0.5,0.2c-0.2,0-0.5,0-0.9,0
					c-0.4,0-0.7,0-0.9,0c-0.2,0-0.4,0-0.5-0.1c-0.1,0-0.2-0.1-0.3-0.2c-0.1-0.1-0.1-0.2-0.2-0.3l-2-5.7h-9.7l-1.9,5.6
					c0,0.1-0.1,0.2-0.1,0.3c-0.1,0.1-0.1,0.1-0.3,0.2c-0.1,0.1-0.3,0.1-0.5,0.1c-0.2,0-0.5,0-0.8,0c-0.3,0-0.6,0-0.9,0
					c-0.2,0-0.4-0.1-0.5-0.2c-0.1-0.1-0.1-0.2-0.1-0.4c0-0.2,0.1-0.4,0.2-0.6l7.9-21.7c0-0.1,0.1-0.2,0.2-0.3
					c0.1-0.1,0.2-0.2,0.3-0.2c0.2,0,0.3-0.1,0.6-0.1s0.5,0,0.9,0c0.4,0,0.7,0,1,0c0.3,0,0.5,0.1,0.6,0.1c0.2,0,0.3,0.1,0.4,0.2
					c0.1,0.1,0.2,0.2,0.2,0.3L285.5,34.4z M275.5,15.2L275.5,15.2l-4.1,11.7h8.1L275.5,15.2z"/>
				<path class="st1" d="M301.6,34.2c0,0.2,0,0.4,0,0.6c0,0.2-0.1,0.3-0.1,0.4s-0.1,0.2-0.2,0.3c-0.1,0.1-0.2,0.1-0.3,0.1h-10.3
					c-0.3,0-0.5-0.1-0.8-0.3s-0.4-0.5-0.4-1V12.6c0-0.1,0-0.2,0.1-0.3c0-0.1,0.1-0.1,0.3-0.2c0.1,0,0.3-0.1,0.5-0.1
					c0.2,0,0.5,0,0.7,0c0.3,0,0.6,0,0.8,0c0.2,0,0.4,0.1,0.5,0.1c0.1,0,0.2,0.1,0.3,0.2c0,0.1,0.1,0.2,0.1,0.3v20.2h8.4
					c0.1,0,0.2,0,0.3,0.1c0.1,0.1,0.1,0.1,0.2,0.2c0.1,0.1,0.1,0.2,0.1,0.4C301.6,33.7,301.6,33.9,301.6,34.2z"/>
			</g>
		</g>
	</g>
	<g>
		<g>
			<g>
				<g>
					<path d="M4,36.5V3.1h4.1v19.1l9.7-9.8h5.3l-9.3,9l10.2,15.2H19l-8-12.4l-2.9,2.8v9.6H4z"/>
					<path d="M53.3,36.5V12.3H57v3.4c1.8-2.7,4.3-4,7.7-4c1.5,0,2.8,0.3,4,0.8c1.2,0.5,2.1,1.2,2.7,2.1c0.6,0.9,1,1.9,1.3,3
						c0.2,0.8,0.2,2.1,0.2,4v14.9h-4.1V21.7c0-1.7-0.2-2.9-0.5-3.7c-0.3-0.8-0.9-1.5-1.7-2c-0.8-0.5-1.8-0.7-2.9-0.7
						c-1.7,0-3.3,0.6-4.5,1.7c-1.3,1.1-1.9,3.2-1.9,6.3v13.2H53.3z"/>
					<path d="M95.8,28.7l4.2,0.5c-0.7,2.5-1.9,4.4-3.7,5.8c-1.8,1.4-4.1,2.1-6.9,2.1c-3.5,0-6.3-1.1-8.4-3.3
						c-2.1-2.2-3.1-5.2-3.1-9.2c0-4.1,1-7.2,3.1-9.5c2.1-2.2,4.8-3.4,8.2-3.4c3.2,0,5.9,1.1,7.9,3.3c2.1,2.2,3.1,5.3,3.1,9.3
						c0,0.2,0,0.6,0,1.1h-18c0.2,2.7,0.9,4.7,2.3,6.1c1.4,1.4,3,2.1,5.1,2.1c1.5,0,2.8-0.4,3.9-1.2C94.3,31.7,95.2,30.4,95.8,28.7z
						 M82.3,22h13.5c-0.2-2-0.7-3.6-1.5-4.6c-1.3-1.6-3-2.4-5.1-2.4c-1.9,0-3.5,0.6-4.8,1.9C83.2,18.2,82.5,19.9,82.3,22z"/>
					<path d="M121,27.6l4,0.5c-0.4,2.8-1.6,5-3.4,6.5c-1.8,1.6-4,2.4-6.7,2.4c-3.3,0-6-1.1-8-3.2c-2-2.2-3-5.3-3-9.3
						c0-2.6,0.4-4.9,1.3-6.9c0.9-2,2.2-3.4,4-4.4c1.8-1,3.7-1.5,5.8-1.5c2.6,0,4.8,0.7,6.4,2c1.7,1.3,2.7,3.2,3.2,5.7l-4,0.6
						c-0.4-1.6-1.1-2.8-2-3.7c-1-0.8-2.1-1.2-3.5-1.2c-2.1,0-3.7,0.7-5,2.2c-1.3,1.5-1.9,3.8-1.9,7c0,3.3,0.6,5.6,1.9,7.1
						c1.2,1.5,2.9,2.2,4.9,2.2c1.6,0,3-0.5,4-1.5C120,31.2,120.7,29.6,121,27.6z"/>
					<path d="M137.5,32.8l0.6,3.6c-1.2,0.2-2.2,0.4-3.1,0.4c-1.5,0-2.6-0.2-3.5-0.7c-0.8-0.5-1.4-1.1-1.7-1.9
						c-0.3-0.8-0.5-2.4-0.5-4.8V15.5h-3v-3.2h3v-6l4.1-2.5v8.5h4.1v3.2h-4.1v14.2c0,1.2,0.1,1.9,0.2,2.3c0.1,0.3,0.4,0.6,0.7,0.8
						c0.3,0.2,0.8,0.3,1.4,0.3C136.1,33,136.7,32.9,137.5,32.8z"/>
					<path d="M157.3,33.5c-1.5,1.3-3,2.2-4.4,2.7c-1.4,0.5-2.9,0.8-4.5,0.8c-2.7,0-4.7-0.6-6.1-1.9c-1.4-1.3-2.1-3-2.1-5
						c0-1.2,0.3-2.3,0.8-3.2c0.5-1,1.2-1.8,2.1-2.4c0.9-0.6,1.9-1,3-1.3c0.8-0.2,2-0.4,3.6-0.6c3.3-0.4,5.7-0.9,7.3-1.4
						c0-0.6,0-0.9,0-1.1c0-1.7-0.4-2.8-1.2-3.5c-1-0.9-2.6-1.4-4.7-1.4c-1.9,0-3.4,0.3-4.3,1c-0.9,0.7-1.6,1.9-2,3.6l-4-0.5
						c0.4-1.7,1-3.1,1.8-4.2c0.8-1.1,2-1.9,3.6-2.4c1.6-0.6,3.4-0.9,5.5-0.9c2.1,0,3.7,0.2,5,0.7c1.3,0.5,2.2,1.1,2.8,1.8
						c0.6,0.7,1,1.7,1.3,2.8c0.1,0.7,0.2,2,0.2,3.8v5.5c0,3.8,0.1,6.2,0.3,7.2c0.2,1,0.5,2,1,2.9h-4.3
						C157.7,35.6,157.4,34.6,157.3,33.5z M156.9,24.3c-1.5,0.6-3.7,1.1-6.7,1.5c-1.7,0.2-2.9,0.5-3.6,0.8c-0.7,0.3-1.2,0.7-1.6,1.3
						c-0.4,0.6-0.6,1.2-0.6,1.9c0,1.1,0.4,2,1.2,2.7c0.8,0.7,2,1.1,3.6,1.1c1.6,0,3-0.3,4.2-1c1.2-0.7,2.1-1.6,2.7-2.8
						c0.4-0.9,0.7-2.3,0.7-4.1V24.3z"/>
					<path d="M167.4,36.5V12.3h3.7v3.7c0.9-1.7,1.8-2.8,2.6-3.4s1.7-0.8,2.6-0.8c1.4,0,2.8,0.4,4.2,1.3l-1.4,3.8c-1-0.6-2-0.9-3-0.9
						c-0.9,0-1.7,0.3-2.4,0.8c-0.7,0.5-1.2,1.3-1.5,2.2c-0.5,1.5-0.7,3.1-0.7,4.8v12.7H167.4z"/>
					<g>
						<circle class="st2" cx="37.1" cy="34.1" r="2.3"/>
						<circle class="st2" cx="37.1" cy="14" r="2.3"/>
						<path class="st3" d="M34.8,31.6c-3.2-1-5.6-4-5.6-7.5c0-3.6,2.4-6.6,5.6-7.5c-0.7-0.6-1.1-1.5-1.1-2.5c0-0.6,0.2-1.2,0.5-1.7
							c0,0,0,0,0,0c-5.3,1.3-9.3,6.1-9.3,11.8c0,5.7,3.9,10.5,9.3,11.8c0,0,0,0,0,0c-0.3-0.5-0.5-1.1-0.5-1.7
							C33.7,33.1,34.1,32.2,34.8,31.6z"/>
						<path class="st3" d="M40,12.3c0.3,0.5,0.5,1.1,0.5,1.8c0,1-0.4,1.9-1.1,2.5c3.2,1,5.6,4,5.6,7.5c0,3.6-2.4,6.6-5.6,7.5
							c0.7,0.6,1.1,1.5,1.1,2.5c0,0.6-0.2,1.2-0.5,1.8c5.3-1.3,9.3-6.1,9.3-11.8C49.3,18.4,45.3,13.6,40,12.3z"/>
					</g>
				</g>
			</g>
		</g>
		<g>
			<path d="M189.2,6.4c0,2.5-2,4.5-4.5,4.5c-2.5,0-4.6-2-4.6-4.5c0-2.5,2-4.4,4.6-4.4C187.2,2,189.2,4,189.2,6.4z M181.2,6.4
				c0,2,1.5,3.5,3.5,3.5c1.9,0,3.4-1.6,3.4-3.5c0-2-1.4-3.6-3.4-3.6C182.6,2.9,181.2,4.5,181.2,6.4z M183.9,8.8h-1V4.3
				c0.4-0.1,1-0.1,1.7-0.1c0.8,0,1.2,0.1,1.5,0.3c0.2,0.2,0.4,0.5,0.4,1c0,0.5-0.4,0.9-0.9,1v0.1c0.4,0.2,0.7,0.5,0.8,1.1
				c0.1,0.7,0.2,0.9,0.3,1.1h-1.1c-0.1-0.2-0.2-0.6-0.4-1.1C185.2,7.2,185,7,184.4,7h-0.5V8.8z M183.9,6.2h0.5c0.6,0,1-0.2,1-0.6
				c0-0.4-0.3-0.7-0.9-0.7c-0.3,0-0.5,0-0.6,0.1V6.2z"/>
		</g>
	</g>
</g>
</svg>
