<svg width="547" height="10" viewBox="0 0 547 10" fill="none" xmlns="http://www.w3.org/2000/svg">
<mask id="mask0_1879_1068" style="mask-type:alpha" maskUnits="userSpaceOnUse" x="0" y="0" width="547" height="10">
<rect width="547" height="9.24262" fill="#99CFFF"/>
</mask>
<g mask="url(#mask0_1879_1068)">
<path d="M82.1592 -1.95324L83.4961 -2.07507L80.8946 -2.24974L82.1417 -2.37759C83.3922 -2.37642 85.0124 -2.18485 85.894 -2.28664C86.0018 -2.3852 84.6401 -2.41683 84.2926 -2.49536C83.9852 -2.57584 83.7343 -2.65581 83.5428 -2.73429C84.2238 -2.73344 84.9725 -2.71446 85.7445 -2.67845C86.7829 -2.61965 87.8013 -2.59106 88.6875 -2.59585C90.4997 -2.57997 92.2504 -2.59581 94.2206 -2.59232L93.5651 -2.82952L96.1042 -2.77403C96.3734 -2.75596 96.6941 -2.78502 96.9586 -2.76267C99.1591 -2.57352 100.09 -2.67659 101.147 -2.76205C101.363 -2.78417 101.624 -2.80068 101.922 -2.81115C104.858 -2.76585 107.505 -2.50072 110.149 -2.36462C110.646 -2.32987 111.124 -2.28526 111.547 -2.23396C112.466 -2.13423 113.489 -2.05281 114.522 -1.99714C115.554 -1.94148 116.563 -1.91334 117.457 -1.91531C119.434 -1.91751 121.667 -1.85155 123.94 -1.7238C124.617 -1.68173 125.293 -1.65397 125.927 -1.6423C126.561 -1.63063 127.138 -1.6353 127.622 -1.65602L129.159 -1.52062C129.825 -1.57556 130.67 -1.60571 131.642 -1.60922C132.614 -1.61274 133.694 -1.58955 134.814 -1.54107C136.009 -1.48848 137.222 -1.45303 138.461 -1.39743C141.021 -1.29113 143.512 -1.22612 145.857 -1.20442C149.35 -1.14011 152.762 -1.09039 156.285 -1.01022C158.489 -0.97152 160.637 -0.950235 162.715 -0.946476C165.205 -0.931339 167.897 -0.858061 170.664 -0.730176C170.532 -0.610192 169.319 -0.64564 168.505 -0.6497C165.879 -0.669643 163.191 -0.721319 160.489 -0.76014C159.272 -0.775294 158.089 -0.781033 156.945 -0.777316C155.034 -0.782291 153.019 -0.814261 150.935 -0.87268C147.643 -0.936962 144.456 -0.967862 141.407 -0.965065C141.168 -0.960312 140.949 -0.951891 140.753 -0.939941C140.712 -0.929591 140.704 -0.916539 140.73 -0.902039C140.755 -0.887539 140.813 -0.87207 140.898 -0.857123C140.984 -0.842175 141.093 -0.828248 141.216 -0.816668C141.339 -0.805088 141.472 -0.796243 141.602 -0.790987C142.813 -0.709675 144.113 -0.622342 145.255 -0.610056C145.3 -0.609138 145.347 -0.607041 145.393 -0.603916C145.44 -0.600791 145.485 -0.596716 145.525 -0.591988C148.081 -0.420327 150.183 -0.449376 152.175 -0.421447C155.482 -0.345965 158.669 -0.310708 161.689 -0.316206C162.146 -0.315834 162.639 -0.306021 163.15 -0.287125C166.313 -0.210528 169.271 -0.20196 171.885 -0.261811C172.961 -0.276974 173.961 -0.311014 175.117 -0.311583C175.829 -0.313926 176.449 -0.335647 176.939 -0.375449C177.43 -0.41525 177.78 -0.472307 177.97 -0.543189C178.458 -0.50587 178.953 -0.472612 179.45 -0.44381C179.747 -0.427343 180.032 -0.422968 180.247 -0.431587C180.462 -0.440203 180.591 -0.461169 180.608 -0.49024C180.697 -0.571658 180.02 -0.612545 179.432 -0.647411C179.787 -0.664872 180.186 -0.675145 180.621 -0.67798C183.07 -0.696584 185.698 -0.674627 188.446 -0.61259C190.579 -0.538334 192.282 -0.598773 194.527 -0.494058C194.796 -0.475987 195.018 -0.502509 195.265 -0.508877C195.911 -0.542411 196.716 -0.549948 197.609 -0.53083C198.503 -0.511711 199.459 -0.466514 200.393 -0.399157C201.558 -0.583178 204.072 -0.37295 205.929 -0.354055C206.501 -0.260472 205.845 -0.276924 205.817 -0.251213C205.789 -0.225502 205.817 -0.251219 205.592 -0.266277C203.738 -0.133745 201.198 -0.104846 198.328 -0.183642C197.797 -0.183315 197.292 -0.177277 196.816 -0.165587C196.095 -0.149041 195.283 -0.150693 194.414 -0.170471C193.465 -0.184997 192.593 -0.178098 191.84 -0.150109C191.407 -0.150563 191.041 -0.136542 190.775 -0.109333C190.51 -0.0821248 190.354 -0.0426114 190.322 0.00553534C190.611 0.0426518 190.931 0.0766138 191.271 0.106072C193.044 0.222389 194.812 0.270536 196.227 0.241039C198.69 0.190216 201.621 0.239811 204.24 0.222461C206.01 0.215433 207.894 0.235454 209.856 0.282151C209.856 0.282151 209.804 0.329287 209.799 0.333572C210.031 0.35398 210.275 0.370355 210.517 0.381759C210.517 0.381759 210.517 0.381759 210.541 0.360333C210.433 0.339758 210.287 0.320402 210.12 0.304505L209.537 0.265353C209.933 0.255165 210.304 0.22483 210.717 0.243364C211.587 0.277798 212.419 0.292335 213.162 0.286111C213.905 0.279887 214.544 0.253027 215.041 0.207145C215.922 0.148342 217.017 0.1216 218.256 0.128647C219.206 0.122228 220.121 0.108429 220.998 0.0873224C220.998 0.0873224 221.054 0.035905 221.469 0.00857547C221.076 -0.0251305 220.666 -0.0526553 220.258 -0.0727335C218.483 -0.122897 216.704 -0.168776 214.96 -0.203071C214.318 -0.206776 213.714 -0.20103 213.16 -0.185945C211.626 -0.168292 209.902 -0.193346 208.089 -0.259649C208.089 -0.259649 207.73 -0.28374 207.551 -0.295786C208.059 -0.408818 209.813 -0.295659 210.523 -0.372207C210.955 -0.370814 211.715 -0.361188 211.688 -0.38134C211.629 -0.408232 211.622 -0.433214 211.668 -0.454495C211.713 -0.475775 211.81 -0.492828 211.952 -0.504429C212.093 -0.516029 212.276 -0.521893 212.486 -0.521594C212.697 -0.521296 212.93 -0.514843 213.169 -0.502703C215.166 -0.437032 217.046 -0.418769 218.696 -0.449034C219.321 -0.44845 220.022 -0.428986 220.642 -0.424116C221.022 -0.41825 221.369 -0.421512 221.664 -0.433722C223.163 -0.523639 225.181 -0.530205 227.414 -0.452436C228.493 -0.424476 229.501 -0.420737 230.387 -0.44141C231.017 -0.44511 231.284 -0.381182 231.732 -0.351065L233.637 -0.287581L231.191 -0.208033C231.714 -0.0257351 232.129 0.0343755 232.984 0.0457319C234.23 0.0628837 235.443 0.0706313 236.618 0.0689293C237.486 0.0674302 238.203 0.0281712 239.378 0.0979023C239.586 0.109275 239.786 0.112957 239.945 0.108329C241.321 0.0464231 242.979 0.0322149 244.805 0.0666756C245.75 -0.0492477 247.36 0.0634597 248.85 0.154272C249.33 0.0669514 248.459 0.0268673 247.94 -0.026412C249.186 -0.0209582 250.441 -0.0240729 251.727 -0.0113221C252.114 -0.015964 252.556 -0.0080242 253.019 0.0118732C253.481 0.0317705 253.952 0.0630797 254.394 0.103354C254.609 0.129377 254.869 0.148962 255.119 0.158043C255.369 0.167124 255.59 0.165005 255.737 0.152126C256.404 0.114145 257.474 0.149127 258.025 0.0849697C258.221 0.0702152 258.502 0.0681551 258.816 0.0791501C259.13 0.0901462 259.458 0.113485 259.741 0.144984C259.431 0.154812 259.156 0.170289 258.92 0.191071C258.076 0.258586 258.386 0.371393 259.459 0.535398C261.106 0.526378 262.788 0.52894 264.314 0.49803C265.165 0.470283 266.207 0.478956 267.324 0.523078C268.442 0.567198 269.589 0.645016 270.637 0.747781C271.017 0.787298 271.449 0.814665 271.849 0.824455C272.248 0.834243 272.586 0.825732 272.794 0.800608C272.924 0.771552 272.964 0.73478 272.911 0.693479L271.835 0.621204C271.835 0.621204 271.877 0.582638 271.886 0.574067L273.434 0.567588C274.253 0.567363 275.107 0.578722 275.881 0.575486C277.018 0.553963 278.315 0.56596 279.694 0.610732C280.966 0.656642 282.216 0.691343 283.432 0.714532C284.61 0.738399 285.463 0.66231 286.584 0.650159C287.431 0.641 288.364 0.650787 289.345 0.679141C291.04 0.729427 292.596 0.729521 293.87 0.679412C295.357 0.94939 296.079 0.993288 297.459 0.920334L298.107 0.899495L298.285 0.957401L298.78 0.944668C299.707 0.933326 300.635 0.921989 301.602 0.917944C302.947 0.942999 304.4 1.01041 305.818 1.11358C306.087 1.13166 306.453 1.19305 306.689 1.24111C306.926 1.28918 307.441 1.43418 307.819 1.52857C307.407 1.59748 306.95 1.66337 306.622 1.74259C306.59 1.75612 306.593 1.77226 306.632 1.7897C306.671 1.80715 306.745 1.82542 306.847 1.84303C306.95 1.86065 307.078 1.87713 307.222 1.89115C307.366 1.90516 307.522 1.91632 307.676 1.92374C307.978 1.93971 308.275 1.95036 308.557 1.95525C309.943 1.96367 311.27 1.95741 312.525 1.93652C312.984 1.90705 313.611 1.90425 314.308 1.92857C315.006 1.95289 315.733 2.00294 316.374 2.07078C318.017 2.03005 319.926 2.04208 321.969 2.10604C324.13 2.06714 326.74 2.1458 328.759 2.06058C328.712 2.10343 328.921 2.17721 329.211 2.21971C329.671 2.28428 330.191 2.34411 330.751 2.39669L335.02 2.49934C335.18 2.55212 335.379 2.60555 335.616 2.65894C335.778 2.70111 336.061 2.74237 336.404 2.77398C336.747 2.8056 337.123 2.82507 337.453 2.82828C338.303 2.84392 339.015 2.80895 340.028 2.89536C338.468 2.97704 336.364 2.96618 334.091 2.86474C331.956 2.78758 329.902 2.74902 328.005 2.75049C327.38 2.7499 326.556 2.75441 326.361 2.80108C325.928 2.93299 324.795 2.91214 323.474 2.88781C322.435 2.86117 321.487 2.86416 320.707 2.89653C319.927 2.9289 319.336 2.98972 318.985 3.07399C318.896 3.15541 319.109 3.22491 320.02 3.27228L323.809 3.46226C324.367 3.43783 324.897 3.40892 325.396 3.37564C326.237 3.33144 327.275 3.31931 328.429 3.34019C329.584 3.36107 330.824 3.4144 332.053 3.49603C332.681 3.53819 333.309 3.58035 333.764 3.56032C334.164 3.53731 334.531 3.50976 334.865 3.47787C334.933 3.4565 334.959 3.4319 334.945 3.40502C335.186 3.41752 335.428 3.43377 335.663 3.45321C337.533 3.67999 338.982 3.67606 340.298 3.61724C340.654 3.59975 340.925 3.57196 341.286 3.55019C341.647 3.52842 341.774 3.50016 342.102 3.50839C344.717 3.58277 345.47 3.33435 347.674 3.34432C347.781 3.33462 347.848 3.32011 347.868 3.30214C347.887 3.28417 347.859 3.26331 347.786 3.24148C347.631 3.22177 347.45 3.20483 347.262 3.19219C347.074 3.17956 346.884 3.17166 346.71 3.16921C345.695 3.13733 344.8 3.1471 344.176 3.19686C343.734 3.21719 343.266 3.23339 342.775 3.24537L340.568 2.88563C342.706 2.91861 344.728 2.91839 346.587 2.88498C346.993 2.86623 347.68 2.89855 348.251 2.90469L352.451 2.93831C353.314 2.9411 354.05 2.88471 355.254 3.01617C355.254 3.01617 356.05 3.03736 356.262 3.01941C356.474 3.00146 357.415 2.88982 357.976 2.8171C358.627 2.83783 359.529 2.89378 359.935 2.87503C360.643 2.82895 361.257 2.76988 361.764 2.69888L364.301 2.80024C364.298 2.89028 364.206 2.97498 364.025 3.05306C363.827 3.12837 363.834 3.21876 364.045 3.31685C364.255 3.41494 364.664 3.51795 365.237 3.61745L367.743 4.14444C368.152 4.17973 368.587 4.20348 368.991 4.21247C369.395 4.22147 369.746 4.21527 369.999 4.19471C371.077 4.13369 372.284 4.08598 373.362 4.02496C374.753 4.11832 374.395 4.26911 375.406 4.40138L378.68 4.62122C379.18 4.82494 379.689 5.0201 378.17 5.0883C377.868 5.10023 378.071 5.17829 377.796 5.21037C378.977 5.36326 380.275 5.40902 381.472 5.50319C381.944 5.57091 382.338 5.6426 382.637 5.71479C382.964 5.82348 383.628 5.93452 384.485 6.02391C385.343 6.1133 386.324 6.17388 387.218 6.19257C388.717 6.2498 390.252 6.33576 391.755 6.44659C392.268 6.48513 392.795 6.51321 393.301 6.52894C393.807 6.54466 394.28 6.54767 394.688 6.53776C396.142 6.52031 397.372 6.4603 398.299 6.36163C399.216 6.2779 400.451 6.23755 401.894 6.24423C404.361 6.40986 404.859 6.65945 406.352 6.87929L403.773 6.90393C403.679 6.98964 403.85 7.09769 402.793 7.09571C401.736 7.09374 402.272 7.17574 402.615 7.25855C402.736 7.30021 402.971 7.34306 403.282 7.37985C403.593 7.41664 403.959 7.4451 404.32 7.46043L406.515 7.56642C407.294 7.60676 408.047 7.62399 408.692 7.61621C409.338 7.60843 409.851 7.57595 410.174 7.52233C410.546 7.47141 411.059 7.43697 411.681 7.42112C412.475 7.37958 413.127 7.31781 413.615 7.23814L416.714 7.35422C416.845 7.27416 417.271 7.21802 417.919 7.1953C418.567 7.17258 419.396 7.18466 420.268 7.22951L422.357 7.30076C424.679 7.37849 425.189 7.3529 425.869 7.12718L423.084 6.724C423.489 6.6178 423.88 6.52445 424.271 6.43111C423.577 6.29828 422.651 6.17265 421.587 6.06697C420.595 5.95341 419.574 5.84343 418.529 5.73745C417.396 5.62915 416.199 5.53498 414.792 5.4129C414.546 5.3734 414.189 5.30344 413.733 5.23604C413.277 5.17053 412.801 5.10632 412.306 5.04365C412.4 4.95795 412.484 4.88082 412.304 4.78133C413.171 4.81308 414.066 4.8686 414.91 4.94289C415.753 5.01718 416.518 5.1079 417.135 5.20688C417.239 5.22444 417.366 5.24092 417.508 5.25523C417.65 5.26954 417.804 5.28133 417.959 5.28981C419.482 5.35063 420.209 5.47768 420.954 5.63346C421.455 5.71309 422.101 5.78381 422.803 5.8358C424.149 5.92615 425.466 6.04221 426.753 6.14241C427.147 6.17579 427.556 6.20327 427.964 6.22372C429.309 6.28871 430.662 6.3796 431.956 6.49175C432.378 6.52025 432.783 6.55798 433.137 6.60176C433.492 6.64555 433.784 6.69412 433.992 6.74343C433.671 6.79746 433.499 6.86565 433.484 6.9439C433.427 6.99533 434.372 7.10015 434.819 7.17613C435.265 7.25211 434.39 7.21631 434.092 7.22395C432.873 7.23865 432.646 7.26946 433.377 7.43809C433.621 7.49112 433.783 7.54417 433.853 7.59396C433.922 7.64375 433.899 7.68921 433.783 7.72752C433.609 7.88608 433.082 8.01625 432.72 8.17132C433.282 8.27348 434.222 8.38258 434.324 8.50905C434.374 8.5371 434.478 8.56683 434.629 8.59608C434.78 8.62532 434.975 8.65335 435.199 8.67815C435.789 8.73167 436.326 8.79568 436.768 8.86522C437.209 8.93475 437.544 9.00794 437.746 9.07913C437.812 9.10857 437.971 9.1398 438.192 9.16657C438.412 9.19334 438.678 9.21366 438.936 9.22345C439.244 9.23548 439.519 9.23389 439.706 9.21902C439.892 9.20415 439.975 9.17712 439.938 9.14353C439.945 9.08045 439.905 9.01467 439.816 8.94677C439.868 8.89963 439.919 8.8525 439.716 8.77443C440.635 8.80292 441.6 8.86001 442.506 8.93951C443.413 9.01901 444.225 9.11787 444.856 9.22534C445.553 9.33653 446.195 9.45329 446.968 9.58336C446.809 9.72905 446.809 9.72905 448.453 9.98664L457.175 10.1123L458.962 10.2829C460.629 10.4316 461.025 10.4214 462.072 10.3445L462.777 10.2722C464.257 10.3716 465.962 10.4861 466.888 10.2998C467.188 10.4212 467.385 10.462 467.316 10.4804C466.874 10.6595 466.107 10.8115 465.043 10.9303C464.772 10.9581 464.581 11.0005 464.265 11.0253C463.246 11.1652 463.01 11.3813 463.605 11.6295C463.9 11.7393 464.328 11.8518 464.877 11.9633C464.074 12.118 463.011 12.2462 461.716 12.3444C460.616 12.4204 459.711 12.5222 459.026 12.6468C458.411 12.7724 457.489 12.8669 456.315 12.9247C455.719 12.9493 455.284 12.9978 455.054 13.0654C454.985 13.2484 455.143 13.4444 455.523 13.6489C455.595 13.7111 455.798 13.7784 456.118 13.8453C456.437 13.9122 456.864 13.9771 457.364 14.0347C457.364 14.0347 457.605 14.0785 457.721 14.1047C457.817 14.3263 457.456 14.5216 456.661 14.6775C456.531 14.7217 456.265 14.7537 455.891 14.7699C455.517 14.7861 455.049 14.786 454.539 14.7695C453.46 14.7431 452.453 14.7399 451.41 14.725C450.286 14.7041 449.296 14.7206 448.544 14.7729C447.792 14.8252 447.306 14.9114 447.137 15.0223C447.126 15.0537 447.093 15.0838 447.038 15.1123C447.006 15.127 446.989 15.1428 446.987 15.1594L449.382 15.5226L446.672 15.6673C446.513 15.813 447.814 15.9003 448.466 16.0085L448.063 16.0688C447.544 16.103 446.845 16.0377 446.212 15.9998L445.584 15.9576L445.509 16.0262C445.118 16.1195 443.693 16.0146 443.136 16.083C442.58 16.1515 442.977 16.2287 443.811 16.3031C444.39 16.3584 445.012 16.4024 445.63 16.432C446.248 16.4615 446.846 16.4758 447.379 16.4737C447.698 16.4664 447.962 16.4497 448.155 16.4246C449.28 16.3178 450.523 16.226 451.874 16.1499C452.91 16.0815 454.207 16.0525 455.674 16.0647C456.105 16.0596 456.624 16.0758 457.141 16.1105C457.658 16.1451 458.139 16.1961 458.5 16.2544L459.26 16.2641C459.26 16.2641 459.676 16.3242 459.617 16.334C459.328 16.5121 459.664 16.7298 460.575 16.9549L459.783 16.9753C458.65 16.9544 459.368 17.0901 459.199 17.1569C458.394 17.1443 457.348 17.0879 456.967 17.1726L456.396 17.1665L456.62 17.1815L456.891 17.1537L457.956 17.2805C457.452 17.3018 457.086 17.3278 456.64 17.3393C456.394 17.3492 456.198 17.3669 456.064 17.3911C455.93 17.4153 455.861 17.4456 455.86 17.4801C455.862 17.5333 455.729 17.578 455.475 17.6101C455.22 17.6421 454.853 17.6604 454.408 17.6632C453.877 17.6643 453.574 17.7221 453.262 17.7426L454.615 18.091C454.615 18.091 453.942 18.0459 454.308 18.1072L454.355 18.0644L455.174 18.1516C455.765 18.228 456.178 18.2466 456.527 18.1918C456.875 18.137 456.796 18.2099 456.963 18.1889C456.902 18.2446 456.523 18.2835 456.197 18.3169C455.821 18.3431 455.397 18.3624 454.931 18.3744C455.77 18.6194 455.811 18.6267 454.584 18.6915C453.358 18.7564 453.781 18.8538 452.755 18.8677C451.728 18.8816 452.895 19.0473 453.582 19.0796C454.091 19.1009 454.61 19.134 455.104 19.1766C455.598 19.2193 456.054 19.2705 456.441 19.3268L456.235 19.5153C455.933 19.4997 455.631 19.4794 455.338 19.4551C454.344 19.3516 453.44 19.254 452.555 19.3143L452.976 19.4575L449.89 19.3745C449.969 19.4818 450.44 19.6041 451.202 19.7155C451.087 19.7768 451.017 19.8412 450.991 19.9084C450.939 19.9555 450.635 19.9259 450.437 19.931C449.73 19.9388 449.15 19.9708 448.747 20.024C448.345 20.0772 448.132 20.15 448.129 20.236C448.049 20.3088 449.136 20.46 449.816 20.455C451.512 20.4696 453.347 20.5256 455.22 20.6201C456.362 20.6324 456.523 20.4408 458.403 20.5716C458.44 20.6601 458.199 20.7317 457.717 20.7756C457.235 20.8196 456.537 20.8335 455.729 20.8153C456.188 21.0117 458.732 21.0629 458.845 21.2682C458.211 21.2537 457.534 21.2196 456.88 21.1692C456.225 21.1188 455.617 21.054 455.114 20.981C455.006 20.963 454.87 20.9464 454.719 20.9328C454.567 20.9191 454.406 20.9089 454.249 20.9029C454.092 20.897 453.945 20.8956 453.822 20.8988C453.698 20.9021 453.602 20.9098 453.542 20.9214C453.895 20.9957 454.282 21.0815 454.724 21.1618C455.166 21.242 455.272 21.2768 455.591 21.2936C457.968 21.4532 459.099 21.7407 461.155 21.9293C461.694 21.9655 461.761 22.0804 461.293 22.0674C460.849 22.0544 460.446 22.0561 460.131 22.0723C459.816 22.0885 459.6 22.1185 459.508 22.1591C459.163 22.2064 458.733 22.2441 458.23 22.2711C460.339 22.5661 462.854 22.8267 465.538 23.0286C466.047 23.0685 466.577 23.0928 467.051 23.098C468.55 23.0983 470.14 23.1217 471.79 23.1677C472.375 23.1803 472.916 23.1791 473.382 23.1643C474.913 23.1291 476.129 23.2061 477.24 23.4233L479.078 23.7675C479.017 23.8232 478.709 23.8853 478.471 23.9705L479.907 24.1543L490.866 23.731L493.066 24.1409L496.22 24.1181C496.462 24.1299 496.705 24.1462 496.938 24.1663C497.576 24.2873 498.075 24.4036 498.767 24.5191C499.459 24.6345 500.696 24.6486 501.558 24.7847C502.42 24.9207 503.284 24.9235 504.351 25.0044C504.452 25.1097 504.348 25.2045 504.047 25.2829C503.948 25.3729 503.406 25.4285 503.312 25.5142C503.323 25.6008 503.121 25.6744 502.726 25.7281C502.331 25.7819 501.755 25.8143 501.05 25.8222C499.075 26.0067 496.694 26.138 493.979 26.2123C493.741 26.2176 493.543 26.2301 493.398 26.2489C493.253 26.2676 493.165 26.2923 493.138 26.3213C493.141 26.4054 492.96 26.4781 492.608 26.534C492.255 26.5899 491.74 26.6276 491.099 26.6445C490.929 26.6478 490.8 26.6584 490.729 26.6748C490.486 26.6854 490.309 26.7056 490.215 26.7336C490.122 26.7616 490.114 26.7963 490.193 26.8345C490.273 26.8727 490.436 26.9129 490.668 26.9514C490.9 26.99 491.193 27.0254 491.518 27.0543C491.989 27.1009 492.471 27.1456 492.961 27.188C492.932 27.2137 492.447 27.2179 492.517 27.241C492.709 27.315 492.754 27.3842 492.647 27.4434C492.541 27.5025 492.287 27.5498 491.904 27.5816L494.523 28.1807C496.113 28.2636 497.673 28.4044 498.906 28.5761C498.907 28.6042 498.836 28.6278 498.7 28.6445C498.563 28.6611 498.366 28.6703 498.128 28.6711C497.489 28.6833 496.885 28.7072 496.196 28.7207C495.775 28.7309 495.424 28.7531 495.165 28.7862C494.906 28.8194 494.742 28.8627 494.685 28.9137L496.223 29.1365C495.73 29.1908 495.365 29.2169 495.039 29.2502C495.224 29.3203 495.541 29.3927 495.966 29.4619C496.391 29.5312 496.913 29.5953 497.492 29.6495C497.647 29.6606 497.805 29.6688 497.957 29.6735C498.109 29.6781 498.252 29.6792 498.377 29.6767C499.568 29.6003 500.961 29.7352 502.314 29.8628C503.667 29.9905 504.401 30.0674 505.4 30.1667L507.311 30.18C507.795 30.227 508.227 30.2822 508.572 30.3414C508.917 30.4005 509.166 30.4618 509.298 30.5204C509.195 30.6147 508.289 30.563 507.749 30.5727C506.467 30.6314 504.782 30.6189 502.973 30.5372C502.524 30.5071 502.064 30.5314 501.628 30.5343C500.686 30.5461 499.781 30.5652 498.917 30.5915C498.348 30.6161 497.816 30.6464 497.325 30.6824C497.194 30.8024 499.259 30.8951 498.087 30.9544C498.491 30.9815 498.642 31.0192 498.85 31.0056C500.179 31.0835 501.489 31.122 502.628 31.1167C504.813 31.1001 507.294 31.1548 509.868 31.2762C512.647 31.402 515.312 31.4548 517.644 31.4303C518.532 31.4289 519.525 31.4546 520.547 31.5056C521.753 31.5762 522.951 31.6206 524.063 31.6359C524.432 31.6365 524.842 31.6485 525.261 31.671C525.679 31.6935 526.095 31.7259 526.474 31.7656C526.441 31.7956 526.08 31.8173 526.16 31.8319C527.311 32.0564 527.778 32.2901 529.549 32.5194C530.76 32.6007 532.151 32.6941 532.943 32.5863C533.735 32.4785 533.451 32.3858 531.875 32.1098C532.217 32.1058 532.629 32.1187 533.039 32.1462C533.448 32.1738 533.83 32.2142 534.117 32.2604L535.48 32.4669L536.709 32.6644C536.601 32.7629 536.517 32.8401 536.428 32.9215C536.287 33.008 536.442 33.1132 536.869 33.2225C537.127 33.2822 537.352 33.3418 537.541 33.401C538.309 33.6375 538.531 33.8611 538.183 34.0467C537.516 34.3134 536.587 34.5589 535.407 34.7802C534.161 34.9955 533.478 35.2671 532.452 35.5017C531.928 35.6085 531.292 35.7043 530.55 35.788C529.143 35.9741 527.601 36.1512 526.189 36.3416C524.777 36.5319 523.183 36.6687 521.616 36.8256C519.281 37.0119 516.758 37.1727 514.06 37.3072C512.39 37.4251 510.676 37.54 509.131 37.6755C507.307 37.8282 505.164 37.9379 502.756 38.0018C500.629 38.0783 498.729 38.1914 497.091 38.339C496.92 38.355 496.784 38.3753 496.689 38.3994C496.394 38.5499 495.568 38.6559 494.336 38.7014C494.411 38.7454 494.507 38.7903 494.623 38.8356C494.794 38.8897 494.829 38.9403 494.725 38.9808C494.62 39.0214 494.381 39.05 494.037 39.0631C493.052 39.1004 492.233 39.1637 491.618 39.2502C491.392 39.2719 491.251 39.3035 491.209 39.3424C491.166 39.3812 491.223 39.426 491.374 39.473C491.508 39.5215 491.518 39.566 491.402 39.6009C491.287 39.6358 491.052 39.6594 490.727 39.6688C489.893 39.7146 489 39.7514 488.054 39.7791C486.042 39.8401 483.7 39.8394 481.172 39.777C480.903 39.7589 480.632 39.7867 480.318 39.7656C478.53 39.6957 476.869 39.6848 475.537 39.7344C473.975 39.7538 472.343 39.7499 470.696 39.7589C468.316 39.7529 466.122 39.7897 464.172 39.8683C461.945 39.7923 460.693 39.9245 458.812 39.927C457.076 39.9406 455.43 39.9731 453.891 40.0244C451.409 40.0923 448.937 40.1517 446.491 40.2313C444.196 40.2692 442.084 40.3417 440.188 40.4474C439.462 40.4953 438.147 40.4208 437.653 40.521C437.158 40.6211 436.16 40.6093 435.353 40.6425L432.808 40.7246C432.37 40.7442 431.889 40.7565 431.371 40.7616C429.005 40.7683 427.366 40.902 425.169 40.9293L424.945 40.9143C421.045 41.1131 416.582 41.2222 411.687 41.2385C408.828 41.2995 405.702 41.2965 402.668 41.3412C401.944 41.4306 400.235 41.3205 399.327 41.4021C398.42 41.4838 396.937 41.4302 395.767 41.4437C394.597 41.4571 393.453 41.4907 392.203 41.4895C391.116 41.4899 390.2 41.5263 389.535 41.5956C388.018 41.71 386.168 41.7773 384.07 41.7944C381.293 41.8241 378.667 41.8916 375.843 41.8768C375.883 41.9602 375.71 42.0311 375.341 42.0823C374.972 42.1335 374.42 42.1631 373.743 42.1681C370.723 42.2 367.984 42.2829 364.924 42.3074L364.105 42.3076L354.953 42.3555C352.488 42.3647 350.112 42.38 347.597 42.3905C346.655 42.3273 346.632 42.4361 345.981 42.4154C345.798 42.3618 345.584 42.3381 345.263 42.3672L345.193 42.4315L334.748 42.5168C330.659 42.5791 326.357 42.5978 321.88 42.5727C320.818 42.579 319.826 42.6003 318.921 42.6363C318.083 42.6494 317.208 42.6552 316.303 42.6536C315.078 42.6374 313.882 42.6293 312.718 42.6292C309.658 42.6537 306.447 42.6405 303.096 42.6225C299.746 42.6045 297.207 42.6364 294.225 42.634C292.205 42.6318 290.195 42.621 288.104 42.5956C287.106 42.5838 285.876 42.5196 284.842 42.4962C283.809 42.4728 283.471 42.4731 283.335 42.51C282.885 42.6132 281.754 42.5464 280.85 42.5363C279.088 42.5192 278.837 42.484 278.359 42.2173L280.522 42.1325C281.052 42.1051 281.718 42.1003 282.457 42.1185C283.197 42.1367 283.983 42.1773 284.741 42.2364C285.04 42.2617 285.352 42.2818 285.659 42.2953C285.967 42.3088 286.264 42.3156 286.533 42.3153C288.715 42.3008 290.867 42.2705 292.964 42.2458L293.271 42.2295L293.29 41.9917C293.013 41.9683 292.725 41.949 292.438 41.9344L281.918 41.7801C279.504 41.7422 276.997 41.6567 274.628 41.6218C272.259 41.5869 270.982 41.5656 269.144 41.5296C268.368 41.509 267.577 41.4821 266.777 41.4488C266.823 41.4259 266.85 41.4016 266.857 41.376C266.899 41.3374 266.955 41.286 266.615 41.2448C266.244 41.1865 265.748 41.1368 265.226 41.1055C264.736 41.0849 264.261 41.0732 263.82 41.0709C261.686 41.051 259.249 40.9253 257.029 40.7207L256.254 40.8573C252.919 40.7806 249.535 40.7051 246.052 40.6323C245.354 40.6124 244.622 40.5743 243.911 40.5207C243.148 40.4695 242.447 40.3626 241.644 40.3041C240.851 40.262 240.063 40.2292 239.296 40.2062C239.503 40.1711 239.778 40.143 240.109 40.1229C240.435 40.1158 240.673 40.0939 240.788 40.0602C240.902 40.0266 240.888 39.983 240.747 39.9357C240.499 39.8546 240.389 39.7783 240.93 39.7686C241.429 39.7501 241.786 39.7101 241.959 39.6532C242.132 39.5964 242.114 39.5251 241.906 39.4478C241.815 39.4026 241.751 39.3583 241.714 39.3153L241.49 39.3002C240.75 39.1402 239.273 39.0824 238.212 38.9514C237.712 38.9134 237.193 38.8915 236.739 38.8893C235.566 38.8611 234.424 38.8488 233.211 38.8134C232.632 38.7971 232.026 38.7673 231.429 38.7259C230.577 38.6687 230.487 38.6627 229.992 38.4547C230.761 38.4583 231.37 38.4272 231.717 38.3667C232.064 38.3062 232.127 38.2199 231.896 38.1225C231.262 37.9098 230.593 37.6854 227.725 37.5343C228.66 37.5268 229.56 37.512 230.421 37.4899C230.672 37.4852 230.859 37.4696 230.959 37.4451C231.058 37.4207 231.065 37.3887 230.978 37.3534C230.891 37.318 230.714 37.281 230.472 37.2473C230.229 37.2136 229.933 37.1848 229.621 37.1648C228.107 37.0445 226.528 36.9639 225.061 36.9322C223.824 36.9182 222.708 36.9261 221.264 36.9257L219.56 36.8113C219.588 36.7856 219.337 36.7504 219.401 36.7362C219.834 36.6043 220.312 36.4754 220.804 36.3337C220.018 36.2571 219.337 36.1647 218.84 36.067C218.342 35.9693 218.047 35.8703 217.989 35.7813C217.947 35.7545 217.958 35.73 218.022 35.7096C218.086 35.6893 218.201 35.6735 218.359 35.6635C218.808 35.6463 219.154 35.6134 219.371 35.5674C219.589 35.5214 219.671 35.4635 219.612 35.3981L218.287 35.1573C214.296 34.9855 210.377 34.8628 206.602 34.7913L203.194 34.7373C202.783 34.6729 202.91 34.6447 203.297 34.6431C203.684 34.6415 204.772 34.6593 205.532 34.6689C206.188 34.6816 206.771 34.6733 207.224 34.6448C207.677 34.6164 207.984 34.5688 208.117 34.5067L206.973 34.2321C207.029 34.1807 207.108 34.1078 207.729 34.1127C208.153 34.1067 208.465 34.0808 208.616 34.0392C208.766 33.9975 208.746 33.9426 208.558 33.8831C208.529 33.8401 208.572 33.801 208.684 33.7674C209.602 33.7647 210.515 33.7662 211.348 33.7531C211.736 33.7488 212.063 33.7328 212.308 33.7064C212.553 33.68 212.71 33.6437 212.767 33.6C212.797 33.5573 212.724 33.5088 212.553 33.4582C212.383 33.4076 212.12 33.3564 211.785 33.3087C210.48 33.2498 209.286 33.249 208.466 33.3066C208.173 33.3517 207.703 33.3764 207.118 33.3773C206.532 33.3783 205.859 33.3554 205.186 33.3118C204.416 33.2615 203.647 33.2394 203.018 33.2495C202.39 33.2595 201.942 33.3011 201.756 33.3667C200.965 33.3412 200.264 33.3217 199.573 33.2937C198.757 33.2583 197.986 33.2479 197.343 33.2635C196.314 33.2746 195.205 33.2681 194.042 33.2443C190.688 33.1847 187.33 33.1295 184.084 33.1046C183.225 33.0976 182.482 33.1167 181.632 33.101C180.783 33.0854 180.11 33.1277 179.048 33.0425C178.846 33.0293 178.642 33.0208 178.453 33.0177C178.264 33.0146 178.096 33.017 177.96 33.0247C176.094 33.092 173.907 33.1015 171.526 33.0527C168.265 33.0407 164.884 33.0069 161.618 32.9992C160.66 33.0058 159.755 33.0235 158.912 33.0521C158.271 33.0694 157.599 33.0811 156.9 33.0872C156.364 33.0926 155.852 33.0766 155.943 33.1701C156.033 33.2635 155.23 33.205 154.768 33.1878C153.178 33.1425 151.554 33.0811 149.913 33.0044C148.296 32.9211 146.711 32.8725 145.254 32.8618C144.202 32.8555 143.117 32.8793 141.764 32.7516C141.815 32.7045 141.867 32.6574 142.161 32.6081C141.058 32.4727 139.799 32.3562 138.488 32.2682C137.178 32.1802 135.854 32.1233 134.626 32.1022L132.932 31.8459C132.515 31.8158 132.089 31.7939 131.68 31.7814C131.272 31.769 130.889 31.7664 130.555 31.7737C130.297 31.7774 129.983 31.7679 129.67 31.7469C129.357 31.7258 129.066 31.6947 128.851 31.6593C128.529 31.6141 128.136 31.5752 127.721 31.5473C127.306 31.5195 126.888 31.5039 126.518 31.5027C125.355 31.4748 124.112 31.4104 122.919 31.3162C122.609 31.2609 122.415 31.2038 122.36 31.1519C122.306 31.1 122.393 31.0556 122.612 31.0242C122.965 30.9686 123.163 30.8979 123.194 30.8162C123.225 30.7345 123.089 30.6436 122.795 30.5489C122.644 30.4908 122.593 30.4357 122.646 30.3871C122.699 30.3385 122.855 30.2973 123.104 30.2661C124.032 30.1214 123.784 30.0403 122.265 29.8004C122.018 29.7604 121.721 29.723 121.391 29.6906C121.062 29.6581 120.708 29.6315 120.352 29.6121C119.517 29.573 118.693 29.5439 117.895 29.5254C117.447 29.4953 116.987 29.5196 116.47 29.5079C113.886 29.4494 113.508 29.355 112.671 29.1516L112.061 29.0048C110.93 28.886 109.692 28.7873 108.439 28.7158C107.185 28.6443 105.945 28.6019 104.809 28.5916C104.358 28.5908 103.839 28.5705 103.332 28.5338C101.682 28.4215 100.01 28.3438 98.4292 28.3058C97.4437 28.2844 96.3815 28.2291 95.3701 28.1465C94.3586 28.0639 93.4409 27.9575 92.7273 27.8402C92.0862 27.7344 91.2475 27.6395 90.3279 27.5687C89.2514 27.4964 89.1517 27.4115 89.7528 27.3461C90.354 27.2806 91.3608 27.1964 92.2545 27.1277C92.5654 27.1043 92.7581 27.0663 92.8111 27.0178C92.864 26.9694 92.7751 26.9125 92.5543 26.8534C92.4125 26.7523 92.3879 26.6564 92.4811 26.5679C92.531 26.5312 92.4966 26.489 92.3803 26.4443C92.264 26.3996 92.0685 26.3534 91.807 26.3089C91.5454 26.2643 91.224 26.2223 90.8643 26.1859C90.5045 26.1494 90.1148 26.1192 89.7215 26.0974C88.0619 25.986 86.4472 25.8776 84.7548 25.7962C84.0455 25.7578 83.337 25.7102 82.6466 25.6546C81.2334 25.5171 79.7215 25.4031 78.1987 25.3192C77.4759 25.2817 76.7694 25.216 76.2318 25.1365C74.5364 24.9223 72.9742 24.6971 71.5735 24.465C71.2358 24.393 70.7941 24.3227 70.2759 24.2587C69.7577 24.1946 69.1743 24.1381 68.5622 24.0926C68.0688 24.0595 67.6672 23.9865 67.2869 23.938C67.0106 23.8256 66.981 23.7216 67.2011 23.6358C67.4212 23.5501 67.8838 23.4853 68.5453 23.4475C69.1725 23.4022 69.7596 23.3497 70.3018 23.2941C70.9554 23.2491 71.7325 23.2221 72.6041 23.2141C73.6364 23.1899 74.3997 23.121 74.7945 23.0162C71.9687 22.8264 69.2814 22.554 66.8045 22.6177L64.9225 22.4453C64.9974 22.3768 65.063 22.3168 65.1239 22.2611C65.5715 22.1597 65.7113 22.0318 65.5315 21.8883C65.3832 21.8188 65.3966 21.7557 65.5702 21.7051C65.7439 21.6546 66.0716 21.6185 66.5202 21.6005C69.1779 21.4155 72.2513 21.2907 74.7436 21.0809C75.525 21.0415 76.4398 21.0236 77.4494 21.028C78.4261 21.0153 78.3853 20.9206 77.2612 20.8037C76.6303 20.7427 75.9873 20.6841 75.3345 20.6284C72.4558 20.6191 71.2832 20.8991 67.9981 20.8212L66.4756 20.4521C66.0638 20.4464 65.6642 20.4442 65.2793 20.4454L59.7711 20.5954C59.3124 20.6029 58.9552 20.6285 58.7403 20.6694C58.5254 20.7102 58.4614 20.7647 58.5554 20.8265C58.5927 20.9022 58.5169 20.9716 58.3306 21.0322C58.2105 21.0747 58.2873 21.1311 58.5443 21.1891C59.1234 21.32 58.3803 21.3391 57.911 21.372C57.7911 21.3752 57.6528 21.3749 57.5041 21.371C57.3555 21.3671 57.1994 21.3598 57.045 21.3494C56.8907 21.3391 56.741 21.3259 56.6048 21.3106C56.4686 21.2954 56.3485 21.2784 56.2515 21.2606C55.4246 21.1361 54.7015 21.0047 53.8888 20.8674C54.4658 20.7359 53.7869 20.5201 54.6872 20.4012C54.7879 20.3775 54.8282 20.3485 54.8057 20.3161C54.7831 20.2838 54.6981 20.2487 54.5559 20.213C54.1893 20.1209 54.0147 20.0311 54.0497 19.9527C54.0847 19.8743 54.3281 19.8101 54.7553 19.7664L54.8068 19.7193C53.6801 19.5608 53.9786 19.4199 53.5361 19.2522L52.4522 19.1426C49.7556 18.8788 49.7508 18.883 47.4292 18.8928C46.9612 18.7923 47.5558 18.7771 48.0016 18.7656L51.7358 18.6529C54.1773 18.5777 56.6897 18.5256 59.417 18.4971C62.1443 18.4687 65.1849 18.3738 68.0039 18.3055C68.1465 18.3002 68.2555 18.2898 68.3219 18.275C68.3883 18.2603 68.41 18.2417 68.3855 18.2207C68.2734 18.1981 68.1267 18.1763 67.9563 18.1569C67.7859 18.1375 67.596 18.121 67.4006 18.1086C66.5036 18.0484 65.5831 18.0096 64.6271 17.9592L62.845 17.8717L62.2967 17.7567C61.9399 17.6868 61.6961 17.6014 61.2214 17.5511C60.8302 17.5137 60.4057 17.4852 59.9918 17.4687C59.5779 17.4523 59.1899 17.4484 58.8683 17.4576C57.9767 17.4805 57.1699 17.5137 56.3184 17.5439C55.4669 17.5741 54.9976 17.607 54.2592 17.6219C52.7589 17.6286 51.3091 17.6464 49.9159 17.6752C48.7424 17.7434 47.657 17.8241 46.6665 17.917C46.0486 17.9537 45.4708 17.9977 44.4157 17.9499C43.9151 17.9065 43.4834 17.8495 43.197 17.789C42.9106 17.7285 42.788 17.6685 42.8511 17.6194C42.9077 17.581 43.068 17.5506 43.3168 17.5311C43.5656 17.5116 43.8946 17.5036 44.2729 17.5079C45.332 17.5009 46.3113 17.4771 47.1912 17.4371C48.4158 17.3646 49.9066 17.3333 51.5766 17.3451C52.143 17.3556 52.5226 17.3167 53.018 17.3039C53.5134 17.2912 53.933 17.2596 54.4853 17.2829C56.2012 17.3429 57.0239 17.2509 58.0521 17.1912C58.4002 17.1647 58.6159 17.1219 58.6754 17.0674C58.7349 17.013 58.636 16.949 58.3894 16.8826C57.9149 16.7504 57.3343 16.6174 56.6569 16.4857C56.3082 16.421 55.8615 16.3596 55.3518 16.3062C54.8421 16.2528 54.2832 16.209 53.7191 16.1781C53.3815 16.0971 53.2014 16.0174 53.195 15.9463C53.1887 15.8752 53.3564 15.8149 53.6829 15.7709C54.515 15.6704 55.2527 15.5681 57.1171 15.6243C57.9937 15.6457 58.8187 15.6499 59.5592 15.6365C61.2018 15.6181 63.0965 15.6583 65.0648 15.7531C65.5741 15.7774 66.0747 15.794 66.5517 15.8024C69.9546 15.8607 73.1967 15.8898 76.4482 15.9103C78.1707 15.9201 79.9073 15.9171 81.7054 15.9459C85.9223 16.0082 89.7609 15.9762 93.8312 15.9965C95.9629 16.0069 97.871 15.9649 99.4553 15.8727C99.7638 15.8418 100.029 15.8057 100.247 15.7649C99.1972 15.6578 98.044 15.5729 96.898 15.5185C95.7519 15.4641 94.6514 15.442 93.7018 15.4542C93.1799 15.4842 92.5051 15.4897 91.753 15.4701C91.0008 15.4504 90.2008 15.4064 89.4421 15.343L91.648 15.3071C93.1107 15.2903 94.6089 15.2851 96.0315 15.2611C98.2915 15.2196 100.386 15.1533 102.727 15.1264C104.616 15.1017 106.307 15.0386 107.746 14.9391C108.786 14.8665 109.973 14.815 111.284 14.7857C112.216 14.77 112.216 14.77 112.812 14.6214C112.339 14.5253 111.728 14.5119 111.152 14.51C107.7 14.4495 104.416 14.4389 101.365 14.4784C99.8253 14.4819 98.4597 14.5227 97.3333 14.5987C97.0575 14.6308 96.3519 14.6156 95.7855 14.6052C94.0101 14.5893 92.3132 14.5939 90.7151 14.6189C88.5058 14.6606 86.0451 14.6507 83.4287 14.5897C82.9327 14.515 83.5037 14.5211 83.5318 14.4954C85.5582 14.4475 87.5445 14.3923 89.6111 14.3516C90.176 14.3371 90.7799 14.33 91.4159 14.3302C93.7904 14.3554 95.769 14.2856 97.0747 14.1306C97.1403 14.0706 97.9992 14.0777 98.3788 14.0388C98.5655 14.0051 98.6899 13.9654 98.7482 13.921C98.1952 13.8103 97.57 13.8097 97.0886 13.8096C95.6919 13.8219 94.3482 13.8453 93.064 13.8797C91.8702 13.9124 90.5488 13.9212 89.1356 13.9057C88.0926 13.8909 87.2009 13.9138 86.1485 13.9076C85.5777 13.8944 84.9867 13.8732 84.3878 13.8445C85.0547 13.7674 85.9612 13.7199 87.0436 13.7055C87.8643 13.6594 88.8905 13.6455 89.0217 13.5255C88.6341 13.4397 88.2022 13.4383 87.8554 13.4472C87.1336 13.4469 86.4364 13.4523 85.7675 13.4634C84.349 13.4878 82.8132 13.4881 81.1924 13.4644C80.3389 13.4555 79.529 13.4582 78.7764 13.4724C77.0706 13.4912 75.4358 13.5333 73.874 13.5526C70.6747 13.5724 67.7567 13.6432 64.6826 13.6806C63.9984 13.6899 63.3851 13.7223 62.4834 13.6663C61.5816 13.6104 61.5415 13.6031 61.435 13.5684C61.1827 13.5104 61.1062 13.4542 61.2215 13.4114C61.4003 13.3715 61.7488 13.3492 62.2047 13.3487C64.9528 13.2851 67.5593 13.1959 70.0079 13.0814C71.0855 13.0585 72.0296 13.0118 72.8074 12.9428C73.4243 12.8953 74.156 12.8639 74.9797 12.8495C76.1777 12.8151 77.4266 12.79 78.7213 12.7741C79.3237 12.7656 79.8359 12.7402 80.2279 12.6993C80.6198 12.6585 80.8835 12.6031 81.0033 12.5364L79.4161 12.3148C79.1667 12.3045 78.9193 12.2955 78.675 12.288L65.5008 12.4476L64.1961 12.452C62.7662 12.4388 62.4167 12.4062 61.0603 12.1495C64.1559 12.0891 66.5893 11.9131 68.1182 11.639C67.7508 11.6096 67.3741 11.5843 66.9968 11.5637C64.523 11.4989 62.1845 11.4817 60.0713 11.5127C58.8161 11.5158 57.5254 11.5074 56.2301 11.5032C56.6089 11.3769 58.0602 11.4145 59.0062 11.386C61.2663 11.3414 63.265 11.2494 64.9381 11.1127C65.515 11.0595 66.2367 11.0254 67.0702 11.0121C67.9044 11.0075 68.6011 10.9753 69.0999 10.9182C69.5987 10.8611 69.8843 10.7809 69.932 10.6845C70.0105 10.5972 70.1799 10.5161 70.4374 10.4424C69.9818 10.3379 69.2583 10.2377 68.4028 10.1608C67.5472 10.0839 66.6184 10.0355 65.7906 10.0247C64.0235 9.9816 62.1906 9.91111 60.3386 9.81499C59.416 9.76651 58.5114 9.73867 57.6835 9.73331C56.9534 9.72919 56.1234 9.69417 55.3203 9.63361C54.5173 9.57304 53.7851 9.49026 53.2355 9.39787C52.4937 9.28367 51.8014 9.16819 51.1091 9.05272C50.4169 8.93724 49.6136 8.79132 48.8055 8.64966C48.093 8.62751 47.3992 8.61327 46.7336 8.60714C46.2156 8.61234 45.6113 8.59689 44.9919 8.56264C44.3724 8.52838 43.7636 8.47674 43.2375 8.41381C43.5461 8.35174 43.895 8.29696 44.2625 8.22504C43.758 8.13008 43.3923 8.03323 43.1875 7.9404C42.9827 7.84757 42.9432 7.7607 43.0713 7.6851C43.1463 7.61654 42.5979 7.50152 42.4084 7.41061C42.1645 7.33223 42.1187 7.25909 42.277 7.20077C42.4353 7.14244 42.7903 7.10167 43.2954 7.08379C43.922 7.05078 44.4319 7.00108 44.8043 6.93671C44.9275 6.92001 44.9902 6.89712 44.9867 6.87016C44.9832 6.84319 44.9136 6.81301 44.7842 6.78237C44.6549 6.75172 44.47 6.72159 44.2463 6.69473C44.0227 6.66787 43.7675 6.64515 43.5042 6.62863C42.6973 6.5818 41.896 6.55145 41.1463 6.53932C39.8547 6.51699 38.6182 6.50297 37.4368 6.49724C36.1303 6.48863 34.6768 6.43548 33.2239 6.34317C31.9231 6.25584 30.7569 6.17753 30.1209 6.01064C29.4849 5.84374 28.4679 5.84906 27.686 5.72756C28.1252 5.61804 28.906 5.54195 29.9494 5.50695C30.6321 5.49446 31.2021 5.46168 31.6227 5.41071C32.0432 5.35973 32.3051 5.29169 32.3914 5.21095L30.0174 4.87217C28.1215 4.71267 27.0725 4.83543 25.024 4.77148L27.1347 4.64642C27.1771 4.63406 27.193 4.61954 27.1816 4.60357C26.9766 4.35062 26.6506 4.29653 24.4929 4.15626L23.2819 4.07495L21.3651 3.97846C21.0582 3.92662 20.8459 3.87256 20.7494 3.82169C20.6529 3.77081 20.6757 3.72491 20.8155 3.68857C21.0963 3.62745 21.1817 3.54935 21.0637 3.46145C20.8778 3.40323 20.8625 3.34956 21.0204 3.30974C21.1782 3.26993 21.4993 3.24649 21.928 3.2435C22.27 3.23887 22.2954 3.17158 22.4815 3.13348C22.6664 3.08096 22.9829 3.04066 23.4094 3.01532C23.8359 2.98999 24.3623 2.9802 24.953 2.98664C26.6945 2.99189 28.3305 2.97218 29.8319 2.92784L29.5628 2.90978C31.1278 2.9487 32.5908 2.95342 33.8808 2.92371C35.1735 2.88631 36.8324 2.9103 38.2055 2.88749C39.3232 2.89273 40.1742 2.84097 40.5779 2.74321C40.9688 2.64986 42.3894 2.67165 43.4773 2.68949C44.1217 2.70103 44.7445 2.70593 45.3391 2.70411C46.1371 2.68298 47.135 2.7029 48.1662 2.76053C48.4756 2.77825 48.7804 2.78763 49.0512 2.78776C51.6728 2.81199 54.2896 2.84049 56.8757 2.85314C57.4727 2.84586 58.1726 2.86253 58.8934 2.90122C59.1964 2.91801 59.4913 2.92497 59.7384 2.92115C63.8247 2.88273 68.4358 2.98075 72.4418 2.92774C72.9273 2.91522 73.4649 2.91262 74.0392 2.92C75.3297 2.95114 76.4504 2.9311 77.2311 2.86292C77.6523 2.82666 78.1923 2.80668 78.8167 2.80426C79.4411 2.80183 80.1361 2.81701 80.8575 2.84883C82.0579 2.89096 83.1674 2.89552 84.0688 2.86205C85.8263 2.83112 87.6747 2.81841 89.5992 2.824C90.1888 2.82941 90.7072 2.81739 91.1141 2.78888C91.521 2.76036 91.8054 2.71611 91.9454 2.65955C91.4728 2.56342 90.956 2.55173 90.4653 2.56018C88.5634 2.53827 86.6662 2.51208 84.7997 2.50176C83.1291 2.47227 81.5262 2.46326 80.0145 2.47485C79.2639 2.48792 78.3272 2.45811 77.409 2.3919C76.2836 2.30806 75.1245 2.2664 74.1661 2.27536C73.4555 2.27758 72.7054 2.27036 71.9267 2.2538C71.4284 2.23383 70.9175 2.19953 70.4466 2.15442C70.2597 2.13483 70.0563 2.11836 69.8494 2.10606C69.6426 2.09376 69.4368 2.08591 69.2452 2.083C69.0536 2.08009 68.8802 2.08218 68.7364 2.08915C68.5926 2.09612 68.4816 2.10782 68.4102 2.12348C67.6892 2.25447 66.0771 2.18762 64.6967 2.17313C62.628 1.95144 61.0884 2.08266 59.155 1.95744C59.0021 1.94914 58.8514 1.94411 58.7123 1.94268C58.5731 1.94124 58.4484 1.94343 58.3456 1.94909C54.604 2.02446 50.2433 1.96165 46.3149 1.98768C45.8817 1.99148 45.3788 1.97844 44.8636 1.95003C41.4959 1.76198 38.258 1.7086 35.783 1.80031C35.4819 1.80857 35.1393 1.80893 34.7708 1.80135C33.0786 1.72662 31.4604 1.69682 30.0512 1.71445C27.8427 1.70876 25.7192 1.71337 23.4752 1.6961C21.9283 1.67152 20.5713 1.69778 19.5401 1.77226C19.5073 1.80226 18.8204 1.76994 18.2942 1.7668C17.9916 1.69129 17.7292 1.62308 17.4173 1.55614C17.1384 1.47332 16.7206 1.3895 16.1924 1.31039C15.6641 1.23128 15.0379 1.15871 14.3558 1.0976C13.1895 1.0193 13.0729 0.905672 13.889 0.863869C15.9923 0.725565 18.6372 0.66896 21.6291 0.698204C24.1302 0.700541 26.6762 0.705896 29.2127 0.719815C30.6922 0.731758 32.2519 0.758282 33.6912 0.762926C34.1769 0.77313 34.6758 0.788169 35.1828 0.80788C35.8049 0.836458 36.4089 0.852028 36.9623 0.853757C38.7391 0.82969 40.7221 0.850657 42.8167 0.915655C43.5839 0.929831 44.3205 0.934605 45.0158 0.929916C46.6605 0.912273 48.4436 0.925256 50.3178 0.968525C51.4827 0.992924 52.6122 1.00568 53.6946 1.00666C54.0769 1.00933 54.3881 0.988832 54.7564 1.00435C57.9972 1.16676 60.292 1.04945 63.2089 1.1119C64.6265 1.12932 65.9809 1.12936 67.253 1.11205C69.7356 1.11289 72.2874 1.13069 74.8982 1.16539C78.3505 1.2224 81.5498 1.20262 84.8462 1.22616C85.4969 1.23111 86.1253 1.23026 86.7267 1.22363C89.6521 1.17982 92.8295 1.18911 96.1814 1.25128C96.9425 1.26026 97.626 1.24928 98.1893 1.21903C98.7526 1.18878 99.1835 1.13991 99.4548 1.07549C99.5697 1.03127 99.4953 0.973843 99.246 0.914276C98.8322 0.838204 98.3651 0.763669 97.8521 0.6919L79.1937 0.451072C78.41 0.438496 77.6458 0.431725 76.9049 0.430789C74.7258 0.428695 72.4796 0.40996 70.1776 0.374676C67.9028 0.341535 65.7297 0.347418 63.5258 0.337439C62.8767 0.334096 62.2104 0.32621 61.5296 0.313802C56.9281 0.215597 52.4411 0.155615 48.1003 0.134285C46.274 0.131259 44.3011 0.0861886 42.4394 0.0715801C40.5777 0.0569718 38.0317 0.0516227 35.8232 0.0459297L28.9855 0.0468033C27.6406 0.0438971 26.3311 0.0525688 25.0263 0.0569597C23.443 -0.256336 22.8974 -0.32977 20.7845 -0.46703C20.0617 -0.517661 19.3265 -0.547877 18.6651 -0.554138C16.5677 -0.529371 13.936 -0.632468 11.9471 -0.618818C10.7469 -0.625551 9.72856 -0.590747 8.9962 -0.517969C8.36046 -0.460851 7.63349 -0.415656 6.8265 -0.383065C4.61589 -0.651082 4.42106 -0.825152 6.08396 -0.89289C6.53449 -0.908638 7.15506 -0.903766 7.48041 -0.937118C7.66708 -0.957431 7.9221 -0.969047 8.22513 -0.971055C8.52816 -0.973062 8.87083 -0.96541 9.22626 -0.94869C10.348 -0.90483 11.3994 -0.894515 12.275 -0.91878C13.099 -0.950896 14.1091 -0.949615 15.2078 -0.915054C16.0152 -0.860845 16.7248 -0.937389 17.4231 -0.959504C18.1213 -0.981619 18.6943 -1.02135 19.7848 -0.961923C19.9845 -0.95009 20.1828 -0.942987 20.3644 -0.941158C20.546 -0.93933 20.7062 -0.942824 20.8325 -0.951372C22.0038 -0.989643 23.4016 -0.985623 24.9122 -0.939639C27.2291 -0.894389 29.403 -0.892693 31.3583 -0.934606C32.5288 -0.97128 33.5268 -1.03632 34.3132 -1.12718C34.5276 -1.15757 34.8459 -1.17579 35.2377 -1.1801C37.2051 -1.16114 39.3413 -1.08979 41.5085 -0.970652C42.325 -0.922915 43.1404 -0.885154 43.9373 -0.858176C45.5753 -0.798243 47.1595 -0.76466 48.6429 -0.758418C50.7986 -0.75743 53.043 -0.73437 55.3562 -0.68945C56.7838 -0.664438 58.1594 -0.655207 59.4666 -0.661856C60.8102 -0.664991 62.2448 -0.645911 63.7378 -0.605063C65.2226 -0.571776 66.531 -0.590955 67.5054 -0.66028C67.8263 -0.697637 68.0847 -0.741998 68.2759 -0.792533C66.102 -0.956976 63.8537 -1.04055 61.9836 -1.02642C61.2733 -1.03732 60.6835 -1.02632 59.9351 -1.09037L59.9116 -1.06895C59.7627 -1.05504 59.538 -1.05176 59.2803 -1.05973C59.0227 -1.0677 58.7501 -1.08636 58.5145 -1.11215C58.6035 -1.19357 58.6879 -1.2707 58.7488 -1.32641C60.1736 -1.31658 61.557 -1.31738 62.8921 -1.3288C64.0174 -1.34524 65.5451 -1.20127 66.5191 -1.25546C68.4191 -1.1877 69.6287 -1.28127 71.3325 -1.25427C73.0362 -1.22727 74.9128 -1.13807 76.6165 -1.11107C78.1032 -1.09626 79.5468 -1.09304 80.9391 -1.10142C81.4197 -1.1132 81.9738 -1.11044 82.5672 -1.09331C83.4015 -1.06107 84.1775 -1.05567 84.8062 -1.07772C85.4349 -1.09978 85.8908 -1.1484 86.1219 -1.21801C85.9043 -1.28322 85.6112 -1.3673 85.2731 -1.45439C85.8951 -1.52596 86.8396 -1.55609 87.9668 -1.54031L89.5595 -1.54377C89.9816 -1.54188 90.3042 -1.56123 90.4606 -1.59781C90.6171 -1.63439 90.5956 -1.6854 90.4003 -1.7403C87.3803 -2.01666 87.2691 -2.04713 85.0526 -1.86937L82.1097 -1.95197L82.1592 -1.95324ZM121.965 -1.19408L121.741 -1.20914L121.965 -1.19408ZM488.715 28.2092L488.663 28.2564L488.719 28.2049L489.213 28.2381L489.245 28.2081L488.715 28.2092ZM417.078 7.54891C416.381 7.49748 415.677 7.45021 414.97 7.40736C414.785 7.40072 414.612 7.39922 414.465 7.40299C414.319 7.40676 414.203 7.41568 414.128 7.42901C414.072 7.48043 414.466 7.51611 414.825 7.5402C415.278 7.57263 415.74 7.59324 416.164 7.5999C416.589 7.60656 416.96 7.59904 417.239 7.5781L417.645 7.55934L417.078 7.54891ZM57.877 20.0818C58.3362 20.0905 58.7716 20.0919 59.1725 20.086C60.9512 20.0444 62.6542 19.984 64.4778 19.9454C66.7786 19.8476 69.4226 19.8077 72.3103 19.8274C73.4385 19.837 74.3917 19.8052 75.0585 19.7359C75.4577 19.6987 75.9729 19.6769 76.5727 19.672L84.207 19.559C84.6789 19.5356 85.087 19.5027 85.4214 19.4612C84.7486 19.416 84.3001 19.3859 84.031 19.3678C83.4726 19.3627 82.9926 19.3765 82.6392 19.4077C82.2596 19.4607 81.6179 19.4817 80.8417 19.4664C80.058 19.4539 79.2938 19.4471 78.5529 19.4462C77.1538 19.4488 75.7451 19.46 74.3413 19.467C73.7951 19.6143 72.183 19.5474 70.8026 19.533L69.7362 19.5395C66.2502 19.6159 62.9204 19.721 59.7628 19.8543C59.1525 19.8768 58.6268 19.9128 58.2017 19.961C58.0416 19.9987 57.9903 20.0456 58.0518 20.0981L57.8276 20.0831L57.877 20.0818ZM213.543 34.1673C214.389 34.1773 215.269 34.1979 216.172 34.2288C216.867 34.2603 217.546 34.2795 218.18 34.2854C221.736 34.3185 225.441 34.3947 229.246 34.5132C229.743 34.5312 230.221 34.54 230.662 34.5393L233.776 34.5092C234.757 34.4923 234.776 34.4752 234.062 34.2478C233.469 34.2037 232.869 34.1634 232.268 34.1274C231.909 34.1033 231.326 34.0641 231.189 34.1009C230.357 34.2015 228.839 34.1364 227.563 34.115C223.867 34.0601 220.056 33.979 216.325 33.9125C215.537 33.8962 214.772 33.888 214.041 33.8879C213.587 33.8845 213.173 33.8909 212.817 33.9069C212.712 33.9085 212.625 33.9133 212.561 33.9209C212.496 33.9284 212.456 33.9386 212.443 33.9508C212.429 33.963 212.443 33.9768 212.484 33.9914C212.524 34.006 212.589 34.021 212.676 34.0355C212.981 34.0861 213.334 34.1346 213.723 34.1793L213.543 34.1673ZM240.614 1.16979L244.254 1.14284C244.691 1.13994 245.061 1.1096 245.528 1.12258C248.021 1.1637 250.329 1.15225 252.354 1.0887C253.044 1.06277 253.85 1.05759 254.73 1.07343C257.423 1.12039 259.963 1.12232 262.283 1.07918C263.781 1.07052 265.184 1.04143 266.47 0.99235C266.569 0.980958 266.631 0.96549 266.651 0.947002C266.671 0.928514 266.649 0.907442 266.587 0.885222C266.571 0.871184 266.527 0.856081 266.458 0.840959C266.389 0.825836 266.297 0.811045 266.188 0.797615C266.079 0.784184 265.956 0.772432 265.827 0.763161C265.698 0.753889 265.567 0.747318 265.442 0.74391C263.817 0.677476 262.275 0.654333 260.942 0.676357C259.705 0.70271 258.374 0.710421 256.968 0.69937C255.623 0.696463 254.711 0.78239 253.049 0.716825C252.346 0.695234 251.727 0.702342 251.294 0.736958C250.424 0.794335 249.209 0.797526 247.866 0.745965C247.062 0.71987 246.294 0.708678 245.591 0.71282C243.885 0.731682 242.255 0.769424 240.675 0.805894C240.177 0.814329 239.643 0.815494 239.082 0.809359L231.168 0.737949C229.266 0.716044 227.369 0.689854 225.502 0.67953C223.976 0.657114 222.555 0.664135 221.291 0.700343C219.942 0.7384 218.472 0.753851 216.907 0.746402C214.477 0.767228 212.061 0.775195 209.416 0.772393C207.729 0.774115 206.002 0.768546 204.239 0.75139C203.347 0.729311 202.59 0.747292 202.114 0.801871C201.824 0.846805 201.142 0.810198 200.575 0.79977C197.554 0.699262 194.721 0.675446 192.274 0.729983C191.962 0.73887 191.618 0.742088 191.252 0.73958C188.895 0.737707 186.453 0.725525 184.19 0.725391C183.595 0.729628 183.034 0.741255 182.515 0.760124C182.571 0.790908 182.729 0.824274 182.957 0.8533C183.186 0.882327 183.466 0.90479 183.741 0.916024C185.881 1.00203 187.948 1.04746 189.853 1.05042C193.026 1.03946 196.348 1.06409 199.787 1.12405C202.456 1.18449 204.889 1.17177 206.906 1.08682C208.482 1.02343 210.533 1.04728 212.706 1.15427C213.636 1.20537 214.538 1.2258 215.29 1.21278C216.013 1.19569 216.844 1.19983 217.732 1.22496C219.605 1.27274 221.406 1.29491 223.1 1.29102C224.757 1.27343 226.302 1.22538 228.003 1.2108C229.704 1.19622 232.295 1.20458 234.392 1.17981C236.489 1.15504 238.563 1.15171 240.614 1.16979ZM89.7664 -1.33669C89.9586 -1.20419 90.6388 -1.12172 91.3706 -1.08639C93.8933 -0.929518 96.3873 -0.862762 98.4339 -0.897328C99.5395 -0.945544 101.013 -0.926985 102.566 -0.845294C104.374 -0.760378 106.063 -0.746294 107.337 -0.805528C107.649 -0.815879 107.888 -0.837759 108.032 -0.86922C108.061 -0.894931 108.112 -0.942067 108.122 -0.950637C107.988 -0.972373 107.824 -0.992511 107.642 -1.0095C107.46 -1.02649 107.265 -1.03988 107.073 -1.04862L98.7171 -1.20029L97.2609 -1.23367C94.6012 -1.32111 92.0668 -1.35594 89.7664 -1.33669ZM106.203 0.760418C107.507 0.976772 107.512 0.972478 108.18 1.02194C111.403 1.22737 114.624 1.33827 117.46 1.34144C118.09 1.34081 118.625 1.31992 119.019 1.28054C119.222 1.2752 119.351 1.25824 119.378 1.23335C119.405 1.20847 119.328 1.17768 119.164 1.1477L118.127 0.995276C116.244 0.929289 114.387 0.876857 112.569 0.838297C110.453 0.792763 108.577 0.791006 106.382 0.772458L106.203 0.760418ZM213.387 33.2092C214.602 33.507 214.607 33.5027 216.641 33.5795C218.059 33.634 219.434 33.6659 220.726 33.6744C222.305 33.6838 223.923 33.7005 225.497 33.7142C225.882 33.7237 226.207 33.7158 226.411 33.6921C226.615 33.6684 226.683 33.6305 226.601 33.5859C226.394 33.5374 226.071 33.4905 225.684 33.4528C225.297 33.4152 224.868 33.3889 224.468 33.3783L223.609 33.3712C222.566 33.3564 221.483 33.3343 220.476 33.331C219.822 33.3434 219.065 33.3338 218.263 33.3031C217.461 33.2724 216.637 33.2214 215.854 33.1541L213.387 33.2092ZM112.692 -0.947353C113.016 -0.895784 113.383 -0.846394 113.783 -0.800494C115.331 -0.673276 116.969 -0.60102 118.376 -0.597893C119.042 -0.590013 119.65 -0.61815 120.328 -0.577262C121.543 -0.522623 122.72 -0.493518 123.797 -0.491522C123.797 -0.491522 124.099 -0.503453 124.198 -0.506L124.404 -0.694546C123.894 -0.738225 123.363 -0.773909 122.834 -0.799954C121.059 -0.850117 119.315 -0.884412 117.576 -0.922994C115.837 -0.961574 115.23 -0.979297 114.093 -0.995868C113.586 -0.98676 113.116 -0.970507 112.692 -0.947353ZM74.2594 22.4927L76.5819 22.8786C77.3334 22.9121 78.0355 22.9182 78.5813 22.8959C79.1272 22.8736 79.4868 22.8241 79.6056 22.755C79.7969 22.7227 79.816 22.6748 79.659 22.6214C79.502 22.568 79.181 22.5132 78.7634 22.4685C78.3614 22.4155 77.9026 22.3681 77.4153 22.329C76.9279 22.29 76.4225 22.2602 75.9303 22.2415L74.2594 22.4927ZM93.5964 20.5712C92.0773 20.5058 90.6245 20.479 89.3487 20.493C88.545 20.5313 87.4559 20.5191 86.3048 20.4588C84.2114 20.3387 82.1935 20.3055 80.6767 20.3661C80.6767 20.3661 80.6204 20.4175 80.3633 20.4325C80.1063 20.4474 81.1259 20.4837 81.3501 20.4987C82.995 20.5356 84.6492 20.5638 86.0792 20.577C86.9669 20.5765 87.906 20.5886 88.8801 20.6133C90.2205 20.6514 91.4916 20.6637 92.6438 20.6498C92.6438 20.6498 93.0896 20.6384 93.5917 20.5755L93.5964 20.5712ZM255.822 0.470621C255.097 0.39794 254.31 0.33887 253.521 0.297845C252.732 0.25682 251.961 0.234905 251.266 0.23374C250.734 0.229947 250.304 0.249136 250.043 0.288274C249.782 0.327411 249.706 0.384263 249.827 0.449839C250.365 0.485978 251.082 0.534163 251.486 0.561267C252.885 0.558615 254.079 0.523765 255.822 0.470621ZM391.64 6.5953C391.058 6.53679 390.417 6.49206 389.79 6.46621C389.162 6.44036 388.574 6.43443 388.093 6.44911C387.845 6.45548 388.013 6.52196 387.971 6.56053C387.944 6.56927 387.944 6.58014 387.972 6.59201C388 6.60388 388.055 6.61631 388.131 6.62798C388.207 6.63966 388.301 6.65016 388.403 6.65838C388.506 6.66661 388.613 6.67225 388.713 6.67472C389.344 6.69993 389.941 6.70743 390.448 6.69656C390.956 6.68569 391.359 6.65679 391.622 6.61244L391.64 6.5953ZM400.74 7.43168C400.65 7.39715 400.459 7.36117 400.201 7.33033C399.942 7.29948 399.635 7.27584 399.335 7.26374C398.805 7.26211 398.323 7.27168 397.908 7.2921C397.457 7.30784 397.781 7.4078 398.391 7.4671C398.649 7.49091 398.924 7.50947 399.196 7.52133C399.467 7.53319 399.727 7.538 399.954 7.53539C400.181 7.53279 400.37 7.52283 400.505 7.50631C400.64 7.48979 400.717 7.46717 400.731 7.44025L400.74 7.43168ZM136.316 -0.580137C134.958 -0.703492 133.913 -0.67246 132.763 -0.722038C131.614 -0.771617 131.331 -0.776833 131.485 -0.697498C131.639 -0.618162 132.427 -0.634252 132.92 -0.601124C133.587 -0.557167 134.257 -0.531927 134.857 -0.52822C135.457 -0.524511 135.962 -0.542488 136.316 -0.580137ZM419.228 20.2918C418.509 20.2641 417.805 20.2446 417.126 20.2334C417.036 20.2449 416.98 20.2599 416.961 20.2776C416.942 20.2952 416.959 20.3152 417.013 20.3363C417.013 20.3363 417.474 20.3994 417.743 20.4175C418.734 20.4794 418.783 20.3907 419.228 20.2918ZM520.867 31.7847C521.354 31.868 521.581 31.9246 521.971 31.9646C522.15 31.9785 522.335 31.9886 522.512 31.9941C522.689 31.9996 522.854 32.0005 522.995 31.9966C523.166 31.9726 523.206 31.9359 523.107 31.8937C523.107 31.8937 522.612 31.819 522.423 31.8156C521.884 31.7979 521.362 31.7876 520.867 31.7847ZM113.206 -1.28542C112.174 -1.35468 111.187 -1.42094 110.473 -1.34011C112.111 -1.25312 112.111 -1.25311 113.206 -1.28542ZM129.915 -0.494718C128.873 -0.642856 128.262 -0.656299 127.762 -0.639277C127.656 -0.63499 127.585 -0.625436 127.562 -0.612063C127.538 -0.598691 127.562 -0.582228 127.63 -0.565163C127.699 -0.548098 127.808 -0.531361 127.941 -0.517483C128.074 -0.503606 128.223 -0.493341 128.367 -0.488247C128.91 -0.483983 129.429 -0.486148 129.915 -0.494718ZM183.53 -0.432077C183.553 -0.453503 183.581 -0.479213 183.312 -0.497283C183.242 -0.506456 183.159 -0.514344 183.073 -0.520159C182.986 -0.525974 182.899 -0.529507 182.819 -0.530406C182.819 -0.530406 182.791 -0.504694 182.772 -0.487554L183.53 -0.432077ZM220.761 35.1395L220.162 35.1591L220.431 35.1771L221.142 35.188L220.761 35.1395ZM431.727 7.09735C431.503 7.08229 431.279 7.06723 431.246 7.09723C431.199 7.10188 431.169 7.10858 431.16 7.11678C431.151 7.12498 431.163 7.13444 431.194 7.14437C431.194 7.14437 431.508 7.16545 431.643 7.17448L431.727 7.09735ZM396.799 7.33726C396.652 7.33554 396.519 7.33755 396.408 7.34316L396.38 7.36887L396.828 7.39899L396.799 7.33726ZM92.4118 13.4633C92.2385 13.4477 92.0549 13.4354 91.8736 13.4272L91.6492 13.4121C91.6492 13.4121 91.8902 13.4559 92.0248 13.465C92.1593 13.474 92.2679 13.4629 92.4118 13.4633Z" fill="#99CFFF"/>
</g>
</svg>
