<svg width="303" height="19" viewBox="0 0 303 19" fill="none" xmlns="http://www.w3.org/2000/svg">
<path d="M1.25445 10.4802C3.77062 8.38976 13.2063 6.77841 17.6096 6.23403C37.739 3.62107 70.1346 2.31446 83.6591 2.96776C97.1835 3.62107 82.401 4.92747 69.5056 6.23398C56.6102 7.54048 66.0459 8.19374 77.6832 7.54048C89.3204 6.88723 113.539 6.23398 134.297 5.90735C155.055 5.58072 133.983 4.92747 113.539 4.92747C93.0947 4.92747 93.4092 3.62102 100.643 2.96776C107.877 2.31451 124.232 -0.298503 143.418 0.0281234C162.604 0.35475 207.895 1.008 227.395 3.29439C246.896 5.58078 287.155 11.7867 296.905 13.7464C306.655 15.7062 305.397 21.2589 288.098 17.9926C270.799 14.7263 234.944 8.84704 156.314 7.86716C77.6832 6.88728 17.924 12.4399 11.6336 14.7263C5.34318 17.0127 0.939879 17.0127 3.45605 15.0529C5.97222 13.0932 6.60131 12.7666 4.08514 13.4198C1.56897 14.0731 -1.89077 13.0932 1.25445 10.4802Z" fill="#99CFFF"/>
</svg>
