<svg width="758" height="31" viewBox="0 0 758 31" fill="none" xmlns="http://www.w3.org/2000/svg">
<mask id="mask0_1879_1050" style="mask-type:alpha" maskUnits="userSpaceOnUse" x="0" y="21" width="300" height="11">
<rect y="21.7578" width="300" height="9.24262" fill="#99CFFF"/>
</mask>
<g mask="url(#mask0_1879_1050)">
<path d="M45.0594 19.8026L45.7926 19.6808L44.3659 19.5061L45.0498 19.3783C45.7356 19.3794 46.6242 19.571 47.1078 19.4692C47.1669 19.3707 46.4201 19.339 46.2295 19.2605C46.0609 19.18 45.9232 19.1001 45.8182 19.0216C46.1917 19.0224 46.6024 19.0414 47.0258 19.0774C47.5952 19.1362 48.1538 19.1648 48.6398 19.16C49.6337 19.1759 50.5939 19.16 51.6744 19.1635L51.3149 18.9263L52.7075 18.9818C52.8551 18.9999 53.031 18.9708 53.1761 18.9932C54.383 19.1823 54.8936 19.0793 55.473 18.9938C55.5918 18.9717 55.7349 18.9552 55.8985 18.9447C57.5085 18.99 58.9603 19.2551 60.4102 19.3912C60.6831 19.426 60.9448 19.4706 61.1769 19.5219C61.6812 19.6216 62.2422 19.703 62.8085 19.7587C63.3748 19.8144 63.9283 19.8425 64.4185 19.8406C65.5026 19.8383 66.7273 19.9043 67.9742 20.0321C68.345 20.0741 68.716 20.1019 69.0636 20.1136C69.4113 20.1252 69.7279 20.1206 69.9932 20.0998L70.8362 20.2352C71.2016 20.1803 71.665 20.1502 72.1982 20.1466C72.7314 20.1431 73.3232 20.1663 73.9379 20.2148C74.5929 20.2674 75.2582 20.3028 75.9379 20.3584C77.3417 20.4647 78.708 20.5297 79.9942 20.5514C81.9097 20.6157 83.7812 20.6655 85.7135 20.7456C86.9224 20.7843 88.1003 20.8056 89.24 20.8094C90.6054 20.8245 92.0822 20.8978 93.5993 21.0257C93.5274 21.1457 92.8621 21.1102 92.4157 21.1062C90.9753 21.0862 89.5011 21.0345 88.0193 20.9957C87.3517 20.9806 86.7026 20.9748 86.0755 20.9785C85.0272 20.9736 83.9221 20.9416 82.7792 20.8832C80.9736 20.8189 79.2257 20.788 77.5534 20.7908C77.4223 20.7955 77.3022 20.804 77.1951 20.8159C77.1727 20.8263 77.1683 20.8393 77.1822 20.8538C77.1962 20.8683 77.2281 20.8838 77.2747 20.8987C77.3214 20.9137 77.3814 20.9276 77.4489 20.9392C77.5164 20.9508 77.5892 20.9596 77.6603 20.9649C78.3245 21.0462 79.0379 21.1335 79.6643 21.1458C79.6885 21.1467 79.7143 21.1488 79.7398 21.1519C79.7653 21.1551 79.79 21.1591 79.8119 21.1639C81.2141 21.3355 82.367 21.3065 83.4593 21.3344C85.2728 21.4099 87.0209 21.4452 88.6773 21.4397C88.9277 21.44 89.198 21.4498 89.4785 21.4687C91.2133 21.5453 92.8356 21.5539 94.2691 21.494C94.8591 21.4789 95.4076 21.4448 96.0417 21.4443C96.4323 21.4419 96.7722 21.4202 97.0411 21.3804C97.31 21.3406 97.5023 21.2836 97.6065 21.2127C97.874 21.25 98.1457 21.2832 98.4183 21.312C98.5811 21.3285 98.7373 21.3329 98.8551 21.3243C98.973 21.3157 99.0439 21.2947 99.0535 21.2656C99.1023 21.1842 98.7307 21.1433 98.4084 21.1084C98.6028 21.091 98.8218 21.0807 99.0604 21.0779C100.404 21.0593 101.845 21.0812 103.352 21.1433C104.522 21.2175 105.456 21.1571 106.687 21.2618C106.835 21.2799 106.956 21.2534 107.092 21.247C107.446 21.2134 107.888 21.2059 108.378 21.225C108.868 21.2441 109.392 21.2893 109.904 21.3567C110.543 21.1727 111.922 21.3829 112.941 21.4018C113.254 21.4954 112.894 21.4789 112.879 21.5046C112.863 21.5304 112.879 21.5046 112.756 21.4896C111.739 21.6221 110.346 21.651 108.772 21.5722C108.481 21.5725 108.203 21.5786 107.942 21.5903C107.547 21.6068 107.102 21.6052 106.625 21.5854C106.104 21.5709 105.626 21.5778 105.213 21.6058C104.976 21.6053 104.775 21.6193 104.629 21.6465C104.484 21.6737 104.398 21.7132 104.381 21.7614C104.539 21.7985 104.715 21.8325 104.901 21.8619C105.874 21.9782 106.843 22.0264 107.619 21.9969C108.97 21.9461 110.578 21.9957 112.014 21.9783C112.985 21.9713 114.018 21.9913 115.094 22.038C115.094 22.038 115.066 22.0851 115.063 22.0894C115.19 22.1098 115.324 22.1262 115.457 22.1376C115.457 22.1376 115.457 22.1376 115.47 22.1162C115.411 22.0956 115.331 22.0763 115.239 22.0604L114.919 22.0212C115.137 22.011 115.34 21.9807 115.566 21.9992C116.044 22.0337 116.5 22.0482 116.907 22.042C117.315 22.0357 117.666 22.0089 117.938 21.963C118.421 21.9042 119.022 21.8775 119.701 21.8845C120.222 21.8781 120.724 21.8643 121.205 21.8432C121.205 21.8432 121.236 21.7918 121.463 21.7644C121.248 21.7307 121.023 21.7032 120.799 21.6831C119.826 21.633 118.85 21.5871 117.894 21.5528C117.541 21.5491 117.21 21.5548 116.906 21.5699C116.065 21.5876 115.119 21.5625 114.125 21.4962C114.125 21.4962 113.928 21.4721 113.83 21.4601C114.109 21.347 115.071 21.4602 115.46 21.3837C115.697 21.385 116.114 21.3947 116.099 21.3745C116.067 21.3476 116.063 21.3226 116.088 21.3014C116.113 21.2801 116.166 21.263 116.244 21.2514C116.321 21.2398 116.421 21.234 116.537 21.2343C116.652 21.2346 116.78 21.241 116.911 21.2532C118.006 21.3188 119.038 21.3371 119.942 21.3068C120.285 21.3074 120.67 21.3269 121.01 21.3317C121.218 21.3376 121.408 21.3343 121.57 21.3221C122.393 21.2322 123.499 21.2257 124.724 21.3034C125.316 21.3314 125.869 21.3351 126.354 21.3144C126.7 21.3107 126.846 21.3747 127.092 21.4048L128.137 21.4683L126.795 21.5478C127.082 21.7301 127.31 21.7902 127.779 21.8016C128.462 21.8187 129.128 21.8265 129.771 21.8248C130.248 21.8233 130.641 21.784 131.286 21.8538C131.399 21.8651 131.509 21.8688 131.596 21.8642C132.351 21.8023 133.26 21.7881 134.262 21.8225C134.78 21.7066 135.663 21.8193 136.48 21.9101C136.744 21.8228 136.266 21.7827 135.981 21.7294C136.664 21.7349 137.353 21.7318 138.058 21.7445C138.27 21.7399 138.513 21.7478 138.767 21.7677C139.02 21.7876 139.279 21.8189 139.521 21.8592C139.639 21.8852 139.781 21.9048 139.919 21.9139C140.056 21.923 140.177 21.9209 140.257 21.908C140.624 21.87 141.21 21.905 141.512 21.8408C141.62 21.8261 141.774 21.824 141.946 21.835C142.119 21.846 142.298 21.8693 142.453 21.9008C142.284 21.9107 142.133 21.9261 142.003 21.9469C141.54 22.0144 141.71 22.1273 142.299 22.2913C143.202 22.2822 144.124 22.2848 144.962 22.2539C145.428 22.2261 146 22.2348 146.613 22.2789C147.225 22.3231 147.854 22.4009 148.429 22.5036C148.638 22.5432 148.875 22.5705 149.094 22.5803C149.313 22.5901 149.498 22.5816 149.612 22.5565C149.684 22.5274 149.706 22.4906 149.677 22.4493L149.086 22.3771C149.086 22.3771 149.109 22.3385 149.115 22.3299L149.963 22.3234C150.412 22.3232 150.881 22.3346 151.305 22.3313C151.929 22.3098 152.641 22.3218 153.397 22.3666C154.094 22.4125 154.78 22.4472 155.447 22.4704C156.093 22.4943 156.561 22.4182 157.175 22.406C157.64 22.3969 158.151 22.4066 158.69 22.435C159.619 22.4853 160.473 22.4854 161.172 22.4353C161.987 22.7052 162.383 22.7491 163.14 22.6762L163.495 22.6554L163.593 22.7133L163.864 22.7005C164.373 22.6892 164.881 22.6778 165.412 22.6738C166.15 22.6989 166.946 22.7663 167.724 22.8694C167.872 22.8875 168.072 22.9489 168.202 22.997C168.332 23.045 168.614 23.19 168.822 23.2844C168.596 23.3533 168.345 23.4192 168.165 23.4984C168.147 23.512 168.149 23.5281 168.171 23.5456C168.192 23.563 168.232 23.5813 168.289 23.5989C168.345 23.6165 168.415 23.633 168.494 23.647C168.573 23.661 168.659 23.6722 168.743 23.6796C168.909 23.6956 169.072 23.7062 169.226 23.7111C169.986 23.7195 170.714 23.7133 171.403 23.6924C171.654 23.6629 171.998 23.6601 172.381 23.6844C172.763 23.7087 173.162 23.7588 173.514 23.8266C174.415 23.7859 175.462 23.7979 176.582 23.8619C177.767 23.823 179.199 23.9017 180.306 23.8164C180.281 23.8593 180.395 23.9331 180.554 23.9756C180.806 24.0401 181.092 24.1 181.399 24.1525L183.74 24.2552C183.828 24.308 183.937 24.3614 184.067 24.4148C184.156 24.457 184.311 24.4982 184.499 24.5298C184.687 24.5615 184.893 24.5809 185.074 24.5841C185.54 24.5998 185.931 24.5648 186.486 24.6512C185.631 24.7329 184.477 24.722 183.23 24.6206C182.059 24.5434 180.933 24.5049 179.893 24.5063C179.55 24.5058 179.098 24.5103 178.991 24.5569C178.753 24.6888 178.132 24.668 177.407 24.6437C176.838 24.617 176.318 24.62 175.89 24.6524C175.462 24.6848 175.138 24.7456 174.946 24.8299C174.897 24.9113 175.014 24.9808 175.513 25.0281L177.591 25.2181C177.897 25.1937 178.188 25.1648 178.462 25.1315C178.923 25.0873 179.492 25.0752 180.125 25.096C180.758 25.1169 181.439 25.1703 182.113 25.2519C182.457 25.2941 182.801 25.3362 183.051 25.3162C183.27 25.2932 183.472 25.2656 183.655 25.2337C183.692 25.2124 183.707 25.1878 183.699 25.1609C183.831 25.1734 183.964 25.1896 184.092 25.2091C185.118 25.4358 185.913 25.4319 186.635 25.3731C186.83 25.3556 186.979 25.3278 187.176 25.3061C187.374 25.2843 187.444 25.256 187.624 25.2642C189.058 25.3386 189.471 25.0902 190.68 25.1002C190.739 25.0905 190.775 25.076 190.786 25.058C190.797 25.04 190.782 25.0192 190.741 24.9973C190.656 24.9776 190.557 24.9607 190.454 24.9481C190.351 24.9354 190.247 24.9275 190.151 24.9251C189.595 24.8932 189.104 24.903 188.761 24.9527C188.519 24.9731 188.262 24.9893 187.993 25.0012L186.783 24.6415C187.955 24.6745 189.064 24.6742 190.084 24.6408C190.306 24.6221 190.683 24.6544 190.996 24.6605L193.3 24.6942C193.773 24.697 194.177 24.6406 194.837 24.772C194.837 24.772 195.274 24.7932 195.39 24.7753C195.506 24.7573 196.022 24.6457 196.33 24.573C196.687 24.5937 197.182 24.6496 197.404 24.6309C197.793 24.5848 198.129 24.5257 198.408 24.4547L199.799 24.5561C199.798 24.6461 199.747 24.7308 199.648 24.8089C199.539 24.8842 199.543 24.9746 199.658 25.0727C199.774 25.1708 199.998 25.2738 200.313 25.3733L201.687 25.9003C201.911 25.9356 202.15 25.9593 202.371 25.9683C202.593 25.9773 202.786 25.9711 202.924 25.9506C203.515 25.8895 204.177 25.8418 204.768 25.7808C205.531 25.8742 205.335 26.025 205.889 26.1572L207.685 26.3771C207.959 26.5808 208.238 26.776 207.405 26.8442C207.24 26.8561 207.351 26.9341 207.2 26.9662C207.848 27.1191 208.56 27.1649 209.216 27.259C209.475 27.3268 209.691 27.3985 209.855 27.4706C210.035 27.5793 210.399 27.6904 210.869 27.7798C211.339 27.8692 211.877 27.9297 212.368 27.9484C213.19 28.0057 214.032 28.0916 214.856 28.2024C215.137 28.241 215.427 28.2691 215.704 28.2848C215.982 28.3005 216.241 28.3035 216.465 28.2936C217.262 28.2762 217.937 28.2162 218.445 28.1175C218.948 28.0338 219.626 27.9934 220.417 28.0001C221.77 28.1657 222.043 28.4153 222.861 28.6351L221.447 28.6598C221.396 28.7455 221.489 28.8536 220.91 28.8516C220.33 28.8496 220.624 28.9316 220.812 29.0144C220.878 29.0561 221.008 29.0989 221.178 29.1357C221.348 29.1725 221.549 29.201 221.747 29.2163L222.951 29.3223C223.378 29.3626 223.791 29.3798 224.145 29.3721C224.499 29.3643 224.781 29.3318 224.958 29.2782C225.162 29.2273 225.443 29.1928 225.784 29.177C226.22 29.1354 226.577 29.0737 226.845 28.994L228.544 29.1101C228.617 29.03 228.85 28.9739 229.206 28.9512C229.561 28.9284 230.016 28.9405 230.494 28.9854L231.64 29.0566C232.913 29.1344 233.193 29.1088 233.566 28.883L232.038 28.4799C232.26 28.3737 232.475 28.2803 232.689 28.187C232.308 28.0541 231.801 27.9285 231.217 27.8228C230.673 27.7093 230.113 27.5993 229.54 27.4933C228.919 27.385 228.262 27.2908 227.49 27.1688C227.356 27.1293 227.16 27.0593 226.91 26.9919C226.66 26.9264 226.398 26.8622 226.127 26.7995C226.179 26.7138 226.225 26.6367 226.126 26.5372C226.601 26.5689 227.093 26.6245 227.555 26.6987C228.018 26.773 228.437 26.8638 228.776 26.9627C228.833 26.9803 228.902 26.9968 228.98 27.0111C229.058 27.0254 229.143 27.0372 229.228 27.0457C230.063 27.1065 230.462 27.2335 230.87 27.3893C231.145 27.469 231.499 27.5397 231.884 27.5917C232.622 27.682 233.345 27.7981 234.05 27.8983C234.266 27.9317 234.491 27.9591 234.715 27.9796C235.452 28.0446 236.195 28.1355 236.904 28.2476C237.136 28.2761 237.358 28.3138 237.552 28.3576C237.746 28.4014 237.907 28.45 238.021 28.4993C237.845 28.5533 237.75 28.6215 237.742 28.6998C237.711 28.7512 238.229 28.856 238.474 28.932C238.719 29.008 238.239 28.9722 238.076 28.9798C237.407 28.9945 237.283 29.0253 237.683 29.1939C237.817 29.247 237.906 29.3 237.944 29.3498C237.983 29.3996 237.969 29.4451 237.906 29.4834C237.811 29.6419 237.522 29.7721 237.323 29.9272C237.631 30.0293 238.147 30.1384 238.203 30.2649C238.23 30.293 238.287 30.3227 238.37 30.3519C238.453 30.3812 238.56 30.4092 238.683 30.434C239.006 30.4875 239.301 30.5515 239.543 30.6211C239.785 30.6906 239.969 30.7638 240.079 30.835C240.116 30.8644 240.203 30.8957 240.324 30.9224C240.445 30.9492 240.591 30.9695 240.732 30.9793C240.901 30.9913 241.052 30.9897 241.155 30.9749C241.257 30.96 241.302 30.933 241.282 30.8994C241.286 30.8363 241.264 30.7705 241.215 30.7026C241.243 30.6555 241.271 30.6084 241.16 30.5303C241.664 30.5588 242.193 30.6159 242.69 30.6954C243.187 30.7749 243.633 30.8737 243.979 30.9812C244.361 31.0924 244.714 31.2091 245.137 31.3392C245.05 31.4849 245.05 31.4849 245.952 31.7425L250.735 31.8681L251.716 32.0387C252.63 32.1874 252.847 32.1773 253.421 32.1004L253.808 32.0281C254.62 32.1275 255.555 32.2419 256.062 32.0557C256.227 32.1771 256.335 32.2178 256.297 32.2363C256.055 32.4154 255.634 32.5674 255.051 32.6862C254.902 32.714 254.797 32.7564 254.624 32.7811C254.065 32.921 253.936 33.1372 254.262 33.3854C254.423 33.4952 254.659 33.6077 254.959 33.7191C254.519 33.8739 253.936 34.002 253.226 34.1003C252.623 34.1763 252.126 34.278 251.75 34.4026C251.413 34.5283 250.908 34.6227 250.264 34.6806C249.937 34.7052 249.698 34.7537 249.572 34.8213C249.534 35.0043 249.621 35.2003 249.829 35.4048C249.869 35.467 249.98 35.5342 250.155 35.6012C250.331 35.6681 250.565 35.7329 250.839 35.7906C250.839 35.7906 250.971 35.8343 251.035 35.8605C251.088 36.0821 250.89 36.2775 250.454 36.4333C250.382 36.4776 250.236 36.5095 250.031 36.5257C249.826 36.542 249.569 36.5418 249.289 36.5254C248.698 36.499 248.145 36.4957 247.573 36.4809C246.957 36.4599 246.414 36.4765 246.002 36.5288C245.589 36.5811 245.323 36.6672 245.23 36.7782C245.224 36.8096 245.206 36.8396 245.176 36.8681C245.158 36.8828 245.149 36.8986 245.148 36.9153L246.461 37.2785L244.975 37.4231C244.888 37.5688 245.601 37.6562 245.959 37.7643L245.738 37.8247C245.453 37.8588 245.07 37.7935 244.723 37.7556L244.379 37.7135L244.337 37.782C244.123 37.8754 243.341 37.7704 243.036 37.8389C242.731 37.9073 242.949 37.9846 243.406 38.0589C243.723 38.1142 244.065 38.1583 244.404 38.1878C244.743 38.2174 245.071 38.2317 245.363 38.2296C245.538 38.2222 245.682 38.2055 245.789 38.1805C246.405 38.0737 247.087 37.9819 247.828 37.9058C248.396 37.8374 249.108 37.8083 249.912 37.8206C250.149 37.8154 250.433 37.8316 250.717 37.8663C251 37.901 251.264 37.952 251.462 38.0103L251.879 38.0199C251.879 38.0199 252.107 38.08 252.075 38.0899C251.916 38.268 252.1 38.4857 252.6 38.7108L252.165 38.7312C251.544 38.7103 251.938 38.8459 251.845 38.9127C251.404 38.9001 250.83 38.8437 250.621 38.9285L250.308 38.9223L250.431 38.9374L250.58 38.9096L251.164 39.0363C250.887 39.0576 250.687 39.0837 250.442 39.0951C250.307 39.1051 250.199 39.1227 250.126 39.1469C250.052 39.1711 250.014 39.2014 250.014 39.236C250.015 39.2891 249.942 39.3339 249.803 39.3659C249.663 39.398 249.462 39.4163 249.218 39.4191C248.927 39.4202 248.76 39.478 248.589 39.4985L249.331 39.8469C249.331 39.8469 248.962 39.8017 249.163 39.8631L249.189 39.8202L249.638 39.9075C249.962 39.9839 250.188 40.0024 250.38 39.9477C250.571 39.8929 250.527 39.9657 250.619 39.9448C250.586 40.0005 250.378 40.0394 250.199 40.0727C249.993 40.0989 249.76 40.1182 249.505 40.1303C249.965 40.3752 249.987 40.3825 249.314 40.4474C248.642 40.5122 248.874 40.6096 248.311 40.6235C247.748 40.6374 248.388 40.8032 248.765 40.8355C249.044 40.8567 249.329 40.8898 249.6 40.9325C249.87 40.9752 250.121 41.0264 250.333 41.0827L250.22 41.2712C250.054 41.2556 249.888 41.2353 249.728 41.211C249.183 41.1074 248.687 41.0099 248.202 41.0701L248.433 41.2134L246.74 41.1303C246.783 41.2377 247.041 41.36 247.459 41.4714C247.396 41.5326 247.358 41.597 247.344 41.6642C247.315 41.7114 247.148 41.6817 247.04 41.6868C246.652 41.6947 246.334 41.7266 246.113 41.7798C245.892 41.833 245.776 41.9058 245.774 41.9919C245.73 42.0647 246.326 42.2159 246.699 42.2109C247.63 42.2254 248.636 42.2814 249.663 42.376C250.29 42.3883 250.378 42.1967 251.409 42.3275C251.429 42.4159 251.297 42.4875 251.033 42.5315C250.768 42.5754 250.385 42.5894 249.942 42.5711C250.194 42.7675 251.589 42.8188 251.651 43.0241C251.304 43.0096 250.932 42.9755 250.573 42.9251C250.215 42.8747 249.881 42.8098 249.605 42.7368C249.546 42.7189 249.471 42.7023 249.388 42.6886C249.305 42.675 249.217 42.6647 249.131 42.6588C249.045 42.6529 248.964 42.6514 248.896 42.6547C248.829 42.6579 248.776 42.6657 248.743 42.6773C248.936 42.7515 249.149 42.8374 249.391 42.9176C249.634 42.9979 249.692 43.0326 249.867 43.0494C251.171 43.209 251.79 43.4965 252.918 43.6852C253.214 43.7213 253.25 43.8362 252.994 43.8233C252.75 43.8103 252.529 43.812 252.357 43.8282C252.184 43.8444 252.065 43.8744 252.015 43.915C251.826 43.9623 251.59 43.9999 251.314 44.0269C252.471 44.3219 253.85 44.5826 255.322 44.7844C255.601 44.8243 255.892 44.8486 256.152 44.8538C256.974 44.8541 257.846 44.8775 258.751 44.9236C259.072 44.9362 259.368 44.935 259.624 44.9201C260.464 44.8849 261.131 44.962 261.74 45.1791L262.748 45.5233C262.715 45.5791 262.546 45.6411 262.415 45.7264L263.203 45.9102L269.213 45.4868L270.42 45.8967L272.15 45.874C272.282 45.8858 272.416 45.9021 272.543 45.9221C272.893 46.0432 273.167 46.1595 273.546 46.2749C273.926 46.3904 274.604 46.4044 275.077 46.5405C275.55 46.6766 276.024 46.6794 276.609 46.7602C276.664 46.8656 276.607 46.9604 276.442 47.0388C276.388 47.1288 276.091 47.1843 276.039 47.2701C276.045 47.3567 275.934 47.4302 275.718 47.484C275.501 47.5378 275.185 47.5701 274.798 47.5781C273.715 47.7625 272.41 47.8938 270.92 47.9681C270.79 47.9735 270.681 47.986 270.602 48.0047C270.522 48.0235 270.474 48.0482 270.459 48.0772C270.461 48.1613 270.362 48.2339 270.168 48.2898C269.975 48.3457 269.692 48.3835 269.341 48.4003C269.247 48.4037 269.177 48.4142 269.138 48.4307C269.005 48.4413 268.908 48.4615 268.856 48.4895C268.805 48.5175 268.801 48.5522 268.844 48.5904C268.888 48.6285 268.977 48.6688 269.105 48.7073C269.232 48.7458 269.392 48.7813 269.571 48.8102C269.829 48.8568 270.093 48.9014 270.362 48.9439C270.346 48.9696 270.08 48.9737 270.119 48.9969C270.224 49.0708 270.248 49.1401 270.19 49.1992C270.132 49.2583 269.992 49.3057 269.783 49.3375L271.219 49.9365C272.091 50.0195 272.946 50.1602 273.622 50.332C273.623 50.3601 273.584 50.3837 273.509 50.4003C273.435 50.417 273.326 50.4262 273.196 50.4269C272.845 50.4392 272.514 50.463 272.136 50.4766C271.905 50.4867 271.713 50.509 271.571 50.5421C271.429 50.5752 271.339 50.6185 271.308 50.6695L272.151 50.8924C271.881 50.9467 271.68 50.9727 271.502 51.0061C271.603 51.0761 271.777 51.1486 272.01 51.2178C272.243 51.287 272.53 51.3512 272.847 51.4053C272.932 51.4165 273.019 51.4246 273.102 51.4293C273.185 51.434 273.264 51.4351 273.332 51.4326C273.985 51.3561 274.749 51.4911 275.491 51.6187C276.234 51.7463 276.636 51.8233 277.184 51.9225L278.232 51.9359C278.498 51.9828 278.734 52.0381 278.924 52.0972C279.113 52.1563 279.249 52.2176 279.322 52.2762C279.266 52.3705 278.768 52.3189 278.472 52.3286C277.769 52.3873 276.845 52.3747 275.853 52.2931C275.607 52.263 275.355 52.2873 275.115 52.2902C274.599 52.3019 274.103 52.321 273.629 52.3474C273.317 52.3719 273.025 52.4023 272.756 52.4383C272.684 52.5583 273.816 52.6509 273.173 52.7102C273.395 52.7373 273.478 52.7751 273.592 52.7614C274.321 52.8393 275.039 52.8779 275.664 52.8725C276.862 52.856 278.223 52.9107 279.635 53.0321C281.159 53.1579 282.62 53.2107 283.899 53.1862C284.386 53.1847 284.931 53.2105 285.491 53.2615C286.153 53.3321 286.81 53.3765 287.42 53.3918C287.622 53.3923 287.847 53.4044 288.077 53.4269C288.306 53.4494 288.534 53.4818 288.742 53.5214C288.724 53.5514 288.526 53.5732 288.57 53.5878C289.201 53.8122 289.457 54.046 290.429 54.2753C291.093 54.3566 291.855 54.45 292.29 54.3421C292.724 54.2343 292.568 54.1417 291.704 53.8657C291.892 53.8617 292.118 53.8746 292.342 53.9021C292.567 53.9296 292.777 53.97 292.934 54.0162L293.682 54.2228L294.355 54.4202C294.296 54.5188 294.25 54.5959 294.201 54.6773C294.124 54.7638 294.209 54.8691 294.443 54.9783C294.585 55.038 294.708 55.0977 294.812 55.1568C295.233 55.3934 295.355 55.617 295.164 55.8025C294.798 56.0693 294.289 56.3147 293.641 56.5361C292.958 56.7514 292.584 57.0229 292.02 57.2576C291.733 57.3644 291.384 57.4602 290.977 57.5439C290.206 57.73 289.36 57.907 288.586 58.0974C287.812 58.2878 286.937 58.4246 286.078 58.5815C284.797 58.7677 283.413 58.9286 281.934 59.0631C281.018 59.181 280.078 59.2959 279.231 59.4314C278.23 59.5841 277.055 59.6938 275.734 59.7577C274.568 59.8342 273.525 59.9473 272.627 60.0949C272.533 60.1108 272.459 60.1312 272.406 60.1552C272.245 60.3057 271.792 60.4118 271.116 60.4572C271.157 60.5013 271.21 60.5461 271.273 60.5915C271.367 60.6455 271.387 60.6961 271.329 60.7367C271.272 60.7772 271.141 60.8059 270.952 60.8189C270.412 60.8562 269.963 60.9195 269.625 61.0061C269.501 61.0278 269.424 61.0594 269.401 61.0982C269.378 61.137 269.409 61.1819 269.492 61.2289C269.565 61.2773 269.57 61.3219 269.507 61.3567C269.444 61.3916 269.315 61.4153 269.137 61.4246C268.679 61.4704 268.19 61.5073 267.671 61.535C266.567 61.596 265.283 61.5953 263.896 61.5328C263.749 61.5148 263.6 61.5426 263.428 61.5215C262.447 61.4515 261.537 61.4407 260.806 61.4903C259.949 61.5096 259.054 61.5058 258.151 61.5148C256.846 61.5087 255.642 61.5455 254.573 61.6242C253.351 61.5482 252.665 61.6803 251.633 61.6829C250.681 61.6964 249.779 61.729 248.934 61.7802C247.573 61.8482 246.217 61.9076 244.876 61.9871C243.617 62.0251 242.458 62.0975 241.419 62.2033C241.021 62.2511 240.3 62.1766 240.028 62.2768C239.757 62.377 239.21 62.3652 238.767 62.3984L237.371 62.4805C237.131 62.5 236.867 62.5124 236.583 62.5174C235.285 62.5241 234.387 62.6579 233.182 62.6852L233.059 62.6701C230.92 62.869 228.472 62.9781 225.788 62.9943C224.22 63.0553 222.505 63.0524 220.841 63.0971C220.444 63.1865 219.507 63.0763 219.009 63.158C218.511 63.2396 217.698 63.1861 217.056 63.1995C216.415 63.2129 215.787 63.2465 215.101 63.2454C214.506 63.2457 214.003 63.2822 213.638 63.3514C212.806 63.4659 211.792 63.5331 210.641 63.5502C209.118 63.58 207.678 63.6475 206.129 63.6326C206.151 63.716 206.056 63.787 205.854 63.8382C205.651 63.8894 205.349 63.919 204.977 63.924C203.321 63.9558 201.819 64.0387 200.141 64.0632L199.692 64.0635L194.672 64.1113C193.32 64.1206 192.017 64.1359 190.638 64.1464C190.121 64.0831 190.108 64.192 189.751 64.1713C189.651 64.1176 189.533 64.094 189.358 64.1231L189.319 64.1874L183.591 64.2726C181.348 64.335 178.989 64.3537 176.533 64.3286C175.951 64.3349 175.407 64.3562 174.911 64.3921C174.451 64.4052 173.971 64.411 173.474 64.4095C172.803 64.3933 172.147 64.3851 171.509 64.385C169.83 64.4095 168.069 64.3963 166.232 64.3783C164.394 64.3604 163.002 64.3923 161.366 64.3898C160.258 64.3876 159.156 64.3768 158.009 64.3515C157.462 64.3396 156.787 64.2755 156.22 64.2521C155.653 64.2287 155.468 64.229 155.393 64.2658C155.147 64.369 154.527 64.3023 154.031 64.2922C153.064 64.2751 152.927 64.2398 152.664 63.9731L153.85 63.8884C154.141 63.861 154.507 63.8562 154.912 63.8744C155.318 63.8926 155.749 63.9332 156.165 63.9923C156.328 64.0176 156.499 64.0376 156.668 64.0512C156.837 64.0647 157 64.0715 157.147 64.0712C158.344 64.0567 159.524 64.0264 160.675 64.0016L160.843 63.9854L160.853 63.7475C160.701 63.7242 160.543 63.7048 160.386 63.6903L154.616 63.5359C153.292 63.4981 151.918 63.4126 150.618 63.3777C149.319 63.3428 148.619 63.3215 147.611 63.2854C147.185 63.2649 146.751 63.2379 146.312 63.2047C146.338 63.1818 146.352 63.1574 146.356 63.1319C146.379 63.0933 146.41 63.0419 146.223 63.0006C146.02 62.9424 145.748 62.8927 145.462 62.8614C145.193 62.8407 144.933 62.829 144.69 62.8268C143.52 62.8068 142.184 62.6812 140.966 62.4766L140.541 62.6131C138.712 62.5364 136.856 62.461 134.946 62.3881C134.563 62.3683 134.162 62.3301 133.771 62.2766C133.353 62.2254 132.968 62.1185 132.528 62.06C132.093 62.0179 131.661 61.9851 131.24 61.9621C131.354 61.927 131.505 61.8989 131.686 61.8787C131.865 61.8717 131.996 61.8497 132.059 61.8161C132.121 61.7824 132.114 61.7388 132.036 61.6916C131.9 61.6105 131.84 61.5342 132.136 61.5245C132.41 61.506 132.606 61.4659 132.701 61.4091C132.796 61.3523 132.786 61.281 132.672 61.2036C132.622 61.1584 132.587 61.1142 132.567 61.0712L132.444 61.0561C132.038 60.896 131.228 60.8382 130.646 60.7072C130.371 60.6693 130.087 60.6474 129.838 60.6451C129.195 60.617 128.569 60.6047 127.903 60.5693C127.586 60.5529 127.253 60.5232 126.926 60.4818C126.458 60.4246 126.409 60.4186 126.138 60.2105C126.559 60.2142 126.893 60.1831 127.084 60.1226C127.274 60.062 127.309 59.9758 127.182 59.8784C126.834 59.6656 126.467 59.4413 124.894 59.2901C125.407 59.2827 125.901 59.2679 126.373 59.2458C126.51 59.241 126.613 59.2254 126.668 59.201C126.723 59.1766 126.726 59.1446 126.678 59.1092C126.631 59.0739 126.534 59.0369 126.401 59.0032C126.268 58.9695 126.105 58.9407 125.934 58.9207C125.104 58.8003 124.238 58.7198 123.433 58.6881C122.755 58.6741 122.143 58.6819 121.351 58.6816L120.416 58.5671C120.432 58.5414 120.294 58.5062 120.329 58.4921C120.567 58.3602 120.829 58.2313 121.099 58.0895C120.668 58.013 120.294 57.9206 120.021 57.8229C119.748 57.7252 119.587 57.6262 119.555 57.5372C119.532 57.5103 119.538 57.4859 119.573 57.4655C119.608 57.4451 119.671 57.4294 119.758 57.4194C120.004 57.4022 120.194 57.3693 120.313 57.3233C120.432 57.2773 120.477 57.2193 120.445 57.154L119.718 56.9132C117.529 56.7414 115.38 56.6186 113.309 56.5472L111.441 56.4932C111.215 56.4288 111.285 56.4006 111.497 56.3989C111.709 56.3973 112.306 56.4152 112.723 56.4248C113.083 56.4374 113.402 56.4291 113.651 56.4007C113.899 56.3723 114.068 56.3247 114.14 56.2625L113.513 55.9879C113.544 55.9365 113.587 55.8637 113.928 55.8685C114.16 55.8626 114.332 55.8367 114.414 55.7951C114.496 55.7534 114.485 55.6984 114.382 55.639C114.367 55.596 114.39 55.5568 114.452 55.5233C114.955 55.5205 115.456 55.522 115.912 55.509C116.125 55.5046 116.305 55.4887 116.439 55.4623C116.573 55.4359 116.659 55.3996 116.691 55.3559C116.707 55.3132 116.667 55.2646 116.574 55.214C116.48 55.1634 116.336 55.1122 116.152 55.0646C115.437 55.0056 114.782 55.0049 114.332 55.0625C114.171 55.1076 113.914 55.1323 113.592 55.1332C113.271 55.1341 112.902 55.1113 112.533 55.0676C112.111 55.0174 111.689 54.9953 111.344 55.0053C110.999 55.0154 110.754 55.0569 110.652 55.1225C110.218 55.097 109.834 55.0776 109.454 55.0495C109.007 55.0142 108.584 55.0037 108.231 55.0194C107.667 55.0305 107.059 55.024 106.421 55.0001C104.582 54.9406 102.74 54.8853 100.959 54.8605C100.488 54.8534 100.081 54.8725 99.6149 54.8569C99.149 54.8412 98.7804 54.8835 98.1977 54.7984C98.0867 54.7852 97.975 54.7767 97.8715 54.7736C97.7679 54.7705 97.6753 54.7728 97.601 54.7805C96.5778 54.8479 95.3781 54.8574 94.0723 54.8085C92.2839 54.7966 90.4294 54.7627 88.6384 54.755C88.1131 54.7616 87.6167 54.7793 87.1544 54.8079C86.8025 54.8252 86.434 54.8369 86.0507 54.843C85.7569 54.8485 85.476 54.8325 85.5256 54.9259C85.5752 55.0194 85.135 54.9609 84.8813 54.9436C84.0096 54.8983 83.1188 54.837 82.2186 54.7603C81.3317 54.6769 80.4627 54.6284 79.6636 54.6177C79.0864 54.6114 78.4912 54.6351 77.7492 54.5075C77.7774 54.4604 77.8057 54.4132 77.9672 54.364C77.3621 54.2286 76.6716 54.112 75.953 54.0241C75.2343 53.9361 74.5081 53.8792 73.8344 53.858L72.9055 53.6017C72.6767 53.5716 72.4432 53.5497 72.2191 53.5373C71.9951 53.5249 71.7851 53.5223 71.602 53.5296C71.4605 53.5333 71.2881 53.5237 71.1164 53.5027C70.9447 53.4817 70.7852 53.4506 70.6672 53.4151C70.4908 53.37 70.2753 53.3311 70.0478 53.3032C69.8203 53.2753 69.5907 53.2598 69.388 53.2585C68.7497 53.2306 68.0684 53.1663 67.4138 53.072C67.2439 53.0168 67.1374 52.9597 67.1075 52.9078C67.0776 52.8559 67.1257 52.8115 67.2456 52.7801C67.439 52.7245 67.5476 52.6537 67.5648 52.572C67.582 52.4903 67.5075 52.3994 67.3457 52.3047C67.2629 52.2466 67.2352 52.1916 67.2644 52.143C67.2935 52.0944 67.3789 52.0532 67.5153 52.0219C68.0245 51.8773 67.8883 51.7962 67.0552 51.5562C66.9199 51.5162 66.7567 51.4788 66.5761 51.4464C66.3955 51.414 66.2015 51.3873 66.0062 51.368C65.548 51.3289 65.0961 51.2998 64.6587 51.2812C64.4127 51.2511 64.1604 51.2754 63.877 51.2637C62.4597 51.2052 62.2523 51.1108 61.7933 50.9075L61.4588 50.7607C60.8384 50.6418 60.1599 50.5431 59.4722 50.4717C58.7845 50.4002 58.1047 50.3578 57.4817 50.3474C57.2341 50.3466 56.9494 50.3263 56.6714 50.2896C55.7664 50.1773 54.8499 50.0996 53.9826 50.0616C53.4421 50.0403 52.8596 49.985 52.3049 49.9024C51.7501 49.8198 51.2468 49.7134 50.8554 49.596C50.5038 49.4903 50.0438 49.3954 49.5395 49.3245C48.9491 49.2522 48.8944 49.1674 49.2241 49.1019C49.5538 49.0365 50.106 48.9523 50.5961 48.8835C50.7667 48.8601 50.8724 48.8221 50.9014 48.7737C50.9304 48.7253 50.8817 48.6683 50.7606 48.6093C50.6828 48.5082 50.6693 48.4122 50.7204 48.3238C50.7478 48.287 50.7289 48.2449 50.6651 48.2002C50.6013 48.1555 50.4941 48.1093 50.3507 48.0647C50.2073 48.0201 50.031 47.9782 49.8337 47.9417C49.6364 47.9053 49.4226 47.8751 49.207 47.8533C48.2968 47.7419 47.4111 47.6335 46.4829 47.552C46.094 47.5137 45.7054 47.4661 45.3267 47.4105C44.5516 47.273 43.7225 47.159 42.8873 47.075C42.4909 47.0375 42.1034 46.9719 41.8086 46.8924C40.8787 46.6782 40.0219 46.453 39.2537 46.2208C39.0685 46.1488 38.8263 46.0786 38.5421 46.0145C38.2579 45.9504 37.9379 45.8939 37.6022 45.8485C37.3316 45.8153 37.1113 45.7424 36.9028 45.6939C36.7512 45.5815 36.735 45.4775 36.8557 45.3917C36.9764 45.3059 37.2301 45.2411 37.5929 45.2034C37.9369 45.1581 38.2589 45.1055 38.5563 45.0499C38.9148 45.005 39.3409 44.978 39.819 44.9699C40.3851 44.9458 40.8037 44.8768 41.0203 44.772C39.4705 44.5823 37.9966 44.3099 36.6382 44.3735L35.606 44.2012C35.6471 44.1326 35.6831 44.0726 35.7165 44.0169C35.962 43.9155 36.0386 43.7876 35.94 43.6441C35.8587 43.5747 35.866 43.5115 35.9613 43.461C36.0565 43.4104 36.2362 43.3743 36.4823 43.3563C37.9399 43.1714 39.6255 43.0466 40.9923 42.8367C41.4209 42.7973 41.9226 42.7795 42.4763 42.7838C43.012 42.7712 42.9896 42.6765 42.3731 42.5596C42.0271 42.4985 41.6744 42.44 41.3164 42.3842C39.7377 42.3749 39.0945 42.655 37.2928 42.577L36.4578 42.208C36.232 42.2023 36.0128 42.2001 35.8017 42.2013L32.7808 42.3512C32.5292 42.3587 32.3333 42.3844 32.2154 42.4252C32.0976 42.4661 32.0624 42.5205 32.114 42.5824C32.1345 42.658 32.0929 42.7274 31.9907 42.7881C31.9248 42.8305 31.967 42.8869 32.1079 42.945C32.4255 43.0759 32.018 43.095 31.7606 43.1279C31.6948 43.1311 31.619 43.1307 31.5374 43.1269C31.4559 43.123 31.3703 43.1156 31.2857 43.1053C31.201 43.0949 31.1189 43.0817 31.0442 43.0665C30.9695 43.0512 30.9036 43.0342 30.8504 43.0164C30.397 42.8919 30.0004 42.7606 29.5546 42.6232C29.8711 42.4918 29.4987 42.276 29.9925 42.1571C30.0478 42.1333 30.0699 42.1044 30.0575 42.072C30.0451 42.0396 29.9985 42.0045 29.9205 41.9689C29.7194 41.8768 29.6237 41.787 29.6429 41.7086C29.6621 41.6302 29.7955 41.5659 30.0298 41.5223L30.0581 41.4751C29.4402 41.3167 29.6039 41.1758 29.3612 41.008L28.7667 40.8985C27.2878 40.6346 27.2852 40.6389 26.0119 40.6486C25.7552 40.5482 26.0813 40.5329 26.3258 40.5215L28.3738 40.4088C29.7128 40.3335 31.0908 40.2815 32.5866 40.253C34.0823 40.2245 35.7499 40.1297 37.296 40.0614C37.3742 40.0561 37.434 40.0456 37.4704 40.0309C37.5068 40.0161 37.5187 39.9975 37.5053 39.9766C37.4438 39.954 37.3634 39.9322 37.2699 39.9128C37.1764 39.8934 37.0723 39.8769 36.9651 39.8645C36.4731 39.8042 35.9683 39.7654 35.444 39.7151L34.4666 39.6276L34.1659 39.5126C33.9702 39.4426 33.8365 39.3573 33.5762 39.307C33.3616 39.2695 33.1288 39.2411 32.9018 39.2246C32.6748 39.2081 32.462 39.2043 32.2856 39.2134C31.7966 39.2363 31.3541 39.2696 30.8871 39.2998C30.4201 39.33 30.1627 39.3629 29.7578 39.3777C28.935 39.3845 28.1398 39.4023 27.3757 39.4311C26.7321 39.4992 26.1368 39.58 25.5936 39.6729C25.2547 39.7096 24.9378 39.7536 24.3591 39.7057C24.0846 39.6624 23.8478 39.6054 23.6908 39.5449C23.5337 39.4844 23.4665 39.4243 23.501 39.3753C23.5321 39.3369 23.62 39.3065 23.7564 39.287C23.8929 39.2675 24.0734 39.2595 24.2808 39.2638C24.8617 39.2567 25.3988 39.2329 25.8813 39.1929C26.553 39.1204 27.3706 39.0892 28.2865 39.101C28.5971 39.1114 28.8053 39.0725 29.077 39.0598C29.3487 39.0471 29.5789 39.0154 29.8818 39.0387C30.8228 39.0987 31.2741 39.0068 31.838 38.947C32.0289 38.9205 32.1472 38.8777 32.1798 38.8233C32.2125 38.7688 32.1582 38.7049 32.023 38.6385C31.7627 38.5062 31.4443 38.3732 31.0728 38.2416C30.8815 38.1769 30.6365 38.1154 30.357 38.062C30.0775 38.0087 29.771 37.9648 29.4616 37.9339C29.2764 37.853 29.1776 37.7733 29.1741 37.7022C29.1707 37.6311 29.2626 37.5708 29.4417 37.5267C29.8981 37.4262 30.3026 37.324 31.3252 37.3801C31.8059 37.4016 32.2584 37.4057 32.6645 37.3923C33.5654 37.374 34.6046 37.4141 35.6841 37.509C35.9634 37.5333 36.2379 37.5499 36.4996 37.5582C38.3658 37.6165 40.144 37.6456 41.9272 37.6661C42.8719 37.676 43.8244 37.673 44.8105 37.7017C47.1233 37.7641 49.2286 37.732 51.4609 37.7523C52.63 37.7628 53.6765 37.7208 54.5454 37.6286C54.7146 37.5977 54.8599 37.5616 54.9797 37.5208C54.4039 37.4136 53.7714 37.3288 53.1428 37.2744C52.5143 37.22 51.9107 37.1979 51.3899 37.2101C51.1037 37.2401 50.7336 37.2456 50.3211 37.2259C49.9086 37.2063 49.4698 37.1623 49.0537 37.0989L50.2635 37.063C51.0657 37.0462 51.8874 37.041 52.6676 37.0169C53.9071 36.9755 55.0559 36.9091 56.3395 36.8823C57.3758 36.8576 58.3031 36.7945 59.0924 36.6949C59.6626 36.6223 60.3138 36.5708 61.0328 36.5415C61.5439 36.5259 61.5439 36.5259 61.8706 36.3773C61.6114 36.2812 61.2762 36.2677 60.9605 36.2659C59.0674 36.2054 57.2659 36.1948 55.5926 36.2343C54.7483 36.2378 53.9993 36.2785 53.3816 36.3546C53.2303 36.3867 52.8433 36.3715 52.5327 36.3611C51.559 36.3452 50.6283 36.3498 49.7519 36.3748C48.5402 36.4165 47.1906 36.4066 45.7557 36.3455C45.4836 36.2708 45.7968 36.277 45.8122 36.2513C46.9236 36.2033 48.013 36.1481 49.1464 36.1075C49.4562 36.093 49.7874 36.0858 50.1362 36.0861C51.4385 36.1113 52.5237 36.0415 53.2398 35.8865C53.2757 35.8265 53.7468 35.8335 53.955 35.7946C54.0574 35.7609 54.1256 35.7213 54.1576 35.6768C53.8543 35.5661 53.5114 35.5655 53.2474 35.5654C52.4814 35.5778 51.7444 35.6012 51.0401 35.6356C50.3854 35.6683 49.6607 35.677 48.8856 35.6616C48.3135 35.6468 47.8245 35.6697 47.2473 35.6634C46.9343 35.6502 46.6102 35.6291 46.2817 35.6004C46.6474 35.5232 47.1446 35.4758 47.7382 35.4613C48.1883 35.4152 48.7512 35.4014 48.8231 35.2814C48.6105 35.1955 48.3737 35.1941 48.1835 35.2031C47.7876 35.2027 47.4052 35.2081 47.0384 35.2193C46.2604 35.2437 45.4181 35.244 44.5292 35.2203C44.0611 35.2114 43.6169 35.2141 43.2041 35.2282C42.2686 35.2471 41.372 35.2891 40.5154 35.3085C38.7608 35.3282 37.1604 35.3991 35.4744 35.4365C35.0992 35.4457 34.7628 35.4782 34.2683 35.4222C33.7737 35.3663 33.7517 35.359 33.6933 35.3242C33.5549 35.2663 33.513 35.21 33.5762 35.1673C33.6743 35.1273 33.8654 35.1051 34.1155 35.1045C35.6226 35.041 37.0522 34.9517 38.3951 34.8373C38.9861 34.8144 39.5039 34.7676 39.9305 34.6987C40.2688 34.6512 40.6701 34.6197 41.1219 34.6053C41.7789 34.571 42.4638 34.5459 43.1739 34.53C43.5043 34.5215 43.7852 34.496 44.0002 34.4552C44.2151 34.4144 44.3597 34.3589 44.4255 34.2922L43.555 34.0707C43.4182 34.0603 43.2825 34.0514 43.1485 34.0439L35.9232 34.2035L35.2077 34.2079C34.4234 34.1947 34.2317 34.162 33.4878 33.9054C35.1856 33.845 36.5202 33.669 37.3587 33.3949C37.1572 33.3654 36.9506 33.3401 36.7437 33.3196C35.3869 33.2548 34.1044 33.2376 32.9454 33.2686C32.257 33.2717 31.5491 33.2632 30.8387 33.2591C31.0465 33.1327 31.8424 33.1704 32.3612 33.1419C33.6008 33.0973 34.6969 33.0052 35.6146 32.8686C35.931 32.8153 36.3268 32.7813 36.7839 32.768C37.2414 32.7634 37.6235 32.7312 37.8971 32.6741C38.1707 32.617 38.3273 32.5367 38.3534 32.4403C38.3965 32.3531 38.4894 32.272 38.6306 32.1983C38.3808 32.0937 37.984 31.9936 37.5148 31.9167C37.0455 31.8397 36.5361 31.7913 36.0821 31.7805C35.1129 31.7375 34.1077 31.667 33.092 31.5708C32.586 31.5224 32.0899 31.4945 31.6358 31.4892C31.2354 31.485 30.7802 31.45 30.3398 31.3895C29.8993 31.3289 29.4978 31.2461 29.1963 31.1537C28.7895 31.0395 28.4098 30.9241 28.0301 30.8086C27.6505 30.6931 27.2099 30.5472 26.7667 30.4055C26.376 30.3834 25.9954 30.3691 25.6304 30.363C25.3463 30.3682 25.0149 30.3528 24.6751 30.3185C24.3354 30.2842 24.0015 30.2326 23.713 30.1697C23.8822 30.1076 24.0735 30.0528 24.2751 29.9809C23.9984 29.8859 23.7979 29.7891 23.6855 29.6963C23.5732 29.6034 23.5515 29.5166 23.6218 29.441C23.6629 29.3724 23.3622 29.2574 23.2583 29.1665C23.1245 29.0881 23.0994 29.0149 23.1862 28.9566C23.273 28.8983 23.4677 28.8575 23.7447 28.8396C24.0884 28.8066 24.368 28.7569 24.5723 28.6926C24.6398 28.6759 24.6742 28.653 24.6723 28.626C24.6704 28.5991 24.6322 28.5689 24.5613 28.5382C24.4903 28.5076 24.3889 28.4774 24.2663 28.4506C24.1436 28.4237 24.0037 28.401 23.8592 28.3845C23.4167 28.3377 22.9772 28.3073 22.566 28.2952C21.8577 28.2729 21.1795 28.2588 20.5316 28.2531C19.8151 28.2445 19.0179 28.1913 18.2211 28.099C17.5077 28.0117 16.868 27.9334 16.5192 27.7665C16.1704 27.5996 15.6127 27.6049 15.1838 27.4834C15.4247 27.3739 15.8529 27.2978 16.4251 27.2628C16.7996 27.2503 17.1122 27.2175 17.3428 27.1666C17.5735 27.1156 17.7171 27.0475 17.7645 26.9668L16.4625 26.628C15.4226 26.4685 14.8473 26.5913 13.7238 26.5273L14.8815 26.4023C14.9047 26.3899 14.9134 26.3754 14.9071 26.3594C14.7948 26.1065 14.6159 26.0524 13.4326 25.9121L12.7684 25.8308L11.7172 25.7343C11.5488 25.6825 11.4324 25.6284 11.3795 25.5775C11.3266 25.5267 11.339 25.4808 11.4157 25.4444C11.5697 25.3833 11.6165 25.3052 11.5519 25.2173C11.4499 25.1591 11.4415 25.1054 11.5281 25.0656C11.6146 25.0258 11.7907 25.0024 12.0258 24.9994C12.2134 24.9947 12.2274 24.9274 12.3294 24.8893C12.4308 24.8368 12.6044 24.7965 12.8383 24.7712C13.0722 24.7458 13.3609 24.7361 13.6849 24.7425C14.64 24.7478 15.5373 24.728 16.3607 24.6837L16.2131 24.6656C17.0714 24.7046 17.8738 24.7093 18.5813 24.6796C19.2903 24.6422 20.2001 24.6662 20.9532 24.6434C21.5662 24.6486 22.0329 24.5968 22.2543 24.4991C22.4687 24.4057 23.2478 24.4275 23.8445 24.4454C24.1979 24.4569 24.5395 24.4618 24.8656 24.46C25.3033 24.4388 25.8505 24.4588 26.4161 24.5164C26.5858 24.5341 26.753 24.5435 26.9015 24.5436C28.3393 24.5678 29.7745 24.5964 31.1928 24.609C31.5202 24.6017 31.9041 24.6184 32.2994 24.6571C32.4656 24.6739 32.6273 24.6808 32.7628 24.677C35.0039 24.6386 37.5329 24.7366 39.7299 24.6836C39.9962 24.6711 40.2911 24.6685 40.606 24.6759C41.3138 24.707 41.9284 24.687 42.3566 24.6188C42.5876 24.5825 42.8838 24.5625 43.2262 24.5601C43.5687 24.5577 43.9499 24.5729 44.3455 24.6047C45.0039 24.6468 45.6124 24.6514 46.1067 24.6179C47.0706 24.587 48.0843 24.5743 49.1398 24.5799C49.4632 24.5853 49.7475 24.5733 49.9707 24.5447C50.1938 24.5162 50.3498 24.472 50.4266 24.4154C50.1674 24.3193 49.884 24.3076 49.6149 24.316C48.5718 24.2941 47.5312 24.2679 46.5076 24.2576C45.5914 24.2281 44.7123 24.2191 43.8832 24.2307C43.4715 24.2438 42.9578 24.214 42.4542 24.1478C41.837 24.0639 41.2012 24.0223 40.6756 24.0312C40.2859 24.0334 39.8745 24.0262 39.4475 24.0097C39.1741 23.9897 38.8939 23.9554 38.6357 23.9103C38.5332 23.8907 38.4216 23.8742 38.3082 23.8619C38.1947 23.8496 38.0819 23.8418 37.9768 23.8389C37.8717 23.8359 37.7766 23.838 37.6977 23.845C37.6189 23.852 37.558 23.8637 37.5188 23.8793C37.1234 24.0103 36.2393 23.9435 35.4822 23.929C34.3476 23.7073 33.5032 23.8385 32.4428 23.7133C32.359 23.705 32.2763 23.7 32.2 23.6985C32.1237 23.6971 32.0553 23.6993 31.9989 23.705C29.9469 23.7803 27.5552 23.7175 25.4008 23.7435C25.1632 23.7473 24.8874 23.7343 24.6048 23.7059C22.7578 23.5178 20.982 23.4645 19.6246 23.5562C19.4594 23.5644 19.2715 23.5648 19.0695 23.5572C18.1414 23.4825 17.2539 23.4527 16.481 23.4703C15.2697 23.4646 14.1051 23.4692 12.8744 23.452C12.026 23.4274 11.2818 23.4536 10.7162 23.5281C10.6982 23.5581 10.3215 23.5258 10.0329 23.5227C9.86695 23.4472 9.72306 23.3789 9.55195 23.312C9.399 23.2292 9.16986 23.1454 8.88016 23.0663C8.59046 22.9871 8.24699 22.9146 7.87288 22.8535C7.23328 22.7752 7.16931 22.6615 7.61687 22.6197C8.77045 22.4814 10.221 22.4248 11.8619 22.4541C13.2336 22.4564 14.63 22.4618 16.0211 22.4757C16.8326 22.4876 17.688 22.5141 18.4774 22.5188C18.7437 22.529 19.0173 22.544 19.2954 22.5637C19.6366 22.5923 19.9678 22.6079 20.2713 22.6096C21.2459 22.5856 22.3334 22.6065 23.4822 22.6715C23.9029 22.6857 24.307 22.6905 24.6883 22.6858C25.5903 22.6681 26.5682 22.6811 27.5961 22.7244C28.235 22.7488 28.8545 22.7615 29.4481 22.7625C29.6578 22.7652 29.8285 22.7447 30.0304 22.7602C31.8079 22.9226 33.0665 22.8053 34.6662 22.8678C35.4437 22.8852 36.1865 22.8852 36.8842 22.8679C38.2457 22.8687 39.6452 22.8866 41.0771 22.9213C42.9706 22.9783 44.7252 22.9585 46.5331 22.982C46.89 22.987 47.2346 22.9861 47.5644 22.9795C49.1689 22.9357 50.9115 22.945 52.7498 23.0071C53.1673 23.0161 53.5421 23.0051 53.8511 22.9749C54.16 22.9446 54.3963 22.8958 54.5451 22.8314C54.6081 22.7871 54.5673 22.7297 54.4306 22.6701C54.2037 22.5941 53.9475 22.5195 53.6661 22.4478L43.433 22.2069C43.0032 22.1944 42.5841 22.1876 42.1777 22.1866C40.9826 22.1846 39.7507 22.1658 38.4881 22.1305C37.2405 22.0974 36.0487 22.1033 34.84 22.0933C34.484 22.09 34.1186 22.0821 33.7452 22.0697C31.2215 21.9715 28.7606 21.9115 26.3799 21.8901C25.3783 21.8871 24.2963 21.842 23.2752 21.8274C22.2542 21.8128 20.8579 21.8075 19.6466 21.8018L15.8965 21.8027C15.1589 21.7998 14.4407 21.8084 13.7251 21.8128C12.8567 21.4995 12.5575 21.4261 11.3987 21.2888C11.0023 21.2382 10.5991 21.208 10.2363 21.2017C9.08601 21.2265 7.64268 21.1234 6.55186 21.137C5.89364 21.1303 5.33512 21.1651 4.93346 21.2379C4.58479 21.295 4.18609 21.3402 3.7435 21.3728C2.53109 21.1048 2.42424 20.9307 3.33625 20.863C3.58334 20.8472 3.92369 20.8521 4.10213 20.8187C4.20451 20.7984 4.34437 20.7868 4.51057 20.7848C4.67677 20.7828 4.8647 20.7905 5.05964 20.8072C5.67486 20.851 6.25151 20.8613 6.73171 20.8371C7.18364 20.805 7.7376 20.8062 8.34019 20.8408C8.783 20.895 9.1722 20.8185 9.55514 20.7964C9.93808 20.7742 10.2523 20.7345 10.8504 20.7939C10.96 20.8058 11.0687 20.8129 11.1683 20.8147C11.2679 20.8165 11.3557 20.813 11.4251 20.8045C12.0674 20.7662 12.834 20.7702 13.6625 20.8162C14.9332 20.8615 16.1255 20.8632 17.1979 20.8213C17.8398 20.7846 18.3872 20.7195 18.8185 20.6287C18.9361 20.5983 19.1106 20.5801 19.3255 20.5758C20.4045 20.5947 21.5761 20.6661 22.7647 20.7852C23.2125 20.8329 23.6597 20.8707 24.0968 20.8977C24.9951 20.9576 25.8639 20.9912 26.6776 20.9974C27.8598 20.9984 29.0908 21.0215 30.3594 21.0664C31.1424 21.0914 31.8968 21.1007 32.6137 21.094C33.3507 21.0909 34.1375 21.1099 34.9563 21.1508C35.7706 21.1841 36.4882 21.1649 37.0226 21.0956C37.1986 21.0582 37.3403 21.0139 37.4452 20.9633C36.2529 20.7989 35.0198 20.7153 33.9942 20.7294C33.6046 20.7185 33.2812 20.7295 32.8707 20.6655L32.8578 20.6869C32.7761 20.7008 32.6529 20.7041 32.5116 20.6961C32.3703 20.6882 32.2208 20.6695 32.0916 20.6437C32.1404 20.5623 32.1867 20.4852 32.2201 20.4294C33.0015 20.4393 33.7602 20.4385 34.4924 20.4271C35.1096 20.4106 35.9475 20.5546 36.4817 20.5004C37.5237 20.5682 38.1871 20.4746 39.1215 20.5016C40.056 20.5286 41.0851 20.6178 42.0196 20.6448C42.8349 20.6596 43.6266 20.6628 44.3903 20.6544C44.6538 20.6427 44.9577 20.6454 45.2832 20.6626C45.7408 20.6948 46.1663 20.7002 46.5111 20.6781C46.8559 20.6561 47.106 20.6075 47.2328 20.5378C47.1134 20.4726 46.9526 20.3886 46.7672 20.3015C47.1083 20.2299 47.6264 20.1998 48.2446 20.2155L49.1181 20.2121C49.3496 20.214 49.5265 20.1946 49.6123 20.1581C49.6981 20.1215 49.6863 20.0705 49.5792 20.0156C47.9229 19.7392 47.8619 19.7087 46.6463 19.8865L45.0322 19.8039L45.0594 19.8026ZM66.8908 20.5618L66.7678 20.5467L66.8908 20.5618ZM268.033 49.9651L268.005 50.0122L268.036 49.9608L268.306 49.9939L268.324 49.9639L268.033 49.9651ZM228.745 29.3048C228.362 29.2533 227.976 29.2061 227.588 29.1632C227.487 29.1566 227.392 29.1551 227.311 29.1588C227.231 29.1626 227.168 29.1715 227.126 29.1849C227.096 29.2363 227.312 29.272 227.509 29.2961C227.757 29.3285 228.01 29.3491 228.243 29.3558C228.476 29.3624 228.679 29.3549 228.833 29.334L229.055 29.3152L228.745 29.3048ZM31.742 41.8377C31.9938 41.8463 32.2326 41.8477 32.4525 41.8419C33.428 41.8003 34.362 41.7398 35.3621 41.7013C36.624 41.6034 38.0741 41.5636 39.6578 41.5832C40.2766 41.5928 40.7993 41.5611 41.165 41.4918C41.384 41.4546 41.6666 41.4328 41.9955 41.4278L46.1825 41.3149C46.4414 41.2914 46.6651 41.2586 46.8486 41.217C46.4796 41.1718 46.2336 41.1417 46.086 41.1237C45.7797 41.1186 45.5165 41.1324 45.3227 41.1636C45.1145 41.2166 44.7626 41.2375 44.3368 41.2223C43.907 41.2097 43.4879 41.203 43.0816 41.202C42.3142 41.2047 41.5416 41.2159 40.7717 41.2228C40.4721 41.3701 39.588 41.3033 38.8309 41.2888L38.246 41.2954C36.3342 41.3718 34.508 41.4768 32.7762 41.6101C32.4415 41.6326 32.1531 41.6686 31.92 41.7169C31.8322 41.7545 31.8041 41.8015 31.8378 41.854L31.7148 41.839L31.742 41.8377ZM117.116 55.9231C117.58 55.9332 118.063 55.9538 118.558 55.9846C118.94 56.0162 119.312 56.0353 119.66 56.0413C121.61 56.0743 123.642 56.1506 125.728 56.2691C126.001 56.287 126.264 56.2958 126.505 56.2952L128.213 56.2651C128.751 56.2482 128.762 56.231 128.37 56.0037C128.045 55.9596 127.716 55.9193 127.386 55.8832C127.189 55.8591 126.869 55.82 126.794 55.8568C126.338 55.9573 125.506 55.8922 124.805 55.8709C122.779 55.816 120.688 55.7349 118.642 55.6684C118.21 55.6521 117.791 55.6439 117.39 55.6438C117.141 55.6404 116.914 55.6468 116.718 55.6628C116.661 55.6644 116.613 55.6692 116.578 55.6767C116.542 55.6843 116.52 55.6945 116.513 55.7067C116.506 55.7188 116.513 55.7327 116.535 55.7473C116.557 55.7619 116.593 55.7769 116.641 55.7913C116.808 55.8419 117.002 55.8904 117.215 55.9352L117.116 55.9231ZM131.963 22.9256L133.96 22.8987C134.199 22.8958 134.402 22.8655 134.659 22.8784C136.026 22.9196 137.291 22.9081 138.402 22.8446C138.78 22.8186 139.223 22.8134 139.705 22.8293C141.182 22.8763 142.575 22.8782 143.847 22.835C144.669 22.8264 145.439 22.7973 146.144 22.7482C146.198 22.7368 146.232 22.7213 146.243 22.7029C146.254 22.6844 146.242 22.6633 146.208 22.6411C146.199 22.627 146.175 22.6119 146.137 22.5968C146.1 22.5817 146.049 22.5669 145.989 22.5535C145.93 22.54 145.862 22.5283 145.791 22.519C145.721 22.5097 145.649 22.5032 145.58 22.4998C144.689 22.4333 143.843 22.4102 143.112 22.4322C142.434 22.4586 141.703 22.4663 140.933 22.4552C140.195 22.4523 139.695 22.5382 138.783 22.4727C138.398 22.4511 138.058 22.4582 137.821 22.4928C137.343 22.5502 136.677 22.5534 135.941 22.5018C135.5 22.4757 135.079 22.4645 134.693 22.4687C133.757 22.4875 132.863 22.5253 131.997 22.5618C131.723 22.5702 131.431 22.5714 131.123 22.5652L126.783 22.4938C125.739 22.4719 124.699 22.4457 123.675 22.4354C122.838 22.413 122.059 22.42 121.366 22.4562C120.626 22.4943 119.82 22.5097 118.961 22.5023C117.629 22.5231 116.303 22.5311 114.853 22.5283C113.928 22.53 112.98 22.5244 112.014 22.5072C111.525 22.4852 111.109 22.5032 110.848 22.5577C110.689 22.6027 110.315 22.5661 110.004 22.5556C108.347 22.4551 106.794 22.4313 105.451 22.4858C105.28 22.4947 105.092 22.4979 104.891 22.4954C103.598 22.4936 102.259 22.4814 101.018 22.4812C100.691 22.4855 100.384 22.4971 100.099 22.516C100.13 22.5468 100.217 22.5801 100.342 22.6092C100.467 22.6382 100.621 22.6606 100.772 22.6719C101.945 22.7579 103.079 22.8033 104.124 22.8063C105.864 22.7953 107.686 22.82 109.572 22.8799C111.036 22.9404 112.37 22.9276 113.476 22.8427C114.341 22.7793 115.465 22.8031 116.657 22.9101C117.167 22.9612 117.662 22.9817 118.074 22.9686C118.471 22.9515 118.927 22.9557 119.414 22.9808C120.441 23.0286 121.429 23.0508 122.358 23.0469C123.266 23.0293 124.114 22.9812 125.047 22.9667C125.98 22.9521 127.401 22.9604 128.551 22.9357C129.701 22.9109 130.839 22.9076 131.963 22.9256ZM49.2316 20.4192C49.337 20.5517 49.71 20.6341 50.1114 20.6695C51.4949 20.8263 52.8628 20.8931 53.9852 20.8585C54.5916 20.8103 55.3999 20.8289 56.2513 20.9106C57.2428 20.9955 58.1694 21.0096 58.868 20.9503C59.0392 20.94 59.1703 20.9181 59.2495 20.8866C59.2649 20.8609 59.2932 20.8138 59.2983 20.8052C59.2249 20.7835 59.1349 20.7633 59.0352 20.7464C58.9355 20.7294 58.8288 20.716 58.7234 20.7072L54.1405 20.5556L53.3419 20.5222C51.8832 20.4347 50.4932 20.3999 49.2316 20.4192ZM58.2461 22.5163C58.9613 22.7326 58.9638 22.7283 59.3303 22.7778C61.0981 22.9832 62.8647 23.0941 64.4199 23.0973C64.7655 23.0967 65.0589 23.0758 65.275 23.0364C65.3863 23.0311 65.4571 23.0141 65.472 22.9892C65.4869 22.9643 65.4447 22.9335 65.3547 22.9036L64.7859 22.7511C63.753 22.6851 62.7349 22.6327 61.7377 22.5942C60.5768 22.5486 59.548 22.5469 58.3444 22.5283L58.2461 22.5163ZM117.031 54.9651C117.697 55.2629 117.7 55.2586 118.816 55.3354C119.593 55.3898 120.347 55.4218 121.056 55.4303C121.922 55.4397 122.809 55.4564 123.673 55.47C123.883 55.4795 124.062 55.4717 124.174 55.4479C124.286 55.4242 124.323 55.3864 124.278 55.3417C124.164 55.2933 123.987 55.2464 123.775 55.2087C123.563 55.171 123.328 55.1448 123.108 55.1342L122.637 55.1271C122.065 55.1123 121.471 55.0901 120.919 55.0869C120.56 55.0992 120.145 55.0897 119.705 55.059C119.265 55.0283 118.813 54.9773 118.384 54.91L117.031 54.9651ZM61.805 20.8085C61.9829 20.8601 62.1842 20.9095 62.4034 20.9554C63.2522 21.0826 64.1507 21.1548 64.9225 21.158C65.2875 21.1658 65.6212 21.1377 65.9928 21.1786C66.6592 21.2332 67.305 21.2623 67.8955 21.2643C67.8955 21.2643 68.061 21.2524 68.1153 21.2499L68.2284 21.0613C67.9489 21.0176 67.6574 20.982 67.3674 20.9559C66.394 20.9057 65.4376 20.8714 64.4837 20.8329C63.5298 20.7943 63.1972 20.7766 62.5734 20.76C62.2951 20.7691 62.0377 20.7854 61.805 20.8085ZM40.7268 44.2485L42.0005 44.6344C42.4127 44.668 42.7978 44.6741 43.0972 44.6518C43.3965 44.6294 43.5937 44.58 43.6589 44.5109C43.7638 44.4786 43.7743 44.4307 43.6882 44.3772C43.6021 44.3238 43.426 44.269 43.197 44.2244C42.9765 44.1714 42.7249 44.1239 42.4576 44.0849C42.1903 44.0458 41.9131 44.016 41.6432 43.9973L40.7268 44.2485ZM51.3321 42.3271C50.499 42.2616 49.7022 42.2349 49.0025 42.2489C48.5617 42.2871 47.9644 42.2749 47.3331 42.2147C46.185 42.0946 45.0782 42.0614 44.2463 42.122C44.2463 42.122 44.2155 42.1734 44.0745 42.1883C43.9335 42.2033 44.4927 42.2395 44.6157 42.2546C45.5178 42.2914 46.425 42.3197 47.2093 42.3329C47.6962 42.3323 48.2112 42.3445 48.7455 42.3692C49.4806 42.4072 50.1777 42.4196 50.8097 42.4057C50.8097 42.4057 51.0542 42.3942 51.3295 42.3313L51.3321 42.3271ZM140.304 22.2265C139.906 22.1538 139.475 22.0947 139.042 22.0537C138.609 22.0127 138.187 21.9908 137.806 21.9896C137.514 21.9858 137.278 22.005 137.135 22.0441C136.992 22.0833 136.95 22.1401 137.016 22.2057C137.311 22.2418 137.705 22.29 137.926 22.3171C138.693 22.3145 139.348 22.2796 140.304 22.2265ZM214.793 28.3512C214.474 28.2926 214.122 28.2479 213.778 28.2221C213.434 28.1962 213.112 28.1903 212.848 28.205C212.712 28.2113 212.804 28.2778 212.781 28.3164C212.766 28.3251 212.766 28.336 212.781 28.3479C212.797 28.3597 212.827 28.3722 212.868 28.3838C212.91 28.3955 212.962 28.406 213.018 28.4142C213.074 28.4225 213.133 28.4281 213.188 28.4306C213.534 28.4558 213.861 28.4633 214.139 28.4524C214.418 28.4416 214.639 28.4127 214.783 28.3683L214.793 28.3512ZM219.784 29.1875C219.735 29.153 219.629 29.117 219.488 29.0862C219.346 29.0553 219.178 29.0317 219.013 29.0196C218.722 29.018 218.458 29.0275 218.231 29.048C217.983 29.0637 218.161 29.1637 218.495 29.223C218.637 29.2468 218.788 29.2653 218.937 29.2772C219.086 29.289 219.228 29.2939 219.353 29.2913C219.477 29.2886 219.581 29.2787 219.655 29.2622C219.729 29.2457 219.771 29.223 219.779 29.1961L219.784 29.1875ZM74.7612 21.1757C74.0166 21.0524 73.4435 21.0834 72.8131 21.0338C72.1827 20.9842 72.0274 20.979 72.1118 21.0584C72.1963 21.1377 72.6284 21.1216 72.899 21.1547C73.2647 21.1987 73.6325 21.2239 73.9613 21.2276C74.2902 21.2313 74.5672 21.2134 74.7612 21.1757ZM229.924 42.0477C229.529 42.02 229.143 42.0004 228.77 41.9893C228.721 42.0008 228.691 42.0158 228.68 42.0334C228.67 42.0511 228.679 42.071 228.709 42.0921C228.709 42.0921 228.961 42.1552 229.109 42.1733C229.653 42.2353 229.679 42.1466 229.924 42.0477ZM285.667 53.5406C285.934 53.6239 286.059 53.6805 286.272 53.7205C286.37 53.7343 286.472 53.7444 286.569 53.7499C286.666 53.7555 286.757 53.7563 286.834 53.7524C286.928 53.7284 286.95 53.6917 286.896 53.6496C286.896 53.6496 286.624 53.5749 286.52 53.5714C286.225 53.5538 285.938 53.5434 285.667 53.5406ZM62.0869 20.4704C61.5211 20.4012 60.9798 20.3349 60.5881 20.4157C61.4865 20.5027 61.4866 20.5027 62.0869 20.4704ZM71.2509 21.2611C70.6796 21.113 70.3443 21.0996 70.07 21.1166C70.0117 21.1209 69.9732 21.1304 69.9602 21.1438C69.9471 21.1572 69.9604 21.1736 69.9979 21.1907C70.0354 21.2078 70.0951 21.2245 70.168 21.2384C70.2409 21.2523 70.3231 21.2625 70.402 21.2676C70.6999 21.2719 70.9841 21.2697 71.2509 21.2611ZM100.656 21.3238C100.669 21.3024 100.684 21.2766 100.536 21.2586C100.498 21.2494 100.452 21.2415 100.405 21.2357C100.357 21.2299 100.309 21.2264 100.266 21.2255C100.266 21.2255 100.25 21.2512 100.24 21.2683L100.656 21.3238ZM121.075 56.8953L120.747 56.9149L120.894 56.933L121.284 56.9439L121.075 56.8953ZM236.779 28.8532C236.656 28.8382 236.533 28.8231 236.515 28.8531C236.489 28.8577 236.473 28.8644 236.468 28.8726C236.463 28.8808 236.469 28.8903 236.486 28.9002C236.486 28.9002 236.659 28.9213 236.732 28.9303L236.779 28.8532ZM217.623 29.0931C217.542 29.0914 217.469 29.0934 217.408 29.099L217.392 29.1247L217.638 29.1549L217.623 29.0931ZM50.6824 35.2192C50.5874 35.2036 50.4867 35.1913 50.3872 35.1831L50.2642 35.168C50.2642 35.168 50.3963 35.2118 50.4702 35.2208C50.5439 35.2298 50.6035 35.2187 50.6824 35.2192Z" fill="#99CFFF"/>
</g>
<path d="M17.932 21.16V3.24C17.932 2.652 18.436 2.344 19.612 2.344H20.592C21.768 2.344 22.272 2.652 22.272 3.24V10.744L22.384 10.772L27.256 2.876C27.508 2.456 28.124 2.344 28.936 2.344H30.252C31.344 2.344 31.82 2.512 31.82 2.764C31.82 2.904 31.764 3.1 31.596 3.352L26.192 11.64L32.324 21.048C32.492 21.3 32.548 21.496 32.548 21.636C32.548 21.888 32.072 22.056 30.98 22.056H29.356C28.544 22.056 27.9 21.944 27.648 21.524L22.384 13.012L22.272 13.04V21.16C22.272 21.748 21.768 22.056 20.592 22.056H19.612C18.436 22.056 17.932 21.748 17.932 21.16ZM33.3088 14.776C33.3088 9.26 36.1088 7.132 40.1128 7.132C44.5088 7.132 46.1608 10.464 46.1608 14.356C46.1608 14.832 45.0968 16.008 44.7328 16.008H37.5928C37.7888 18.248 38.9928 18.948 40.8128 18.948C42.5768 18.948 43.8088 18.08 44.2008 18.08C44.8168 18.08 45.6568 19.648 45.6568 20.208C45.6568 21.608 42.1848 22.224 40.6168 22.224C35.5488 22.224 33.3088 19.284 33.3088 14.776ZM37.5928 13.236H42.1288C42.1288 11.612 41.5128 10.408 40.1128 10.408C38.9368 10.408 37.9288 11.08 37.5928 13.236ZM52.2386 22L47.6186 8.42C47.5626 8.224 47.5066 8.056 47.5066 7.916C47.5066 7.524 48.0386 7.3 49.2146 7.3H50.1106C50.9226 7.3 51.5386 7.44 51.6786 7.888L53.3306 13.068C53.5266 13.712 53.8626 15.252 54.1146 16.456H54.2266C54.4786 15.252 54.8146 13.684 55.0106 13.068L56.6626 7.888C56.8026 7.44 57.4186 7.3 58.2306 7.3H58.9026C60.0786 7.3 60.5826 7.524 60.5826 7.916C60.5826 8.056 60.5546 8.224 60.4986 8.42L54.0866 27.18C53.9186 27.628 53.3306 27.768 52.5186 27.768H52.0426C50.8946 27.768 50.3626 27.544 50.3626 27.18C50.3626 27.04 50.3906 26.872 50.4746 26.676L52.2386 22ZM69.3656 20.88V3.52C69.3656 2.736 69.7016 2.4 70.4856 2.4H76.0296C80.7616 2.4 82.6376 4.416 82.6376 7.356C82.6376 9.26 81.2936 10.912 79.6136 11.612L79.6416 11.724C81.8816 12.172 83.4216 14.16 83.4216 16.316C83.4216 19.928 81.1536 22 76.4216 22H70.4856C69.7016 22 69.3656 21.664 69.3656 20.88ZM73.6776 10.212H75.6096C77.2896 10.212 78.2136 9.288 78.2136 8.112C78.2136 6.74 77.3736 6.04 75.6656 6.04H73.6776V10.212ZM73.6776 18.332H76.4216C78.0456 18.332 78.9976 17.52 78.9976 16.064C78.9976 14.608 77.9056 13.88 75.9736 13.88H73.6776V18.332ZM85.2073 14.776C85.2073 9.26 88.0073 7.132 92.0113 7.132C96.4073 7.132 98.0593 10.464 98.0593 14.356C98.0593 14.832 96.9953 16.008 96.6313 16.008H89.4913C89.6873 18.248 90.8913 18.948 92.7113 18.948C94.4753 18.948 95.7073 18.08 96.0993 18.08C96.7153 18.08 97.5553 19.648 97.5553 20.208C97.5553 21.608 94.0833 22.224 92.5153 22.224C87.4473 22.224 85.2073 19.284 85.2073 14.776ZM89.4913 13.236H94.0273C94.0273 11.612 93.4113 10.408 92.0113 10.408C90.8353 10.408 89.8273 11.08 89.4913 13.236ZM100.861 21.16V12.284C100.861 9.484 100.525 8.896 100.525 8.336C100.525 7.664 102.961 7.44 103.661 7.44C104.557 7.44 104.613 8.56 104.781 9.26C105.593 8.196 107.133 7.132 108.953 7.132C111.753 7.132 113.069 8.56 113.069 11.668V21.16C113.069 21.748 112.565 22.056 111.389 22.056H110.605C109.429 22.056 108.925 21.748 108.925 21.16V12.284C108.925 11.192 108.477 10.548 107.245 10.548C106.097 10.548 105.341 11.528 105.005 12.172V21.16C105.005 21.748 104.501 22.056 103.325 22.056H102.541C101.365 22.056 100.861 21.748 100.861 21.16ZM115.887 14.776C115.887 9.26 118.687 7.132 122.691 7.132C127.087 7.132 128.739 10.464 128.739 14.356C128.739 14.832 127.675 16.008 127.311 16.008H120.171C120.367 18.248 121.571 18.948 123.391 18.948C125.155 18.948 126.387 18.08 126.779 18.08C127.395 18.08 128.235 19.648 128.235 20.208C128.235 21.608 124.763 22.224 123.195 22.224C118.127 22.224 115.887 19.284 115.887 14.776ZM120.171 13.236H124.707C124.707 11.612 124.091 10.408 122.691 10.408C121.515 10.408 120.507 11.08 120.171 13.236ZM132.017 21.16V10.632H131.513C130.925 10.632 130.673 10.212 130.673 9.232V8.756C130.673 7.776 130.925 7.356 131.513 7.356H132.017V5.256C132.017 2.148 133.473 0.719999 136.105 0.719999C137.001 0.719999 138.905 0.803999 138.905 2.092C138.905 2.316 138.597 4.108 138.037 4.108C137.841 4.108 137.449 3.996 137.169 3.996C136.441 3.996 136.161 4.36 136.161 5.2V7.356H137.561C138.149 7.356 138.401 7.776 138.401 8.756V9.232C138.401 10.212 138.149 10.632 137.561 10.632H136.161V21.16C136.161 21.748 135.657 22.056 134.481 22.056H133.697C132.521 22.056 132.017 21.748 132.017 21.16ZM142.242 4.948C141.066 4.948 140.562 4.64 140.562 4.052V1.784C140.562 1.196 141.066 0.888 142.242 0.888H143.026C144.202 0.888 144.706 1.196 144.706 1.784V4.052C144.706 4.64 144.202 4.948 143.026 4.948H142.242ZM140.562 21.16V8.196C140.562 7.608 141.066 7.3 142.242 7.3H143.026C144.202 7.3 144.706 7.608 144.706 8.196V21.16C144.706 21.748 144.202 22.056 143.026 22.056H142.242C141.066 22.056 140.562 21.748 140.562 21.16ZM148.476 17.688V10.632H148.028C147.44 10.632 147.188 10.212 147.188 9.232V8.756C147.188 7.776 147.44 7.356 148.028 7.356H148.476L148.84 4.696C148.924 4.108 149.428 3.8 150.352 3.8H151.22C152.2 3.8 152.62 4.108 152.62 4.696V7.356H153.992C154.58 7.356 154.832 7.776 154.832 8.756V9.232C154.832 10.212 154.58 10.632 153.992 10.632H152.62V17.744C152.62 18.584 152.9 18.948 153.628 18.948C153.88 18.948 154.216 18.836 154.384 18.836C154.944 18.836 155.252 20.628 155.252 20.852C155.252 22.14 153.432 22.224 152.564 22.224C149.932 22.224 148.476 20.796 148.476 17.688ZM156.759 20.236C156.759 19.676 157.655 18.164 158.243 18.164C158.607 18.164 159.671 18.948 160.987 18.948C162.163 18.948 162.695 18.528 162.695 17.688C162.695 15.224 157.095 16.68 157.095 11.668C157.095 8.868 159.083 7.132 162.247 7.132C163.171 7.132 166.391 7.328 166.391 8.896C166.391 9.26 165.747 10.968 165.187 10.968C164.907 10.968 164.067 10.38 162.807 10.38C161.855 10.38 161.295 10.688 161.295 11.388C161.295 13.432 166.895 12.368 166.895 17.352C166.895 20.292 164.795 22.224 161.659 22.224C159.223 22.224 156.759 21.58 156.759 20.236Z" fill="#0163BB"/>
<path d="M175.36 14.664C175.36 9.792 177.712 7.132 182.164 7.132C186.616 7.132 188.94 9.792 188.94 14.664C188.94 19.536 186.616 22.224 182.164 22.224C177.712 22.224 175.36 19.536 175.36 14.664ZM182.164 18.948C183.956 18.948 184.74 17.464 184.74 14.664C184.74 11.864 183.956 10.408 182.164 10.408C180.372 10.408 179.56 11.864 179.56 14.664C179.56 17.464 180.372 18.948 182.164 18.948ZM192.337 21.16V10.632H191.833C191.245 10.632 190.993 10.212 190.993 9.232V8.756C190.993 7.776 191.245 7.356 191.833 7.356H192.337V5.256C192.337 2.148 193.793 0.719999 196.425 0.719999C197.321 0.719999 199.225 0.803999 199.225 2.092C199.225 2.316 198.917 4.108 198.357 4.108C198.161 4.108 197.769 3.996 197.489 3.996C196.761 3.996 196.481 4.36 196.481 5.2V7.356H197.881C198.469 7.356 198.721 7.776 198.721 8.756V9.232C198.721 10.212 198.469 10.632 197.881 10.632H196.481V21.16C196.481 21.748 195.977 22.056 194.801 22.056H194.017C192.841 22.056 192.337 21.748 192.337 21.16ZM208.113 17.688V10.632H207.665C207.077 10.632 206.825 10.212 206.825 9.232V8.756C206.825 7.776 207.077 7.356 207.665 7.356H208.113L208.477 4.696C208.561 4.108 209.065 3.8 209.989 3.8H210.857C211.837 3.8 212.257 4.108 212.257 4.696V7.356H213.629C214.217 7.356 214.469 7.776 214.469 8.756V9.232C214.469 10.212 214.217 10.632 213.629 10.632H212.257V17.744C212.257 18.584 212.537 18.948 213.265 18.948C213.517 18.948 213.853 18.836 214.021 18.836C214.581 18.836 214.889 20.628 214.889 20.852C214.889 22.14 213.069 22.224 212.201 22.224C209.569 22.224 208.113 20.796 208.113 17.688ZM217.375 21.16V1.784C217.375 1.196 217.879 0.888 219.055 0.888H219.839C221.015 0.888 221.519 1.196 221.519 1.784V9.036C222.387 8 223.787 7.132 225.467 7.132C228.267 7.132 229.695 8.56 229.695 11.668V21.16C229.695 21.748 229.191 22.056 228.015 22.056H227.231C226.055 22.056 225.551 21.748 225.551 21.16V12.284C225.551 11.192 224.991 10.548 223.759 10.548C222.611 10.548 221.855 11.528 221.519 12.172V21.16C221.519 21.748 221.015 22.056 219.839 22.056H219.055C217.879 22.056 217.375 21.748 217.375 21.16ZM232.535 14.776C232.535 9.26 235.335 7.132 239.339 7.132C243.735 7.132 245.387 10.464 245.387 14.356C245.387 14.832 244.323 16.008 243.959 16.008H236.819C237.015 18.248 238.219 18.948 240.039 18.948C241.803 18.948 243.035 18.08 243.427 18.08C244.043 18.08 244.883 19.648 244.883 20.208C244.883 21.608 241.411 22.224 239.843 22.224C234.775 22.224 232.535 19.284 232.535 14.776ZM236.819 13.236H241.355C241.355 11.612 240.739 10.408 239.339 10.408C238.163 10.408 237.155 11.08 236.819 13.236ZM254.44 12.2C254.44 5.732 257.66 2.176 263.428 2.176C269.196 2.176 272.388 5.732 272.388 12.2C272.388 18.668 269.196 22.224 263.428 22.224C257.66 22.224 254.44 18.668 254.44 12.2ZM263.428 18.556C266.424 18.556 267.964 16.316 267.964 12.2C267.964 8.084 266.424 5.872 263.428 5.872C260.432 5.872 258.864 8.084 258.864 12.2C258.864 16.316 260.432 18.556 263.428 18.556ZM275.396 21.16V12.284C275.396 9.484 275.06 8.896 275.06 8.336C275.06 7.664 277.496 7.44 278.196 7.44C279.092 7.44 279.148 8.56 279.316 9.26C280.128 8.196 281.64 7.132 283.46 7.132C285.392 7.132 286.596 7.804 287.156 9.26C287.996 8.196 289.592 7.132 291.468 7.132C294.268 7.132 295.556 8.56 295.556 11.668V21.16C295.556 21.748 295.052 22.056 293.876 22.056H293.092C291.916 22.056 291.412 21.748 291.412 21.16V12.284C291.412 11.192 290.992 10.548 289.76 10.548C288.612 10.548 287.884 11.528 287.548 12.172V21.16C287.548 21.748 287.044 22.056 285.868 22.056H285.084C283.908 22.056 283.404 21.748 283.404 21.16V12.284C283.404 11.192 282.984 10.548 281.752 10.548C280.604 10.548 279.876 11.528 279.54 12.172V21.16C279.54 21.748 279.036 22.056 277.86 22.056H277.076C275.9 22.056 275.396 21.748 275.396 21.16ZM299.131 21.16V12.284C299.131 9.484 298.795 8.896 298.795 8.336C298.795 7.664 301.231 7.44 301.931 7.44C302.827 7.44 302.883 8.56 303.051 9.26C303.863 8.196 305.403 7.132 307.223 7.132C310.023 7.132 311.339 8.56 311.339 11.668V21.16C311.339 21.748 310.835 22.056 309.659 22.056H308.875C307.699 22.056 307.195 21.748 307.195 21.16V12.284C307.195 11.192 306.747 10.548 305.515 10.548C304.367 10.548 303.611 11.528 303.275 12.172V21.16C303.275 21.748 302.771 22.056 301.595 22.056H300.811C299.635 22.056 299.131 21.748 299.131 21.16ZM316.312 4.948C315.136 4.948 314.632 4.64 314.632 4.052V1.784C314.632 1.196 315.136 0.888 316.312 0.888H317.096C318.272 0.888 318.776 1.196 318.776 1.784V4.052C318.776 4.64 318.272 4.948 317.096 4.948H316.312ZM314.632 21.16V8.196C314.632 7.608 315.136 7.3 316.312 7.3H317.096C318.272 7.3 318.776 7.608 318.776 8.196V21.16C318.776 21.748 318.272 22.056 317.096 22.056H316.312C315.136 22.056 314.632 21.748 314.632 21.16ZM321.567 14.776C321.567 9.792 323.751 7.132 328.763 7.132C330.751 7.132 333.411 7.776 333.411 9.064C333.411 9.596 332.403 11.22 331.927 11.22C331.815 11.22 331.647 11.136 331.423 11.024C330.919 10.772 330.163 10.408 328.987 10.408C326.747 10.408 325.823 11.808 325.823 14.664C325.823 17.548 326.691 18.948 328.819 18.948C330.135 18.948 331.031 18.556 331.563 18.304C331.787 18.22 331.955 18.136 332.067 18.136C332.683 18.136 333.523 19.704 333.523 20.264C333.523 21.832 329.547 22.224 328.623 22.224C323.835 22.224 321.567 19.788 321.567 14.776ZM335.828 21.16V1.784C335.828 1.196 336.332 0.888 337.508 0.888H338.292C339.468 0.888 339.972 1.196 339.972 1.784V9.036C340.84 8 342.24 7.132 343.92 7.132C346.72 7.132 348.148 8.56 348.148 11.668V21.16C348.148 21.748 347.644 22.056 346.468 22.056H345.684C344.508 22.056 344.004 21.748 344.004 21.16V12.284C344.004 11.192 343.444 10.548 342.212 10.548C341.064 10.548 340.308 11.528 339.972 12.172V21.16C339.972 21.748 339.468 22.056 338.292 22.056H337.508C336.332 22.056 335.828 21.748 335.828 21.16ZM350.989 18.136C350.989 15.84 351.913 12.928 359.025 12.928V12.004C359.025 10.94 358.381 10.408 356.841 10.408C354.797 10.408 353.593 11.304 353.257 11.304C352.669 11.304 351.801 9.652 351.801 9.064C351.801 8.112 354.041 7.132 357.149 7.132C361.573 7.132 363.169 9.092 363.169 11.808V17.072C363.169 19.956 363.505 20.544 363.505 21.132C363.505 21.804 361.069 22.028 360.369 22.028C359.473 22.028 359.417 20.852 359.249 20.096C359.053 20.46 357.709 22.224 355.133 22.224C352.109 22.224 350.989 20.432 350.989 18.136ZM355.105 17.716C355.105 18.416 355.581 18.948 356.505 18.948C357.569 18.948 358.577 18.192 359.025 17.184V15.644C356.365 15.644 355.105 16.372 355.105 17.716ZM366.806 21.16V12.284C366.806 9.484 366.47 8.896 366.47 8.336C366.47 7.664 368.906 7.44 369.606 7.44C370.502 7.44 370.558 8.56 370.726 9.26C371.538 8.196 373.078 7.132 374.898 7.132C377.698 7.132 379.014 8.56 379.014 11.668V21.16C379.014 21.748 378.51 22.056 377.334 22.056H376.55C375.374 22.056 374.87 21.748 374.87 21.16V12.284C374.87 11.192 374.422 10.548 373.19 10.548C372.042 10.548 371.286 11.528 370.95 12.172V21.16C370.95 21.748 370.446 22.056 369.27 22.056H368.486C367.31 22.056 366.806 21.748 366.806 21.16ZM382.392 21.16V12.284C382.392 9.484 382.056 8.896 382.056 8.336C382.056 7.664 384.492 7.44 385.192 7.44C386.088 7.44 386.144 8.56 386.312 9.26C387.124 8.196 388.664 7.132 390.484 7.132C393.284 7.132 394.6 8.56 394.6 11.668V21.16C394.6 21.748 394.096 22.056 392.92 22.056H392.136C390.96 22.056 390.456 21.748 390.456 21.16V12.284C390.456 11.192 390.008 10.548 388.776 10.548C387.628 10.548 386.872 11.528 386.536 12.172V21.16C386.536 21.748 386.032 22.056 384.856 22.056H384.072C382.896 22.056 382.392 21.748 382.392 21.16ZM397.418 14.776C397.418 9.26 400.218 7.132 404.222 7.132C408.618 7.132 410.27 10.464 410.27 14.356C410.27 14.832 409.206 16.008 408.842 16.008H401.702C401.898 18.248 403.102 18.948 404.922 18.948C406.686 18.948 407.918 18.08 408.31 18.08C408.926 18.08 409.766 19.648 409.766 20.208C409.766 21.608 406.294 22.224 404.726 22.224C399.658 22.224 397.418 19.284 397.418 14.776ZM401.702 13.236H406.238C406.238 11.612 405.622 10.408 404.222 10.408C403.046 10.408 402.038 11.08 401.702 13.236ZM413.1 17.688V1.784C413.1 1.196 413.604 0.888 414.78 0.888H415.564C416.74 0.888 417.244 1.196 417.244 1.784V17.744C417.244 18.584 417.524 18.948 418.252 18.948C418.504 18.948 418.84 18.836 419.008 18.836C419.568 18.836 419.876 20.628 419.876 20.852C419.876 22.14 418.056 22.224 417.188 22.224C414.556 22.224 413.1 20.796 413.1 17.688ZM428.727 21.16V3.24C428.727 2.652 429.231 2.344 430.407 2.344H431.387C432.563 2.344 433.067 2.652 433.067 3.24V10.156H440.627V3.24C440.627 2.652 441.131 2.344 442.307 2.344H443.287C444.463 2.344 444.967 2.652 444.967 3.24V21.16C444.967 21.748 444.463 22.056 443.287 22.056H442.307C441.131 22.056 440.627 21.748 440.627 21.16V13.852H433.067V21.16C433.067 21.748 432.563 22.056 431.387 22.056H430.407C429.231 22.056 428.727 21.748 428.727 21.16ZM448.17 12.144C448.17 5.48 451.306 2.176 457.522 2.176C459.986 2.176 463.374 2.96 463.374 4.136C463.374 4.92 462.254 6.768 461.554 6.768C461.218 6.768 460.098 5.872 457.438 5.872C454.134 5.872 452.594 7.972 452.594 12.172C452.594 16.372 454.162 18.556 457.382 18.556C460.042 18.556 461.554 17.436 461.974 17.436C462.87 17.436 463.626 19.396 463.626 19.872C463.626 21.552 459.622 22.224 457.382 22.224C451.11 22.224 448.17 19.06 448.17 12.144ZM466.178 21.16V3.52C466.178 2.736 466.514 2.4 467.298 2.4H473.178C475.67 2.4 479.842 3.128 479.842 8.532C479.842 13.936 474.97 14.664 473.458 14.664H470.49V21.16C470.49 21.748 469.986 22.056 468.81 22.056H467.858C466.682 22.056 466.178 21.748 466.178 21.16ZM470.49 10.968H472.982C474.046 10.968 475.418 10.548 475.418 8.532C475.418 6.516 474.046 6.068 472.982 6.068H470.49V10.968ZM488.873 20.88V3.52C488.873 2.736 489.209 2.4 489.993 2.4H500.241C500.829 2.4 501.081 2.82 501.081 3.8V4.668C501.081 5.648 500.829 6.068 500.241 6.068H493.185V10.128H499.485C500.073 10.128 500.325 10.548 500.325 11.528V12.396C500.325 13.376 500.073 13.796 499.485 13.796H493.185V18.332H500.269C500.857 18.332 501.109 18.752 501.109 19.732V20.6C501.109 21.58 500.857 22 500.269 22H489.993C489.209 22 488.873 21.664 488.873 20.88ZM503.963 21.16V12.284C503.963 9.484 503.627 8.896 503.627 8.336C503.627 7.664 506.063 7.44 506.763 7.44C507.659 7.44 507.715 8.56 507.883 9.26C508.695 8.196 510.235 7.132 512.055 7.132C514.855 7.132 516.171 8.56 516.171 11.668V21.16C516.171 21.748 515.667 22.056 514.491 22.056H513.707C512.531 22.056 512.027 21.748 512.027 21.16V12.284C512.027 11.192 511.579 10.548 510.347 10.548C509.199 10.548 508.443 11.528 508.107 12.172V21.16C508.107 21.748 507.603 22.056 506.427 22.056H505.643C504.467 22.056 503.963 21.748 503.963 21.16ZM518.485 24.072C518.485 22.616 519.381 21.468 521.033 20.824L521.061 20.712C520.277 20.32 519.857 19.536 519.857 18.612C519.857 17.66 520.473 16.848 521.537 16.288C520.165 15.532 519.269 14.188 519.269 12.116C519.269 8.504 521.957 7.132 525.289 7.132C526.044 7.132 526.773 7.216 527.445 7.356H531.952C532.541 7.356 532.793 7.776 532.793 8.756V9.232C532.793 10.156 532.569 10.548 532.121 10.548C531.925 10.548 531.169 10.492 530.917 10.436L530.861 10.548C531.113 10.884 531.309 11.584 531.309 12.116C531.309 15.616 528.789 17.072 525.597 17.072C524.449 17.072 523.889 17.324 523.889 17.828C523.889 19.732 532.373 17.66 532.373 23.176C532.373 26.06 529.489 27.936 525.149 27.936C520.641 27.936 518.485 26.62 518.485 24.072ZM525.289 14.076C526.437 14.076 527.389 13.516 527.389 12.116C527.389 10.716 526.437 10.128 525.289 10.128C524.141 10.128 523.189 10.716 523.189 12.116C523.189 13.516 524.141 14.076 525.289 14.076ZM522.517 23.4C522.517 24.156 523.385 24.66 525.457 24.66C527.389 24.66 528.341 24.128 528.341 23.288C528.341 22.42 527.221 22.112 524.029 21.888C523.049 22.224 522.517 22.84 522.517 23.4ZM534.274 18.136C534.274 15.84 535.198 12.928 542.31 12.928V12.004C542.31 10.94 541.666 10.408 540.126 10.408C538.082 10.408 536.878 11.304 536.542 11.304C535.954 11.304 535.086 9.652 535.086 9.064C535.086 8.112 537.326 7.132 540.434 7.132C544.858 7.132 546.454 9.092 546.454 11.808V17.072C546.454 19.956 546.79 20.544 546.79 21.132C546.79 21.804 544.354 22.028 543.654 22.028C542.758 22.028 542.702 20.852 542.534 20.096C542.338 20.46 540.994 22.224 538.418 22.224C535.394 22.224 534.274 20.432 534.274 18.136ZM538.39 17.716C538.39 18.416 538.866 18.948 539.79 18.948C540.854 18.948 541.862 18.192 542.31 17.184V15.644C539.65 15.644 538.39 16.372 538.39 17.716ZM549.027 24.072C549.027 22.616 549.923 21.468 551.575 20.824L551.603 20.712C550.819 20.32 550.399 19.536 550.399 18.612C550.399 17.66 551.015 16.848 552.079 16.288C550.707 15.532 549.811 14.188 549.811 12.116C549.811 8.504 552.499 7.132 555.831 7.132C556.587 7.132 557.315 7.216 557.987 7.356H562.495C563.083 7.356 563.335 7.776 563.335 8.756V9.232C563.335 10.156 563.111 10.548 562.663 10.548C562.467 10.548 561.711 10.492 561.459 10.436L561.403 10.548C561.655 10.884 561.851 11.584 561.851 12.116C561.851 15.616 559.331 17.072 556.139 17.072C554.991 17.072 554.431 17.324 554.431 17.828C554.431 19.732 562.915 17.66 562.915 23.176C562.915 26.06 560.031 27.936 555.691 27.936C551.183 27.936 549.027 26.62 549.027 24.072ZM555.831 14.076C556.979 14.076 557.931 13.516 557.931 12.116C557.931 10.716 556.979 10.128 555.831 10.128C554.683 10.128 553.731 10.716 553.731 12.116C553.731 13.516 554.683 14.076 555.831 14.076ZM553.059 23.4C553.059 24.156 553.927 24.66 555.999 24.66C557.931 24.66 558.883 24.128 558.883 23.288C558.883 22.42 557.763 22.112 554.571 21.888C553.591 22.224 553.059 22.84 553.059 23.4ZM564.817 14.776C564.817 9.26 567.617 7.132 571.621 7.132C576.017 7.132 577.669 10.464 577.669 14.356C577.669 14.832 576.605 16.008 576.241 16.008H569.101C569.297 18.248 570.501 18.948 572.321 18.948C574.085 18.948 575.317 18.08 575.709 18.08C576.325 18.08 577.165 19.648 577.165 20.208C577.165 21.608 573.693 22.224 572.125 22.224C567.057 22.224 564.817 19.284 564.817 14.776ZM569.101 13.236H573.637C573.637 11.612 573.021 10.408 571.621 10.408C570.445 10.408 569.437 11.08 569.101 13.236ZM580.47 21.16V12.284C580.47 9.484 580.134 8.896 580.134 8.336C580.134 7.664 582.57 7.44 583.27 7.44C584.166 7.44 584.222 8.56 584.39 9.26C585.202 8.196 586.714 7.132 588.534 7.132C590.466 7.132 591.67 7.804 592.23 9.26C593.07 8.196 594.666 7.132 596.542 7.132C599.342 7.132 600.63 8.56 600.63 11.668V21.16C600.63 21.748 600.126 22.056 598.95 22.056H598.166C596.99 22.056 596.486 21.748 596.486 21.16V12.284C596.486 11.192 596.066 10.548 594.834 10.548C593.686 10.548 592.958 11.528 592.622 12.172V21.16C592.622 21.748 592.118 22.056 590.942 22.056H590.158C588.982 22.056 588.478 21.748 588.478 21.16V12.284C588.478 11.192 588.058 10.548 586.826 10.548C585.678 10.548 584.95 11.528 584.614 12.172V21.16C584.614 21.748 584.11 22.056 582.934 22.056H582.15C580.974 22.056 580.47 21.748 580.47 21.16ZM603.645 14.776C603.645 9.26 606.445 7.132 610.449 7.132C614.845 7.132 616.497 10.464 616.497 14.356C616.497 14.832 615.433 16.008 615.069 16.008H607.929C608.125 18.248 609.329 18.948 611.149 18.948C612.913 18.948 614.145 18.08 614.537 18.08C615.153 18.08 615.993 19.648 615.993 20.208C615.993 21.608 612.521 22.224 610.953 22.224C605.885 22.224 603.645 19.284 603.645 14.776ZM607.929 13.236H612.465C612.465 11.612 611.849 10.408 610.449 10.408C609.273 10.408 608.265 11.08 607.929 13.236ZM619.299 21.16V12.284C619.299 9.484 618.963 8.896 618.963 8.336C618.963 7.664 621.399 7.44 622.099 7.44C622.995 7.44 623.051 8.56 623.219 9.26C624.031 8.196 625.571 7.132 627.391 7.132C630.191 7.132 631.507 8.56 631.507 11.668V21.16C631.507 21.748 631.003 22.056 629.827 22.056H629.043C627.867 22.056 627.363 21.748 627.363 21.16V12.284C627.363 11.192 626.915 10.548 625.683 10.548C624.535 10.548 623.779 11.528 623.443 12.172V21.16C623.443 21.748 622.939 22.056 621.763 22.056H620.979C619.803 22.056 619.299 21.748 619.299 21.16ZM635.304 17.688V10.632H634.856C634.268 10.632 634.016 10.212 634.016 9.232V8.756C634.016 7.776 634.268 7.356 634.856 7.356H635.304L635.668 4.696C635.752 4.108 636.256 3.8 637.18 3.8H638.048C639.028 3.8 639.448 4.108 639.448 4.696V7.356H640.82C641.408 7.356 641.66 7.776 641.66 8.756V9.232C641.66 10.212 641.408 10.632 640.82 10.632H639.448V17.744C639.448 18.584 639.728 18.948 640.456 18.948C640.708 18.948 641.044 18.836 641.212 18.836C641.772 18.836 642.08 20.628 642.08 20.852C642.08 22.14 640.26 22.224 639.392 22.224C636.76 22.224 635.304 20.796 635.304 17.688ZM651.377 21.16V3.52C651.377 2.736 651.713 2.4 652.497 2.4H658.377C660.869 2.4 665.041 3.128 665.041 8.532C665.041 13.936 660.169 14.664 658.657 14.664H655.689V21.16C655.689 21.748 655.185 22.056 654.009 22.056H653.057C651.881 22.056 651.377 21.748 651.377 21.16ZM655.689 10.968H658.181C659.245 10.968 660.617 10.548 660.617 8.532C660.617 6.516 659.245 6.068 658.181 6.068H655.689V10.968ZM667.178 17.688V1.784C667.178 1.196 667.682 0.888 668.858 0.888H669.642C670.818 0.888 671.322 1.196 671.322 1.784V17.744C671.322 18.584 671.602 18.948 672.33 18.948C672.582 18.948 672.918 18.836 673.086 18.836C673.646 18.836 673.954 20.628 673.954 20.852C673.954 22.14 672.134 22.224 671.266 22.224C668.634 22.224 667.178 20.796 667.178 17.688ZM674.903 18.136C674.903 15.84 675.827 12.928 682.939 12.928V12.004C682.939 10.94 682.295 10.408 680.755 10.408C678.711 10.408 677.507 11.304 677.171 11.304C676.583 11.304 675.715 9.652 675.715 9.064C675.715 8.112 677.955 7.132 681.063 7.132C685.487 7.132 687.083 9.092 687.083 11.808V17.072C687.083 19.956 687.419 20.544 687.419 21.132C687.419 21.804 684.983 22.028 684.283 22.028C683.387 22.028 683.331 20.852 683.163 20.096C682.967 20.46 681.623 22.224 679.047 22.224C676.023 22.224 674.903 20.432 674.903 18.136ZM679.019 17.716C679.019 18.416 679.495 18.948 680.419 18.948C681.483 18.948 682.491 18.192 682.939 17.184V15.644C680.279 15.644 679.019 16.372 679.019 17.716ZM691.14 17.688V10.632H690.692C690.104 10.632 689.852 10.212 689.852 9.232V8.756C689.852 7.776 690.104 7.356 690.692 7.356H691.14L691.504 4.696C691.588 4.108 692.092 3.8 693.016 3.8H693.884C694.864 3.8 695.284 4.108 695.284 4.696V7.356H696.656C697.244 7.356 697.496 7.776 697.496 8.756V9.232C697.496 10.212 697.244 10.632 696.656 10.632H695.284V17.744C695.284 18.584 695.564 18.948 696.292 18.948C696.544 18.948 696.88 18.836 697.048 18.836C697.608 18.836 697.916 20.628 697.916 20.852C697.916 22.14 696.096 22.224 695.228 22.224C692.596 22.224 691.14 20.796 691.14 17.688ZM700.767 21.16V10.632H700.263C699.675 10.632 699.423 10.212 699.423 9.232V8.756C699.423 7.776 699.675 7.356 700.263 7.356H700.767V5.256C700.767 2.148 702.223 0.719999 704.855 0.719999C705.751 0.719999 707.655 0.803999 707.655 2.092C707.655 2.316 707.347 4.108 706.787 4.108C706.591 4.108 706.199 3.996 705.919 3.996C705.191 3.996 704.911 4.36 704.911 5.2V7.356H706.311C706.899 7.356 707.151 7.776 707.151 8.756V9.232C707.151 10.212 706.899 10.632 706.311 10.632H704.911V21.16C704.911 21.748 704.407 22.056 703.231 22.056H702.447C701.271 22.056 700.767 21.748 700.767 21.16ZM708.836 14.664C708.836 9.792 711.188 7.132 715.64 7.132C720.092 7.132 722.416 9.792 722.416 14.664C722.416 19.536 720.092 22.224 715.64 22.224C711.188 22.224 708.836 19.536 708.836 14.664ZM715.64 18.948C717.432 18.948 718.216 17.464 718.216 14.664C718.216 11.864 717.432 10.408 715.64 10.408C713.848 10.408 713.036 11.864 713.036 14.664C713.036 17.464 713.848 18.948 715.64 18.948ZM725.338 21.16V12.284C725.338 9.484 725.002 8.896 725.002 8.336C725.002 7.664 727.438 7.44 728.138 7.44C729.034 7.44 729.09 8.56 729.258 9.26C729.846 8.196 730.686 7.132 732.31 7.132C733.682 7.132 733.906 8.084 733.906 8.644C733.906 9.176 733.598 10.996 733.038 10.996C732.646 10.996 732.282 10.772 731.722 10.772C730.574 10.772 729.818 11.612 729.482 12.172V21.16C729.482 21.748 728.978 22.056 727.802 22.056H727.018C725.842 22.056 725.338 21.748 725.338 21.16ZM735.591 21.16V12.284C735.591 9.484 735.255 8.896 735.255 8.336C735.255 7.664 737.691 7.44 738.391 7.44C739.287 7.44 739.343 8.56 739.511 9.26C740.323 8.196 741.835 7.132 743.655 7.132C745.587 7.132 746.791 7.804 747.351 9.26C748.191 8.196 749.787 7.132 751.663 7.132C754.463 7.132 755.751 8.56 755.751 11.668V21.16C755.751 21.748 755.247 22.056 754.071 22.056H753.287C752.111 22.056 751.607 21.748 751.607 21.16V12.284C751.607 11.192 751.187 10.548 749.955 10.548C748.807 10.548 748.079 11.528 747.743 12.172V21.16C747.743 21.748 747.239 22.056 746.063 22.056H745.279C744.103 22.056 743.599 21.748 743.599 21.16V12.284C743.599 11.192 743.179 10.548 741.947 10.548C740.799 10.548 740.071 11.528 739.735 12.172V21.16C739.735 21.748 739.231 22.056 738.055 22.056H737.271C736.095 22.056 735.591 21.748 735.591 21.16Z" fill="black"/>
</svg>
