<?xml version="1.0" encoding="windows-1252"?>
<!-- Generator: Adobe Illustrator 18.1.1, SVG Export Plug-In . SVG Version: 6.00 Build 0)  -->
<svg version="1.1" id="Layer_1" xmlns="http://www.w3.org/2000/svg" xmlns:xlink="http://www.w3.org/1999/xlink" x="0px" y="0px" viewBox="0 0 226.199 239.751" style="enable-background:new 0 0 226.199 239.751;" xml:space="preserve">
<path style="fill-rule:evenodd;clip-rule:evenodd;fill:#CCCCCC;" d="M226.144,221.181c0,10.243-8.302,18.569-18.516,18.569H18.515  C8.302,239.751,0,231.424,0,221.181c0-0.991,0.066-1.917,0.197-2.842c0.132-1.057,0.396-2.049,0.725-3.04  c2.504-9.582,8.171-27.029,10.74-34.827c0.33-1.322,0.725-2.643,1.318-3.899c0-0.066,0-0.066,0-0.066  c1.582-3.37,4.151-6.212,7.314-8.128c0.197-0.132,0.593-0.331,1.12-0.595c0.198-0.132,0.461-0.198,0.659-0.331  c6.26-2.974,25.434-10.639,25.434-10.639c9.555-4.098,19.505-7.666,29.652-11.3c34.666,15.68,37.866,15.954,71.889,0  c10.147,3.568,20.031,7.137,29.651,11.3c0,0,19.175,7.665,25.435,10.639c0.198,0.132,0.461,0.199,0.659,0.331  c0.527,0.264,0.922,0.463,1.12,0.595c3.162,1.917,5.732,4.758,7.314,8.128v0.066c0.592,1.255,1.053,2.511,1.318,3.899  c2.569,7.798,8.237,25.245,10.74,34.827c0.329,0.926,0.592,1.983,0.724,3.04C226.144,219.265,226.276,220.19,226.144,221.181z   M159.131,98.4c-5.139,16.522-13.112,27.095-20.954,33.77c-12.058,10.309-23.787,11.432-23.985,11.432c-0.33,0-0.66,0-0.989,0  c-0.329,0-0.659,0-0.988,0c-0.197,0-11.992-1.123-24.117-11.565c-7.775-6.741-15.682-17.248-20.822-33.703  c-0.264,0-10.675,5.353-13.113-22.006c-1.12-12.887,9.555-10.31,10.741-10.376c0-3.304-0.659-15.2-0.659-17.909  C64.246,21.544,85.66,0,112.15,0h0.066h0.066c0.329,0,0.592,0,0.922,0c0.329,0,0.594,0,0.923,0h0.066h0.066  c26.423,0,47.905,21.478,47.905,48.044c0,2.709-0.659,14.605-0.659,17.909c1.186,0.066,11.861-2.511,10.741,10.442  C169.806,103.687,159.46,98.4,159.131,98.4z"/>
</svg>