<svg width="17" height="20" viewBox="0 0 17 20" fill="none" xmlns="http://www.w3.org/2000/svg">
<path d="M11.2608 12.2383C11.1376 12.1979 10.3588 11.8458 10.8454 10.3618H10.8385C12.1069 9.05126 13.0762 6.94236 13.0762 4.8661C13.0762 1.6736 10.9601 0 8.50078 0C6.03988 0 3.93542 1.67282 3.93542 4.8661C3.93542 6.95091 4.89932 9.06837 6.17548 10.3758C6.67293 11.6849 5.78341 12.1707 5.59745 12.2391C3.02188 13.1735 0 14.8766 0 16.558V17.1884C0 19.4792 4.42744 20 8.5248 20C12.6284 20 17 19.4792 17 17.1884V16.558C17 14.8261 13.9634 13.1361 11.2608 12.2383Z" fill="#00A4F4"/>
</svg>
