<svg width="70" height="70" viewBox="0 0 70 70" fill="none" xmlns="http://www.w3.org/2000/svg">
<path d="M63.467 13C58.2759 13.0428 53.08 13.0059 47.8871 13.0182C34.0403 13.0205 20.1923 13.0141 6.34557 13.0217C5.4625 13.0967 4.86899 14.0203 5.02486 14.8444C5.03385 28.481 5.00687 42.1187 5.03865 55.7553C5.15855 56.6204 6.12435 57.125 6.95586 56.9732C25.881 56.9638 44.8074 56.9925 63.732 56.9597C64.5773 56.8478 65.1252 55.937 64.9753 55.1476C64.9711 41.535 64.9831 27.923 64.9693 14.3104C64.919 13.572 64.1918 13.027 63.467 13ZM58.1805 15.8934C58.9024 15.9133 59.6254 15.9128 60.3478 15.911C60.1583 16.0288 60.0246 16.1103 59.792 16.2538C59.597 16.1098 59.3555 16.0391 59.1116 16.0546C58.5241 16.0821 58.1818 16.6758 58.2357 17.1998C56.3065 17.9054 54.4073 19.6999 51.113 20.099C50.6909 20.3258 50.7191 20.8785 50.9211 21.2759C50.5716 21.454 50.2239 21.6392 49.875 21.8103C49.8414 21.808 49.8079 21.8045 49.7731 21.8057C49.4146 21.7769 49.1316 21.9733 48.962 22.2487C48.4386 22.496 47.9188 22.7352 47.4104 22.9561C47.1311 23.0774 46.8757 23.197 46.6167 23.3165C46.697 23.2011 46.7588 23.0721 46.7726 22.9198C46.8211 22.6414 46.7576 22.2599 46.3949 22.2569C45.7858 22.3173 45.3529 23.3183 44.995 23.3716C45.1611 23.6266 45.4273 23.7426 45.7037 23.7549C45.3535 23.9291 45.0071 24.1104 44.6647 24.2988C44.507 24.0022 44.2043 23.7754 43.8578 23.7619C43.8458 24.2079 43.323 24.7213 43.2247 25.1597C42.365 25.7235 41.7151 26.2469 41.2403 26.7052C40.7146 27.2115 40.3896 27.6429 40.1912 27.9699C40.1876 27.9758 40.187 27.9793 40.1834 27.9846C39.6289 28.3087 38.542 28.3743 38.9388 29.1784C41.0155 28.9328 41.6006 28.7353 42.5035 27.957C43.0005 27.4776 43.7834 26.8622 44.9597 26.166C44.6947 26.6085 44.7259 27.2502 45.2354 27.5151C45.9554 28.0397 47.1095 27.1752 46.721 26.3629C46.5813 25.9878 46.1952 25.6907 45.7774 25.7124H45.763C46.1047 25.5284 46.4698 25.3408 46.8685 25.148C46.9356 25.3115 47.0447 25.458 47.2234 25.5536C47.9266 26.0787 49.0813 25.2623 48.7312 24.4459C48.7174 24.4031 48.6892 24.3668 48.6694 24.3263C49.1043 24.1318 49.5368 23.9321 49.9667 23.7274C50.1256 23.6887 50.2755 23.6195 50.4044 23.5181C53.1909 23.4086 55.2706 21.3134 57.2028 19.8646C57.2831 19.949 57.3808 20.0252 57.5181 20.0762C58.0379 20.4823 59.0504 20.3083 58.9509 19.5212C58.9521 19.3154 58.8857 19.1147 58.7615 18.9486C59.5713 18.4665 60.3767 17.9773 61.1775 17.4811C60.8849 17.7946 60.8711 18.3326 61.4928 18.4598C62.2374 19.1602 61.9634 20.2391 61.9898 21.1375C61.8381 29.3143 62.0156 37.4929 62.0072 45.6703C61.3861 46.1298 61.0899 46.8454 60.7332 47.4918C60.2153 48.0058 59.5037 47.3828 58.9647 47.2093C58.0594 46.9632 59.1901 46.2118 58.611 45.709C58.2813 45.2184 57.4336 45.0415 57.0553 45.5736C56.7795 45.5513 56.5109 45.3673 56.24 45.2853C56.1896 45.2548 56.1266 45.2226 56.0739 45.1921C56.5007 44.9031 56.903 44.4636 57.4743 44.7232C58.1602 44.4407 57.5439 43.5886 57.4695 43.0822C57.159 42.236 56.2094 43.3823 56.3107 43.9449C55.9606 43.8148 55.7094 43.506 55.3905 43.3149C55.8641 42.9826 56.0019 42.199 55.5044 41.8263C55.0535 41.1101 54.1465 42.1299 53.7334 41.5063C53.5056 41.1734 53.1411 41.6997 53.2802 41.201C53.0806 40.4233 52.1843 40.0616 51.7724 39.3877C50.9787 41.1465 49.9404 39.1509 50.8402 38.6094C51.5266 38.5508 52.2263 38.0848 51.9691 37.3124C51.8294 36.8277 51.3102 36.5417 50.812 36.6109C50.2155 36.8359 49.9703 37.633 49.2443 37.5779C48.486 37.9407 48.902 38.4576 49.0405 38.8567C48.9146 39.2687 48.7096 39.669 48.5531 39.7592C48.1119 39.55 48.0525 39.1234 48.1682 38.7846C47.998 38.5092 47.7126 36.9385 47.516 37.6869C47.4182 38.0743 47.6179 38.5754 47.5501 38.961C47.2863 38.8508 47.0579 38.7407 46.8451 38.6311C47.0489 38.3832 47.1383 38.0591 46.9854 37.7396C46.8457 37.3646 46.4602 37.0674 46.0418 37.0891C45.7216 37.0639 45.4663 37.2216 45.2936 37.4501C45.1379 37.1194 44.9538 36.8022 44.7432 36.5019C44.8751 35.8244 44.7948 35.0303 44.1917 35.2301L44.0208 34.5796C44.7061 34.6851 44.6815 34.1599 44.3404 33.5317C44.6359 33.1132 44.7367 32.4932 45.1953 32.2623C45.6833 32.0665 45.8331 31.1991 45.1054 31.4177C44.5892 31.4582 44.4627 30.7889 43.9843 30.7274C43.7361 31.2706 43.4597 31.7993 42.898 32.0472C42.7595 32.4879 42.9238 33.1285 42.5946 33.4666L42.2763 33.653C41.6966 33.3922 40.9844 33.5909 40.8171 34.2367C40.7913 34.3293 40.7871 34.4243 40.7913 34.5198L40.5095 34.6839C40.446 34.5057 40.3147 34.3539 40.0198 34.2643C39.6169 33.9484 38.964 34.4594 38.8058 34.4518C38.7206 33.8183 37.9646 33.2023 37.3418 33.636C36.6631 34.0199 36.4017 34.9699 37.259 35.3045C37.7045 35.8373 38.4143 35.1674 38.6721 35.1492C38.774 35.917 38.1295 36.3899 37.6007 36.8178C37.3334 37.2925 37.1973 37.7736 36.5306 37.742C35.4527 37.9952 34.2303 37.7643 33.4612 36.9403C33.0805 36.5933 32.8017 36.1596 32.5014 35.7546C31.9678 35.2436 30.9025 35.5185 30.806 36.2762C31.7694 38.9557 30.2814 40.0529 28.6352 42.1932C27.2767 43.302 26.0249 41.436 26.5297 41.099C27.1712 40.6178 27.655 41.8386 28.3366 41.1746C29.0074 40.7954 28.9145 39.8143 28.2557 39.4867C28.1597 39.138 28.9307 38.2736 29.02 39.0343C29.5308 39.7358 30.8773 39.2828 30.8006 38.4113C31.0913 37.7373 29.7143 37.4607 29.7814 37.364C30.6879 37.1524 30.4349 36.1625 30.5146 35.519C30.7382 34.8949 31.4966 34.2842 31.1747 33.5868C30.4001 32.8284 29.8282 33.9982 29.6807 34.6358C29.4853 35.4616 28.4007 35.7388 28.4997 36.6648C28.3114 37.245 28.0578 37.7865 27.7545 38.331C26.9529 39.4258 25.5639 39.8102 24.4812 40.5522C24.0735 41.0755 23.4692 41.4453 22.7864 41.4747C22.0604 41.5708 21.3194 41.702 20.6719 42.0478C19.8932 42.2506 19.0755 42.2225 18.2805 42.3385C16.419 42.5061 14.551 42.6222 12.6991 42.8789C12.2981 43.4251 11.4959 43.2035 10.9941 43.5997C10.472 43.8213 9.92701 44.1202 9.34069 44.0498C9.03914 44.0721 8.68963 43.9326 8.45343 44.1747C8.30475 44.2186 7.95044 44.6423 7.99301 44.3341V38.1651C8.37249 38.5051 9.36587 39.356 9.64045 38.5349C9.60807 37.7795 8.59371 37.4531 7.99061 37.8047C8.1285 37.1178 7.72083 36.1168 8.20763 35.6392C8.93903 35.1311 8.43724 34.1769 7.99541 33.7515C7.98941 32.3877 7.99481 31.0239 7.99301 29.6607C8.91744 29.7381 9.35209 28.3186 8.54935 27.8761C8.54815 27.7507 8.38209 26.8253 7.99301 26.3113V15.9098H34.5085C34.8826 16.7039 35.9629 16.3763 36.4311 15.9098H57.1692C55.5445 16.8305 57.0415 17.5332 57.4665 16.7168C57.575 16.4338 57.894 15.8928 58.1805 15.8934ZM21.296 16.119C20.3362 16.0909 19.9975 17.6047 20.8872 17.9652C21.6665 18.427 22.7402 17.4295 22.2468 16.6559C22.0712 16.3201 21.6875 16.0815 21.296 16.119ZM33.9114 16.8598C32.9522 16.8335 32.6123 18.3449 33.5025 18.7059C34.2819 19.1678 35.3556 18.1697 34.8622 17.3967C34.6866 17.0603 34.3029 16.8223 33.9114 16.8598ZM62.0072 16.956V17.3322C61.9294 17.291 61.8439 17.2652 61.7559 17.2563C61.6678 17.2475 61.5788 17.2557 61.494 17.2806C61.7506 17.1195 61.8729 17.0415 62.0072 16.956ZM23.8775 17.4951C23.8327 17.4888 23.7872 17.4908 23.7432 17.501C22.799 17.4734 22.4483 18.9486 23.3074 19.3319C24.1047 19.8048 24.1994 18.6696 24.1245 18.1668C24.1605 17.9353 24.1521 17.5362 23.8775 17.4951ZM36.3592 18.24C35.4719 18.2189 35.0678 19.5604 35.8304 20.0099C36.3172 20.4624 36.4971 19.7556 36.4731 19.4385C37.0102 19.0213 37.4761 18.2054 36.3592 18.24ZM20.0604 18.5102C19.2331 18.4487 18.5317 19.5909 19.2259 20.184C19.8206 20.8369 21.1371 20.2321 20.9363 19.3577C20.862 18.9345 20.5077 18.5547 20.0604 18.5102ZM50.423 18.5319C49.9793 18.6995 48.8037 19.4825 49.5375 19.8371C50.2299 20.1289 51.3978 18.8407 50.423 18.5319ZM32.8179 19.2891C33.1117 20.0791 31.5374 20.4331 31.9564 21.0186C32.6141 21.5249 33.7633 20.8955 33.5403 20.0639C33.4732 19.7023 33.1914 19.3729 32.8179 19.2891ZM60.3855 19.7579C59.4785 19.8007 59.1356 21.1979 59.9767 21.5923C60.7027 22.0547 61.7956 21.2161 61.4275 20.4202C61.2812 19.9953 60.84 19.7245 60.3855 19.7579ZM22.3296 19.8927C21.4021 19.8734 21.0436 21.2887 21.853 21.7131C22.5886 21.9158 23.5166 21.0174 23.2228 20.3188C23.0208 20.0486 22.6779 19.8628 22.3296 19.8927ZM48.5519 20.2092C48.3121 20.7103 47.1131 21.2776 47.5969 21.7986C48.4638 21.9657 49.173 20.8738 48.5519 20.2092ZM34.9461 20.6335C33.9869 20.6066 33.6482 22.1186 34.5379 22.4796C35.3172 22.9426 36.3903 21.944 35.897 21.1704C35.7213 20.8345 35.3376 20.596 34.9461 20.6335ZM18.4694 20.9049C17.5107 20.8785 17.1726 22.3894 18.0617 22.7498C18.841 23.2116 19.9142 22.2147 19.4202 21.4417C19.2445 21.1059 18.8608 20.8674 18.4694 20.9049ZM29.6633 21.4728C29.3 21.7306 27.9997 21.5402 28.2814 22.1309C28.815 22.3806 29.5506 22.0512 29.6633 21.4728ZM31.0859 21.6445C30.1261 21.6175 29.7874 23.1302 30.6771 23.4918C31.4564 23.9548 32.5295 22.9549 32.0355 22.1825C31.8605 21.8461 31.478 21.607 31.0859 21.6445ZM20.8296 22.2722C20.4351 22.4316 19.8176 23.4619 20.2877 23.626C20.642 23.4402 21.9255 22.3073 20.8296 22.2722ZM27.2251 22.6555C26.2659 22.6279 25.9248 24.1411 26.8157 24.5016C27.595 24.9651 28.6687 23.9671 28.1747 23.1935C27.9997 22.8576 27.6172 22.6179 27.2251 22.6555ZM33.5331 23.0253C32.8107 22.9754 32.2915 24.0163 32.7927 24.5285C33.4216 24.7747 34.1416 24.062 34.4881 23.5703C34.3287 23.221 33.9174 23.003 33.5331 23.0253ZM17.0557 23.2966C16.0965 23.2697 15.7596 24.7829 16.6481 25.1439C17.4286 25.6057 18.5005 24.6065 18.0065 23.8334C17.8309 23.4976 17.4478 23.2591 17.0557 23.2966ZM51.7724 23.7596C50.8348 23.6834 50.3972 25.1287 51.2299 25.5606C51.9565 26.0763 53.1099 25.2371 52.6915 24.4125C52.5554 24.0433 52.1921 23.7303 51.7724 23.7596ZM29.6723 24.0368C28.7131 24.0093 28.3744 25.5219 29.264 25.8829C30.0434 26.3459 31.1171 25.3467 30.6231 24.5737C30.4475 24.2372 30.0644 23.9993 29.6723 24.0368ZM19.5047 24.6774C18.5443 24.6493 18.2062 26.1631 19.0958 26.5235C19.8752 26.9865 20.9477 25.9872 20.4537 25.2148C20.2787 24.8784 19.8968 24.6399 19.5047 24.6774ZM25.8109 25.0472C24.8529 25.0214 24.513 26.5329 25.4032 26.8933C26.182 27.3563 27.2545 26.3582 26.7611 25.5852C26.586 25.2494 26.203 25.0097 25.8109 25.0472ZM15.6439 25.6884C14.6847 25.6608 14.3442 27.1746 15.235 27.5345C16.0144 27.9975 17.0875 26.9994 16.5935 26.2264C16.4184 25.8905 16.036 25.6508 15.6439 25.6884ZM49.7737 25.7118C48.8385 25.6409 48.3966 27.068 49.2263 27.5063C49.9697 27.9664 51.0836 27.2027 50.7245 26.3594C50.5848 25.9796 50.1885 25.7012 49.7737 25.7118ZM9.5799 25.9591C9.14226 26.122 7.98222 26.5276 8.72141 27.0451C9.22499 27.4454 10.406 27.2713 10.0061 26.4385C9.95998 26.2275 9.84788 25.9427 9.5799 25.9591ZM28.0836 26.418C27.6592 26.4954 27.1921 27.1975 27.4409 27.2778C27.6496 26.9806 28.6801 26.7374 28.3846 26.428L28.2605 26.4274C28.2032 26.4099 28.1424 26.4067 28.0836 26.418ZM11.9425 26.7052C11.1932 26.6735 10.5157 27.5063 10.9695 28.175C11.3652 28.8795 12.6775 28.7605 12.804 27.9172C12.9647 27.3657 12.5432 26.731 11.9425 26.7052ZM18.0911 27.0697C17.1319 27.0422 16.7925 28.5548 17.6822 28.9158C18.4616 29.3776 19.5353 28.3796 19.0419 27.6065C18.8662 27.2701 18.4825 27.0322 18.0911 27.0697ZM24.3985 27.4389C23.4392 27.412 23.0999 28.9246 23.9902 29.285C24.7696 29.7475 25.8433 28.7506 25.3493 27.9769C25.1736 27.6411 24.7905 27.402 24.3985 27.4389ZM47.7 27.6476L47.6119 27.6523C47.203 27.6528 46.6725 28.396 47.4248 28.1053C47.9302 28.178 48.6694 27.6833 47.7803 27.6646L47.7 27.6476ZM43.784 27.6652C42.8638 27.5849 42.4016 28.992 43.2067 29.4433C43.6294 29.3724 43.5544 28.4575 44.1791 28.7728C45.2342 28.7506 44.4951 27.5362 43.784 27.6652ZM51.9853 27.8117L50.8498 28.2794C50.4511 28.7892 51.3276 29.9772 51.5111 28.9135C51.6645 28.5443 51.8072 28.1698 51.9853 27.8117ZM14.2303 28.0813C13.331 28.0391 12.9048 29.4855 13.7686 29.8442C14.4041 29.8066 15.5785 29.5318 15.2134 28.6791C15.0534 28.3075 14.6463 28.0438 14.2303 28.0813ZM20.5382 28.4499C19.579 28.4247 19.2421 29.9362 20.1306 30.2972C20.9099 30.759 21.9813 29.7603 21.4879 28.9879C21.3128 28.6515 20.9303 28.4124 20.5382 28.4499ZM10.37 29.094C9.41084 29.0664 9.07152 30.5791 9.96118 30.9401C10.7405 31.4025 11.8137 30.4044 11.3197 29.632C11.1446 29.2956 10.7621 29.0565 10.37 29.094ZM49.6022 29.6121C49.0987 29.6373 48.9122 30.3007 49.5789 30.1489C50.1148 30.5445 51.2455 30.4642 50.3294 29.7838C50.1184 29.6379 49.8534 29.6068 49.6022 29.6121ZM41.9729 29.6144C41.9104 29.6076 41.8472 29.6096 41.7853 29.6203C40.8507 29.5406 40.4046 30.9782 41.2319 31.4166C41.8416 31.9206 43.2205 31.1101 42.7907 30.4203C42.6132 30.0862 42.383 29.6584 41.9729 29.6144ZM37.789 29.6203C36.8496 29.5388 36.4053 30.9893 37.241 31.4218C37.9622 31.9458 39.1145 31.0831 38.7278 30.2696C38.5905 29.894 38.2038 29.605 37.789 29.6203ZM22.8463 29.8242C22.0334 29.8623 21.6443 31.4687 22.7564 31.1663C23.2954 31.1945 24.4158 30.8791 23.8271 30.2005C23.5963 29.9016 23.212 29.8055 22.8463 29.8242ZM34.65 30.0967C34.1224 30.4384 33.2771 30.2333 32.918 30.8141C32.8575 31.7987 34.6398 31.7952 34.7579 30.8487C34.7924 30.7227 34.8006 30.5912 34.7821 30.462C34.7635 30.3328 34.7186 30.2086 34.65 30.0967ZM8.95701 31.4851C7.9972 31.4582 7.66088 32.9708 8.54935 33.3318C9.3287 33.7937 10.4 32.7956 9.90663 32.0237C9.73097 31.6873 9.34849 31.4482 8.95701 31.4857M39.7152 31.5619C39.4734 31.5894 39.249 31.6987 39.0809 31.8709C38.9128 32.0432 38.8117 32.2674 38.795 32.5049C38.7014 33.1648 39.4208 33.6507 40.0419 33.4953C40.5665 33.4766 41.1552 33.8956 41.5797 33.3658C42.0653 32.9269 41.9538 32.0724 41.3453 31.7952C40.8896 31.6158 40.3135 31.9593 39.9274 31.5631C39.8569 31.555 39.7858 31.5546 39.7152 31.5619ZM31.7939 31.5736C31.1075 31.6627 31.0614 32.6895 31.0404 33.1654C31.508 33.8534 32.7208 33.4889 32.7885 32.686C32.8647 32.1292 32.3875 31.5414 31.7939 31.5736ZM35.7902 31.573C34.8574 31.4933 34.4096 32.9269 35.2327 33.3676C35.9353 33.8921 37.0894 33.0781 36.7411 32.2617C36.6146 31.8702 36.2219 31.552 35.7902 31.573ZM47.1131 31.675C46.2306 31.7026 45.8493 33.071 46.6599 33.4707C47.3463 33.7825 48.4152 33.5962 48.7282 32.8618C48.9722 32.3801 48.5303 31.9886 48.0663 32.07C47.7719 31.8913 47.4872 31.6363 47.1131 31.675ZM25.0064 31.753C24.3817 32.3174 26.5111 32.8841 25.9188 32.0747C25.6622 31.8743 25.3283 31.7834 25.0064 31.753ZM24.3601 32.9667C23.453 33.0089 23.1131 34.4055 23.9512 34.7993C24.6766 35.2606 25.7701 34.4249 25.402 33.6296C25.2551 33.2047 24.8145 32.9333 24.3601 32.9667ZM49.3654 32.9825C48.5945 33.2603 48.7048 34.2367 48.8403 34.8679C49.125 35.6181 50.405 35.7019 50.6879 34.9031C51.098 34.109 50.1885 33.5874 49.5992 33.2803C49.5075 33.1922 49.4288 33.092 49.3654 32.9825ZM33.7915 33.5252C32.8527 33.4455 32.4108 34.8937 33.2447 35.3268C33.966 35.8525 35.1182 34.9892 34.7315 34.1758C34.5948 33.7995 34.2076 33.5094 33.7915 33.5252ZM45.7816 33.5252C44.9207 33.4549 44.4207 34.715 45.1107 35.2272C45.5148 35.5923 46.227 35.3497 46.5466 35.7863C47.2582 35.5173 46.8247 34.5796 46.6635 34.0632C46.5052 33.738 46.1533 33.5123 45.7816 33.5252ZM26.8918 34.1963C25.9853 34.2385 25.643 35.6363 26.4835 36.0301C27.2089 36.4902 28.3012 35.6538 27.9331 34.8591C27.7869 34.4336 27.3456 34.1623 26.8924 34.1963M9.99236 35.2594C9.03315 35.2313 8.69443 36.7451 9.58409 37.1055C10.3634 37.5685 11.436 36.5704 10.942 35.7974C10.7669 35.4616 10.3844 35.2219 9.99236 35.2594ZM48.5549 35.3866C47.8619 35.4587 46.7984 35.4874 46.7804 36.4087C46.7492 37.4232 47.9332 37.6037 48.6946 37.2843C49.4392 37.1899 49.7365 36.2159 49.2269 35.7095C49.0531 35.5225 48.8125 35.4071 48.5549 35.3866ZM35.8172 35.42C35.1446 35.5061 34.5331 36.2024 34.8724 36.8617C35.1865 37.6019 36.4641 37.6142 36.7273 36.8277C37.0954 36.2124 36.539 35.3667 35.8172 35.42ZM12.2909 36.6367C11.4348 36.8019 11.2291 38.0251 12.0121 38.4107C12.2099 38.7483 12.9845 39.3619 12.8892 38.5789C12.7453 37.9729 12.7225 36.9854 12.2909 36.6367ZM52.5956 38.515C52.1501 39.0413 53.267 40.0646 53.4726 39.6537C53.1302 39.3138 52.8349 38.9308 52.5956 38.515ZM37.7039 40.3986C38.0947 40.4162 38.527 40.2984 38.2386 41.4412C37.4922 41.0251 36.4509 41.916 36.8664 42.6843C36.8909 43.3249 38.1955 43.091 37.7177 43.7169C37.4377 44.4671 37.1811 45.2272 36.849 45.9569C36.6871 46.4931 36.7267 47.5006 35.8718 47.2574C35.0924 47.0435 34.4749 48.0486 34.9449 48.6516C35.1955 49.022 35.7063 49.2447 35.2261 49.645C35.0415 49.9427 34.7063 50.6068 34.7753 49.897C34.5972 49.1803 33.5055 48.8749 33.0295 49.4938C32.4516 50.0717 33.0175 51.2209 33.8455 51.109C34.3059 51.2801 34.6872 50.2405 34.8226 50.9086C35.3622 51.4894 36.2651 50.7796 36.3316 50.1567C36.9227 49.2254 37.3591 48.2109 37.789 47.2029C38.6535 47.2662 39.1229 46.0354 38.4838 45.4945C38.2746 44.6992 39.2032 44.5896 39.6157 45.1042C39.949 45.5355 40.4634 45.7389 40.7763 46.1755C40.8483 46.7827 40.7463 47.418 40.7961 48.038C40.9022 48.5936 41.5869 49.2957 40.8591 49.7493C40.4874 50.5669 41.419 51.2204 42.139 51.1711C42.6264 51.6834 42.6492 52.5144 43.2619 52.9323C43.8542 53.2851 44.8392 52.8608 44.7385 52.12C44.7696 51.419 44.061 51.0451 43.4735 51.0428C42.8968 50.4526 42.7493 49.597 42.4705 48.8532C42.4286 48.2256 41.6666 46.9591 42.7103 46.8864C44.1276 47.2662 42.0449 48.6633 43.4753 49.1175C44.4165 49.444 44.3794 48.3041 44.3476 47.7092C44.6533 47.1783 43.2301 47.2591 44.0772 47.0259C44.8128 46.5219 44.338 45.2091 43.4471 45.2519C42.9555 45.5097 42.2871 45.7477 41.946 45.1376C41.8542 44.6476 41.6618 44.1073 41.0935 44.1817C40.6043 43.7937 40.7847 43.2663 41.2284 43.1356C41.9316 43.6607 43.0862 42.8443 42.7361 42.0273C42.609 41.6346 42.2121 41.3205 41.7811 41.3416C41.5791 41.2449 41.2829 41.3674 41.7601 40.7397C42.9076 40.1537 43.6683 40.4631 44.0886 41.5239C44.2469 42.2113 44.6863 42.737 45.2582 43.1274C45.826 43.5007 46.6341 42.9363 47.0969 43.506C46.9788 44.1137 46.0244 44.5204 46.2516 45.2495C46.4285 46.0073 47.5303 46.2259 48.0147 45.6146C48.5765 45.3263 50.6939 44.5656 51.1244 45.011C51.628 45.4464 52.4781 45.0332 52.9127 45.5894C52.8947 45.8871 52.7047 46.455 52.7868 46.5705C52.101 46.3167 51.4469 46.7733 51.1645 47.3535C51.2185 47.9026 51.8084 48.5473 52.4241 48.4512C53.0488 48.3545 53.5122 47.6389 53.2184 47.0622C53.8263 47.3084 54.4618 47.0681 54.779 46.509C57.5169 49.0156 58.1859 52.5431 62.0072 53.1491V54.0815H55.4174C54.8989 53.6232 54.2592 53.3935 53.6747 54.0815H34.4845C35.1973 53.5599 33.9534 52.7582 33.3904 53.1227C32.8641 53.2517 32.972 54.1542 32.4198 54.0815H7.99301V48.3404C8.59371 48.5004 9.0937 47.8499 8.53616 47.473C8.68004 46.6145 9.58889 47.2832 10.0877 47.1701C10.9102 46.9872 10.71 46.0302 10.9132 45.5437C11.4474 45.1112 12.3364 45.4031 12.6883 44.7174C13.1499 44.1975 13.87 44.0885 14.4743 43.7984C15.286 43.4626 14.506 44.4794 15 44.8229C15.6235 45.2935 14.5102 46.0712 14.2458 45.3374C13.4755 44.9213 12.4443 45.8825 12.9059 46.6438C13.6913 47.2046 12.5283 47.721 12.0373 47.2849C11.3586 46.938 10.5757 47.7561 10.891 48.4178C11.1386 48.9417 10.2465 49.5014 11.0259 49.8408C11.9144 50.2252 12.3232 49.0302 13.0606 48.7261C13.8819 48.0673 14.7626 47.4613 15.5162 46.7334C16.3057 45.6744 17.1379 44.6459 17.8944 43.5634C18.214 43.632 19.0587 43.2616 19.0653 43.6015C18.3339 44.2344 19.2691 45.2015 19.6228 45.3503C19.2661 45.6902 18.705 46.2763 18.4837 45.5074C18.163 45.1382 17.4766 45.1557 17.1349 45.5086C16.6708 45.9094 16.6864 46.7469 17.2817 47.0235C17.8746 47.5182 16.991 48.2894 16.9622 48.9113C16.5665 49.6057 16.5905 50.5341 17.3339 50.9971C17.3675 51.0182 17.4028 51.0328 17.4376 51.0486C15.1865 52.5976 17.961 51.8756 20.8506 49.9369C20.7595 50.326 20.862 50.7538 21.2547 50.9578C21.9759 51.4823 23.1275 50.6191 22.7414 49.8056C22.677 49.6343 22.5648 49.484 22.4175 49.3717C22.2702 49.2594 22.0938 49.1897 21.9081 49.1703C22.2259 48.923 22.5333 48.6631 22.8296 48.3914C22.989 48.9646 23.706 49.3924 24.3061 49.0349C24.6239 49.6005 24.45 50.5728 24.6119 51.2842C24.7761 51.7941 23.9944 50.8195 23.5406 51.15C22.8044 51.2544 22.7636 52.0948 23.5088 52.2009C23.9464 52.4294 24.6796 53.1638 24.7701 52.263C24.896 51.7379 25.8445 52.3526 25.8319 51.5749C25.6322 50.8992 26.9008 50.9947 26.8085 50.1877C26.9356 49.3098 25.9026 49.342 25.5123 48.8737C25.667 48.2595 25.4464 47.2574 26.2581 47.0317C27.1382 46.8125 26.6016 45.7793 26.586 45.2794C28.7029 44.5896 30.9115 44.3235 30.4205 45.5197C30.2571 45.458 30.1055 45.3698 29.972 45.2589C29.1567 45.0883 28.4271 46.1233 28.9793 46.7698C29.4936 47.1173 28.6453 47.7497 29.3971 48.0222C30.3096 48.2701 30.6543 47.1577 31.3131 46.7674C31.9636 46.1239 32.8119 45.6275 33.2555 44.8123C33.4594 44.3985 33.1944 43.9672 33.3131 43.5417C33.204 42.8812 34.0139 43.5628 34.3352 43.1215C34.9857 42.7734 35.7081 42.4434 35.0936 42.1076C34.7501 41.5426 34.0385 41.0269 34.9407 41.0703C35.0529 41.7853 35.9599 41.6493 36.4755 41.0714C36.9893 40.1988 37.4767 41.2414 37.7045 40.3986M24.8187 42.3467C25.1484 43.7615 24.2396 42.6151 23.7966 43.2944C22.8649 43.22 22.3697 44.7308 23.1917 45.1704C22.8272 46.4756 22.7966 45.1909 21.8308 45.1716C22.573 44.1026 22.772 43.721 21.9333 43.8781C21.4177 43.7257 20.7355 44.81 20.7786 43.9631C20.6102 43.6454 19.9441 43.22 20.6911 43.2598C21.4795 43.2334 22.1983 43.3196 22.9039 42.897C23.5562 42.808 24.215 42.3262 24.8187 42.3467ZM35.7854 43.2944C34.8538 43.22 34.4114 44.6494 35.2327 45.0895C35.9365 45.6152 37.0906 44.7965 36.7405 43.9801C36.6134 43.5868 36.2165 43.2733 35.7854 43.2944ZM43.778 43.2944C42.8518 43.2205 42.4052 44.6365 43.2169 45.0819C43.9927 45.583 44.7055 44.7086 45.4033 44.487C46.0514 43.983 45.4998 43.1666 44.778 43.5054C44.4339 43.4913 44.1126 43.36 43.778 43.2944ZM33.7867 45.2483C32.8491 45.1733 32.4126 46.6174 33.2441 47.0499C33.9648 47.5756 35.1194 46.7117 34.7303 45.8989C34.5906 45.5238 34.2046 45.2267 33.7867 45.2483ZM49.7731 45.2483C49.426 45.205 49.0759 45.447 48.9746 45.7072L48.8337 45.9065C48.4308 46.3402 49.2845 47.3406 49.4883 47.0669C50.1963 46.557 50.6454 47.425 50.7599 46.4228C50.8822 45.8473 50.3942 45.2097 49.7731 45.2483ZM20.7595 46.0196C20.9717 46.0225 20.6671 46.7369 21.037 46.8577C21.7247 47.1132 21.2349 47.6395 20.7373 48.518C20.8296 48.3129 20.8524 48.082 20.7433 47.8522C20.6054 47.4766 20.2187 47.1876 19.8039 47.2029C18.8644 47.1214 18.4202 48.5719 19.2559 49.0044C19.5137 49.192 19.8236 49.1961 20.1012 49.0953C19.6842 49.4507 19.2526 49.7893 18.8075 50.1103C18.8137 49.97 18.7819 49.8304 18.7152 49.706C17.8788 49.2465 18.401 48.2959 18.7163 47.6641C19.2481 47.0188 20.0281 46.6373 20.633 46.0653C20.6702 46.0394 20.7139 46.0236 20.7595 46.0196ZM45.8943 46.5037C45.1041 46.5342 44.6192 47.6946 45.3416 48.1746C45.9057 48.7935 47.0729 48.2988 46.9776 47.4672C46.9584 46.9907 46.5687 46.5137 46.0556 46.5125C46.002 46.5045 45.9484 46.5015 45.8943 46.5037ZM39.4874 46.5271C38.9388 46.6063 38.6103 47.2398 38.6751 47.7673C38.6535 48.5162 39.247 49.3678 40.1073 49.1134C40.9052 48.8655 40.8639 47.8516 40.5821 47.2363C40.5417 47.0432 40.4366 46.8688 40.2833 46.7408C40.1301 46.6128 39.9376 46.5384 39.7362 46.5295C39.654 46.5167 39.5698 46.5159 39.4874 46.5271ZM15.8064 47.2029C14.8675 47.1232 14.4251 48.5719 15.2596 49.0044C15.9808 49.529 17.1325 48.6651 16.7464 47.8522C16.6091 47.476 16.2218 47.187 15.8064 47.2029ZM27.7964 47.2029C26.8576 47.1232 26.4152 48.5719 27.2497 49.0044C27.9709 49.529 29.1226 48.6651 28.7365 47.8522C28.5992 47.476 28.2119 47.187 27.7964 47.2029ZM31.7939 47.2029C30.8545 47.1214 30.4103 48.5719 31.246 49.0044C31.9672 49.5284 33.1194 48.6651 32.7328 47.8522C32.5955 47.4766 32.2088 47.1876 31.7939 47.2029ZM54.7322 47.718C53.8263 47.7614 53.4822 49.1574 54.3221 49.5524C55.0475 50.0148 56.1416 49.1773 55.7729 48.382C55.6273 47.9571 55.1866 47.6846 54.7322 47.718ZM48.4128 47.7356C47.5052 47.7772 47.1664 49.175 48.004 49.5688C48.7294 50.0301 49.8211 49.1926 49.4536 48.3979C49.3073 47.973 48.866 47.7016 48.4128 47.7356ZM50.9427 48.9646C50.0369 49.0068 49.6958 50.4028 50.5333 50.7972C51.2587 51.2585 52.3534 50.4233 51.9853 49.6274C51.8384 49.2025 51.3966 48.9312 50.9427 48.9646ZM13.6188 49.1521C13.1601 49.0947 12.4377 50.2897 13.2315 49.9011C13.5846 49.73 14.5654 49.8935 14.5216 49.4475C14.2908 49.2096 13.9431 49.1275 13.6188 49.1521ZM29.7958 49.1556C28.863 49.0765 28.4151 50.51 29.2383 50.9508C29.9409 51.4753 31.0949 50.6613 30.7466 49.8449C30.6201 49.4534 30.2274 49.1345 29.7958 49.1556ZM37.7896 49.1556C36.8496 49.0748 36.4059 50.5253 37.2416 50.9584C37.9634 51.4823 39.1145 50.6185 38.7284 49.805C38.5917 49.4293 38.2051 49.1404 37.7896 49.1556ZM10.5439 49.4668C10.6086 49.8419 11.0187 50.0975 10.5439 49.4668V49.4668ZM53.475 50.1936C52.5686 50.2364 52.2251 51.6324 53.0656 52.028C53.791 52.491 54.8845 51.6523 54.5164 50.857C54.3701 50.4315 53.9289 50.1596 53.475 50.1936ZM19.6198 51.1031C19.2115 51.0762 18.7038 51.8809 19.428 51.6107C19.7463 51.6751 20.9669 51.6066 20.2259 51.2016C20.0383 51.116 19.8236 51.0961 19.6198 51.1031ZM27.797 51.1102C26.8738 51.0328 26.414 52.4464 27.2245 52.8936C27.7982 53.087 28.7125 52.7611 28.8072 52.1288C28.8288 51.606 28.3456 51.0821 27.797 51.1102ZM31.7945 51.1102C30.8611 51.0299 30.4127 52.464 31.2364 52.9053C31.9384 53.431 33.0943 52.6164 32.7454 51.7994C32.6189 51.4073 32.2262 51.0891 31.7945 51.1102ZM35.7908 51.1102C34.9192 51.0387 34.424 52.3228 35.1368 52.825C35.8022 53.4837 37.1469 52.5572 36.7171 51.7191C36.5612 51.368 36.1931 51.092 35.7908 51.1102ZM55.9402 51.4308C55.1075 51.5187 54.773 52.8537 55.5817 53.2429C56.1794 53.7117 57.361 53.0102 56.8185 52.3005C56.6254 51.9957 56.5847 51.4624 56.1135 51.4308C56.0535 51.4249 55.9962 51.4249 55.9402 51.4308ZM25.6023 53.0471C24.8936 53.1438 25.1107 54.0089 25.8073 53.6895C26.4608 53.6842 26.5489 53.0155 25.8505 53.0676C25.7665 53.0694 25.688 53.0249 25.6023 53.0471Z" fill="#0163BB"/>
</svg>
