<svg width="70" height="70" viewBox="0 0 70 70" fill="none" xmlns="http://www.w3.org/2000/svg">
<path d="M55.7759 43.1045C53.7377 43.1034 51.757 43.7847 50.1464 45.0409L43.4849 39.8231C43.9878 38.6637 44.2469 37.4123 44.2458 36.1474C44.2458 35.9329 44.2458 35.7184 44.2228 35.5068L48.0364 34.2284C49.2429 36.0997 51.0794 37.4712 53.2095 38.0917C55.3397 38.7122 57.6208 38.5402 59.6351 37.6071C61.6493 36.6741 63.2619 35.0424 64.1774 33.0111C65.0929 30.9798 65.25 28.6848 64.6199 26.5464C63.9898 24.4081 62.6148 22.5697 60.7466 21.3678C58.8785 20.166 56.6423 19.6813 54.4478 20.0024C52.2532 20.3235 50.2471 21.429 48.797 23.1164C47.3469 24.8038 46.5498 26.9601 46.5519 29.1903C46.5519 29.4048 46.5519 29.6193 46.5749 29.8309L42.7614 31.1093C41.9254 29.8096 40.7792 28.7409 39.4274 28.0007C38.0756 27.2604 36.561 26.8722 35.0218 26.8713C34.5128 26.8723 34.0048 26.915 33.5027 26.9988L31.5311 22.5231C33.2335 21.1551 34.3994 19.2252 34.8221 17.0753C35.2447 14.9255 34.8969 12.6946 33.8402 10.778C32.7835 8.86142 31.0861 7.38297 29.049 6.60469C27.0119 5.82641 24.7666 5.79856 22.711 6.52607C20.6554 7.25359 18.9224 8.68948 17.819 10.5793C16.7156 12.469 16.3131 14.6906 16.6829 16.8503C17.0527 19.01 18.1709 20.9683 19.8393 22.3781C21.5077 23.7878 23.6186 24.5581 25.7977 24.5522C26.3067 24.5512 26.8147 24.5085 27.3168 24.4247L29.2885 28.8888C27.6165 30.2196 26.456 32.0931 26.0054 34.189C25.5548 36.2849 25.8421 38.4731 26.8181 40.3796L19.4072 47.0005C17.5421 45.7361 15.2826 45.1991 13.052 45.4902C10.8214 45.7813 8.77301 46.8805 7.29069 48.5818C5.80838 50.2831 4.99394 52.4697 5.00003 54.7316C5.00613 56.9936 5.83234 59.1757 7.3238 60.8688C8.81525 62.562 10.8696 63.6501 13.1017 63.929C15.3338 64.208 17.5904 63.6587 19.4486 62.3842C21.3068 61.1096 22.639 59.1973 23.1955 57.0056C23.7519 54.8139 23.4944 52.4934 22.4713 50.479L29.8822 43.8582C31.4869 44.9447 33.3912 45.4948 35.3246 45.4303C37.258 45.3657 39.1219 44.6898 40.6513 43.4987L47.3129 48.7166C46.8115 49.8724 46.5525 51.1197 46.5519 52.3806C46.5519 54.2153 47.0928 56.0087 48.1064 57.5342C49.12 59.0596 50.5606 60.2486 52.246 60.9507C53.9315 61.6528 55.7862 61.8365 57.5755 61.4785C59.3647 61.1206 61.0083 60.2371 62.2983 58.9399C63.5883 57.6426 64.4668 55.9897 64.8228 54.1903C65.1787 52.3909 64.996 50.5258 64.2979 48.8308C63.5997 47.1358 62.4174 45.6871 60.9005 44.6678C59.3837 43.6485 57.6003 43.1045 55.7759 43.1045ZM55.7759 24.5522C56.6881 24.5522 57.5798 24.8243 58.3382 25.3339C59.0967 25.8435 59.6878 26.5679 60.0369 27.4154C60.386 28.2629 60.4773 29.1954 60.2993 30.0951C60.1214 30.9948 59.6821 31.8213 59.0371 32.4699C58.3921 33.1186 57.5703 33.5603 56.6757 33.7393C55.781 33.9182 54.8537 33.8264 54.011 33.4753C53.1682 33.1243 52.4479 32.5298 51.9412 31.7671C51.4344 31.0043 51.1639 30.1076 51.1639 29.1903C51.1639 27.9602 51.6498 26.7805 52.5147 25.9107C53.3797 25.0409 54.5527 24.5522 55.7759 24.5522ZM21.1857 15.2761C21.1857 14.3588 21.4562 13.4621 21.963 12.6993C22.4697 11.9366 23.19 11.3421 24.0328 10.9911C24.8755 10.64 25.8028 10.5482 26.6975 10.7272C27.5921 10.9061 28.4139 11.3478 29.0589 11.9965C29.7039 12.6451 30.1432 13.4716 30.3211 14.3713C30.4991 15.271 30.4078 16.2035 30.0587 17.051C29.7096 17.8985 29.1185 18.6229 28.36 19.1325C27.6016 19.6422 26.7099 19.9142 25.7977 19.9142C24.5745 19.9142 23.4014 19.4255 22.5365 18.5557C21.6716 17.6859 21.1857 16.5062 21.1857 15.2761ZM14.2676 59.3377C13.3555 59.3377 12.4638 59.0657 11.7053 58.5561C10.9469 58.0464 10.3557 57.3221 10.0067 56.4746C9.6576 55.6271 9.56627 54.6945 9.74422 53.7948C9.92218 52.8951 10.3614 52.0687 11.0064 51.4201C11.6514 50.7714 12.4732 50.3297 13.3679 50.1507C14.2625 49.9718 15.1898 50.0636 16.0326 50.4147C16.8753 50.7657 17.5956 51.3602 18.1024 52.1229C18.6092 52.8856 18.8797 53.7824 18.8797 54.6997C18.8797 55.9298 18.3938 57.1095 17.5288 57.9793C16.6639 58.8491 15.4908 59.3377 14.2676 59.3377ZM55.7759 57.0187C54.8638 57.0187 53.9721 56.7467 53.2136 56.2371C52.4552 55.7274 51.864 55.0031 51.515 54.1556C51.1659 53.3081 51.0746 52.3755 51.2525 51.4758C51.4305 50.5761 51.8697 49.7497 52.5147 49.101C53.1597 48.4524 53.9815 48.0107 54.8762 47.8317C55.7708 47.6527 56.6981 47.7446 57.5409 48.0956C58.3836 48.4467 59.1039 49.0411 59.6107 49.8039C60.1175 50.5666 60.388 51.4633 60.388 52.3806C60.388 53.6107 59.9021 54.7904 59.0371 55.6602C58.1722 56.5301 56.9991 57.0187 55.7759 57.0187Z" fill="#0163BB"/>
</svg>
