<svg width="70" height="70" viewBox="0 0 70 70" fill="none" xmlns="http://www.w3.org/2000/svg">
<path fill-rule="evenodd" clip-rule="evenodd" d="M33.9522 31.3594L52.0772 33.7941L51.7578 36.2075L33.6328 33.7728L33.9522 31.3594Z" fill="white"/>
<path fill-rule="evenodd" clip-rule="evenodd" d="M34.8981 14.8055L27.0194 28.2003L34.9974 31.7726V53.8494L52.692 34.9736L34.8981 14.8055ZM36.1914 12.6067L36.6126 11.8906L8.89648 22.7498L23.5554 29.3136L12.7364 47.7074L32.0697 56.7971L32.5807 55.694V59.9733L55.9694 35.0234L36.1914 12.6067ZM32.5807 54.3506V33.3549L25.7789 30.3093L16.175 46.6372L32.5807 54.3506ZM24.7959 27.2047L30.9655 16.7155L15.1816 22.8997L24.7959 27.2047Z" fill="white"/>
<path fill-rule="evenodd" clip-rule="evenodd" d="M32.7585 57.5436L12.2168 23.4569L14.2825 22.1934L34.8242 56.28L32.7585 57.5436Z" fill="white"/>
<path d="M20.5 21.609C20.5 25.643 17.2541 28.9132 13.25 28.9132C9.24594 28.9132 6 25.643 6 21.609C6 17.5749 9.24594 14.3047 13.25 14.3047C17.2541 14.3047 20.5 17.5749 20.5 21.609Z" fill="white"/>
<path d="M42.25 14.3043C42.25 18.3383 39.0041 21.6085 35 21.6085C30.9959 21.6085 27.75 18.3383 27.75 14.3043C27.75 10.2702 30.9959 7 35 7C39.0041 7 42.25 10.2702 42.25 14.3043Z" fill="white"/>
<path d="M42.25 33.7808C42.25 37.8149 39.0041 41.0851 35 41.0851C30.9959 41.0851 27.75 37.8149 27.75 33.7808C27.75 29.7468 30.9959 26.4766 35 26.4766C39.0041 26.4766 42.25 29.7468 42.25 33.7808Z" fill="white"/>
<path d="M64 36.2183C64 40.2524 60.7541 43.5226 56.75 43.5226C52.7459 43.5226 49.5 40.2524 49.5 36.2183C49.5 32.1843 52.7459 28.9141 56.75 28.9141C60.7541 28.9141 64 32.1843 64 36.2183Z" fill="white"/>
<path d="M42.25 55.6949C42.25 59.7289 39.0041 62.9992 35 62.9992C30.9959 62.9992 27.75 59.7289 27.75 55.6949C27.75 51.6609 30.9959 48.3906 35 48.3906C39.0041 48.3906 42.25 51.6609 42.25 55.6949Z" fill="white"/>
<path d="M20.5 45.9566C20.5 49.9907 17.2541 53.2609 13.25 53.2609C9.24594 53.2609 6 49.9907 6 45.9566C6 41.9226 9.24594 38.6523 13.25 38.6523C17.2541 38.6523 20.5 41.9226 20.5 45.9566Z" fill="white"/>
<path d="M54.5989 34.6823L54.6575 34.6773C54.6788 34.6751 54.6991 34.6676 54.7166 34.6555L54.7162 34.6559C54.7724 34.8463 54.8411 35.0465 54.927 35.2563C55.0372 35.5308 55.1457 35.7562 55.2672 35.9737L55.2505 35.9408C55.2404 36.0908 55.2283 36.2449 55.2123 36.3941C55.2052 36.4821 55.1871 36.5688 55.1583 36.6525L55.1604 36.645C55.1554 36.6471 55.1482 37.5022 55.1482 37.5022C55.1485 37.7675 55.2395 38.0249 55.4066 38.2332C55.5736 38.4415 55.807 38.5885 56.0693 38.6507L56.0777 38.6523C56.0891 38.6224 56.1096 38.5967 56.1363 38.5786C56.1631 38.5605 56.1948 38.5508 56.2273 38.5509H56.4678C56.4999 38.5514 56.5312 38.5611 56.5577 38.5789C56.5842 38.5967 56.6049 38.6218 56.617 38.6511L56.6174 38.6523C56.8818 38.592 57.1179 38.4457 57.2873 38.2372C57.4568 38.0286 57.5499 37.77 57.5514 37.503C57.5514 37.503 57.5367 36.6512 57.5292 36.6454C57.5038 36.5659 57.4867 36.484 57.4781 36.4011L57.4777 36.3949C57.463 36.2449 57.4534 36.0945 57.4395 35.9416C57.543 35.7578 57.6516 35.5328 57.7471 35.3008L57.763 35.2571C57.8489 35.0474 57.9156 34.8475 57.9738 34.6567C57.991 34.6687 58.0111 34.6762 58.032 34.6786H58.0325L58.0916 34.6835C58.1628 34.6909 58.2256 34.6332 58.2315 34.5438L58.2952 33.7481V33.7472C58.2952 33.7152 58.2833 33.6843 58.2618 33.6603C58.2403 33.6362 58.2106 33.6207 58.1783 33.6166H58.1703C58.2267 33.2023 58.1921 32.7809 58.0689 32.3808L58.0744 32.4018C57.9562 32.1437 57.7764 31.9175 57.5503 31.7423C57.3243 31.5671 57.0586 31.4481 56.7758 31.3955L56.7649 31.3938C56.6277 31.3671 56.4885 31.3516 56.3488 31.3477H56.34C56.1937 31.3503 56.0481 31.3665 55.905 31.3963L55.9201 31.3938C55.6375 31.4456 55.3716 31.5631 55.1446 31.7365C54.9176 31.9099 54.7361 32.1342 54.6152 32.3906L54.6106 32.4018C54.49 32.8004 54.4579 33.2199 54.5163 33.6319L54.5147 33.6166C54.4823 33.6201 54.4523 33.6351 54.4305 33.6589C54.4087 33.6827 54.3966 33.7136 54.3965 33.7456V33.7485L54.4602 34.5442C54.466 34.6357 54.5297 34.6909 54.5985 34.6835L54.5989 34.6823Z" fill="#1DAEF5"/>
<path d="M60.778 39.8679C60.7491 38.6836 60.6233 38.4155 60.5555 38.234C60.5286 38.1611 60.5066 37.6687 59.6428 37.3492C59.1133 37.1529 58.4299 37.149 57.8515 36.9187V37.5592C57.8511 37.8876 57.7293 38.2056 57.5071 38.4587C57.2849 38.7118 56.976 38.8841 56.6336 38.9462L56.6241 38.9477C56.6179 38.9823 56.599 39.0137 56.5707 39.0365C56.5425 39.0593 56.5066 39.072 56.4694 39.0724H56.4619V39.5555C56.4619 39.7822 56.5576 39.9996 56.7278 40.1599C56.898 40.3202 57.1289 40.4103 57.3696 40.4103C57.6103 40.4103 57.8412 40.3202 58.0114 40.1599C58.1816 39.9996 58.2772 39.7822 58.2772 39.5555V39.2181C58.1523 39.2008 58.0384 39.1411 57.9571 39.0501C57.8758 38.9591 57.8327 38.8432 57.836 38.7243C57.8393 38.6054 57.8888 38.4918 57.975 38.405C58.0613 38.3181 58.1783 38.264 58.3041 38.2529C58.4298 38.2419 58.5555 38.2746 58.6573 38.3449C58.7592 38.4152 58.8301 38.5182 58.8568 38.6344C58.8835 38.7506 58.864 38.872 58.802 38.9757C58.74 39.0793 58.6399 39.1579 58.5205 39.1967L58.5168 39.1978V39.5738C58.5168 39.8604 58.3959 40.1353 58.1806 40.338C57.9654 40.5407 57.6735 40.6545 57.3692 40.6545C57.0648 40.6545 56.7729 40.5407 56.5577 40.338C56.3425 40.1353 56.2216 39.8604 56.2216 39.5738V39.5543V39.5551V39.0677C56.1861 39.0655 56.1525 39.0521 56.1262 39.0296C56.0999 39.0071 56.0825 38.9769 56.0768 38.9438V38.9431C55.7341 38.8815 55.4247 38.7096 55.2018 38.4569C54.9788 38.2041 54.8561 37.8862 54.8547 37.5577V36.9121C54.2739 37.147 53.5863 37.1517 53.0539 37.3485C52.1876 37.6675 52.1678 38.1588 52.1413 38.2328C52.0751 38.4152 51.9477 38.682 51.9187 39.8672C51.9138 40.023 51.9187 40.2618 52.4176 40.4706C53.504 40.8719 54.9035 40.9966 56.2832 41.0862H56.4156C57.7982 40.9974 59.1956 40.8731 60.2812 40.4706C60.778 40.263 60.7826 40.0253 60.778 39.8679ZM54.7046 39.3848H54.1891V39.8722H53.8209V39.3864H53.3054V39.0397H53.8209V38.5542H54.1891V39.0397H54.7046V39.3848Z" fill="#1DAEF5"/>
<path d="M32.8489 32.2487L32.9075 32.2437C32.9288 32.2415 32.9491 32.234 32.9666 32.2219L32.9662 32.2223C33.0224 32.4127 33.0911 32.613 33.177 32.8227C33.2872 33.0972 33.3957 33.3226 33.5172 33.5402L33.5005 33.5072C33.4904 33.6572 33.4783 33.8113 33.4623 33.9605C33.4552 34.0485 33.4371 34.1352 33.4083 34.2189L33.4104 34.2114C33.4054 34.2135 33.3982 35.0686 33.3982 35.0686C33.3985 35.3339 33.4895 35.5913 33.6566 35.7996C33.8236 36.0079 34.057 36.155 34.3193 36.2171L34.3277 36.2187C34.3391 36.1888 34.3596 36.1631 34.3863 36.145C34.4131 36.1269 34.4448 36.1172 34.4773 36.1173H34.7178C34.7499 36.1178 34.7812 36.1275 34.8077 36.1453C34.8342 36.1631 34.8549 36.1882 34.867 36.2175L34.8674 36.2187C35.1318 36.1584 35.3679 36.0121 35.5373 35.8036C35.7068 35.595 35.7999 35.3364 35.8014 35.0694C35.8014 35.0694 35.7867 34.2176 35.7792 34.2119C35.7538 34.1323 35.7367 34.0504 35.7281 33.9675L35.7277 33.9613C35.713 33.8113 35.7034 33.6609 35.6895 33.508C35.793 33.3242 35.9016 33.0992 35.9971 32.8672L36.013 32.8235C36.0989 32.6138 36.1656 32.4139 36.2238 32.2231C36.241 32.2351 36.2611 32.2426 36.282 32.245H36.2825L36.3416 32.2499C36.4128 32.2573 36.4756 32.1996 36.4815 32.1102L36.5452 31.3145V31.3136C36.5452 31.2816 36.5333 31.2507 36.5118 31.2267C36.4903 31.2026 36.4606 31.1871 36.4283 31.183H36.4203C36.4767 30.7687 36.4421 30.3473 36.3189 29.9472L36.3244 29.9682C36.2062 29.7101 36.0264 29.4839 35.8003 29.3087C35.5743 29.1335 35.3086 29.0145 35.0258 28.9619L35.0149 28.9602C34.8777 28.9335 34.7385 28.918 34.5988 28.9141H34.59C34.4437 28.9167 34.2981 28.9329 34.155 28.9627L34.1701 28.9602C33.8875 29.012 33.6216 29.1295 33.3946 29.3029C33.1676 29.4763 32.9861 29.7006 32.8652 29.9571L32.8606 29.9682C32.74 30.3668 32.7079 30.7863 32.7663 31.1983L32.7647 31.183C32.7323 31.1865 32.7023 31.2015 32.6805 31.2253C32.6587 31.2491 32.6466 31.28 32.6465 31.312V31.3149L32.7102 32.1106C32.716 32.2021 32.7797 32.2573 32.8485 32.2499L32.8489 32.2487Z" fill="#1DAEF5"/>
<path d="M39.028 37.4343C38.9991 36.25 38.8733 35.982 38.8055 35.8004C38.7786 35.7275 38.7566 35.2351 37.8928 34.9156C37.3633 34.7193 36.6799 34.7154 36.1015 34.4851V35.1256C36.1011 35.454 35.9793 35.772 35.7571 36.0251C35.5349 36.2782 35.226 36.4505 34.8836 36.5126L34.8741 36.5141C34.8679 36.5487 34.849 36.5801 34.8207 36.6029C34.7925 36.6257 34.7566 36.6384 34.7194 36.6388H34.7119V37.1219C34.7119 37.3486 34.8076 37.566 34.9778 37.7263C35.148 37.8866 35.3789 37.9767 35.6196 37.9767C35.8603 37.9767 36.0912 37.8866 36.2614 37.7263C36.4316 37.566 36.5272 37.3486 36.5272 37.1219V36.7845C36.4023 36.7673 36.2884 36.7075 36.2071 36.6165C36.1258 36.5255 36.0827 36.4096 36.086 36.2907C36.0893 36.1718 36.1388 36.0582 36.225 35.9714C36.3113 35.8845 36.4283 35.8304 36.5541 35.8193C36.6798 35.8083 36.8055 35.841 36.9073 35.9113C37.0092 35.9816 37.0801 36.0846 37.1068 36.2008C37.1335 36.317 37.114 36.4385 37.052 36.5421C36.99 36.6457 36.8899 36.7243 36.7705 36.7631L36.7668 36.7643V37.1402C36.7668 37.4268 36.6459 37.7017 36.4306 37.9044C36.2154 38.1071 35.9235 38.2209 35.6192 38.2209C35.3148 38.2209 35.0229 38.1071 34.8077 37.9044C34.5925 37.7017 34.4716 37.4268 34.4716 37.1402V37.1207V37.1215V36.6341C34.4361 36.6319 34.4025 36.6185 34.3762 36.596C34.3499 36.5735 34.3325 36.5433 34.3268 36.5102V36.5095C33.9841 36.4479 33.6747 36.276 33.4518 36.0233C33.2288 35.7705 33.1061 35.4526 33.1047 35.1241V34.4785C32.5239 34.7134 31.8363 34.7181 31.3039 34.9149C30.4376 35.2339 30.4178 35.7252 30.3913 35.7992C30.3251 35.9816 30.1977 36.2484 30.1687 37.4336C30.1638 37.5894 30.1687 37.8282 30.6676 38.037C31.754 38.4383 33.1535 38.563 34.5332 38.6526H34.6656C36.0482 38.5638 37.4456 38.4395 38.5312 38.037C39.028 37.8294 39.0326 37.5917 39.028 37.4343ZM32.9546 36.9513H32.4391V37.4386H32.0709V36.9528H31.5554V36.6061H32.0709V36.1206H32.4391V36.6061H32.9546V36.9513Z" fill="#1DAEF5"/>
<path d="M32.8489 12.7702L32.9075 12.7652C32.9288 12.763 32.9491 12.7555 32.9666 12.7434L32.9662 12.7438C33.0224 12.9342 33.0911 13.1344 33.177 13.3442C33.2872 13.6186 33.3957 13.8441 33.5172 14.0616L33.5005 14.0287C33.4904 14.1787 33.4783 14.3328 33.4623 14.482C33.4552 14.57 33.4371 14.6567 33.4083 14.7403L33.4104 14.7329C33.4054 14.735 33.3982 15.5901 33.3982 15.5901C33.3985 15.8553 33.4895 16.1128 33.6566 16.3211C33.8236 16.5294 34.057 16.6764 34.3193 16.7386L34.3277 16.7402C34.3391 16.7103 34.3596 16.6846 34.3863 16.6665C34.4131 16.6484 34.4448 16.6387 34.4773 16.6388H34.7178C34.7499 16.6393 34.7812 16.649 34.8077 16.6668C34.8342 16.6846 34.8549 16.7097 34.867 16.739L34.8674 16.7402C35.1318 16.6799 35.3679 16.5336 35.5373 16.3251C35.7068 16.1165 35.7999 15.8579 35.8014 15.5909C35.8014 15.5909 35.7867 14.7391 35.7792 14.7333C35.7538 14.6538 35.7367 14.5719 35.7281 14.489L35.7277 14.4828C35.713 14.3328 35.7034 14.1824 35.6895 14.0295C35.793 13.8457 35.9016 13.6207 35.9971 13.3887L36.013 13.345C36.0989 13.1353 36.1656 12.9354 36.2238 12.7446C36.241 12.7566 36.2611 12.7641 36.282 12.7664H36.2825L36.3416 12.7714C36.4128 12.7788 36.4756 12.7211 36.4815 12.6317L36.5452 11.836V11.8351C36.5452 11.8031 36.5333 11.7722 36.5118 11.7482C36.4903 11.7241 36.4606 11.7086 36.4283 11.7045H36.4203C36.4767 11.2902 36.4421 10.8687 36.3189 10.4686L36.3244 10.4897C36.2062 10.2316 36.0264 10.0053 35.8003 9.83016C35.5743 9.65498 35.3086 9.53601 35.0258 9.48335L35.0149 9.4817C34.8777 9.45496 34.7385 9.43953 34.5988 9.43555H34.59C34.4437 9.43815 34.2981 9.45443 34.155 9.48417L34.1701 9.4817C33.8875 9.53346 33.6216 9.65094 33.3946 9.82436C33.1676 9.99777 32.9861 10.2221 32.8652 10.4785L32.8606 10.4897C32.74 10.8883 32.7079 11.3078 32.7663 11.7197L32.7647 11.7045C32.7323 11.7079 32.7023 11.723 32.6805 11.7468C32.6587 11.7706 32.6466 11.8015 32.6465 11.8335V11.8364L32.7102 12.6321C32.716 12.7236 32.7797 12.7788 32.8485 12.7714L32.8489 12.7702Z" fill="#1DAEF5"/>
<path d="M39.028 17.9558C38.9991 16.7715 38.8733 16.5034 38.8055 16.3219C38.7786 16.249 38.7566 15.7566 37.8928 15.4371C37.3633 15.2408 36.6799 15.2369 36.1015 15.0066V15.6471C36.1011 15.9755 35.9793 16.2935 35.7571 16.5466C35.5349 16.7997 35.226 16.972 34.8836 17.0341L34.8741 17.0356C34.8679 17.0702 34.849 17.1016 34.8207 17.1244C34.7925 17.1472 34.7566 17.1599 34.7194 17.1603H34.7119V17.6434C34.7119 17.8701 34.8076 18.0875 34.9778 18.2478C35.148 18.4081 35.3789 18.4981 35.6196 18.4981C35.8603 18.4981 36.0912 18.4081 36.2614 18.2478C36.4316 18.0875 36.5272 17.8701 36.5272 17.6434V17.306C36.4023 17.2887 36.2884 17.229 36.2071 17.138C36.1258 17.047 36.0827 16.9311 36.086 16.8122C36.0893 16.6933 36.1388 16.5797 36.225 16.4929C36.3113 16.406 36.4283 16.3519 36.5541 16.3408C36.6798 16.3298 36.8055 16.3625 36.9073 16.4327C37.0092 16.503 37.0801 16.606 37.1068 16.7223C37.1335 16.8385 37.114 16.9599 37.052 17.0635C36.99 17.1672 36.8899 17.2458 36.7705 17.2846L36.7668 17.2857V17.6617C36.7668 17.9483 36.6459 18.2232 36.4306 18.4259C36.2154 18.6286 35.9235 18.7424 35.6192 18.7424C35.3148 18.7424 35.0229 18.6286 34.8077 18.4259C34.5925 18.2232 34.4716 17.9483 34.4716 17.6617V17.6422V17.643V17.1556C34.4361 17.1534 34.4025 17.14 34.3762 17.1175C34.3499 17.095 34.3325 17.0647 34.3268 17.0317V17.0309C33.9841 16.9694 33.6747 16.7975 33.4518 16.5448C33.2288 16.292 33.1061 15.9741 33.1047 15.6456V15C32.5239 15.2349 31.8363 15.2396 31.3039 15.4363C30.4376 15.7554 30.4178 16.2467 30.3913 16.3207C30.3251 16.503 30.1977 16.7699 30.1687 17.9551C30.1638 18.1109 30.1687 18.3497 30.6676 18.5585C31.754 18.9598 33.1535 19.0845 34.5332 19.1741H34.6656C36.0482 19.0853 37.4456 18.961 38.5312 18.5585C39.028 18.3509 39.0326 18.1132 39.028 17.9558ZM32.9546 17.4727H32.4391V17.9601H32.0709V17.4743H31.5554V17.1276H32.0709V16.6421H32.4391V17.1276H32.9546V17.4727Z" fill="#1DAEF5"/>
<path d="M11.0989 20.0729L11.1575 20.0679C11.1788 20.0657 11.1991 20.0582 11.2166 20.0461L11.2162 20.0465C11.2724 20.2369 11.3411 20.4372 11.427 20.6469C11.5372 20.9214 11.6457 21.1468 11.7672 21.3644L11.7505 21.3314C11.7404 21.4814 11.7283 21.6355 11.7123 21.7847C11.7052 21.8727 11.6871 21.9595 11.6583 22.0431L11.6604 22.0357C11.6554 22.0377 11.6482 22.8928 11.6482 22.8928C11.6485 23.1581 11.7395 23.4156 11.9066 23.6239C12.0736 23.8322 12.307 23.9792 12.5693 24.0413L12.5777 24.0429C12.5891 24.0131 12.6096 23.9873 12.6363 23.9692C12.6631 23.9511 12.6948 23.9414 12.7273 23.9416H12.9678C12.9999 23.942 13.0312 23.9517 13.0577 23.9695C13.0842 23.9873 13.1049 24.0124 13.117 24.0417L13.1174 24.0429C13.3818 23.9826 13.6179 23.8363 13.7873 23.6278C13.9568 23.4192 14.0499 23.1606 14.0514 22.8936C14.0514 22.8936 14.0367 22.0418 14.0292 22.0361C14.0038 21.9565 13.9867 21.8746 13.9781 21.7917L13.9777 21.7855C13.963 21.6355 13.9534 21.4851 13.9395 21.3322C14.043 21.1484 14.1516 20.9234 14.2471 20.6914L14.263 20.6478C14.3489 20.438 14.4156 20.2381 14.4738 20.0473C14.491 20.0593 14.5111 20.0668 14.532 20.0692H14.5325L14.5916 20.0741C14.6628 20.0815 14.7256 20.0239 14.7315 19.9344L14.7952 19.1387V19.1379C14.7952 19.1058 14.7833 19.0749 14.7618 19.0509C14.7403 19.0269 14.7106 19.0113 14.6783 19.0072H14.6703C14.7267 18.5929 14.6921 18.1715 14.5689 17.7714L14.5744 17.7924C14.4562 17.5343 14.2764 17.3081 14.0503 17.1329C13.8243 16.9577 13.5586 16.8387 13.2758 16.7861L13.2649 16.7844C13.1277 16.7577 12.9885 16.7423 12.8488 16.7383H12.84C12.6937 16.7409 12.5481 16.7572 12.405 16.7869L12.4201 16.7844C12.1375 16.8362 11.8716 16.9537 11.6446 17.1271C11.4176 17.3005 11.2361 17.5248 11.1152 17.7813L11.1106 17.7924C10.99 18.1911 10.9579 18.6105 11.0163 19.0225L11.0147 19.0072C10.9823 19.0107 10.9523 19.0257 10.9305 19.0495C10.9087 19.0733 10.8966 19.1042 10.8965 19.1362V19.1391L10.9602 19.9348C10.966 20.0263 11.0297 20.0815 11.0985 20.0741L11.0989 20.0729Z" fill="#1DAEF5"/>
<path d="M17.278 25.2586C17.2491 24.0742 17.1233 23.8062 17.0555 23.6246C17.0286 23.5518 17.0066 23.0593 16.1428 22.7399C15.6133 22.5435 14.9299 22.5396 14.3515 22.3094V22.9498C14.3511 23.2782 14.2293 23.5962 14.0071 23.8493C13.7849 24.1024 13.476 24.2747 13.1336 24.3368L13.1241 24.3384C13.1179 24.3729 13.099 24.4043 13.0707 24.4271C13.0425 24.4499 13.0066 24.4626 12.9694 24.463H12.9619V24.9461C12.9619 25.1728 13.0576 25.3902 13.2278 25.5505C13.398 25.7108 13.6289 25.8009 13.8696 25.8009C14.1103 25.8009 14.3412 25.7108 14.5114 25.5505C14.6816 25.3902 14.7772 25.1728 14.7772 24.9461V24.6087C14.6523 24.5915 14.5384 24.5317 14.4571 24.4407C14.3758 24.3497 14.3327 24.2338 14.336 24.1149C14.3393 23.9961 14.3888 23.8824 14.475 23.7956C14.5613 23.7087 14.6783 23.6546 14.8041 23.6436C14.9298 23.6325 15.0555 23.6652 15.1573 23.7355C15.2592 23.8058 15.3301 23.9088 15.3568 24.025C15.3835 24.1413 15.364 24.2627 15.302 24.3663C15.24 24.4699 15.1399 24.5485 15.0205 24.5873L15.0168 24.5885V24.9644C15.0168 25.2511 14.8959 25.5259 14.6806 25.7286C14.4654 25.9313 14.1735 26.0452 13.8692 26.0452C13.5648 26.0452 13.2729 25.9313 13.0577 25.7286C12.8425 25.5259 12.7216 25.2511 12.7216 24.9644V24.9449V24.9457V24.4583C12.6861 24.4561 12.6525 24.4427 12.6262 24.4202C12.5999 24.3977 12.5825 24.3675 12.5768 24.3345V24.3337C12.2341 24.2721 11.9247 24.1002 11.7018 23.8475C11.4788 23.5948 11.3561 23.2769 11.3547 22.9483V22.3027C10.7739 22.5377 10.0863 22.5423 9.5539 22.7391C8.68763 23.0582 8.66777 23.5494 8.64129 23.6235C8.5751 23.8058 8.44768 24.0726 8.41872 25.2578C8.41376 25.4136 8.41872 25.6524 8.91764 25.8613C10.004 26.2625 11.4035 26.3872 12.7832 26.4768H12.9156C14.2982 26.388 15.6956 26.2637 16.7812 25.8613C17.278 25.6536 17.2826 25.416 17.278 25.2586ZM11.2046 24.7755H10.6891V25.2629H10.3209V24.777H9.80543V24.4303H10.3209V23.9449H10.6891V24.4303H11.2046V24.7755Z" fill="#1DAEF5"/>
<path d="M11.0989 44.4205L11.1575 44.4156C11.1788 44.4134 11.1991 44.4059 11.2166 44.3938L11.2162 44.3942C11.2724 44.5846 11.3411 44.7848 11.427 44.9946C11.5372 45.269 11.6457 45.4944 11.7672 45.712L11.7505 45.6791C11.7404 45.8291 11.7283 45.9832 11.7123 46.1324C11.7052 46.2203 11.6871 46.3071 11.6583 46.3907L11.6604 46.3833C11.6554 46.3854 11.6482 47.2405 11.6482 47.2405C11.6485 47.5057 11.7395 47.7632 11.9066 47.9715C12.0736 48.1798 12.307 48.3268 12.5693 48.3889L12.5777 48.3906C12.5891 48.3607 12.6096 48.335 12.6363 48.3169C12.6631 48.2987 12.6948 48.2891 12.7273 48.2892H12.9678C12.9999 48.2896 13.0312 48.2994 13.0577 48.3172C13.0842 48.335 13.1049 48.3601 13.117 48.3894L13.1174 48.3906C13.3818 48.3302 13.6179 48.184 13.7873 47.9754C13.9568 47.7669 14.0499 47.5082 14.0514 47.2413C14.0514 47.2413 14.0367 46.3895 14.0292 46.3837C14.0038 46.3042 13.9867 46.2223 13.9781 46.1394L13.9777 46.1332C13.963 45.9832 13.9534 45.8328 13.9395 45.6799C14.043 45.4961 14.1516 45.2711 14.2471 45.0391L14.263 44.9954C14.3489 44.7857 14.4156 44.5858 14.4738 44.395C14.491 44.407 14.5111 44.4145 14.532 44.4168H14.5325L14.5916 44.4218C14.6628 44.4292 14.7256 44.3715 14.7315 44.2821L14.7952 43.4863V43.4855C14.7952 43.4535 14.7833 43.4226 14.7618 43.3985C14.7403 43.3745 14.7106 43.359 14.6783 43.3549H14.6703C14.7267 42.9405 14.6921 42.5191 14.5689 42.119L14.5744 42.1401C14.4562 41.882 14.2764 41.6557 14.0503 41.4806C13.8243 41.3054 13.5586 41.1864 13.2758 41.1337L13.2649 41.1321C13.1277 41.1054 12.9885 41.0899 12.8488 41.0859H12.84C12.6937 41.0885 12.5481 41.1048 12.405 41.1346L12.4201 41.1321C12.1375 41.1838 11.8716 41.3013 11.6446 41.4747C11.4176 41.6482 11.2361 41.8725 11.1152 42.1289L11.1106 42.1401C10.99 42.5387 10.9579 42.9582 11.0163 43.3701L11.0147 43.3549C10.9823 43.3583 10.9523 43.3734 10.9305 43.3972C10.9087 43.421 10.8966 43.4518 10.8965 43.4839V43.4868L10.9602 44.2825C10.966 44.374 11.0297 44.4292 11.0985 44.4218L11.0989 44.4205Z" fill="#1DAEF5"/>
<path d="M17.278 49.6062C17.2491 48.4219 17.1233 48.1538 17.0555 47.9723C17.0286 47.8994 17.0066 47.407 16.1428 47.0875C15.6133 46.8912 14.9299 46.8873 14.3515 46.657V47.2975C14.3511 47.6259 14.2293 47.9439 14.0071 48.197C13.7849 48.45 13.476 48.6224 13.1336 48.6844L13.1241 48.686C13.1179 48.7206 13.099 48.752 13.0707 48.7748C13.0425 48.7975 13.0066 48.8103 12.9694 48.8107H12.9619V49.2938C12.9619 49.5205 13.0576 49.7379 13.2278 49.8982C13.398 50.0585 13.6289 50.1485 13.8696 50.1485C14.1103 50.1485 14.3412 50.0585 14.5114 49.8982C14.6816 49.7379 14.7772 49.5205 14.7772 49.2938V48.9564C14.6523 48.9391 14.5384 48.8794 14.4571 48.7884C14.3758 48.6974 14.3327 48.5815 14.336 48.4626C14.3393 48.3437 14.3888 48.2301 14.475 48.1432C14.5613 48.0564 14.6783 48.0023 14.8041 47.9912C14.9298 47.9801 15.0555 48.0128 15.1573 48.0831C15.2592 48.1534 15.3301 48.2564 15.3568 48.3727C15.3835 48.4889 15.364 48.6103 15.302 48.7139C15.24 48.8176 15.1399 48.8962 15.0205 48.935L15.0168 48.9361V49.3121C15.0168 49.5987 14.8959 49.8736 14.6806 50.0763C14.4654 50.2789 14.1735 50.3928 13.8692 50.3928C13.5648 50.3928 13.2729 50.2789 13.0577 50.0763C12.8425 49.8736 12.7216 49.5987 12.7216 49.3121V49.2926V49.2934V48.806C12.6861 48.8038 12.6525 48.7903 12.6262 48.7679C12.5999 48.7454 12.5825 48.7151 12.5768 48.6821V48.6813C12.2341 48.6198 11.9247 48.4479 11.7018 48.1952C11.4788 47.9424 11.3561 47.6245 11.3547 47.2959V46.6504C10.7739 46.8853 10.0863 46.89 9.5539 47.0867C8.68763 47.4058 8.66777 47.8971 8.64129 47.9711C8.5751 48.1534 8.44768 48.4203 8.41872 49.6054C8.41376 49.7613 8.41872 50.0001 8.91764 50.2089C10.004 50.6102 11.4035 50.7349 12.7832 50.8245H12.9156C14.2982 50.7357 15.6956 50.6114 16.7812 50.2089C17.278 50.0013 17.2826 49.7636 17.278 49.6062ZM11.2046 49.1231H10.6891V49.6105H10.3209V49.1247H9.80543V48.778H10.3209V48.2925H10.6891V48.778H11.2046V49.1231Z" fill="#1DAEF5"/>
<path d="M32.8489 54.1608L32.9075 54.1558C32.9288 54.1536 32.9491 54.1461 32.9666 54.134L32.9662 54.1344C33.0224 54.3248 33.0911 54.5251 33.177 54.7348C33.2872 55.0093 33.3957 55.2347 33.5172 55.4523L33.5005 55.4193C33.4904 55.5693 33.4783 55.7234 33.4623 55.8726C33.4552 55.9606 33.4371 56.0474 33.4083 56.131L33.4104 56.1235C33.4054 56.1256 33.3982 56.9807 33.3982 56.9807C33.3985 57.246 33.4895 57.5034 33.6566 57.7117C33.8236 57.92 34.057 58.0671 34.3193 58.1292L34.3277 58.1308C34.3391 58.1009 34.3596 58.0752 34.3863 58.0571C34.4131 58.039 34.4448 58.0293 34.4773 58.0295H34.7178C34.7499 58.0299 34.7812 58.0396 34.8077 58.0574C34.8342 58.0752 34.8549 58.1003 34.867 58.1296L34.8674 58.1308C35.1318 58.0705 35.3679 57.9242 35.5373 57.7157C35.7068 57.5071 35.7999 57.2485 35.8014 56.9815C35.8014 56.9815 35.7867 56.1297 35.7792 56.124C35.7538 56.0444 35.7367 55.9625 35.7281 55.8796L35.7277 55.8734C35.713 55.7234 35.7034 55.573 35.6895 55.4201C35.793 55.2363 35.9016 55.0113 35.9971 54.7793L36.013 54.7356C36.0989 54.5259 36.1656 54.326 36.2238 54.1352C36.241 54.1472 36.2611 54.1547 36.282 54.1571H36.2825L36.3416 54.162C36.4128 54.1694 36.4756 54.1117 36.4815 54.0223L36.5452 53.2266V53.2258C36.5452 53.1937 36.5333 53.1628 36.5118 53.1388C36.4903 53.1147 36.4606 53.0992 36.4283 53.0951H36.4203C36.4767 52.6808 36.4421 52.2594 36.3189 51.8593L36.3244 51.8803C36.2062 51.6222 36.0264 51.396 35.8003 51.2208C35.5743 51.0456 35.3086 50.9266 35.0258 50.874L35.0149 50.8723C34.8777 50.8456 34.7385 50.8302 34.5988 50.8262H34.59C34.4437 50.8288 34.2981 50.8451 34.155 50.8748L34.1701 50.8723C33.8875 50.9241 33.6216 51.0416 33.3946 51.215C33.1676 51.3884 32.9861 51.6127 32.8652 51.8692L32.8606 51.8803C32.74 52.279 32.7079 52.6984 32.7663 53.1104L32.7647 53.0951C32.7323 53.0986 32.7023 53.1136 32.6805 53.1374C32.6587 53.1612 32.6466 53.1921 32.6465 53.2241V53.227L32.7102 54.0227C32.716 54.1142 32.7797 54.1694 32.8485 54.162L32.8489 54.1608Z" fill="#1DAEF5"/>
<path d="M39.028 59.3465C38.9991 58.1621 38.8733 57.8941 38.8055 57.7125C38.7786 57.6397 38.7566 57.1472 37.8928 56.8277C37.3633 56.6314 36.6799 56.6275 36.1015 56.3972V57.0377C36.1011 57.3661 35.9793 57.6841 35.7571 57.9372C35.5349 58.1903 35.226 58.3626 34.8836 58.4247L34.8741 58.4262C34.8679 58.4608 34.849 58.4922 34.8207 58.515C34.7925 58.5378 34.7566 58.5505 34.7194 58.5509H34.7119V59.034C34.7119 59.2607 34.8076 59.4781 34.9778 59.6384C35.148 59.7987 35.3789 59.8888 35.6196 59.8888C35.8603 59.8888 36.0912 59.7987 36.2614 59.6384C36.4316 59.4781 36.5272 59.2607 36.5272 59.034V58.6966C36.4023 58.6794 36.2884 58.6196 36.2071 58.5286C36.1258 58.4376 36.0827 58.3217 36.086 58.2028C36.0893 58.084 36.1388 57.9703 36.225 57.8835C36.3113 57.7966 36.4283 57.7425 36.5541 57.7315C36.6798 57.7204 36.8055 57.7531 36.9073 57.8234C37.0092 57.8937 37.0801 57.9967 37.1068 58.1129C37.1335 58.2292 37.114 58.3506 37.052 58.4542C36.99 58.5578 36.8899 58.6364 36.7705 58.6752L36.7668 58.6764V59.0523C36.7668 59.3389 36.6459 59.6138 36.4306 59.8165C36.2154 60.0192 35.9235 60.133 35.6192 60.133C35.3148 60.133 35.0229 60.0192 34.8077 59.8165C34.5925 59.6138 34.4716 59.3389 34.4716 59.0523V59.0328V59.0336V58.5462C34.4361 58.544 34.4025 58.5306 34.3762 58.5081C34.3499 58.4856 34.3325 58.4554 34.3268 58.4223V58.4216C33.9841 58.36 33.6747 58.1881 33.4518 57.9354C33.2288 57.6826 33.1061 57.3648 33.1047 57.0362V56.3906C32.5239 56.6255 31.8363 56.6302 31.3039 56.827C30.4376 57.146 30.4178 57.6373 30.3913 57.7113C30.3251 57.8937 30.1977 58.1605 30.1687 59.3457C30.1638 59.5015 30.1687 59.7403 30.6676 59.9492C31.754 60.3504 33.1535 60.4751 34.5332 60.5647H34.6656C36.0482 60.4759 37.4456 60.3516 38.5312 59.9492C39.028 59.7415 39.0326 59.5039 39.028 59.3465ZM32.9546 58.8634H32.4391V59.3507H32.0709V58.8649H31.5554V58.5182H32.0709V58.0328H32.4391V58.5182H32.9546V58.8634Z" fill="#1DAEF5"/>
</svg>
