<?xml version="1.0" encoding="utf-8"?>
<!-- Generator: Adobe Illustrator 24.1.1, SVG Export Plug-In . SVG Version: 6.00 Build 0)  -->
<svg version="1.1" id="Layer_1" xmlns="http://www.w3.org/2000/svg" xmlns:xlink="http://www.w3.org/1999/xlink" x="0px" y="0px"
	 width="89.8px" height="80.9px" viewBox="0 0 89.8 80.9" style="enable-background:new 0 0 89.8 80.9;" xml:space="preserve">
<style type="text/css">
	.st0{fill:#1A1A1A;}
</style>
<g>
	<path class="st0" d="M45.1,6c8.2,0,16.4,0.1,24.7,0c5.1-0.1,9.8,3.8,9.7,9.7c-0.1,16.6,0,33.2,0,49.8c0,2.5-0.7,4.7-2.4,6.6
		c-1.9,2-4.2,2.9-6.9,2.9c-6,0-12.1,0-18.1,0c-10.7,0-21.4,0-32,0c-3,0-5.6-1-7.5-3.5c-1.4-1.7-2-3.7-2-5.9c0-7.9,0-15.8,0-23.8
		c0-8.7,0-17.4,0-26.1C10.4,9.7,14,6,20.2,6C28.5,5.9,36.8,6,45.1,6z M44.7,73.6c8.2,0,16.4,0,24.6,0c5.5,0,8.6-3.1,8.6-8.6
		c0-16.3,0-32.6,0-48.9c0-5.5-3.1-8.6-8.6-8.6c-11.7,0-23.4,0-35,0c-4.8,0-9.5,0-14.3,0c-1.9,0-3.7,0.4-5.3,1.6
		c-2.2,1.7-3,4.1-3,6.8c0,16.4,0,32.7,0,49.1c0,5.6,3.1,8.6,8.6,8.6C28.5,73.6,36.6,73.6,44.7,73.6z"/>
	<path class="st0" d="M44.9,63.3c-9.2,0-18.3,0-27.5,0c-2.4,0-2.4,0-2.4-2.5c0-0.6-0.1-1.3,0.1-1.9c0.1-0.4,0.5-0.9,0.8-1
		c1.3-0.1,1.2-1,1.2-1.9c0-4.8,0-9.6,0-14.4c0-6.3,0-12.6,0-18.8c0-2.4,0.5-2.9,2.9-3c3,0,6,0,9,0c0.2,0,0.5-0.1,0.7,0
		c0.3,0.1,0.6,0.4,0.9,0.6c-0.3,0.2-0.7,0.7-1,0.7c-2.7,0.1-5.4,0-8.1,0c-0.6,0-1.2,0-1.8,0c-0.9,0-1.3,0.4-1.3,1.3
		c0,0.4,0,0.8,0,1.2c0,10.6,0,21.1,0,31.7c0,0.4,0,0.7,0,1.1c0,0.9,0.3,1.5,1.3,1.4c0.2,0,0.4,0,0.5,0c16.4,0,32.8,0,49.1,0
		c1.8,0,1.9-0.1,1.9-1.9c0-11,0-22,0-32.9c0-1.7-0.2-1.9-2-1.9c-2.6,0-5.3,0-7.9,0c-0.3,0-0.6,0-0.9,0c-0.6,0-1.3,0.1-1.3-0.8
		c0-0.2,0.8-0.6,1.2-0.6c3.2,0,6.3-0.1,9.5,0c2.1,0,2.7,0.6,2.7,2.8c0,10.6,0,21.3,0,31.9c0,0.6,0,1.3,0,1.9c0,0.8,0.2,1.1,1.1,1.5
		c2,0.9,0.8,2.9,0.9,4.3c0.1,1.2-1,1-1.8,1C63.5,63.3,54.2,63.3,44.9,63.3C44.9,63.3,44.9,63.3,44.9,63.3z M73,59.4
		c-0.7,0-1.4,0-2,0c-6.7-0.1-13.4-0.1-20-0.1c-0.7,0-1.5,0.4-2.2,0.8c-1.1,0.7-6.7,0.9-7.6,0c-0.8-0.7-1.6-0.8-2.6-0.8
		c-7,0-13.9,0.1-20.9,0.1c-0.8,0-1.2,0.3-1.2,1.1c0,0.8,0.1,1.4,1.1,1.5c0.5,0,1.1,0,1.6,0c9.9,0,19.8,0,29.7,0c7.6,0,15.1,0,22.7,0
		C73.4,61.9,73.6,61.5,73,59.4z"/>
	<path class="st0" d="M59.6,23.6c0.6-0.1,1.2-0.3,1.8-0.3c1.6,0,3.3,0,4.9,0c1.8,0,2.1,0.3,2.1,2c0,2.9,0,5.9,0,8.8
		c0,6.3,0,12.6,0,18.8c0,0.5,0,0.9,0,1.4c0,0.8-0.4,1.3-1.3,1.3c-0.4,0-0.7,0-1.1,0c-14.4,0-28.9,0-43.3,0c-0.2,0-0.4,0-0.5,0
		c-2.2,0-2.3-0.1-2.3-2.3c0-9.3,0-18.6,0-27.8c0-2.1,0.1-2.3,2.3-2.3c2.2,0,4.3,0,6.5,0c0.7,0,1.4-0.1,1.7,1.1
		c-0.7,0.1-1.2,0.2-1.7,0.2c-2,0-4,0-6,0c-1,0-1.5,0.4-1.5,1.5c0,9.2,0,18.3,0,27.5c0,0.2,0.1,0.3,0.2,0.6c15,0,30.1,0,45.3,0
		c0.1-0.6,0.2-1.2,0.2-1.8c0-8.6,0-17.1,0-25.7c0-2-0.1-2.1-2.1-2.1c-1.4,0-2.7,0-4,0c-0.5,0-0.9-0.4-1.4-0.5
		C59.6,23.9,59.6,23.8,59.6,23.6z"/>
	<path class="st0" d="M32,19c0-1.3,0-2.7,0-4c-0.1-2.7,1.4-4.4,4.1-4.4c5.8-0.1,11.6-0.1,17.4,0c2.7,0,4,1.3,4.1,4
		c0.1,2.9,0.2,5.7,0.1,8.6c-0.1,2.7-1.5,4-4.2,4.2c-1.5,0.1-2.9,0.1-4.4,0c-1.6-0.1-2.7,0.4-3.6,1.6c-0.2,0.2-0.4,0.4-0.6,0.6
		c-0.6,0.7-1.3,0.8-1.7,0c-1.2-2.4-3.2-2.3-5.4-2.2c-0.4,0-0.7,0-1.1,0c-2.6,0-4.7-1.3-4.6-4.5c0.1-1.3,0-2.6,0-3.9
		C32.1,19,32,19,32,19z M44.2,27.8c0.3-0.2,0.6-0.4,0.8-0.7c0.9-1.2,2.1-1.5,3.6-1.4c1.7,0.1,3.4,0.1,5.1,0c1.5-0.1,2.4-0.8,2.4-2.2
		c0.1-3,0-6-0.1-9c0-1.5-0.9-2.2-2.3-2.4C53.2,12,52.8,12,52.3,12c-4.9,0-9.7,0-14.6,0c-0.6,0-1.3,0-1.9,0.2
		c-1.3,0.2-2.1,0.9-2.1,2.2c-0.1,3.1,0,6.1,0.1,9.2c0,1.4,0.9,2.1,2.3,2.2c0.8,0.1,1.6,0.1,2.5,0c2.1-0.2,4.1,0,5.4,2
		C43.9,27.7,44,27.7,44.2,27.8z"/>
	<path class="st0" d="M44,33.4c2.9,0,5.1,2.7,4.6,5.8c-0.2,1.1-0.6,2.3-1,3.3c-0.6,1.3-0.5,1.7,0.8,2.3c0.7,0.3,1.4,0.6,2.1,0.8
		c1.2,0.4,2,1.2,2.2,2.5c0.2,1.2,0.4,2.3,0.5,3.5c0,0.4-0.4,0.7-0.6,1.1c-0.3-0.3-0.8-0.6-1-1c-0.2-0.6-0.3-1.4-0.3-2.1
		c-0.1-1.6-0.9-2.4-2.4-2.8c-0.6-0.2-1.2-0.4-1.8-0.7c-1.7-1-2-2.5-1.2-4.3c0.5-1.2,0.9-2.6,0.9-3.9c0-1.9-1.3-2.9-3.1-2.8
		c-1.6,0.1-2.8,1.4-2.6,3.1c0.1,1.2,0.3,2.5,0.8,3.6c1,2.1,0.5,3.7-1.7,4.6c-0.5,0.2-1,0.4-1.5,0.5c-1.3,0.3-1.9,1.2-2.1,2.5
		c-0.1,0.8-0.2,1.6-0.4,2.4c-0.1,0.3-0.6,0.5-0.9,0.8c-0.2-0.3-0.7-0.6-0.6-0.9c0.2-1.5,0.4-3,0.8-4.5c0.2-0.6,0.9-1.1,1.5-1.4
		c0.7-0.4,1.5-0.6,2.3-0.9c1.5-0.6,1.7-1.1,1-2.5c-0.7-1.6-1-3.2-0.9-5C39.8,35.1,41.6,33.4,44,33.4z"/>
	<path class="st0" d="M23.1,52.8c-0.2-0.5-0.5-0.8-0.4-1.2c0.2-1.5,0.5-3,0.9-4.4c0.1-0.5,0.7-0.9,1.2-1.1c0.9-0.5,1.9-0.7,2.7-1.2
		c1.1-0.5,1.2-1,0.8-2.1c-0.4-1.2-0.9-2.4-1-3.7c-0.4-3.2,1.7-5.6,4.6-5.6c2.5,0,4.2,1.7,4.4,4.3c0.1,1.6,0,3.1-0.9,4.4
		c-0.6,1-0.7,1.8,0.2,2.6c0.2,0.2,0.2,0.8,0.3,1.2c-0.4,0-0.9,0.1-1.3-0.1c-1.3-0.8-1.9-2.8-1-4c0.9-1.2,1.1-2.6,0.9-4
		c-0.2-1.9-1.2-2.8-2.9-2.8c-1.6,0-2.6,1-2.8,2.8c-0.1,1.5,0.1,2.9,0.9,4.2c0.8,1.4,0.4,3.1-1.1,3.9c-0.5,0.3-0.9,0.5-1.5,0.6
		c-2.2,0.4-2.9,1.9-3,3.9C24.3,51.4,24.4,52.3,23.1,52.8z"/>
	<path class="st0" d="M61,38.7c-0.4,1.3-0.7,2.6-1.2,3.8c-0.6,1.4-0.4,1.9,0.9,2.5c0.4,0.2,0.8,0.3,1.2,0.4c2.2,0.5,3.1,2.1,3.4,4.2
		c0.1,0.7,0.2,1.4,0.2,2.1c0,0.3-0.3,0.7-0.5,1c-0.3-0.3-0.8-0.5-0.9-0.8c-0.2-0.7-0.3-1.5-0.4-2.2c-0.1-1.4-0.9-2.2-2.2-2.7
		c-0.7-0.2-1.3-0.5-2-0.8c-1.7-0.9-2.2-2.5-1.2-4.2c0.8-1.4,1.2-2.9,0.8-4.6c-0.4-1.6-1.5-2.4-3.1-2.2c-1.4,0.1-2.6,1.1-2.6,2.6
		c0.1,1.4,0.4,2.9,0.9,4.2c0.6,1.5,0.5,3.2-0.9,4c-0.3,0.2-0.9,0.1-1.3,0.1c0.1-0.4,0-1,0.2-1.2c0.9-0.8,0.8-1.5,0.3-2.5
		c-0.9-1.4-0.9-3-0.8-4.6c0.1-2.5,1.9-4.2,4.2-4.3c2.5-0.1,4.4,1.6,4.6,4.1c0,0.3,0,0.7,0,1.1C60.9,38.7,60.9,38.7,61,38.7z"/>
</g>
</svg>
