<?xml version="1.0" encoding="utf-8"?>
<!-- Generator: Adobe Illustrator 24.1.1, SVG Export Plug-In . SVG Version: 6.00 Build 0)  -->
<svg version="1.1" id="Layer_1" xmlns="http://www.w3.org/2000/svg" xmlns:xlink="http://www.w3.org/1999/xlink" x="0px" y="0px"
	 width="89.8px" height="80.9px" viewBox="0 0 89.8 80.9" style="enable-background:new 0 0 89.8 80.9;" xml:space="preserve">
<style type="text/css">
	.st0{fill:#1A1A1A;}
</style>
<g>
	<path class="st0" d="M33.4,79.2c-0.8-1.5-0.2-2.5,1.5-2.5c2.8,0,5.6,0,8.5,0c0-0.9,0-1.8,0-2.8c-0.4,0-0.7,0-1,0
		c-6.6,0-13.2,0-19.8,0c-4,0-7.4-3.4-7.4-7.4c0-8.4,0.1-16.8,0-25.3c-0.1-4.3,3.7-6.9,6.8-6.9c4.3-0.1,8.6,0,12.9,0
		c0.9,0,1.6,0.6,1.6,1.4c0,0.8-0.6,1.4-1.6,1.4c-4,0-8.1,0-12.1,0c-0.8,0-1.7,0.1-2.5,0.4c-1.3,0.4-2.1,1.5-2.1,2.8
		c0,7.4,0,14.7,0,22.1c17.9,0,35.7,0,53.7,0c0-0.3,0-0.7,0-1c0-7.1,0-14.2,0-21.3c0-1.6-0.7-2.5-2.3-2.9c-0.7-0.1-1.5-0.2-2.3-0.2
		c-3.9,0-7.8,0-11.7,0c-0.2,0-0.4,0-0.6,0c-0.9,0-1.6-0.6-1.5-1.5c0-0.8,0.6-1.3,1.5-1.4c4.4,0,8.7,0,13.1,0c0.7,0,1.3,0.2,2,0.3
		c3.1,0.8,4.6,2.8,4.6,5.9c0,8.7,0,17.3,0,26c0,3.9-3.4,7.3-7.3,7.3c-6.6,0-13.2,0-19.9,0c-0.3,0-0.6,0-1,0c0,1,0,1.8,0,2.8
		c1.8,0,3.5,0,5.2,0c1.2,0,2.4,0,3.6,0c1.9,0,2.4,0.8,1.7,2.5C49.1,79.2,41.2,79.2,33.4,79.2z M18.1,65.4C17.7,69,19.4,71,22.9,71
		c14.7,0,29.4,0,44,0c3.4,0,5.2-2.1,4.7-5.6C53.8,65.4,36,65.4,18.1,65.4z"/>
	<path class="st0" d="M46.3,6.9c0,0.3,0,0.6,0,0.8c0,12.2,0,24.4,0,36.6c0,0.4,0,0.8,0,1.1c0,0.9-0.6,1.5-1.4,1.5
		c-0.8,0-1.4-0.6-1.4-1.5c0-0.4,0-0.8,0-1.1c0-12.2,0-24.4,0-36.6c0-0.3,0-0.6,0-1.1c-0.3,0.3-0.6,0.5-0.8,0.7
		C39.1,11,35.6,14.5,32,18.1c-0.9,0.9-2,0.8-2.5-0.1c-0.4-0.8,0-1.4,0.6-1.9c4-3.9,7.9-7.9,11.9-11.9c0.6-0.6,1.2-1.2,1.7-1.8
		c0.8-0.9,1.6-0.9,2.4,0c4.1,4.1,8.2,8.3,12.3,12.4c0.5,0.5,1,0.9,1.4,1.4c0.7,0.7,0.7,1.6,0.1,2.2c-0.6,0.6-1.4,0.5-2.1-0.2
		c-3.1-3.1-6.1-6.1-9.2-9.2c-0.7-0.7-1.4-1.5-2.2-2.3C46.5,6.8,46.4,6.8,46.3,6.9z"/>
</g>
</svg>
