<?xml version="1.0" encoding="utf-8"?>
<!-- Generator: Adobe Illustrator 24.1.1, SVG Export Plug-In . SVG Version: 6.00 Build 0)  -->
<svg version="1.1" id="Layer_1" xmlns="http://www.w3.org/2000/svg" xmlns:xlink="http://www.w3.org/1999/xlink" x="0px" y="0px"
	 width="89.8px" height="80.9px" viewBox="0 0 89.8 80.9" style="enable-background:new 0 0 89.8 80.9;" xml:space="preserve">
<style type="text/css">
	.st0{fill:#1A1A1A;}
</style>
<g>
	<path class="st0" d="M3.6,22.7C4,21,4.5,19.4,5.7,18c2.1-2.6,4.7-3.9,8-3.9c13.8,0,27.5,0,41.3,0c5.4,0,9.9,4.5,9.9,9.9
		c0,1.1,0,2.2,0,3.4c0.4-0.2,0.7-0.3,1-0.5c6.5-3.2,13.1-6.5,19.6-9.7c0.2-0.1,0.4-0.2,0.7-0.2c0,15.7,0,31.3,0,47
		c-1.3-0.6-2.6-1.2-3.9-1.8c-5.5-2.7-11-5.5-16.5-8.2c-0.2-0.1-0.5-0.2-0.9-0.4c0,1.1,0,2.1,0,3.1c0,3.4-1.3,6.1-4,8.1
		c-1.7,1.4-3.7,2.1-6,2.1c-13.8,0-27.6,0-41.5,0c-4.6,0-8.7-3.4-9.7-7.8c-0.1-0.2-0.1-0.5-0.2-0.7C3.6,46.5,3.6,34.6,3.6,22.7z
		 M61.6,48.2c4.1,2,8.1,4,12.2,6c0-9.2,0-18.3,0-27.5c-4.1,2-8,4-12.2,6c0-0.5,0-0.8,0-1.1c0-2.5,0-5,0-7.6c0-4.2-2.5-6.7-6.7-6.7
		c-13.8,0-27.5,0-41.3,0c-4.2,0-6.7,2.5-6.7,6.7c0,11,0,22,0,33c0,0.8,0.1,1.6,0.4,2.4c0.9,2.6,3.1,4.1,6.1,4.1c8,0,16,0,23.9,0
		c5.9,0,11.8,0,17.7,0c3.4,0,5.8-1.9,6.4-5c0.1-0.7,0.1-1.3,0.1-2C61.6,53.8,61.6,51.1,61.6,48.2z M82.8,22.2
		c-1.8,0.9-3.6,1.8-5.3,2.7c-0.2,0.1-0.3,0.5-0.4,0.7c0,1.2,0,2.4,0,3.6c0,8.7,0,17.3,0,26c0,0.3,0.1,0.7,0.3,0.8
		c1.8,0.9,3.5,1.8,5.4,2.7C82.8,46.5,82.8,34.4,82.8,22.2z"/>
	<path class="st0" d="M27.1,52.3c0-8,0-15.8,0-23.8c6.3,4,12.4,7.9,18.7,11.9C39.6,44.4,33.4,48.3,27.1,52.3z M30.4,34.6
		c0,4,0,7.8,0,11.7c3.1-2,6.1-3.9,9.2-5.9C36.5,38.5,33.5,36.6,30.4,34.6z"/>
</g>
</svg>
