<?xml version="1.0" encoding="utf-8"?>
<!-- Generator: Adobe Illustrator 24.1.1, SVG Export Plug-In . SVG Version: 6.00 Build 0)  -->
<svg version="1.1" id="Layer_1" xmlns="http://www.w3.org/2000/svg" xmlns:xlink="http://www.w3.org/1999/xlink" x="0px" y="0px"
	 width="89.8px" height="80.9px" viewBox="0 0 89.8 80.9" style="enable-background:new 0 0 89.8 80.9;" xml:space="preserve">
<style type="text/css">
	.st0{fill:#1A1A1A;}
</style>
<g>
	<g>
		<path class="st0" d="M18.8,37.7c10.7,0,21.3,0,32,0l6.7,0c-0.2,0.3-0.4,0.7-0.5,1c-0.7-0.3-1.5-0.5-2.3-0.5
			c-1.4,0-2.7,0.6-3.8,1.6c-1.3,1.3-2.7,2.6-4,4c-1.7,1.8-2.1,4.2-1.1,6.3c-2.2,0.8-3.7,2.8-3.7,5.4c0,1.3,0,2.5,0,3.8l0,1
			c0,1.2,0.3,2.3,0.8,3.3H9.2l0.4-1l1.9-5.2C13.9,50.9,16.4,44.3,18.8,37.7 M18.4,35.7c-0.8,0-1.1,0.2-1.4,1
			c-3.1,8.4-6.2,16.8-9.3,25.1c-0.5,1.2-0.9,2.4-1.4,3.7c14.2,0,28.3,0,42.4,0c-0.2-1-0.2-1-1.3-1.2c-2.3-0.4-3.4-1.8-3.4-4.1
			c0-1.6,0-3.2,0-4.8c0-2.2,1.6-3.7,3.8-3.8c0.3,0,0.7-0.2,0.8-0.4c0.1-0.2,0-0.6-0.2-0.8c-1.4-1.6-1.5-3.8,0-5.3
			c1.3-1.3,2.6-2.6,3.9-3.9c0.7-0.7,1.6-1,2.4-1c0.9,0,1.8,0.4,2.5,1.1c0.2,0.2,0.4,0.4,0.7,0.4c0.1,0,0.2,0,0.3-0.1
			c0.5-0.2,0.4-0.5,0.4-0.9c0.1-2.2,1.6-3.7,3.8-3.7c0.8,0,1.6,0,2.5,0c1,0,2,0,2.9,0c2.2,0,3.8,1.5,3.8,3.6c0,0.8,0.3,1,1,1
			c0.5-1.3,1-2.6,1.5-3.9c0.6-1.5,0.1-2.1-1.5-2.1c0,0,0,0,0,0c-7.3,0-14.6,0-21.8,0C40,35.7,29.2,35.7,18.4,35.7
			C18.4,35.7,18.4,35.7,18.4,35.7L18.4,35.7z"/>
	</g>
	<g>
		<path class="st0" d="M33.2,6.1l19.6,0c0,6.5,0,12.9,0,19.4l0,5.4l-8.4,0l-27,0c-2.5,0-3.7,0.9-4.6,3.3c-0.1,0.2-0.1,0.4-0.2,0.6
			l0-4l0-24.6L33.2,6.1 M33.2,4.1c-6.9,0-13.8,0-20.7,0c-1.4,0-1.7,0.3-1.7,1.7c0,9.8,0,19.6,0,29.4c0,3.5,0,6.9,0,10.4
			c0.1,0,0.1,0,0.2,0c1.3-3.6,2.6-7.2,3.9-10.7c0.6-1.6,1.1-1.9,2.7-1.9c12,0,24,0,36,0c0.2,0,0.4,0,0.6,0c0.3,0,0.5,0,0.8,0
			c0-0.4,0-0.6,0-0.9c0-8.7,0-17.4,0-26.1c0-1.4-0.4-1.7-1.7-1.7C46.5,4.1,39.8,4.1,33.2,4.1L33.2,4.1z"/>
	</g>
	<g>
		<path class="st0" d="M19.6,17.5c-0.6,0-1.1,0-1.7,0c-0.8,0-1.4,0.6-1.4,1.4c0,0.7,0.6,1.3,1.4,1.3c0.1,0,0.2,0,0.2,0
			c0.1,0,0.2,0,0.3,0c0,0,0,0,0,0c1,0,2,0,3,0c3.7,0,7.5,0,11.2,0c0.6,0,1.2,0,1.7,0c0.3,0,0.7,0,1,0c2.5,0,5,0,7.5,0
			c1.5,0,3,0,4.4,0c0,0,0,0,0,0c0.6,0,1.1-0.3,1.3-0.9c0.2-0.6,0.1-1.1-0.4-1.5c-0.3-0.2-0.8-0.3-1.2-0.3c-5.8,0-11.6,0-17.4,0
			c-2.3,0-4.6,0-6.9,0c-0.2,0-0.5,0-0.7,0C21.3,17.5,20.5,17.5,19.6,17.5L19.6,17.5z"/>
	</g>
	<g>
		<path class="st0" d="M47.2,9.4C47.2,9.4,47.2,9.4,47.2,9.4c-2.5,0-5,0-7.4,0c-2.3,0-4.7,0-7,0c-2.6,0-5.2,0-7.7,0
			c-2.2,0-4.4,0-6.5,0c-1.2,0-1.9,0.5-1.9,1.4c0,0.8,0.7,1.3,1.9,1.3c3.4,0,6.7,0,10.1,0c3.1,0,6.1,0,9.2,0c0,0,0,0,0,0
			c1.8,0,3.6,0,5.3,0c1.4,0,2.9,0,4.3,0c1.1,0,1.8-0.9,1.4-1.9C48.4,9.6,47.9,9.4,47.2,9.4L47.2,9.4z"/>
	</g>
	<g>
		<path class="st0" d="M18.2,25.4c-0.2,0-0.4,0-0.5,0c-0.7,0.1-1,0.6-1.1,1.3c-0.1,0.6,0.3,1.1,0.9,1.3c0.3,0.1,0.7,0.1,1,0.1
			c4.7,0,9.3,0,14,0c4.8,0,9.6,0,14.4,0c0.3,0,0.7,0,1-0.1c0.6-0.2,0.9-0.7,0.9-1.3c0-0.7-0.4-1.1-1.1-1.2c-0.2,0-0.4,0-0.5,0
			c-0.1,0-0.2,0-0.3,0c0,0,0,0,0,0c-3,0-6,0-9,0c-1.7,0-3.3,0-5,0c0,0-0.1,0-0.1,0c-1.7,0-3.5,0-5.2,0c-3,0-6,0-9,0c0,0,0,0,0,0
			C18.4,25.4,18.3,25.4,18.2,25.4L18.2,25.4z"/>
	</g>
	<g>
		<path class="st0" d="M65.2,41.3c0.7,0,1.3,0,2,0c0,0.3,0,0.6,0,0.9l0,0.7v1.3l1.2,0.5l0.9,0.4c0.9,0.4,1.7,0.7,2.5,1.1
			c0.3,0.1,0.6,0.2,0.9,0.2c0.6,0,1.2-0.2,1.7-0.6c0.4-0.3,0.7-0.6,1.1-0.9c0,0,0.1-0.1,0.1-0.1c0.9,0.9,1.8,1.8,2.7,2.7
			c0,0,0,0,0,0c-0.5,0.5-1.3,1.2-1.5,2.3c-0.2,1,0.3,1.9,0.6,2.4c0.1,0.1,0.2,0.3,0.2,0.3c0.2,1.3,1.1,3.5,4.3,3.5c0,0,0.1,0,0.1,0
			l0,1.3c0,0.8,0,1.7,0,2.5c-3.3,0.1-4.2,2.4-4.5,3.8c0,0.1-0.2,0.3-0.3,0.5c-0.1,0.2-0.3,0.4-0.4,0.7L76.3,66l0.9,1l0.5,0.6
			c0.2,0.3,0.5,0.6,0.7,0.8c-0.9,0.9-1.8,1.8-2.7,2.7c-0.3-0.2-0.5-0.5-0.8-0.7L74.4,70l-0.9-0.8l-1.1,0.5L71.5,70
			c-0.9,0.4-1.8,0.7-2.6,1.1c-0.9,0.4-1.4,1.4-1.5,2.1c-0.1,0.5-0.1,1-0.1,1.4c0,0.1,0,0.1,0,0.2c-0.6,0-1.3,0-1.9,0
			c-0.6,0-1.2,0-1.8,0c0-0.4,0-0.8,0-1.2c0-1.3-0.7-2.2-1.9-2.7c-0.7-0.3-1.5-0.6-2.4-1.1c-0.5-0.2-0.9-0.3-1.3-0.3
			c-0.5,0-1.2,0.1-1.9,0.8c-0.3,0.3-0.6,0.6-1,0.9c-0.9-0.9-1.8-1.8-2.7-2.7c0.2-0.3,0.5-0.5,0.7-0.8l0.5-0.6l0.8-0.9L53.8,65
			l-0.1-0.2l-1.5-3.5l-0.5-1.1l-1.2-0.1l-0.7,0c-0.4,0-0.7,0-1.1-0.1c0-1.4,0-2.7,0-4c0,0,0.1,0,0.1,0c0.2,0,0.3,0,0.5,0
			c0.3,0,0.6,0,0.8-0.1l0.3,0l1.2-0.1l0.5-1.1l0.4-0.8c0.4-0.8,0.7-1.7,1.1-2.5c0.4-1,0.1-2-0.4-2.6c-0.3-0.4-0.6-0.7-0.9-1
			c-0.1-0.1-0.1-0.1-0.2-0.2c1-1,1.8-1.9,2.7-2.7c0.2,0.2,0.4,0.5,0.7,0.7l0.4,0.4l0.9,1l1.3-0.5L59,46c0.9-0.4,1.7-0.7,2.6-1.1
			c0.9-0.4,1.5-1.4,1.6-2.2c0.1-0.5,0.1-0.9,0.1-1.4c0-0.1,0-0.1,0-0.2C63.9,41.3,64.6,41.3,65.2,41.3 M65.2,68l0.1,0
			c5.5-0.1,9.9-4.6,9.8-10.1c-0.1-5.5-4.6-9.9-10-9.9l-0.2,0c-5.5,0.1-10,4.6-9.9,10.1C55.2,63.5,59.7,68,65.2,68 M65.2,39.3
			c-0.9,0-1.8,0-2.6,0c-0.8,0-1.2,0.4-1.3,1.3c-0.1,0.7-0.1,1.4-0.1,2c0,0.2-0.2,0.5-0.4,0.6c-1.1,0.5-2.2,0.9-3.4,1.4
			c-0.4-0.5-0.9-1-1.5-1.6c-0.3-0.3-0.7-0.5-1-0.5c-0.3,0-0.6,0.1-1,0.5c-1.2,1.2-2.4,2.4-3.6,3.6c-0.6,0.6-0.6,1.1-0.1,1.7
			c0.4,0.5,0.9,1,1.4,1.6c0.1,0.2,0.2,0.5,0.1,0.7c-0.4,1.1-0.9,2.2-1.4,3.3c-0.4,0-0.7,0.1-1.1,0.1c-0.4,0-0.8,0-1.2,0.1
			c-0.8,0.1-1.3,0.5-1.3,1.3c0,1.8,0,3.5,0,5.3c0,0.8,0.4,1.2,1.2,1.3c0.8,0.1,1.7,0.1,2.4,0.2c0.6,1.3,1.1,2.5,1.6,3.7
			c-0.5,0.6-1.1,1.2-1.6,1.8c-0.5,0.6-0.5,1.2,0,1.7c1.2,1.3,2.5,2.5,3.7,3.7c0.3,0.3,0.6,0.4,0.9,0.4c0.3,0,0.6-0.1,0.9-0.4
			c0.5-0.4,1-0.9,1.5-1.4c0.2-0.2,0.3-0.2,0.5-0.2c0.1,0,0.3,0,0.4,0.1c0.9,0.4,1.7,0.8,2.6,1.2c0.4,0.2,0.6,0.4,0.6,0.8
			c0,0.6,0,1.3,0.1,1.9c0.1,0.8,0.6,1.3,1.3,1.3c0.8,0,1.6,0,2.5,0c0.9,0,1.8,0,2.6,0c0.8,0,1.2-0.5,1.3-1.2
			c0.1-0.7,0.1-1.4,0.1-2.1c0-0.2,0.2-0.5,0.3-0.5c1.1-0.5,2.3-0.9,3.4-1.4c0.6,0.5,1.2,1.1,1.8,1.6c0.3,0.3,0.6,0.4,0.9,0.4
			c0.3,0,0.6-0.1,0.9-0.4c1.2-1.2,2.5-2.4,3.7-3.7c0.6-0.6,0.6-1.1,0-1.8c-0.5-0.6-1.1-1.3-1.6-1.9c0.3-0.6,0.7-1.1,0.8-1.7
			c0.3-1.6,1.2-2.1,2.6-2.1c0.1,0,0.3,0,0.4,0c0.1,0,0.1,0,0.2,0c1,0,1.3-0.5,1.3-1.6c0-1.4,0-2.9,0-4.3c0-1.4-0.4-1.9-1.7-1.9
			c-0.1,0-0.1,0-0.2,0c-0.1,0-0.2,0-0.2,0c-1.3,0-2.1-0.4-2.4-1.9c-0.1-0.7-0.9-1.4-0.8-2c0.1-0.6,0.9-1.2,1.4-1.7
			c0.6-0.7,0.6-1.3,0-1.9c-1.2-1.2-2.4-2.4-3.6-3.6c-0.3-0.3-0.6-0.4-0.9-0.4c-0.3,0-0.6,0.1-0.9,0.4c-0.5,0.5-1,0.9-1.6,1.4
			c-0.1,0.1-0.3,0.1-0.5,0.1c-0.1,0-0.1,0-0.2,0c-1.1-0.4-2.2-0.9-3.4-1.4c0-0.7,0-1.5,0-2.3c0-0.8-0.5-1.3-1.3-1.3
			C67,39.3,66.1,39.3,65.2,39.3L65.2,39.3z M65.2,66c-4.4,0-8.1-3.6-8.1-8c-0.1-4.4,3.6-8,8-8.1c0,0,0.1,0,0.1,0c4.3,0,7.9,3.6,8,8
			c0.1,4.4-3.5,8-7.9,8.1C65.3,66,65.3,66,65.2,66L65.2,66z"/>
	</g>
	<g>
		<path class="st0" d="M7.2,20.5c-1,0-1.5,0.5-1.5,1.9c0,12,0,23.9,0,35.9c0,0.2,0,0.4,0,0.6c0.9-1.9,1.6-3.7,2.3-5.6
			c0.1-0.2,0.1-0.5,0.1-0.7c0-10.4,0-20.7,0-31.1c0-0.3,0-0.7,0-1C7.7,20.6,7.4,20.5,7.2,20.5L7.2,20.5z"/>
	</g>
	<g>
		<path class="st0" d="M60.3,22.5c0.3,0,0.7,0,1,0c0,1.7,0,3.4,0,5.1l0,2.2v1h-1.8v-8.2C59.8,22.5,60.1,22.5,60.3,22.5 M60.3,20.5
			c-0.9,0-1.8,0-2.7,0c0,4.1,0,8.2,0,12.2c2,0,3.9,0,5.8,0c0-1,0-2,0-3c0-2.6,0-5.2,0-7.8c0-0.9-0.3-1.4-1.1-1.5
			C61.6,20.5,61,20.5,60.3,20.5L60.3,20.5z"/>
	</g>
</g>
</svg>
