<?xml version="1.0" encoding="utf-8"?>
<!-- Generator: Adobe Illustrator 24.1.1, SVG Export Plug-In . SVG Version: 6.00 Build 0)  -->
<svg version="1.1" id="Layer_1" xmlns="http://www.w3.org/2000/svg" xmlns:xlink="http://www.w3.org/1999/xlink" x="0px" y="0px"
	 width="89.8px" height="80.9px" viewBox="0 0 89.8 80.9" style="enable-background:new 0 0 89.8 80.9;" xml:space="preserve">
<style type="text/css">
	.st0{fill:#1A1A1A;}
</style>
<g>
	<g>
		<path class="st0" d="M62,5.8c4.8,4,10.4,6,16.7,6c0.5,0,0.9,0,1.4,0c0,0,0,0,0,0c0,0.1,0,0.1,0,0.2c-0.1,6.7-0.1,14,0,22.8
			c0,5-1.8,8.6-5.5,11.2c-3.7,2.5-7.5,4.9-11.3,7.3L62,54.1L60.2,53c-3.6-2.2-7.3-4.5-10.8-6.9c-3.8-2.6-5.5-6.2-5.4-11
			c0.1-2.4,0-4.9,0-7.3c0-1.1,0-2.1,0-3.2c0-1.2,0-2.4,0-3.6c0-3,0-6.1,0-9.2c0.4,0,0.8,0,1.3,0C51.5,11.8,57.2,9.8,62,5.8 M54,23.4
			c-0.3,0.1-0.9,0.2-1.3,0.4l-1.5,0.4v1.6v13.6v2h2h17.8h2v-2V25.7V24l-1.7-0.3c-0.4-0.1-0.9-0.2-1.2-0.2c0-0.4,0-0.9,0-1.3l0-0.1
			l0-0.1c0-5.2-3.2-8.7-8-8.7l-0.1,0c-4.6,0-7.9,3.6-7.9,8.7C54,22.5,54,23.1,54,23.4 M62,3.7c-0.3,0-0.6,0.1-0.8,0.2
			c-4.7,4-10,5.9-16,5.9c-0.5,0-0.9,0-1.4,0c-0.1,0-0.1,0-0.2,0c-1.4,0-1.7,0.7-1.7,2c0.1,4.2,0,8.5,0,12.7c0,3.5,0.1,7,0,10.4
			c-0.1,5.4,1.9,9.7,6.3,12.7c4.2,2.9,8.6,5.6,12.9,8.3c0.2,0.1,0.5,0.2,0.9,0.2c0.3,0,0.6-0.1,0.8-0.2c4.3-2.7,8.7-5.4,12.9-8.3
			c4.5-3.1,6.4-7.5,6.4-12.9c0-7.6,0-15.2,0-22.8c0-1.5-0.3-2.2-1.8-2.2c-0.1,0-0.2,0-0.3,0c-0.4,0-0.9,0-1.3,0
			c-5.9,0-11.2-1.9-15.8-5.9C62.7,3.8,62.4,3.7,62,3.7L62,3.7z M53.1,39.3c0-4.6,0-9.1,0-13.6C56,25,56,25,56,21.9
			c0-4,2.4-6.7,5.9-6.7c0,0,0.1,0,0.1,0c3.6,0,5.9,2.6,6,6.7c0,0.1,0,0.1,0,0.2c0,3,0,3,2.9,3.5c0,4.5,0,9,0,13.7
			C64.9,39.3,59.1,39.3,53.1,39.3L53.1,39.3z"/>
	</g>
	<g>
		<path class="st0" d="M37.5,17.6C37.5,17.6,37.5,17.6,37.5,17.6l0,0.8c0,0.3,0,0.6,0,0.8c0,0,0,0,0,0c-0.4,0-0.8,0-1.3,0l-0.2,0
			c-2.8,0-5.6,0-8.3,0c-2,0-4,0-6,0c-2,0-4,0-6,0h-2.4h-1.9l-0.1,1.9c0,0.3,0,0.6,0,0.8c0,0.5-0.1,0.9-0.1,1.3c0,2.5,0,4.9,0,7.4
			c0,6.1,0,12.4,0,18.6c0,0.9,0.1,2.2,1,3.1c0.9,0.9,2.1,1,3.1,1l0.1,0l0,0c5.7,0,10.7,0,15.5,0c6,0,11.5,0,16.8,0.1
			c0.9,0,1.9,0.3,2.9,0.9c3.5,2,7,4.3,9.9,6.2c0.8,0.6,1.7,0.8,2.5,0.8c0.9,0,1.8-0.3,2.7-1c0.5-0.4,1-0.7,1.5-1.1c0,1,0,2-0.1,2.9
			c-0.2,0.1-0.4,0.2-0.6,0.3c-0.1,0-0.4,0.1-0.9,0.1l-0.3,0l-0.3,0c-10.9,0-21.7,0-32.6,0l-20.4,0c-1.6,0-1.9-0.2-2-0.2
			c0-0.1-0.2-0.4-0.2-2c0-13.5,0-27.1,0-40.6c0-1.5,0.2-1.8,0.2-1.8c0,0,0.3-0.2,1.7-0.2c2.1,0,4.2,0,6.2,0l4,0l4,0
			C29.1,17.7,33.3,17.7,37.5,17.6L37.5,17.6 M37.5,15.6C37.5,15.6,37.5,15.6,37.5,15.6c-4,0-7.9,0-11.9,0c-2.6,0-5.3,0-7.9,0
			c-2.1,0-4.2,0-6.3,0c-3.1,0-3.8,0.8-3.8,4c0,13.5,0,27.1,0,40.6c0,3.5,0.8,4.2,4.2,4.2c6.8,0,13.6,0,20.4,0c10.9,0,21.7,0,32.6,0
			c0,0,0,0,0,0c0.2,0,0.4,0,0.6,0c0.6,0,1.2,0,1.7-0.2c0.7-0.3,1.7-0.9,1.8-1.5c0.2-2.3,0.1-4.7,0.1-7.3c-1.8,1.2-3.3,2.1-4.7,3.2
			c-0.5,0.4-1,0.6-1.5,0.6c-0.4,0-0.9-0.2-1.4-0.5c-3.3-2.2-6.6-4.3-10-6.2c-1.1-0.7-2.6-1.1-3.9-1.2c-5.6,0-11.2-0.1-16.8-0.1
			c-5.2,0-10.3,0-15.5,0c0,0,0,0,0,0c-1.6,0-2.1-0.4-2.1-2.1c0.1-8.7,0-17.3,0-26c0-0.6,0-1.1,0.1-2c0.9,0,1.7,0,2.4,0c4,0,8,0,12,0
			c2.8,0,5.6,0,8.4,0c0.1,0,0.1,0,0.2,0c0.8,0,1.5,0,1.9,0c1.5,0,1.4-0.4,1.4-3.6C39.5,16.1,39,15.6,37.5,15.6L37.5,15.6z"/>
	</g>
	<g>
		<path class="st0" d="M43.2,68.8c0.8,2.9,2.4,5,4.7,6.4c-4.7,0-9.4,0-13.7,0l-4.3,0l-1.3,0c2.3-1.1,4-3.2,4.8-6.2
			c0-0.1,0-0.1,0-0.2H43.2 M44.8,66.8c-4.3,0-8.6,0-12.9,0c-0.1,0.6-0.3,1.1-0.4,1.6c-0.6,2.4-2,4.4-4.3,5.2c-1.9,0.7-2,1.7-1.5,3.6
			c2.9,0,5.7,0,8.6,0c5.3,0,10.6,0,15.8,0c0.4,0,1.3-0.6,1.2-0.9c0-0.7-0.3-1.9-0.7-2C47.1,72.9,45.4,70.3,44.8,66.8L44.8,66.8z"/>
	</g>
	<g>
		<path class="st0" d="M39.1,25c-7.5,0-15,0-22.6,0c-0.3,2.7-0.3,2.7,2.1,2.7c3,0,6.1,0,9.1,0c3.2,0,6.3,0,9.5,0
			C39.6,27.8,39.9,27.4,39.1,25L39.1,25z"/>
	</g>
	<g>
		<path class="st0" d="M26.6,30.3c-2.7,0-5.4,0-8.1,0c-2.4,0-2.5,0.2-1.9,2.7c7.5,0,15.1,0,22.6,0c0-0.9,0-1.7,0-2.7
			c-0.8,0-1.4,0-2,0C33.7,30.3,30.2,30.3,26.6,30.3L26.6,30.3z"/>
	</g>
	<g>
		<path class="st0" d="M62,20.3c0.5,0,0.8,0.1,0.9,0.2c0.7,0.4,0.9,0.9,0.7,2.9h-3.2c0-0.1,0-0.1,0-0.2c-0.1-2,0-2.3,0.7-2.7
			C61.2,20.4,61.5,20.3,62,20.3 M62,18.3c-0.7,0-1.4,0.1-1.9,0.4c-2.6,1.5-1.4,4.2-1.7,6.7c2.5,0,4.7,0,7.2,0
			c-0.1-2.4,0.9-5.1-1.7-6.6C63.5,18.4,62.7,18.3,62,18.3L62,18.3z"/>
	</g>
</g>
</svg>
