<?xml version="1.0" encoding="utf-8"?>
<!-- Generator: Adobe Illustrator 24.1.1, SVG Export Plug-In . SVG Version: 6.00 Build 0)  -->
<svg version="1.1" id="Layer_1" xmlns="http://www.w3.org/2000/svg" xmlns:xlink="http://www.w3.org/1999/xlink" x="0px" y="0px"
	 width="89.8px" height="80.9px" viewBox="0 0 89.8 80.9" style="enable-background:new 0 0 89.8 80.9;" xml:space="preserve">
<style type="text/css">
	.st0{fill:#1A1A1A;}
</style>
<g>
	<path class="st0" d="M86.5,5.6c-1.7-2.5-3.8-2.7-6.2-2.7c-23.8,0-47.6,0-71.5,0c-2.3,0-4.3,0.5-5.6,2.8c0-0.1,0-0.1,0-0.2V49
		c1.5,3.1,4.4,2.7,7.2,2.7c23.5,0,46.9,0,70.4,0c2.2,0,4.2-0.2,5.7-2.5c0,0,0,0,0,0c0,0,0.1-0.1,0.1-0.1V5.6z M81.1,48.4
		c-24.1,0-48.1,0-72.2,0c-1.7,0-2.2-0.6-2.2-2.3C6.8,33.6,6.8,21,6.7,8.5c0-1.8,0.7-2.2,2.3-2.2c12,0,24.1,0,36.1,0
		c11.9,0,23.8,0,35.7,0c2.4,0,2.5,0,2.5,2.5c0,12.4,0,24.8,0,37.2C83.3,47.8,82.9,48.4,81.1,48.4z"/>
	<path class="st0" d="M86.5,78C86.5,78,86.5,78,86.5,78v-0.9C86.5,77.4,86.5,77.7,86.5,78z"/>
	<path class="st0" d="M86.4,64.7C86.4,64.7,86.5,64.7,86.4,64.7L86.4,64.7L86.4,64.7z"/>
	<path class="st0" d="M86.4,61.8c-1.1-0.1-2.2-0.3-3.2-0.3c-9.7,0-19.4,0-29.1,0c-1.3,0-2.1-0.2-2.7-1.5c-1.2-2.4-3.3-3.6-6-3.5
		c-2.6,0.1-4.7,1.3-5.8,3.6c-0.6,1.2-1.3,1.4-2.4,1.4c-10.1,0-20.1,0-30.2,0c-1.2,0-2.4,0.3-3.7,0.5v2.5c1.5,0.1,2.9,0.4,4.4,0.4
		c9.7,0,19.5,0,29.2,0c1.4,0,2.1,0.3,2.9,1.6c2.5,4.6,9.1,4.7,11.6,0.1c0.8-1.4,1.6-1.7,3-1.7c9.7,0,19.5,0,29.2,0
		c0.9,0,1.8-0.1,2.8-0.2l0,0L86.4,61.8z M45.6,66.6c-1.8,0-3.4-1.5-3.4-3.4c0-1.8,1.4-3.3,3.2-3.4c1.9-0.1,3.5,1.4,3.5,3.3
		C49,65,47.4,66.6,45.6,66.6z"/>
	<path class="st0" d="M35.2,27.4c0-3.6-0.1-7.1,0-10.7c0-0.8,0.5-1.9,1.1-2.3c0.5-0.3,1.6,0.1,2.2,0.6c5,3.4,9.9,6.9,14.8,10.5
		c2,1.4,2,2.4,0.1,3.8c-5,3.6-9.9,7.1-14.9,10.6c-0.6,0.4-1.7,0.8-2.3,0.5c-0.6-0.3-0.9-1.4-1-2.1C35.1,34.5,35.2,31,35.2,27.4z
		 M38.7,35.5c3.9-2.8,7.6-5.4,11.5-8.2c-3.9-2.8-7.6-5.4-11.5-8.2C38.7,24.8,38.7,29.9,38.7,35.5z"/>
</g>
</svg>
