<?xml version="1.0" encoding="utf-8"?>
<!-- Generator: Adobe Illustrator 24.1.1, SVG Export Plug-In . SVG Version: 6.00 Build 0)  -->
<svg version="1.1" id="Layer_1" xmlns="http://www.w3.org/2000/svg" xmlns:xlink="http://www.w3.org/1999/xlink" x="0px" y="0px"
	 width="201px" height="139.7px" viewBox="0 0 201 139.7" style="enable-background:new 0 0 201 139.7;" xml:space="preserve">
<g>
	<g>
		<path d="M100.6,10c23,0,45.9,0,68.9,0c3.8,0,5.7,1.9,5.7,5.7c0,30.5,0,61,0,91.5c0,3.9-1.9,5.7-5.8,5.7c-45.9,0-91.9,0-137.8,0
			c-3.9,0-5.8-1.9-5.8-5.8c0-30.4,0-60.8,0-91.2c0-4.1,1.8-5.9,5.9-5.9C54.7,10,77.7,10,100.6,10z M34.5,104.2c44.1,0,88,0,132.1,0
			c0-28.6,0-57.1,0-85.6c-44.1,0-88.1,0-132.1,0C34.5,47.2,34.5,75.7,34.5,104.2z M100.6,12.4c-1.1,0-2,0.9-2,1.9c0,1,1,2.1,2,2
			c1.1-0.1,1.8-0.7,1.9-1.9C102.6,13.3,101.7,12.4,100.6,12.4z"/>
		<path d="M100.5,129.7c-28.9,0-57.8,0-86.8,0c-2.4,0-4.5-0.5-6.3-2.2c-2.6-2.4-2.8-6.4-2.1-9.3c0.3-1.3,1.4-2.1,2.8-2.3
			c0.4-0.1,0.9,0,1.3,0c22.4,0,44.9,0,67.3,0c1.2,0,2.1,0.3,2.7,1.3c1.5,2.7,3.8,3.5,6.9,3.5c9.7-0.2,19.3-0.1,29,0
			c2.5,0,4.5-0.7,5.8-2.9c0.9-1.6,2.1-1.9,3.9-1.9c22.1,0.1,44.2,0,66.3,0c3.5,0,4.7,1.1,4.7,4.7c0,4.4-1.6,7.3-4.9,8.5
			c-1.3,0.5-2.7,0.6-4.1,0.6C158.2,129.7,129.4,129.7,100.5,129.7z"/>
	</g>
	<g>
		<path d="M54.6,99.9c2.2-0.1,4.3-0.3,6.4-0.9c0.9-0.2,1.8-0.5,2.6-0.9c0.2-0.1,0.5-0.3,0.7-0.5c0.5-0.4,0.8-0.9,0.9-1.6
			c0,0,0-0.1,0-0.1c0-0.2,0-0.4,0-0.6c0-0.1,0-0.2,0-0.2c-0.4-1.4-0.9-2.8-1.8-4c-0.6-0.7-1.3-1.3-2.2-1.6c-0.4-0.1-0.8-0.2-1.2-0.3
			c0.1,0.3,0.2,0.6,0.3,0.9c0,0.1,0.1,0.1,0.2,0.2c0.7,0.3,1.2,1.1,1.1,1.9c-0.1,0.9-0.8,1.6-1.7,1.6c-0.9,0.1-1.7-0.6-1.9-1.4
			c-0.2-0.9,0.3-1.8,1.1-2.1c0.1,0,0.1,0,0.2-0.1c-0.1-0.4-0.3-0.8-0.6-1.1c0-0.1-0.1-0.1-0.2-0.1c-0.5-0.1-1-0.1-1.5-0.1
			c0,0-0.1,0-0.1,0.1c-0.2,0.4-0.6,0.8-0.9,1.1c-1,0.9-2,1.7-3.1,2.5c-0.4,0.3-0.9,0.7-1.3,1c0,0,0,0-0.1,0c-1.4-1-2.9-2.1-4.2-3.3
			c-0.4-0.4-0.9-0.8-1.2-1.3c0,0-0.1,0-0.1,0c-0.5,0-1,0.1-1.5,0.1c0,0-0.1,0-0.1,0c-0.3,0.3-0.6,0.6-0.7,1c0,0,0,0.1,0,0.1
			c0.2,0.2,0.4,0.5,0.7,0.6c0,0,0,0,0,0c0.6,0.5,1.1,1.1,1.4,1.8c0.1,0.1,0,0.3,0,0.4c0,0.1,0,0.1,0,0.2c0.4,1,0.5,2,0.4,3
			c0,0.3-0.1,0.6-0.4,0.9c-0.3,0.3-0.6,0.4-1,0.5c-0.3,0.1-0.6,0-0.8,0c-0.3,0-0.5-0.3-0.6-0.6c0-0.3,0.2-0.6,0.5-0.6
			c0.3,0,0.6,0,0.9,0c0.1,0,0.2,0,0.2-0.1c0.1-0.9,0-1.7-0.3-2.6c0,0-0.1-0.1-0.1-0.1c-0.1-0.1-0.2-0.2-0.3-0.3
			c-0.2-0.4-0.4-0.7-0.7-1c-0.5-0.4-0.9-0.4-1.3,0c-0.4,0.3-0.6,0.7-0.8,1.1c-0.1,0.1-0.2,0.2-0.3,0.4c0,0-0.1,0.1-0.1,0.1
			c-0.3,0.7-0.4,1.5-0.3,2.2c0,0.1,0,0.2,0,0.3c0,0,0.1,0.1,0.1,0.1c0.3,0,0.6,0,0.9,0c0.4,0,0.7,0.3,0.7,0.6c0,0.4-0.3,0.6-0.6,0.6
			c-0.4,0-0.7,0-1.1-0.1c-0.6-0.2-0.9-0.5-1-1.1c-0.1-1,0-1.9,0.3-2.9c0.1-0.2,0.1-0.3,0.1-0.5c0-0.1,0-0.2,0-0.2
			c0.3-0.7,0.8-1.4,1.4-1.9c0.2-0.2,0.4-0.3,0.6-0.5c0.2-0.2,0.3-0.4,0.4-0.7c0,0,0-0.1,0-0.1c0.1-0.1,0.1-0.2,0.2-0.4
			c-1.2,0.1-2.2,0.7-3,1.6c-0.8,0.9-1.3,1.9-1.7,3c-0.2,0.5-0.3,1-0.5,1.5c0,0.2,0,0.4,0,0.6c0,0.1,0,0.2,0.1,0.3
			c0.1,0.6,0.5,1.1,0.9,1.4c0.6,0.5,1.3,0.8,2,1c1.2,0.4,2.5,0.7,3.8,0.8c1.4,0.2,2.8,0.3,4.2,0.4H54C54.2,99.9,54.4,99.9,54.6,99.9
			z"/>
		<path d="M52.1,70.3c0.3,0,0.6,0.1,1,0.1c2.7,0.4,4.6,2.2,5.3,4.9c0.2,0.9,0.3,1.9,0.2,2.9c0,0.1,0,0.2,0.1,0.3
			c0.2,0.2,0.3,0.5,0.3,0.8c0.1,1,0,1.9-0.5,2.7c-0.1,0.3-0.3,0.6-0.6,0.7c0,0-0.1,0.1-0.1,0.1c-0.5,1.4-1.2,2.6-2.2,3.7
			c-0.7,0.8-1.5,1.4-2.5,1.9C51.7,89,50.3,88.8,49,88c-1-0.6-1.8-1.4-2.5-2.4c-0.6-0.9-1.1-1.8-1.5-2.8c0-0.1-0.1-0.1-0.1-0.2
			c-0.1-0.1-0.3-0.2-0.4-0.3C44.2,82,44,81.5,43.9,81c-0.1-0.6-0.2-1.3-0.1-1.9c0-0.2,0.1-0.4,0.2-0.6c0-0.1,0.2-0.1,0.3-0.2
			c0-0.4,0.1-0.7,0.1-1.1c0.1-0.8,0.2-1.6,0.4-2.4c0.3-1.6,1.3-2.7,2.6-3.5c1-0.6,2.1-0.9,3.3-1c0.1,0,0.2,0,0.3,0
			C51.4,70.3,51.7,70.3,52.1,70.3z M46.1,82.2c0,0.1,0,0.1,0,0.1c0.3,0.9,0.8,1.8,1.4,2.6c0.6,0.8,1.2,1.5,2.1,2
			c0.9,0.5,1.8,0.7,2.8,0.4c0.8-0.2,1.5-0.7,2.1-1.2c1.1-1,1.8-2.2,2.3-3.6c0-0.1,0.1-0.2,0.1-0.3c0.2,0.1,0.3,0.1,0.5-0.1
			c0.1-0.1,0.1-0.2,0.2-0.3c0.1-0.3,0.3-0.6,0.3-1c0.1-0.4,0.1-0.8,0-1.3c-0.1-0.3-0.3-0.4-0.6-0.3c-0.1-0.3-0.2-0.5-0.2-0.8
			c-0.2-0.6-0.5-1.2-0.9-1.7c-0.1-0.1-0.2-0.1-0.3-0.2c0,0,0,0,0,0c0.1,0.2,0.2,0.5,0.2,0.7c-0.1,0-0.2-0.1-0.3-0.1
			c-0.4-0.2-0.8-0.4-1.3-0.6c-0.4-0.1-0.9-0.2-1.3-0.1C52,77,50.8,77,49.6,76.8c-0.3-0.1-0.6-0.2-0.9-0.2c-0.7-0.1-1.3,0.1-1.8,0.5
			c-0.6,0.5-0.9,1.1-1.1,1.9c0,0.2-0.1,0.3-0.1,0.5c-0.3-0.1-0.5-0.1-0.6,0.3c0,0.1,0,0.3,0,0.4c0,0.3,0,0.7,0,1
			c0.1,0.4,0.2,0.8,0.5,1.1C45.7,82.2,45.9,82.3,46.1,82.2z"/>
		<path d="M60.7,92c0,0.6-0.5,1-1,1c-0.6,0-1-0.5-1-1c0-0.5,0.5-1,1-1C60.3,91,60.7,91.5,60.7,92z"/>
	</g>
	<g>
		<path d="M76.5,88.1c-0.6,0-1.1,0-1.7,0.1c0.2-0.1,0.4-0.3,0.5-0.4c0.5-0.4,0.9-1,1.2-1.6c0.2-0.4,0.4-0.8,0.5-1.2
			c0.2-0.6,0.3-1.2,0.4-1.8c0.2-0.8,0.2-1.6,0.2-2.4c0-0.7,0-1.4,0-2.2c0-0.8,0.1-1.7,0.3-2.5c0.1-0.7,0.3-1.3,0.6-1.9
			c0.3-0.8,0.8-1.5,1.4-2.2c0.7-0.7,1.5-1.2,2.4-1.6c0.9-0.3,1.9-0.4,2.8-0.3c1,0.1,2,0.4,2.8,1c0.8,0.5,1.5,1.3,2,2.1
			c0.4,0.7,0.7,1.4,0.9,2.1c0.2,0.6,0.3,1.2,0.4,1.8c0.2,1.2,0.2,2.4,0.2,3.6c0,0.8,0,1.6,0.2,2.3c0.1,0.7,0.3,1.3,0.4,1.9
			c0.2,0.8,0.6,1.5,1.1,2.2c0.3,0.4,0.6,0.7,1,0.9c0,0,0.1,0,0.1,0.1c-0.8-0.1-1.7-0.3-2.5-0.4c0,0,0,0,0,0c0.2,0.1,0.5,0.2,0.7,0.3
			c0.4,0.2,0.8,0.4,1.2,0.7c0.7,0.4,1.3,1,1.8,1.6c0.7,0.8,1.2,1.6,1.6,2.6c0.2,0.6,0.4,1.3,0.5,2c0.1,0.7,0.1,1.4,0,2.1
			c-0.1,0.8-0.4,1.5-1.1,2c-0.4,0.3-0.8,0.5-1.3,0.6c-0.8,0.2-1.7,0.3-2.6,0.2c-1,0-2,0-3-0.1c-0.5,0-1,0-1.5,0c-2.5,0-5.1,0-7.6,0
			c-1.3,0-2.6,0-3.9,0.1c-0.7,0-1.5,0-2.2-0.2c-0.7-0.1-1.4-0.4-2-0.9c-0.4-0.4-0.6-0.9-0.8-1.4c-0.2-0.7-0.2-1.5-0.1-2.3
			c0.1-1,0.4-2,0.8-3c0.4-0.9,1-1.6,1.6-2.3c0.6-0.6,1.4-1.2,2.1-1.6C76.3,88.2,76.4,88.2,76.5,88.1C76.5,88.1,76.5,88.1,76.5,88.1z
			 M78.9,79.8c0,0.1,0,0.1,0,0.1c0.1,0.5,0.1,1,0.3,1.5c0.2,0.8,0.5,1.6,0.9,2.3c0.5,1,1.2,1.9,2.2,2.5c0.9,0.6,1.8,0.9,2.8,0.8
			c0.8-0.1,1.5-0.4,2.2-0.9c0.6-0.5,1.1-1,1.6-1.7c0.3-0.5,0.6-1.1,0.8-1.6c0.3-0.6,0.5-1.3,0.6-2c0.1-0.7,0.2-1.4,0.2-2.1
			c0-0.1,0-0.1-0.1-0.1c-0.6-0.1-1.1-0.1-1.7-0.2c-0.2,0-0.3,0-0.5-0.1c0.1,0,0.1-0.1,0.1-0.1c0.2-0.2,0.4-0.4,0.5-0.7
			c0.1-0.7-0.1-1.3-0.5-1.8c-0.2,0.1-0.4,0.3-0.6,0.4c-0.9,0.6-1.9,1.2-2.9,1.7c-0.9,0.5-1.9,0.9-2.9,1.2c-0.5,0.1-1,0.3-1.4,0.4
			C79.9,79.6,79.4,79.7,78.9,79.8z M79.6,88.1C79.6,88.2,79.6,88.2,79.6,88.1c1.6,1.7,3.3,3.4,5,5.1c1.7-1.9,3.5-3.7,5.2-5.6
			c0,0,0,0,0,0c-0.4,0-0.8,0-1.2,0.1c-0.4,0-0.8,0.1-1.1,0.4c0.1-0.2,0.2-0.5,0.3-0.7c0.1-0.2,0.2-0.5,0.3-0.7
			c-2.4,2.1-4.8,2-7.3-0.1c0.3,0.8,0.7,1.5,1,2.3C81.3,88.3,80.4,88.3,79.6,88.1z M80.4,85.6c-0.3,0-0.5,0-0.7,0.1
			c-0.6,0.2-1.2,0.5-1.6,0.9c-0.6,0.6-1.1,1.3-1.2,2.2c0,0-0.1,0.1-0.1,0.1c-0.2,0.1-0.3,0.3-0.4,0.5c0,0.1-0.1,0.1-0.1,0.1
			c-0.3,0.2-0.6,0.4-0.9,0.7c-0.4,0.5-0.8,1-1.1,1.6c-0.1,0.2-0.2,0.4-0.1,0.6c0,0,0,0.1,0,0.2c-0.1,0.5-0.3,1-0.4,1.5
			c-0.1,0.7-0.1,1.4,0,2c0.1,0.5,0.2,0.9,0.7,1.1c0.2,0.1,0.4,0.2,0.6,0.2c0.1,0,0.1,0,0.2,0c0.3,0,0.6,0,0.8,0
			c0.3,0,0.5-0.2,0.6-0.5c0-0.3-0.2-0.6-0.5-0.6c-0.4,0-0.7-0.1-1.1,0c0,0-0.1,0-0.1,0c-0.2,0-0.3-0.1-0.3-0.4c-0.1-0.5-0.1-1,0-1.5
			c0.1-0.6,0.2-1.1,0.4-1.6c0,0,0-0.1,0.1-0.1c0.2-0.1,0.3-0.2,0.3-0.4c0.3-0.6,0.6-1.1,1-1.5c0.6-0.5,1.2-0.5,1.8,0
			c0.4,0.4,0.8,0.9,1,1.4c0.1,0.1,0.1,0.2,0.2,0.3c0.1,0.1,0.1,0.1,0.2,0.2c0.4,1,0.5,2,0.4,3c0,0.1-0.1,0.3-0.1,0.4
			c0,0.1-0.2,0.2-0.3,0.2c-0.4,0-0.7,0-1.1,0c-0.3,0-0.5,0.3-0.5,0.6c0,0.3,0.2,0.5,0.5,0.5c0.3,0,0.6,0,0.8,0c0.1,0,0.2,0,0.3-0.1
			c0.1,0,0.2-0.1,0.3-0.1c0.3-0.1,0.5-0.3,0.7-0.5c0.2-0.3,0.2-0.6,0.2-0.9c0.1-1.1-0.1-2.2-0.5-3.2c0-0.1-0.1-0.2,0-0.3
			c0-0.2,0-0.4-0.1-0.5c-0.2-0.3-0.4-0.7-0.6-1c-0.4-0.5-0.8-0.9-1.4-1.2c0,0-0.1-0.1-0.1-0.1c-0.1-0.2-0.2-0.3-0.4-0.4
			c-0.1,0-0.1-0.1-0.1-0.2c0.1-0.2,0.2-0.5,0.3-0.7c0.4-0.7,1-1.2,1.8-1.5c0.2-0.1,0.4-0.1,0.6-0.1C80.4,86.2,80.4,85.9,80.4,85.6z
			 M90.6,89c-0.1,0-0.2,0-0.3,0.1c-0.4,0.2-0.8,0.4-1,0.8c-0.5,0.7-0.4,1.7,0.2,2.4c0.5,0.6,1.2,0.8,2,0.6c0.8-0.2,1.4-0.9,1.5-1.7
			c0.1-1-0.4-1.8-1.3-2.1c-0.1,0-0.1-0.1-0.1-0.2c-0.1-0.2-0.1-0.5-0.2-0.7c-0.3-0.7-0.7-1.3-1.2-1.8c-0.3-0.3-0.7-0.5-1.2-0.6
			c-0.1,0.3-0.2,0.6-0.3,0.9C89.8,87,90.3,87.9,90.6,89z M89.1,95.4c-0.1,0-0.1,0-0.2,0c-0.4,0-0.7,0-1.1,0c-0.2,0-0.3,0.1-0.3,0.3
			c0,0.4,0,0.7,0,1.1c0,0.2,0.1,0.3,0.3,0.3c0.4,0,0.7,0,1.1,0c0,0,0.1,0,0.2,0c0,0.1,0,0.2,0,0.2c0,0.3,0,0.7,0,1
			c0,0.2,0.1,0.3,0.3,0.3c0.4,0,0.7,0,1.1,0c0.2,0,0.3-0.1,0.3-0.3c0-0.4,0-0.7,0-1.1c0,0,0-0.1,0-0.2c0.1,0,0.1,0,0.1,0
			c0.4,0,0.7,0,1.1,0c0.2,0,0.3-0.1,0.3-0.3c0-0.4,0-0.7,0-1.1c0-0.2-0.1-0.3-0.3-0.3c-0.4,0-0.7,0-1.1,0c0,0-0.1,0-0.2,0
			c0-0.1,0-0.1,0-0.1c0-0.4,0-0.7,0-1.1c0-0.2-0.1-0.3-0.3-0.3c-0.4,0-0.7,0-1.1,0c-0.2,0-0.3,0.1-0.3,0.3c0,0.2,0,0.4,0,0.6
			C89.1,95.1,89.1,95.2,89.1,95.4z"/>
		<path d="M91,91.9c-0.6,0-1-0.4-1-1c0-0.5,0.5-1,1-1c0.6,0,1,0.4,1,1C92,91.5,91.6,91.9,91,91.9z"/>
	</g>
	<g>
		<path d="M120.3,99.9c2.2-0.1,4.3-0.3,6.4-0.9c0.9-0.2,1.8-0.5,2.6-0.9c0.2-0.1,0.5-0.3,0.7-0.5c0.5-0.4,0.8-0.9,0.9-1.6
			c0,0,0-0.1,0-0.1c0-0.2,0-0.4,0-0.6c0-0.1,0-0.2,0-0.2c-0.4-1.4-0.9-2.8-1.8-4c-0.6-0.7-1.3-1.3-2.2-1.6c-0.4-0.1-0.8-0.2-1.2-0.3
			c0.1,0.3,0.2,0.6,0.3,0.9c0,0.1,0.1,0.1,0.2,0.2c0.7,0.3,1.2,1.1,1.1,1.9c-0.1,0.9-0.8,1.6-1.7,1.6c-0.9,0.1-1.7-0.6-1.9-1.4
			c-0.2-0.9,0.3-1.8,1.1-2.1c0.1,0,0.1,0,0.2-0.1c-0.1-0.4-0.3-0.8-0.6-1.1c0-0.1-0.1-0.1-0.2-0.1c-0.5-0.1-1-0.1-1.5-0.1
			c0,0-0.1,0-0.1,0.1c-0.2,0.4-0.6,0.8-0.9,1.1c-1,0.9-2,1.7-3.1,2.5c-0.4,0.3-0.9,0.7-1.3,1c0,0,0,0-0.1,0c-1.4-1-2.9-2.1-4.2-3.3
			c-0.4-0.4-0.9-0.8-1.2-1.3c0,0-0.1,0-0.1,0c-0.5,0-1,0.1-1.5,0.1c0,0-0.1,0-0.1,0c-0.3,0.3-0.6,0.6-0.7,1c0,0,0,0.1,0,0.1
			c0.2,0.2,0.4,0.5,0.7,0.6c0,0,0,0,0,0c0.6,0.5,1.1,1.1,1.4,1.8c0.1,0.1,0,0.3,0,0.4c0,0.1,0,0.1,0,0.2c0.4,1,0.5,2,0.4,3
			c0,0.3-0.1,0.6-0.4,0.9c-0.3,0.3-0.6,0.4-1,0.5c-0.3,0.1-0.6,0-0.8,0c-0.3,0-0.5-0.3-0.6-0.6c0-0.3,0.2-0.6,0.5-0.6
			c0.3,0,0.6,0,0.9,0c0.1,0,0.2,0,0.2-0.1c0.1-0.9,0-1.7-0.3-2.6c0,0-0.1-0.1-0.1-0.1c-0.1-0.1-0.2-0.2-0.3-0.3
			c-0.2-0.4-0.4-0.7-0.7-1c-0.5-0.4-0.9-0.4-1.3,0c-0.4,0.3-0.6,0.7-0.8,1.1c-0.1,0.1-0.2,0.2-0.3,0.4c0,0-0.1,0.1-0.1,0.1
			c-0.3,0.7-0.4,1.5-0.3,2.2c0,0.1,0,0.2,0,0.3c0,0,0.1,0.1,0.1,0.1c0.3,0,0.6,0,0.9,0c0.4,0,0.7,0.3,0.7,0.6c0,0.4-0.3,0.6-0.6,0.6
			c-0.4,0-0.7,0-1.1-0.1c-0.6-0.2-0.9-0.5-1-1.1c-0.1-1,0-1.9,0.3-2.9c0.1-0.2,0.1-0.3,0.1-0.5c0-0.1,0-0.2,0-0.2
			c0.3-0.7,0.8-1.4,1.4-1.9c0.2-0.2,0.4-0.3,0.6-0.5c0.2-0.2,0.3-0.4,0.4-0.7c0,0,0-0.1,0-0.1c0.1-0.1,0.1-0.2,0.2-0.4
			c-1.2,0.1-2.2,0.7-3,1.6c-0.8,0.9-1.3,1.9-1.7,3c-0.2,0.5-0.3,1-0.5,1.5c0,0.2,0,0.4,0,0.6c0,0.1,0,0.2,0.1,0.3
			c0.1,0.6,0.5,1.1,0.9,1.4c0.6,0.5,1.3,0.8,2,1c1.2,0.4,2.5,0.7,3.8,0.8c1.4,0.2,2.8,0.3,4.2,0.4h5.4
			C119.9,99.9,120.1,99.9,120.3,99.9z"/>
		<path d="M117.7,70.3c0.3,0,0.6,0.1,1,0.1c2.7,0.4,4.6,2.2,5.3,4.9c0.2,0.9,0.3,1.9,0.2,2.9c0,0.1,0,0.2,0.1,0.3
			c0.2,0.2,0.3,0.5,0.3,0.8c0.1,1,0,1.9-0.5,2.7c-0.1,0.3-0.3,0.6-0.6,0.7c0,0-0.1,0.1-0.1,0.1c-0.5,1.4-1.2,2.6-2.2,3.7
			c-0.7,0.8-1.5,1.4-2.5,1.9c-1.5,0.6-2.9,0.4-4.2-0.4c-1-0.6-1.8-1.4-2.5-2.4c-0.6-0.9-1.1-1.8-1.5-2.8c0-0.1-0.1-0.1-0.1-0.2
			c-0.1-0.1-0.3-0.2-0.4-0.3c-0.3-0.4-0.5-0.9-0.6-1.4c-0.1-0.6-0.2-1.3-0.1-1.9c0-0.2,0.1-0.4,0.2-0.6c0-0.1,0.2-0.1,0.3-0.2
			c0-0.4,0.1-0.7,0.1-1.1c0.1-0.8,0.2-1.6,0.4-2.4c0.3-1.6,1.3-2.7,2.6-3.5c1-0.6,2.1-0.9,3.3-1c0.1,0,0.2,0,0.3,0
			C117.1,70.3,117.4,70.3,117.7,70.3z M111.8,82.2c0,0.1,0,0.1,0,0.1c0.3,0.9,0.8,1.8,1.4,2.6c0.6,0.8,1.2,1.5,2.1,2
			c0.9,0.5,1.8,0.7,2.8,0.4c0.8-0.2,1.5-0.7,2.1-1.2c1.1-1,1.8-2.2,2.3-3.6c0-0.1,0.1-0.2,0.1-0.3c0.2,0.1,0.3,0.1,0.5-0.1
			c0.1-0.1,0.1-0.2,0.2-0.3c0.1-0.3,0.3-0.6,0.3-1c0.1-0.4,0.1-0.8,0-1.3c-0.1-0.3-0.3-0.4-0.6-0.3c-0.1-0.3-0.2-0.5-0.2-0.8
			c-0.2-0.6-0.5-1.2-0.9-1.7c-0.1-0.1-0.2-0.1-0.3-0.2c0,0,0,0,0,0c0.1,0.2,0.2,0.5,0.2,0.7c-0.1,0-0.2-0.1-0.3-0.1
			c-0.4-0.2-0.8-0.4-1.3-0.6c-0.4-0.1-0.9-0.2-1.3-0.1c-1.2,0.3-2.3,0.3-3.5,0.1c-0.3-0.1-0.6-0.2-0.9-0.2c-0.7-0.1-1.3,0.1-1.8,0.5
			c-0.6,0.5-0.9,1.1-1.1,1.9c0,0.2-0.1,0.3-0.1,0.5c-0.3-0.1-0.5-0.1-0.6,0.3c0,0.1,0,0.3,0,0.4c0,0.3,0,0.7,0,1
			c0.1,0.4,0.2,0.8,0.5,1.1C111.4,82.2,111.5,82.3,111.8,82.2z"/>
		<path d="M126.4,92c0,0.6-0.5,1-1,1c-0.6,0-1-0.5-1-1c0-0.5,0.5-1,1-1C125.9,91,126.4,91.5,126.4,92z"/>
	</g>
	<g>
		<path d="M142.2,88.1c-0.6,0-1.1,0-1.7,0.1c0.2-0.1,0.4-0.3,0.5-0.4c0.5-0.4,0.9-1,1.2-1.6c0.2-0.4,0.4-0.8,0.5-1.2
			c0.2-0.6,0.3-1.2,0.4-1.8c0.2-0.8,0.2-1.6,0.2-2.4c0-0.7,0-1.4,0-2.2c0-0.8,0.1-1.7,0.3-2.5c0.1-0.7,0.3-1.3,0.6-1.9
			c0.3-0.8,0.8-1.5,1.4-2.2c0.7-0.7,1.5-1.2,2.4-1.6C149,70,150,69.9,151,70c1,0.1,2,0.4,2.8,1c0.8,0.5,1.5,1.3,2,2.1
			c0.4,0.7,0.7,1.4,0.9,2.1c0.2,0.6,0.3,1.2,0.4,1.8c0.2,1.2,0.2,2.4,0.2,3.6c0,0.8,0,1.6,0.2,2.3c0.1,0.7,0.3,1.3,0.4,1.9
			c0.2,0.8,0.6,1.5,1.1,2.2c0.3,0.4,0.6,0.7,1,0.9c0,0,0.1,0,0.1,0.1c-0.8-0.1-1.7-0.3-2.5-0.4c0,0,0,0,0,0c0.2,0.1,0.5,0.2,0.7,0.3
			c0.4,0.2,0.8,0.4,1.2,0.7c0.7,0.4,1.3,1,1.8,1.6c0.7,0.8,1.2,1.6,1.6,2.6c0.2,0.6,0.4,1.3,0.5,2c0.1,0.7,0.1,1.4,0,2.1
			c-0.1,0.8-0.4,1.5-1.1,2c-0.4,0.3-0.8,0.5-1.3,0.6c-0.8,0.2-1.7,0.3-2.6,0.2c-1,0-2,0-3-0.1c-0.5,0-1,0-1.5,0c-2.5,0-5.1,0-7.6,0
			c-1.3,0-2.6,0-3.9,0.1c-0.7,0-1.5,0-2.2-0.2c-0.7-0.1-1.4-0.4-2-0.9c-0.4-0.4-0.6-0.9-0.8-1.4c-0.2-0.7-0.2-1.5-0.1-2.3
			c0.1-1,0.4-2,0.8-3c0.4-0.9,1-1.6,1.6-2.3c0.6-0.6,1.4-1.2,2.1-1.6C142,88.2,142.1,88.2,142.2,88.1
			C142.2,88.1,142.2,88.1,142.2,88.1z M144.6,79.8c0,0.1,0,0.1,0,0.1c0.1,0.5,0.1,1,0.3,1.5c0.2,0.8,0.5,1.6,0.9,2.3
			c0.5,1,1.2,1.9,2.2,2.5c0.9,0.6,1.8,0.9,2.8,0.8c0.8-0.1,1.5-0.4,2.2-0.9c0.6-0.5,1.1-1,1.6-1.7c0.3-0.5,0.6-1.1,0.8-1.6
			c0.3-0.6,0.5-1.3,0.6-2c0.1-0.7,0.2-1.4,0.2-2.1c0-0.1,0-0.1-0.1-0.1c-0.6-0.1-1.1-0.1-1.7-0.2c-0.2,0-0.3,0-0.5-0.1
			c0.1,0,0.1-0.1,0.1-0.1c0.2-0.2,0.4-0.4,0.5-0.7c0.1-0.7-0.1-1.3-0.5-1.8c-0.2,0.1-0.4,0.3-0.6,0.4c-0.9,0.6-1.9,1.2-2.9,1.7
			c-0.9,0.5-1.9,0.9-2.9,1.2c-0.5,0.1-1,0.3-1.4,0.4C145.5,79.6,145.1,79.7,144.6,79.8z M145.3,88.1
			C145.3,88.2,145.3,88.2,145.3,88.1c1.6,1.7,3.3,3.4,5,5.1c1.7-1.9,3.5-3.7,5.2-5.6c0,0,0,0,0,0c-0.4,0-0.8,0-1.2,0.1
			c-0.4,0-0.8,0.1-1.1,0.4c0.1-0.2,0.2-0.5,0.3-0.7c0.1-0.2,0.2-0.5,0.3-0.7c-2.4,2.1-4.8,2-7.3-0.1c0.3,0.8,0.7,1.5,1,2.3
			C146.9,88.3,146.1,88.3,145.3,88.1z M146.1,85.6c-0.3,0-0.5,0-0.7,0.1c-0.6,0.2-1.2,0.5-1.6,0.9c-0.6,0.6-1.1,1.3-1.2,2.2
			c0,0-0.1,0.1-0.1,0.1c-0.2,0.1-0.3,0.3-0.4,0.5c0,0.1-0.1,0.1-0.1,0.1c-0.3,0.2-0.6,0.4-0.9,0.7c-0.4,0.5-0.8,1-1.1,1.6
			c-0.1,0.2-0.2,0.4-0.1,0.6c0,0,0,0.1,0,0.2c-0.1,0.5-0.3,1-0.4,1.5c-0.1,0.7-0.1,1.4,0,2c0.1,0.5,0.2,0.9,0.7,1.1
			c0.2,0.1,0.4,0.2,0.6,0.2c0.1,0,0.1,0,0.2,0c0.3,0,0.6,0,0.8,0c0.3,0,0.5-0.2,0.6-0.5c0-0.3-0.2-0.6-0.5-0.6c-0.4,0-0.7-0.1-1.1,0
			c0,0-0.1,0-0.1,0c-0.2,0-0.3-0.1-0.3-0.4c-0.1-0.5-0.1-1,0-1.5c0.1-0.6,0.2-1.1,0.4-1.6c0,0,0-0.1,0.1-0.1
			c0.2-0.1,0.3-0.2,0.3-0.4c0.3-0.6,0.6-1.1,1-1.5c0.6-0.5,1.2-0.5,1.8,0c0.4,0.4,0.8,0.9,1,1.4c0.1,0.1,0.1,0.2,0.2,0.3
			c0.1,0.1,0.1,0.1,0.2,0.2c0.4,1,0.5,2,0.4,3c0,0.1-0.1,0.3-0.1,0.4c0,0.1-0.2,0.2-0.3,0.2c-0.4,0-0.7,0-1.1,0
			c-0.3,0-0.5,0.3-0.5,0.6c0,0.3,0.2,0.5,0.5,0.5c0.3,0,0.6,0,0.8,0c0.1,0,0.2,0,0.3-0.1c0.1,0,0.2-0.1,0.3-0.1
			c0.3-0.1,0.5-0.3,0.7-0.5c0.2-0.3,0.2-0.6,0.2-0.9c0.1-1.1-0.1-2.2-0.5-3.2c0-0.1-0.1-0.2,0-0.3c0-0.2,0-0.4-0.1-0.5
			c-0.2-0.3-0.4-0.7-0.6-1c-0.4-0.5-0.8-0.9-1.4-1.2c0,0-0.1-0.1-0.1-0.1c-0.1-0.2-0.2-0.3-0.4-0.4c-0.1,0-0.1-0.1-0.1-0.2
			c0.1-0.2,0.2-0.5,0.3-0.7c0.4-0.7,1-1.2,1.8-1.5c0.2-0.1,0.4-0.1,0.6-0.1C146.1,86.2,146.1,85.9,146.1,85.6z M156.3,89
			c-0.1,0-0.2,0-0.3,0.1c-0.4,0.2-0.8,0.4-1,0.8c-0.5,0.7-0.4,1.7,0.2,2.4c0.5,0.6,1.2,0.8,2,0.6c0.8-0.2,1.4-0.9,1.5-1.7
			c0.1-1-0.4-1.8-1.3-2.1c-0.1,0-0.1-0.1-0.1-0.2c-0.1-0.2-0.1-0.5-0.2-0.7c-0.3-0.7-0.7-1.3-1.2-1.8c-0.3-0.3-0.7-0.5-1.2-0.6
			c-0.1,0.3-0.2,0.6-0.3,0.9C155.5,87,156,87.9,156.3,89z M154.8,95.4c-0.1,0-0.1,0-0.2,0c-0.4,0-0.7,0-1.1,0
			c-0.2,0-0.3,0.1-0.3,0.3c0,0.4,0,0.7,0,1.1c0,0.2,0.1,0.3,0.3,0.3c0.4,0,0.7,0,1.1,0c0,0,0.1,0,0.2,0c0,0.1,0,0.2,0,0.2
			c0,0.3,0,0.7,0,1c0,0.2,0.1,0.3,0.3,0.3c0.4,0,0.7,0,1.1,0c0.2,0,0.3-0.1,0.3-0.3c0-0.4,0-0.7,0-1.1c0,0,0-0.1,0-0.2
			c0.1,0,0.1,0,0.1,0c0.4,0,0.7,0,1.1,0c0.2,0,0.3-0.1,0.3-0.3c0-0.4,0-0.7,0-1.1c0-0.2-0.1-0.3-0.3-0.3c-0.4,0-0.7,0-1.1,0
			c0,0-0.1,0-0.2,0c0-0.1,0-0.1,0-0.1c0-0.4,0-0.7,0-1.1c0-0.2-0.1-0.3-0.3-0.3c-0.4,0-0.7,0-1.1,0c-0.2,0-0.3,0.1-0.3,0.3
			c0,0.2,0,0.4,0,0.6C154.8,95.1,154.8,95.2,154.8,95.4z"/>
		<path d="M156.7,91.9c-0.6,0-1-0.4-1-1c0-0.5,0.5-1,1-1c0.6,0,1,0.4,1,1C157.7,91.5,157.2,91.9,156.7,91.9z"/>
	</g>
	<g>
		<path d="M100.3,47c-0.1,0.6-0.1,1.2-0.2,1.7c-0.4,3.8-0.8,7.5-1.2,11.3c-0.1,0.8-0.8,1.5-1.6,1.5c-1.9,0-3.8,0-5.6,0
			c-0.9,0-1.5-0.7-1.6-1.6c-0.2-2.1-0.5-4.2-0.7-6.2c-0.1,0.7-0.3,1.4-0.4,2.2c-0.2,1.4-0.5,2.8-0.7,4.2c-0.2,0.8-0.9,1.3-1.7,1.2
			c-0.8-0.2-1.3-0.9-1.1-1.7c0.9-5.3,1.9-10.7,2.8-16c0.2-1.2,0.8-1.7,2-1.7c2.9,0,5.7,0,8.6,0c0.7,0,1.2,0.3,1.7,0.8
			c1.5,1.8,3,3.6,4.5,5.4c0.1,0.1,0.3,0.2,0.5,0.2c2.4,0,4.8,0,7.2,0c0.7,0,1.3,0.4,1.5,1.1c0.1,0.6-0.2,1.3-0.8,1.6
			c-0.2,0.1-0.5,0.1-0.7,0.1c-2.7,0-5.4,0-8.1,0c-0.5,0-0.9-0.2-1.3-0.6c-0.8-1-1.7-2-2.6-3.1C100.6,47.3,100.5,47.2,100.3,47z"/>
		<path d="M90.1,35.8c0-2.5,2-4.4,4.5-4.4c2.5,0,4.4,2,4.4,4.5c0,2.5-2,4.4-4.5,4.4C92,40.2,90,38.2,90.1,35.8z"/>
		<path d="M110.5,36.4c0,0.3,0,0.5,0,0.8c0.8,0,1.6,0,2.4,0c-0.1,0.8-1,1.5-1.9,1.5c-0.6,0-1.1,0-1.7,0c-1.2-0.1-2-1-2-2.3
			c0-1.3,0-2.7,0-4c0-0.9,0-1.8,0-2.7c0-1.4,1-2.4,2.4-2.4c0.5,0,1.1,0,1.6,0.1c1.1,0.2,1.8,1.1,1.8,2.2c-0.9,0-1.7,0-2.6,0
			c0,0.3,0,0.5,0,0.8c0.9,0,1.7,0,2.6,0c0,0.5,0,1,0,1.5c-0.9,0-1.7,0-2.6,0c0,0.3,0,0.5,0,0.8c0.9,0,1.7,0,2.6,0c0,0.5,0,1,0,1.5
			c-0.9,0-1.7,0-2.6,0c0,0.3,0,0.5,0,0.8c0.9,0,1.7,0,2.6,0c0,0.5,0,1,0,1.5C112.2,36.4,111.4,36.4,110.5,36.4z"/>
		<path d="M111.3,41.4c0,0.9,0,1.8,0,2.7c0.4,0,0.8,0,1.1,0c0.7,0,1.2,0.4,1.2,1.1c0,0.7-0.4,1.1-1.1,1.1c-1.5,0-2.9,0-4.4,0
			c-0.7,0-1.2-0.4-1.2-1.1c0-0.7,0.5-1.1,1.2-1.1c0.3,0,0.6,0,1,0c0-0.6,0-1.3,0-1.9c0-0.8,0-0.8-0.7-0.9c-1.7-0.4-3-1.3-3.5-3
			c-0.1-0.3-0.1-0.7-0.1-1.1c0-1.3,0-2.6,0-4c0-0.5,0.2-0.9,0.6-0.9c0.4,0,0.7,0.3,0.7,0.8c0,1.2,0,2.4,0,3.7c0,1.7,0.8,2.9,2.5,3.1
			c1.2,0.2,2.4,0.1,3.6,0c1.4-0.2,2.2-1.4,2.2-2.8c0-1.3,0-2.6,0-4c0-0.2,0-0.5,0.2-0.6c0.2-0.1,0.5-0.2,0.7-0.2
			c0.3,0,0.4,0.3,0.4,0.6c0,1.2,0,2.4,0,3.7c0,0.4,0,0.8-0.1,1.2c-0.3,1.8-2,3.3-3.8,3.4C111.6,41.3,111.4,41.3,111.3,41.4z"/>
	</g>
</g>
</svg>
