<?xml version="1.0" encoding="utf-8"?>
<!-- Generator: Adobe Illustrator 24.1.1, SVG Export Plug-In . SVG Version: 6.00 Build 0)  -->
<svg version="1.1" id="Layer_1" xmlns="http://www.w3.org/2000/svg" xmlns:xlink="http://www.w3.org/1999/xlink" x="0px" y="0px"
	 width="201px" height="153.7px" viewBox="0 0 201 153.7" style="enable-background:new 0 0 201 153.7;" xml:space="preserve">
<g>
	<path d="M127.4,133.6c0-2.6,0-4.7,0-7c1.6,0,3.1,0,4.8,0c0,3.5,0.1,6.9-0.1,10.3c0,0.5-1.7,1.4-2.6,1.4c-9.9,0.1-19.8,0.1-29.7,0.1
		c-17.9,0-35.8-0.1-53.7,0c-2.7,0-3.7-0.5-3.7-3.5c0.1-29.9,0.1-59.7,0-89.6c0-1.9,0.6-3.3,2-4.6c8-7.9,15.8-15.8,23.8-23.7
		c0.9-0.9,2.5-1.7,3.8-1.7c19.1-0.1,38.2-0.1,57.4-0.1c0.8,0,1.6,0.1,2.7,0.2c0,21.3,0,42.4,0,63.7c-1.5,0-2.9,0-4.6,0
		c0-19.6,0-39.2,0-59c-18,0-35.8,0-54,0c0,8.5,0,17.1,0,25.9c-8.9,0-17.3,0-26.1,0c0,1.4,0,2.5,0,3.6c0,26.8,0,53.5,0,80.3
		c0,3.6,0,3.6,3.6,3.6c24.3,0,48.7,0,73,0C125,133.6,126,133.6,127.4,133.6z M51.6,41.3c2.9,0,5.7,0,8.5,0c2.7,0,6.5,0.8,7.7-0.6
		c1.4-1.6,0.6-5.3,0.7-8c0.1-2.8,0-5.6,0-8.4C62.8,30.1,57.3,35.6,51.6,41.3z"/>
	<path d="M154.2,74.9c1.5,1.1,2.6,1.9,4.4,3.2c-11.1,10.7-21.7,20.9-32.7,31.5c1.3,1.1,2.2,1.8,3,2.4c8.4-8.4,16.7-16.8,25.2-25.3
		c1.6,1.5,2.6,2.5,4,3.7c-6,5.9-11.7,11.6-17.5,17.3c-11.9,11.8-12.5,12.1-31.5,15.4c1.8-7,3.5-13.9,5.2-20.8
		c0.1-0.4,0.5-0.8,0.8-1.1c8.7-9,17.4-17.9,26.4-27.2c1.3,1.9,2.2,3.1,3.1,4.5c-7.9,7.8-16.3,16.2-25,24.9c1.2,1,2.1,1.8,3.2,2.8
		C133.4,95.7,143.9,85.1,154.2,74.9z M117.6,108.3c-0.6,3.1-1.1,5.6-1.7,8.5c2.9-0.8,5.3-1.4,8-2.1
		C121.7,112.6,119.8,110.6,117.6,108.3z"/>
	<path d="M89.8,63.7c6,0,11.7,0,17.3,0c1.7,6.8-2.4,15.4-9.1,19.5c-7.5,4.6-17.1,3.9-23.7-1.7c-6.6-5.6-8.9-15-5.6-22.9
		c3.5-8.4,11.4-13.2,21.1-12.5c0,2.8,0,5.7,0,8.5C89.8,57.4,89.8,60.3,89.8,63.7z M84.9,51.3c-7.1,0.5-13.2,7.7-12.9,15
		c0.3,8.3,6.8,14.8,15,15.1c7.6,0.2,14.5-5.6,15.1-12.8c-5.6,0-11.3,0-17.2,0C84.9,62.6,84.9,56.9,84.9,51.3z"/>
	<path d="M114.8,60.6c-7.2,0-14.4,0-21.9,0c0-7.4,0-14.8,0-22.2C105.1,36.3,117.2,48.5,114.8,60.6z M97.7,55.7c4.3,0,8.2,0,12.2,0
		c-0.7-6.3-6.3-11.9-12.2-12.1C97.7,47.6,97.7,51.6,97.7,55.7z"/>
	<path d="M60.2,101c0-1.6,0-3,0-4.6c13.9,0,27.6,0,41.5,0c0,1.5,0,3,0,4.6C87.9,101,74.3,101,60.2,101z"/>
	<path d="M60.3,125.1c0-1.8,0-3.2,0-4.7c13.8,0,27.5,0,41.2,0c1.1,4.3,0.8,4.7-3.5,4.7c-11.5,0-22.9,0-34.4,0
		C62.6,125.1,61.6,125.1,60.3,125.1z"/>
	<path d="M60.3,113c0-1.6,0-2.9,0-4.4c13.8,0,27.5,0,41.4,0c0,1.4,0,2.8,0,4.4C87.9,113,74.3,113,60.3,113z"/>
</g>
</svg>
