<?xml version="1.0" encoding="utf-8"?>
<!-- Generator: Adobe Illustrator 24.1.1, SVG Export Plug-In . SVG Version: 6.00 Build 0)  -->
<svg version="1.1" id="Layer_1" xmlns="http://www.w3.org/2000/svg" xmlns:xlink="http://www.w3.org/1999/xlink" x="0px" y="0px"
	 width="201px" height="153.7px" viewBox="0 0 201 153.7" style="enable-background:new 0 0 201 153.7;" xml:space="preserve">
<g>
	<path d="M129.5,83.9c0,5.6,0,11.1,0,16.6c0,9.1,0,18.2,0,27.2c0,7.6-5.7,13.4-13.3,13.4c-20.7,0-41.3,0-62,0
		c-7.5,0-13.3-5.7-13.3-13.2c0-24,0-48,0-72c0-0.9,0.5-2,1.1-2.6c7.4-7.5,15-15,22.4-22.5c0.9-0.9,1.9-1.2,3.2-1.2
		c8.3,0,16.6,0,24.9,0c0.9,0,1.5-0.2,2-1c8.2-12.5,23.1-18.5,37.9-15.1c14.2,3.2,25.3,15.2,27.4,29.7c2.8,19.1-10.2,37-29.1,40.4
		C130.3,83.7,130,83.8,129.5,83.9z M46.1,58c0,0.4-0.1,0.7-0.1,1c0,22.9,0,45.9,0,68.8c0,4.7,3.5,8.1,8.2,8.1c20.6,0,41.3,0,61.9,0
		c4.6,0,8.1-3.5,8.1-8.1c0-14.2,0-28.4,0-42.6c0-0.3-0.1-0.7-0.1-0.9c-0.2-0.1-0.3-0.1-0.3-0.1c-0.2,0-0.4,0-0.6,0
		c-7.4-0.2-14.1-2.5-20-6.8c-0.5-0.3-1.2-0.5-1.8-0.5c-8.9,0-17.9,0-26.8,0c-0.3,0-0.5,0-0.8,0c-1.7,0-2.8-1.1-2.8-2.6
		c0-1.5,1.2-2.6,2.8-2.6c7.3,0,14.5,0,21.8,0c0.4,0,0.8,0,1.5,0c-4.4-5.3-7.1-11.1-8.1-17.6c-1-6.5-0.2-12.9,2.2-19
		c-7.3,0-14.5,0-21.8,0c0,0.5,0,0.9,0,1.3c0,3.3,0,6.6,0,9.9c0,7-4.9,11.9-11.9,11.9C53.7,58,50,58,46.1,58z M154.9,48.4
		c0-16.8-13.7-30.6-30.5-30.7c-16.9,0-30.7,13.7-30.7,30.7c0,16.7,13.7,30.5,30.5,30.5C141.2,78.9,154.9,65.3,154.9,48.4z
		 M50.1,52.5c0.1,0.1,0.1,0.2,0.2,0.3c2.3,0,4.7,0,7,0c0.3,0,0.6,0,0.9,0c3-0.2,5.6-2.4,5.8-5.4c0.2-2.9,0-5.8,0-8.3
		C59.5,43.5,54.8,48,50.1,52.5z"/>
	<path d="M94.3,97.7c-6.8,0-13.6,0-20.4,0c-2.1,0-3.4-1.6-2.8-3.4c0.4-1.2,1.3-1.8,3-1.8c6.6,0,13.1,0,19.7,0c7,0,14,0,21,0
		c1.2,0,2.2,0.3,2.7,1.4c1,1.8-0.3,3.8-2.5,3.8c-4.5,0-8.9,0-13.4,0C99.1,97.7,96.7,97.7,94.3,97.7z"/>
	<path d="M94.2,118.5c-6.7,0-13.4,0-20,0c-2,0-3.2-1-3.2-2.6c0-1.6,1.2-2.6,3.1-2.6c13.5,0,27.1,0,40.6,0c1.9,0,3.1,1.1,3.1,2.6
		c0,1.6-1.2,2.6-3.1,2.6C107.8,118.5,101,118.5,94.2,118.5z"/>
	<path d="M59.1,118.5c-1.3,0-2.5,0-3.8,0c-1.6,0-2.7-1.1-2.7-2.6c0-1.4,1.1-2.6,2.7-2.6c2.6,0,5.1,0,7.7,0c1.5,0,2.6,1.2,2.6,2.6
		c0,1.4-1.1,2.5-2.6,2.6C61.7,118.5,60.4,118.5,59.1,118.5z"/>
	<path d="M59.2,71.6c1.2,0,2.4,0,3.6,0c1.6,0.1,2.7,1.1,2.7,2.6c0,1.4-1.1,2.6-2.7,2.6c-2.5,0-5,0-7.5,0c-1.6,0-2.7-1.1-2.7-2.6
		c0-1.5,1.2-2.6,2.8-2.6C56.7,71.6,58,71.6,59.2,71.6z"/>
	<path d="M59.2,92.4c1.2,0,2.4,0,3.6,0c1.6,0,2.8,1.2,2.8,2.6c0,1.4-1.2,2.5-2.7,2.6c-2.5,0-4.9,0-7.4,0c-1.6,0-2.8-1.2-2.8-2.7
		c0-1.4,1.2-2.5,2.7-2.5C56.7,92.4,57.9,92.4,59.2,92.4z"/>
	<path d="M117.1,48.5c-0.6,1.3,0.2,1.7,1.2,2.1c2.7,1.2,5.5,2.5,8.2,3.8c0.7,0.3,1.1,0.3,1.7-0.2c3.1-2.5,7.2-2.4,10.2,0
		c2.9,2.4,3.8,6.4,2.2,9.8c-1.7,3.5-5.5,5.3-9.2,4.4c-3.6-0.8-6.2-4.1-6.2-8c0-0.8-0.3-1.1-1-1.4c-3.1-1.4-6.1-2.8-9.2-4.2
		c-0.4-0.2-1.1-0.1-1.5,0.1c-3.7,2.2-8.2,1.6-10.8-1.7c-2.6-3.1-2.4-7.8,0.4-10.7c2.9-3.1,7.4-3.4,11-0.8c0.3,0.2,1,0.3,1.4,0.1
		c3-1.4,6-2.8,8.9-4.2c0.6-0.3,0.8-0.6,0.8-1.3c-0.3-4.6,3-8.4,7.5-8.8c4.4-0.3,8.3,3.1,8.7,7.6c0.4,4.3-2.9,8.2-7.4,8.6
		c-1.9,0.2-3.7-0.2-5.2-1.4c-0.8-0.6-1.4-0.5-2.2-0.1c-2.7,1.4-5.4,2.7-8.1,3.9C117.5,46.7,116.6,47.2,117.1,48.5z M108.9,51
		c1.6,0,2.9-1.2,3-2.8c0.1-1.6-1.2-2.9-2.8-3c-1.6-0.1-3,1.2-3,2.9C106.1,49.7,107.3,51,108.9,51z M133.2,32.8
		c-1.6,0-2.9,1.4-2.9,2.9c0,1.6,1.3,2.9,2.9,2.9c1.6,0,3-1.4,2.9-3C136.1,34.1,134.8,32.8,133.2,32.8z M136.2,60.4
		c0-1.6-1.4-2.9-3-2.8c-1.6,0-2.9,1.4-2.9,2.9c0,1.6,1.4,3,3,2.9C135,63.4,136.2,62,136.2,60.4z"/>
</g>
</svg>
