<?xml version="1.0" encoding="utf-8"?>
<!-- Generator: Adobe Illustrator 24.1.1, SVG Export Plug-In . SVG Version: 6.00 Build 0)  -->
<svg version="1.1" id="Layer_1" xmlns="http://www.w3.org/2000/svg" xmlns:xlink="http://www.w3.org/1999/xlink" x="0px" y="0px"
	 width="201px" height="139.7px" viewBox="0 0 201 139.7" style="enable-background:new 0 0 201 139.7;" xml:space="preserve">
<g>
	<g>
		<path d="M56,35.4v5.4c0.3,0,0.7,0,1,0.1c0.1,0.1,0.1,0.1,0.2,0.2l0.1,0.1c1.4,1.7,2.8,3.3,4.3,5.3c0.6,0.8,1.3,1.6,2,2.5l4.2,5.2
			l4.2-5.3c0.7-0.9,1.3-1.7,2-2.4c1.4-1.7,2.8-3.4,4-5.2c0.1-0.1,0.1-0.1,0.1-0.2c0,0,0,0,0,0c0.1,0,0.1,0,0.2,0
			c6.8,0.5,13.6,0.8,20.2,1.2c0.9,0.1,1.8,0.1,2.7,0.2l-13.3,0.9c-0.7,0-1.5,0.1-2.3,0.2l-1.2,0.1l-4.5,0.3l-0.5,4.5
			c-0.1,1.3-0.3,2.5-0.4,3.7c-0.3,2.7-0.6,5.3-0.9,8c-0.7,6.8-1.4,13.7-2.1,20.5c-0.9,8.5-1.8,17-2.7,25.5
			c-0.8,7.7-1.7,15.3-2.5,21.7c-1,0-1.9,0.1-3,0.1c-1.1,0-2.2,0-3.4-0.1c-0.9-7.8-1.8-15.7-2.6-23.3l-0.5-4.3
			c-0.2-2.1-0.4-4.1-0.7-6.2c-0.4-4.3-0.9-8.7-1.5-13c-0.3-2.5-1.9-5-4-6.4C54.2,74,53.3,73,53,70.4c-0.7-5.8-1.5-11.7-2.3-17.4
			c-0.2-1.7-0.5-3.3-0.7-5c-0.3-1.9,0.3-3.7,1.5-5.1c1.2-1.3,2.8-2.1,4.6-2.1L56,35.4 M56,35.4c-6.8,0-12.4,6.1-11.4,13.3
			c1,7.4,2.1,14.8,3,22.3c0.4,3.6,1.8,6.4,4.9,8.4c0.8,0.5,1.5,1.6,1.6,2.5c0.8,6.4,1.4,12.7,2.1,19.1c1,9.3,2,18.6,3.1,27.8
			c0.4,3.4,1.7,4.5,5.1,4.6c1.2,0,2.4,0.1,3.7,0.1c1.2,0,2.3,0,3.5-0.1c3.2-0.1,4.5-1.4,4.9-4.6c0.9-7.3,1.7-14.7,2.5-22
			c1.6-15.3,3.2-30.7,4.8-46c0.4-3.9,0.9-7.7,1.4-11.7c1.3-0.1,2.4-0.2,3.5-0.3c8.9-0.6,17.8-1.2,26.7-1.8c0.4,0,0.9,0,1.3-0.1
			c2.4-0.4,4.1-2,4.2-4.3c0.1-2.4-1.4-4.3-4.1-4.7c-3-0.4-6.1-0.4-9.1-0.6C98,37,88.4,36.5,78.9,35.8c-0.2,0-0.4,0-0.6,0
			c-2,0-3.4,0.8-4.6,2.5c-1.7,2.4-3.6,4.5-5.8,7.3c-2.5-3.1-4.4-5.5-6.4-7.9c-0.6-0.7-1.3-1.6-2.2-1.8C58.2,35.5,57.1,35.4,56,35.4
			L56,35.4z"/>
	</g>
	<g>
		<path d="M123.9,57.5c7.7,0,15.3,0,23,0c6,0,9.5,3.6,9.5,9.6c0,11.3,0.1,22.6,0,33.9c0,5.9-3.5,9.3-9.3,9.4c-3.3,0-6.6,0.1-9.8,0.1
			c-3.6,0-7.1,0-10.7-0.1c0,0-0.1,0-0.1,0c-1.8,0-3.2,0.5-4.5,1.9c-2.5,2.7-5.2,5.3-7.8,7.9c-0.8,0.8-1.5,2.1-2.7,2.1
			c-0.2,0-0.5,0-0.7-0.1c-2-0.7-1.1-2.6-1.2-4c-0.1-2.4,0-4.8,0-7.6c-1.9,0-3.6,0-5.3,0c-1,0-2,0-2.9,0c-5.9-0.1-9.4-3.4-9.4-9.3
			c0-11.4,0-22.8,0-34.2c0-5.8,3.5-9.4,9.3-9.4C108.8,57.5,116.4,57.5,123.9,57.5 M108.5,72.3c-0.7-0.3-1-0.4-1.2-0.6
			c-0.6-0.5-1.1-0.8-1.7-0.8c-0.5,0-1,0.2-1.4,0.8c-0.9,1.1-0.2,2,0.6,2.8c0.4,0.4,0.8,0.7,1.1,1.1c0.6,0.7,1.3,1.1,1.9,1.1
			c0.6,0,1.3-0.3,1.9-1c1.3-1.4,2.7-2.8,4.1-4.1c1-1,1.8-2.1,0.5-3.3c-0.4-0.4-0.8-0.5-1.2-0.5c-0.8,0-1.5,0.7-2.1,1.4
			C110.2,70.2,109.4,71.3,108.5,72.3 M123.3,74.2c0.2,0,0.4,0,0.6,0c0,0,0,0,0,0c1.3,0,2.6,0,3.9,0c1.4,0,2.8,0,4.3,0c0,0,0,0,0,0
			c1.8,0,3.6,0,5.4,0c1.6,0,3.1,0,4.7-0.1c0.8,0,2.1-1,2.3-1.7c0.3-1.4-0.9-1.9-2.3-1.9c0,0,0,0,0,0c-0.9,0-1.8,0-2.7,0
			c-1.6,0-3.2,0-4.8,0c-0.1,0-0.2,0-0.3,0c-2.2,0-4.5,0-6.7,0c-1.7,0-3.4,0-5.1,0c-0.1,0-0.2,0-0.2,0c-1.3,0-2.7,0.1-2.8,1.7
			c-0.1,1.7,1.3,2,2.7,2C122.6,74.2,123,74.2,123.3,74.2 M108.6,84c-1.2-0.5-1.9-1.1-2.5-1.1c0,0-0.1,0-0.1,0
			c-0.7,0.1-1.9,1.2-1.8,1.2c0.8,1.3,1.5,2.7,2.6,3.8c0.4,0.4,0.8,0.6,1.2,0.6c0.6,0,1.2-0.4,1.7-0.9c1.6-1.6,3.2-3.2,4.8-4.8
			c0.9-0.9,1.1-2.1,0-2.8c-0.2-0.1-0.5-0.2-0.9-0.2c-0.6,0-1.3,0.2-1.6,0.5C110.6,81.3,109.7,82.7,108.6,84 M138.7,82.2
			c-2,0-4,0-6,0c0,0-0.1,0-0.1,0c-2.3,0-4.7,0-7,0c-1.2,0-2.5,0-3.7,0c0,0,0,0,0,0c-1.2,0-2.2,0.4-2.3,1.7c-0.1,1.3,0.9,1.9,2.1,2
			c0.4,0,0.8,0,1.2,0c0.2,0,0.5,0,0.7,0c0,0,0,0,0,0c1.3,0,2.5,0,3.8,0c1.5,0,2.9,0,4.4,0c0,0,0,0,0,0c1.9,0,3.7,0,5.6,0
			c1.6,0,3.2,0,4.8-0.1c0.8,0,2.1-1,2.3-1.7c0.2-1.4-1-1.9-2.3-1.9c0,0,0,0,0,0C141,82.2,139.9,82.2,138.7,82.2 M108.7,96
			c-0.2-0.2-0.4-0.4-0.7-0.6c-0.6-0.3-1.3-0.8-1.9-0.8c0,0-0.1,0-0.1,0c-0.7,0.1-1.8,0.6-1.9,1.2c-0.5,1.9,1.4,2.7,2.5,3.8
			c0.4,0.4,0.8,0.6,1.3,0.6c0.5,0,1.1-0.3,1.6-0.8c1.6-1.6,3.2-3.2,4.8-4.8c0.8-0.9,1.2-1.9,0.2-2.8c-0.4-0.4-0.8-0.5-1.2-0.5
			c-0.6,0-1.1,0.3-1.6,0.9C110.6,93.4,109.7,94.7,108.7,96 M138.7,93.9c-2,0-4,0-6,0c0,0-0.1,0-0.1,0c-2.4,0-4.7,0-7.1,0
			c-1.2,0-2.4,0-3.6,0c0,0,0,0,0,0c-1.2,0-2.2,0.4-2.3,1.7c-0.1,1.3,0.9,1.9,2.1,2c0.4,0,0.8,0,1.2,0c0.2,0,0.5,0,0.7,0c0,0,0,0,0,0
			c1.3,0,2.6,0,4,0c1.5,0,3,0,4.5,0c0,0,0,0,0,0c1.9,0,3.8,0,5.7,0c1.5,0,2.9,0,4.4,0c1.2,0,2.3-0.5,2.3-1.8c0-1.5-1-1.9-2.4-1.9
			c0,0,0,0,0,0C141,93.9,139.8,93.9,138.7,93.9 M123.9,54.2c-7.7,0-15.4,0-22.7,0c-7.6,0-12.6,5-12.6,12.6c0,11.5,0,23,0,34.3
			c0,7.6,4.8,12.4,12.6,12.5c1,0,2,0,3,0c0.7,0,1.3,0,2,0c0,1.5,0,3,0.1,4.5c0,0.1,0,0.4,0,0.6c-0.1,1.2-0.5,4.9,3.4,6.3
			c0.6,0.2,1.2,0.3,1.8,0.3c2.4,0,3.8-1.7,4.6-2.5c0.1-0.2,0.3-0.3,0.4-0.4l0.5-0.5c2.5-2.4,5-4.9,7.4-7.5c0.5-0.6,1-0.8,2.1-0.8
			l0.1,0c3.5,0,7.1,0.1,10.7,0.1c3.2,0,6.5,0,9.9-0.1c7.6-0.1,12.5-5,12.5-12.6c0.1-10.9,0.1-22,0-33.9c0-7.8-5.1-12.8-12.8-12.8
			C139,54.2,131.3,54.2,123.9,54.2L123.9,54.2z"/>
	</g>
	<g>
		<path d="M67.9,11.6c4.1,0,7.5,3.5,7.6,7.6c0,2-0.8,3.9-2.2,5.4c-1.4,1.4-3.3,2.2-5.4,2.2l-0.1,0c-4.2,0-7.6-3.3-7.6-7.5
			C60.2,15.1,63.6,11.6,67.9,11.6L67.9,11.6 M67.9,6.2c0,0-0.1,0-0.1,0c-7.2,0.1-13,6-12.9,13.1c0,7.2,5.8,12.9,13,12.9
			c0,0,0.1,0,0.1,0c7.2,0,13-5.9,12.9-13.1C80.8,12,74.9,6.2,67.9,6.2L67.9,6.2z"/>
	</g>
</g>
</svg>
