<?xml version="1.0" encoding="utf-8"?>
<!-- Generator: Adobe Illustrator 24.1.1, SVG Export Plug-In . SVG Version: 6.00 Build 0)  -->
<svg version="1.1" id="Layer_1" xmlns="http://www.w3.org/2000/svg" xmlns:xlink="http://www.w3.org/1999/xlink" x="0px" y="0px"
	 width="201px" height="153.7px" viewBox="0 0 201 153.7" style="enable-background:new 0 0 201 153.7;" xml:space="preserve">
<style type="text/css">
	.st0{fill:#FFEFCC;}
</style>
<g>
	<g>
		<path d="M130.7,100.3c-8.4,8.2-18.3,11.9-30,11.3c-0.3,2.3-0.6,4.6-0.8,6.8c0,0.4,0.7,0.9,1.1,1.2c5.9,3.2,9,8.1,8.9,14.8
			c-0.2,8.1-7,14.9-15.1,15.2c-8.4,0.3-15.5-6-16.4-14.4c-0.8-8.1,5-15.6,13-17c0.6-0.1,1.2-0.2,2-0.3c0.3-2.4,0.6-4.9,1-7.4
			c-11.3-3.2-19.6-9.9-24.9-20.4c-3.2,1-6.4,1.9-9.5,3c-0.3,0.1-0.6,1-0.6,1.4c0.7,9.4-6.8,17.3-16.2,17.1
			c-7.2-0.2-13.5-5.4-15-12.4C26.7,92,30.3,84.7,37,81.5c6.6-3.1,14.4-1.3,18.9,4.5c0.8,1.1,1.5,1.3,2.7,0.9c2.8-1,5.7-1.8,8.5-2.7
			c-4-18.6,2-32.9,17.6-43.5c-0.7-1.5-1.4-3.1-2.2-4.6c-0.2-0.4-1.1-0.7-1.6-0.6c-8.1,1.2-15.7-3.8-17.7-11.8
			C60.9,15.2,66.4,6.4,75,4.5c8.7-1.9,17.4,3.9,18.9,12.7c1,5.8-0.9,10.6-5.1,14.5c-0.3,0.3-0.5,0.5-0.8,0.7c0,0,0,0.1-0.1,0.3
			c0.8,1.7,1.7,3.5,2.5,5.4c13.7-4.6,26.2-2.4,37.4,6.4c3.3-3.2,6.5-6.4,9.8-9.7c-5.4-9.4-0.8-18,4.5-21.6c6.4-4.3,14.8-3.5,20.2,2
			c5.3,5.5,5.9,13.9,1.6,20.2c-3.7,5.3-12.2,9.6-21.4,4.2c-3.2,3.3-6.4,6.5-9.6,9.7c10.9,14.8,11.6,30.1,2,46.1
			c4.1,3.4,8.3,6.8,12.1,9.9c2.8-1.1,5.3-2.4,7.9-2.9c8.4-1.6,16.6,4.3,18,12.8c1.4,8.7-4.3,16.9-12.8,18.2c-6.1,1-11.2-0.9-15-5.7
			c-3.9-4.8-4.5-10.3-2.2-16.1c0.2-0.4,0.1-1.3-0.2-1.6C138.8,106.9,134.8,103.6,130.7,100.3z M127.5,94.3
			c10.5-11.4,10.9-31.2-2.1-43.7c-12.7-12.1-33.1-11.4-45,1.7c-12.1,13.3-9.8,32.3-0.2,42.2c1.6-0.8,3.2-1.7,4.8-2.3
			c2.4-0.9,4.9-1.6,7.3-2.5c1.9-0.7,2.6-3.1,1.6-4.9c-0.8-1.7-1.5-3.5-2.2-5.2c-0.2-0.4-0.4-0.8-0.7-0.9c-2.5-1.7-3.9-5.9-2.9-8.7
			c0.2-0.7,0.2-1.5,0.2-2.2c0-2.9-0.5-5.9,0.1-8.8c1.2-6.4,6.5-10.2,13.8-10.6c3-0.1,6.2-0.3,8.5,2.4c0.3,0.3,0.8,0.4,1.3,0.5
			c3.5,1.1,5.8,3.4,6.9,7c0.9,3.1,0.7,6.3,0.2,9.4c-0.1,0.6-0.3,1.2-0.1,1.7c1.2,2.6,0.9,5.5-0.9,7.3c-2.1,2.1-2.6,4.7-3.9,7.1
			c-0.2,0.4-0.5,0.7-0.7,1.1c-1,1.8-0.3,4.1,1.6,4.9c0.5,0.2,1,0.4,1.5,0.5C120.1,91.6,123.7,92.9,127.5,94.3z M110.4,74.2
			c1-0.5,1.8-0.9,2.7-1.3c-0.4-0.6-0.7-1.2-1.2-2.1c0.1-0.3,0.4-1,0.6-1.7c0.8-2.9,1.1-5.8,0.5-8.7c-0.4-1.6-1.2-3-3-3.2
			c-1.2-0.2-2.4-0.2-2.9-1.7c-0.1-0.3-0.7-0.5-1.1-0.5c-1.4-0.1-2.8-0.3-4.2-0.1c-5.2,0.7-7.6,3.3-7.4,8.6c0.1,2.7,0.6,5.3,1,7.8
			c-0.3,0.6-0.7,1.2-1,1.8c0.9,0.4,1.8,0.7,2.8,1.2c0.1,0.6,0.1,1.5,0.3,2.4c0.5,1.6,0.7,3.7,1.8,4.6c1.4,1.1,1.3,2.3,1.3,3.6
			c0,1.1-0.1,2.1,0,3.2c0.3,3.2-1.3,5.4-4,6.7c-2.3,1.1-4.8,1.9-7.2,2.8c-1.4,0.5-2.7,1.1-4.2,1.7c11.3,8.7,27.7,7.6,37-0.1
			c-2.5-0.9-4.8-1.7-7-2.5c-1.8-0.7-3.6-1.4-5.1-2.3c-2.1-1.3-3.4-3.2-3.2-5.9c0.1-1.7,0-3.5,0-5.2c0-0.4,0.2-0.9,0.5-1.2
			c0.6-0.9,1.6-1.7,1.9-2.7C109.8,77.4,110.1,75.6,110.4,74.2z M87.9,19.9c0-5.2-4.2-9.5-9.4-9.5c-5.3,0-9.5,4.2-9.5,9.5
			c0,5.2,4.2,9.5,9.4,9.5C83.6,29.4,87.9,25.2,87.9,19.9z M160.5,26.3c0-5.2-4.2-9.5-9.4-9.5c-5.3,0-9.5,4.2-9.5,9.5
			c0,5.2,4.2,9.5,9.4,9.5C156.2,35.8,160.5,31.5,160.5,26.3z M53.2,95.9c0-5.2-4.1-9.5-9.3-9.5c-5.3-0.1-9.6,4.1-9.6,9.4
			c0,5.2,4.1,9.5,9.3,9.5C48.9,105.4,53.1,101.2,53.2,95.9z M157.3,108.5c-5.2,0-9.4,4.2-9.4,9.4c0,5.3,4.2,9.6,9.5,9.5
			c5.2,0,9.4-4.2,9.4-9.4C166.8,112.7,162.6,108.5,157.3,108.5z M94.1,124.3c-5.2,0-9.4,4.2-9.4,9.5c0,5.3,4.2,9.5,9.5,9.5
			c5.2,0,9.4-4.2,9.4-9.5C103.7,128.5,99.4,124.3,94.1,124.3z"/>
	</g>
	<circle cx="104" cy="74" r="34.1"/>
	<g>
		<g>
			<g>
				<path class="st0" d="M94.9,76.5c-0.2,0.3-0.5,0.6-0.7,1c-0.6,0.9-0.8,1.8-0.9,2.8c0,0.1-0.1,0.2-0.1,0.3
					c-0.1,0.1-0.2,0.2-0.3,0.3c-0.2,0.3-0.4,0.4-0.7,0.6c-1,0.7-1.6,1.6-2,2.7c0,0.1-0.1,0.2-0.1,0.3c0.1,0.3-0.1,0.6-0.2,0.9
					c-0.4,1.3-0.5,2.6-0.3,3.9c0.1,0.7,0.6,1.1,1.2,1.3c0.5,0.2,1,0.2,1.5,0.2c0.5,0,0.9-0.4,0.9-0.9c0-0.5-0.4-0.8-0.9-0.8
					c-0.4,0-0.8,0-1.1,0c-0.2,0-0.2-0.1-0.2-0.3c0-0.5-0.1-1,0-1.5c0.1-0.6,0.2-1.2,0.4-1.8c0-0.1,0.1-0.2,0.1-0.2
					c0.3-0.2,0.4-0.5,0.5-0.7c0.3-0.5,0.6-1,1.1-1.4c0.6-0.5,1-0.5,1.6,0c0.5,0.4,0.8,0.9,1.1,1.5c0.1,0.2,0.3,0.3,0.4,0.5
					c0,0.1,0.1,0.1,0.1,0.2c0.4,1.1,0.6,2.3,0.4,3.5c0,0.2-0.1,0.3-0.3,0.2c-0.4,0-0.8,0-1.2,0c-0.4,0-0.7,0.4-0.7,0.8
					c0,0.4,0.2,0.8,0.6,0.9c0.6,0.1,1.2,0.2,1.7-0.1c0,0,0,0,0.1,0c0.9-0.2,1.2-0.9,1.3-1.7c0.1-1.4,0-2.7-0.5-4c0-0.1,0-0.2,0-0.3
					c0-0.2,0-0.3,0-0.5c-0.5-1-1.1-2-2.1-2.6c-0.4-0.2-0.6-0.7-1-0.9c0,0,0-0.1,0-0.2c0.1-1.7,1-3,2.5-3.8c0.1-0.1,0.2,0,0.3,0.1
					c1.2,1.1,2.4,2.2,3.6,3.4c1,0.9,1.9,1.8,2.9,2.7c0.1,0.1,0.1,0.1,0.2,0.2c0.5-0.5,1-0.9,1.4-1.3c1.7-1.6,3.4-3.2,5.1-4.8
					c0.1-0.1,0.2-0.1,0.4,0c1.3,0.8,2,2,2.2,3.5c-0.1,0-0.2,0.1-0.3,0.1c-1.4,0.5-2.2,2-1.9,3.5c0.4,1.5,1.9,2.4,3.3,2.1
					c1.5-0.3,2.6-1.7,2.4-3.2c-0.2-1.2-0.9-2.1-2.1-2.5c-0.2-0.1-0.2-0.1-0.2-0.3c-0.1-1.2-0.6-2.3-1.4-3.2
					c-0.1-0.1-0.1-0.2-0.2-0.3c0.3,0.1,0.6,0.2,1,0.3c4.6,1.6,7.3,4.8,8.2,9.5c0.2,1.2,0.2,2.4,0,3.7c-0.4,2.1-1.6,3.3-3.6,3.9
					c-1.2,0.4-2.5,0.5-3.8,0.5c-1.5,0-3,0-4.4,0c-5,0-10,0-15,0c-1.5,0-3.1,0-4.6-0.3c-0.5-0.1-1-0.2-1.5-0.4
					c-1.8-0.7-2.9-2-3.2-3.9c-0.8-5,1.9-10.1,6.5-12.4C93.3,77,94.1,76.7,94.9,76.5z M107.4,89.6c0,0.6,0,1.1,0,1.6
					c0,0.3,0.1,0.4,0.4,0.4c0.5,0,0.9,0,1.4,0c0.4,0,0.5-0.1,0.5-0.5c0-0.5,0-1,0-1.5c0.6,0,1.1,0,1.6,0c0.3,0,0.4-0.1,0.4-0.4
					c0-0.4,0-0.9,0-1.3c0-0.5,0-0.5-0.5-0.5c-0.5,0-1,0-1.5,0c0-0.6,0-1.1,0-1.6c0-0.3-0.1-0.4-0.4-0.4c-0.4,0-0.9,0-1.3,0
					c-0.4,0-0.5,0.1-0.5,0.5c0,0.5,0,1,0,1.5c-0.6,0-1.1,0-1.6,0c-0.3,0-0.4,0.1-0.4,0.4c0,0.5,0,1,0,1.4c0,0.3,0.1,0.4,0.4,0.4
					C106.3,89.6,106.9,89.6,107.4,89.6z"/>
			</g>
			<g>
				<path class="st0" d="M104.1,53.7c5.7,0,10.3,4.6,10.3,10.4c0,5.7-4.6,10.3-10.4,10.3c-5.7,0-10.3-4.7-10.3-10.4
					C93.7,58.3,98.4,53.7,104.1,53.7z"/>
			</g>
			<g>
				<path class="st0" d="M113.8,84.3c-0.7,0-1.3-0.6-1.3-1.4c0-0.8,0.6-1.3,1.4-1.3c0.7,0,1.3,0.6,1.3,1.4
					C115.2,83.7,114.6,84.3,113.8,84.3z"/>
			</g>
		</g>
	</g>
</g>
</svg>
