<?xml version="1.0" encoding="utf-8"?>
<!-- Generator: Adobe Illustrator 24.1.1, SVG Export Plug-In . SVG Version: 6.00 Build 0)  -->
<svg version="1.1" id="Layer_1" xmlns="http://www.w3.org/2000/svg" xmlns:xlink="http://www.w3.org/1999/xlink" x="0px" y="0px"
	 width="113.9px" height="113.9px" viewBox="0 0 113.9 113.9" style="enable-background:new 0 0 113.9 113.9;" xml:space="preserve"
	>
<style type="text/css">
	.st0{fill:#FFFFFF;}
	.st1{fill:#0066B3;}
</style>
<g>
	<circle class="st0" cx="56.9" cy="56.9" r="55"/>
	<g>
		<g>
			<g>
				<path class="st1" d="M35,54.7c9,0,17.9,0,26.9,0l5.6,0c-0.2,0.3-0.3,0.5-0.4,0.8c-0.6-0.3-1.3-0.4-1.9-0.4
					c-1.2,0-2.3,0.5-3.2,1.3c-1.1,1.1-2.2,2.2-3.3,3.3c-1.4,1.5-1.7,3.5-0.9,5.3c-1.9,0.7-3.1,2.4-3.1,4.5c0,1.1,0,2.1,0,3.2l0,0.9
					c0,1.1,0.2,2,0.7,2.7H27l0.3-0.9l1.6-4.3C30.9,65.7,33,60.2,35,54.7 M34.7,53c-0.7,0-0.9,0.2-1.2,0.8c-2.6,7-5.2,14.1-7.8,21.1
					c-0.4,1-0.8,2-1.2,3.1c11.9,0,23.8,0,35.7,0c-0.2-0.8-0.2-0.8-1.1-1c-1.9-0.3-2.9-1.5-2.9-3.4c0-1.3,0-2.7,0-4
					c0-1.8,1.3-3.1,3.2-3.2c0.2,0,0.6-0.2,0.6-0.3c0.1-0.2,0-0.5-0.2-0.7c-1.2-1.3-1.3-3.2,0-4.5c1.1-1.1,2.1-2.2,3.3-3.3
					c0.6-0.6,1.3-0.8,2-0.8c0.7,0,1.5,0.3,2.1,0.9c0.2,0.2,0.3,0.4,0.6,0.4c0.1,0,0.2,0,0.3-0.1c0.4-0.2,0.3-0.4,0.4-0.7
					c0.1-1.8,1.4-3.1,3.2-3.1c0.7,0,1.4,0,2.1,0c0.8,0,1.7,0,2.5,0c1.8,0,3.2,1.3,3.2,3.1c0,0.6,0.3,0.8,0.9,0.9
					c0.4-1.1,0.8-2.2,1.2-3.3c0.5-1.3,0.1-1.8-1.2-1.8c0,0,0,0,0,0c-6.1,0-12.2,0-18.4,0C52.8,53,43.8,53,34.7,53
					C34.7,53,34.7,53,34.7,53L34.7,53z"/>
			</g>
			<g>
				<path class="st1" d="M47.2,28.1l16.4,0c0,5.4,0,10.8,0,16.3l0,4.5l-7.2,0l-22.5,0c-2.1,0-3.1,0.7-3.8,2.7
					c-0.1,0.2-0.1,0.3-0.2,0.5l0-3l0-21L47.2,28.1 M52.6,29.2l-3,0l-2.9,0l-3.3,0l-3.3,0l-5.3,0c-2.2,0-3.3,1.4-3.3,2.8
					c0,0.7,0.3,1.4,0.7,1.9c0.6,0.6,1.4,0.9,2.5,0.9l8.4,0l3.9,0l3.9,0l2.2,0l2.2,0c1.2,0,2.4,0,3.6,0c1.1,0,2-0.5,2.5-1.3
					c0.5-0.8,0.6-1.8,0.2-2.6c-0.3-0.8-1.1-1.7-2.8-1.7C56.8,29.2,54.7,29.2,52.6,29.2 M34.5,41.6l0.2,0l0.1,0l2.5,0l9.4,0l0.7,0
					l0.7,0l0.9,0l2.6,0l3.7,0l3.7,0c1.3,0,2.3-0.7,2.7-1.8c0.5-1.2,0.1-2.5-1-3.2c-0.5-0.4-1.2-0.6-1.9-0.6c-4.9,0-9.8,0-14.7,0
					l-2.9,0l-2.9,0l-0.6,0l-1,0l-1.1,0c-0.5,0-0.9,0-1.4,0c-0.8,0-1.5,0.3-2.1,0.9c-0.5,0.5-0.8,1.2-0.8,2c0,1.5,1.2,2.7,2.8,2.7
					C34.3,41.6,34.4,41.6,34.5,41.6 M46.5,48.2c4,0,8.1,0,12.1,0c0.4,0,0.9,0,1.3-0.2c1.3-0.4,2-1.5,2-2.8c-0.1-1.4-1-2.4-2.3-2.6
					c-0.3,0-0.5-0.1-0.7-0.1l-0.1,0l-0.1,0l-7.5,0l-2.2,0l-2.2,0l-2.2,0l-2.2,0l-7.6,0l-0.1,0l-0.1,0c-0.2,0-0.5,0-0.8,0.1
					c-1.3,0.2-2.2,1.2-2.3,2.6c-0.1,1.3,0.7,2.5,2,2.9c0.5,0.1,0.9,0.1,1.3,0.1C38.7,48.2,42.6,48.2,46.5,48.2 M47.2,26.4
					c-5.8,0-11.7,0-17.5,0c-1.2,0-1.4,0.2-1.4,1.4c0,8.2,0,16.5,0,24.7c0,2.9,0,5.8,0,8.7c0.1,0,0.1,0,0.2,0c1.1-3,2.2-6,3.3-9
					c0.5-1.3,0.9-1.6,2.3-1.6c10.1,0,20.1,0,30.2,0c0.2,0,0.4,0,0.7,0c0.2,0,0.3,0,0.5,0c0-0.3,0-0.5,0-0.7c0-7.3,0-14.6,0-22
					c0-1.2-0.3-1.4-1.4-1.4C58.3,26.4,52.7,26.4,47.2,26.4L47.2,26.4z M52.6,30.9c2.1,0,4.2,0,6.2,0c0,0,0,0,0,0
					c0.6,0,1,0.1,1.3,0.7c0.4,0.8-0.2,1.6-1.2,1.6c-1.2,0-2.4,0-3.6,0c-1.5,0-3,0-4.5,0c-2.6,0-5.1,0-7.7,0c-2.8,0-5.6,0-8.4,0
					c-1,0-1.6-0.4-1.6-1.1c0-0.7,0.6-1.2,1.6-1.2c1.8,0,3.6,0,5.3,0c2.2,0,4.4,0,6.7,0C48.7,30.9,50.7,30.9,52.6,30.9L52.6,30.9z
					 M34.5,39.9c-0.1,0-0.1,0-0.2,0c-0.7,0-1.2-0.5-1.2-1.1c0-0.6,0.5-1.1,1.2-1.2c0.5,0,0.9,0,1.4,0c0.7,0,1.4,0,2.1,0
					c0.2,0,0.4,0,0.6,0c1.9,0,3.9,0,5.8,0c4.9,0,9.8,0,14.6,0c0.3,0,0.7,0.1,1,0.3c0.4,0.3,0.5,0.8,0.3,1.2
					c-0.2,0.5-0.6,0.7-1.1,0.7c0,0,0,0,0,0c-1.2,0-2.5,0-3.7,0c-2.1,0-4.2,0-6.3,0c-0.3,0-0.6,0-0.9,0c-0.5,0-1,0-1.4,0
					c-3.1,0-6.3,0-9.4,0c-0.8,0-1.7,0-2.5,0C34.7,39.9,34.6,39.9,34.5,39.9L34.5,39.9z M46.5,46.5c-3.9,0-7.8,0-11.8,0
					c-0.3,0-0.6,0-0.8-0.1c-0.5-0.1-0.8-0.5-0.8-1.1c0.1-0.5,0.3-1,0.9-1.1c0.1,0,0.3,0,0.5,0c0.1,0,0.2,0,0.3,0c0,0,0,0,0,0
					c2.5,0,5,0,7.6,0c1.5,0,2.9,0,4.4,0c1.4,0,2.9,0,4.3,0c2.5,0,5,0,7.5,0c0,0,0,0,0,0c0.1,0,0.2,0,0.3,0c0.2,0,0.3,0,0.5,0
					c0.6,0.1,0.9,0.5,0.9,1c0,0.5-0.2,0.9-0.8,1.1c-0.3,0.1-0.6,0.1-0.8,0.1C54.6,46.5,50.6,46.5,46.5,46.5L46.5,46.5z"/>
			</g>
			<g>
				<path class="st1" d="M74,57.6c0.6,0,1.1,0,1.7,0c0,0.3,0,0.5,0,0.8l0,0.6v1.1l1,0.4l0.7,0.3c0.7,0.3,1.4,0.6,2.1,0.9
					c0.2,0.1,0.5,0.1,0.8,0.1c0.5,0,1-0.2,1.4-0.5c0.3-0.2,0.6-0.5,0.9-0.8c0,0,0.1-0.1,0.1-0.1c0.8,0.7,1.5,1.5,2.3,2.3
					c0,0,0,0,0,0c-0.5,0.4-1.1,1-1.2,1.9c-0.2,0.9,0.2,1.6,0.5,2c0.1,0.1,0.1,0.2,0.2,0.3c0.2,1.1,1,2.9,3.6,2.9c0,0,0.1,0,0.1,0
					l0,1.1c0,0.7,0,1.4,0,2.1c-2.8,0-3.6,2-3.8,3.2c0,0.1-0.1,0.3-0.2,0.4c-0.1,0.2-0.2,0.4-0.3,0.6l-0.5,1l0.7,0.9l0.4,0.5
					c0.2,0.2,0.4,0.5,0.6,0.7c-0.8,0.8-1.5,1.6-2.3,2.3c-0.2-0.2-0.5-0.4-0.7-0.6l-0.5-0.4L81,81.1l-1,0.4l-0.7,0.3
					c-0.8,0.3-1.5,0.6-2.2,0.9c-0.8,0.3-1.2,1.1-1.3,1.8c0,0.4-0.1,0.8-0.1,1.2c0,0,0,0.1,0,0.1c-0.5,0-1.1,0-1.6,0
					c-0.5,0-1,0-1.5,0c0-0.3,0-0.7,0-1c0-1.1-0.6-1.9-1.6-2.2c-0.6-0.2-1.2-0.5-2.1-0.9c-0.4-0.2-0.7-0.3-1.1-0.3
					c-0.4,0-1,0.1-1.6,0.7c-0.2,0.2-0.5,0.5-0.8,0.7c-0.8-0.7-1.5-1.5-2.3-2.3c0.2-0.2,0.4-0.4,0.6-0.7l0.4-0.5l0.7-0.8l-0.4-1
					l-1.1-2.5L63,74.5l-0.4-0.9l-1-0.1l-0.6,0c-0.3,0-0.6,0-0.9-0.1c0-1.1,0-2.3,0-3.3c0,0,0.1,0,0.1,0l0.4,0c0.2,0,0.5,0,0.7,0
					l0.3,0l1-0.1l0.4-0.9l0.3-0.7c0.3-0.7,0.6-1.4,0.9-2.1c0.3-0.8,0-1.7-0.4-2.2c-0.2-0.3-0.5-0.6-0.7-0.8c0,0-0.1-0.1-0.1-0.1
					c0.8-0.8,1.5-1.6,2.3-2.3c0.2,0.2,0.4,0.4,0.5,0.6l0.3,0.4l0.8,0.8l1.1-0.4l0.8-0.3c0.8-0.3,1.5-0.6,2.2-0.9
					c0.8-0.3,1.2-1.2,1.3-1.8c0-0.4,0.1-0.8,0.1-1.2c0,0,0-0.1,0-0.1C72.9,57.6,73.5,57.6,74,57.6 M74,80.1l0.1,0
					c4.6-0.1,8.3-3.9,8.3-8.5c-0.1-4.6-3.8-8.4-8.4-8.4l-0.1,0c-4.7,0.1-8.4,3.9-8.4,8.5C65.6,76.3,69.4,80.1,74,80.1 M74,55.9
					c-0.7,0-1.5,0-2.2,0c-0.7,0-1,0.4-1.1,1.1c0,0.6,0,1.1-0.1,1.7c0,0.2-0.2,0.4-0.3,0.5c-0.9,0.4-1.9,0.8-2.9,1.2
					c-0.4-0.4-0.8-0.9-1.2-1.3c-0.3-0.3-0.6-0.4-0.9-0.4c-0.3,0-0.5,0.1-0.8,0.4c-1,1-2,2-3,3c-0.5,0.5-0.5,1,0,1.5
					c0.4,0.5,0.8,0.9,1.2,1.3c0.1,0.1,0.2,0.4,0.1,0.6c-0.4,0.9-0.8,1.8-1.2,2.8c-0.3,0-0.6,0-1,0.1c-0.3,0-0.7,0-1,0.1
					c-0.7,0.1-1.1,0.4-1.1,1.1c0,1.5,0,2.9,0,4.4c0,0.7,0.3,1,1,1.1c0.7,0.1,1.4,0.1,2,0.1c0.5,1.1,0.9,2.1,1.3,3.1
					c-0.4,0.5-0.9,1-1.3,1.5c-0.4,0.5-0.4,1,0,1.5c1,1.1,2.1,2.1,3.1,3.1c0.2,0.2,0.5,0.4,0.7,0.4c0.2,0,0.5-0.1,0.7-0.3
					c0.4-0.4,0.9-0.7,1.3-1.1c0.1-0.1,0.3-0.2,0.4-0.2c0.1,0,0.2,0,0.4,0.1c0.7,0.4,1.5,0.7,2.2,1c0.4,0.1,0.5,0.3,0.5,0.7
					c0,0.5,0,1.1,0.1,1.6c0.1,0.7,0.5,1.1,1.1,1.1c0.7,0,1.4,0,2.1,0c0.7,0,1.5,0,2.2,0c0.6,0,1-0.4,1.1-1c0-0.6,0.1-1.2,0.1-1.8
					c0-0.2,0.1-0.4,0.3-0.4c0.9-0.4,1.9-0.8,2.9-1.2c0.5,0.4,1,0.9,1.5,1.3c0.3,0.2,0.5,0.3,0.7,0.3c0.2,0,0.5-0.1,0.7-0.4
					c1-1,2.1-2,3.1-3.1c0.5-0.5,0.5-0.9,0-1.5c-0.5-0.5-0.9-1.1-1.4-1.6c0.3-0.5,0.6-0.9,0.7-1.4c0.2-1.4,1-1.8,2.2-1.8
					c0.1,0,0.2,0,0.3,0c0,0,0.1,0,0.1,0c0.8,0,1.1-0.5,1.1-1.4c0-1.2,0-2.4,0-3.6c0-1.2-0.3-1.6-1.4-1.6c0,0-0.1,0-0.2,0
					c-0.1,0-0.1,0-0.2,0c-1.1,0-1.8-0.3-2-1.6c-0.1-0.6-0.7-1.2-0.6-1.7c0.1-0.5,0.8-1,1.2-1.5c0.5-0.6,0.5-1.1,0-1.6c-1-1-2-2-3-3
					c-0.3-0.2-0.5-0.4-0.7-0.4c-0.2,0-0.5,0.1-0.7,0.3c-0.5,0.4-0.9,0.8-1.4,1.2c-0.1,0.1-0.2,0.1-0.4,0.1c-0.1,0-0.1,0-0.2,0
					c-0.9-0.4-1.8-0.8-2.8-1.2c0-0.6,0-1.3,0-1.9c0-0.7-0.4-1.1-1.1-1.1C75.5,56,74.8,55.9,74,55.9L74,55.9z M74,78.4
					c-3.7,0-6.8-3-6.8-6.7c0-3.7,3-6.8,6.7-6.8c0,0,0.1,0,0.1,0c3.6,0,6.7,3,6.7,6.7C80.8,75.3,77.8,78.3,74,78.4
					C74.1,78.4,74.1,78.4,74,78.4L74,78.4z"/>
			</g>
			<g>
				<path class="st1" d="M25.2,40.2c-0.8,0-1.2,0.5-1.2,1.6c0,10.1,0,20.1,0,30.2c0,0.2,0,0.4,0,0.5c0.7-1.6,1.3-3.1,1.9-4.7
					c0.1-0.2,0-0.4,0-0.6c0-8.7,0-17.4,0-26.1c0-0.3,0-0.6,0-0.8C25.7,40.2,25.5,40.2,25.2,40.2L25.2,40.2z"/>
			</g>
			<g>
				<path class="st1" d="M69.9,41.9L69.9,41.9c0.3,0,0.6,0,0.9,0c0,1.4,0,2.8,0,4.3l0,1.8v0.8h-1.5v-6.9
					C69.5,41.9,69.7,41.9,69.9,41.9 M69.9,40.2c-0.8,0-1.5,0-2.3,0c0,3.5,0,6.9,0,10.3c1.6,0,3.2,0,4.9,0c0-0.9,0-1.7,0-2.5
					c0-2.2,0-4.4,0-6.5c0-0.8-0.3-1.2-0.9-1.2C71,40.2,70.5,40.2,69.9,40.2L69.9,40.2z"/>
			</g>
		</g>
	</g>
</g>
</svg>
