<?xml version="1.0" encoding="utf-8"?>
<!-- Generator: Adobe Illustrator 24.1.1, SVG Export Plug-In . SVG Version: 6.00 Build 0)  -->
<svg version="1.1" id="Layer_1" xmlns="http://www.w3.org/2000/svg" xmlns:xlink="http://www.w3.org/1999/xlink" x="0px" y="0px"
	 width="113.9px" height="113.9px" viewBox="0 0 113.9 113.9" style="enable-background:new 0 0 113.9 113.9;" xml:space="preserve"
	>
<style type="text/css">
	.st0{fill:#FFFFFF;}
	.st1{fill:#0066B3;}
</style>
<circle class="st0" cx="56.9" cy="56.9" r="55"/>
<g>
	<g>
		<path class="st1" d="M37.1,34.2c0.4,1,0.7,2,1.1,3.1c-0.3,0-0.5,0-0.7,0c-2.5,0-5,0-7.5,0c-1.2,0-1.7,0.5-1.7,1.7
			c0,9.2,0,18.4,0,27.6c0,0.2,0,0.4,0,0.6c0.5,0,0.9,0,1.4,0c0-0.4,0-0.7,0-1.1c0-2.1,1.2-3.7,3.3-4.3c1.2-0.4,2.4-0.7,3.6-1
			c0.7-0.2,0.9-0.9,0.5-1.5c-0.4-0.7-0.8-1.5-1.3-2.2c-0.1-0.2-0.2-0.4-0.4-0.5c-0.6-0.4-0.9-0.9-1-1.5c-0.1-0.7-0.4-1.5-0.2-2
			c0.5-1.1,0.2-2.3,0.5-3.3c0.3-1,0.6-2.1,1.2-3c1.8-2.5,6.4-3.6,9-1.2c1.7,1.5,2.8,3.5,2.4,6c0,0.2,0,0.4,0.1,0.6
			c0.8,1.4,0.3,3.5-0.9,4.5c-0.1,0.1-0.2,0.3-0.3,0.5c-0.4,0.7-0.7,1.4-1.1,2c-0.5,0.7-0.3,1.4,0.5,1.7c1.2,0.3,2.4,0.7,3.6,1
			c2.1,0.6,3.2,2.2,3.3,4.4c0,0.3,0,0.6,0,0.9c2.9,0,5.7,0,8.6,0c0-0.5,0-1.1,0.1-1.6c0.2-1.8,1.4-3.2,3.1-3.7
			c1.2-0.4,2.5-0.7,3.7-1.1c0.7-0.2,0.9-0.9,0.5-1.5c-0.5-0.7-0.8-1.5-1.2-2.2c-0.1-0.2-0.2-0.3-0.3-0.4c-0.6-0.3-0.9-0.8-1-1.5
			c-0.2-1.1-0.6-2.2,0.3-3.2c0.1-0.1,0-0.3,0-0.4c-0.3-1.9,0.2-3.8,1.5-5.2c2-2.1,6-3.2,8.7-0.8c1.7,1.5,2.8,3.5,2.4,6
			c0,0.2,0,0.4,0.1,0.6c0.5,0.6,0.5,1.3,0.3,2.1c-0.1,0.5-0.2,1.1-0.3,1.6c0,0.1-0.1,0.2-0.2,0.3c-1.3,0.7-1.2,2.4-2.3,3.3
			c-0.5,0.4-0.1,1.2,0.5,1.4c1.2,0.3,2.4,0.7,3.6,1c2.2,0.6,3.3,2.2,3.4,4.5c0,0.3,0,0.6,0,0.9c0.5,0,1,0,1.5,0c0-0.2,0-0.4,0-0.7
			c0-9.1,0-18.2,0-27.3c0-1.6-0.4-1.9-2-1.9c-2.6,0-5.3,0-8,0c0.4-1.1,0.8-2.1,1.2-3.1c2.6,0,5.3-0.1,7.9,0c2.5,0.1,4.1,2.2,4.1,4.7
			c0,10.9,0,21.7,0,32.6c0,1.5,0,3,0,4.6c0,2.7-2,4.7-4.7,4.7c-18,0-36,0-54,0c-2.8,0-4.8-1.9-4.8-4.8c0-12.4,0-24.7,0-37.1
			c0-2.9,1.9-4.8,4.8-4.8c2.3,0,4.7,0,7,0C37,34.2,37.1,34.2,37.1,34.2z M28.3,69.6c0,2,0,4,0,6c0,1.7,0.4,2.1,2.1,2.1
			c7.1,0,14.2,0,21.4,0c10.7,0,21.3,0,32,0c1.3,0,1.8-0.5,1.8-1.8c0-1.2,0-2.4,0-3.7c0-0.9,0-1.7,0-2.6
			C66.5,69.6,47.4,69.6,28.3,69.6z M41.4,58.9c0.1,0,0.5-0.1,0.8-0.2c1.2-0.5,2-1.2,2.2-2.6c0.1-0.6,0.3-1.2,1-1.5
			c0.2-0.1,0.3-0.9,0.2-0.9c-0.7-0.4-0.7-1.2-0.9-1.8c-0.3-0.6-0.6-1.1-1.4-1c-1,0.1-1.9-0.3-2.8-0.8c-0.2-0.1-0.4-0.3-0.5-0.2
			c-0.9,0.4-2.1,0.4-2.3,1.7c0,0.3-0.1,0.6-0.3,0.9c-0.1,0.4-0.3,0.7-0.5,1c-0.4,0.4-0.2,1,0,1.1c1,0.3,1,1.2,1.2,2
			C38.5,57.9,39.8,58.9,41.4,58.9z M72.6,58.9c1.3,0,2.7-1,3.1-2.3c0.2-0.8,0.2-1.7,1.2-2c0.1,0,0.3-0.8,0.2-0.9
			c-0.7-0.4-0.7-1.1-0.9-1.8c-0.2-0.7-0.6-1.1-1.5-1c-1,0.1-1.9-0.3-2.8-0.8c-0.2-0.1-0.4-0.3-0.5-0.2c-0.9,0.4-2.1,0.4-2.2,1.7
			c-0.1,0.3-0.1,0.7-0.3,1c-0.1,0.3-0.2,0.6-0.4,0.8c-0.4,0.5-0.4,0.9,0.2,1.3c0.3,0.2,0.5,0.5,0.7,0.8c0.2,0.3,0.2,0.7,0.3,1.1
			C69.9,57.9,71.3,58.9,72.6,58.9z M63.5,67.3c6.1,0,12.1,0,18.2,0c0.3-2-0.2-2.8-2-3.3c-0.7-0.2-1.4-0.4-2.2-0.6
			c-0.2,0-0.6,0-0.7,0.2c-2.5,2.6-5.9,2.6-8.3,0c-0.1-0.2-0.5-0.2-0.7-0.2c-0.7,0.1-1.4,0.4-2.1,0.6C63.8,64.5,63.3,65.3,63.5,67.3z
			 M70.6,62.5c1.3,1,2.9,1,4,0c-0.2-0.5-0.4-1-0.5-1.4c-1,0-2,0-3,0C71,61.5,70.8,62,70.6,62.5z M42.6,61.1c-1,0-2,0-3,0
			c-0.2,0.5-0.4,0.9-0.5,1.4c1.3,1,2.9,1,4,0C43,62,42.8,61.5,42.6,61.1z M39.4,47.2c0.4,0.1,0.9,0.2,1.3,0.4
			c0.4,0.2,0.7,0.5,1.1,0.7c0.8,0.5,1.7,0.5,2.6,0.3C43.1,46.5,40.9,46,39.4,47.2z"/>
		<path class="st1" d="M65.7,41c0,1.3,0,2.5,0,3.8c0,0.7-0.1,1.2-0.9,1.4c-0.7,0.2-1.1-0.3-1.4-0.8c-0.8-1.4-1.6-2.7-2.4-4.1
			c-0.2-0.4-0.4-0.5-0.8-0.5c-1.8,0-3.6,0-5.3,0c-0.3,0-0.7,0.2-0.9,0.4c-1.2,1.4-2.3,2.8-3.4,4.2c-0.4,0.5-0.8,1-1.5,0.7
			c-0.7-0.3-0.8-0.9-0.8-1.5c0-1.2,0-2.5,0-3.8c-0.8,0-1.5,0-2.3-0.1c-6.7-1.1-9.7-9.2-5.4-14.4c1.7-2.1,3.9-3.2,6.7-3.2
			c6.5,0,12.9,0,19.4,0c4.4,0,8.1,3.3,8.6,7.6c0.6,4.6-2.2,8.8-6.5,9.8C67.7,40.9,66.7,40.9,65.7,41z M63.3,40.8c0,0,0.1,0,0.1-0.1
			c0-0.1,0-0.2,0-0.3c0-1.4,0.3-1.7,1.8-1.7c0.9,0,1.8,0.1,2.7-0.1c3.3-0.6,5.5-3.7,5.2-7c-0.3-3.6-3-6.1-6.4-6.1
			c-6.5,0-12.9,0-19.4,0c-3.2,0-6,2.5-6.3,5.7c-0.4,3.6,1.7,6.7,4.9,7.4c1.1,0.2,2.2,0.1,3.3,0.2c1,0,1.4,0.4,1.4,1.4
			c0,0.6,0,1.2,0,2c0.8-1,1.5-1.9,2.3-2.7c0.3-0.3,0.8-0.6,1.2-0.6c2.4-0.1,4.9,0,7.3,0c0.6,0,1,0.2,1.2,0.8
			C62.7,39.9,63,40.4,63.3,40.8z"/>
		<path class="st1" d="M52.6,82.4c-0.5,1.8-1,3.4-1.4,5.1c4.5,0,9,0,13.5,0c-0.5-1.7-0.9-3.3-1.4-5.1c1,0,2,0,3,0
			c0.1,0,0.3,0.2,0.4,0.4c0.6,1.9,1.1,3.9,1.7,5.9c0.3,1.1-0.5,2-1.7,2c-2.9,0-5.8,0-8.6,0c-2.9,0-5.7,0-8.6,0
			c-1.6,0-2.2-0.9-1.8-2.4c0.5-1.8,1-3.5,1.5-5.3c0.1-0.4,0.3-0.6,0.7-0.6C50.8,82.4,51.7,82.4,52.6,82.4z"/>
		<path class="st1" d="M59.1,73.8c0,1.2-0.9,2.2-2.1,2.2c-1.1,0-2.1-0.9-2.1-2.1c0-1.2,0.9-2.2,2.1-2.2C58.1,71.7,59,72.7,59.1,73.8
			z"/>
		<path class="st1" d="M51,34c-1,0-1.9-0.9-1.9-1.9c0-1.1,0.9-2,2-2c1,0,1.9,0.9,1.9,2C53,33.1,52.1,34,51,34z"/>
		<path class="st1" d="M62.8,30.1c1.1,0,2,0.9,2,1.9c0,1-0.9,1.9-1.9,1.9c-1,0-1.9-0.9-1.9-1.9C60.9,31,61.8,30.1,62.8,30.1z"/>
		<path class="st1" d="M56.9,34c-1,0-1.9-0.9-1.9-1.9c0-1.1,0.9-2,2-1.9c1,0,1.9,0.9,1.9,2C58.9,33.1,58,34,56.9,34z"/>
	</g>
</g>
</svg>
