<?xml version="1.0" encoding="utf-8"?>
<!-- Generator: Adobe Illustrator 24.1.1, SVG Export Plug-In . SVG Version: 6.00 Build 0)  -->
<svg version="1.1" id="Layer_1" xmlns="http://www.w3.org/2000/svg" xmlns:xlink="http://www.w3.org/1999/xlink" x="0px" y="0px"
	 width="112.9px" height="112.9px" viewBox="0 0 112.9 112.9" style="enable-background:new 0 0 112.9 112.9;" xml:space="preserve"
	>
<style type="text/css">
	.st0{fill:#FFFFFF;}
	.st1{fill:#1067B2;}
	.st2{fill:#F3F3F3;}
</style>
<g>
	<circle class="st0" cx="56.5" cy="56.5" r="55"/>
	<g>
		<g>
			<path class="st1" d="M70.4,63.7V49.1H28v-4.2h33V30.3H28V25h-3.3v62.9H28v-5.4h23.7V67.9H28v-4.2H70.4z M28.1,52.6H67v7.7H28.1
				V52.6z M28.1,33.8h29.6v7.5H28.1V33.8z M28.1,71.5h20.2V79H28.1V71.5z"/>
		</g>
		<g>
			<path class="st2" d="M85.3,56.8c-0.3,0-0.6,0-0.9,0.1c-1.2,0.4-1.9,1.2-1.9,2.5c-0.1,1.3,0.5,2.2,1.7,2.7c1.3,0.5,2.4,0.2,3.3-1
				c0.1-0.2,0.3-0.3,0.4-0.5l0.1-0.1v-1.7l-0.1-0.2c-0.1-0.2-0.2-0.4-0.3-0.5C86.9,57.2,86.1,56.8,85.3,56.8z"/>
			<path class="st1" d="M88.3,60.6c-0.2,0.2-0.4,0.5-0.6,0.7c-1,1.3-2.3,1.6-3.7,1.1c-1.3-0.5-2-1.6-1.9-3c0.1-1.5,0.9-2.4,2.2-2.8
				c1.4-0.4,2.6,0.1,3.5,1.3c0.2,0.3,0.3,0.5,0.5,0.8C88.3,59.3,88.3,60,88.3,60.6z"/>
			<path class="st1" d="M65.8,69.2c-0.3,0.1-0.6,0.1-0.8,0.1c-0.6,0.1-1.4,0.2-1.6,0.5c-1.6,2.9-3.1,5.9-4.5,8.8
				c-0.4,0.9-0.8,1.7-1.3,2.6c1.7,0.4,2.6-0.2,3.3-2c0.4-1.2,1-2.3,1.6-3.4c0.3-0.5,0.5-1,0.8-1.5c0.6-1.2,1.2-2.5,1.8-3.7
				L65.8,69.2z"/>
			<path class="st1" d="M81.3,52.4c-0.9,1.8-1.8,3.6-2.7,5.3l-2.2,4.5c2.1,0.4,2.1,0.3,3-1.5l5-10C82.3,50.4,82.3,50.5,81.3,52.4z"
				/>
			<path class="st2" d="M66.4,75.6C66.3,75.6,66.3,75.6,66.4,75.6c-1.6,0.1-2.8,1.3-2.8,2.8c0,0.7,0.3,1.4,0.9,2
				c0.6,0.5,1.3,0.8,2,0.8c1.4-0.1,2.7-1.4,2.7-2.8c0-0.7-0.3-1.4-0.9-2C67.7,75.9,67.1,75.6,66.4,75.6z"/>
			<path class="st1" d="M66.5,81.5c-1.7,0.1-3.2-1.4-3.2-3.1c0-1.7,1.4-3.1,3-3.2c1.7-0.1,3.2,1.4,3.2,3.1
				C69.5,80,68.1,81.4,66.5,81.5z"/>
			<path class="st1" d="M71.9,33.6l-0.9,1.8c-0.9,1.7-1.7,3.4-2.6,5.1c-0.4,0.8-0.8,1.6-1.2,2.4l-0.3,0.6c2.2,0.2,2.2,0,3.3-2
				l4.8-9.6C73,31.5,72.9,31.6,71.9,33.6z"/>
			<path class="st1" d="M66.4,37.2C66.4,37.2,66.4,37.2,66.4,37.2c1.5,0,2.7-1.2,2.8-2.7c0.1-1.4-1.2-2.8-2.6-2.9
				c-0.1,0-0.1,0-0.2,0c-0.6,0-1.3,0.3-1.8,0.7c-0.6,0.5-0.9,1.2-1,2c0,0.7,0.3,1.4,0.8,2C64.9,36.9,65.6,37.2,66.4,37.2z"/>
			<path class="st1" d="M75.8,43.5C75.8,43.5,75.8,43.5,75.8,43.5c0.8,0,1.5-0.3,2-0.8c0.5-0.5,0.8-1.2,0.8-2c0-1.5-1.2-2.7-2.8-2.7
				c0,0,0,0,0,0c-1.5,0-2.7,1.2-2.8,2.6c0,0.7,0.3,1.4,0.8,2C74.3,43.2,75,43.5,75.8,43.5z"/>
			<path class="st1" d="M78.6,53.2c0-0.7-0.3-1.4-0.8-1.9c-0.5-0.5-1.2-0.8-1.9-0.8c0,0-0.1,0-0.1,0c-1.5,0.1-2.7,1.3-2.6,2.8
				c0,0.7,0.3,1.4,0.9,1.9c0.5,0.5,1.3,0.8,2,0.8C77.4,56,78.6,54.7,78.6,53.2z"/>
			<path class="st1" d="M59.7,72c0-0.7-0.3-1.4-0.9-1.9c-0.5-0.5-1.2-0.7-1.9-0.7c0,0-0.1,0-0.1,0c-1.5,0.1-2.6,1.3-2.6,2.8
				c0,0.7,0.3,1.4,0.8,1.9c0.5,0.5,1.3,0.8,2,0.7C58.6,74.8,59.7,73.5,59.7,72z"/>
		</g>
	</g>
</g>
</svg>
