<?xml version="1.0" encoding="utf-8"?>
<!-- Generator: Adobe Illustrator 24.1.1, SVG Export Plug-In . SVG Version: 6.00 Build 0)  -->
<svg version="1.1" id="Layer_1" xmlns="http://www.w3.org/2000/svg" xmlns:xlink="http://www.w3.org/1999/xlink" x="0px" y="0px"
	 width="112.9px" height="112.9px" viewBox="0 0 112.9 112.9" style="enable-background:new 0 0 112.9 112.9;" xml:space="preserve"
	>
<style type="text/css">
	.st0{fill:#FFFFFF;}
	.st1{fill:#1067B2;}
</style>
<g>
	<circle class="st0" cx="56.5" cy="56.5" r="55"/>
	<g>
		<g>
			<path class="st1" d="M88.8,25.8l-7.6,0c-18.7,0-38,0-57,0c-0.3,0-0.7,0-1.2,0c-0.6,0-1.1,0.5-1.1,1.1v39.9c0,0.6,0.5,1.1,1.1,1.1
				c0.4,0,0.9,0,1.1,0c19,0.1,38.4,0.1,57.1,0.1l7.7,0c2.1,0,2.3-0.2,2.3-2.4c0-12.6,0-25.1,0-37.7C91.1,25.8,91,25.8,88.8,25.8z
				 M87.9,64.9H25.1V29h62.8V64.9z"/>
		</g>
		<path class="st1" d="M40.4,56.9c-5.5-0.1-9.7-4.5-9.6-10c0.1-5.4,4.5-9.7,9.8-9.6c5.4,0.1,9.8,4.6,9.7,9.9
			C50.3,52.6,45.8,57,40.4,56.9z M49.5,47.9c-2.8,0-5.4,0-8.1,0c0,2.7,0,5.4,0,8.1C45.6,55.9,49.2,52.3,49.5,47.9z"/>
		<g>
			<path class="st1" d="M79.6,38c0,1,0,2.1,0,3.2c-7.3,0-14.5,0-21.8,0c0-1,0-2.1,0-3.2C65.1,38,72.3,38,79.6,38z"/>
			<path class="st1" d="M57.8,46.4c0-0.8,0-1.5,0-2.2c7.3,0,14.5,0,21.9,0c0,0.7,0,1.4,0,2.2C72.3,46.4,65.1,46.4,57.8,46.4z"/>
			<path class="st1" d="M57.8,51.2c0-0.8,0-1.4,0-2.2c7.3,0,14.5,0,21.9,0c0,0.7,0,1.4,0,2.2C72.4,51.2,65.2,51.2,57.8,51.2z"/>
			<path class="st1" d="M72.4,56.1c-5,0-9.7,0-14.6,0c0-0.7,0-1.4,0-2.2c4.8,0,9.6,0,14.5,0C72.4,54.5,72.4,55.2,72.4,56.1z"/>
		</g>
		<polygon class="st1" points="75.1,87.2 58,70.1 58,70.1 58,70.1 54.9,70.1 54.9,70.1 37.8,87.2 42.3,87.2 54.9,74.5 54.9,87.2 
			58,87.2 58,74.5 70.7,87.2 		"/>
	</g>
</g>
</svg>
