<?xml version="1.0" encoding="utf-8"?>
<!-- Generator: Adobe Illustrator 24.1.1, SVG Export Plug-In . SVG Version: 6.00 Build 0)  -->
<svg version="1.1" id="Layer_1" xmlns="http://www.w3.org/2000/svg" xmlns:xlink="http://www.w3.org/1999/xlink" x="0px" y="0px"
	 width="113.9px" height="113.9px" viewBox="0 0 113.9 113.9" style="enable-background:new 0 0 113.9 113.9;" xml:space="preserve"
	>
<style type="text/css">
	.st0{fill:#FFFFFF;}
	.st1{fill:#0066B3;}
</style>
<g>
	<circle class="st0" cx="56.9" cy="56.9" r="55"/>
	<g>
		<g>
			<path class="st1" d="M73.7,34c1.2-0.9,2-1.6,1.5-3.4c-0.6-2.1,0.8-4.1,2.8-4.9c2-0.8,4.3,0,5.4,2c0.5,0.9,1,1.2,2,1.1
				c1.7-0.1,3.5,0,5.3,0c0,0.7,0,1.3,0,2.2c-1.8,0-3.7-0.1-5.5,0c-0.6,0-1.3,0.4-1.7,0.9c-1.3,2-3.1,2.8-5.5,2.1
				c-1.5-0.5-1.7,0.9-2.5,1.5c-0.2,0.2-0.1,1,0.1,1.4c5.4,9.7,5.3,19.3-0.2,28.9c-0.1,0.2-0.2,0.4-0.4,0.7c2.5,2.5,5,4.9,7.4,7.4
				c2,2,4.1,4.1,6.1,6.1c2.8,2.8,2.9,6.3,0.5,8.7c-2.4,2.4-6.1,2.3-8.8-0.4c-4.5-4.5-9-9.1-13.5-13.7c-7.7,4.6-15.6,5.8-24,3.3
				C36.1,76,30.9,71.9,27.2,66c-7.4-11.9-4.7-27.5,6.1-36.4C44.2,20.6,62.6,20.4,73.7,34z M77.3,51.3c0-14.4-11.6-26-26.1-26.1
				c-14.2,0-26,11.7-26.1,25.9c-0.1,14.2,11.7,26,25.9,26.1C65.6,77.3,77.3,65.7,77.3,51.3z M73.4,78.4c3,3,6,6.1,9,9
				c1.5,1.5,3.8,1.4,5.2-0.1c1.4-1.4,1.5-3.5,0-5.1c-3-3.1-6-6.1-9-9.1C76.8,75,75.2,76.7,73.4,78.4z M71.6,76.6
				c1.7-1.7,3.4-3.4,5-5.1c-0.9-0.9-1.9-2-2.5-2.7c-1.8,1.7-3.5,3.4-5.1,5C69.7,74.6,70.7,75.6,71.6,76.6z M79.5,32.2
				c1.2,0,2.3-1,2.3-2.2c0.1-1.2-1.1-2.4-2.3-2.4c-1.2,0-2.3,1.1-2.3,2.3C77.2,31.1,78.3,32.2,79.5,32.2z"/>
			<path class="st1" d="M75,51.4C74.9,64.5,64.3,75,51.2,74.9c-13,0-23.6-10.7-23.6-23.6c0-13.1,10.7-23.8,23.9-23.6
				C64.5,27.8,75,38.4,75,51.4z M70.1,41c-1.3,1.2-2.6,1.9-2,4.2c0.8,3.1-2.4,5.5-5.6,4.8c-0.6-0.1-1.4,0.1-1.9,0.5
				c-1.9,1.7-3.6,3.6-5.5,5.4c-0.7,0.7-1,1.3-0.7,2.3c0.6,1.8,0,3.4-1.5,4.5c-1.4,1.2-3.1,1.4-4.8,0.6c-1.7-0.8-2.9-2.4-2.4-4.1
				c0.8-2.4-0.7-3.4-1.9-4.6c-0.7-0.7-1.3-1.4-2.1-2C41.5,52.2,41,52,40.7,52c-3.5,0.6-4.3,0.2-6.3-2.9c-1.5,0-2.9,0-4.4,0
				c-1.2,8.7,3.9,17.7,12.2,21.5c8.5,4,18.8,1.9,25.1-5C73.4,58.9,74.6,48.7,70.1,41z M30.4,46.8c2,0,3.9,0.8,5.1-1.7
				c0.8-1.6,3.3-2,5-1.3c1.8,0.7,3.2,2.7,2.7,4.4c-0.7,2,0.3,2.9,1.5,4c0.6,0.6,1.2,1.2,1.8,1.8c0.8,0.8,1.5,1.4,2.7,0.9
				c0.6-0.3,1.4,0.1,2.2,0c0.6-0.1,1.4-0.1,1.9-0.4c2-1.8,3.9-3.7,5.7-5.6c0.4-0.4,0.6-1.3,0.4-1.8c-0.8-3.6,2.1-6.5,5.6-5.6
				c0.5,0.1,1.1,0.1,1.5-0.2c0.9-0.6,1.6-1.3,2.4-2c-4.5-7.1-13.5-10.6-22-9C38.8,31.9,31.8,38.9,30.4,46.8z M52.4,59.2
				c0-1.3-1-2.3-2.3-2.2c-1.2,0-2.2,1.1-2.2,2.3c0,1.2,1,2.3,2.3,2.2C51.4,61.4,52.4,60.4,52.4,59.2z M41.1,48
				c0-1.3-0.9-2.3-2.2-2.3c-1.3,0-2.3,1-2.3,2.2c0,1.3,1,2.3,2.2,2.3C40.1,50.2,41.1,49.2,41.1,48z M66,45.6c0-1.2-1.1-2.3-2.3-2.3
				c-1.2,0-2.2,1-2.3,2.3c0,1.3,1.1,2.4,2.3,2.3C65,47.9,66,46.9,66,45.6z"/>
		</g>
	</g>
</g>
</svg>
