<?xml version="1.0" encoding="utf-8"?>
<!-- Generator: Adobe Illustrator 24.1.1, SVG Export Plug-In . SVG Version: 6.00 Build 0)  -->
<svg version="1.1" id="Layer_1" xmlns="http://www.w3.org/2000/svg" xmlns:xlink="http://www.w3.org/1999/xlink" x="0px" y="0px"
	 width="556.5px" height="38px" viewBox="0 0 556.5 38" style="enable-background:new 0 0 556.5 38;" xml:space="preserve">
<style type="text/css">
	.st0{fill:#1C96E8;}
	.st1{fill:#F96731;}
	.st2{fill:#2B9AF3;}
</style>
<g>
	<g>
		
			<image style="overflow:visible;opacity:0.2;" width="368" height="37" xlink:href="9F481EFB.png"  transform="matrix(1 0 0 1 191.1205 5.3995)">
		</image>
		<g>
			<g>
				<path class="st0" d="M208.1,33.9c0,0.1-0.1,0.2-0.2,0.3c-0.1,0.1-0.2,0.2-0.4,0.2s-0.3,0.1-0.6,0.1c-0.2,0-0.5,0-0.9,0
					c-0.3,0-0.5,0-0.7,0c-0.2,0-0.4,0-0.5,0s-0.3-0.1-0.4-0.1s-0.2-0.1-0.3-0.1c-0.1,0-0.1-0.1-0.2-0.2c0-0.1-0.1-0.1-0.1-0.2
					l-7.7-21.7c-0.1-0.3-0.1-0.5-0.2-0.6c0-0.2,0-0.3,0.2-0.4c0.1-0.1,0.3-0.1,0.5-0.2s0.6,0,1,0c0.3,0,0.6,0,0.8,0
					c0.2,0,0.4,0.1,0.5,0.1c0.1,0,0.2,0.1,0.2,0.2c0.1,0.1,0.1,0.2,0.2,0.3l6.7,19.7h0l6.5-19.7c0-0.1,0.1-0.2,0.1-0.3
					c0-0.1,0.1-0.2,0.3-0.2c0.1,0,0.3-0.1,0.5-0.1c0.2,0,0.5,0,0.9,0c0.4,0,0.7,0,0.9,0c0.2,0,0.4,0.1,0.4,0.2
					c0.1,0.1,0.1,0.2,0.1,0.4c0,0.2-0.1,0.4-0.2,0.6L208.1,33.9z"/>
				<path class="st0" d="M222.8,34c0,0.1,0,0.2-0.1,0.3c0,0.1-0.1,0.1-0.3,0.2c-0.1,0-0.3,0.1-0.5,0.1c-0.2,0-0.5,0-0.8,0
					c-0.3,0-0.5,0-0.7,0c-0.2,0-0.4-0.1-0.5-0.1c-0.1,0-0.2-0.1-0.3-0.2c0-0.1-0.1-0.2-0.1-0.3V11.5c0-0.1,0-0.2,0.1-0.3
					c0.1-0.1,0.1-0.1,0.3-0.2c0.1,0,0.3-0.1,0.5-0.1c0.2,0,0.4,0,0.7,0c0.3,0,0.6,0,0.8,0c0.2,0,0.4,0.1,0.5,0.1
					c0.1,0,0.2,0.1,0.3,0.2c0,0.1,0.1,0.2,0.1,0.3V34z"/>
				<path class="st0" d="M244.6,34c0,0.1,0,0.2-0.1,0.3c0,0.1-0.1,0.1-0.2,0.2c-0.1,0-0.3,0.1-0.5,0.1c-0.2,0-0.5,0-0.9,0
					c-0.3,0-0.6,0-0.8,0c-0.2,0-0.4-0.1-0.5-0.1c-0.1-0.1-0.2-0.1-0.3-0.2s-0.1-0.2-0.2-0.4l-2.2-5.5c-0.3-0.6-0.5-1.2-0.8-1.7
					s-0.6-1-1-1.4s-0.8-0.7-1.3-0.9s-1.1-0.3-1.8-0.3h-2.1v10c0,0.1,0,0.2-0.1,0.3c-0.1,0.1-0.1,0.1-0.3,0.2c-0.1,0-0.3,0.1-0.5,0.1
					c-0.2,0-0.5,0-0.8,0c-0.3,0-0.6,0-0.8,0c-0.2,0-0.4-0.1-0.5-0.1c-0.1,0-0.2-0.1-0.3-0.2c0-0.1-0.1-0.2-0.1-0.3V12.3
					c0-0.5,0.1-0.8,0.4-1c0.2-0.2,0.5-0.3,0.8-0.3h5c0.6,0,1.1,0,1.5,0c0.4,0,0.7,0.1,1.1,0.1c0.9,0.2,1.7,0.4,2.4,0.7
					s1.3,0.8,1.7,1.3c0.5,0.5,0.8,1.1,1.1,1.8c0.2,0.7,0.4,1.4,0.4,2.2c0,0.8-0.1,1.5-0.3,2.1s-0.5,1.2-0.9,1.6
					c-0.4,0.5-0.9,0.9-1.4,1.2c-0.6,0.4-1.2,0.6-1.9,0.9c0.4,0.2,0.7,0.4,1,0.6c0.3,0.3,0.6,0.6,0.9,0.9c0.3,0.4,0.5,0.8,0.8,1.2
					c0.2,0.5,0.5,1,0.7,1.6l2.1,5.2c0.2,0.4,0.3,0.7,0.3,0.9C244.6,33.8,244.6,33.9,244.6,34z M239.9,17.6c0-0.9-0.2-1.7-0.6-2.3
					s-1.1-1.1-2.1-1.4c-0.3-0.1-0.6-0.1-1-0.2s-0.9-0.1-1.5-0.1h-2.6v7.9h3c0.8,0,1.5-0.1,2.1-0.3c0.6-0.2,1.1-0.5,1.5-0.8
					c0.4-0.4,0.7-0.8,0.9-1.3C239.8,18.6,239.9,18.1,239.9,17.6z"/>
				<path class="st0" d="M263.4,12.4c0,0.2,0,0.4,0,0.6c0,0.2-0.1,0.3-0.1,0.4s-0.1,0.2-0.2,0.2c-0.1,0-0.2,0.1-0.3,0.1h-6.6V34
					c0,0.1,0,0.2-0.1,0.3c0,0.1-0.1,0.1-0.3,0.2c-0.1,0-0.3,0.1-0.5,0.1c-0.2,0-0.4,0-0.8,0c-0.3,0-0.5,0-0.7,0
					c-0.2,0-0.4-0.1-0.5-0.1c-0.1,0-0.2-0.1-0.3-0.2c0-0.1-0.1-0.2-0.1-0.3V13.7h-6.6c-0.1,0-0.2,0-0.3-0.1c-0.1,0-0.1-0.1-0.2-0.2
					c0-0.1-0.1-0.2-0.1-0.4s0-0.4,0-0.6s0-0.4,0-0.6s0.1-0.3,0.1-0.4c0-0.1,0.1-0.2,0.2-0.2c0.1,0,0.2-0.1,0.3-0.1h16.3
					c0.1,0,0.2,0,0.3,0.1c0.1,0,0.1,0.1,0.2,0.2s0.1,0.3,0.1,0.4C263.4,12,263.4,12.2,263.4,12.4z"/>
				<path class="st0" d="M284.4,25.8c0,1.4-0.2,2.7-0.6,3.8s-1,2.1-1.8,2.8c-0.8,0.8-1.7,1.4-2.8,1.8c-1.1,0.4-2.4,0.6-3.8,0.6
					c-1.3,0-2.5-0.2-3.5-0.6c-1.1-0.4-2-0.9-2.7-1.7s-1.3-1.6-1.8-2.7c-0.4-1.1-0.6-2.4-0.6-3.8V11.5c0-0.1,0-0.2,0.1-0.3
					c0-0.1,0.1-0.1,0.3-0.2c0.1,0,0.3-0.1,0.5-0.1c0.2,0,0.4,0,0.8,0c0.3,0,0.5,0,0.7,0c0.2,0,0.4,0.1,0.5,0.1
					c0.1,0,0.2,0.1,0.2,0.2c0,0.1,0.1,0.2,0.1,0.3v14.1c0,1.1,0.1,2,0.4,2.8c0.3,0.8,0.6,1.5,1.1,2c0.5,0.5,1.1,0.9,1.8,1.2
					s1.5,0.4,2.4,0.4c0.9,0,1.7-0.1,2.4-0.4c0.7-0.3,1.3-0.7,1.8-1.2c0.5-0.5,0.9-1.2,1.1-2c0.3-0.8,0.4-1.7,0.4-2.8V11.5
					c0-0.1,0-0.2,0.1-0.3c0-0.1,0.1-0.1,0.3-0.2c0.1,0,0.3-0.1,0.5-0.1c0.2,0,0.4,0,0.8,0c0.3,0,0.5,0,0.7,0c0.2,0,0.4,0.1,0.5,0.1
					c0.1,0,0.2,0.1,0.3,0.2c0.1,0.1,0.1,0.2,0.1,0.3V25.8z"/>
				<path class="st0" d="M307.3,33.4c0.1,0.3,0.1,0.5,0.2,0.6c0,0.2,0,0.3-0.1,0.4c-0.1,0.1-0.3,0.1-0.5,0.2c-0.2,0-0.5,0-0.9,0
					s-0.7,0-0.9,0c-0.2,0-0.4,0-0.5-0.1c-0.1,0-0.2-0.1-0.3-0.2c-0.1-0.1-0.1-0.2-0.2-0.3l-2-5.7h-9.7l-1.9,5.6
					c0,0.1-0.1,0.2-0.1,0.3s-0.1,0.1-0.3,0.2c-0.1,0.1-0.3,0.1-0.5,0.1c-0.2,0-0.5,0-0.8,0c-0.3,0-0.6,0-0.9,0
					c-0.2,0-0.4-0.1-0.5-0.2c-0.1-0.1-0.1-0.2-0.1-0.4s0.1-0.4,0.2-0.6l7.9-21.7c0-0.1,0.1-0.2,0.2-0.3c0.1-0.1,0.2-0.2,0.3-0.2
					c0.2,0,0.3-0.1,0.6-0.1c0.2,0,0.5,0,0.9,0c0.4,0,0.7,0,1,0c0.3,0,0.5,0.1,0.6,0.1c0.2,0,0.3,0.1,0.4,0.2
					c0.1,0.1,0.2,0.2,0.2,0.3L307.3,33.4z M297.2,14.2L297.2,14.2l-4.1,11.7h8.1L297.2,14.2z"/>
				<path class="st0" d="M323.3,33.1c0,0.2,0,0.4,0,0.6c0,0.2-0.1,0.3-0.1,0.4c-0.1,0.1-0.1,0.2-0.2,0.3c-0.1,0.1-0.2,0.1-0.3,0.1
					h-10.3c-0.3,0-0.5-0.1-0.8-0.3c-0.2-0.2-0.4-0.5-0.4-1V11.5c0-0.1,0-0.2,0.1-0.3c0-0.1,0.1-0.1,0.3-0.2c0.1,0,0.3-0.1,0.5-0.1
					c0.2,0,0.5,0,0.7,0c0.3,0,0.6,0,0.8,0c0.2,0,0.4,0.1,0.5,0.1c0.1,0,0.2,0.1,0.3,0.2c0,0.1,0.1,0.2,0.1,0.3v20.2h8.4
					c0.1,0,0.2,0,0.3,0.1c0.1,0.1,0.1,0.1,0.2,0.2c0.1,0.1,0.1,0.2,0.1,0.4C323.3,32.7,323.3,32.9,323.3,33.1z"/>
				<path class="st0" d="M348.2,33.2c0,0.2,0,0.4,0,0.6c0,0.2-0.1,0.3-0.1,0.4s-0.1,0.2-0.2,0.2c-0.1,0-0.2,0.1-0.3,0.1h-11.2
					c-0.3,0-0.5-0.1-0.8-0.3c-0.2-0.2-0.4-0.5-0.4-1V12.3c0-0.5,0.1-0.8,0.4-1c0.2-0.2,0.5-0.3,0.8-0.3h11.1c0.1,0,0.2,0,0.3,0.1
					c0.1,0,0.1,0.1,0.2,0.2c0,0.1,0.1,0.2,0.1,0.4s0,0.4,0,0.6c0,0.2,0,0.4,0,0.6s-0.1,0.3-0.1,0.4c0,0.1-0.1,0.2-0.2,0.2
					c-0.1,0-0.2,0.1-0.3,0.1h-9.2V21h7.9c0.1,0,0.2,0,0.3,0.1c0.1,0.1,0.1,0.1,0.2,0.2c0.1,0.1,0.1,0.2,0.1,0.4s0,0.4,0,0.6
					c0,0.2,0,0.4,0,0.6c0,0.2-0.1,0.3-0.1,0.4c-0.1,0.1-0.1,0.2-0.2,0.2c-0.1,0-0.2,0.1-0.3,0.1h-7.9v8.4h9.3c0.1,0,0.2,0,0.3,0.1
					s0.1,0.1,0.2,0.2s0.1,0.2,0.1,0.4C348.2,32.7,348.2,32.9,348.2,33.2z"/>
				<path class="st0" d="M370.9,33.2c0,0.2,0,0.4-0.1,0.6c-0.1,0.2-0.2,0.3-0.3,0.4c-0.1,0.1-0.3,0.2-0.4,0.2s-0.3,0.1-0.5,0.1h-1
					c-0.3,0-0.6,0-0.9-0.1c-0.2-0.1-0.5-0.2-0.7-0.4c-0.2-0.2-0.4-0.4-0.7-0.7c-0.2-0.3-0.5-0.7-0.7-1.2l-7.1-13.3
					c-0.4-0.7-0.8-1.4-1.1-2.2c-0.4-0.8-0.7-1.5-1.1-2.2h0c0,0.9,0,1.8,0.1,2.7c0,0.9,0,1.8,0,2.7V34c0,0.1,0,0.2-0.1,0.2
					c-0.1,0.1-0.1,0.1-0.3,0.2c-0.1,0-0.3,0.1-0.5,0.1c-0.2,0-0.4,0-0.8,0c-0.3,0-0.6,0-0.8,0c-0.2,0-0.4-0.1-0.5-0.1
					c-0.1,0-0.2-0.1-0.2-0.2c-0.1-0.1-0.1-0.2-0.1-0.2V12.4c0-0.5,0.1-0.8,0.4-1c0.3-0.2,0.6-0.3,0.9-0.3h1.5c0.4,0,0.7,0,0.9,0.1
					c0.2,0.1,0.5,0.2,0.7,0.3c0.2,0.1,0.4,0.3,0.6,0.6s0.4,0.6,0.6,0.9l5.5,10.3c0.3,0.6,0.7,1.2,1,1.8c0.3,0.6,0.6,1.2,0.9,1.8
					c0.3,0.6,0.6,1.1,0.9,1.7s0.6,1.1,0.8,1.7h0c0-1,0-1.9,0-3c0-1,0-2,0-3V11.6c0-0.1,0-0.2,0.1-0.2c0.1-0.1,0.1-0.1,0.3-0.2
					s0.3-0.1,0.5-0.1c0.2,0,0.5,0,0.8,0c0.3,0,0.5,0,0.7,0c0.2,0,0.4,0.1,0.5,0.1s0.2,0.1,0.2,0.2c0.1,0.1,0.1,0.2,0.1,0.2V33.2z"/>
				<path class="st0" d="M394.7,14.2c0,0.2,0,0.4,0,0.6c0,0.2-0.1,0.3-0.1,0.4c0,0.1-0.1,0.2-0.2,0.2c-0.1,0-0.2,0.1-0.2,0.1
					c-0.1,0-0.4-0.1-0.7-0.3c-0.3-0.2-0.8-0.5-1.4-0.8c-0.6-0.3-1.2-0.5-2-0.8c-0.8-0.2-1.7-0.3-2.8-0.3c-1.3,0-2.4,0.2-3.5,0.7
					c-1,0.5-1.9,1.1-2.6,2s-1.3,1.8-1.6,3c-0.4,1.1-0.6,2.4-0.6,3.7c0,1.5,0.2,2.8,0.6,4c0.4,1.2,1,2.1,1.7,2.9s1.6,1.4,2.6,1.8
					c1,0.4,2.1,0.6,3.4,0.6c0.7,0,1.5-0.1,2.2-0.3c0.7-0.2,1.4-0.4,2.1-0.8v-6.8h-5.4c-0.2,0-0.4-0.1-0.5-0.3s-0.2-0.5-0.2-1
					c0-0.2,0-0.4,0-0.6s0.1-0.3,0.1-0.4c0.1-0.1,0.1-0.2,0.2-0.2c0.1,0,0.2-0.1,0.3-0.1h7.4c0.1,0,0.3,0,0.4,0.1
					c0.1,0,0.3,0.1,0.4,0.2c0.1,0.1,0.2,0.2,0.3,0.4c0.1,0.2,0.1,0.4,0.1,0.6v8.9c0,0.3-0.1,0.6-0.2,0.8c-0.1,0.2-0.3,0.4-0.7,0.6
					c-0.4,0.2-0.8,0.4-1.4,0.6c-0.6,0.2-1.1,0.4-1.7,0.5c-0.6,0.1-1.2,0.3-1.8,0.3c-0.6,0.1-1.2,0.1-1.8,0.1c-1.8,0-3.4-0.3-4.8-0.8
					c-1.4-0.6-2.6-1.4-3.6-2.4c-1-1-1.7-2.3-2.3-3.7c-0.5-1.4-0.8-3.1-0.8-4.8c0-1.9,0.3-3.5,0.8-5c0.6-1.5,1.4-2.8,2.4-3.9
					c1-1.1,2.2-1.9,3.7-2.5c1.4-0.6,3-0.9,4.7-0.9c0.9,0,1.7,0.1,2.5,0.2c0.8,0.2,1.5,0.3,2.1,0.6c0.6,0.2,1.1,0.4,1.5,0.7
					c0.4,0.2,0.7,0.5,0.9,0.6c0.2,0.2,0.3,0.3,0.3,0.5S394.7,13.9,394.7,14.2z"/>
				<path class="st0" d="M418.1,33.4c0.1,0.3,0.1,0.5,0.2,0.6c0,0.2,0,0.3-0.1,0.4c-0.1,0.1-0.3,0.1-0.5,0.2c-0.2,0-0.5,0-0.9,0
					c-0.4,0-0.7,0-0.9,0c-0.2,0-0.4,0-0.5-0.1c-0.1,0-0.2-0.1-0.3-0.2c-0.1-0.1-0.1-0.2-0.2-0.3l-2-5.7h-9.7l-1.9,5.6
					c0,0.1-0.1,0.2-0.1,0.3c-0.1,0.1-0.1,0.1-0.3,0.2c-0.1,0.1-0.3,0.1-0.5,0.1c-0.2,0-0.5,0-0.8,0c-0.3,0-0.6,0-0.9,0
					c-0.2,0-0.4-0.1-0.5-0.2c-0.1-0.1-0.1-0.2-0.1-0.4c0-0.2,0.1-0.4,0.2-0.6l7.9-21.7c0-0.1,0.1-0.2,0.2-0.3
					c0.1-0.1,0.2-0.2,0.3-0.2c0.2,0,0.3-0.1,0.6-0.1c0.2,0,0.5,0,0.9,0c0.4,0,0.7,0,1,0c0.3,0,0.5,0.1,0.6,0.1
					c0.2,0,0.3,0.1,0.4,0.2c0.1,0.1,0.2,0.2,0.2,0.3L418.1,33.4z M408,14.2L408,14.2l-4.1,11.7h8.1L408,14.2z"/>
				<path class="st0" d="M439.3,14.2c0,0.2,0,0.4,0,0.6c0,0.2-0.1,0.3-0.1,0.4c0,0.1-0.1,0.2-0.2,0.2c-0.1,0-0.2,0.1-0.2,0.1
					c-0.1,0-0.4-0.1-0.7-0.3c-0.3-0.2-0.8-0.5-1.4-0.8c-0.6-0.3-1.2-0.5-2-0.8c-0.8-0.2-1.7-0.3-2.8-0.3c-1.3,0-2.4,0.2-3.5,0.7
					c-1,0.5-1.9,1.1-2.6,2s-1.3,1.8-1.6,3c-0.4,1.1-0.6,2.4-0.6,3.7c0,1.5,0.2,2.8,0.6,4c0.4,1.2,1,2.1,1.7,2.9s1.6,1.4,2.6,1.8
					c1,0.4,2.1,0.6,3.4,0.6c0.7,0,1.5-0.1,2.2-0.3c0.7-0.2,1.4-0.4,2.1-0.8v-6.8h-5.4c-0.2,0-0.4-0.1-0.5-0.3s-0.2-0.5-0.2-1
					c0-0.2,0-0.4,0-0.6s0.1-0.3,0.1-0.4c0.1-0.1,0.1-0.2,0.2-0.2c0.1,0,0.2-0.1,0.3-0.1h7.4c0.1,0,0.3,0,0.4,0.1
					c0.1,0,0.3,0.1,0.4,0.2c0.1,0.1,0.2,0.2,0.3,0.4c0.1,0.2,0.1,0.4,0.1,0.6v8.9c0,0.3-0.1,0.6-0.2,0.8c-0.1,0.2-0.3,0.4-0.7,0.6
					c-0.4,0.2-0.8,0.4-1.4,0.6c-0.6,0.2-1.1,0.4-1.7,0.5c-0.6,0.1-1.2,0.3-1.8,0.3c-0.6,0.1-1.2,0.1-1.8,0.1c-1.8,0-3.4-0.3-4.8-0.8
					c-1.4-0.6-2.6-1.4-3.6-2.4c-1-1-1.7-2.3-2.3-3.7c-0.5-1.4-0.8-3.1-0.8-4.8c0-1.9,0.3-3.5,0.8-5c0.6-1.5,1.4-2.8,2.4-3.9
					c1-1.1,2.2-1.9,3.7-2.5c1.4-0.6,3-0.9,4.7-0.9c0.9,0,1.7,0.1,2.5,0.2c0.8,0.2,1.5,0.3,2.1,0.6c0.6,0.2,1.1,0.4,1.5,0.7
					c0.4,0.2,0.7,0.5,0.9,0.6c0.2,0.2,0.3,0.3,0.3,0.5S439.3,13.9,439.3,14.2z"/>
				<path class="st0" d="M458.1,33.2c0,0.2,0,0.4,0,0.6c0,0.2-0.1,0.3-0.1,0.4s-0.1,0.2-0.2,0.2c-0.1,0-0.2,0.1-0.3,0.1h-11.2
					c-0.3,0-0.5-0.1-0.8-0.3c-0.2-0.2-0.4-0.5-0.4-1V12.3c0-0.5,0.1-0.8,0.4-1c0.2-0.2,0.5-0.3,0.8-0.3h11.1c0.1,0,0.2,0,0.3,0.1
					c0.1,0,0.1,0.1,0.2,0.2c0,0.1,0.1,0.2,0.1,0.4s0,0.4,0,0.6c0,0.2,0,0.4,0,0.6s-0.1,0.3-0.1,0.4c0,0.1-0.1,0.2-0.2,0.2
					c-0.1,0-0.2,0.1-0.3,0.1h-9.2V21h7.9c0.1,0,0.2,0,0.3,0.1c0.1,0.1,0.1,0.1,0.2,0.2c0.1,0.1,0.1,0.2,0.1,0.4s0,0.4,0,0.6
					c0,0.2,0,0.4,0,0.6c0,0.2-0.1,0.3-0.1,0.4c-0.1,0.1-0.1,0.2-0.2,0.2c-0.1,0-0.2,0.1-0.3,0.1h-7.9v8.4h9.3c0.1,0,0.2,0,0.3,0.1
					s0.1,0.1,0.2,0.2s0.1,0.2,0.1,0.4C458.1,32.7,458.1,32.9,458.1,33.2z"/>
				<path class="st0" d="M488.6,34c0,0.1,0,0.2-0.1,0.3c0,0.1-0.1,0.1-0.3,0.2c-0.1,0-0.3,0.1-0.5,0.1c-0.2,0-0.4,0-0.8,0
					c-0.3,0-0.5,0-0.7,0c-0.2,0-0.4-0.1-0.5-0.1c-0.1,0-0.2-0.1-0.3-0.2c0-0.1-0.1-0.2-0.1-0.3V13.6h0l-8.2,20.5
					c0,0.1-0.1,0.2-0.2,0.2c-0.1,0.1-0.2,0.1-0.3,0.2c-0.1,0-0.3,0.1-0.5,0.1c-0.2,0-0.4,0-0.6,0c-0.3,0-0.5,0-0.7,0
					c-0.2,0-0.3-0.1-0.5-0.1c-0.1,0-0.2-0.1-0.3-0.2c-0.1-0.1-0.1-0.1-0.1-0.2l-7.9-20.5h0V34c0,0.1,0,0.2-0.1,0.3
					c0,0.1-0.1,0.1-0.3,0.2c-0.1,0-0.3,0.1-0.5,0.1c-0.2,0-0.5,0-0.8,0c-0.3,0-0.5,0-0.7,0c-0.2,0-0.4-0.1-0.5-0.1
					c-0.1,0-0.2-0.1-0.2-0.2c0-0.1-0.1-0.2-0.1-0.3V12.5c0-0.5,0.1-0.9,0.4-1.1c0.3-0.2,0.6-0.3,0.9-0.3h1.9c0.4,0,0.7,0,1,0.1
					s0.6,0.2,0.8,0.3c0.2,0.2,0.4,0.4,0.6,0.6c0.1,0.2,0.3,0.5,0.4,0.8l6.7,17h0.1l7-16.9c0.1-0.4,0.3-0.7,0.4-0.9s0.3-0.5,0.5-0.6
					c0.2-0.2,0.4-0.3,0.6-0.3c0.2-0.1,0.5-0.1,0.8-0.1h2c0.2,0,0.4,0,0.5,0.1c0.2,0.1,0.3,0.1,0.4,0.3c0.1,0.1,0.2,0.3,0.3,0.4
					c0.1,0.2,0.1,0.4,0.1,0.6V34z"/>
				<path class="st0" d="M507.9,33.2c0,0.2,0,0.4,0,0.6s-0.1,0.3-0.1,0.4c-0.1,0.1-0.1,0.2-0.2,0.2c-0.1,0-0.2,0.1-0.3,0.1H496
					c-0.3,0-0.5-0.1-0.8-0.3c-0.2-0.2-0.4-0.5-0.4-1V12.3c0-0.5,0.1-0.8,0.4-1c0.2-0.2,0.5-0.3,0.8-0.3h11.1c0.1,0,0.2,0,0.3,0.1
					c0.1,0,0.1,0.1,0.2,0.2c0,0.1,0.1,0.2,0.1,0.4s0,0.4,0,0.6c0,0.2,0,0.4,0,0.6s-0.1,0.3-0.1,0.4c0,0.1-0.1,0.2-0.2,0.2
					c-0.1,0-0.2,0.1-0.3,0.1h-9.2V21h7.9c0.1,0,0.2,0,0.3,0.1s0.1,0.1,0.2,0.2s0.1,0.2,0.1,0.4c0,0.2,0,0.4,0,0.6c0,0.2,0,0.4,0,0.6
					c0,0.2-0.1,0.3-0.1,0.4s-0.1,0.2-0.2,0.2c-0.1,0-0.2,0.1-0.3,0.1h-7.9v8.4h9.3c0.1,0,0.2,0,0.3,0.1c0.1,0,0.1,0.1,0.2,0.2
					c0.1,0.1,0.1,0.2,0.1,0.4S507.9,32.9,507.9,33.2z"/>
				<path class="st0" d="M530.6,33.2c0,0.2,0,0.4-0.1,0.6c-0.1,0.2-0.2,0.3-0.3,0.4c-0.1,0.1-0.3,0.2-0.4,0.2
					c-0.2,0-0.3,0.1-0.5,0.1h-1c-0.3,0-0.6,0-0.9-0.1c-0.2-0.1-0.5-0.2-0.7-0.4c-0.2-0.2-0.4-0.4-0.7-0.7c-0.2-0.3-0.5-0.7-0.7-1.2
					l-7.1-13.3c-0.4-0.7-0.8-1.4-1.1-2.2s-0.7-1.5-1.1-2.2h0c0,0.9,0,1.8,0.1,2.7c0,0.9,0,1.8,0,2.7V34c0,0.1,0,0.2-0.1,0.2
					c-0.1,0.1-0.1,0.1-0.3,0.2c-0.1,0-0.3,0.1-0.5,0.1c-0.2,0-0.4,0-0.8,0s-0.6,0-0.8,0c-0.2,0-0.4-0.1-0.5-0.1
					c-0.1,0-0.2-0.1-0.2-0.2c-0.1-0.1-0.1-0.2-0.1-0.2V12.4c0-0.5,0.1-0.8,0.4-1c0.3-0.2,0.6-0.3,0.9-0.3h1.5c0.4,0,0.7,0,0.9,0.1
					s0.5,0.2,0.7,0.3c0.2,0.1,0.4,0.3,0.6,0.6s0.4,0.6,0.6,0.9l5.5,10.3c0.3,0.6,0.7,1.2,1,1.8c0.3,0.6,0.6,1.2,0.9,1.8
					c0.3,0.6,0.6,1.1,0.9,1.7c0.3,0.6,0.6,1.1,0.8,1.7h0c0-1,0-1.9,0-3s0-2,0-3V11.6c0-0.1,0-0.2,0.1-0.2c0.1-0.1,0.1-0.1,0.3-0.2
					s0.3-0.1,0.5-0.1c0.2,0,0.5,0,0.8,0c0.3,0,0.5,0,0.7,0c0.2,0,0.4,0.1,0.5,0.1c0.1,0.1,0.2,0.1,0.2,0.2c0.1,0.1,0.1,0.2,0.1,0.2
					V33.2z"/>
				<path class="st0" d="M551.5,12.4c0,0.2,0,0.4,0,0.6s-0.1,0.3-0.1,0.4c-0.1,0.1-0.1,0.2-0.2,0.2c-0.1,0-0.2,0.1-0.3,0.1h-6.6V34
					c0,0.1,0,0.2-0.1,0.3c0,0.1-0.1,0.1-0.3,0.2c-0.1,0-0.3,0.1-0.5,0.1c-0.2,0-0.4,0-0.8,0c-0.3,0-0.5,0-0.7,0
					c-0.2,0-0.4-0.1-0.5-0.1c-0.1,0-0.2-0.1-0.3-0.2c0-0.1-0.1-0.2-0.1-0.3V13.7h-6.6c-0.1,0-0.2,0-0.3-0.1c-0.1,0-0.1-0.1-0.2-0.2
					c0-0.1-0.1-0.2-0.1-0.4s0-0.4,0-0.6s0-0.4,0-0.6s0.1-0.3,0.1-0.4c0-0.1,0.1-0.2,0.2-0.2c0.1,0,0.2-0.1,0.3-0.1h16.3
					c0.1,0,0.2,0,0.3,0.1c0.1,0,0.1,0.1,0.2,0.2c0.1,0.1,0.1,0.3,0.1,0.4S551.5,12.2,551.5,12.4z"/>
			</g>
		</g>
	</g>
	<g>
		<g>
			<g>
				<g>
					<path d="M5,35.4V2h4.1v19.1l9.7-9.8h5.3l-9.3,9l10.2,15.2H20L12,23l-2.9,2.8v9.6H5z"/>
					<path d="M54.3,35.4V11.2H58v3.4c1.8-2.7,4.3-4,7.7-4c1.5,0,2.8,0.3,4,0.8c1.2,0.5,2.1,1.2,2.7,2.1c0.6,0.9,1,1.9,1.3,3
						c0.2,0.8,0.2,2.1,0.2,4v14.9h-4.1V20.7c0-1.7-0.2-2.9-0.5-3.7c-0.3-0.8-0.9-1.5-1.7-2c-0.8-0.5-1.8-0.7-2.9-0.7
						c-1.7,0-3.3,0.6-4.5,1.7c-1.3,1.1-1.9,3.2-1.9,6.3v13.2H54.3z"/>
					<path d="M96.8,27.6l4.2,0.5c-0.7,2.5-1.9,4.4-3.7,5.8c-1.8,1.4-4.1,2.1-6.9,2.1c-3.5,0-6.3-1.1-8.4-3.3
						c-2.1-2.2-3.1-5.2-3.1-9.2c0-4.1,1-7.2,3.1-9.5c2.1-2.2,4.8-3.4,8.2-3.4c3.2,0,5.9,1.1,7.9,3.3c2.1,2.2,3.1,5.3,3.1,9.3
						c0,0.2,0,0.6,0,1.1h-18c0.2,2.7,0.9,4.7,2.3,6.1c1.4,1.4,3,2.1,5.1,2.1c1.5,0,2.8-0.4,3.9-1.2C95.3,30.6,96.2,29.3,96.8,27.6z
						 M83.3,21h13.5c-0.2-2-0.7-3.6-1.5-4.6c-1.3-1.6-3-2.4-5.1-2.4c-1.9,0-3.5,0.6-4.8,1.9C84.2,17.2,83.5,18.9,83.3,21z"/>
					<path d="M122,26.5l4,0.5c-0.4,2.8-1.6,5-3.4,6.5c-1.8,1.6-4,2.4-6.7,2.4c-3.3,0-6-1.1-8-3.2c-2-2.2-3-5.3-3-9.3
						c0-2.6,0.4-4.9,1.3-6.9c0.9-2,2.2-3.4,4-4.4c1.8-1,3.7-1.5,5.8-1.5c2.6,0,4.8,0.7,6.4,2c1.7,1.3,2.7,3.2,3.2,5.7l-4,0.6
						c-0.4-1.6-1.1-2.8-2-3.7c-1-0.8-2.1-1.2-3.5-1.2c-2.1,0-3.7,0.7-5,2.2c-1.3,1.5-1.9,3.8-1.9,7c0,3.3,0.6,5.6,1.9,7.1
						c1.2,1.5,2.9,2.2,4.9,2.2c1.6,0,3-0.5,4-1.5C121,30.1,121.7,28.6,122,26.5z"/>
					<path d="M138.5,31.7l0.6,3.6c-1.2,0.2-2.2,0.4-3.1,0.4c-1.5,0-2.6-0.2-3.5-0.7c-0.8-0.5-1.4-1.1-1.7-1.9
						c-0.3-0.8-0.5-2.4-0.5-4.8V14.4h-3v-3.2h3v-6l4.1-2.5v8.5h4.1v3.2h-4.1v14.2c0,1.2,0.1,1.9,0.2,2.3c0.1,0.3,0.4,0.6,0.7,0.8
						c0.3,0.2,0.8,0.3,1.4,0.3C137.1,31.9,137.7,31.8,138.5,31.7z"/>
					<path d="M158.3,32.4c-1.5,1.3-3,2.2-4.4,2.7c-1.4,0.5-2.9,0.8-4.5,0.8c-2.7,0-4.7-0.6-6.1-1.9c-1.4-1.3-2.1-3-2.1-5
						c0-1.2,0.3-2.3,0.8-3.2c0.5-1,1.2-1.8,2.1-2.4c0.9-0.6,1.9-1,3-1.3c0.8-0.2,2-0.4,3.6-0.6c3.3-0.4,5.7-0.9,7.3-1.4
						c0-0.6,0-0.9,0-1.1c0-1.7-0.4-2.8-1.2-3.5c-1-0.9-2.6-1.4-4.7-1.4c-1.9,0-3.4,0.3-4.3,1c-0.9,0.7-1.6,1.9-2,3.6l-4-0.5
						c0.4-1.7,1-3.1,1.8-4.2c0.8-1.1,2-1.9,3.6-2.4c1.6-0.6,3.4-0.9,5.5-0.9c2.1,0,3.7,0.2,5,0.7c1.3,0.5,2.2,1.1,2.8,1.8
						c0.6,0.7,1,1.7,1.3,2.8c0.1,0.7,0.2,2,0.2,3.8v5.5c0,3.8,0.1,6.2,0.3,7.2c0.2,1,0.5,2,1,2.9h-4.3
						C158.7,34.6,158.4,33.6,158.3,32.4z M157.9,23.3c-1.5,0.6-3.7,1.1-6.7,1.5c-1.7,0.2-2.9,0.5-3.6,0.8c-0.7,0.3-1.2,0.7-1.6,1.3
						c-0.4,0.6-0.6,1.2-0.6,1.9c0,1.1,0.4,2,1.2,2.7c0.8,0.7,2,1.1,3.6,1.1c1.6,0,3-0.3,4.2-1c1.2-0.7,2.1-1.6,2.7-2.8
						c0.4-0.9,0.7-2.3,0.7-4.1V23.3z"/>
					<path d="M168.4,35.4V11.2h3.7v3.7c0.9-1.7,1.8-2.8,2.6-3.4s1.7-0.8,2.6-0.8c1.4,0,2.8,0.4,4.2,1.3l-1.4,3.8c-1-0.6-2-0.9-3-0.9
						c-0.9,0-1.7,0.3-2.4,0.8c-0.7,0.5-1.2,1.3-1.5,2.2c-0.5,1.5-0.7,3.1-0.7,4.8v12.7H168.4z"/>
					<g>
						<circle class="st1" cx="38.1" cy="33.1" r="2.3"/>
						<circle class="st1" cx="38.1" cy="13" r="2.3"/>
						<path class="st2" d="M35.8,30.6c-3.2-1-5.6-4-5.6-7.5c0-3.6,2.4-6.6,5.6-7.5c-0.7-0.6-1.1-1.5-1.1-2.5c0-0.6,0.2-1.2,0.5-1.7
							c0,0,0,0,0,0c-5.3,1.3-9.3,6.1-9.3,11.8c0,5.7,3.9,10.5,9.3,11.8c0,0,0,0,0,0c-0.3-0.5-0.5-1.1-0.5-1.7
							C34.7,32.1,35.1,31.2,35.8,30.6z"/>
						<path class="st2" d="M41,11.2c0.3,0.5,0.5,1.1,0.5,1.8c0,1-0.4,1.9-1.1,2.5c3.2,1,5.6,4,5.6,7.5c0,3.6-2.4,6.6-5.6,7.5
							c0.7,0.6,1.1,1.5,1.1,2.5c0,0.6-0.2,1.2-0.5,1.8c5.3-1.3,9.3-6.1,9.3-11.8C50.3,17.3,46.3,12.5,41,11.2z"/>
					</g>
				</g>
			</g>
		</g>
		<g>
			<path d="M188.2,6.4c0,2-1.5,3.5-3.6,3.5c-2,0-3.6-1.5-3.6-3.5c0-1.9,1.6-3.5,3.6-3.5C186.6,2.9,188.2,4.4,188.2,6.4z M181.9,6.4
				c0,1.5,1.1,2.8,2.7,2.8c1.5,0,2.6-1.2,2.6-2.8c0-1.5-1.1-2.8-2.7-2.8C183.1,3.6,181.9,4.8,181.9,6.4z M184.1,8.2h-0.8V4.7
				c0.3-0.1,0.8-0.1,1.3-0.1c0.7,0,1,0.1,1.2,0.3c0.2,0.1,0.3,0.4,0.3,0.8c0,0.4-0.3,0.7-0.7,0.8v0c0.3,0.1,0.5,0.4,0.6,0.8
				c0.1,0.5,0.2,0.7,0.3,0.9h-0.9c-0.1-0.1-0.2-0.4-0.3-0.8c-0.1-0.4-0.3-0.6-0.7-0.6h-0.4V8.2z M184.1,6.2h0.4
				c0.4,0,0.8-0.1,0.8-0.5c0-0.3-0.2-0.5-0.7-0.5c-0.2,0-0.4,0-0.4,0V6.2z"/>
		</g>
	</g>
</g>
</svg>
