<svg width="33" height="33" viewBox="0 0 33 33" fill="none" xmlns="http://www.w3.org/2000/svg">
<rect x="0.5" y="0.5" width="32" height="32" rx="6" fill="#DAF3FF"/>
<path d="M5.5 25.5V22.125H7.7V9.75C7.7 9.13125 7.9156 8.60175 8.3468 8.1615C8.778 7.72125 9.29573 7.50075 9.9 7.5H26.4V9.75H9.9V22.125H16.5V25.5H5.5ZM19.8 25.5C19.4883 25.5 19.2273 25.392 19.0168 25.176C18.8063 24.96 18.7007 24.693 18.7 24.375V13.125C18.7 12.8062 18.8056 12.5392 19.0168 12.324C19.228 12.1087 19.4891 12.0007 19.8 12H26.4C26.7117 12 26.9731 12.108 27.1843 12.324C27.3955 12.54 27.5007 12.807 27.5 13.125V24.375C27.5 24.6937 27.3944 24.9611 27.1832 25.1771C26.972 25.3931 26.7109 25.5007 26.4 25.5H19.8Z" fill="#0163BB"/>
</svg>
