<svg width="33" height="33" viewBox="0 0 33 33" fill="none" xmlns="http://www.w3.org/2000/svg">
<rect x="0.5" y="0.5" width="32" height="32" rx="6" fill="#DAF3FF"/>
<path d="M19.6429 11.1406V4.5H9.82143C9.1683 4.5 8.64286 5.02246 8.64286 5.67188V17H5.89286C5.67679 17 5.5 17.1758 5.5 17.3906V18.1719C5.5 18.3867 5.67679 18.5625 5.89286 18.5625H12.8121C12.9594 18.5625 13.0969 18.6455 13.1656 18.7773L14.1429 20.7207L16.9321 15.1689C17.0746 14.8809 17.492 14.8809 17.6344 15.1689L19.3384 18.5625H22.7857C23.2179 18.5625 23.5714 18.9141 23.5714 19.3438C23.5714 19.7734 23.2179 20.125 22.7857 20.125H18.371L17.2857 17.9668L14.4964 23.5186C14.354 23.8066 13.9366 23.8066 13.7942 23.5186L12.0853 20.125H8.64286V28.3281C8.64286 28.9775 9.1683 29.5 9.82143 29.5H26.3214C26.9746 29.5 27.5 28.9775 27.5 28.3281V12.3125H20.8214C20.1732 12.3125 19.6429 11.7852 19.6429 11.1406ZM27.1562 9.62695L22.3487 4.8418C22.1277 4.62207 21.8281 4.5 21.5138 4.5H21.2143V10.75H27.5V10.4521C27.5 10.1445 27.3772 9.84668 27.1562 9.62695Z" fill="#4B93CF"/>
</svg>
