<svg width="33" height="33" viewBox="0 0 33 33" fill="none" xmlns="http://www.w3.org/2000/svg">
<rect x="0.5" y="0.5" width="32" height="32" rx="6" fill="#DAF3FF"/>
<path d="M14.1892 20.553L14.178 20.527C14.009 20.4813 13.8414 20.4305 13.6754 20.3748L13.6629 20.3698C11.936 19.7847 10.4371 18.6794 9.37596 17.2088C8.31481 15.7381 7.74458 13.9757 7.74508 12.1681C7.74452 9.94976 8.60301 7.81567 10.1437 6.2054C11.6844 4.59513 13.79 3.63131 16.0268 3.51246C18.2636 3.39361 20.4612 4.12878 22.1671 5.56654C23.8729 7.00431 24.957 9.03518 25.1962 11.2409C25.2512 11.7509 24.8261 12.1681 24.3086 12.1681C23.7911 12.1681 23.3773 11.7497 23.3086 11.2421C23.1423 10.044 22.6569 8.91146 21.9022 7.96073C21.1476 7.00999 20.1509 6.27541 19.0147 5.83247C17.8784 5.38953 16.6436 5.25422 15.437 5.44043C14.2305 5.62664 13.0958 6.12767 12.1495 6.89202C11.2032 7.65636 10.4795 8.65646 10.0528 9.78952C9.62607 10.9226 9.5117 12.1477 9.72143 13.3391C9.93116 14.5304 10.4574 15.645 11.2462 16.5682C12.0349 17.4914 13.0576 18.1899 14.2092 18.5921C14.4412 18.0727 14.8464 17.6482 15.3569 17.3896C15.8673 17.1309 16.4521 17.0539 17.0131 17.1714C17.5741 17.2889 18.0772 17.5939 18.4382 18.0351C18.7991 18.4763 18.996 19.027 18.9958 19.5948C18.9964 20.1671 18.7967 20.7219 18.4309 21.1649C18.065 21.6079 17.5555 21.9117 16.989 22.0246C16.4225 22.1375 15.834 22.0526 15.3236 21.7844C14.8131 21.5161 14.4123 21.081 14.1892 20.553ZM12.9079 22.0758C11.434 21.5515 10.0953 20.7111 8.98766 19.6146C8.30279 19.6935 7.67104 20.0188 7.21243 20.5287C6.75381 21.0386 6.50028 21.6975 6.5 22.3803V23.5193C6.5 24.2274 6.72251 24.9182 7.13754 25.4951C9.06516 28.1741 12.2204 29.5 16.4956 29.5C20.7709 29.5 23.9273 28.1729 25.8587 25.4951C26.2757 24.9176 26.4999 24.2255 26.5 23.5155V22.3791C26.5 21.6407 26.204 20.9326 25.6771 20.4103C25.1501 19.888 24.4354 19.5942 23.6898 19.5936H20.8709C20.8711 20.5157 20.5742 21.4138 20.0235 22.1574C19.4727 22.9009 18.6968 23.451 17.8086 23.7277C16.9204 24.0045 15.9662 23.9934 15.0849 23.696C14.2035 23.3987 13.4408 22.8319 12.9079 22.0758ZM21.4959 12.1681C21.4959 11.4444 21.3358 10.7295 21.0267 10.0737C20.7176 9.41795 20.2672 8.83722 19.7071 8.37243C19.1871 7.94169 18.5842 7.62015 17.9349 7.42735C17.2855 7.23454 16.6034 7.1745 15.9299 7.25086C15.2565 7.32723 14.6057 7.53841 14.0172 7.87158C13.4287 8.20474 12.9147 8.65293 12.5066 9.18891C12.0984 9.72488 11.8045 10.3375 11.6428 10.9894C11.4811 11.6413 11.4549 12.319 11.5659 12.9813C11.6769 13.6436 11.9226 14.2766 12.2883 14.8419C12.654 15.4071 13.1319 15.8929 13.6929 16.2696C14.4794 15.6195 15.4712 15.2633 16.4956 15.2631C17.5619 15.2631 18.5395 15.6407 19.2996 16.2696C19.9762 15.8157 20.5303 15.2046 20.9132 14.4895C21.2961 13.7745 21.4962 12.9775 21.4959 12.1681Z" fill="#0163BB"/>
</svg>
