<svg width="33" height="33" viewBox="0 0 33 33" fill="none" xmlns="http://www.w3.org/2000/svg">
<rect x="0.5" y="0.5" width="32" height="32" rx="6" fill="#DAF3FF"/>
<path d="M16 28.5C13.249 27.8 10.9777 26.2048 9.18613 23.7144C7.39458 21.224 6.49921 18.4592 6.5 15.42V8.1L16 4.5L25.5 8.1V15.42C25.5 18.46 24.6046 21.2252 22.8139 23.7156C21.0231 26.206 18.7518 27.8008 16 28.5ZM16 25.98C17.9198 25.38 19.5229 24.1948 20.8094 22.4244C22.0958 20.654 22.8479 18.6792 23.0656 16.5H16V7.05L8.875 9.75V15.96C8.875 16.1 8.89479 16.28 8.93438 16.5H16V25.98Z" fill="#0163BB"/>
</svg>
