<svg width="33" height="33" viewBox="0 0 33 33" fill="none" xmlns="http://www.w3.org/2000/svg">
<rect x="0.5" y="0.5" width="32" height="32" rx="6" fill="#DAF3FF"/>
<path d="M4.75 26.5C4.13125 26.5 3.60156 26.2811 3.16094 25.8434C2.72031 25.4056 2.5 24.8794 2.5 24.2647H7C6.38125 24.2647 5.85156 24.0458 5.41094 23.6081C4.97031 23.1703 4.75 22.6441 4.75 22.0294V9.73529C4.75 9.12059 4.97031 8.59436 5.41094 8.15662C5.85156 7.71887 6.38125 7.5 7 7.5H25C25.6188 7.5 26.1484 7.71887 26.5891 8.15662C27.0297 8.59436 27.25 9.12059 27.25 9.73529V22.0294C27.25 22.6441 27.0297 23.1703 26.5891 23.6081C26.1484 24.0458 25.6188 24.2647 25 24.2647H29.5C29.5 24.8794 29.2797 25.4056 28.8391 25.8434C28.3984 26.2811 27.8687 26.5 27.25 26.5H4.75ZM16 25.3824C16.3188 25.3824 16.5859 25.2752 16.8016 25.061C17.0172 24.8468 17.125 24.5814 17.125 24.2647C17.125 23.948 17.0172 23.6826 16.8016 23.4684C16.5859 23.2542 16.3188 23.1471 16 23.1471C15.6812 23.1471 15.4141 23.2542 15.1984 23.4684C14.9828 23.6826 14.875 23.948 14.875 24.2647C14.875 24.5814 14.9828 24.8468 15.1984 25.061C15.4141 25.2752 15.6812 25.3824 16 25.3824ZM7 22.0294H25V9.73529H7V22.0294Z" fill="#0163BB"/>
<path d="M9.5 19.5V14.8333H11.15V19.5H9.5ZM11.675 19.5V12.5H13.325V19.5H11.675ZM13.85 19.5V15.6111H15.5V19.5H13.85Z" fill="#0163BB"/>
<path d="M20.803 16.2004V13.5C21.5253 13.5759 22.1351 13.8641 22.6326 14.3647C23.1301 14.8654 23.4192 15.4772 23.5 16.2004H20.803ZM20.2045 19.5C19.4369 19.4241 18.7942 19.1005 18.2765 18.5291C17.7588 17.9576 17.5 17.2826 17.5 16.5038C17.5 15.72 17.7588 15.0424 18.2765 14.4709C18.7942 13.8995 19.4369 13.5759 20.2045 13.5V19.5ZM20.803 19.5V16.7996H23.5C23.4293 17.5228 23.1427 18.1359 22.6402 18.6391C22.1376 19.1422 21.5253 19.4292 20.803 19.5Z" fill="#0163BB"/>
</svg>
