<svg width="33" height="33" viewBox="0 0 33 33" fill="none" xmlns="http://www.w3.org/2000/svg">
<rect x="0.5" y="0.5" width="32" height="32" rx="6" fill="#DAF3FF"/>
<path d="M21.1597 9.20001H17.67C17.345 9.20001 17.0322 9.31716 16.7925 9.52802L12.7991 13.0424C12.795 13.0463 12.7909 13.0541 12.7869 13.058C12.1125 13.6671 12.1247 14.6394 12.7016 15.2447C13.2175 15.7875 14.3022 15.9319 14.9806 15.3501C14.9847 15.3462 14.9928 15.3462 14.9969 15.3423L18.2428 12.484C18.5069 12.2536 18.9212 12.2692 19.1609 12.523C19.4047 12.7768 19.3844 13.1712 19.1203 13.4055L18.06 14.3388L23.975 18.9543C24.0928 19.048 24.1984 19.1495 24.2959 19.255V11.6991L22.0778 9.56707C21.8381 9.33278 21.505 9.20001 21.1597 9.20001ZM25.6 11.7069V20.4498C25.6 21.141 26.1809 21.6994 26.9 21.6994H29.5V11.7069H25.6ZM27.55 20.4498C27.1925 20.4498 26.9 20.1687 26.9 19.8251C26.9 19.4814 27.1925 19.2003 27.55 19.2003C27.9075 19.2003 28.2 19.4814 28.2 19.8251C28.2 20.1687 27.9075 20.4498 27.55 20.4498ZM3.5 21.6955H6.1C6.81906 21.6955 7.4 21.1371 7.4 20.4459V11.7069H3.5V21.6955ZM5.45 19.2003C5.8075 19.2003 6.1 19.4814 6.1 19.8251C6.1 20.1687 5.8075 20.4498 5.45 20.4498C5.0925 20.4498 4.8 20.1687 4.8 19.8251C4.8 19.4775 5.0925 19.2003 5.45 19.2003ZM23.1584 19.9266L17.0931 15.1939L15.8744 16.2678C14.6678 17.326 12.8194 17.2244 11.7428 16.0959C10.65 14.9479 10.7353 13.1712 11.9216 12.1247L15.2447 9.20001H11.8403C11.495 9.20001 11.1659 9.33278 10.9222 9.56707L8.7 11.6991V20.442H9.44344L13.12 23.6401C14.2331 24.5109 15.8703 24.3469 16.7762 23.2769L16.7844 23.2691L17.5116 23.8744C18.1575 24.382 19.1122 24.2844 19.6362 23.6635L20.9119 22.1562L21.1312 22.3281C21.6878 22.7615 22.5084 22.6834 22.9594 22.1445L23.3453 21.6877C23.8003 21.1488 23.715 20.3639 23.1584 19.9266Z" fill="#0163BB"/>
</svg>
