<svg width="33" height="33" viewBox="0 0 33 33" fill="none" xmlns="http://www.w3.org/2000/svg">
<rect x="0.5" y="0.5" width="32" height="32" rx="6" fill="#DAF3FF"/>
<path d="M25.4102 14.5V17V19.5" stroke="#0163BB" stroke-width="2" stroke-linecap="round" stroke-linejoin="round"/>
<path d="M18.9141 25.75L21.0791 24.5L23.2442 23.25" stroke="#0163BB" stroke-width="2" stroke-linecap="round" stroke-linejoin="round"/>
<path d="M14.584 25.75L12.419 24.5L10.2539 23.25" stroke="#0163BB" stroke-width="2" stroke-linecap="round" stroke-linejoin="round"/>
<path d="M8.08976 14.5V17V19.5" stroke="#0163BB" stroke-width="2" stroke-linecap="round" stroke-linejoin="round"/>
<path d="M10.2539 10.75L12.419 9.5L14.584 8.25" stroke="#0163BB" stroke-width="2" stroke-linecap="round" stroke-linejoin="round"/>
<path d="M18.9141 8.25L21.0791 9.5L23.2442 10.75" stroke="#0163BB" stroke-width="2" stroke-linecap="round" stroke-linejoin="round"/>
<path d="M16.75 29.5C18.1307 29.5 19.25 28.3807 19.25 27C19.25 25.6193 18.1307 24.5 16.75 24.5C15.3693 24.5 14.25 25.6193 14.25 27C14.25 28.3807 15.3693 29.5 16.75 29.5Z" fill="white" stroke="#0163BB" stroke-width="2" stroke-linecap="round" stroke-linejoin="round"/>
<path d="M16.75 9.5C18.1307 9.5 19.25 8.38069 19.25 7C19.25 5.61929 18.1307 4.5 16.75 4.5C15.3693 4.5 14.25 5.61929 14.25 7C14.25 8.38069 15.3693 9.5 16.75 9.5Z" fill="white" stroke="#0163BB" stroke-width="2" stroke-linecap="round" stroke-linejoin="round"/>
<path d="M16.75 19.5C18.1307 19.5 19.25 18.3807 19.25 17C19.25 15.6193 18.1307 14.5 16.75 14.5C15.3693 14.5 14.25 15.6193 14.25 17C14.25 18.3807 15.3693 19.5 16.75 19.5Z" fill="white" stroke="#0163BB" stroke-width="2" stroke-linecap="round" stroke-linejoin="round"/>
<path d="M25.5 14.5C26.8807 14.5 28 13.3807 28 12C28 10.6193 26.8807 9.5 25.5 9.5C24.1193 9.5 23 10.6193 23 12C23 13.3807 24.1193 14.5 25.5 14.5Z" fill="white" stroke="#0163BB" stroke-width="2" stroke-linecap="round" stroke-linejoin="round"/>
<path d="M25.5 24.5C26.8807 24.5 28 23.3807 28 22C28 20.6193 26.8807 19.5 25.5 19.5C24.1193 19.5 23 20.6193 23 22C23 23.3807 24.1193 24.5 25.5 24.5Z" fill="white" stroke="#0163BB" stroke-width="2" stroke-linecap="round" stroke-linejoin="round"/>
<path d="M8 14.5C9.38069 14.5 10.5 13.3807 10.5 12C10.5 10.6193 9.38069 9.5 8 9.5C6.61929 9.5 5.5 10.6193 5.5 12C5.5 13.3807 6.61929 14.5 8 14.5Z" fill="white" stroke="#0163BB" stroke-width="2" stroke-linecap="round" stroke-linejoin="round"/>
<path d="M8 24.5C9.38069 24.5 10.5 23.3807 10.5 22C10.5 20.6193 9.38069 19.5 8 19.5C6.61929 19.5 5.5 20.6193 5.5 22C5.5 23.3807 6.61929 24.5 8 24.5Z" fill="white" stroke="#0163BB" stroke-width="2" stroke-linecap="round" stroke-linejoin="round"/>
</svg>
