<svg width="33" height="33" viewBox="0 0 33 33" fill="none" xmlns="http://www.w3.org/2000/svg">
<rect x="0.5" y="0.5" width="32" height="32" rx="6" fill="#DAF3FF"/>
<path d="M24.2107 23.1404L22.996 21.8577C23.1507 20.9228 23.1309 19.9673 22.9377 19.0396L24.1232 17.7569C24.2152 17.6544 24.2767 17.5282 24.3008 17.3925C24.3248 17.2568 24.3104 17.1172 24.2593 16.9893C23.7667 15.7746 23.0403 14.6686 22.1214 13.7339C22.0315 13.6441 21.9194 13.5796 21.7965 13.5472C21.6736 13.5148 21.5443 13.5155 21.4218 13.5493L19.6338 14.006C19.0831 13.6103 18.4859 13.284 17.8555 13.0343L17.4182 11.3629C17.3857 11.2273 17.314 11.1043 17.2121 11.0093C17.1101 10.9142 16.9824 10.8513 16.8449 10.8284C16.2393 10.7153 15.6243 10.6599 15.0083 10.6632C14.2374 10.6669 13.4701 10.7681 12.7247 10.9645C12.6003 10.9957 12.4867 11.0601 12.396 11.1508C12.3053 11.2415 12.2409 11.3551 12.2097 11.4795L11.7432 13.1995C11.2217 13.4308 10.7265 13.7175 10.2662 14.0546L8.49762 13.6173C8.37344 13.5849 8.24279 13.5867 8.11958 13.6226C7.99637 13.6586 7.88521 13.7273 7.79796 13.8214C6.83183 14.8251 6.0928 16.0247 5.63098 17.3391C5.5862 17.4661 5.57701 17.603 5.60441 17.7349C5.63182 17.8668 5.69477 17.9886 5.78646 18.0873L7.01085 19.3603C6.94866 19.7691 6.91627 20.1805 6.91368 20.5944C6.91368 20.8859 6.91368 21.1775 6.96227 21.469L5.68929 22.8877C5.60362 22.9821 5.54418 23.0972 5.5169 23.2217C5.48962 23.3461 5.49545 23.4756 5.53381 23.5971C5.93313 24.882 6.59493 26.0699 7.47729 27.0856C7.56603 27.19 7.68238 27.2672 7.81301 27.3085C7.94363 27.3497 8.08324 27.3533 8.21581 27.3189L9.88721 26.8913C10.4727 27.3831 11.1276 27.7859 11.8307 28.0865L12.3166 29.826C12.354 29.9521 12.424 30.0661 12.5195 30.1565C12.6151 30.2469 12.7328 30.3105 12.8607 30.341C13.5614 30.4994 14.2785 30.581 14.9986 30.5839C15.5725 30.5774 16.1426 30.5224 16.7088 30.4187C16.843 30.395 16.9678 30.3342 17.0691 30.2432C17.1705 30.1522 17.2443 30.0345 17.2822 29.9037L17.7389 28.2615C18.5779 27.9614 19.36 27.5211 20.0516 26.9593L21.7619 27.348C21.8901 27.3778 22.0241 27.3718 22.1492 27.3307C22.2743 27.2896 22.3857 27.2149 22.4713 27.1148C23.3234 26.1692 23.9835 25.0668 24.4147 23.8692C24.4496 23.7406 24.4491 23.605 24.4132 23.4767C24.3772 23.3483 24.3073 23.2322 24.2107 23.1404ZM15.086 24.3745C14.5949 24.3837 14.1069 24.2951 13.6504 24.1138C13.1939 23.9326 12.7781 23.6623 12.427 23.3187C12.076 22.9751 11.7969 22.5652 11.6058 22.1127C11.4148 21.6602 11.3157 21.1742 11.3144 20.683C11.313 20.1918 11.4094 19.7053 11.598 19.2518C11.7865 18.7982 12.0634 18.3867 12.4125 18.0412C12.7616 17.6957 13.176 17.4232 13.6315 17.2394C14.087 17.0556 14.5745 16.9643 15.0656 16.9708C16.0475 16.9682 16.9903 17.3558 17.6864 18.0483C18.3825 18.7408 18.7751 19.6815 18.7777 20.6634C18.7802 21.6453 18.3926 22.5881 17.7001 23.2842C17.0076 23.9803 16.067 24.3729 15.085 24.3755" fill="#0163BB"/>
<rect x="18.7324" y="6.98438" width="2.02803" height="5.23236" fill="#0163BB"/>
<rect x="21.9767" y="5.11627" width="2.02803" height="7.10105" fill="#0163BB"/>
<rect x="25.2207" y="6.98438" width="2.02803" height="5.23236" fill="#0163BB"/>
<path d="M19.7458 4.36816L20.0645 5.27203H21.0959L20.2615 5.83065L20.5802 6.73452L19.7458 6.1759L18.9114 6.73452L19.2301 5.83065L18.3957 5.27203H19.4271L19.7458 4.36816Z" fill="#0163BB"/>
<path d="M22.9899 2.5L23.3087 3.40387H24.3401L23.5056 3.96249L23.8244 4.86635L22.9899 4.30773L22.1555 4.86635L22.4742 3.96249L21.6398 3.40387H22.6712L22.9899 2.5Z" fill="#0163BB"/>
<path d="M26.236 4.36816L26.5548 5.27203H27.5862L26.7517 5.83065L27.0705 6.73452L26.236 6.1759L25.4016 6.73452L25.7203 5.83065L24.8859 5.27203H25.9173L26.236 4.36816Z" fill="#0163BB"/>
</svg>
