<?xml version="1.0" encoding="utf-8"?>
<!-- Generator: Adobe Illustrator 21.1.0, SVG Export Plug-In . SVG Version: 6.00 Build 0)  -->
<svg version="1.1" id="Layer_1" xmlns="http://www.w3.org/2000/svg" xmlns:xlink="http://www.w3.org/1999/xlink" x="0px" y="0px"
	 viewBox="0 0 315.2 57.1" style="enable-background:new 0 0 315.2 57.1;" xml:space="preserve">
<style type="text/css">
	.st0{fill:#FFFFFF;}
	.st1{fill:none;}
</style>
<g>
	<g>
		<path class="st0" d="M0,56.2V0h6.9v32l16.3-16.6h8.9L16.6,30.6l17.1,25.6h-8.5L11.8,35.4l-4.9,4.7v16.1H0z"/>
		<path class="st0" d="M82.9,56.2V15.5h6.2v5.8c3-4.5,7.3-6.7,13-6.7c2.5,0,4.7,0.4,6.8,1.3c2.1,0.9,3.6,2,4.6,3.5
			c1,1.4,1.7,3.1,2.1,5.1c0.3,1.3,0.4,3.5,0.4,6.7v25h-6.9V31.4c0-2.8-0.3-4.9-0.8-6.3c-0.5-1.4-1.5-2.5-2.9-3.3
			c-1.4-0.8-3-1.2-4.8-1.2c-2.9,0-5.5,0.9-7.6,2.8c-2.1,1.9-3.2,5.4-3.2,10.6v22.2H82.9z"/>
		<path class="st0" d="M154.4,43.1l7.1,0.9c-1.1,4.2-3.2,7.4-6.2,9.7c-3,2.3-6.9,3.5-11.7,3.5c-6,0-10.7-1.8-14.2-5.5
			c-3.5-3.7-5.2-8.8-5.2-15.4c0-6.8,1.8-12.2,5.3-15.9c3.5-3.8,8.1-5.7,13.7-5.7c5.4,0,9.9,1.9,13.3,5.6c3.5,3.7,5.2,8.9,5.2,15.6
			c0,0.4,0,1,0,1.8h-30.4c0.3,4.5,1.5,7.9,3.8,10.3c2.3,2.4,5.1,3.6,8.5,3.6c2.5,0,4.7-0.7,6.5-2C151.9,48.1,153.4,46,154.4,43.1z
			 M131.8,31.9h22.7c-0.3-3.4-1.2-6-2.6-7.7c-2.2-2.7-5-4-8.5-4c-3.2,0-5.8,1.1-8,3.2C133.2,25.5,132,28.4,131.8,31.9z"/>
		<path class="st0" d="M196.8,41.3l6.8,0.9c-0.7,4.7-2.6,8.3-5.7,11c-3.1,2.6-6.8,4-11.3,4c-5.6,0-10.1-1.8-13.4-5.5
			c-3.4-3.6-5.1-8.9-5.1-15.7c0-4.4,0.7-8.2,2.2-11.5c1.5-3.3,3.7-5.8,6.7-7.4c3-1.6,6.2-2.5,9.7-2.5c4.4,0,8,1.1,10.8,3.4
			c2.8,2.2,4.6,5.4,5.4,9.5l-6.7,1c-0.6-2.7-1.8-4.8-3.4-6.2c-1.6-1.4-3.6-2.1-5.9-2.1c-3.5,0-6.3,1.2-8.5,3.7
			c-2.2,2.5-3.3,6.4-3.3,11.8c0,5.5,1,9.4,3.1,11.9c2.1,2.5,4.8,3.7,8.2,3.7c2.7,0,5-0.8,6.8-2.5C195.1,47.3,196.3,44.7,196.8,41.3z
			"/>
		<path class="st0" d="M224.5,50l1,6.1c-1.9,0.4-3.7,0.6-5.2,0.6c-2.5,0-4.4-0.4-5.8-1.2c-1.4-0.8-2.4-1.8-2.9-3.1
			c-0.6-1.3-0.8-4-0.8-8.1V20.9h-5.1v-5.4h5.1V5.4l6.9-4.1v14.2h6.9v5.4h-6.9v23.8c0,2,0.1,3.2,0.4,3.8c0.2,0.6,0.6,1,1.2,1.3
			c0.5,0.3,1.3,0.5,2.4,0.5C222.3,50.3,223.3,50.2,224.5,50z"/>
		<path class="st0" d="M257.8,51.2c-2.6,2.2-5,3.7-7.4,4.6c-2.4,0.9-4.9,1.3-7.6,1.3c-4.5,0-7.9-1.1-10.3-3.3
			c-2.4-2.2-3.6-5-3.6-8.4c0-2,0.5-3.8,1.4-5.5c0.9-1.6,2.1-3,3.6-4c1.5-1,3.1-1.8,5-2.3c1.4-0.4,3.4-0.7,6.1-1
			c5.6-0.7,9.7-1.5,12.3-2.4c0-0.9,0-1.5,0-1.8c0-2.8-0.7-4.8-2-5.9c-1.8-1.6-4.4-2.3-7.9-2.3c-3.2,0-5.6,0.6-7.2,1.7
			c-1.5,1.1-2.7,3.2-3.4,6l-6.7-0.9c0.6-2.9,1.6-5.2,3-7c1.4-1.8,3.4-3.1,6.1-4.1c2.7-1,5.7-1.4,9.2-1.4c3.5,0,6.3,0.4,8.5,1.2
			c2.2,0.8,3.8,1.8,4.8,3.1c1,1.2,1.7,2.8,2.1,4.7c0.2,1.2,0.3,3.3,0.3,6.4v9.2c0,6.4,0.1,10.5,0.4,12.2c0.3,1.7,0.9,3.3,1.7,4.9
			h-7.2C258.5,54.8,258,53.1,257.8,51.2z M257.3,35.8c-2.5,1-6.3,1.9-11.3,2.6c-2.8,0.4-4.8,0.9-6,1.4c-1.2,0.5-2.1,1.3-2.7,2.2
			c-0.6,1-1,2.1-1,3.3c0,1.8,0.7,3.4,2.1,4.6c1.4,1.2,3.4,1.8,6.1,1.8c2.7,0,5-0.6,7.1-1.7c2.1-1.2,3.6-2.8,4.6-4.8
			c0.7-1.6,1.1-3.9,1.1-6.9V35.8z"/>
		<path class="st0" d="M274.9,56.2V15.5h6.2v6.2c1.6-2.9,3-4.8,4.4-5.7c1.3-0.9,2.8-1.4,4.4-1.4c2.3,0,4.7,0.7,7.1,2.2l-2.4,6.4
			c-1.7-1-3.4-1.5-5.1-1.5c-1.5,0-2.9,0.5-4.1,1.4c-1.2,0.9-2.1,2.2-2.6,3.8c-0.8,2.5-1.2,5.1-1.2,8.1v21.3H274.9z"/>
		<g>
			<circle class="st0" cx="55.7" cy="52.3" r="3.9"/>
			<circle class="st0" cx="55.7" cy="18.4" r="3.9"/>
			<path class="st0" d="M51.9,48.1c-5.4-1.6-9.4-6.7-9.4-12.7c0-6,4-11,9.4-12.7c-1.2-1-1.9-2.6-1.9-4.2c0-1.1,0.3-2.1,0.8-2.9
				c0,0,0,0,0,0c-8.9,2.2-15.6,10.3-15.6,19.9c0,9.6,6.6,17.7,15.6,19.9c0,0,0,0,0,0c-0.5-0.9-0.8-1.9-0.8-2.9
				C50,50.6,50.7,49.1,51.9,48.1z"/>
			<path class="st0" d="M60.6,15.5c0.5,0.9,0.8,1.9,0.8,3c0,1.7-0.7,3.2-1.9,4.2C65,24.3,69,29.4,69,35.4c0,6-4,11-9.4,12.7
				c1.2,1,1.9,2.6,1.9,4.2c0,1.1-0.3,2.1-0.8,3c8.9-2.2,15.6-10.3,15.6-19.9C76.2,25.8,69.5,17.7,60.6,15.5z"/>
		</g>
	</g>
	<g>
		<rect x="297" y="6.5" class="st1" width="5.4" height="8"/>
		<g>
			<g>
				<path class="st0" d="M303.6,13.2h-1.3V6.5h-2.3V5.4h5.9v1.1h-2.3V13.2z"/>
				<path class="st0" d="M310.5,13.2l-2.3-6.5h0c0.1,1,0.1,1.9,0.1,2.7v3.8h-1.2V5.4h1.8l2.2,6.2h0l2.2-6.2h1.8v7.8h-1.2V9.4
					c0-0.4,0-0.9,0-1.5c0-0.6,0-1,0.1-1.1h0l-2.3,6.5H310.5z"/>
			</g>
		</g>
	</g>
</g>
</svg>
