<?xml version="1.0" encoding="utf-8"?>
<!-- Generator: Adobe Illustrator 23.0.6, SVG Export Plug-In . SVG Version: 6.00 Build 0)  -->
<svg version="1.1" id="Layer_1" xmlns="http://www.w3.org/2000/svg" xmlns:xlink="http://www.w3.org/1999/xlink" x="0px" y="0px"
	 width="300px" height="42.4px" viewBox="0 0 300 42.4" style="enable-background:new 0 0 300 42.4;" xml:space="preserve">
<style type="text/css">
	.st0{fill:#F96731;}
	.st1{fill:#2B9AF3;}
	.st2{fill:#205F7F;}
</style>
<g>
	<g>
		<g>
			<g>
				<g>
					<path d="M0,41.7V1.1h5v23.2l11.8-12h6.5L12,23.2l12.4,18.5h-6.2L8.5,26.7L5,30.1v11.6H0z"/>
					<path d="M59.9,41.7V12.3h4.5v4.2c2.2-3.2,5.3-4.8,9.4-4.8c1.8,0,3.4,0.3,4.9,1c1.5,0.6,2.6,1.5,3.3,2.5c0.7,1,1.3,2.3,1.5,3.7
						c0.2,0.9,0.3,2.5,0.3,4.8v18.1h-5V23.8c0-2-0.2-3.6-0.6-4.6c-0.4-1-1.1-1.8-2.1-2.4c-1-0.6-2.1-0.9-3.5-0.9c-2.1,0-4,0.7-5.5,2
						s-2.3,3.9-2.3,7.7v16.1H59.9z"/>
					<path d="M111.6,32.2l5.2,0.6c-0.8,3-2.3,5.3-4.5,7c-2.2,1.7-5,2.5-8.4,2.5c-4.3,0-7.7-1.3-10.2-4c-2.5-2.7-3.8-6.4-3.8-11.2
						c0-4.9,1.3-8.8,3.8-11.5c2.5-2.7,5.9-4.1,9.9-4.1c3.9,0,7.1,1.3,9.6,4c2.5,2.7,3.8,6.5,3.8,11.3c0,0.3,0,0.7,0,1.3H95
						c0.2,3.2,1.1,5.7,2.8,7.4c1.6,1.7,3.7,2.6,6.2,2.6c1.8,0,3.4-0.5,4.7-1.4C109.8,35.9,110.9,34.3,111.6,32.2z M95.2,24.2h16.4
						c-0.2-2.5-0.9-4.3-1.9-5.6c-1.6-1.9-3.7-2.9-6.2-2.9c-2.3,0-4.2,0.8-5.8,2.3C96.3,19.5,95.4,21.6,95.2,24.2z"/>
					<path d="M142.2,30.9l4.9,0.6c-0.5,3.4-1.9,6-4.1,7.9c-2.2,1.9-4.9,2.9-8.1,2.9c-4,0-7.3-1.3-9.7-3.9c-2.4-2.6-3.7-6.4-3.7-11.3
						c0-3.2,0.5-6,1.6-8.3s2.7-4.2,4.8-5.4c2.2-1.2,4.5-1.8,7-1.8c3.2,0,5.8,0.8,7.8,2.4c2,1.6,3.3,3.9,3.9,6.9l-4.8,0.8
						c-0.5-2-1.3-3.5-2.4-4.5c-1.2-1-2.6-1.5-4.3-1.5c-2.5,0-4.6,0.9-6.1,2.7c-1.6,1.8-2.4,4.7-2.4,8.6c0,3.9,0.8,6.8,2.3,8.6
						c1.5,1.8,3.5,2.7,5.9,2.7c1.9,0,3.6-0.6,4.9-1.8C141.1,35.3,141.9,33.4,142.2,30.9z"/>
					<path d="M162.3,37.2l0.7,4.4c-1.4,0.3-2.7,0.5-3.8,0.5c-1.8,0-3.2-0.3-4.2-0.9c-1-0.6-1.7-1.3-2.1-2.3
						c-0.4-0.9-0.6-2.9-0.6-5.9v-17h-3.7v-3.9h3.7V5l5-3v10.3h5v3.9h-5v17.2c0,1.4,0.1,2.3,0.3,2.8c0.2,0.4,0.5,0.7,0.9,1
						c0.4,0.2,1,0.4,1.7,0.4C160.7,37.4,161.4,37.4,162.3,37.2z"/>
					<path d="M186.4,38.1c-1.9,1.6-3.6,2.7-5.3,3.3c-1.7,0.6-3.5,1-5.5,1c-3.2,0-5.7-0.8-7.5-2.4c-1.7-1.6-2.6-3.6-2.6-6.1
						c0-1.4,0.3-2.8,1-3.9c0.7-1.2,1.5-2.1,2.6-2.9c1.1-0.7,2.3-1.3,3.6-1.6c1-0.3,2.4-0.5,4.4-0.8c4-0.5,7-1,8.9-1.7
						c0-0.7,0-1.1,0-1.3c0-2-0.5-3.5-1.4-4.3c-1.3-1.1-3.2-1.7-5.7-1.7c-2.4,0-4.1,0.4-5.2,1.2s-1.9,2.3-2.5,4.4l-4.9-0.7
						c0.5-2.1,1.2-3.8,2.2-5.1s2.5-2.3,4.4-3c1.9-0.7,4.2-1,6.7-1s4.6,0.3,6.1,0.9c1.6,0.6,2.7,1.3,3.5,2.2c0.7,0.9,1.3,2,1.5,3.4
						c0.2,0.9,0.3,2.4,0.3,4.6v6.7c0,4.6,0.1,7.6,0.3,8.8c0.2,1.2,0.6,2.4,1.3,3.5h-5.2C186.9,40.7,186.6,39.5,186.4,38.1z
						 M186,26.9c-1.8,0.7-4.5,1.4-8.1,1.9c-2,0.3-3.5,0.6-4.3,1s-1.5,0.9-2,1.6c-0.5,0.7-0.7,1.5-0.7,2.4c0,1.3,0.5,2.4,1.5,3.3
						c1,0.9,2.5,1.3,4.4,1.3c1.9,0,3.6-0.4,5.1-1.3s2.6-2,3.3-3.4c0.5-1.1,0.8-2.8,0.8-5L186,26.9L186,26.9z"/>
					<path d="M198.7,41.7V12.3h4.5v4.5c1.1-2.1,2.2-3.5,3.2-4.1c1-0.7,2-1,3.2-1c1.7,0,3.4,0.5,5.1,1.6l-1.7,4.6
						c-1.2-0.7-2.4-1.1-3.7-1.1c-1.1,0-2.1,0.3-2.9,1c-0.9,0.7-1.5,1.6-1.9,2.7c-0.5,1.8-0.8,3.7-0.8,5.8v15.4H198.7z"/>
					<g>
						<circle class="st0" cx="40.3" cy="38.9" r="2.8"/>
						<circle class="st0" cx="40.3" cy="14.4" r="2.8"/>
						<path class="st1" d="M37.5,35.8c-3.9-1.2-6.8-4.8-6.8-9.2s2.9-8,6.8-9.2c-0.8-0.8-1.4-1.9-1.4-3.1c0-0.8,0.2-1.5,0.6-2.1
							c0,0,0,0,0,0c-6.5,1.6-11.3,7.4-11.3,14.4S30.3,39.5,36.7,41c0,0,0,0,0,0c-0.4-0.6-0.6-1.4-0.6-2.1
							C36.1,37.7,36.6,36.6,37.5,35.8z"/>
						<path class="st1" d="M43.8,12.3c0.4,0.6,0.6,1.4,0.6,2.1c0,1.2-0.5,2.3-1.4,3.1c3.9,1.2,6.8,4.8,6.8,9.2s-2.9,8-6.8,9.2
							c0.8,0.8,1.4,1.9,1.4,3.1c0,0.8-0.2,1.5-0.6,2.1c6.5-1.6,11.3-7.4,11.3-14.4C55.1,19.7,50.3,13.9,43.8,12.3z"/>
					</g>
				</g>
			</g>
		</g>
		<g>
			<path d="M222.3,6.6c0,2.7-2.1,4.8-4.9,4.8c-2.7,0-4.9-2.1-4.9-4.8c0-2.6,2.2-4.8,4.9-4.8C220.2,1.9,222.3,4,222.3,6.6z
				 M213.7,6.6c0,2.1,1.6,3.8,3.7,3.8c2.1,0,3.6-1.7,3.6-3.8c0-2.1-1.5-3.8-3.7-3.8C215.3,2.8,213.7,4.5,213.7,6.6z M216.7,9.1h-1.1
				V4.4c0.4-0.1,1-0.1,1.8-0.1c0.9,0,1.3,0.1,1.7,0.4c0.3,0.2,0.5,0.6,0.5,1c0,0.5-0.4,0.9-1,1.1v0.1c0.5,0.2,0.7,0.5,0.9,1.2
				c0.1,0.7,0.2,1,0.4,1.2h-1.2c-0.1-0.2-0.2-0.6-0.4-1.2c-0.1-0.5-0.4-0.8-1-0.8h-0.5L216.7,9.1L216.7,9.1z M216.7,6.4h0.5
				c0.6,0,1.1-0.2,1.1-0.7c0-0.4-0.3-0.7-1-0.7c-0.3,0-0.5,0-0.6,0L216.7,6.4L216.7,6.4z"/>
		</g>
	</g>
	<g>
		<path class="st2" d="M238.9,17.3c-2.6,0-4.7,0.9-6.2,2.8c-1.5,1.8-2.2,4.4-2.2,7.7c0,3.4,0.7,6,2.2,7.7c1.4,1.7,3.5,2.6,6.2,2.6
			c1.2,0,2.3-0.1,3.4-0.4c1.1-0.2,2.2-0.5,3.4-0.9v3.9c-2.2,0.8-4.6,1.2-7.4,1.2c-4.1,0-7.2-1.2-9.4-3.7c-2.2-2.5-3.3-6-3.3-10.6
			c0-2.9,0.5-5.4,1.6-7.6s2.6-3.8,4.6-5c2-1.2,4.3-1.7,7-1.7c2.8,0,5.5,0.6,7.9,1.8l-1.6,3.8c-0.9-0.4-1.9-0.8-3-1.2
			C241.2,17.5,240.1,17.3,238.9,17.3z"/>
		<path class="st2" d="M274.9,41.6h-5.6l-13.7-22.1h-0.2l0.1,1.2c0.2,2.4,0.3,4.5,0.3,6.5v14.4h-4.1V13.8h5.5l13.6,22h0.1
			c0-0.3-0.1-1.4-0.2-3.2c-0.1-1.8-0.1-3.3-0.1-4.3V13.8h4.2V41.6z"/>
		<path class="st2" d="M298.2,34c0,2.5-0.9,4.4-2.7,5.8c-1.8,1.4-4.2,2.1-7.4,2.1s-5.7-0.5-7.7-1.5v-4.3c1.3,0.6,2.6,1.1,4,1.4
			s2.8,0.5,4,0.5c1.8,0,3.1-0.3,4-1c0.9-0.7,1.3-1.6,1.3-2.8c0-1-0.4-1.9-1.2-2.6c-0.8-0.7-2.4-1.6-4.9-2.6c-2.5-1-4.3-2.2-5.4-3.5
			s-1.6-2.9-1.6-4.7c0-2.3,0.8-4.1,2.5-5.5s3.9-2,6.6-2c2.7,0,5.3,0.6,7.9,1.7l-1.4,3.7c-2.5-1-4.7-1.6-6.6-1.6
			c-1.5,0-2.6,0.3-3.3,1c-0.8,0.6-1.1,1.5-1.1,2.5c0,0.7,0.2,1.3,0.5,1.9c0.3,0.5,0.8,1,1.5,1.5c0.7,0.5,1.9,1.1,3.8,1.8
			c2,0.8,3.5,1.6,4.5,2.4s1.6,1.6,2.1,2.5C298,31.7,298.2,32.8,298.2,34z"/>
	</g>
</g>
</svg>
