<?xml version="1.0" encoding="utf-8"?>
<!-- Generator: Adobe Illustrator 23.0.6, SVG Export Plug-In . SVG Version: 6.00 Build 0)  -->
<svg version="1.1" id="Layer_1" xmlns="http://www.w3.org/2000/svg" xmlns:xlink="http://www.w3.org/1999/xlink" x="0px" y="0px"
	 width="300px" height="42.9px" viewBox="0 0 300 42.9" style="enable-background:new 0 0 300 42.9;" xml:space="preserve">
<style type="text/css">
	.st0{fill:#FFFFFF;}
	.st1{fill:#F96731;}
	.st2{fill:#2B9AF3;}
</style>
<g>
	<g>
		<g>
			<g>
				<g>
					<path class="st0" d="M86,37V1.5h4.4v20.2l10.3-10.4h5.6l-9.8,9.5L107.3,37h-5.4l-8.5-13.1l-3.1,2.9V37H86z"/>
					<path class="st0" d="M138.3,37V11.3h3.9v3.6c1.9-2.8,4.6-4.2,8.2-4.2c1.6,0,3,0.3,4.3,0.8c1.3,0.6,2.3,1.3,2.9,2.2
						c0.6,0.9,1.1,2,1.3,3.2c0.2,0.8,0.2,2.2,0.2,4.2v15.8h-4.4V21.3c0-1.8-0.2-3.1-0.5-4s-0.9-1.6-1.8-2.1c-0.9-0.5-1.9-0.8-3-0.8
						c-1.8,0-3.5,0.6-4.8,1.8s-2,3.4-2,6.7V37H138.3z"/>
					<path class="st0" d="M183.4,28.7l4.5,0.6c-0.7,2.6-2,4.7-3.9,6.1c-1.9,1.5-4.4,2.2-7.4,2.2c-3.8,0-6.7-1.2-8.9-3.5
						s-3.3-5.6-3.3-9.7c0-4.3,1.1-7.7,3.3-10.1s5.1-3.6,8.7-3.6c3.4,0,6.2,1.2,8.4,3.5s3.3,5.6,3.3,9.9c0,0.2,0,0.6,0,1.2h-19.2
						c0.2,2.8,1,5,2.4,6.5s3.2,2.3,5.4,2.3c1.6,0,3-0.4,4.1-1.3C181.9,31.9,182.7,30.5,183.4,28.7z M169.1,21.7h14.3
						c-0.2-2.2-0.7-3.8-1.6-4.9c-1.4-1.7-3.2-2.5-5.4-2.5c-2,0-3.7,0.7-5,2C170,17.6,169.2,19.4,169.1,21.7z"/>
					<path class="st0" d="M210.1,27.5l4.3,0.6c-0.5,2.9-1.7,5.3-3.6,6.9c-1.9,1.7-4.3,2.5-7.1,2.5c-3.5,0-6.3-1.1-8.5-3.4
						c-2.1-2.3-3.2-5.6-3.2-9.9c0-2.8,0.5-5.2,1.4-7.3c0.9-2.1,2.3-3.6,4.2-4.7c1.9-1,3.9-1.6,6.1-1.6c2.8,0,5.1,0.7,6.8,2.1
						c1.8,1.4,2.9,3.4,3.4,6l-4.2,0.7c-0.4-1.7-1.1-3-2.1-3.9c-1-0.9-2.3-1.3-3.7-1.3c-2.2,0-4,0.8-5.3,2.4
						c-1.4,1.6-2.1,4.1-2.1,7.5s0.7,6,2,7.5c1.3,1.6,3,2.3,5.2,2.3c1.7,0,3.1-0.5,4.3-1.6C209.1,31.3,209.8,29.7,210.1,27.5z"/>
					<path class="st0" d="M227.7,33.1l0.6,3.9c-1.2,0.2-2.3,0.4-3.3,0.4c-1.6,0-2.8-0.2-3.7-0.7s-1.5-1.2-1.8-2
						c-0.4-0.8-0.5-2.5-0.5-5.1v-15h-3.2v-3.4h3.2V4.9l4.3-2.6v9h4.4v3.3h-4.4v15c0,1.2,0.1,2,0.2,2.4c0.1,0.4,0.4,0.6,0.7,0.9
						c0.4,0.2,0.9,0.3,1.5,0.3C226.2,33.2,226.9,33.2,227.7,33.1z"/>
					<path class="st0" d="M248.7,33.8c-1.6,1.4-3.2,2.3-4.7,2.9c-1.5,0.6-3.1,0.9-4.8,0.9c-2.8,0-5-0.7-6.5-2.1
						c-1.5-1.4-2.3-3.2-2.3-5.3c0-1.3,0.3-2.4,0.9-3.4c0.6-1,1.3-1.9,2.3-2.5c0.9-0.6,2-1.1,3.1-1.4c0.9-0.2,2.1-0.4,3.9-0.7
						c3.5-0.4,6.1-0.9,7.8-1.5c0-0.6,0-1,0-1.1c0-1.8-0.4-3-1.2-3.8c-1.1-1-2.8-1.5-5-1.5c-2.1,0-3.6,0.4-4.5,1.1s-1.7,2-2.2,3.8
						l-4.3-0.6c0.4-1.8,1-3.3,1.9-4.4s2.2-2,3.9-2.6s3.6-0.9,5.8-0.9s4,0.2,5.3,0.8c1.4,0.5,2.4,1.2,3,1.9c0.6,0.8,1.1,1.8,1.3,3
						c0.1,0.7,0.2,2.1,0.2,4v5.8c0,4,0.1,6.6,0.3,7.7s0.6,2.1,1.1,3.1h-4.5C249.1,36.1,248.8,35,248.7,33.8z M248.3,24.1
						c-1.6,0.6-4,1.2-7.1,1.6c-1.8,0.2-3,0.5-3.8,0.9c-0.7,0.3-1.3,0.8-1.7,1.4s-0.6,1.3-0.6,2.1c0,1.2,0.4,2.1,1.3,2.9
						c0.9,0.8,2.2,1.2,3.9,1.2s3.2-0.4,4.5-1.1s2.3-1.7,2.9-3c0.5-1,0.7-2.4,0.7-4.4L248.3,24.1L248.3,24.1z"/>
					<path class="st0" d="M259.4,37V11.3h3.9v3.9c1-1.8,1.9-3,2.8-3.6s1.8-0.9,2.8-0.9c1.5,0,3,0.5,4.5,1.4l-1.5,4
						c-1.1-0.6-2.1-1-3.2-1c-1,0-1.8,0.3-2.6,0.9c-0.8,0.6-1.3,1.4-1.6,2.4c-0.5,1.6-0.7,3.2-0.7,5.1V37H259.4z"/>
					<g>
						<circle class="st0" cx="121.1" cy="34.5" r="2.4"/>
						<circle class="st0" cx="121.1" cy="13.1" r="2.4"/>
						<path class="st0" d="M118.7,31.8c-3.4-1-6-4.2-6-8s2.5-7,6-8c-0.7-0.7-1.2-1.6-1.2-2.7c0-0.7,0.2-1.3,0.5-1.8l0,0
							c-5.6,1.4-9.8,6.5-9.8,12.5s4.2,11.2,9.8,12.5l0,0c-0.3-0.5-0.5-1.2-0.5-1.8C117.5,33.5,118,32.5,118.7,31.8z"/>
						<path class="st0" d="M124.2,11.3c0.3,0.5,0.5,1.2,0.5,1.9c0,1.1-0.5,2-1.2,2.7c3.4,1,6,4.2,6,8s-2.5,7-6,8
							c0.7,0.7,1.2,1.6,1.2,2.7c0,0.7-0.2,1.3-0.5,1.9c5.6-1.4,9.8-6.5,9.8-12.5C134,17.8,129.9,12.7,124.2,11.3z"/>
					</g>
				</g>
			</g>
		</g>
		<g>
			<path class="st0" d="M281.9,5.3c0,2.9-2.2,5.1-5.2,5.1c-2.9,0-5.2-2.2-5.2-5.1c0-2.8,2.3-5.1,5.2-5.1
				C279.7,0.4,281.9,2.5,281.9,5.3z M272.7,5.3c0,2.2,1.7,4,4,4c2.2,0,3.9-1.8,3.9-4s-1.6-4.1-3.9-4.1
				C274.4,1.3,272.7,3.2,272.7,5.3z M275.9,8h-1.2V3c0.5-0.1,1.1-0.1,2-0.1c1,0,1.3,0.1,1.8,0.4c0.2,0.2,0.5,0.6,0.5,1.1
				c0,0.6-0.5,1-1.1,1.2v0.1c0.5,0.1,0.7,0.6,1,1.2c0.1,0.7,0.2,1.1,0.4,1.2H278c-0.1-0.1-0.2-0.6-0.4-1.2c-0.1-0.6-0.4-0.9-1.1-0.9
				h-0.6V8L275.9,8z M275.9,5.2h0.6c0.6,0,1.2-0.2,1.2-0.7s-0.4-0.7-1.1-0.7c-0.2,0-0.5,0-0.6,0L275.9,5.2L275.9,5.2z"/>
		</g>
	</g>
	<g>
		<path class="st0" d="M26.8,34.5h-4.3l-4.1-14.4c-0.2-0.6-0.4-1.5-0.7-2.7c-0.3-1.2-0.4-2-0.5-2.5c-0.1,0.7-0.3,1.6-0.5,2.7
			s-0.5,2-0.6,2.5l-4,14.3H7.8l-3.1-12l-3.1-12h4l3.4,14c0.5,2.3,0.9,4.3,1.2,6c0.1-0.9,0.3-2,0.5-3.1c0.2-1.2,0.5-2.1,0.7-2.8
			l3.9-14.1h3.9l4,14.2c0.4,1.3,0.8,3.3,1.2,5.9c0.2-1.6,0.6-3.6,1.2-6l3.4-14h4L26.8,34.5z"/>
		<path class="st0" d="M52.2,34.5h-3.9V23.3c0-1.4-0.3-2.5-0.9-3.2c-0.6-0.7-1.5-1-2.7-1c-1.6,0-2.8,0.5-3.6,1.5S40,23.2,40,25.5
			v9.1h-3.9V8.8H40v6.5c0,1-0.1,2.2-0.2,3.4H40c0.5-0.9,1.3-1.6,2.2-2c0.9-0.5,2-0.7,3.3-0.7c4.4,0,6.6,2.2,6.6,6.7v11.8H52.2z"/>
		<path class="st0" d="M54.8,16.2H59l3.8,10.4c0.6,1.5,0.9,2.9,1.1,4.2H64c0.1-0.6,0.3-1.3,0.5-2.2c0.3-0.9,1.7-5,4.2-12.3H73
			L65.2,37c-1.4,3.8-3.8,5.7-7.1,5.7c-0.9,0-1.7-0.1-2.5-0.3v-3.1c0.6,0.1,1.3,0.2,2,0.2c1.9,0,3.2-1.1,3.9-3.3l0.7-1.7L54.8,16.2z"
			/>
		<path class="st0" d="M288.6,27.2v-1.1c0-1.2,0.2-2.2,0.7-3c0.4-0.8,1.2-1.6,2.3-2.5c1.3-1,2.2-1.8,2.5-2.4c0.4-0.6,0.6-1.3,0.6-2
			c0-0.9-0.3-1.6-0.9-2.1s-1.5-0.7-2.7-0.7c-1,0-2,0.1-2.9,0.4c-0.9,0.3-1.8,0.7-2.6,1.1l-1.4-2.9c2.2-1.2,4.6-1.9,7.2-1.9
			c2.2,0,3.9,0.5,5.1,1.6c1.3,1.1,1.9,2.5,1.9,4.4c0,0.8-0.1,1.6-0.4,2.2s-0.6,1.3-1.1,1.8s-1.3,1.3-2.5,2.3c-1,0.8-1.7,1.5-2.1,2
			c-0.3,0.5-0.5,1.2-0.5,2.1v0.7H288.6z M288,32.4c0-1.7,0.8-2.5,2.4-2.5c0.8,0,1.4,0.2,1.8,0.7c0.4,0.4,0.6,1,0.6,1.8
			c0,0.8-0.2,1.4-0.6,1.9s-1,0.7-1.8,0.7s-1.4-0.2-1.8-0.7C288.2,33.9,288,33.2,288,32.4z"/>
	</g>
</g>
<g>
	<g>
		<g>
			<g>
				<path d="M86-129.1v-35.5h4.4v20.2l10.3-10.4h5.6l-9.8,9.5l10.8,16.2h-5.4l-8.5-13.1l-3.1,2.9v10.2H86z"/>
				<path d="M138.3-129.1v-25.7h3.9v3.6c1.9-2.8,4.6-4.2,8.2-4.2c1.6,0,3,0.3,4.3,0.8s2.3,1.3,2.9,2.2c0.6,0.9,1.1,2,1.3,3.2
					c0.2,0.8,0.2,2.2,0.2,4.2v15.8h-4.4v-15.6c0-1.8-0.2-3.1-0.5-4c-0.3-0.9-0.9-1.6-1.8-2.1c-0.9-0.5-1.9-0.8-3-0.8
					c-1.8,0-3.5,0.6-4.8,1.8c-1.3,1.2-2,3.4-2,6.7v14.1H138.3z"/>
				<path d="M183.4-137.3l4.5,0.6c-0.7,2.6-2,4.7-3.9,6.1c-1.9,1.5-4.4,2.2-7.4,2.2c-3.8,0-6.7-1.2-8.9-3.5
					c-2.2-2.3-3.3-5.6-3.3-9.7c0-4.3,1.1-7.7,3.3-10.1c2.2-2.4,5.1-3.6,8.7-3.6c3.4,0,6.2,1.2,8.4,3.5c2.2,2.3,3.3,5.6,3.3,9.9
					c0,0.2,0,0.6,0,1.2h-19.2c0.2,2.8,1,5,2.4,6.5c1.4,1.5,3.2,2.3,5.4,2.3c1.6,0,3-0.4,4.1-1.3
					C181.9-134.1,182.8-135.5,183.4-137.3z M169.1-144.4h14.3c-0.2-2.2-0.7-3.8-1.6-4.9c-1.4-1.7-3.2-2.5-5.4-2.5c-2,0-3.7,0.7-5,2
					C170.1-148.4,169.3-146.6,169.1-144.4z"/>
				<path d="M210.2-138.5l4.3,0.6c-0.5,2.9-1.7,5.3-3.6,6.9c-1.9,1.7-4.3,2.5-7.1,2.5c-3.5,0-6.3-1.1-8.5-3.4
					c-2.1-2.3-3.2-5.6-3.2-9.9c0-2.8,0.5-5.2,1.4-7.3c0.9-2.1,2.3-3.6,4.2-4.7c1.9-1,3.9-1.6,6.1-1.6c2.8,0,5.1,0.7,6.8,2.1
					c1.8,1.4,2.9,3.4,3.4,6l-4.2,0.7c-0.4-1.7-1.1-3-2.1-3.9c-1-0.9-2.3-1.3-3.7-1.3c-2.2,0-4,0.8-5.3,2.4c-1.4,1.6-2.1,4.1-2.1,7.5
					c0,3.4,0.7,6,2,7.5c1.3,1.6,3,2.3,5.2,2.3c1.7,0,3.1-0.5,4.3-1.6C209.2-134.7,209.9-136.3,210.2-138.5z"/>
				<path d="M227.7-132.9l0.6,3.9c-1.2,0.2-2.3,0.4-3.3,0.4c-1.6,0-2.8-0.2-3.7-0.7c-0.9-0.5-1.5-1.2-1.8-2s-0.5-2.5-0.5-5.1v-14.8
					h-3.2v-3.4h3.2v-6.4l4.3-2.6v9h4.4v3.4h-4.4v15c0,1.2,0.1,2,0.2,2.4c0.1,0.4,0.4,0.6,0.7,0.9c0.4,0.2,0.9,0.3,1.5,0.3
					C226.3-132.8,226.9-132.8,227.7-132.9z"/>
				<path d="M248.7-132.2c-1.6,1.4-3.2,2.3-4.7,2.9c-1.5,0.6-3.1,0.9-4.8,0.9c-2.8,0-5-0.7-6.5-2.1c-1.5-1.4-2.3-3.2-2.3-5.3
					c0-1.3,0.3-2.4,0.9-3.4c0.6-1,1.3-1.9,2.3-2.5c0.9-0.6,2-1.1,3.1-1.4c0.9-0.2,2.1-0.4,3.9-0.7c3.5-0.4,6.1-0.9,7.8-1.5
					c0-0.6,0-1,0-1.1c0-1.8-0.4-3-1.2-3.8c-1.1-1-2.8-1.5-5-1.5c-2.1,0-3.6,0.4-4.5,1.1s-1.7,2-2.2,3.8l-4.3-0.6
					c0.4-1.8,1-3.3,1.9-4.4s2.2-2,3.9-2.6c1.7-0.6,3.6-0.9,5.8-0.9c2.2,0,4,0.2,5.3,0.8c1.4,0.5,2.4,1.2,3,1.9
					c0.6,0.8,1.1,1.8,1.3,3c0.1,0.7,0.2,2.1,0.2,4v5.8c0,4,0.1,6.6,0.3,7.7c0.2,1.1,0.6,2.1,1.1,3.1h-4.5
					C249.1-129.9,248.9-131,248.7-132.2z M248.4-141.9c-1.6,0.6-4,1.2-7.1,1.6c-1.8,0.2-3,0.5-3.8,0.9c-0.7,0.3-1.3,0.8-1.7,1.4
					c-0.4,0.6-0.6,1.3-0.6,2.1c0,1.2,0.4,2.1,1.3,2.9c0.9,0.8,2.2,1.2,3.9,1.2c1.7,0,3.2-0.4,4.5-1.1s2.3-1.7,2.9-3
					c0.5-1,0.7-2.4,0.7-4.4L248.4-141.9L248.4-141.9z"/>
				<path d="M259.5-129.1v-25.7h3.9v3.9c1-1.8,1.9-3,2.8-3.6c0.9-0.6,1.8-0.9,2.8-0.9c1.5,0,3,0.5,4.5,1.4l-1.5,4
					c-1.1-0.6-2.1-1-3.2-1c-1,0-1.8,0.3-2.6,0.9c-0.8,0.6-1.3,1.4-1.6,2.4c-0.5,1.6-0.7,3.2-0.7,5.1v13.5H259.5z"/>
				<g>
					<circle class="st1" cx="121.1" cy="-131.5" r="2.4"/>
					<circle class="st1" cx="121.1" cy="-152.9" r="2.4"/>
					<path class="st2" d="M118.7-134.2c-3.4-1-6-4.2-6-8s2.5-7,6-8c-0.7-0.7-1.2-1.6-1.2-2.7c0-0.7,0.2-1.3,0.5-1.8c0,0,0,0,0,0
						c-5.6,1.4-9.8,6.5-9.8,12.5s4.2,11.2,9.8,12.5c0,0,0,0,0,0c-0.3-0.5-0.5-1.2-0.5-1.8C117.5-132.6,118-133.5,118.7-134.2z"/>
					<path class="st2" d="M124.3-154.7c0.3,0.5,0.5,1.2,0.5,1.9c0,1.1-0.5,2-1.2,2.7c3.4,1,6,4.2,6,8c0,3.8-2.5,7-6,8
						c0.7,0.7,1.2,1.6,1.2,2.7c0,0.7-0.2,1.3-0.5,1.9c5.6-1.4,9.8-6.5,9.8-12.5C134.1-148.2,129.9-153.3,124.3-154.7z"/>
				</g>
			</g>
		</g>
	</g>
	<g>
		<path d="M280.1-159.7c0,2.4-1.8,4.2-4.3,4.2c-2.4,0-4.3-1.8-4.3-4.2c0-2.3,1.9-4.2,4.3-4.2C278.2-163.8,280.1-162,280.1-159.7z
			 M272.6-159.7c0,1.8,1.4,3.3,3.3,3.3c1.8,0,3.2-1.5,3.2-3.3c0-1.8-1.3-3.4-3.2-3.4C274-163,272.6-161.5,272.6-159.7z M275.1-157.5
			h-1v-4.2c0.4-0.1,0.9-0.1,1.6-0.1c0.8,0,1.1,0.1,1.5,0.3c0.2,0.2,0.4,0.5,0.4,0.9c0,0.5-0.4,0.8-0.9,1v0.1c0.4,0.1,0.6,0.5,0.8,1
			c0.1,0.6,0.2,0.9,0.3,1h-1c-0.1-0.1-0.2-0.5-0.3-1c-0.1-0.5-0.3-0.7-0.9-0.7h-0.5L275.1-157.5L275.1-157.5z M275.2-159.8h0.5
			c0.5,0,1-0.2,1-0.6c0-0.4-0.3-0.6-0.9-0.6c-0.2,0-0.4,0-0.5,0L275.2-159.8L275.2-159.8z"/>
	</g>
</g>
</svg>
