<?xml version="1.0" encoding="utf-8"?>
<!-- Generator: Adobe Illustrator 24.1.1, SVG Export Plug-In . SVG Version: 6.00 Build 0)  -->
<svg version="1.1" id="Layer_1" xmlns="http://www.w3.org/2000/svg" xmlns:xlink="http://www.w3.org/1999/xlink" x="0px" y="0px"
	 width="382.9px" height="56px" viewBox="0 0 382.9 56" style="enable-background:new 0 0 382.9 56;" xml:space="preserve">
<style type="text/css">
	.st0{fill:#F96731;}
	.st1{fill:#2B9AF3;}
	.st2{fill:#1C96E8;}
</style>
<g>
	<g>
		<g>
			<g>
				<path d="M0,34.6V1.3h4.1v19l9.7-9.8h5.3l-9.2,9L20,34.6h-5L7,22.3l-2.9,2.8v9.6L0,34.6L0,34.6z"/>
				<path d="M49.2,34.6V10.5h3.7v3.4c1.8-2.7,4.3-4,7.7-4c1.5,0,2.8,0.3,4,0.8c1.2,0.5,2.1,1.2,2.7,2.1c0.6,0.8,1,1.9,1.3,3
					c0.2,0.8,0.2,2.1,0.2,4v14.9h-4.1V20c0-1.7-0.2-2.9-0.5-3.7c-0.3-0.8-0.9-1.5-1.7-2s-1.8-0.7-2.9-0.7c-1.7,0-3.2,0.6-4.5,1.7
					c-1.3,1.1-1.9,3.2-1.9,6.3v13.2h-4V34.6z"/>
				<path d="M91.6,26.9l4.2,0.5c-0.7,2.5-1.9,4.4-3.7,5.8c-1.8,1.4-4.1,2-6.9,2c-3.5,0-6.3-1.1-8.4-3.3s-3.1-5.2-3.1-9.2
					c0-4.1,1-7.2,3.1-9.5c2.2-2.1,4.9-3.3,8.2-3.3c3.2,0,5.9,1.1,7.9,3.3s3.1,5.3,3.1,9.3c0,0.2,0,0.6,0,1.1H78
					c0.2,2.7,0.9,4.7,2.3,6.1c1.3,1.4,3,2.1,5,2.1c1.5,0,2.8-0.4,3.8-1.2C90.2,29.9,91,28.6,91.6,26.9z M78.2,20.2h13.5
					c-0.2-2-0.7-3.6-1.5-4.6c-1.3-1.6-3-2.4-5.1-2.4c-1.9,0-3.5,0.6-4.7,1.9C79,16.5,78.3,18.1,78.2,20.2z"/>
				<path d="M116.8,25.8l4,0.5c-0.4,2.8-1.6,4.9-3.4,6.5c-1.8,1.6-4,2.4-6.7,2.4c-3.3,0-6-1.1-8-3.2c-2-2.2-3-5.3-3-9.3
					c0-2.6,0.4-4.9,1.3-6.8c0.9-2,2.2-3.4,3.9-4.4c1.8-1,3.7-1.5,5.8-1.5c2.6,0,4.8,0.7,6.4,2c1.7,1.3,2.7,3.2,3.2,5.7l-4,0.6
					c-0.4-1.6-1.1-2.8-2-3.7c-1-0.8-2.1-1.2-3.5-1.2c-2.1,0-3.7,0.7-5,2.2c-1.3,1.5-1.9,3.8-1.9,7s0.6,5.6,1.9,7.1
					c1.2,1.5,2.9,2.2,4.9,2.2c1.6,0,2.9-0.5,4-1.5C115.8,29.4,116.5,27.8,116.8,25.8z"/>
				<path d="M133.2,31l0.6,3.6c-1.2,0.2-2.2,0.4-3.1,0.4c-1.5,0-2.6-0.2-3.5-0.7c-0.8-0.5-1.4-1.1-1.7-1.9c-0.3-0.8-0.5-2.4-0.5-4.8
					V13.7h-3v-3.2h3v-6l4.1-2.5v8.4h4.1v3.2h-4.1v14.1c0,1.2,0.1,1.9,0.2,2.3c0.1,0.3,0.4,0.6,0.7,0.8c0.3,0.2,0.8,0.3,1.4,0.3
					C131.9,31.1,132.5,31.1,133.2,31z"/>
				<path d="M153,31.7c-1.5,1.3-3,2.2-4.4,2.7s-2.9,0.8-4.5,0.8c-2.7,0-4.7-0.6-6.1-1.9c-1.4-1.3-2.1-3-2.1-5c0-1.2,0.3-2.3,0.8-3.2
					c0.5-1,1.2-1.8,2.1-2.4c0.9-0.6,1.9-1,2.9-1.3c0.8-0.2,2-0.4,3.6-0.6c3.3-0.4,5.7-0.9,7.3-1.4c0-0.6,0-0.9,0-1.1
					c0-1.7-0.4-2.8-1.2-3.5c-1-0.9-2.6-1.4-4.7-1.4c-1.9,0-3.3,0.3-4.3,1c-0.9,0.7-1.6,1.9-2,3.6l-4-0.5c0.4-1.7,1-3.1,1.8-4.2
					s2-1.9,3.6-2.4c1.6-0.6,3.4-0.9,5.5-0.9s3.7,0.2,5,0.7s2.2,1.1,2.8,1.8s1,1.7,1.3,2.8c0.1,0.7,0.2,2,0.2,3.8v5.5
					c0,3.8,0.1,6.2,0.3,7.2c0.2,1,0.5,2,1,2.9h-4.3C153.4,33.8,153.1,32.8,153,31.7z M152.7,22.5c-1.5,0.6-3.7,1.1-6.7,1.5
					c-1.7,0.2-2.9,0.5-3.6,0.8c-0.7,0.3-1.2,0.7-1.6,1.3c-0.4,0.6-0.6,1.2-0.6,1.9c0,1.1,0.4,2,1.2,2.7s2,1.1,3.6,1.1s3-0.3,4.2-1
					s2.1-1.6,2.7-2.8c0.4-0.9,0.7-2.3,0.7-4.1v-1.4H152.7z"/>
				<path d="M163.1,34.6V10.5h3.7v3.7c0.9-1.7,1.8-2.8,2.6-3.4c0.8-0.5,1.7-0.8,2.6-0.8c1.4,0,2.8,0.4,4.2,1.3l-1.4,3.8
					c-1-0.6-2-0.9-3-0.9c-0.9,0-1.7,0.3-2.4,0.8s-1.2,1.3-1.5,2.2c-0.5,1.5-0.7,3-0.7,4.8v12.6C167.2,34.6,163.1,34.6,163.1,34.6z"
					/>
				<g>
					<circle class="st0" cx="33.1" cy="32.3" r="2.3"/>
					<circle class="st0" cx="33.1" cy="12.2" r="2.3"/>
					<path class="st1" d="M30.8,29.8c-3.2-1-5.6-4-5.6-7.5s2.4-6.6,5.6-7.5c-0.7-0.6-1.1-1.5-1.1-2.5c0-0.6,0.2-1.2,0.5-1.7l0,0
						c-5.3,1.3-9.2,6.1-9.2,11.8s3.9,10.5,9.2,11.8l0,0c-0.3-0.5-0.5-1.1-0.5-1.7C29.7,31.3,30.1,30.4,30.8,29.8z"/>
					<path class="st1" d="M36,10.5c0.3,0.5,0.5,1.1,0.5,1.8c0,1-0.4,1.9-1.1,2.5c3.2,1,5.6,4,5.6,7.5s-2.4,6.6-5.6,7.5
						c0.7,0.6,1.1,1.5,1.1,2.5c0,0.6-0.2,1.2-0.5,1.8c5.3-1.3,9.2-6.1,9.2-11.8S41.3,11.8,36,10.5z"/>
				</g>
			</g>
		</g>
		<g>
			<g>
				<g>
					<path class="st2" d="M203.2,33.6c0,0.1-0.1,0.2-0.2,0.3c-0.1,0.1-0.2,0.2-0.4,0.2s-0.3,0.1-0.6,0.1c-0.2,0-0.5,0-0.9,0
						c-0.3,0-0.5,0-0.7,0s-0.4,0-0.5,0s-0.3-0.1-0.4-0.1c-0.1,0-0.2-0.1-0.3-0.1s-0.1-0.1-0.2-0.2c0-0.1-0.1-0.1-0.1-0.2l-7.7-21.7
						c-0.1-0.3-0.1-0.5-0.2-0.6c0-0.2,0-0.3,0.2-0.4s0.3-0.1,0.5-0.2c0.2,0,0.6,0,1,0c0.3,0,0.6,0,0.8,0s0.4,0.1,0.5,0.1
						s0.2,0.1,0.2,0.2s0.1,0.2,0.2,0.3l6.7,19.7l0,0l6.5-19.7c0-0.1,0.1-0.2,0.1-0.3s0.1-0.2,0.3-0.2c0.1,0,0.3-0.1,0.5-0.1
						s0.5,0,0.9,0s0.7,0,0.9,0s0.4,0.1,0.4,0.2c0.1,0.1,0.1,0.2,0.1,0.4s-0.1,0.4-0.2,0.6L203.2,33.6z"/>
					<path class="st2" d="M227.7,32.9c0,0.2,0,0.4,0,0.6c0,0.2-0.1,0.3-0.1,0.4s-0.1,0.2-0.2,0.2s-0.2,0.1-0.3,0.1h-11.2
						c-0.3,0-0.5-0.1-0.8-0.3c-0.2-0.2-0.4-0.5-0.4-1V12c0-0.5,0.1-0.8,0.4-1c0.2-0.2,0.5-0.3,0.8-0.3H227c0.1,0,0.2,0,0.3,0.1
						c0.1,0,0.1,0.1,0.2,0.2c0,0.1,0.1,0.2,0.1,0.4s0,0.4,0,0.6c0,0.2,0,0.4,0,0.6c0,0.2-0.1,0.3-0.1,0.4c0,0.1-0.1,0.2-0.2,0.2
						c-0.1,0-0.2,0.1-0.3,0.1h-9.2v7.3h7.9c0.1,0,0.2,0,0.3,0.1s0.1,0.1,0.2,0.2c0.1,0.1,0.1,0.2,0.1,0.4s0,0.4,0,0.6s0,0.4,0,0.6
						s-0.1,0.3-0.1,0.4c-0.1,0.1-0.1,0.2-0.2,0.2c-0.1,0-0.2,0.1-0.3,0.1h-7.9v8.4h9.3c0.1,0,0.2,0,0.3,0.1c0.1,0,0.1,0.1,0.2,0.2
						c0.1,0.1,0.1,0.2,0.1,0.4C227.7,32.4,227.7,32.6,227.7,32.9z"/>
					<path class="st2" d="M247.5,12.1c0,0.2,0,0.4,0,0.6s-0.1,0.3-0.1,0.4c-0.1,0.1-0.1,0.2-0.2,0.2c-0.1,0-0.2,0.1-0.3,0.1h-6.6
						v20.3c0,0.1,0,0.2-0.1,0.3c0,0.1-0.1,0.1-0.3,0.2c-0.1,0-0.3,0.1-0.5,0.1s-0.4,0-0.8,0c-0.3,0-0.5,0-0.7,0s-0.4-0.1-0.5-0.1
						s-0.2-0.1-0.3-0.2c0-0.1-0.1-0.2-0.1-0.3V13.4h-6.6c-0.1,0-0.2,0-0.3-0.1c-0.1,0-0.1-0.1-0.2-0.2c0-0.1-0.1-0.2-0.1-0.4
						s0-0.4,0-0.6c0-0.2,0-0.4,0-0.6s0.1-0.3,0.1-0.4c0-0.1,0.1-0.2,0.2-0.2c0.1,0,0.2-0.1,0.3-0.1h16.3c0.1,0,0.2,0,0.3,0.1
						c0.1,0,0.1,0.1,0.2,0.2c0.1,0.1,0.1,0.3,0.1,0.4S247.5,11.9,247.5,12.1z"/>
					<path class="st2" d="M263.9,32.9c0,0.2,0,0.4,0,0.6c0,0.2-0.1,0.3-0.1,0.4c-0.1,0.1-0.1,0.2-0.2,0.2s-0.2,0.1-0.3,0.1H252
						c-0.3,0-0.5-0.1-0.8-0.3s-0.4-0.5-0.4-1V12c0-0.5,0.1-0.8,0.4-1s0.5-0.3,0.8-0.3h11.1c0.1,0,0.2,0,0.3,0.1
						c0.1,0,0.1,0.1,0.2,0.2c0,0.1,0.1,0.2,0.1,0.4s0,0.4,0,0.6c0,0.2,0,0.4,0,0.6c0,0.2-0.1,0.3-0.1,0.4c0,0.1-0.1,0.2-0.2,0.2
						s-0.2,0.1-0.3,0.1H254v7.3h7.9c0.1,0,0.2,0,0.3,0.1c0.1,0.1,0.1,0.1,0.2,0.2s0.1,0.2,0.1,0.4c0,0.2,0,0.4,0,0.6s0,0.4,0,0.6
						s-0.1,0.3-0.1,0.4s-0.1,0.2-0.2,0.2s-0.2,0.1-0.3,0.1H254v8.4h9.3c0.1,0,0.2,0,0.3,0.1c0.1,0,0.1,0.1,0.2,0.2
						c0.1,0.1,0.1,0.2,0.1,0.4C263.9,32.4,263.9,32.6,263.9,32.9z"/>
					<path class="st2" d="M284.6,33.7c0,0.1,0,0.2-0.1,0.3c0,0.1-0.1,0.1-0.2,0.2c-0.1,0-0.3,0.1-0.5,0.1s-0.5,0-0.9,0
						c-0.3,0-0.6,0-0.8,0c-0.2,0-0.4-0.1-0.5-0.1c-0.1-0.1-0.2-0.1-0.3-0.2c-0.1-0.1-0.1-0.2-0.2-0.4l-2.2-5.5
						c-0.3-0.6-0.5-1.2-0.8-1.7s-0.6-1-1-1.4s-0.8-0.7-1.3-0.9s-1.1-0.3-1.8-0.3h-2.1v10c0,0.1,0,0.2-0.1,0.3s-0.1,0.1-0.3,0.2
						c-0.1,0-0.3,0.1-0.5,0.1s-0.5,0-0.8,0s-0.6,0-0.8,0c-0.2,0-0.4-0.1-0.5-0.1s-0.2-0.1-0.3-0.2c0-0.1-0.1-0.2-0.1-0.3V12
						c0-0.5,0.1-0.8,0.4-1c0.2-0.2,0.5-0.3,0.8-0.3h5c0.6,0,1.1,0,1.5,0s0.7,0.1,1.1,0.1c0.9,0.2,1.7,0.4,2.4,0.7
						c0.7,0.3,1.3,0.8,1.7,1.3c0.5,0.5,0.8,1.1,1.1,1.8c0.2,0.7,0.4,1.4,0.4,2.2c0,0.8-0.1,1.5-0.3,2.1s-0.5,1.2-0.9,1.6
						c-0.4,0.5-0.9,0.9-1.4,1.2c-0.6,0.4-1.2,0.6-1.9,0.9c0.4,0.2,0.7,0.4,1,0.6c0.3,0.3,0.6,0.6,0.9,0.9s0.5,0.8,0.8,1.2
						c0.2,0.5,0.5,1,0.7,1.6l2.1,5.2c0.2,0.4,0.3,0.7,0.3,0.9C284.5,33.4,284.6,33.6,284.6,33.7z M279.9,17.2c0-0.9-0.2-1.7-0.6-2.3
						s-1.1-1.1-2.1-1.4c-0.3-0.1-0.6-0.1-1-0.2s-0.9-0.1-1.5-0.1h-2.6v7.9h3c0.8,0,1.5-0.1,2.1-0.3c0.6-0.2,1.1-0.5,1.5-0.8
						c0.4-0.4,0.7-0.8,0.9-1.3C279.8,18.3,279.9,17.8,279.9,17.2z"/>
					<path class="st2" d="M292.2,33.7c0,0.1,0,0.2-0.1,0.3c0,0.1-0.1,0.1-0.3,0.2c-0.1,0-0.3,0.1-0.5,0.1s-0.5,0-0.8,0s-0.5,0-0.7,0
						s-0.4-0.1-0.5-0.1s-0.2-0.1-0.3-0.2c0-0.1-0.1-0.2-0.1-0.3V11.2c0-0.1,0-0.2,0.1-0.3s0.1-0.1,0.3-0.2c0.1,0,0.3-0.1,0.5-0.1
						s0.4,0,0.7,0c0.3,0,0.6,0,0.8,0c0.2,0,0.4,0.1,0.5,0.1s0.2,0.1,0.3,0.2c0,0.1,0.1,0.2,0.1,0.3V33.7z"/>
					<path class="st2" d="M316.1,32.9c0,0.2,0,0.4-0.1,0.6c-0.1,0.2-0.2,0.3-0.3,0.4c-0.1,0.1-0.3,0.2-0.4,0.2s-0.3,0.1-0.5,0.1h-1
						c-0.3,0-0.6,0-0.9-0.1c-0.2-0.1-0.5-0.2-0.7-0.4s-0.4-0.4-0.7-0.7c-0.2-0.3-0.5-0.7-0.7-1.2l-7.1-13.3
						c-0.4-0.7-0.8-1.4-1.1-2.2c-0.4-0.8-0.7-1.5-1.1-2.2l0,0c0,0.9,0,1.8,0.1,2.7c0,0.9,0,1.8,0,2.7v14.1c0,0.1,0,0.2-0.1,0.2
						c-0.1,0.1-0.1,0.1-0.3,0.2c-0.1,0-0.3,0.1-0.5,0.1s-0.4,0-0.8,0c-0.3,0-0.6,0-0.8,0c-0.2,0-0.4-0.1-0.5-0.1s-0.2-0.1-0.2-0.2
						c-0.1-0.1-0.1-0.2-0.1-0.2V12.1c0-0.5,0.1-0.8,0.4-1s0.6-0.3,0.9-0.3h1.5c0.4,0,0.7,0,0.9,0.1c0.2,0.1,0.5,0.2,0.7,0.3
						s0.4,0.3,0.6,0.6s0.4,0.6,0.6,0.9l5.5,10.3c0.3,0.6,0.7,1.2,1,1.8c0.3,0.6,0.6,1.2,0.9,1.8c0.3,0.6,0.6,1.1,0.9,1.7
						s0.6,1.1,0.8,1.7l0,0c0-1,0-1.9,0-3c0-1,0-2,0-3V11.3c0-0.1,0-0.2,0.1-0.2c0.1-0.1,0.1-0.1,0.3-0.2c0.1-0.1,0.3-0.1,0.5-0.1
						s0.5,0,0.8,0s0.5,0,0.7,0s0.4,0.1,0.5,0.1c0.1,0.1,0.2,0.1,0.2,0.2c0.1,0.1,0.1,0.2,0.1,0.2L316.1,32.9L316.1,32.9z"/>
					<path class="st2" d="M339.8,33c0.1,0.3,0.1,0.5,0.2,0.6c0,0.2,0,0.3-0.1,0.4s-0.3,0.1-0.5,0.2c-0.2,0-0.5,0-0.9,0s-0.7,0-0.9,0
						c-0.2,0-0.4,0-0.5-0.1c-0.1,0-0.2-0.1-0.3-0.2c-0.1-0.1-0.1-0.2-0.2-0.3l-2-5.7h-9.7l-1.9,5.6c0,0.1-0.1,0.2-0.1,0.3
						c-0.1,0.1-0.1,0.1-0.3,0.2c-0.1,0.1-0.3,0.1-0.5,0.1s-0.5,0-0.8,0s-0.6,0-0.9,0c-0.2,0-0.4-0.1-0.5-0.2
						c-0.1-0.1-0.1-0.2-0.1-0.4s0.1-0.4,0.2-0.6l7.9-21.7c0-0.1,0.1-0.2,0.2-0.3s0.2-0.2,0.3-0.2c0.2,0,0.3-0.1,0.6-0.1s0.5,0,0.9,0
						s0.7,0,1,0s0.5,0.1,0.6,0.1c0.2,0,0.3,0.1,0.4,0.2c0.1,0.1,0.2,0.2,0.2,0.3L339.8,33z M329.8,13.9L329.8,13.9l-4.1,11.7h8.1
						L329.8,13.9z"/>
					<path class="st2" d="M359.4,33.7c0,0.1,0,0.2-0.1,0.3c0,0.1-0.1,0.1-0.2,0.2c-0.1,0-0.3,0.1-0.5,0.1s-0.5,0-0.9,0
						c-0.3,0-0.6,0-0.8,0c-0.2,0-0.4-0.1-0.5-0.1c-0.1-0.1-0.2-0.1-0.3-0.2c-0.1-0.1-0.1-0.2-0.2-0.4l-2.2-5.5
						c-0.3-0.6-0.5-1.2-0.8-1.7s-0.6-1-1-1.4s-0.8-0.7-1.3-0.9s-1.1-0.3-1.8-0.3h-2.1v10c0,0.1,0,0.2-0.1,0.3s-0.1,0.1-0.3,0.2
						c-0.1,0-0.3,0.1-0.5,0.1s-0.5,0-0.8,0s-0.6,0-0.8,0c-0.2,0-0.4-0.1-0.5-0.1s-0.2-0.1-0.3-0.2c0-0.1-0.1-0.2-0.1-0.3V12
						c0-0.5,0.1-0.8,0.4-1c0.2-0.2,0.5-0.3,0.8-0.3h5c0.6,0,1.1,0,1.5,0s0.7,0.1,1.1,0.1c0.9,0.2,1.7,0.4,2.4,0.7
						c0.7,0.3,1.3,0.8,1.7,1.3c0.5,0.5,0.8,1.1,1.1,1.8c0.2,0.7,0.4,1.4,0.4,2.2c0,0.8-0.1,1.5-0.3,2.1s-0.5,1.2-0.9,1.6
						c-0.4,0.5-0.9,0.9-1.4,1.2c-0.6,0.4-1.2,0.6-1.9,0.9c0.4,0.2,0.7,0.4,1,0.6c0.3,0.3,0.6,0.6,0.9,0.9s0.5,0.8,0.8,1.2
						c0.2,0.5,0.5,1,0.7,1.6l2.1,5.2c0.2,0.4,0.3,0.7,0.3,0.9C359.3,33.4,359.4,33.6,359.4,33.7z M354.7,17.2c0-0.9-0.2-1.7-0.6-2.3
						s-1.1-1.1-2.1-1.4c-0.3-0.1-0.6-0.1-1-0.2s-0.9-0.1-1.5-0.1h-2.6v7.9h3c0.8,0,1.5-0.1,2.1-0.3c0.6-0.2,1.1-0.5,1.5-0.8
						c0.4-0.4,0.7-0.8,0.9-1.3C354.6,18.3,354.7,17.8,354.7,17.2z"/>
					<path class="st2" d="M370.8,25.1v8.6c0,0.1,0,0.2-0.1,0.3c0,0.1-0.1,0.1-0.3,0.2c-0.1,0-0.3,0.1-0.5,0.1s-0.5,0-0.7,0
						c-0.3,0-0.5,0-0.7,0s-0.4-0.1-0.5-0.1s-0.2-0.1-0.3-0.2c0-0.1-0.1-0.2-0.1-0.3v-8.6L361,11.8c-0.1-0.3-0.2-0.5-0.2-0.7
						s0-0.3,0.1-0.4c0.1-0.1,0.3-0.1,0.5-0.2c0.2,0,0.6,0,0.9,0c0.4,0,0.7,0,0.9,0c0.2,0,0.4,0.1,0.5,0.1s0.2,0.1,0.3,0.2
						c0.1,0.1,0.1,0.2,0.2,0.3l3.2,6.7c0.3,0.6,0.6,1.3,0.9,2s0.6,1.4,0.9,2.1l0,0c0.3-0.7,0.6-1.4,0.9-2.1s0.6-1.4,0.9-2l3.3-6.8
						c0-0.1,0.1-0.2,0.2-0.3s0.2-0.1,0.3-0.2c0.1,0,0.3-0.1,0.5-0.1s0.5,0,0.8,0c0.4,0,0.8,0,1,0s0.4,0.1,0.5,0.2
						c0.1,0.1,0.1,0.2,0.1,0.4s-0.1,0.4-0.2,0.6L370.8,25.1z"/>
				</g>
			</g>
		</g>
	</g>
	<g>
		<path d="M185.1,6.2c0,2.5-1.9,4.4-4.5,4.4c-2.5,0-4.5-1.9-4.5-4.4c0-2.4,2-4.3,4.5-4.3C183.1,1.9,185.1,3.8,185.1,6.2z M177.2,6.2
			c0,1.9,1.4,3.5,3.4,3.5c1.9,0,3.3-1.5,3.3-3.4s-1.4-3.5-3.3-3.5C178.7,2.8,177.2,4.3,177.2,6.2z M179.9,8.5h-1V4.2
			c0.4-0.1,1-0.1,1.7-0.1c0.8,0,1.2,0.1,1.5,0.3c0.2,0.2,0.4,0.5,0.4,1s-0.4,0.8-0.9,1v0.1c0.4,0.2,0.7,0.5,0.8,1.1
			c0.1,0.7,0.2,0.9,0.3,1.1h-1.1c-0.1-0.2-0.2-0.6-0.3-1.1s-0.3-0.7-0.9-0.7h-0.5V8.5z M179.9,6.1h0.5c0.6,0,1-0.2,1-0.6
			s-0.3-0.7-0.9-0.7c-0.3,0-0.5,0-0.6,0.1V6.1z"/>
	</g>
</g>
<g>
	<path d="M0,46.1C0,43.6,1.5,42,3.5,42c1,0,1.7,0.5,2.2,1l-0.5,0.6c-0.4-0.4-0.9-0.7-1.6-0.7C2,42.9,1,44.1,1,46.1
		c0,2,0.9,3.2,2.4,3.2c0.8,0,1.3-0.3,1.8-0.9l0.6,0.6c-0.6,0.7-1.4,1.1-2.4,1.1C1.5,50.2,0,48.7,0,46.1z"/>
	<path d="M7.2,47.2c0-2,1.3-3.1,2.7-3.1c1.4,0,2.7,1.1,2.7,3.1c0,1.9-1.3,3-2.7,3C8.5,50.2,7.2,49.1,7.2,47.2z M11.6,47.2
		c0-1.3-0.7-2.3-1.7-2.3c-1,0-1.7,0.9-1.7,2.3c0,1.3,0.7,2.2,1.7,2.2C10.9,49.4,11.6,48.5,11.6,47.2z"/>
	<path d="M14.5,44.2h0.8l0.1,0.8h0c0.6-0.6,1.2-1,2-1c1.2,0,1.8,0.8,1.8,2.3v3.7h-1v-3.6c0-1.1-0.3-1.6-1.1-1.6
		c-0.6,0-1,0.3-1.6,0.9v4.2h-1V44.2z"/>
	<path d="M21.5,44.2h0.8l0.1,0.8h0c0.6-0.6,1.2-1,2-1c1.2,0,1.8,0.8,1.8,2.3v3.7h-1v-3.6c0-1.1-0.3-1.6-1.1-1.6
		c-0.6,0-1,0.3-1.6,0.9v4.2h-1V44.2z"/>
	<path d="M28,47.2c0-1.9,1.3-3.1,2.6-3.1c1.5,0,2.3,1.1,2.3,2.7c0,0.2,0,0.4,0,0.6H29c0.1,1.2,0.8,2,1.9,2c0.6,0,1-0.2,1.5-0.5
		l0.3,0.6c-0.5,0.3-1.1,0.6-1.9,0.6C29.3,50.2,28,49.1,28,47.2z M32.1,46.7c0-1.2-0.5-1.8-1.4-1.8c-0.8,0-1.6,0.7-1.7,1.8H32.1z"/>
	<path d="M34.4,47.2c0-2,1.3-3.1,2.8-3.1c0.8,0,1.3,0.3,1.7,0.7l-0.5,0.6c-0.3-0.3-0.7-0.5-1.2-0.5c-1.1,0-1.8,0.9-1.8,2.3
		c0,1.3,0.7,2.2,1.8,2.2c0.5,0,1-0.3,1.4-0.6l0.4,0.7c-0.5,0.5-1.2,0.7-1.9,0.7C35.6,50.2,34.4,49.1,34.4,47.2z"/>
	<path d="M40.9,48.3V45H40v-0.7l0.9-0.1l0.1-1.6h0.8v1.6h1.6V45h-1.6v3.2c0,0.7,0.2,1.1,0.9,1.1c0.2,0,0.5-0.1,0.7-0.2l0.2,0.7
		c-0.3,0.1-0.7,0.2-1.1,0.2C41.3,50.2,40.9,49.4,40.9,48.3z"/>
	<path d="M45,42.4c0-0.4,0.3-0.6,0.7-0.6s0.7,0.3,0.7,0.6c0,0.4-0.3,0.6-0.7,0.6S45,42.8,45,42.4z M45.2,44.2h1v5.8h-1V44.2z"/>
	<path d="M48.5,44.2h0.8l0.1,0.8h0c0.6-0.6,1.2-1,2-1c1.2,0,1.8,0.8,1.8,2.3v3.7h-1v-3.6c0-1.1-0.3-1.6-1.1-1.6
		c-0.6,0-1,0.3-1.6,0.9v4.2h-1V44.2z"/>
	<path d="M55.1,51.2c0-0.5,0.3-1,0.9-1.3v0c-0.3-0.2-0.5-0.5-0.5-0.9c0-0.5,0.3-0.9,0.6-1.1v0c-0.4-0.3-0.8-0.9-0.8-1.6
		c0-1.3,1-2.1,2.2-2.1c0.3,0,0.6,0.1,0.8,0.1h2V45h-1.2c0.3,0.3,0.5,0.7,0.5,1.2c0,1.2-0.9,2-2.1,2c-0.3,0-0.6-0.1-0.9-0.2
		c-0.2,0.2-0.4,0.4-0.4,0.7c0,0.4,0.2,0.6,1,0.6h1.1c1.4,0,2,0.4,2,1.4c0,1.1-1.1,2-3,2C56.1,52.7,55.1,52.2,55.1,51.2z M59.5,50.9
		c0-0.5-0.4-0.7-1.2-0.7h-1c-0.2,0-0.5,0-0.8-0.1c-0.4,0.3-0.6,0.6-0.6,1c0,0.6,0.6,1,1.7,1C58.7,52.1,59.5,51.5,59.5,50.9z
		 M58.7,46.2c0-0.9-0.6-1.4-1.2-1.4s-1.2,0.5-1.2,1.4s0.6,1.4,1.2,1.4C58.1,47.6,58.7,47,58.7,46.2z"/>
	<path d="M64.9,42.2h1v7h3.4v0.9h-4.4V42.2z"/>
	<path d="M70.8,42.4c0-0.4,0.3-0.6,0.7-0.6s0.7,0.3,0.7,0.6c0,0.4-0.3,0.6-0.7,0.6S70.8,42.8,70.8,42.4z M71,44.2h1v5.8h-1V44.2z"/>
	<path d="M74.5,45h-0.8v-0.7l0.8-0.1v-0.9c0-1.2,0.5-1.9,1.7-1.9c0.4,0,0.7,0.1,1,0.2L77,42.3c-0.2-0.1-0.4-0.1-0.7-0.1
		c-0.6,0-0.8,0.4-0.8,1.1v0.9h1.2V45h-1.2v5h-1V45z"/>
	<path d="M77.9,47.2c0-1.9,1.3-3.1,2.6-3.1c1.5,0,2.3,1.1,2.3,2.7c0,0.2,0,0.4,0,0.6h-3.9c0.1,1.2,0.8,2,1.9,2c0.6,0,1-0.2,1.5-0.5
		l0.3,0.6c-0.5,0.3-1.1,0.6-1.9,0.6C79.1,50.2,77.9,49.1,77.9,47.2z M81.9,46.7c0-1.2-0.5-1.8-1.4-1.8c-0.8,0-1.6,0.7-1.7,1.8H81.9z
		"/>
	<path d="M87,49l0.6-0.7c0.6,0.6,1.4,1,2.2,1c1,0,1.6-0.5,1.6-1.3c0-0.8-0.6-1.1-1.3-1.4L89,46.2c-0.7-0.3-1.6-0.9-1.6-2
		c0-1.2,1-2.1,2.5-2.1c0.9,0,1.8,0.4,2.3,1l-0.5,0.6c-0.5-0.5-1.1-0.7-1.8-0.7c-0.9,0-1.5,0.4-1.5,1.2c0,0.8,0.7,1,1.3,1.3l1.1,0.5
		c0.9,0.4,1.6,0.9,1.6,2.1c0,1.2-1,2.2-2.7,2.2C88.6,50.2,87.7,49.7,87,49z"/>
	<path d="M93.8,47.2c0-2,1.3-3.1,2.8-3.1c0.8,0,1.3,0.3,1.7,0.7l-0.5,0.6c-0.3-0.3-0.7-0.5-1.2-0.5c-1.1,0-1.8,0.9-1.8,2.3
		c0,1.3,0.7,2.2,1.8,2.2c0.5,0,1-0.3,1.4-0.6l0.4,0.7c-0.5,0.5-1.2,0.7-1.9,0.7C95,50.2,93.8,49.1,93.8,47.2z"/>
	<path d="M100,42.4c0-0.4,0.3-0.6,0.7-0.6s0.7,0.3,0.7,0.6c0,0.4-0.3,0.6-0.7,0.6S100,42.8,100,42.4z M100.2,44.2h1v5.8h-1V44.2z"/>
	<path d="M103.1,47.2c0-1.9,1.3-3.1,2.6-3.1c1.5,0,2.3,1.1,2.3,2.7c0,0.2,0,0.4,0,0.6H104c0.1,1.2,0.8,2,1.9,2c0.6,0,1-0.2,1.5-0.5
		l0.3,0.6c-0.5,0.3-1.1,0.6-1.9,0.6C104.3,50.2,103.1,49.1,103.1,47.2z M107.2,46.7c0-1.2-0.5-1.8-1.4-1.8c-0.8,0-1.6,0.7-1.7,1.8
		H107.2z"/>
	<path d="M109.9,44.2h0.8l0.1,0.8h0c0.6-0.6,1.2-1,2-1c1.2,0,1.8,0.8,1.8,2.3v3.7h-1v-3.6c0-1.1-0.3-1.6-1.1-1.6
		c-0.6,0-1,0.3-1.6,0.9v4.2h-1V44.2z"/>
	<path d="M116.4,47.2c0-2,1.3-3.1,2.8-3.1c0.8,0,1.3,0.3,1.7,0.7l-0.5,0.6c-0.3-0.3-0.7-0.5-1.2-0.5c-1.1,0-1.8,0.9-1.8,2.3
		c0,1.3,0.7,2.2,1.8,2.2c0.5,0,1-0.3,1.4-0.6l0.4,0.7c-0.5,0.5-1.2,0.7-1.9,0.7C117.6,50.2,116.4,49.1,116.4,47.2z"/>
	<path d="M122.3,47.2c0-1.9,1.3-3.1,2.6-3.1c1.5,0,2.3,1.1,2.3,2.7c0,0.2,0,0.4,0,0.6h-3.9c0.1,1.2,0.8,2,1.9,2c0.6,0,1-0.2,1.5-0.5
		l0.3,0.6c-0.5,0.3-1.1,0.6-1.9,0.6C123.5,50.2,122.3,49.1,122.3,47.2z M126.4,46.7c0-1.2-0.5-1.8-1.4-1.8c-0.8,0-1.6,0.7-1.7,1.8
		H126.4z"/>
	<path d="M128.4,49.4l0.5-0.7c0.5,0.4,1,0.7,1.7,0.7c0.8,0,1.2-0.4,1.2-0.9c0-0.6-0.7-0.9-1.3-1.1c-0.8-0.3-1.7-0.7-1.7-1.7
		c0-0.9,0.7-1.7,2-1.7c0.7,0,1.4,0.3,1.8,0.7l-0.5,0.6c-0.4-0.3-0.8-0.5-1.3-0.5c-0.7,0-1.1,0.4-1.1,0.8c0,0.6,0.6,0.8,1.3,1
		c0.8,0.3,1.8,0.7,1.8,1.8c0,0.9-0.8,1.7-2.1,1.7C129.8,50.2,129,49.9,128.4,49.4z"/>
	<path d="M137.4,42.2h4.5V43h-3.5v2.5h3v0.9h-3v2.9h3.7v0.9h-4.7V42.2z"/>
	<path d="M145.1,47l-1.8-2.8h1.1l0.8,1.3c0.2,0.3,0.4,0.6,0.6,1h0c0.2-0.3,0.3-0.7,0.5-1l0.7-1.3h1l-1.8,2.9l1.9,2.9h-1.1l-0.9-1.4
		c-0.2-0.3-0.4-0.7-0.6-1h0c-0.2,0.3-0.4,0.7-0.6,1l-0.8,1.4h-1L145.1,47z"/>
	<path d="M149.8,44.2h0.8l0.1,0.7h0c0.5-0.4,1.2-0.8,1.9-0.8c1.5,0,2.3,1.2,2.3,3c0,2-1.2,3.1-2.5,3.1c-0.5,0-1.1-0.3-1.6-0.7l0,1v2
		h-1V44.2z M153.9,47.1c0-1.3-0.4-2.1-1.5-2.1c-0.5,0-1,0.3-1.6,0.8v3.1c0.5,0.4,1,0.6,1.4,0.6C153.2,49.4,153.9,48.5,153.9,47.1z"
		/>
	<path d="M156.5,47.2c0-1.9,1.3-3.1,2.6-3.1c1.5,0,2.3,1.1,2.3,2.7c0,0.2,0,0.4,0,0.6h-3.9c0.1,1.2,0.8,2,1.9,2c0.6,0,1-0.2,1.5-0.5
		l0.3,0.6c-0.5,0.3-1.1,0.6-1.9,0.6C157.7,50.2,156.5,49.1,156.5,47.2z M160.5,46.7c0-1.2-0.5-1.8-1.4-1.8c-0.8,0-1.6,0.7-1.7,1.8
		H160.5z"/>
	<path d="M163.2,44.2h0.8l0.1,1.1h0c0.4-0.7,1-1.2,1.7-1.2c0.3,0,0.4,0,0.6,0.1l-0.2,0.9c-0.2-0.1-0.3-0.1-0.6-0.1
		c-0.5,0-1.1,0.4-1.5,1.3v3.7h-1V44.2z"/>
	<path d="M168,48.3V45h-0.9v-0.7l0.9-0.1l0.1-1.6h0.8v1.6h1.6V45H169v3.2c0,0.7,0.2,1.1,0.9,1.1c0.2,0,0.5-0.1,0.7-0.2l0.2,0.7
		c-0.3,0.1-0.7,0.2-1.1,0.2C168.4,50.2,168,49.4,168,48.3z"/>
	<path d="M171.6,49.4l0.5-0.7c0.5,0.4,1,0.7,1.7,0.7c0.8,0,1.2-0.4,1.2-0.9c0-0.6-0.7-0.9-1.3-1.1c-0.8-0.3-1.7-0.7-1.7-1.7
		c0-0.9,0.7-1.7,2-1.7c0.7,0,1.4,0.3,1.8,0.7l-0.5,0.6c-0.4-0.3-0.8-0.5-1.3-0.5c-0.7,0-1.1,0.4-1.1,0.8c0,0.6,0.6,0.8,1.3,1
		c0.8,0.3,1.8,0.7,1.8,1.8c0,0.9-0.8,1.7-2.1,1.7C173,50.2,172.2,49.9,171.6,49.4z"/>
</g>
</svg>
