<?xml version="1.0" encoding="utf-8"?>
<!-- Generator: Adobe Illustrator 24.1.1, SVG Export Plug-In . SVG Version: 6.00 Build 0)  -->
<svg version="1.1" id="Layer_1" xmlns="http://www.w3.org/2000/svg" xmlns:xlink="http://www.w3.org/1999/xlink" x="0px" y="0px"
	 width="382.9px" height="38.3px" viewBox="0 0 382.9 38.3" style="enable-background:new 0 0 382.9 38.3;" xml:space="preserve">
<style type="text/css">
	.st0{fill:#F96731;}
	.st1{fill:#2B9AF3;}
	.st2{fill:#1C96E8;}
</style>
<g>
	<g>
		<g>
			<g>
				<path d="M0,34.7V1.4h4.1v19l9.7-9.8h5.3l-9.2,9L20,34.7h-5L7,22.4l-2.9,2.8v9.6H0z"/>
				<path d="M49.2,34.7V10.6h3.7V14c1.8-2.7,4.3-4,7.7-4c1.5,0,2.8,0.3,4,0.8c1.2,0.5,2.1,1.2,2.7,2.1c0.6,0.8,1,1.9,1.3,3
					c0.2,0.8,0.2,2.1,0.2,4v14.9h-4.1V20.1c0-1.7-0.2-2.9-0.5-3.7c-0.3-0.8-0.9-1.5-1.7-2c-0.8-0.5-1.8-0.7-2.9-0.7
					c-1.7,0-3.2,0.6-4.5,1.7c-1.3,1.1-1.9,3.2-1.9,6.3v13.2H49.2z"/>
				<path d="M91.6,27l4.2,0.5c-0.7,2.5-1.9,4.4-3.7,5.8c-1.8,1.4-4.1,2-6.9,2c-3.5,0-6.3-1.1-8.4-3.3c-2.1-2.2-3.1-5.2-3.1-9.2
					c0-4.1,1-7.2,3.1-9.5C79,11.2,81.7,10,85,10c3.2,0,5.9,1.1,7.9,3.3c2,2.2,3.1,5.3,3.1,9.3c0,0.2,0,0.6,0,1.1H78
					c0.2,2.7,0.9,4.7,2.3,6.1c1.3,1.4,3,2.1,5,2.1c1.5,0,2.8-0.4,3.8-1.2C90.2,30,91,28.7,91.6,27z M78.2,20.3h13.5
					c-0.2-2-0.7-3.6-1.5-4.6c-1.3-1.6-3-2.4-5.1-2.4c-1.9,0-3.5,0.6-4.7,1.9C79,16.6,78.3,18.2,78.2,20.3z"/>
				<path d="M116.8,25.9l4,0.5c-0.4,2.8-1.6,4.9-3.4,6.5c-1.8,1.6-4,2.4-6.7,2.4c-3.3,0-6-1.1-8-3.2c-2-2.2-3-5.3-3-9.3
					c0-2.6,0.4-4.9,1.3-6.8c0.9-2,2.2-3.4,3.9-4.4c1.8-1,3.7-1.5,5.8-1.5c2.6,0,4.8,0.7,6.4,2c1.7,1.3,2.7,3.2,3.2,5.7l-4,0.6
					c-0.4-1.6-1.1-2.8-2-3.7c-1-0.8-2.1-1.2-3.5-1.2c-2.1,0-3.7,0.7-5,2.2c-1.3,1.5-1.9,3.8-1.9,7c0,3.2,0.6,5.6,1.9,7.1
					c1.2,1.5,2.9,2.2,4.9,2.2c1.6,0,2.9-0.5,4-1.5C115.8,29.5,116.5,27.9,116.8,25.9z"/>
				<path d="M133.2,31.1l0.6,3.6c-1.2,0.2-2.2,0.4-3.1,0.4c-1.5,0-2.6-0.2-3.5-0.7c-0.8-0.5-1.4-1.1-1.7-1.9
					c-0.3-0.8-0.5-2.4-0.5-4.8V13.8h-3v-3.2h3v-6l4.1-2.5v8.4h4.1v3.2h-4.1v14.1c0,1.2,0.1,1.9,0.2,2.3c0.1,0.3,0.4,0.6,0.7,0.8
					c0.3,0.2,0.8,0.3,1.4,0.3C131.9,31.2,132.5,31.2,133.2,31.1z"/>
				<path d="M153,31.8c-1.5,1.3-3,2.2-4.4,2.7c-1.4,0.5-2.9,0.8-4.5,0.8c-2.7,0-4.7-0.6-6.1-1.9c-1.4-1.3-2.1-3-2.1-5
					c0-1.2,0.3-2.3,0.8-3.2c0.5-1,1.2-1.8,2.1-2.4c0.9-0.6,1.9-1,2.9-1.3c0.8-0.2,2-0.4,3.6-0.6c3.3-0.4,5.7-0.9,7.3-1.4
					c0-0.6,0-0.9,0-1.1c0-1.7-0.4-2.8-1.2-3.5c-1-0.9-2.6-1.4-4.7-1.4c-1.9,0-3.3,0.3-4.3,1c-0.9,0.7-1.6,1.9-2,3.6l-4-0.5
					c0.4-1.7,1-3.1,1.8-4.2c0.8-1.1,2-1.9,3.6-2.4c1.6-0.6,3.4-0.9,5.5-0.9c2.1,0,3.7,0.2,5,0.7c1.3,0.5,2.2,1.1,2.8,1.8
					c0.6,0.7,1,1.7,1.3,2.8c0.1,0.7,0.2,2,0.2,3.8v5.5c0,3.8,0.1,6.2,0.3,7.2c0.2,1,0.5,2,1,2.9h-4.3
					C153.4,33.9,153.1,32.9,153,31.8z M152.7,22.6c-1.5,0.6-3.7,1.1-6.7,1.5c-1.7,0.2-2.9,0.5-3.6,0.8c-0.7,0.3-1.2,0.7-1.6,1.3
					c-0.4,0.6-0.6,1.2-0.6,1.9c0,1.1,0.4,2,1.2,2.7c0.8,0.7,2,1.1,3.6,1.1c1.6,0,3-0.3,4.2-1c1.2-0.7,2.1-1.6,2.7-2.8
					c0.4-0.9,0.7-2.3,0.7-4.1V22.6z"/>
				<path d="M163.1,34.7V10.6h3.7v3.7c0.9-1.7,1.8-2.8,2.6-3.4c0.8-0.5,1.7-0.8,2.6-0.8c1.4,0,2.8,0.4,4.2,1.3l-1.4,3.8
					c-1-0.6-2-0.9-3-0.9c-0.9,0-1.7,0.3-2.4,0.8c-0.7,0.5-1.2,1.3-1.5,2.2c-0.5,1.5-0.7,3-0.7,4.8v12.6H163.1z"/>
				<g>
					<circle class="st0" cx="33.1" cy="32.4" r="2.3"/>
					<circle class="st0" cx="33.1" cy="12.3" r="2.3"/>
					<path class="st1" d="M30.8,29.9c-3.2-1-5.6-4-5.6-7.5c0-3.5,2.4-6.6,5.6-7.5c-0.7-0.6-1.1-1.5-1.1-2.5c0-0.6,0.2-1.2,0.5-1.7
						c0,0,0,0,0,0c-5.3,1.3-9.2,6.1-9.2,11.8c0,5.7,3.9,10.5,9.2,11.8c0,0,0,0,0,0c-0.3-0.5-0.5-1.1-0.5-1.7
						C29.7,31.4,30.1,30.5,30.8,29.9z"/>
					<path class="st1" d="M36,10.6c0.3,0.5,0.5,1.1,0.5,1.8c0,1-0.4,1.9-1.1,2.5c3.2,1,5.6,4,5.6,7.5c0,3.5-2.4,6.6-5.6,7.5
						c0.7,0.6,1.1,1.5,1.1,2.5c0,0.6-0.2,1.2-0.5,1.8c5.3-1.3,9.2-6.1,9.2-11.8C45.2,16.7,41.3,11.9,36,10.6z"/>
				</g>
			</g>
		</g>
		<g>
			
				<image style="overflow:visible;opacity:0.2;" width="828" height="150" xlink:href="C3238C03.png"  transform="matrix(0.24 0 0 0.24 186.0156 5.5723)">
			</image>
			<g>
				<g>
					<path class="st2" d="M203.2,33.7c0,0.1-0.1,0.2-0.2,0.3c-0.1,0.1-0.2,0.2-0.4,0.2s-0.3,0.1-0.6,0.1c-0.2,0-0.5,0-0.9,0
						c-0.3,0-0.5,0-0.7,0c-0.2,0-0.4,0-0.5,0c-0.1,0-0.3-0.1-0.4-0.1c-0.1,0-0.2-0.1-0.3-0.1s-0.1-0.1-0.2-0.2
						c0-0.1-0.1-0.1-0.1-0.2l-7.7-21.7c-0.1-0.3-0.1-0.5-0.2-0.6c0-0.2,0-0.3,0.2-0.4s0.3-0.1,0.5-0.2c0.2,0,0.6,0,1,0
						c0.3,0,0.6,0,0.8,0c0.2,0,0.4,0.1,0.5,0.1s0.2,0.1,0.2,0.2s0.1,0.2,0.2,0.3l6.7,19.7h0l6.5-19.7c0-0.1,0.1-0.2,0.1-0.3
						c0-0.1,0.1-0.2,0.3-0.2c0.1,0,0.3-0.1,0.5-0.1s0.5,0,0.9,0c0.4,0,0.7,0,0.9,0c0.2,0,0.4,0.1,0.4,0.2c0.1,0.1,0.1,0.2,0.1,0.4
						c0,0.2-0.1,0.4-0.2,0.6L203.2,33.7z"/>
					<path class="st2" d="M227.7,33c0,0.2,0,0.4,0,0.6c0,0.2-0.1,0.3-0.1,0.4s-0.1,0.2-0.2,0.2s-0.2,0.1-0.3,0.1h-11.2
						c-0.3,0-0.5-0.1-0.8-0.3c-0.2-0.2-0.4-0.5-0.4-1V12.1c0-0.5,0.1-0.8,0.4-1c0.2-0.2,0.5-0.3,0.8-0.3H227c0.1,0,0.2,0,0.3,0.1
						c0.1,0,0.1,0.1,0.2,0.2c0,0.1,0.1,0.2,0.1,0.4c0,0.2,0,0.4,0,0.6c0,0.2,0,0.4,0,0.6c0,0.2-0.1,0.3-0.1,0.4
						c0,0.1-0.1,0.2-0.2,0.2c-0.1,0-0.2,0.1-0.3,0.1h-9.2v7.3h7.9c0.1,0,0.2,0,0.3,0.1c0.1,0.1,0.1,0.1,0.2,0.2
						c0.1,0.1,0.1,0.2,0.1,0.4s0,0.4,0,0.6c0,0.2,0,0.4,0,0.6s-0.1,0.3-0.1,0.4c-0.1,0.1-0.1,0.2-0.2,0.2c-0.1,0-0.2,0.1-0.3,0.1
						h-7.9v8.4h9.3c0.1,0,0.2,0,0.3,0.1c0.1,0,0.1,0.1,0.2,0.2c0.1,0.1,0.1,0.2,0.1,0.4C227.7,32.5,227.7,32.7,227.7,33z"/>
					<path class="st2" d="M247.5,12.2c0,0.2,0,0.4,0,0.6s-0.1,0.3-0.1,0.4c-0.1,0.1-0.1,0.2-0.2,0.2c-0.1,0-0.2,0.1-0.3,0.1h-6.6
						v20.3c0,0.1,0,0.2-0.1,0.3c0,0.1-0.1,0.1-0.3,0.2c-0.1,0-0.3,0.1-0.5,0.1c-0.2,0-0.4,0-0.8,0c-0.3,0-0.5,0-0.7,0
						c-0.2,0-0.4-0.1-0.5-0.1c-0.1,0-0.2-0.1-0.3-0.2c0-0.1-0.1-0.2-0.1-0.3V13.5h-6.6c-0.1,0-0.2,0-0.3-0.1c-0.1,0-0.1-0.1-0.2-0.2
						c0-0.1-0.1-0.2-0.1-0.4s0-0.4,0-0.6c0-0.2,0-0.4,0-0.6s0.1-0.3,0.1-0.4c0-0.1,0.1-0.2,0.2-0.2c0.1,0,0.2-0.1,0.3-0.1h16.3
						c0.1,0,0.2,0,0.3,0.1c0.1,0,0.1,0.1,0.2,0.2c0.1,0.1,0.1,0.3,0.1,0.4S247.5,12,247.5,12.2z"/>
					<path class="st2" d="M263.9,33c0,0.2,0,0.4,0,0.6c0,0.2-0.1,0.3-0.1,0.4c-0.1,0.1-0.1,0.2-0.2,0.2c-0.1,0-0.2,0.1-0.3,0.1H252
						c-0.3,0-0.5-0.1-0.8-0.3s-0.4-0.5-0.4-1V12.1c0-0.5,0.1-0.8,0.4-1s0.5-0.3,0.8-0.3h11.1c0.1,0,0.2,0,0.3,0.1
						c0.1,0,0.1,0.1,0.2,0.2c0,0.1,0.1,0.2,0.1,0.4c0,0.2,0,0.4,0,0.6c0,0.2,0,0.4,0,0.6c0,0.2-0.1,0.3-0.1,0.4
						c0,0.1-0.1,0.2-0.2,0.2c-0.1,0-0.2,0.1-0.3,0.1H254v7.3h7.9c0.1,0,0.2,0,0.3,0.1c0.1,0.1,0.1,0.1,0.2,0.2s0.1,0.2,0.1,0.4
						c0,0.2,0,0.4,0,0.6c0,0.2,0,0.4,0,0.6c0,0.2-0.1,0.3-0.1,0.4s-0.1,0.2-0.2,0.2c-0.1,0-0.2,0.1-0.3,0.1H254v8.4h9.3
						c0.1,0,0.2,0,0.3,0.1c0.1,0,0.1,0.1,0.2,0.2c0.1,0.1,0.1,0.2,0.1,0.4C263.9,32.5,263.9,32.7,263.9,33z"/>
					<path class="st2" d="M284.6,33.8c0,0.1,0,0.2-0.1,0.3c0,0.1-0.1,0.1-0.2,0.2c-0.1,0-0.3,0.1-0.5,0.1c-0.2,0-0.5,0-0.9,0
						c-0.3,0-0.6,0-0.8,0c-0.2,0-0.4-0.1-0.5-0.1c-0.1-0.1-0.2-0.1-0.3-0.2c-0.1-0.1-0.1-0.2-0.2-0.4l-2.2-5.5
						c-0.3-0.6-0.5-1.2-0.8-1.7s-0.6-1-1-1.4s-0.8-0.7-1.3-0.9s-1.1-0.3-1.8-0.3h-2.1v10c0,0.1,0,0.2-0.1,0.3
						c-0.1,0.1-0.1,0.1-0.3,0.2c-0.1,0-0.3,0.1-0.5,0.1c-0.2,0-0.5,0-0.8,0c-0.3,0-0.6,0-0.8,0c-0.2,0-0.4-0.1-0.5-0.1
						c-0.1,0-0.2-0.1-0.3-0.2c0-0.1-0.1-0.2-0.1-0.3V12.1c0-0.5,0.1-0.8,0.4-1c0.2-0.2,0.5-0.3,0.8-0.3h5c0.6,0,1.1,0,1.5,0
						c0.4,0,0.7,0.1,1.1,0.1c0.9,0.2,1.7,0.4,2.4,0.7c0.7,0.3,1.3,0.8,1.7,1.3c0.5,0.5,0.8,1.1,1.1,1.8c0.2,0.7,0.4,1.4,0.4,2.2
						c0,0.8-0.1,1.5-0.3,2.1s-0.5,1.2-0.9,1.6c-0.4,0.5-0.9,0.9-1.4,1.2c-0.6,0.4-1.2,0.6-1.9,0.9c0.4,0.2,0.7,0.4,1,0.6
						c0.3,0.3,0.6,0.6,0.9,0.9s0.5,0.8,0.8,1.2c0.2,0.5,0.5,1,0.7,1.6l2.1,5.2c0.2,0.4,0.3,0.7,0.3,0.9
						C284.5,33.5,284.6,33.7,284.6,33.8z M279.9,17.3c0-0.9-0.2-1.7-0.6-2.3c-0.4-0.6-1.1-1.1-2.1-1.4c-0.3-0.1-0.6-0.1-1-0.2
						s-0.9-0.1-1.5-0.1h-2.6v7.9h3c0.8,0,1.5-0.1,2.1-0.3c0.6-0.2,1.1-0.5,1.5-0.8c0.4-0.4,0.7-0.8,0.9-1.3
						C279.8,18.4,279.9,17.9,279.9,17.3z"/>
					<path class="st2" d="M292.2,33.8c0,0.1,0,0.2-0.1,0.3c0,0.1-0.1,0.1-0.3,0.2c-0.1,0-0.3,0.1-0.5,0.1c-0.2,0-0.5,0-0.8,0
						c-0.3,0-0.5,0-0.7,0c-0.2,0-0.4-0.1-0.5-0.1c-0.1,0-0.2-0.1-0.3-0.2c0-0.1-0.1-0.2-0.1-0.3V11.3c0-0.1,0-0.2,0.1-0.3
						c0.1-0.1,0.1-0.1,0.3-0.2c0.1,0,0.3-0.1,0.5-0.1c0.2,0,0.4,0,0.7,0c0.3,0,0.6,0,0.8,0c0.2,0,0.4,0.1,0.5,0.1
						c0.1,0,0.2,0.1,0.3,0.2c0,0.1,0.1,0.2,0.1,0.3V33.8z"/>
					<path class="st2" d="M316.1,33c0,0.2,0,0.4-0.1,0.6c-0.1,0.2-0.2,0.3-0.3,0.4c-0.1,0.1-0.3,0.2-0.4,0.2s-0.3,0.1-0.5,0.1h-1
						c-0.3,0-0.6,0-0.9-0.1c-0.2-0.1-0.5-0.2-0.7-0.4c-0.2-0.2-0.4-0.4-0.7-0.7c-0.2-0.3-0.5-0.7-0.7-1.2l-7.1-13.3
						c-0.4-0.7-0.8-1.4-1.1-2.2c-0.4-0.8-0.7-1.5-1.1-2.2h0c0,0.9,0,1.8,0.1,2.7c0,0.9,0,1.8,0,2.7v14.1c0,0.1,0,0.2-0.1,0.2
						c-0.1,0.1-0.1,0.1-0.3,0.2c-0.1,0-0.3,0.1-0.5,0.1c-0.2,0-0.4,0-0.8,0c-0.3,0-0.6,0-0.8,0c-0.2,0-0.4-0.1-0.5-0.1
						c-0.1,0-0.2-0.1-0.2-0.2c-0.1-0.1-0.1-0.2-0.1-0.2V12.2c0-0.5,0.1-0.8,0.4-1c0.3-0.2,0.6-0.3,0.9-0.3h1.5c0.4,0,0.7,0,0.9,0.1
						c0.2,0.1,0.5,0.2,0.7,0.3c0.2,0.1,0.4,0.3,0.6,0.6s0.4,0.6,0.6,0.9l5.5,10.3c0.3,0.6,0.7,1.2,1,1.8c0.3,0.6,0.6,1.2,0.9,1.8
						c0.3,0.6,0.6,1.1,0.9,1.7s0.6,1.1,0.8,1.7h0c0-1,0-1.9,0-3c0-1,0-2,0-3V11.4c0-0.1,0-0.2,0.1-0.2c0.1-0.1,0.1-0.1,0.3-0.2
						c0.1-0.1,0.3-0.1,0.5-0.1s0.5,0,0.8,0c0.3,0,0.5,0,0.7,0c0.2,0,0.4,0.1,0.5,0.1c0.1,0.1,0.2,0.1,0.2,0.2
						c0.1,0.1,0.1,0.2,0.1,0.2V33z"/>
					<path class="st2" d="M339.8,33.1c0.1,0.3,0.1,0.5,0.2,0.6c0,0.2,0,0.3-0.1,0.4s-0.3,0.1-0.5,0.2c-0.2,0-0.5,0-0.9,0
						c-0.4,0-0.7,0-0.9,0c-0.2,0-0.4,0-0.5-0.1c-0.1,0-0.2-0.1-0.3-0.2c-0.1-0.1-0.1-0.2-0.2-0.3l-2-5.7h-9.7l-1.9,5.6
						c0,0.1-0.1,0.2-0.1,0.3c-0.1,0.1-0.1,0.1-0.3,0.2c-0.1,0.1-0.3,0.1-0.5,0.1c-0.2,0-0.5,0-0.8,0c-0.3,0-0.6,0-0.9,0
						c-0.2,0-0.4-0.1-0.5-0.2c-0.1-0.1-0.1-0.2-0.1-0.4c0-0.2,0.1-0.4,0.2-0.6l7.9-21.7c0-0.1,0.1-0.2,0.2-0.3
						c0.1-0.1,0.2-0.2,0.3-0.2c0.2,0,0.3-0.1,0.6-0.1s0.5,0,0.9,0c0.4,0,0.7,0,1,0c0.3,0,0.5,0.1,0.6,0.1c0.2,0,0.3,0.1,0.4,0.2
						c0.1,0.1,0.2,0.2,0.2,0.3L339.8,33.1z M329.8,14L329.8,14l-4.1,11.7h8.1L329.8,14z"/>
					<path class="st2" d="M359.4,33.8c0,0.1,0,0.2-0.1,0.3c0,0.1-0.1,0.1-0.2,0.2c-0.1,0-0.3,0.1-0.5,0.1c-0.2,0-0.5,0-0.9,0
						c-0.3,0-0.6,0-0.8,0c-0.2,0-0.4-0.1-0.5-0.1c-0.1-0.1-0.2-0.1-0.3-0.2c-0.1-0.1-0.1-0.2-0.2-0.4l-2.2-5.5
						c-0.3-0.6-0.5-1.2-0.8-1.7s-0.6-1-1-1.4s-0.8-0.7-1.3-0.9s-1.1-0.3-1.8-0.3h-2.1v10c0,0.1,0,0.2-0.1,0.3
						c-0.1,0.1-0.1,0.1-0.3,0.2c-0.1,0-0.3,0.1-0.5,0.1c-0.2,0-0.5,0-0.8,0c-0.3,0-0.6,0-0.8,0c-0.2,0-0.4-0.1-0.5-0.1
						c-0.1,0-0.2-0.1-0.3-0.2c0-0.1-0.1-0.2-0.1-0.3V12.1c0-0.5,0.1-0.8,0.4-1c0.2-0.2,0.5-0.3,0.8-0.3h5c0.6,0,1.1,0,1.5,0
						c0.4,0,0.7,0.1,1.1,0.1c0.9,0.2,1.7,0.4,2.4,0.7c0.7,0.3,1.3,0.8,1.7,1.3c0.5,0.5,0.8,1.1,1.1,1.8c0.2,0.7,0.4,1.4,0.4,2.2
						c0,0.8-0.1,1.5-0.3,2.1s-0.5,1.2-0.9,1.6c-0.4,0.5-0.9,0.9-1.4,1.2c-0.6,0.4-1.2,0.6-1.9,0.9c0.4,0.2,0.7,0.4,1,0.6
						c0.3,0.3,0.6,0.6,0.9,0.9s0.5,0.8,0.8,1.2c0.2,0.5,0.5,1,0.7,1.6l2.1,5.2c0.2,0.4,0.3,0.7,0.3,0.9
						C359.3,33.5,359.4,33.7,359.4,33.8z M354.7,17.3c0-0.9-0.2-1.7-0.6-2.3c-0.4-0.6-1.1-1.1-2.1-1.4c-0.3-0.1-0.6-0.1-1-0.2
						s-0.9-0.1-1.5-0.1h-2.6v7.9h3c0.8,0,1.5-0.1,2.1-0.3c0.6-0.2,1.1-0.5,1.5-0.8c0.4-0.4,0.7-0.8,0.9-1.3
						C354.6,18.4,354.7,17.9,354.7,17.3z"/>
					<path class="st2" d="M370.8,25.2v8.6c0,0.1,0,0.2-0.1,0.3c0,0.1-0.1,0.1-0.3,0.2c-0.1,0-0.3,0.1-0.5,0.1c-0.2,0-0.5,0-0.7,0
						c-0.3,0-0.5,0-0.7,0c-0.2,0-0.4-0.1-0.5-0.1c-0.1,0-0.2-0.1-0.3-0.2c0-0.1-0.1-0.2-0.1-0.3v-8.6L361,11.9
						c-0.1-0.3-0.2-0.5-0.2-0.7c0-0.2,0-0.3,0.1-0.4c0.1-0.1,0.3-0.1,0.5-0.2c0.2,0,0.6,0,0.9,0c0.4,0,0.7,0,0.9,0
						c0.2,0,0.4,0.1,0.5,0.1c0.1,0,0.2,0.1,0.3,0.2c0.1,0.1,0.1,0.2,0.2,0.3l3.2,6.7c0.3,0.6,0.6,1.3,0.9,2c0.3,0.7,0.6,1.4,0.9,2.1
						h0c0.3-0.7,0.6-1.4,0.9-2.1c0.3-0.7,0.6-1.4,0.9-2l3.3-6.8c0-0.1,0.1-0.2,0.2-0.3c0.1-0.1,0.2-0.1,0.3-0.2
						c0.1,0,0.3-0.1,0.5-0.1c0.2,0,0.5,0,0.8,0c0.4,0,0.8,0,1,0c0.2,0,0.4,0.1,0.5,0.2c0.1,0.1,0.1,0.2,0.1,0.4s-0.1,0.4-0.2,0.6
						L370.8,25.2z"/>
				</g>
			</g>
		</g>
	</g>
	<g>
		<path d="M185.1,6.3c0,2.5-1.9,4.4-4.5,4.4c-2.5,0-4.5-1.9-4.5-4.4c0-2.4,2-4.3,4.5-4.3C183.1,2,185.1,3.9,185.1,6.3z M177.2,6.3
			c0,1.9,1.4,3.5,3.4,3.5c1.9,0,3.3-1.5,3.3-3.4c0-1.9-1.4-3.5-3.3-3.5C178.7,2.9,177.2,4.4,177.2,6.3z M179.9,8.6h-1V4.3
			c0.4-0.1,1-0.1,1.7-0.1c0.8,0,1.2,0.1,1.5,0.3c0.2,0.2,0.4,0.5,0.4,1c0,0.5-0.4,0.8-0.9,1v0.1c0.4,0.2,0.7,0.5,0.8,1.1
			c0.1,0.7,0.2,0.9,0.3,1.1h-1.1c-0.1-0.2-0.2-0.6-0.3-1.1c-0.1-0.5-0.3-0.7-0.9-0.7h-0.5V8.6z M179.9,6.2h0.5c0.6,0,1-0.2,1-0.6
			c0-0.4-0.3-0.7-0.9-0.7c-0.3,0-0.5,0-0.6,0.1V6.2z"/>
	</g>
</g>
</svg>
