<?xml version="1.0" encoding="utf-8"?>
<!-- Generator: Adobe Illustrator 24.2.2, SVG Export Plug-In . SVG Version: 6.00 Build 0)  -->
<svg version="1.1" id="Layer_1" xmlns="http://www.w3.org/2000/svg" xmlns:xlink="http://www.w3.org/1999/xlink" x="0px" y="0px"
	 width="79.1px" height="91px" viewBox="0 0 79.1 91" style="enable-background:new 0 0 79.1 91;" xml:space="preserve">
<style type="text/css">
	.st0{fill:#F96731;}
	.st1{fill:#666666;}
	.st2{fill:#FFFFFF;}
</style>
<g>
	<path class="st0" d="M77,45.5c0,20.7-16.8,37.4-37.4,37.4c-20.7,0-37.4-16.8-37.4-37.4c0-20.7,16.8-37.4,37.4-37.4
		C60.2,8.1,77,24.8,77,45.5"/>
	<path class="st1" d="M3.8,21.6C11.5,10,24.7,2.4,39.6,2.4c14.9,0,28.1,7.6,35.8,19.2h0.9C68.4,9.6,54.9,1.7,39.6,1.7
		c-15.4,0-28.9,7.9-36.7,19.9H3.8z"/>
	<path class="st1" d="M76.8,67.1c-7.5,12.8-21.4,21.5-37.2,21.5c-15.9,0-29.8-8.6-37.2-21.5H1.4C9,80.4,23.2,89.3,39.6,89.3
		c16.3,0,30.6-9,38.1-22.2H76.8z"/>
	<path class="st2" d="M56.7,34c-0.1-1.6-0.4-3.2-1.2-4.6c-0.4-0.7-0.8-1.2-1.2-1.7c-0.4-0.4-0.8-0.7-1.3-1l-0.2-0.1
		c-2-1.1-4.6-1.4-4.6-1.4l-2.9,1.8c-3.5,2-5.6,3.1-12,3c-1.9-0.6,0.3-0.7,0.3-0.7c2.5,0.2,4.5-0.3,6-0.9c-3-0.4-5-2.2-5-2.2
		c-5-2.5-9.6,2.6-9.6,2.6c-4.9,6.2-0.6,14.5-0.6,14.5c0.4,1.4,4.7,7.5,4.7,7.5c2,4.1,2.5,9.4,2.5,9.4c3.9,12.5,5.8,0,5.8,0l0.2-3.9
		c0.8-11,6.4-12.1,6.4-12.1c3-0.8,0.5,0.7,0.5,0.7c-2.9,2-3.1,5.8-3.1,5.8c-0.5,4.7,0.9,9.8,0.9,9.8c3.2,10.7,5,0.2,5,0.2
		c0.9-10,4.4-14.3,5.8-15.7c0.6-0.6,1.2-1.3,1.7-2c0.2-0.3,0.3-0.6,0.5-0.9l0,0c0.1-0.3,0.3-0.6,0.4-0.9l0,0h0
		c0.5-1.4,0.9-3.2,0.9-3.2C56.7,36.4,56.7,35,56.7,34"/>
</g>
</svg>
