<?xml version="1.0" encoding="utf-8"?>
<!-- Generator: Adobe Illustrator 24.2.2, SVG Export Plug-In . SVG Version: 6.00 Build 0)  -->
<svg version="1.1" id="Layer_1" xmlns="http://www.w3.org/2000/svg" xmlns:xlink="http://www.w3.org/1999/xlink" x="0px" y="0px"
	 width="79.1px" height="91px" viewBox="0 0 79.1 91" style="enable-background:new 0 0 79.1 91;" xml:space="preserve">
<style type="text/css">
	.st0{fill:#2B9AF3;}
	.st1{fill:#666666;}
	.st2{fill:#FFFFFF;}
</style>
<g>
	<path class="st0" d="M77,45.5c0,20.7-16.8,37.4-37.4,37.4c-20.7,0-37.4-16.8-37.4-37.4c0-20.7,16.8-37.4,37.4-37.4
		C60.2,8.1,77,24.8,77,45.5"/>
	<path class="st1" d="M3.8,21.6C11.5,10,24.7,2.4,39.6,2.4c14.9,0,28.1,7.6,35.8,19.2h0.9C68.4,9.6,54.9,1.7,39.6,1.7
		c-15.4,0-28.9,7.9-36.7,19.9H3.8z"/>
	<path class="st1" d="M76.8,67.1c-7.5,12.8-21.4,21.5-37.2,21.5c-15.9,0-29.8-8.6-37.2-21.5H1.4C9,80.4,23.2,89.3,39.6,89.3
		c16.3,0,30.6-9,38.1-22.2H76.8z"/>
	<path class="st2" d="M43.5,50c0.7,1.2,0.9,2.6,2.1,3.5c0.6,0.5,1.4,0.7,2.1,1.1c0.6,0.3,0.9,0,1.3-0.3c1.1-0.9,2.3-1.8,3.4-2.7
		c0.1-0.1,0.2-0.2,0.4-0.1c0.2,0.1,0.5,0.1,0.8,0.1l-0.1,0.2c-1.2,0.9-2.4,1.8-3.6,2.6c-0.2,0.2-0.5,0.3-0.8,0.5
		c1.3,0.3,2.5,0.3,3.8,0.2c-0.6,0.4-1.1,0.9-1.7,1.3c-0.1,0.1-0.2,0.1-0.3,0.1c-1.5-0.2-2.9-0.6-4.3-1.2c-0.2-0.1-0.3-0.1-0.5-0.2
		c0.1,1.8,0.2,3.6,0.3,5.4c-0.3,0-0.5,0-0.7,0c0-0.8,0-1.7-0.1-2.5c-0.1-1.1-0.3-2.3-0.5-3.4L45,54.4c-0.7-0.5-1.2-1.3-1.6-2
		c-0.4-0.7-0.9-1.4-1.3-2.2c-1,1.1-2.1,1.5-3.4,1.2c-0.5,1.7-2.5,2.3-3.8,0.9c0,0.1,0,0.2,0,0.3c0,1,0.1,2,0.1,3
		c0,1.1-0.1,2.2-0.2,3.3c-0.1,1.1,0.4,2,1.1,2.9c0.8,1,1.7,1.8,2.7,2.6c0.6,0.5,1.2,0.6,2,0.5c1.2-0.2,2.5-0.3,3.7-0.5
		c0.1,0,0.3,0.1,0.4,0.1c0.2,0.1,0.4,0.3,0.7,0.5L45,65.2c-1.3,0.1-2.7,0.3-4,0.4c-0.5,0.1-1.1,0.1-1.7,0.2c0.7,1.7,1.3,3.4,2,5.1
		c-0.2,0.1-0.4,0.2-0.6,0.3c-0.2-0.6-0.4-1.2-0.7-1.7c-0.5-1.1-1-2.2-1.5-3.3c-0.1-0.2-0.3-0.3-0.5-0.5c-1.2-0.9-2.2-2-3.1-3.2
		c-0.9-1.1-1.3-2.4-1.2-3.8c0-1.8-0.2-3.6-0.7-5.3c-0.1-0.2-0.1-0.4-0.3-0.6c-0.1-0.1-0.2-0.3-0.3-0.3c-1.1-0.4-1.7-1.1-2-2.2
		c0,0,0-0.1-0.1-0.2c-0.4,0.3-0.8,0.7-1.2,1c-1,0.7-1.9,1.4-2.9,2c-1.1,0.7-2,1.5-2.4,2.8c-0.1,0.4-0.2,0.9-0.3,1.3
		c-0.2,1.2-0.2,2.4-0.1,3.7c0,0.5,0.4,0.8,0.7,1.1c0.5,0.6,1.1,1.1,1.6,1.6c0.3,0.3,0.7,0.6,1,0.9c0.1,0.1,0.2,0.2,0.2,0.5
		c-0.1,0.2,0,0.5,0,0.8c-0.1-0.1-0.2-0.1-0.3-0.1c-1.3-1.4-2.6-2.7-3.9-4.1c-0.2-0.3-0.5-0.5-0.7-0.8l-0.1-0.3c0-1.3,0.2-2.7,0.5-4
		c0.1-0.3,0.2-0.7,0.3-1c-1.8,0.3-3.6,0.7-5.4,1c-0.1-0.3-0.1-0.5-0.1-0.7c0.6-0.1,1.2-0.2,1.8-0.3c1.2-0.3,2.4-0.6,3.6-0.9
		c0.4-0.1,0.7-0.4,0.9-0.7c0.5-0.8,1.2-1.3,1.9-1.8c1-0.8,2-1.7,2.8-2.6c0.1-0.1,0.1-0.1,0.2-0.2L28.2,49c-0.8-0.4-1.4-0.9-1.8-1.7
		c0-0.1-0.2-0.2-0.3-0.2c-0.7-0.2-1.3-0.4-2-0.7c-0.9-0.3-1.7-0.9-2.4-1.6c-1.6-1.7-2.9-3.6-3.9-5.7c-0.1-0.2-0.1-0.3,0-0.5
		c0.3-0.7,0.5-1.5,0.7-2.2c0.4,1.5,0.9,3,1.7,4.4c0.1-0.4,0.2-0.8,0.3-1.1c0.5-1.6,1.1-3.3,1.6-4.9c0-0.1,0.1-0.2,0.2-0.2
		c0.2,0.4,0.4,0.7,0.6,1.1l0,0.3c-0.6,1.6-1.2,3.3-1.8,4.9C21.1,41,21,41.3,21,41.5c0,0.2,0.1,0.4,0.2,0.5c0.6,0.9,1.3,1.7,2.1,2.4
		c0.5,0.5,1.2,0.7,1.8,0.9c0.3,0.1,0.6,0.2,1,0.2c0.2,0.1,0.3,0,0.3-0.2c0.1-0.3,0.3-0.6,0.5-0.9c0-0.1,0.1-0.2,0-0.3
		c-0.7-1.7-0.2-3.2,1.4-4.1c0.1-0.1,0.2-0.2,0.2-0.3c-0.3-2.3,1.1-4.3,3.3-4.8c0.3-0.1,0.6-0.1,1-0.1c-0.2-1.2,0.2-2.2,0.6-3.3
		c0.4-1.4,0.7-2.8,0.9-4.2c0.1-0.6-0.1-1.2-0.4-1.7c-0.4-0.9-0.7-1.8-1.1-2.7c-0.2-0.5-0.5-1.1-0.8-1.6c-0.1-0.2-0.2-0.4,0-0.7
		c0.1-0.2,0.1-0.4,0.2-0.7c0.1,0.1,0.2,0.2,0.2,0.2c0.6,1.4,1.2,2.8,1.7,4.1c0.1,0.3,0.2,0.3,0.5,0.2c0.6-0.2,1.2-0.3,1.7-0.5
		c0.5-0.2,0.9-0.5,1.4-0.8c0.8-0.6,1.6-1.3,2.4-1.9c0.1-0.1,0.2-0.1,0.4-0.1c0.2,0.1,0.5,0.1,0.8,0.1c-0.1,0.1-0.1,0.2-0.2,0.3
		c-1.2,0.9-2.3,1.7-3.5,2.6c-0.1,0.1-0.2,0.2-0.3,0.4c-0.2,0.4-0.4,0.8-0.5,1.3c-0.3,0.9-0.7,1.8-1,2.8c-0.4,1.4-1,2.8-1.5,4.2
		c-0.3,0.7-0.5,1.4-0.3,2.2l0.1,0.2l0.1,0.1c0-0.1,0.1-0.2,0.1-0.3c0.2-0.7,0.5-1.3,0.9-1.8c1.4-1.7,3.8-1.7,5.2,0
		c0.5,0.6,0.9,1.4,1,2.2c0,0.1,0,0.2,0.1,0.3c0.3-0.1,0.5-0.2,0.8-0.3c1.1-0.5,2.3-1,3.4-1.5c0.2-0.1,0.4-0.2,0.6-0.3
		c0.9-0.5,1.3-1.3,1.7-2.2l0,0c0.5-1.2,0.7-2.4,0.7-3.7c0.3,0.5,0.6,0.9,0.8,1.3c0,0.1,0,0.2,0,0.3c-0.2,0.6-0.4,1.3-0.6,1.9
		c0,0.1,0,0.1-0.1,0.3c0.1-0.1,0.2-0.1,0.3-0.1c1-0.6,2-1.2,3-1.9l0.2-0.1c0.3-0.2,0.5-0.5,0.8-0.5c0.3-0.1,0.6,0.1,1,0.2L53.9,29
		c-1.4,0.9-2.9,1.7-4.3,2.6c-0.3,0.2-0.7,0.3-1.1,0.6c-0.2,0.1-0.4,0.3-0.5,0.4c-0.4,0.8-1.1,1.4-2,1.7c-0.5,0.2-1,0.5-1.5,0.8
		c-0.1,0-0.2,0.1-0.3,0.2l0.1,0.1c1.8,0.5,2.8,2.5,2.7,4.3c-0.1,0.7-0.3,1.4-0.7,2c-0.1,0.1,0,0.3-0.1,0.5c0.8-0.3,1.4-0.5,2.1-0.7
		c1.1-0.4,2.3-0.5,3.5-0.5c2.4,0,4.7,0.3,7,0.7c0.5,0.1,1,0.1,1.4,0.4c0.4,0.3,0.6,0.8,0.9,1.2c0.1,0.2,0.3,0.4,0.5,0.6
		c-3-1.2-6-1.8-9.3-1.9c0.4,0.4,0.7,0.8,1,1.2c0.9,1.1,1.7,2.3,2.6,3.4l0.1,0.3l-0.2,0c-0.3-0.1-0.7-0.2-1-0.3
		c-0.1,0-0.3-0.1-0.3-0.2c-0.9-1.4-1.9-2.7-2.9-4c-0.4-0.5-0.8-0.4-1.2-0.3c-1.3,0.2-2.4,0.8-3.6,1.2c-0.3,0.1-0.4,0.3-0.5,0.6
		c-0.1,0.6-0.3,1.1-0.7,1.5c-0.1,0.1-0.1,0.3-0.1,0.4c0.3,0.9,0.3,1.8-0.1,2.7c-0.4,0.8-0.9,1.3-1.8,1.4L43.5,50z M40.4,36.6
		c0-1.3-0.3-2.1-0.8-2.8c-0.9-1-2.2-1-3.1,0c-1.1,1.3-1.1,3.6,0,4.9c0.9,1,2.2,1,3.1,0C40.1,38,40.3,37.2,40.4,36.6 M32,40.3
		c-1.3,0-2.4,1.1-2.4,2.4c0,1.3,1.1,2.4,2.4,2.4c1.4,0,2.5-1.1,2.5-2.4C34.4,41.5,33.3,40.3,32,40.3 M45.7,39.3
		c0-1.2-0.9-2.1-2.1-2.1c-1.2,0-2.1,0.9-2.1,2.1c0,1.1,0.9,2.1,2.1,2.1C44.8,41.4,45.7,40.4,45.7,39.3 M32,39.5c1,0,1.9-0.8,1.9-1.9
		c0-1-0.9-1.9-1.9-1.9c-1,0-1.8,0.9-1.8,1.9C30.1,38.7,30.9,39.5,32,39.5 M30.9,46.1c0-1-0.9-1.9-1.9-1.9c-1,0-1.9,0.9-1.8,1.9
		c0,1,0.9,1.8,1.9,1.8C30.1,48,30.9,47.2,30.9,46.1 M33.7,47.2c-1,0-1.8,0.8-1.8,1.8c0,1,0.8,1.8,1.8,1.8c1,0,1.8-0.8,1.8-1.8
		C35.5,48,34.7,47.2,33.7,47.2 M41.2,43.4c0-0.9-0.8-1.7-1.7-1.7c-1,0-1.7,0.7-1.7,1.7c0,1,0.8,1.7,1.7,1.7
		C40.4,45.1,41.2,44.3,41.2,43.4 M40.5,48.9c0-0.8-0.7-1.5-1.5-1.5c-0.8,0-1.5,0.7-1.5,1.5c0,0.8,0.7,1.5,1.5,1.5
		C39.7,50.4,40.5,49.8,40.5,48.9 M43.5,45.7c-0.8,0-1.4,0.7-1.4,1.4c0,0.8,0.7,1.4,1.4,1.4c0.8,0,1.4-0.6,1.4-1.4
		C45,46.3,44.3,45.7,43.5,45.7 M35.7,46.5c0.5,0,1-0.4,1-1c0-0.5-0.4-1-1-1c-0.6,0-1,0.4-1,1C34.7,46,35.2,46.5,35.7,46.5"/>
</g>
</svg>
