<?xml version="1.0" encoding="utf-8"?>
<!-- Generator: Adobe Illustrator 24.2.2, SVG Export Plug-In . SVG Version: 6.00 Build 0)  -->
<svg version="1.1" id="Layer_1" xmlns="http://www.w3.org/2000/svg" xmlns:xlink="http://www.w3.org/1999/xlink" x="0px" y="0px"
	 width="79.1px" height="91px" viewBox="0 0 79.1 91" style="enable-background:new 0 0 79.1 91;" xml:space="preserve">
<style type="text/css">
	.st0{fill:#2B9AF3;}
	.st1{fill:#666666;}
	.st2{fill:#FFFFFF;}
</style>
<g>
	<path class="st0" d="M77,45.5c0,20.7-16.8,37.4-37.4,37.4c-20.7,0-37.4-16.8-37.4-37.4c0-20.7,16.8-37.4,37.4-37.4
		C60.2,8.1,77,24.8,77,45.5"/>
	<path class="st1" d="M3.8,21.6C11.5,10,24.7,2.4,39.6,2.4c14.9,0,28.1,7.6,35.8,19.2h0.9C68.4,9.6,54.9,1.7,39.6,1.7
		c-15.4,0-28.9,7.9-36.7,19.9H3.8z"/>
	<path class="st1" d="M76.8,67.1c-7.5,12.8-21.4,21.5-37.2,21.5c-15.9,0-29.8-8.6-37.2-21.5H1.4C9,80.4,23.2,89.3,39.6,89.3
		c16.3,0,30.6-9,38.1-22.2H76.8z"/>
	<path class="st2" d="M33.5,39.4c0.7-1.7,1.6-3.2,2.7-4.6c1.7-2.2,3.8-3.8,6.6-4.4c1.3-0.3,2.5-0.4,3.8,0.1c2.2,0.9,2.6,3.5,1.9,5
		c-0.2,0.4-0.5,0.6-0.9,0.8c-0.3,0.1-0.7,0.2-1,0.4c-0.4,0.2-0.5,0.6-0.2,0.9c0.2,0.3,0.4,0.6,0.7,0.8c0.6,0.5,1.2,1,1.9,1.4
		c1.4,0.8,2.3,2,3,3.4c0.9,2,1.4,4.1,1.8,6.3c0.4,2.5,0.6,5,0.5,7.5c-0.1,1.8-0.3,3.7-0.9,5.5c-0.6,2-1.9,2.9-4,3
		c-2.5,0.2-4.9-0.3-7.2-1.2c-4-1.5-7.6-3.8-10.9-6.5c-1.5-1.2-2.9-2.5-4.1-4.1c-1.6-2.1-2.6-4.4-2.4-7.1c0.1-2.1,0.8-3.9,1.9-5.7
		c0.4-0.7,0.8-1.3,1.2-1.9c0.3-0.5,0.5-1.1,0.5-1.7c0-1.2-0.1-2.3-0.2-3.5c0-0.2,0-0.5,0-0.7c0.1-0.7,0.3-0.9,1-1.1
		c1.1-0.2,2.2-0.1,3.3,0.2c0.2,0,0.4,0.3,0.5,0.5c0.2,0.6,0.4,1.3,0.4,2c0.1,1.4,0.1,2.9,0.1,4.3C33.5,39.1,33.5,39.3,33.5,39.4
		 M42.9,33.8c-0.1,0-0.2,0-0.2,0c-1.7,0.9-3.2,1.9-4.5,3.4c-0.8,0.9-1.4,1.9-1.5,3.2c-0.1,1.5,0.5,2.7,1.2,3.9
		c0.9,1.6,2.2,2.9,3.5,4.2c1.9,1.9,3.8,3.7,5.3,6c1.4,2.1,3,4.1,3.8,6.5c-0.1-0.4-0.2-0.9-0.3-1.3c-0.9-3.2-2.6-5.9-4.8-8.3
		c-1.2-1.3-2.5-2.4-3.6-3.7c-1.4-1.5-2.7-3-3.5-4.9c-0.8-1.9-0.7-3.8,0.6-5.5c0.7-0.9,1.6-1.7,2.5-2.4
		C41.9,34.5,42.4,34.2,42.9,33.8 M50.3,49.2c-0.2-1.1-0.9-2.2-2-3.1c-1.9-1.6-4.3-2-6.6-2.5c0.3,0.2,0.7,0.5,1.1,0.6
		c1.4,0.7,2.9,1.3,4.3,2C48.3,46.9,49.6,47.7,50.3,49.2 M29.2,49.7c1.5-0.7,2.8-1.8,3.6-3.3c0.8-1.5,1-3.8,0.6-4.8
		C32.9,44.8,31.9,47.8,29.2,49.7 M42.1,37.5c-0.9,0.9-1.8,1.8-2.2,3.1c-0.3,1.1,0.3,2.2,1.3,2.6C40.1,41.1,41.2,39.3,42.1,37.5
		 M28.8,33c0.6,0.5,3.4,0.3,3.9-0.2C31.9,32.1,29.3,32.3,28.8,33"/>
	<path class="st2" d="M37,28.8c0.2-0.7,0.5-1.3,0.7-1.9c0.1-0.3,0.4-0.6,0.6-0.9c0.4-0.4,0.9-0.5,1.5-0.3c0.3,0.2,0.4,0.3,0.2,0.6
		c-0.2,0.2-0.4,0.4-0.5,0.6c-0.2,0.2-0.2,0.5,0,0.7c0.3,0.2,0.5,0,0.6-0.2c0.2-0.3,0.3-0.5,0.5-0.8c0.3-0.3,0.5-0.7,0.8-1
		c0.7-0.5,1.5-0.2,1.5,0.6c0,0.6-0.1,1.1-0.2,1.7c0,0.2-0.1,0.4,0.1,0.6c0.4,0.5,0.9,0.9,1.3,1.4l0,0.1c-2.2-0.1-4.1,0.7-5.7,2.1
		c-1.8,1.6-3.4,3.3-4.6,5.6c0-0.2,0-0.4,0-0.5c-0.1-1.3-0.1-2.7-0.3-4c-0.1-0.6-0.1-1,0.2-1.5c0.2-0.3,0.3-0.6,0.5-1
		c-0.6-0.3-1.2-0.5-1.8-0.8c-0.2-0.1-0.4-0.2-0.4-0.3c-0.3-0.6-0.3-1.2-0.1-1.8c0.3-0.7,0.9-1.1,1.7-0.9c1.1,0.2,2,0.8,2.9,1.4
		C36.7,28.6,36.9,28.7,37,28.8 M32.6,29.6c0.4-0.6,0.7-1.1,1.1-1.6c0.1-0.1,0.1-0.3,0.1-0.5c-0.2,0-0.4-0.1-0.5,0
		C32.5,27.8,32.2,28.7,32.6,29.6 M41.6,26c0.1,0.4,0.5,0.8,0.8,0.7c0.1,0,0.3-0.1,0.3-0.2l-0.1-0.3C42.3,26,42,25.8,41.6,26
		 M38.6,26c0.3,0.4,0.7,0.5,1.2,0.2C39.4,25.9,39,26,38.6,26"/>
</g>
</svg>
