<?xml version="1.0" encoding="utf-8"?>
<!-- Generator: Adobe Illustrator 24.2.2, SVG Export Plug-In . SVG Version: 6.00 Build 0)  -->
<svg version="1.1" id="Layer_1" xmlns="http://www.w3.org/2000/svg" xmlns:xlink="http://www.w3.org/1999/xlink" x="0px" y="0px"
	 width="79.1px" height="91px" viewBox="0 0 79.1 91" style="enable-background:new 0 0 79.1 91;" xml:space="preserve">
<style type="text/css">
	.st0{fill:#2B9AF3;}
	.st1{fill:#666666;}
	.st2{fill:#FFFFFF;}
</style>
<g>
	<path class="st0" d="M77,45.5c0,20.7-16.8,37.4-37.4,37.4c-20.7,0-37.4-16.8-37.4-37.4c0-20.7,16.8-37.4,37.4-37.4
		C60.2,8.1,77,24.8,77,45.5"/>
	<path class="st1" d="M3.8,21.6C11.5,10,24.7,2.4,39.6,2.4c14.9,0,28.1,7.6,35.8,19.2h0.9C68.4,9.6,54.9,1.7,39.6,1.7
		c-15.4,0-28.9,7.9-36.7,19.9H3.8z"/>
	<path class="st1" d="M76.8,67.1c-7.5,12.8-21.4,21.5-37.2,21.5c-15.9,0-29.8-8.6-37.2-21.5H1.4C9,80.4,23.2,89.3,39.6,89.3
		c16.3,0,30.6-9,38.1-22.2H76.8z"/>
	<path class="st2" d="M55.1,29.5c0.1-0.2,0.1-0.5,0.2-0.7c0.1-0.4,0.4-0.5,0.7-0.3c0.3,0.2,0.6,0.5,0.9,0.8c0.1,0.1,0.2,0.2,0.4,0.2
		c0.2,0,0.5-0.1,0.7,0c0.3,0.1,0.5,0.2,0.7,0.3c0.5,0.4,1,0.6,1.6,0.7c0.3,0.1,0.5,0.2,0.5,0.5c0,0.7,0,1.4-0.1,2.1
		c-0.1,0.6-0.6,0.9-1.1,1.2c-0.7,0.3-1.4,0.5-2.1,0.8c-0.1,0-0.2,0.1-0.4,0.1c0.6,0.2,1.1,0.1,1.6,0c0.2,0,0.3-0.1,0.5-0.1
		c0.6-0.1,0.6-0.1,0.8,0.4c0.7,1.7,1.2,3.4,1,5.3c-0.1,1.3-0.5,2.4-1.4,3.4c-0.6,0.6-1.1,1.2-1.4,2c-0.5,1.3-0.5,2.7,0,4
		c0.2,0.7,0.5,0.8,1.2,0.6c0.8-0.2,1.5,0.2,1.9,0.9c0.2,0.4,0.1,0.7-0.3,0.8c-1,0.2-2,0.5-3,0.5c-3.1,0.1-6.3,0.1-9.4,0
		c-0.3,0-0.5,0.1-0.6,0.3c-2,2.7-2.3,5.6-0.7,8.6c1.6,3,4.2,4.3,7.6,4.1c1.2-0.1,2.2-0.5,3.3-1c0.9-0.5,1.9,0,2.1,0.9
		c0.1,0.6-0.2,1.1-0.8,1.5c-3,1.7-6.2,1.9-9.4,0.6c-4.1-1.7-6.7-5.8-6.5-10.3c0.1-1.9,0.7-3.6,1.7-5.2c0.2-0.3,0.2-0.5,0.1-0.9
		c-0.7-2.4-0.9-4.8-0.1-7.2c1-3.1,3-5.2,5.8-6.7c0.3-0.2,0.6-0.3,0.9-0.4c0.3-0.1,0.4-0.3,0.5-0.6c0.2-1.4,0.7-2.8,1.3-4.1
		c0.2-0.3,0.2-0.5,0-0.8c-0.2-0.6-0.5-1.2-0.5-1.8c-0.1-0.8,0.3-1.1,1.1-0.9C54.6,29.3,54.8,29.4,55.1,29.5"/>
	<path class="st2" d="M31.7,51.4c-1-0.4-1.3-1.3-1.6-2.1c-0.6-2.1,0.1-4.2,2-5.5c0.9-0.6,1.8-1,2.9-1.3l0.2-0.1
		c-1,0-1.9,0.2-2.8,0.7c-0.9,0.5-1.5,1.2-2.1,2.1c-0.4-0.9-0.5-1.8-0.6-2.7c0,0.1,0,0.2,0,0.4c-0.1,0.8-0.1,1.7-0.2,2.5
		c-0.1,1-0.6,2-1.1,2.9c-0.6,1.1-1.2,2.2-1.8,3.3c-0.5,1-1.2,1.5-2.3,1.5c-0.5,0-1,0-1.5-0.1c-0.5-0.1-0.6-0.3-0.4-0.8
		c0.1-0.2,0.2-0.3,0.3-0.5c-0.2-0.1-0.5-0.1-0.7-0.2c-0.3-0.1-0.3-0.3-0.3-0.5c0.2-0.8,1.2-1.4,2-1.3c0.3,0.1,0.6-0.1,0.7-0.3
		c0.7-1.2,1.1-2.5,1.4-3.8c0.1-0.5,0.2-1,0.3-1.6c0-0.2,0-0.3-0.1-0.5c-0.6-1-1.3-2-2-2.9c-0.5-0.6-0.7-1.3-0.6-2
		c0-1.1,0.1-2.2,0.1-3.3c0-0.5,0-1,0-1.5c2.6-0.8,5-2,7-4c1.3,0.7,2.2,1.6,2.7,3c0.3,0.7,0.7,1.1,1.4,1.5c2.4,1.3,4.4,3.2,5.4,5.7
		c1.4,3.4,1.3,6.7-0.2,10c-0.1,0.2-0.2,0.4-0.3,0.6l0.1,0.1c1.8,0.8,2.9,2.2,3.5,4.1c1.3,3.9-0.4,7.7-4.3,9.3
		c-1.5,0.6-3,0.9-4.6,1.1c-1.9,0.2-3.8,0.3-5.8,0.5c-1.4,0.1-2.8,0.4-4.2,1l-0.1,0c1.7-3.3,4.5-4.5,8-4.7c-0.1-0.1-0.3-0.2-0.4-0.2
		c-0.7-0.2-1.4-0.2-2.1-0.1c-0.2,0-0.5,0.1-0.8,0.1c1.4-1.5,3.1-2.3,5-2.8c1.9-0.5,3.8-0.7,5.7-0.3c-0.5-0.5-1.8-0.9-3.6-0.6
		c0.1-0.1,0.2-0.2,0.3-0.2c0.8-0.8,1.6-1.6,2.3-2.6c0.4-0.6,0.7-1.3,0.7-2.1c0-0.7-0.4-1.2-0.9-1.6l0,0.1c0.1,1-0.3,1.4-1.3,1.5
		l-0.2,0c-3.1,0-6.2,0-9.3,0c-0.1,0-0.2,0-0.4,0c-0.4,0-0.5-0.1-0.4-0.5c0.1-0.8,0.9-1.3,1.6-1.2c0.6,0.1,1.2,0.2,1.7,0.3
		C30.4,51.7,31.1,51.6,31.7,51.4"/>
	<path class="st2" d="M23.2,32.9c0-0.3-0.1-0.5-0.1-0.8c-0.5,0.8-1.1,1.3-2,1.4c-0.9,0.1-1.6-0.2-2.4-0.6c0.3-0.3,0.4-0.5,0.2-0.7
		c-0.2,0.1-0.3,0.3-0.5,0.4c-0.2,0.1-0.5-0.1-0.7-0.1c0.5-0.9,1-1.7,1.7-2.4c0.1-0.1,0.2-0.3,0.2-0.5c-0.1-1.1,0.2-2,0.8-2.9
		c-0.2-0.3-0.5-0.6-0.7-0.9c-0.3-0.4-0.6-0.9-0.8-1.4c-0.2-0.6,0-0.9,0.6-0.9c0.2,0,0.4,0,0.7,0c0-0.2-0.1-0.4-0.1-0.6
		c0-0.5,0.2-0.8,0.8-0.7c0.3,0,0.7,0.1,1,0.3c0.7,0.5,1.4,1,2.1,1.5c0.1,0.1,0.2,0.2,0.4,0.2c2.4,1,4.1,2.6,5.2,4.9l-0.1,0.3
		c-0.6,0.5-1.2,1.1-1.9,1.5c-1.3,0.9-2.7,1.6-4.2,2L23.2,32.9z"/>
	<path class="st2" d="M23.1,34.2c0,0.5-0.1,0.9-0.4,1.2c-0.1,0.1-0.3,0.2-0.5,0.2c-0.1,0-0.3-0.2-0.3-0.4c-0.2-0.6,0-1.1,0.3-1.5
		c0.1-0.1,0.3-0.3,0.5-0.2c0.1,0,0.2,0.2,0.3,0.4C23.1,33.9,23.1,34.1,23.1,34.2"/>
</g>
</svg>
