<?xml version="1.0" encoding="utf-8"?>
<!-- Generator: Adobe Illustrator 24.2.2, SVG Export Plug-In . SVG Version: 6.00 Build 0)  -->
<svg version="1.1" id="Layer_1" xmlns="http://www.w3.org/2000/svg" xmlns:xlink="http://www.w3.org/1999/xlink" x="0px" y="0px"
	 width="156.3px" height="158.7px" viewBox="0 0 156.3 158.7" style="enable-background:new 0 0 156.3 158.7;" xml:space="preserve"
	>
<style type="text/css">
	.st0{fill:#F96731;}
	.st1{fill:#2B9AF3;}
</style>
<g>
	<g>
		<g>
			<g>
				<g>
					<g>
						<circle class="st0" cx="78.1" cy="140.3" r="13.9"/>
						<circle class="st0" cx="78.1" cy="18.4" r="13.9"/>
						<path class="st1" d="M64.3,125c-19.6-5.9-33.9-24.1-33.9-45.7c0-21.5,14.3-39.7,33.9-45.6c-4.2-3.8-6.8-9.2-6.8-15.3
							c0-3.9,1.1-7.5,2.9-10.6c0,0,0-0.1,0-0.1c-32.1,8-56,37-56,71.5c0,34.5,23.9,63.6,56,71.5c0,0,0.1,0,0-0.1
							c-1.9-3.1-2.9-6.7-2.9-10.6C57.5,134.2,60.2,128.8,64.3,125z"/>
						<path class="st1" d="M95.7,7.8c1.9,3.1,3,6.7,3,10.6c0,6.1-2.6,11.5-6.8,15.3c19.6,5.9,33.9,24.1,33.9,45.6
							c0,21.5-14.3,39.7-33.9,45.7c4.2,3.8,6.8,9.2,6.8,15.3c0,3.9-1.1,7.5-3,10.6c32.2-7.9,56.1-37,56.1-71.6
							C151.8,44.8,127.9,15.7,95.7,7.8z"/>
					</g>
				</g>
			</g>
		</g>
	</g>
</g>
</svg>
