<svg width="70" height="70" viewBox="0 0 70 70" fill="none" xmlns="http://www.w3.org/2000/svg">
<path d="M10 56C8.625 56 7.44792 55.5162 6.46875 54.5485C5.48958 53.5809 5 52.4176 5 51.0588H15C13.625 51.0588 12.4479 50.575 11.4688 49.6074C10.4896 48.6397 10 47.4765 10 46.1176V18.9412C10 17.5824 10.4896 16.4191 11.4688 15.4515C12.4479 14.4838 13.625 14 15 14H55C56.375 14 57.5521 14.4838 58.5313 15.4515C59.5104 16.4191 60 17.5824 60 18.9412V46.1176C60 47.4765 59.5104 48.6397 58.5313 49.6074C57.5521 50.575 56.375 51.0588 55 51.0588H65C65 52.4176 64.5104 53.5809 63.5313 54.5485C62.5521 55.5162 61.375 56 60 56H10ZM35 53.5294C35.7083 53.5294 36.3021 53.2926 36.7813 52.8191C37.2604 52.3456 37.5 51.7588 37.5 51.0588C37.5 50.3588 37.2604 49.7721 36.7813 49.2985C36.3021 48.825 35.7083 48.5882 35 48.5882C34.2917 48.5882 33.6979 48.825 33.2188 49.2985C32.7396 49.7721 32.5 50.3588 32.5 51.0588C32.5 51.7588 32.7396 52.3456 33.2188 52.8191C33.6979 53.2926 34.2917 53.5294 35 53.5294ZM15 46.1176H55V18.9412H15V46.1176Z" fill="#FA7A4A"/>
<path d="M20.2734 40.5264V30.2106H24.1734V40.5264H20.2734ZM25.4143 40.5264V25.0527H29.3143V40.5264H25.4143ZM30.5553 40.5264V31.9299H34.4553V40.5264H30.5553Z" fill="#FA7A4A"/>
<path d="M45.5337 33.2329V27.2637C47.2408 27.4313 48.6823 28.0685 49.8581 29.1752C51.034 30.2818 51.7174 31.6344 51.9084 33.2329H45.5337ZM44.1191 40.5268C42.3046 40.3592 40.7856 39.6437 39.562 38.3806C38.3384 37.1174 37.7266 35.6251 37.7266 33.9036C37.7266 32.171 38.3384 30.6731 39.562 29.4099C40.7856 28.1468 42.3046 27.4313 44.1191 27.2637V40.5268ZM45.5337 40.5268V34.5576H51.9084C51.7413 36.1561 51.0638 37.5115 49.876 38.6237C48.6882 39.736 47.2408 40.3703 45.5337 40.5268Z" fill="#FA7A4A"/>
</svg>
