<svg width="70" height="70" viewBox="0 0 70 70" fill="none" xmlns="http://www.w3.org/2000/svg">
<path d="M23.75 34.9999H45.25V29.5999H23.75V34.9999ZM23.75 24.1999H45.25V18.8H23.75V24.1999ZM55.8656 57.8823L44.9812 43.6399C44.2198 42.6049 43.2792 41.8066 42.1594 41.245C41.0396 40.6834 39.8302 40.4017 38.5312 40.3999H13V13.4C13 11.915 13.5267 10.6442 14.5802 9.58759C15.6337 8.531 16.8987 8.0018 18.375 8H50.625C52.1031 8 53.3689 8.5292 54.4224 9.58759C55.4759 10.646 56.0018 11.9168 56 13.4V56.5998C56 56.8248 55.9893 57.039 55.9677 57.2424C55.9462 57.4458 55.9122 57.6591 55.8656 57.8823ZM18.375 61.9998C16.8969 61.9998 15.632 61.4715 14.5802 60.4149C13.5285 59.3583 13.0018 58.0866 13 56.5998V45.7999H38.5312C38.9792 45.7999 39.3939 45.9016 39.7756 46.105C40.1572 46.3084 40.4815 46.5892 40.7484 46.9474L52.0359 61.7973C51.812 61.8873 51.5773 61.944 51.3318 61.9674C51.0864 61.9908 50.8507 62.0016 50.625 61.9998H18.375Z" fill="#FA7A4A"/>
</svg>
