<svg width="70" height="70" viewBox="0 0 70 70" fill="none" xmlns="http://www.w3.org/2000/svg">
<path d="M40.4545 37.625C38.1818 37.625 36.25 36.8594 34.6591 35.3281C33.0682 33.7969 32.2727 31.9375 32.2727 29.75C32.2727 27.5625 33.0682 25.7031 34.6591 24.1719C36.25 22.6406 38.1818 21.875 40.4545 21.875C42.7273 21.875 44.6591 22.6406 46.25 24.1719C47.8409 25.7031 48.6364 27.5625 48.6364 29.75C48.6364 31.9375 47.8409 33.7969 46.25 35.3281C44.6591 36.8594 42.7273 37.625 40.4545 37.625ZM15.9091 45.5V14H65V45.5H15.9091ZM26.8182 40.25H54.0909C54.0909 38.8062 54.6255 37.5708 55.6945 36.5435C56.7636 35.5163 58.0473 35.0018 59.5455 35V24.5C58.0455 24.5 56.7618 23.9864 55.6945 22.9591C54.6273 21.9319 54.0927 20.6955 54.0909 19.25H26.8182C26.8182 20.6937 26.2845 21.9301 25.2173 22.9591C24.15 23.9881 22.8655 24.5017 21.3636 24.5V35C22.8636 35 24.1482 35.5145 25.2173 36.5435C26.2864 37.5725 26.82 38.808 26.8182 40.25ZM5 56V21.875H10.4545V50.75H56.8182V56H5Z" fill="#FA7A4A"/>
</svg>
