<?xml version="1.0" encoding="utf-8"?>
<!-- Generator: Adobe Illustrator 25.2.1, SVG Export Plug-In . SVG Version: 6.00 Build 0)  -->
<svg version="1.0" id="Layer_1" xmlns="http://www.w3.org/2000/svg" xmlns:xlink="http://www.w3.org/1999/xlink" x="0px" y="0px"
	 width="86.2px" height="73.7px" viewBox="0 0 86.2 73.7" style="enable-background:new 0 0 86.2 73.7;" xml:space="preserve">
<style type="text/css">
	.st0{fill:#FFFFFF;}
</style>
<g>
	<path class="st0" d="M35.3,54.3c-7.7-2.9-13.6-8.2-18-15c-2.3-3.5-1.9-7.1,1.1-10.1c4.3-4.3,9.3-7.6,15-9.7
		c6.1-2.3,12.3-2.5,18.3,0.1c7,3,12.4,8,16.8,14.1c2.7,3.9,2.5,7.6-0.9,10.9c-2.2,2.2-4.7,4.1-7.3,5.8c-5.8,3.7-12,5.9-20,5.3
		C39.2,55.4,37.2,55.1,35.3,54.3z M52,49.5c4.8-1.9,9-4.7,12.6-8.3c1.5-1.5,1.7-2.6,0.5-4.2c-4.3-6.3-9.7-11.3-17.1-13.7
		c-4.3-1.4-8.7-1-13,0.6c-4.9,1.8-9.2,4.5-13,8.1c-2.2,2-2.4,3.1-0.7,5.6c4,5.6,8.9,10.2,15.6,12.7c1.5,0.5,3,0.8,4.6,1.2
		C45.2,51.5,48.7,50.8,52,49.5z"/>
	<path class="st0" d="M8,35.4c1.1,0.1,2.3,0.2,3.4,0.3c1.4,0.1,2.4-0.6,2.5-1.8c0.1-1.1-0.8-2.1-2.1-2.2c-2.3-0.3-4.7-0.5-7-0.7
		c-1.4-0.1-2.3,0.6-2.4,1.8C2.2,34,3,34.9,4.5,35C5.6,35.2,6.8,35.3,8,35.4z"/>
	<path class="st0" d="M77.9,42.4c1.2,0.1,2.3,0.3,3.5,0.3c1.3,0.1,2.2-0.6,2.3-1.7c0.2-1.2-0.6-2.2-1.9-2.3
		c-2.4-0.3-4.8-0.5-7.3-0.7c-1.2-0.1-2.2,0.7-2.3,1.8c-0.1,1.1,0.7,2.1,1.9,2.2C75.4,42.2,76.7,42.3,77.9,42.4z"/>
	<path class="st0" d="M38.4,65.7c-0.1,1.1-0.3,2.3-0.3,3.4c-0.1,1.4,0.6,2.5,1.8,2.6c1.2,0.1,2.1-0.7,2.3-2.2
		c0.3-2.2,0.5-4.5,0.7-6.8c0.1-1.5-0.6-2.4-1.8-2.6c-1.2-0.1-2.1,0.7-2.3,2.1C38.6,63.5,38.5,64.6,38.4,65.7
		C38.4,65.7,38.4,65.7,38.4,65.7z"/>
	<path class="st0" d="M48.3,8c0.1-1.1,0.2-2.2,0.3-3.2C48.8,3.2,48,2.1,46.8,2c-1.2-0.1-2.1,0.8-2.3,2.2c-0.3,2.2-0.5,4.5-0.7,6.8
		c-0.1,1.5,0.6,2.4,1.8,2.5c1.2,0.1,2.1-0.7,2.3-2.2C48.1,10.2,48.2,9.1,48.3,8z"/>
	<path class="st0" d="M23.2,57.5c-0.4-0.6-0.6-1.4-1.1-1.7c-0.5-0.3-1.6-0.4-2-0.1c-2.2,1.6-4.3,3.4-6.4,5.2c-0.8,0.7-0.7,1.8,0,2.6
		c0.7,0.9,1.8,1.1,2.7,0.4c2.1-1.6,4.1-3.3,6.1-5C22.7,58.6,22.9,58.1,23.2,57.5z"/>
	<path class="st0" d="M60.3,59.1c-0.5,0.3-1.3,0.6-1.6,1.1c-0.3,0.5-0.4,1.6-0.1,2c1.6,2.2,3.4,4.3,5.2,6.4c0.7,0.8,1.8,0.7,2.6,0
		c0.8-0.7,1.1-1.7,0.4-2.6c-1.6-2.2-3.4-4.2-5.1-6.3C61.4,59.5,60.9,59.4,60.3,59.1z"/>
	<path class="st0" d="M27.8,12.7c-0.3-0.7-0.5-1.3-0.8-1.7c-1.5-1.9-3-3.7-4.5-5.6c-0.9-1.1-2-1.2-3-0.4c-0.9,0.7-1,1.9-0.3,2.9
		c1.5,2,3.1,3.9,4.7,5.7c0.5,0.5,1.5,0.7,2.2,0.6C26.7,14,27.2,13.2,27.8,12.7z"/>
	<path class="st0" d="M72.9,11.5c-0.4-0.6-0.7-1.4-1.2-1.7c-0.5-0.3-1.6-0.4-2,0c-2.2,1.6-4.3,3.3-6.3,5.1c-0.8,0.7-0.8,1.9,0,2.7
		c0.8,0.8,1.8,1,2.7,0.3c2-1.6,4-3.2,6-4.9C72.4,12.7,72.5,12.2,72.9,11.5z"/>
	<path class="st0" d="M42.2,45.3c-4.7-0.5-8.1-4.7-7.5-9.3c0.5-4.7,4.7-8,9.3-7.5c4.6,0.5,8.1,4.7,7.5,9.3
		C51,42.4,46.8,45.8,42.2,45.3z M43.6,32.2c-2.5-0.3-4.9,1.6-5.2,4.1c-0.3,2.5,1.6,4.9,4.1,5.2c2.5,0.3,4.9-1.6,5.2-4.1
		C48,34.9,46.1,32.5,43.6,32.2z"/>
</g>
</svg>
