<svg width="90" height="90" viewBox="0 0 90 90" fill="none" xmlns="http://www.w3.org/2000/svg">
<path d="M10.5801 23.4492C10.5801 22.3447 11.4755 21.4492 12.5801 21.4492H79.5656C80.6702 21.4492 81.5656 22.3446 81.5656 23.4492V69.5362H10.5801V23.4492Z" fill="#F2F2FC" stroke="black" stroke-width="2"/>
<path d="M18.5938 12C18.5938 10.8954 19.4892 10 20.5938 10H70.4053C71.5099 10 72.4053 10.8954 72.4053 12V62.9565C72.4053 64.0611 71.5099 64.9565 70.4053 64.9565H20.5937C19.4892 64.9565 18.5938 64.0611 18.5938 62.9565V12Z" fill="#D8D8FC" stroke="black" stroke-width="2"/>
<path d="M18.5938 16.8691L72.4053 16.8691" stroke="black" stroke-width="2" stroke-linecap="round"/>
<rect x="44.9277" y="21.4492" width="22.8986" height="3.43478" rx="1.71739" fill="black"/>
<rect x="44.9277" y="27.1738" width="22.8986" height="3.43478" rx="1.71739" fill="black"/>
<rect x="44.9277" y="32.8984" width="22.8986" height="3.43478" rx="1.71739" fill="black"/>
<rect x="44.9277" y="38.623" width="22.8986" height="3.43478" rx="1.71739" fill="black"/>
<path d="M30.1891 32.8981V33.8981H31.1891H40.4396C40.2789 35.3847 39.7616 36.8159 38.9254 38.0673C37.903 39.5974 36.4499 40.79 34.7497 41.4942C33.0496 42.1984 31.1788 42.3827 29.3739 42.0237C27.5691 41.6647 25.9112 40.7785 24.6099 39.4773C23.3087 38.176 22.4226 36.5182 22.0635 34.7133C21.7045 32.9084 21.8888 31.0376 22.593 29.3375C23.2972 27.6373 24.4898 26.1842 26.0199 25.1618C27.2713 24.3257 28.7025 23.8083 30.1891 23.6476V32.8981Z" fill="#FDBF00" stroke="black" stroke-width="2"/>
<path d="M41.9879 27.7552C42.385 28.7139 42.6363 29.7247 42.7353 30.754H33.334L33.334 21.3526C34.3633 21.4516 35.374 21.703 36.3327 22.1001C37.6005 22.6252 38.7524 23.3949 39.7227 24.3652C40.693 25.3355 41.4627 26.4874 41.9879 27.7552Z" fill="#4BB9EC" stroke="black" stroke-width="2"/>
<rect x="23.1738" y="47.7832" width="21.7536" height="12.5942" rx="2" fill="#3E8FA3" stroke="black" stroke-width="2"/>
<path d="M49.5078 60.377L49.5078 55.7972" stroke="black" stroke-width="2" stroke-linecap="round"/>
<path d="M54.0879 60.377L54.0879 54.6523" stroke="black" stroke-width="2" stroke-linecap="round"/>
<path d="M58.666 60.377L58.666 52.3625" stroke="black" stroke-width="2" stroke-linecap="round"/>
<path d="M63.2461 60.377L63.2461 50.0726" stroke="black" stroke-width="2" stroke-linecap="round"/>
<path d="M67.8262 60.377L67.8262 47.7828" stroke="black" stroke-width="2" stroke-linecap="round"/>
<path d="M83.9575 69.3906C83.4504 75.3258 78.4722 79.9848 72.4058 79.9848H18.5942C12.5278 79.9848 7.54955 75.3258 7.04252 69.3906H83.9575Z" fill="#4BB9EC" stroke="black" stroke-width="2"/>
<rect x="22.0293" y="12.2891" width="6.86957" height="2.28986" fill="black"/>
<rect x="30.043" y="12.2891" width="6.86957" height="2.28986" fill="black"/>
<rect x="38.0586" y="12.2891" width="6.86957" height="2.28986" fill="black"/>
<path d="M38.0586 70H54.0876V72.5797C54.0876 73.6843 53.1921 74.5797 52.0876 74.5797H40.0586C38.954 74.5797 38.0586 73.6843 38.0586 72.5797V70Z" fill="black"/>
<path d="M15.5 70.5H8C10 78.1 15.8333 78.8333 18.5 79H73.5C73.1 75.4 72.1667 76 70.5 76H22.5C16.5 76 15.3333 72.3333 15.5 70.5Z" fill="#26A2DB"/>
</svg>
