<svg width="90" height="90" viewBox="0 0 90 90" fill="none" xmlns="http://www.w3.org/2000/svg">
<rect x="2" y="18.3125" width="64.7796" height="35.7405" rx="3" fill="#A4CCFF"/>
<path d="M6.94492 43.8837V19.8227C6.94492 19.1932 6.66282 18.5399 6.05313 18.3832C4.60164 18.0103 3.17994 19.185 2.36048 20.1907C2.11102 20.4969 2 20.8877 2 21.2826V52.053C2 53.1575 2.89543 54.053 4 54.053H63.6627C64.7673 54.053 65.6627 53.1575 65.6627 52.053V49.8426C65.6627 48.7497 64.7954 47.8592 63.7026 47.8439C49.2458 47.6418 22.0625 47.4001 14.98 47.8722C8.00949 48.3369 6.68003 45.9265 6.88726 44.4375C6.91288 44.2535 6.94492 44.0695 6.94492 43.8837Z" fill="#8BB3EA"/>
<rect x="2" y="18.3125" width="64.7796" height="44.6756" rx="3" stroke="black" stroke-width="2"/>
<path d="M2 54L66 54" stroke="black" stroke-width="2"/>
<path d="M25.3018 65.8953L25.8722 64.3108C26.1578 63.5173 26.9106 62.9883 27.7539 62.9883H41.5248C42.4496 62.9883 43.2538 63.6223 43.4696 64.5215L43.8499 66.106C44.1517 67.3636 43.1985 68.5727 41.9051 68.5727H27.1835C25.7983 68.5727 24.8326 67.1986 25.3018 65.8953Z" stroke="black" stroke-width="2"/>
<rect x="23.2227" y="69.6875" width="22.3378" height="2.23378" rx="1.11689" fill="black"/>
<path d="M77.9487 28.3652H48.9096C47.6759 28.3652 46.6758 29.3653 46.6758 30.599V68.5733C46.6758 69.8069 47.6759 70.807 48.9096 70.807H77.9487C79.1824 70.807 80.1825 69.8069 80.1825 68.5733V30.599C80.1825 29.3653 79.1824 28.3652 77.9487 28.3652Z" fill="#CCF49F" stroke="black" stroke-width="2"/>
<path d="M61.1992 67.7734H65.6668" stroke="black" stroke-width="2" stroke-linecap="round" stroke-linejoin="round"/>
<path d="M53.0055 56.9062V29.6005C48.383 28.8203 47.546 30.2506 47.7054 31.0633V63.7327H79.0136V59.3442C72.7526 59.5068 59.4598 59.7343 56.3772 59.3442C53.2945 58.9542 52.8449 57.5564 53.0055 56.9062Z" fill="#B3E59F"/>
<path d="M47.1816 63.7324H80.0235" stroke="black" stroke-width="2"/>
<path d="M85.0884 40H71.0156C69.357 40 68 41.3193 68 42.9318V68.3411C68 69.9536 69.357 71.2729 71.0156 71.2729H85.0884C86.747 71.2729 88.104 69.9536 88.104 68.3411V42.9318C88.104 41.3193 86.747 40 85.0884 40ZM74.0312 41.4659H82.0728V42.4432H74.0312V41.4659ZM78.052 69.3183C77.5188 69.3183 77.0075 69.1124 76.6304 68.7459C76.2534 68.3793 76.0416 67.8822 76.0416 67.3638C76.0416 66.8454 76.2534 66.3483 76.6304 65.9817C77.0075 65.6152 77.5188 65.4092 78.052 65.4092C78.5852 65.4092 79.0965 65.6152 79.4736 65.9817C79.8506 66.3483 80.0624 66.8454 80.0624 67.3638C80.0624 67.8822 79.8506 68.3793 79.4736 68.7459C79.0965 69.1124 78.5852 69.3183 78.052 69.3183Z" fill="#FFE07D" stroke="black" stroke-width="1.5"/>
<rect x="70.2363" y="44.4668" width="15.6365" height="18.9871" rx="1" fill="#FFD064"/>
</svg>
