<svg width="90" height="90" viewBox="0 0 90 90" fill="none" xmlns="http://www.w3.org/2000/svg">
<path d="M48.5582 4H15.5918C11.9536 4 9 7.65611 9 12.165V77.485C9 81.9939 11.9536 85.65 15.5918 85.65H48.5582C52.2002 85.65 55.15 81.9939 55.15 77.485V12.165C55.15 7.65611 52.2002 4 48.5582 4Z" fill="#EDF4FC" stroke="#29589F" stroke-width="2" stroke-linecap="round" stroke-linejoin="round"/>
<rect x="22.0195" y="4" width="18.9333" height="4.73333" rx="1" fill="#29589F"/>
<rect x="25.5664" y="80.918" width="11.8333" height="2.36667" rx="1" fill="#29589F"/>
<path d="M74.2798 50.8345H17.0798C16.8619 50.8345 16.6462 50.7912 16.4447 50.7069L16.2517 51.1682L16.4446 50.7069C16.2431 50.6226 16.0597 50.499 15.905 50.3428C15.5925 50.0272 15.416 49.5981 15.416 49.1498V20.4636C15.416 19.4867 16.1973 18.7012 17.1567 18.7012H74.2087C75.1644 18.7012 75.9493 19.483 75.9493 20.4636L75.9493 49.1479C75.9493 49.1482 75.9493 49.1485 75.9493 49.1489C75.9474 49.5975 75.7697 50.0263 75.4566 50.3418C75.1433 50.6573 74.7201 50.8339 74.2798 50.8345Z" fill="#87D147" stroke="black"/>
<path d="M67.6022 21.6255C68.0464 24.4851 70.2566 26.7516 73.0452 27.207V42.3205C70.2566 42.7759 68.0464 45.0424 67.6022 47.902H23.6919C23.1238 45.196 20.9755 43.1095 18.3109 42.6753V27.5618C21.2183 27.0905 23.4905 24.6546 23.8003 21.6255H67.6022ZM68.5524 20.5664H22.7985C22.8036 20.6829 22.8088 20.7994 22.8088 20.9212C22.8088 24.0509 20.3352 26.5874 17.2832 26.5874V43.655C20.2164 43.655 22.6177 46.0009 22.7985 48.9664H68.5576C68.5576 45.8367 71.0312 43.3002 74.0832 43.3002V26.2326C71.0261 26.2326 68.5524 23.6961 68.5524 20.5664Z" fill="#2E7D32"/>
<path d="M77.8305 56.7486H20.6305C20.4127 56.7486 20.1969 56.7053 19.9954 56.621L19.8025 57.0823L19.9954 56.621C19.7939 56.5367 19.6105 56.413 19.4558 56.2568C19.1432 55.9412 18.9668 55.5122 18.9668 55.0638V26.3776C18.9668 25.4008 19.7481 24.6152 20.7074 24.6152H77.7595C78.7152 24.6152 79.5001 25.3971 79.5001 26.3776L79.5001 55.062C79.5001 55.0623 79.5001 55.0626 79.5001 55.0629C79.4982 55.5116 79.3205 55.9404 79.0073 56.2558C78.6941 56.5713 78.2709 56.7479 77.8305 56.7486Z" fill="#87D147" stroke="black"/>
<path d="M49.2362 50.1501C54.4645 50.1501 58.7029 45.9118 58.7029 40.6835C58.7029 35.4552 54.4645 31.2168 49.2362 31.2168C44.0079 31.2168 39.7695 35.4552 39.7695 40.6835C39.7695 45.9118 44.0079 50.1501 49.2362 50.1501Z" fill="#2E7D32" stroke="black"/>
<path d="M71.153 27.5435C71.5971 30.4031 73.8074 32.6696 76.596 33.125V48.2385C73.8074 48.6939 71.5971 50.9604 71.153 53.82H27.2426C26.6746 51.1139 24.5263 49.0275 21.8616 48.5933V33.4798C24.769 33.0085 27.0412 30.5725 27.3511 27.5435H71.153ZM72.1032 26.4844H26.3492C26.3544 26.6009 26.3596 26.7174 26.3596 26.8392C26.3596 29.9688 23.886 32.5054 20.834 32.5054V49.5729C23.7672 49.5729 26.1685 51.9189 26.3492 54.8844H72.1084C72.1084 51.7547 74.582 49.2181 77.634 49.2181V32.1506C74.5768 32.1506 72.1032 29.614 72.1032 26.4844Z" fill="#2E7D32"/>
<path d="M51.369 42.9646C51.369 42.5832 51.2055 42.2607 50.8785 42.0002C50.5515 41.7397 49.9963 41.501 49.2168 41.2901C48.1331 41.0203 47.3421 40.6699 46.8478 40.2358C46.3497 39.8016 46.1025 39.2496 46.1025 38.5829C46.1025 37.9007 46.3459 37.3425 46.8326 36.9084C47.3193 36.4712 47.9886 36.2138 48.8365 36.1301V35.054C48.8365 34.8959 48.9962 34.7656 49.1902 34.7656H49.6199C49.8138 34.7656 49.9735 34.8959 49.9735 35.054V36.1363C50.8291 36.2324 51.4945 36.5239 51.9698 37.0138C52.3957 37.4542 52.6315 38.0372 52.6771 38.7659C52.6847 38.9085 52.5402 39.0264 52.3653 39.0264H51.5782C51.4109 39.0264 51.2816 38.9178 51.2664 38.7814C51.2245 38.3069 51.0572 37.9224 50.7644 37.6278C50.4222 37.2836 49.9621 37.11 49.3841 37.11C48.7795 37.11 48.3156 37.2371 47.9962 37.4945C47.6768 37.7488 47.5132 38.1085 47.5132 38.5643C47.5132 38.9892 47.6844 39.3272 48.0228 39.5783C48.3612 39.8295 48.9202 40.059 49.6959 40.2637C50.4716 40.4683 51.0762 40.6947 51.5135 40.9428C51.947 41.1909 52.2702 41.4761 52.4756 41.8048C52.6809 42.1336 52.7836 42.5181 52.7836 42.9584C52.7836 43.6592 52.525 44.2236 52.0079 44.6515C51.4907 45.0795 50.7682 45.3338 49.8366 45.4113V46.3106C49.8366 46.4687 49.6769 46.599 49.483 46.599H49.0571C48.8632 46.599 48.7034 46.4687 48.7034 46.3106V45.4113C47.7566 45.34 47.0151 45.0671 46.4789 44.5864C45.9998 44.1585 45.7336 43.5941 45.6842 42.8964C45.6728 42.7537 45.8211 42.6359 45.996 42.6359H46.7908C46.9505 42.6359 47.0874 42.732 47.0988 42.8623C47.1406 43.3305 47.3231 43.6995 47.6463 43.9693C48.019 44.2794 48.5437 44.4376 49.2282 44.4376C49.8936 44.4376 50.4184 44.3073 50.8025 44.0438C51.1789 43.774 51.369 43.4174 51.369 42.9646Z" fill="black"/>
<rect x="22.0195" y="67.9004" width="17.75" height="5.91667" rx="2.95833" fill="#87D147" stroke="black"/>
</svg>
