<svg width="90" height="90" viewBox="0 0 90 90" fill="none" xmlns="http://www.w3.org/2000/svg">
<ellipse cx="44.8126" cy="51.5141" rx="10.9376" ry="10.8618" fill="black"/>
<path d="M66.1961 47.9323L65.5044 48.4549L65.5797 49.3186C65.6357 49.9607 65.6634 50.5707 65.6634 51.2083C65.6634 51.8466 65.6356 52.4311 65.5571 53.0308L65.4388 53.9347L66.1662 54.4843L71.7179 58.6791C72.2906 59.1256 72.444 59.8991 72.0888 60.5272C72.088 60.5288 72.0871 60.5303 72.0862 60.5319L66.5031 70.1438L66.5031 70.1437L66.4968 70.1548C66.1446 70.7726 65.3849 71.0217 64.7448 70.7443L64.7378 70.7413L64.7308 70.7384L58.3045 68.0273L57.5062 67.6905L56.7965 68.1875C55.7585 68.9146 54.6733 69.5515 53.5413 70.0743L52.7523 70.4388L52.6437 71.301L51.7769 78.183L51.7759 78.1915C51.6917 78.8902 51.0777 79.4336 50.3724 79.4336H39.2235C38.5181 79.4336 37.9041 78.8902 37.82 78.1915L37.819 78.183L36.9521 71.301L36.8435 70.4388L36.0546 70.0743C34.9226 69.5515 33.8374 68.9146 32.7993 68.1875L32.0897 67.6905L31.2914 68.0273L24.865 70.7384L24.858 70.7413L24.851 70.7443C24.2109 71.0217 23.4513 70.7726 23.0991 70.1548L23.0991 70.1548L23.0927 70.1438L17.5097 60.5319C17.5088 60.5304 17.508 60.5289 17.5071 60.5274C17.1431 59.8837 17.3212 59.0954 17.8637 58.6898L17.8702 58.685L23.4297 54.4843L24.1262 53.958L24.0452 53.0888C23.9296 51.8477 23.9296 50.5986 24.0452 49.3575L24.1262 48.4883L23.4297 47.962L17.878 43.7673C17.305 43.3205 17.1517 42.5465 17.5075 41.9182L23.0938 32.271L23.0938 32.271L23.0991 32.2618C23.4513 31.6439 24.2109 31.3948 24.851 31.6722L24.858 31.6752L24.865 31.6782L31.2914 34.3893L32.0897 34.7261L32.7993 34.229C33.8374 33.5019 34.9226 32.8651 36.0546 32.3422L36.8435 31.9778L36.9521 31.1156L37.819 24.2335L37.819 24.2335L37.82 24.225C37.903 23.536 38.5084 22.9829 39.2533 22.9829H50.4023C51.1076 22.9829 51.7216 23.5264 51.8057 24.225L51.8068 24.2335L52.6736 31.1156L52.7822 31.9778L53.5712 32.3422C54.7032 32.8651 55.7884 33.5019 56.8264 34.229L57.5361 34.7261L58.3344 34.3893L64.7607 31.6782L64.7607 31.6782L64.7708 31.6739C65.0848 31.5388 65.4382 31.5241 65.7626 31.6328C66.0869 31.7414 66.3582 31.9651 66.5254 32.2596L66.5292 32.2662L66.533 32.2728L72.1161 41.8847C72.1169 41.8862 72.1178 41.8877 72.1187 41.8893C72.4826 42.5329 72.3045 43.3212 71.762 43.7267L71.7556 43.7315L66.1961 47.9323ZM32.9041 51.2083C32.9041 57.8284 38.3032 63.2024 44.9324 63.2024C51.5617 63.2024 56.9608 57.8284 56.9608 51.2083C56.9608 44.5882 51.5617 39.2141 44.9324 39.2141C38.3032 39.2141 32.9041 44.5882 32.9041 51.2083Z" fill="#FDCD56" stroke="black" stroke-width="3.13376"/>
<path d="M42.8077 59.5423C40.432 56.5292 38.0952 54.0262 34.8005 52.337L34.7988 52.3362C31.7523 50.7789 28.0242 50.0174 23.2945 49.8758L21.6808 49.8275V51.442V59.5113C21.6806 59.5181 21.6786 59.5259 21.6733 59.5338L22.9762 60.4041L21.6733 59.5338C21.6677 59.5421 21.6583 59.5508 21.6445 59.5567L22.2567 60.999L21.6445 59.5567C21.6306 59.5626 21.6144 59.5646 21.5983 59.5618C21.5829 59.559 21.5703 59.5523 21.5615 59.5443C21.5612 59.544 21.5609 59.5438 21.5607 59.5436L3.5825 42.545C3.58245 42.545 3.58239 42.5449 3.58233 42.5449C3.57642 42.5392 3.57257 42.5333 3.57022 42.5279L2.13561 43.1473L3.57022 42.5279C3.56787 42.5224 3.56688 42.5172 3.56688 42.5122C3.56688 42.5073 3.56787 42.502 3.57022 42.4965C3.57256 42.4911 3.57642 42.4852 3.58234 42.4796C3.58239 42.4795 3.58245 42.4794 3.5825 42.4794L21.5607 25.4809C21.5609 25.4806 21.5612 25.4804 21.5615 25.4802C21.5703 25.4722 21.5829 25.4654 21.5983 25.4627C21.6144 25.4598 21.6306 25.4619 21.6445 25.4678C21.6583 25.4736 21.6677 25.4823 21.6733 25.4907C21.6786 25.4986 21.6806 25.5063 21.6808 25.5131V33.6422V35.1393L23.1763 35.2074C30.3778 35.5355 35.5171 38.1503 38.7525 42.8205L38.7526 42.8206C41.4689 46.7409 42.9337 52.306 42.9337 59.5155C42.9337 59.5246 42.9302 59.5363 42.919 59.5473C42.9074 59.5589 42.8885 59.568 42.8657 59.568H42.8656C42.8528 59.568 42.8408 59.5651 42.8305 59.5601C42.8204 59.5552 42.8128 59.5487 42.8077 59.5423ZM42.8077 59.5423L41.5773 60.5124M42.8077 59.5423C42.8076 59.5422 42.8076 59.5422 42.8075 59.5421L41.5773 60.5124M41.5773 60.5124C41.7302 60.7063 41.9257 60.8631 42.1489 60.971C42.3722 61.0788 42.6173 61.1349 42.8657 61.1349L23.2476 59.5155V53.0096C23.232 53.0091 23.2164 53.0086 23.2008 53.0082L23.2476 51.442H24.8145V51.515C28.6481 51.7613 31.643 52.4827 34.0856 53.7313C37.0743 55.2637 39.2415 57.55 41.5773 60.5124ZM21.3256 23.9197C21.6397 23.8642 21.9634 23.9009 22.2567 24.0254C22.5501 24.1499 22.8002 24.3567 22.9762 24.6204C23.1523 24.884 23.2467 25.1929 23.2476 25.5089L21.3256 23.9197Z" fill="#F76C82" stroke="black" stroke-width="3.13376"/>
<path d="M66.9565 27.2644V34.3431V35.8478L65.453 35.9087C58.319 36.1976 53.27 38.5129 50.1213 42.5652L66.9565 27.2644ZM66.9565 27.2644L84.5693 42.1099L66.9565 56.9554V49.9375V48.3283L65.3479 48.3711C60.7126 48.4946 57.0677 49.1592 54.0864 50.5197L54.0862 50.5198C50.8504 51.997 48.5456 54.1955 46.1994 56.8471L46.199 56.8476L46.0669 56.997C46.0692 50.743 47.4945 45.9467 50.1212 42.5653L66.9565 27.2644Z" fill="#66D4F1" stroke="black" stroke-width="3.13376"/>
<path d="M44.625 9L29.4961 28.0857H41.7463V59.8951H47.8713V28.0857H60.1215L44.625 9Z" fill="#C6EA94" stroke="black" stroke-width="2.50701"/>
</svg>
