<?xml version="1.0" encoding="utf-8"?>
<!-- Generator: Adobe Illustrator 25.2.1, SVG Export Plug-In . SVG Version: 6.00 Build 0)  -->
<svg version="1.1" id="Layer_1" xmlns="http://www.w3.org/2000/svg" xmlns:xlink="http://www.w3.org/1999/xlink" x="0px" y="0px"
	 viewBox="0 0 401.9 56" style="enable-background:new 0 0 401.9 56;" xml:space="preserve">
<style type="text/css">
	.st0{fill:#F96731;}
	.st1{fill:#2B9AF3;}
	.st2{fill:#1C96E8;}
</style>
<g>
	<g>
		<path d="M0,33.8V0.5h4.1v19l9.7-9.8h5.3l-9.2,9L20,33.8h-5L7,21.5l-2.9,2.8v9.6L0,33.8L0,33.8z"/>
		<path d="M49.2,33.8V9.7h3.7v3.4c1.8-2.7,4.3-4,7.7-4c1.5,0,2.8,0.3,4,0.8c1.2,0.5,2.1,1.2,2.7,2.1c0.6,0.8,1,1.9,1.3,3
			c0.2,0.8,0.2,2.1,0.2,4v14.9h-4.1V19.2c0-1.7-0.2-2.9-0.5-3.7c-0.3-0.8-0.9-1.5-1.7-2s-1.8-0.7-2.9-0.7c-1.7,0-3.2,0.6-4.5,1.7
			s-1.9,3.2-1.9,6.3V34h-4V33.8z"/>
		<path d="M91.6,26.1l4.2,0.5c-0.7,2.5-1.9,4.4-3.7,5.8c-1.8,1.4-4.1,2-6.9,2c-3.5,0-6.3-1.1-8.4-3.3s-3.1-5.2-3.1-9.2
			c0-4.1,1-7.2,3.1-9.5c2.2-2.1,4.9-3.3,8.2-3.3c3.2,0,5.9,1.1,7.9,3.3s3.1,5.3,3.1,9.3c0,0.2,0,0.6,0,1.1H78
			c0.2,2.7,0.9,4.7,2.3,6.1c1.3,1.4,3,2.1,5,2.1c1.5,0,2.8-0.4,3.8-1.2C90.2,29.1,91,27.8,91.6,26.1z M78.2,19.4h13.5
			c-0.2-2-0.7-3.6-1.5-4.6c-1.3-1.6-3-2.4-5.1-2.4c-1.9,0-3.5,0.6-4.7,1.9C79,15.7,78.3,17.3,78.2,19.4z"/>
		<path d="M116.8,25l4,0.5c-0.4,2.8-1.6,4.9-3.4,6.5c-1.8,1.6-4,2.4-6.7,2.4c-3.3,0-6-1.1-8-3.2c-2-2.2-3-5.3-3-9.3
			c0-2.6,0.4-4.9,1.3-6.8c0.9-2,2.2-3.4,3.9-4.4c1.8-1,3.7-1.5,5.8-1.5c2.6,0,4.8,0.7,6.4,2c1.7,1.3,2.7,3.2,3.2,5.7l-4,0.6
			c-0.4-1.6-1.1-2.8-2-3.7c-1-0.8-2.1-1.2-3.5-1.2c-2.1,0-3.7,0.7-5,2.2s-1.9,3.8-1.9,7s0.6,5.6,1.9,7.1c1.2,1.5,2.9,2.2,4.9,2.2
			c1.6,0,2.9-0.5,4-1.5C115.8,28.6,116.5,27,116.8,25z"/>
		<path d="M133.2,30.2l0.6,3.6c-1.2,0.2-2.2,0.4-3.1,0.4c-1.5,0-2.6-0.2-3.5-0.7c-0.8-0.5-1.4-1.1-1.7-1.9c-0.3-0.8-0.5-2.4-0.5-4.8
			V12.9h-3V9.7h3v-6l4.1-2.5v8.4h4.1v3.2h-4.1v14.1c0,1.2,0.1,1.9,0.2,2.3c0.1,0.3,0.4,0.6,0.7,0.8c0.3,0.2,0.8,0.3,1.4,0.3
			C131.9,30.3,132.5,30.3,133.2,30.2z"/>
		<path d="M153,30.9c-1.5,1.3-3,2.2-4.4,2.7s-2.9,0.8-4.5,0.8c-2.7,0-4.7-0.6-6.1-1.9c-1.4-1.3-2.1-3-2.1-5c0-1.2,0.3-2.3,0.8-3.2
			c0.5-1,1.2-1.8,2.1-2.4c0.9-0.6,1.9-1,2.9-1.3c0.8-0.2,2-0.4,3.6-0.6c3.3-0.4,5.7-0.9,7.3-1.4c0-0.6,0-0.9,0-1.1
			c0-1.7-0.4-2.8-1.2-3.5c-1-0.9-2.6-1.4-4.7-1.4c-1.9,0-3.3,0.3-4.3,1c-0.9,0.7-1.6,1.9-2,3.6l-4-0.5c0.4-1.7,1-3.1,1.8-4.2
			s2-1.9,3.6-2.4c1.6-0.6,3.4-0.9,5.5-0.9s3.7,0.2,5,0.7s2.2,1.1,2.8,1.8s1,1.7,1.3,2.8c0.1,0.7,0.2,2,0.2,3.8v5.5
			c0,3.8,0.1,6.2,0.3,7.2s0.5,2,1,2.9h-4.3C153.4,33,153.1,32,153,30.9z M152.7,21.7c-1.5,0.6-3.7,1.1-6.7,1.5
			c-1.7,0.2-2.9,0.5-3.6,0.8c-0.7,0.3-1.2,0.7-1.6,1.3c-0.4,0.6-0.6,1.2-0.6,1.9c0,1.1,0.4,2,1.2,2.7s2,1.1,3.6,1.1s3-0.3,4.2-1
			s2.1-1.6,2.7-2.8c0.4-0.9,0.7-2.3,0.7-4.1v-1.4H152.7z"/>
		<path d="M163.1,33.8V9.7h3.7v3.7c0.9-1.7,1.8-2.8,2.6-3.4c0.8-0.5,1.7-0.8,2.6-0.8c1.4,0,2.8,0.4,4.2,1.3l-1.4,3.8
			c-1-0.6-2-0.9-3-0.9c-0.9,0-1.7,0.3-2.4,0.8s-1.2,1.3-1.5,2.2c-0.5,1.5-0.7,3-0.7,4.8v12.6C167.2,33.8,163.1,33.8,163.1,33.8z"/>
		<g>
			<circle class="st0" cx="33.1" cy="31.5" r="2.3"/>
			<circle class="st0" cx="33.1" cy="11.4" r="2.3"/>
			<path class="st1" d="M30.8,29c-3.2-1-5.6-4-5.6-7.5s2.4-6.6,5.6-7.5c-0.7-0.6-1.1-1.5-1.1-2.5c0-0.6,0.2-1.2,0.5-1.7l0,0
				c-5.3,1.3-9.2,6.1-9.2,11.8s3.9,10.5,9.2,11.8l0,0c-0.3-0.5-0.5-1.1-0.5-1.7C29.7,30.5,30.1,29.6,30.8,29z"/>
			<path class="st1" d="M36,9.7c0.3,0.5,0.5,1.1,0.5,1.8c0,1-0.4,1.9-1.1,2.5c3.2,1,5.6,4,5.6,7.5s-2.4,6.6-5.6,7.5
				c0.7,0.6,1.1,1.5,1.1,2.5c0,0.6-0.2,1.2-0.5,1.8c5.3-1.3,9.2-6.1,9.2-11.8S41.3,11,36,9.7z"/>
		</g>
	</g>
</g>
<g>
	<path d="M185.1,5.4c0,2.5-1.9,4.4-4.5,4.4c-2.5,0-4.5-1.9-4.5-4.4c0-2.4,2-4.3,4.5-4.3C183.1,1.1,185.1,3,185.1,5.4z M177.2,5.4
		c0,1.9,1.4,3.5,3.4,3.5c1.9,0,3.3-1.5,3.3-3.4S182.5,2,180.6,2C178.7,2,177.2,3.5,177.2,5.4z M179.9,7.7h-1V3.4
		c0.4-0.1,1-0.1,1.7-0.1c0.8,0,1.2,0.1,1.5,0.3c0.2,0.2,0.4,0.5,0.4,1s-0.4,0.8-0.9,1v0.1c0.4,0.2,0.7,0.5,0.8,1.1
		c0.1,0.7,0.2,0.9,0.3,1.1h-1.1c-0.1-0.2-0.2-0.6-0.3-1.1s-0.3-0.7-0.9-0.7h-0.5V7.7z M179.9,5.3h0.5c0.6,0,1-0.2,1-0.6
		S181.1,4,180.5,4c-0.3,0-0.5,0-0.6,0.1V5.3z"/>
</g>
<g>
	<path d="M0,44.9C0,42.5,1.4,41,3.3,41c0.9,0,1.6,0.4,2.1,0.9l-0.5,0.6c-0.4-0.4-0.9-0.7-1.5-0.7c-1.4,0-2.3,1.2-2.3,3
		c0,1.9,0.9,3.1,2.3,3.1c0.7,0,1.3-0.3,1.7-0.8l0.5,0.6c-0.6,0.7-1.3,1.1-2.3,1.1C1.4,48.8,0,47.3,0,44.9z"/>
	<path d="M6.8,45.9C6.8,44,8,43,9.4,43s2.6,1.1,2.6,2.9c0,1.8-1.2,2.9-2.6,2.9C8,48.8,6.8,47.7,6.8,45.9z M11,45.9
		c0-1.3-0.6-2.1-1.6-2.1c-0.9,0-1.6,0.9-1.6,2.1c0,1.3,0.6,2.1,1.6,2.1S11,47.1,11,45.9z"/>
	<path d="M13.8,43.1h0.8l0.1,0.8l0,0c0.5-0.5,1.1-0.9,1.9-0.9c1.2,0,1.7,0.8,1.7,2.2v3.5h-0.9v-3.4c0-1-0.3-1.5-1-1.5
		c-0.6,0-1,0.3-1.5,0.9v4H14v-5.6H13.8z"/>
	<path d="M20.4,43.1h0.8l0.1,0.8l0,0c0.5-0.5,1.1-0.9,1.9-0.9c1.2,0,1.7,0.8,1.7,2.2v3.5H24v-3.4c0-1-0.3-1.5-1-1.5
		c-0.6,0-1,0.3-1.5,0.9v4h-0.9v-5.6H20.4z"/>
	<path d="M26.7,45.9c0-1.8,1.2-2.9,2.5-2.9c1.4,0,2.2,1,2.2,2.6c0,0.2,0,0.4,0,0.5h-3.7c0.1,1.2,0.8,1.9,1.8,1.9
		c0.5,0,1-0.2,1.4-0.4l0.3,0.6c-0.5,0.3-1.1,0.6-1.8,0.6C27.8,48.8,26.7,47.7,26.7,45.9z M30.5,45.4c0-1.1-0.5-1.7-1.4-1.7
		c-0.8,0-1.5,0.6-1.6,1.7H30.5z"/>
	<path d="M32.7,45.9c0-1.9,1.2-2.9,2.7-2.9c0.7,0,1.2,0.3,1.6,0.6l-0.5,0.6c-0.3-0.3-0.7-0.5-1.1-0.5c-1,0-1.7,0.9-1.7,2.1
		c0,1.3,0.7,2.1,1.7,2.1c0.5,0,1-0.3,1.3-0.6l0.4,0.6c-0.5,0.4-1.1,0.7-1.8,0.7C33.8,48.8,32.7,47.7,32.7,45.9z"/>
	<path d="M38.9,46.9v-3.1H38v-0.7l0.9-0.1l0.1-1.6h0.8V43h1.5v0.8h-1.5v3.1c0,0.7,0.2,1.1,0.9,1.1c0.2,0,0.4-0.1,0.6-0.1l0.2,0.7
		c-0.3,0.1-0.7,0.2-1,0.2C39.3,48.8,38.9,48,38.9,46.9z"/>
	<path d="M42.8,41.3c0-0.4,0.3-0.6,0.6-0.6c0.4,0,0.6,0.2,0.6,0.6c0,0.4-0.3,0.6-0.6,0.6C43.1,41.9,42.8,41.7,42.8,41.3z M43,43.1
		h0.9v5.5H43V43.1z"/>
	<path d="M46.1,43.1h0.8l0.1,0.8l0,0c0.5-0.5,1.1-0.9,1.9-0.9c1.2,0,1.7,0.8,1.7,2.2v3.5h-0.9v-3.4c0-1-0.3-1.5-1-1.5
		c-0.6,0-1,0.3-1.5,0.9v4h-0.9v-5.6H46.1z"/>
	<path d="M52.4,49.7c0-0.5,0.3-0.9,0.8-1.3l0,0c-0.3-0.2-0.5-0.5-0.5-0.9c0-0.5,0.3-0.8,0.6-1l0,0c-0.4-0.3-0.7-0.8-0.7-1.5
		c0-1.2,1-2,2.1-2c0.3,0,0.6,0.1,0.8,0.1h1.9v0.7h-1.1c0.3,0.3,0.5,0.7,0.5,1.1c0,1.2-0.9,1.9-2,1.9c-0.3,0-0.6-0.1-0.8-0.2
		c-0.2,0.2-0.4,0.4-0.4,0.7c0,0.4,0.2,0.6,1,0.6h1.1c1.3,0,1.9,0.4,1.9,1.3c0,1-1.1,1.9-2.8,1.9C53.3,51.2,52.4,50.6,52.4,49.7z
		 M56.5,49.4c0-0.5-0.4-0.7-1.1-0.7h-1c-0.2,0-0.5,0-0.7-0.1c-0.4,0.3-0.6,0.6-0.6,0.9c0,0.6,0.6,1,1.6,1
		C55.8,50.5,56.5,50,56.5,49.4z M55.8,44.9c0-0.8-0.5-1.3-1.2-1.3c-0.6,0-1.2,0.5-1.2,1.3s0.5,1.3,1.2,1.3S55.8,45.7,55.8,44.9z"/>
	<path d="M61.7,41.1h0.9v6.7h3.3v0.8h-4.2V41.1z"/>
	<path d="M67.3,41.3c0-0.4,0.3-0.6,0.6-0.6s0.6,0.2,0.6,0.6c0,0.4-0.3,0.6-0.6,0.6S67.3,41.7,67.3,41.3z M67.5,43.1h0.9v5.5h-0.9
		V43.1z"/>
	<path d="M70.9,43.8h-0.8v-0.7l0.8-0.1v-0.9c0-1.1,0.5-1.8,1.6-1.8c0.3,0,0.7,0.1,0.9,0.2l-0.2,0.7c-0.2-0.1-0.4-0.1-0.6-0.1
		c-0.5,0-0.8,0.4-0.8,1.1v0.9H73v0.8h-1.2v4.8h-0.9V43.8z"/>
	<path d="M74,45.9c0-1.8,1.2-2.9,2.5-2.9c1.4,0,2.2,1,2.2,2.6c0,0.2,0,0.4,0,0.5H75c0.1,1.2,0.8,1.9,1.8,1.9c0.5,0,1-0.2,1.4-0.4
		l0.3,0.6c-0.5,0.3-1.1,0.6-1.8,0.6C75.2,48.8,74,47.7,74,45.9z M77.9,45.4c0-1.1-0.5-1.7-1.4-1.7c-0.8,0-1.5,0.6-1.6,1.7H77.9z"/>
	<path d="M82.7,47.6l0.6-0.7c0.5,0.6,1.3,0.9,2.1,0.9c1,0,1.6-0.5,1.6-1.2c0-0.8-0.5-1-1.2-1.3l-1.1-0.5c-0.7-0.3-1.5-0.8-1.5-1.9
		c0-1.1,1-2,2.3-2c0.9,0,1.7,0.4,2.2,0.9l-0.5,0.6c-0.5-0.4-1-0.7-1.7-0.7c-0.8,0-1.4,0.4-1.4,1.1c0,0.7,0.6,1,1.2,1.2l1.1,0.5
		c0.9,0.4,1.5,0.9,1.5,2c0,1.2-1,2.1-2.5,2.1C84.3,48.8,83.3,48.3,82.7,47.6z"/>
	<path d="M89.2,45.9c0-1.9,1.2-2.9,2.7-2.9c0.7,0,1.2,0.3,1.6,0.6L93,44.2c-0.3-0.3-0.7-0.5-1.1-0.5c-1,0-1.7,0.9-1.7,2.1
		c0,1.3,0.7,2.1,1.7,2.1c0.5,0,1-0.3,1.3-0.6l0.4,0.6c-0.5,0.4-1.1,0.7-1.8,0.7C90.3,48.8,89.2,47.7,89.2,45.9z"/>
	<path d="M95,41.3c0-0.4,0.3-0.6,0.6-0.6s0.6,0.2,0.6,0.6c0,0.4-0.3,0.6-0.6,0.6S95,41.7,95,41.3z M95.2,43.1h0.9v5.5h-0.9V43.1z"/>
	<path d="M98,45.9c0-1.8,1.2-2.9,2.5-2.9c1.4,0,2.2,1,2.2,2.6c0,0.2,0,0.4,0,0.5H99c0.1,1.2,0.8,1.9,1.8,1.9c0.5,0,1-0.2,1.4-0.4
		l0.3,0.6c-0.5,0.3-1.1,0.6-1.8,0.6C99.2,48.8,98,47.7,98,45.9z M101.9,45.4c0-1.1-0.5-1.7-1.4-1.7c-0.8,0-1.5,0.6-1.6,1.7H101.9z"
		/>
	<path d="M104.5,43.1h0.8l0.1,0.8l0,0c0.5-0.5,1.1-0.9,1.9-0.9c1.2,0,1.7,0.8,1.7,2.2v3.5h-1v-3.4c0-1-0.3-1.5-1-1.5
		c-0.6,0-1,0.3-1.5,0.9v4h-0.9L104.5,43.1L104.5,43.1z"/>
	<path d="M110.7,45.9c0-1.9,1.2-2.9,2.7-2.9c0.7,0,1.2,0.3,1.6,0.6l-0.5,0.6c-0.3-0.3-0.7-0.5-1.1-0.5c-1,0-1.7,0.9-1.7,2.1
		c0,1.3,0.7,2.1,1.7,2.1c0.5,0,1-0.3,1.3-0.6l0.4,0.6c-0.5,0.4-1.1,0.7-1.8,0.7C111.8,48.8,110.7,47.7,110.7,45.9z"/>
	<path d="M116.3,45.9c0-1.8,1.2-2.9,2.5-2.9c1.4,0,2.2,1,2.2,2.6c0,0.2,0,0.4,0,0.5h-3.7c0.1,1.2,0.8,1.9,1.8,1.9
		c0.5,0,1-0.2,1.4-0.4l0.3,0.6c-0.5,0.3-1.1,0.6-1.8,0.6C117.4,48.8,116.3,47.7,116.3,45.9z M120.1,45.4c0-1.1-0.5-1.7-1.4-1.7
		c-0.8,0-1.5,0.6-1.6,1.7H120.1z"/>
	<path d="M122.1,48l0.5-0.6c0.5,0.4,1,0.7,1.6,0.7c0.7,0,1.1-0.4,1.1-0.9c0-0.6-0.7-0.8-1.3-1c-0.8-0.3-1.7-0.7-1.7-1.6
		c0-0.9,0.7-1.6,1.9-1.6c0.7,0,1.3,0.3,1.7,0.6l-0.4,0.6c-0.4-0.3-0.8-0.5-1.3-0.5c-0.7,0-1,0.4-1,0.8c0,0.5,0.6,0.7,1.2,1
		c0.8,0.3,1.7,0.6,1.7,1.7c0,0.9-0.7,1.7-2,1.7C123.4,48.8,122.6,48.4,122.1,48z"/>
	<path d="M130.6,41.1h4.3v0.8h-3.4v2.3h2.8V45h-2.8v2.7h3.5v0.8h-4.4L130.6,41.1L130.6,41.1z"/>
	<path d="M138,45.7l-1.7-2.6h1l0.7,1.2c0.2,0.3,0.4,0.6,0.5,0.9l0,0c0.2-0.3,0.3-0.6,0.5-0.9l0.7-1.2h1l-1.7,2.7l1.8,2.8h-1
		l-0.8-1.3c-0.2-0.3-0.4-0.7-0.6-1l0,0c-0.2,0.3-0.4,0.6-0.6,1l-0.8,1.3h-1L138,45.7z"/>
	<path d="M142.4,43.1h0.8l0.1,0.6l0,0c0.5-0.4,1.1-0.8,1.8-0.8c1.4,0,2.2,1.1,2.2,2.8c0,1.9-1.1,3-2.4,3c-0.5,0-1-0.2-1.5-0.6v1V51
		h-0.9v-7.9H142.4z M146.3,45.8c0-1.2-0.4-2-1.5-2c-0.5,0-0.9,0.3-1.5,0.8v2.9c0.5,0.4,1,0.6,1.4,0.6
		C145.6,48,146.3,47.1,146.3,45.8z"/>
	<path d="M148.7,45.9c0-1.8,1.2-2.9,2.5-2.9c1.4,0,2.2,1,2.2,2.6c0,0.2,0,0.4,0,0.5h-3.7c0.1,1.2,0.8,1.9,1.8,1.9
		c0.5,0,1-0.2,1.4-0.4l0.3,0.6c-0.5,0.3-1.1,0.6-1.8,0.6C149.9,48.8,148.7,47.7,148.7,45.9z M152.6,45.4c0-1.1-0.5-1.7-1.4-1.7
		c-0.8,0-1.5,0.6-1.6,1.7H152.6z"/>
	<path d="M155.2,43.1h0.8l0.1,1l0,0c0.4-0.7,0.9-1.1,1.6-1.1c0.2,0,0.4,0,0.6,0.1l-0.2,0.8c-0.2-0.1-0.3-0.1-0.5-0.1
		c-0.5,0-1,0.3-1.4,1.3v3.6h-0.9v-5.6H155.2z"/>
	<path d="M159.7,46.9v-3.1h-0.8v-0.7l0.9-0.1l0.1-1.6h0.8V43h1.5v0.8h-1.5v3.1c0,0.7,0.2,1.1,0.9,1.1c0.2,0,0.4-0.1,0.6-0.1l0.2,0.7
		c-0.3,0.1-0.7,0.2-1,0.2C160.1,48.8,159.7,48,159.7,46.9z"/>
	<path d="M163.2,48l0.5-0.6c0.5,0.4,1,0.7,1.6,0.7c0.7,0,1.1-0.4,1.1-0.9c0-0.6-0.7-0.8-1.3-1c-0.8-0.3-1.7-0.7-1.7-1.6
		c0-0.9,0.7-1.6,1.9-1.6c0.7,0,1.3,0.3,1.7,0.6l-0.4,0.6c-0.4-0.3-0.8-0.5-1.3-0.5c-0.7,0-1,0.4-1,0.8c0,0.5,0.6,0.7,1.2,1
		c0.8,0.3,1.7,0.6,1.7,1.7c0,0.9-0.7,1.7-2,1.7C164.4,48.8,163.7,48.4,163.2,48z"/>
</g>
<g>
	<g>
		<path class="st2" d="M210,32.1c0,0.2,0,0.4-0.1,0.6c-0.1,0.2-0.2,0.3-0.3,0.4c-0.1,0.1-0.3,0.2-0.4,0.2c-0.2,0-0.3,0.1-0.5,0.1h-1
			c-0.3,0-0.6,0-0.8-0.1c-0.2-0.1-0.5-0.2-0.7-0.4c-0.2-0.2-0.4-0.4-0.7-0.7c-0.2-0.3-0.4-0.7-0.7-1.2l-7.1-13.3
			c-0.4-0.7-0.7-1.4-1.1-2.2c-0.4-0.8-0.7-1.5-1.1-2.2h0c0,0.9,0,1.7,0.1,2.7c0,0.9,0,1.8,0,2.7V33c0,0.1,0,0.2-0.1,0.2
			c-0.1,0.1-0.1,0.1-0.3,0.2c-0.1,0-0.3,0.1-0.5,0.1c-0.2,0-0.4,0-0.8,0s-0.6,0-0.8,0s-0.4-0.1-0.5-0.1c-0.1,0-0.2-0.1-0.2-0.2
			s-0.1-0.2-0.1-0.2V11.4c0-0.5,0.1-0.8,0.4-1c0.3-0.2,0.6-0.3,0.9-0.3h1.5c0.4,0,0.7,0,0.9,0.1c0.2,0.1,0.5,0.2,0.7,0.3
			c0.2,0.1,0.4,0.3,0.6,0.6c0.2,0.2,0.4,0.6,0.6,0.9l5.5,10.2c0.3,0.6,0.7,1.2,1,1.8s0.6,1.2,0.9,1.8s0.6,1.1,0.9,1.7
			c0.3,0.6,0.6,1.1,0.8,1.7h0c0-0.9,0-1.9,0-3c0-1,0-2,0-3V10.6c0-0.1,0-0.2,0.1-0.2c0.1-0.1,0.1-0.1,0.3-0.2
			c0.1-0.1,0.3-0.1,0.5-0.1c0.2,0,0.5,0,0.8,0c0.3,0,0.5,0,0.7,0c0.2,0,0.4,0.1,0.5,0.1c0.1,0.1,0.2,0.1,0.2,0.2
			c0.1,0.1,0.1,0.2,0.1,0.2L210,32.1L210,32.1z"/>
		<path class="st2" d="M229.2,32.1c0,0.2,0,0.4,0,0.6c0,0.2-0.1,0.3-0.1,0.4c-0.1,0.1-0.1,0.2-0.2,0.2c-0.1,0-0.2,0.1-0.3,0.1h-11.2
			c-0.3,0-0.5-0.1-0.8-0.3s-0.4-0.5-0.4-1V11.3c0-0.5,0.1-0.8,0.4-1c0.2-0.2,0.5-0.3,0.8-0.3h11.1c0.1,0,0.2,0,0.3,0.1
			c0.1,0,0.1,0.1,0.2,0.2c0,0.1,0.1,0.2,0.1,0.4c0,0.2,0,0.4,0,0.6c0,0.2,0,0.4,0,0.6c0,0.2-0.1,0.3-0.1,0.4c0,0.1-0.1,0.2-0.2,0.2
			c-0.1,0-0.2,0.1-0.3,0.1h-9.1V20h7.8c0.1,0,0.2,0,0.3,0.1c0.1,0.1,0.1,0.1,0.2,0.2c0.1,0.1,0.1,0.2,0.1,0.4c0,0.2,0,0.4,0,0.6
			c0,0.2,0,0.4,0,0.6c0,0.2-0.1,0.3-0.1,0.4c-0.1,0.1-0.1,0.2-0.2,0.2c-0.1,0-0.2,0.1-0.3,0.1h-7.8v8.4h9.3c0.1,0,0.2,0,0.3,0.1
			c0.1,0,0.1,0.1,0.2,0.2c0.1,0.1,0.1,0.2,0.1,0.4C229.2,31.7,229.2,31.9,229.2,32.1z"/>
		<path class="st2" d="M248.6,16.9c0,1.2-0.2,2.2-0.6,3.2c-0.4,0.9-0.9,1.7-1.6,2.4c-0.7,0.7-1.6,1.2-2.6,1.5
			c-1,0.4-2.3,0.5-3.7,0.5h-2.7V33c0,0.1,0,0.2-0.1,0.3c-0.1,0.1-0.1,0.1-0.3,0.2c-0.1,0-0.3,0.1-0.5,0.1c-0.2,0-0.4,0-0.7,0
			c-0.3,0-0.6,0-0.7,0c-0.2,0-0.4-0.1-0.5-0.1c-0.1,0-0.2-0.1-0.3-0.2s-0.1-0.2-0.1-0.3V11.4c0-0.5,0.1-0.8,0.4-1s0.5-0.3,0.8-0.3h5
			c0.5,0,1,0,1.5,0.1c0.5,0,1,0.1,1.6,0.3c0.6,0.1,1.3,0.4,1.9,0.8c0.7,0.4,1.2,0.8,1.7,1.4c0.5,0.6,0.8,1.2,1.1,1.9
			C248.5,15.2,248.6,16,248.6,16.9z M245.3,17.2c0-0.9-0.2-1.7-0.5-2.4s-0.8-1.1-1.3-1.4c-0.5-0.3-1.1-0.5-1.6-0.6s-1.1-0.1-1.6-0.1
			h-2.9V22h2.8c0.9,0,1.7-0.1,2.3-0.4c0.6-0.2,1.1-0.6,1.6-1c0.4-0.4,0.7-0.9,1-1.5C245.2,18.5,245.3,17.9,245.3,17.2z"/>
		<path class="st2" d="M270.2,33c0,0.1,0,0.2-0.1,0.3c0,0.1-0.1,0.1-0.3,0.2c-0.1,0-0.3,0.1-0.5,0.1c-0.2,0-0.4,0-0.7,0
			c-0.3,0-0.6,0-0.8,0c-0.2,0-0.3-0.1-0.5-0.1c-0.1,0-0.2-0.1-0.3-0.2c0-0.1-0.1-0.2-0.1-0.3V22.6h-10.6V33c0,0.1,0,0.2-0.1,0.3
			c0,0.1-0.1,0.1-0.3,0.2c-0.1,0-0.3,0.1-0.5,0.1c-0.2,0-0.4,0-0.7,0c-0.3,0-0.5,0-0.7,0c-0.2,0-0.4-0.1-0.5-0.1
			c-0.1,0-0.2-0.1-0.3-0.2c0-0.1-0.1-0.2-0.1-0.3V10.6c0-0.1,0-0.2,0.1-0.3c0-0.1,0.1-0.1,0.3-0.2c0.1,0,0.3-0.1,0.5-0.1
			c0.2,0,0.5,0,0.7,0c0.3,0,0.6,0,0.7,0c0.2,0,0.4,0.1,0.5,0.1c0.1,0,0.2,0.1,0.3,0.2c0,0.1,0.1,0.2,0.1,0.3v9.3h10.6v-9.3
			c0-0.1,0-0.2,0.1-0.3c0-0.1,0.1-0.1,0.3-0.2c0.1,0,0.3-0.1,0.5-0.1c0.2,0,0.4,0,0.8,0c0.3,0,0.5,0,0.7,0c0.2,0,0.4,0.1,0.5,0.1
			s0.2,0.1,0.3,0.2c0,0.1,0.1,0.2,0.1,0.3V33z"/>
		<path class="st2" d="M291.9,33c0,0.1,0,0.2-0.1,0.3c0,0.1-0.1,0.1-0.2,0.2s-0.3,0.1-0.5,0.1c-0.2,0-0.5,0-0.9,0
			c-0.3,0-0.6,0-0.8,0c-0.2,0-0.4-0.1-0.5-0.1c-0.1-0.1-0.2-0.1-0.3-0.2c-0.1-0.1-0.1-0.2-0.2-0.4l-2.1-5.5
			c-0.3-0.6-0.5-1.2-0.8-1.7c-0.3-0.5-0.6-1-1-1.4c-0.4-0.4-0.8-0.7-1.3-0.9c-0.5-0.2-1.1-0.3-1.8-0.3h-2.1V33c0,0.1,0,0.2-0.1,0.3
			c-0.1,0.1-0.1,0.1-0.3,0.2c-0.1,0-0.3,0.1-0.5,0.1c-0.2,0-0.4,0-0.7,0s-0.6,0-0.7,0c-0.2,0-0.4-0.1-0.5-0.1
			c-0.1,0-0.2-0.1-0.3-0.2c0-0.1-0.1-0.2-0.1-0.3V11.3c0-0.5,0.1-0.8,0.4-1c0.2-0.2,0.5-0.3,0.8-0.3h5c0.6,0,1.1,0,1.5,0
			c0.4,0,0.7,0.1,1.1,0.1c0.9,0.2,1.7,0.4,2.4,0.7c0.7,0.3,1.3,0.8,1.7,1.3c0.5,0.5,0.8,1.1,1.1,1.8c0.2,0.7,0.4,1.4,0.4,2.2
			c0,0.8-0.1,1.5-0.3,2.1c-0.2,0.6-0.5,1.2-0.9,1.6c-0.4,0.5-0.9,0.9-1.4,1.2c-0.6,0.3-1.2,0.6-1.9,0.9c0.4,0.2,0.7,0.4,1,0.6
			c0.3,0.3,0.6,0.6,0.9,0.9c0.3,0.4,0.5,0.8,0.8,1.2c0.2,0.5,0.5,1,0.7,1.6l2.1,5.1c0.2,0.4,0.3,0.7,0.3,0.9
			C291.9,32.7,291.9,32.9,291.9,33z M287.3,16.6c0-0.9-0.2-1.7-0.6-2.3c-0.4-0.6-1.1-1.1-2.1-1.4c-0.3-0.1-0.6-0.1-1-0.2
			c-0.4,0-0.9-0.1-1.5-0.1h-2.6v7.9h3c0.8,0,1.5-0.1,2.1-0.3c0.6-0.2,1.1-0.5,1.5-0.8c0.4-0.4,0.7-0.8,0.9-1.3
			C287.2,17.6,287.3,17.1,287.3,16.6z"/>
		<path class="st2" d="M315.6,21.5c0,1.9-0.2,3.6-0.7,5.1c-0.4,1.5-1.1,2.8-2,3.9c-0.9,1.1-2,1.9-3.3,2.5c-1.3,0.6-2.9,0.9-4.7,0.9
			c-1.8,0-3.3-0.3-4.6-0.8c-1.3-0.5-2.3-1.3-3.2-2.3c-0.8-1-1.5-2.2-1.9-3.7c-0.4-1.5-0.6-3.2-0.6-5.1c0-1.8,0.2-3.5,0.7-5
			c0.4-1.5,1.1-2.8,2-3.8c0.9-1.1,2-1.9,3.3-2.4c1.3-0.6,2.9-0.9,4.7-0.9c1.7,0,3.2,0.3,4.5,0.8c1.3,0.5,2.3,1.3,3.2,2.3
			s1.5,2.2,1.9,3.7C315.4,17.9,315.6,19.6,315.6,21.5z M312.3,21.7c0-1.3-0.1-2.6-0.4-3.7c-0.2-1.1-0.6-2.1-1.2-3s-1.3-1.5-2.2-2
			s-2-0.7-3.4-0.7c-1.3,0-2.5,0.3-3.4,0.8c-0.9,0.5-1.7,1.2-2.2,2c-0.6,0.8-1,1.8-1.2,2.9s-0.4,2.3-0.4,3.5c0,1.4,0.1,2.6,0.3,3.8
			c0.2,1.2,0.6,2.2,1.2,3c0.5,0.8,1.3,1.5,2.2,1.9c0.9,0.5,2,0.7,3.4,0.7c1.4,0,2.5-0.3,3.4-0.8c0.9-0.5,1.7-1.2,2.2-2
			c0.6-0.9,1-1.9,1.2-3C312.2,24.2,312.3,23,312.3,21.7z"/>
		<path class="st2" d="M332.6,32.1c0,0.2,0,0.4,0,0.6c0,0.2-0.1,0.3-0.1,0.4c-0.1,0.1-0.1,0.2-0.2,0.3c-0.1,0.1-0.2,0.1-0.3,0.1
			h-10.3c-0.3,0-0.5-0.1-0.8-0.3s-0.4-0.5-0.4-1V10.6c0-0.1,0-0.2,0.1-0.3c0-0.1,0.1-0.1,0.3-0.2c0.1,0,0.3-0.1,0.5-0.1
			c0.2,0,0.5,0,0.7,0c0.3,0,0.6,0,0.7,0c0.2,0,0.4,0.1,0.5,0.1s0.2,0.1,0.3,0.2c0,0.1,0.1,0.2,0.1,0.3v20.2h8.4c0.1,0,0.2,0,0.3,0.1
			c0.1,0.1,0.1,0.1,0.2,0.2c0.1,0.1,0.1,0.2,0.1,0.4C332.6,31.6,332.6,31.8,332.6,32.1z"/>
		<path class="st2" d="M354.8,21.5c0,1.9-0.2,3.6-0.7,5.1c-0.4,1.5-1.1,2.8-2,3.9c-0.9,1.1-2,1.9-3.3,2.5c-1.3,0.6-2.9,0.9-4.7,0.9
			c-1.8,0-3.3-0.3-4.6-0.8c-1.3-0.5-2.3-1.3-3.2-2.3c-0.8-1-1.5-2.2-1.9-3.7c-0.4-1.5-0.6-3.2-0.6-5.1c0-1.8,0.2-3.5,0.7-5
			c0.4-1.5,1.1-2.8,2-3.8c0.9-1.1,2-1.9,3.3-2.4c1.3-0.6,2.9-0.9,4.7-0.9c1.7,0,3.2,0.3,4.5,0.8c1.3,0.5,2.3,1.3,3.2,2.3
			c0.8,1,1.5,2.2,1.9,3.7C354.6,17.9,354.8,19.6,354.8,21.5z M351.5,21.7c0-1.3-0.1-2.6-0.4-3.7s-0.6-2.1-1.2-3
			c-0.5-0.8-1.3-1.5-2.2-2s-2-0.7-3.4-0.7c-1.3,0-2.5,0.3-3.4,0.8c-0.9,0.5-1.7,1.2-2.2,2c-0.6,0.8-1,1.8-1.2,2.9s-0.4,2.3-0.4,3.5
			c0,1.4,0.1,2.6,0.3,3.8s0.6,2.2,1.2,3c0.5,0.8,1.3,1.5,2.2,1.9c0.9,0.5,2,0.7,3.4,0.7c1.4,0,2.5-0.3,3.4-0.8
			c0.9-0.5,1.7-1.2,2.2-2c0.6-0.9,1-1.9,1.2-3C351.4,24.2,351.5,23,351.5,21.7z"/>
		<path class="st2" d="M377.2,13.3c0,0.2,0,0.4,0,0.6c0,0.2-0.1,0.3-0.1,0.4c0,0.1-0.1,0.2-0.2,0.2c-0.1,0-0.2,0.1-0.2,0.1
			c-0.1,0-0.4-0.1-0.7-0.3c-0.3-0.2-0.8-0.5-1.4-0.8c-0.6-0.3-1.2-0.5-2-0.8c-0.8-0.2-1.7-0.3-2.8-0.3c-1.3,0-2.4,0.2-3.5,0.7
			c-1,0.5-1.9,1.1-2.6,1.9c-0.7,0.8-1.3,1.8-1.6,3s-0.6,2.4-0.6,3.7c0,1.5,0.2,2.8,0.6,4c0.4,1.2,1,2.1,1.7,2.9
			c0.7,0.8,1.6,1.4,2.6,1.8c1,0.4,2.1,0.6,3.3,0.6c0.7,0,1.5-0.1,2.2-0.3c0.7-0.2,1.4-0.4,2.1-0.8v-6.8h-5.4c-0.2,0-0.4-0.1-0.5-0.3
			c-0.1-0.2-0.2-0.5-0.2-1c0-0.2,0-0.4,0-0.6c0-0.2,0.1-0.3,0.1-0.4c0.1-0.1,0.1-0.2,0.2-0.2c0.1,0,0.2-0.1,0.3-0.1h7.4
			c0.1,0,0.3,0,0.4,0.1c0.1,0,0.3,0.1,0.4,0.2c0.1,0.1,0.2,0.2,0.3,0.4c0.1,0.2,0.1,0.4,0.1,0.6v8.9c0,0.3-0.1,0.6-0.2,0.8
			c-0.1,0.2-0.3,0.4-0.7,0.6c-0.3,0.2-0.8,0.4-1.4,0.6c-0.6,0.2-1.1,0.4-1.7,0.5c-0.6,0.1-1.2,0.3-1.8,0.3c-0.6,0.1-1.2,0.1-1.8,0.1
			c-1.8,0-3.4-0.3-4.8-0.8c-1.4-0.6-2.6-1.4-3.6-2.4c-1-1-1.7-2.3-2.2-3.7c-0.5-1.4-0.8-3.1-0.8-4.8c0-1.9,0.3-3.5,0.8-5
			c0.6-1.5,1.3-2.8,2.4-3.8c1-1.1,2.2-1.9,3.7-2.5c1.4-0.6,3-0.9,4.7-0.9c0.9,0,1.7,0.1,2.5,0.2c0.8,0.2,1.5,0.3,2.1,0.6
			c0.6,0.2,1.1,0.4,1.5,0.7c0.4,0.2,0.7,0.4,0.9,0.6c0.2,0.2,0.3,0.3,0.3,0.5C377.2,12.6,377.2,12.9,377.2,13.3z"/>
		<path class="st2" d="M389.9,24.3V33c0,0.1,0,0.2-0.1,0.3c0,0.1-0.1,0.1-0.3,0.2c-0.1,0-0.3,0.1-0.5,0.1c-0.2,0-0.4,0-0.7,0
			c-0.3,0-0.5,0-0.7,0c-0.2,0-0.4-0.1-0.5-0.1c-0.1,0-0.2-0.1-0.3-0.2s-0.1-0.2-0.1-0.3v-8.6l-6.6-13.2c-0.1-0.3-0.2-0.5-0.2-0.6
			c0-0.2,0-0.3,0.1-0.4c0.1-0.1,0.3-0.1,0.5-0.2c0.2,0,0.6,0,0.9,0c0.4,0,0.7,0,0.9,0c0.2,0,0.4,0.1,0.5,0.1c0.1,0,0.2,0.1,0.3,0.2
			c0.1,0.1,0.1,0.2,0.2,0.3l3.2,6.7c0.3,0.6,0.6,1.3,0.9,2c0.3,0.7,0.6,1.4,0.9,2.1h0c0.3-0.7,0.6-1.4,0.9-2c0.3-0.7,0.6-1.3,0.9-2
			l3.2-6.7c0-0.1,0.1-0.2,0.2-0.3c0.1-0.1,0.2-0.1,0.3-0.2c0.1,0,0.3-0.1,0.5-0.1c0.2,0,0.5,0,0.8,0c0.4,0,0.8,0,1,0
			c0.2,0,0.4,0.1,0.5,0.2s0.1,0.2,0.1,0.4c0,0.2-0.1,0.4-0.2,0.6L389.9,24.3z"/>
	</g>
</g>
</svg>
