<?xml version="1.0" encoding="utf-8"?>
<!-- Generator: Adobe Illustrator 21.1.0, SVG Export Plug-In . SVG Version: 6.00 Build 0)  -->
<svg version="1.1" id="Layer_1" xmlns="http://www.w3.org/2000/svg" xmlns:xlink="http://www.w3.org/1999/xlink" x="0px" y="0px"
	 viewBox="0 0 88 77" style="enable-background:new 0 0 88 77;" xml:space="preserve">
<style type="text/css">
	.st0{fill:#25668E;}
</style>
<g>
	<path class="st0" d="M20.2,12.5c-1.4-1.3-2.2-2.7-2.4-4.4c-0.3-2.2,0-4.3,1.4-6.1c1.9-2.6,5.1-2.6,7.1-0.1c2.2,2.7,2.1,7.3-0.3,9.9
		c-0.2,0.2-0.4,0.4-0.6,0.7c1.2,0.6,2.3,1.3,3.5,1.7c2.9,0.9,4.1,3,4.6,5.8c0.2,1,0,1.4-1,1.6c-2.5,0.4-5,0.8-7.6,1
		c-3.8,0.3-7.6-0.1-11.3-0.8c-1.6-0.3-1.7-0.6-1.4-2.2c0.5-2.4,1.6-4.3,4.1-5.1C17.5,13.9,18.8,13.2,20.2,12.5z"/>
	<path class="st0" d="M29,66.9c-2.5-2.6-3.1-5.5-2-8.7c1-2.9,3.5-4.4,5.9-3.6c1.9,0.7,3,2.3,3.5,4.2c0.8,2.9,0.2,5-2.1,8.1
		c0.4,0.2,0.8,0.5,1.2,0.7c1,0.5,2,1,3.1,1.4c2.8,1,3.5,3.4,3.8,5.9c0.1,0.7-0.5,1-1,1.1c-1.8,0.3-3.6,0.7-5.4,0.9
		c-4.4,0.4-8.9,0.2-13.3-0.7c-1.9-0.4-2-0.6-1.6-2.5c0.5-2.3,1.7-4,4-4.9C26.4,68.3,27.6,67.6,29,66.9z"/>
	<path class="st0" d="M13.6,38.9c1.3,0.6,2.5,1.3,3.8,1.7c2.7,0.9,3.8,3,4.2,5.6c0.2,1.2,0,1.5-1.2,1.7c-1.9,0.3-3.9,0.7-5.9,0.8
		c-4.4,0.3-8.7,0.2-13-0.8c-1.5-0.3-1.6-0.5-1.3-2c0.4-2.5,1.5-4.4,4.1-5.3c1.3-0.5,2.6-1.2,4-1.8c-1.9-1.7-2.6-3.8-2.5-6.1
		c0.1-1.7,0.6-3.4,1.7-4.7c2-2.3,4.9-2.2,6.8,0c2.3,2.7,2.2,7.5-0.2,10.1c-0.2,0.2-0.4,0.3-0.6,0.4C13.6,38.7,13.6,38.8,13.6,38.9z"
		/>
	<path class="st0" d="M74.3,50.3c-2.6-2.7-3-5.7-1.8-9c0.6-1.7,1.8-2.9,3.6-3.3c1.9-0.4,3.8,0.5,4.9,2.4c1.5,2.5,1.8,6.8-1.3,9.9
		c0.2,0.2,0.4,0.3,0.6,0.4c1.2,0.6,2.5,1.2,3.7,1.7c1.7,0.7,2.7,1.9,3.2,3.6c0.9,3.1,0.9,3.2-2.1,3.7c-5.8,1-11.6,1-17.4-0.2
		c-1.5-0.3-1.7-0.6-1.3-2.2c0.2-0.8,0.5-1.7,0.9-2.5c0.4-1,1.2-1.7,2.2-2.2c1.3-0.5,2.5-1.1,3.7-1.7C73.6,50.8,73.9,50.6,74.3,50.3z
		"/>
	<path class="st0" d="M70,15.3c-1.6-1.5-2.4-3.2-2.5-5.3c-0.1-2,0.3-3.8,1.6-5.4c1.9-2.5,5.2-2.4,7.1,0.1c2.3,2.9,2,7.4-0.5,10.1
		c-0.1,0.1-0.2,0.3-0.5,0.5c1.3,0.6,2.5,1.3,3.8,1.8c2.8,0.9,3.8,3,4.3,5.7c0.2,1-0.2,1.4-1.1,1.6c-1.5,0.3-2.9,0.6-4.4,0.7
		c-4.7,0.5-9.4,0.3-14-0.5c-2.1-0.4-2.3-0.7-1.8-2.7c0.5-2.2,1.6-3.8,3.8-4.6C67.3,16.7,68.6,16,70,15.3z"/>
	<path class="st0" d="M41.7,34.5c0.2,0.2,0.3,0.4,0.5,0.5c2.4,2.8,6.1,2.9,8.6,0.1c0.5-0.5,0.8-0.6,1.4-0.3c1.3,0.6,2.8,1.1,4.1,1.8
		c2.6,1.3,4.5,4.9,4.3,7.7c0,0.3-0.4,0.7-0.7,0.8c-2.1,0.5-4.1,1-6.2,1.3c-4.1,0.5-8.2,0.6-12.3,0.2c-2.6-0.3-5.2-0.9-7.9-1.4
		c-0.7-0.1-0.9-0.6-0.8-1.3c0.4-3.4,1.7-6.3,5.2-7.8C39,35.7,40.3,35.1,41.7,34.5z"/>
	<path class="st0" d="M46.4,18.7c1.1,0.3,2.2,0.5,3.2,0.8c0.9,0.3,1.5,1,1.8,1.9c0.1,0.3,0.3,0.5,0.4,0.8c0.2,0.4,0.4,0.8,0.6,1.2
		c0.4,1.3,0.2,2.7,0.7,4.1c0.4,1.1-0.1,2.4-0.8,3.4c-0.4,0.7-0.8,1.4-1.2,2.1c-1,1.9-2.4,3.2-4.6,3.2c-2.2,0-3.6-1.4-4.5-3.3
		c-0.3-0.6-0.7-1.3-1.1-1.9c-0.7-1-1.4-2.3-0.9-3.4c0.6-1.6,0.3-3.3,0.8-4.9C41.3,20.4,43.3,19,46.4,18.7z"/>
	<path class="st0" d="M22.6,42.9c-0.8,0-1.3-0.5-1.4-1.2c-0.1-0.8,0.4-1.3,1.2-1.5c2.1-0.5,4.1-1,6.2-1.5c0.8-0.2,1.6-0.4,2.4-0.6
		c0.8-0.1,1.5,0.3,1.6,1c0.1,0.8-0.2,1.3-1,1.5c-2.9,0.7-5.8,1.4-8.7,2.1C22.8,42.9,22.7,42.9,22.6,42.9z"/>
	<path class="st0" d="M62.4,44.9c0.1,0.1,0.4,0.1,0.7,0.3c2.2,1.2,4.4,2.4,6.6,3.6c0.9,0.5,1.1,1.2,0.7,2c-0.4,0.7-1.1,0.9-2,0.4
		c-2.3-1.2-4.5-2.5-6.8-3.7c-0.6-0.3-1-0.8-0.8-1.6C61.1,45.2,61.6,44.9,62.4,44.9z"/>
	<path class="st0" d="M38.7,28c0,1.3-1.1,2-2,1.4c-2-1.3-3.9-2.7-5.8-4.1c-0.6-0.5-0.7-1.1-0.2-1.8c0.5-0.7,1.2-0.8,1.8-0.4
		c2,1.3,3.9,2.8,5.9,4.2C38.5,27.5,38.6,27.9,38.7,28z"/>
	<path class="st0" d="M37.6,56.4c-1.2,0-1.9-0.9-1.6-1.7c0.8-2.1,1.6-4.1,2.4-6.2c0.3-0.7,1.1-1,1.7-0.8c0.7,0.3,1,1,0.8,1.7
		c-0.7,2-1.5,4-2.3,6C38.4,55.9,37.8,56.2,37.6,56.4z"/>
	<path class="st0" d="M55.4,30.7c-0.3-0.3-0.9-0.5-1-0.9c-0.1-0.4,0-1.2,0.3-1.5c1.7-1.3,3.5-2.5,5.3-3.7c0.6-0.4,1.3-0.2,1.8,0.4
		c0.5,0.7,0.3,1.3-0.3,1.8c-1.7,1.2-3.5,2.4-5.3,3.6C56,30.6,55.8,30.6,55.4,30.7z"/>
</g>
</svg>
