<?xml version="1.0" encoding="utf-8"?>
<!-- Generator: Adobe Illustrator 21.1.0, SVG Export Plug-In . SVG Version: 6.00 Build 0)  -->
<svg version="1.1" id="Layer_1" xmlns="http://www.w3.org/2000/svg" xmlns:xlink="http://www.w3.org/1999/xlink" x="0px" y="0px"
	 viewBox="0 0 80 77" style="enable-background:new 0 0 80 77;" xml:space="preserve">
<style type="text/css">
	.st0{fill:#25668E;}
</style>
<g>
	<path class="st0" d="M80,51.8c0-0.6-0.1-1.1-0.1-1.7c-0.1-0.6-0.2-1.3-0.3-1.9c-0.3-1.3-1.1-2.1-2.4-2.4c-0.9-0.2-1.8-0.3-2.7-0.4
		c-1.1-0.1-2.3-0.1-3.4-0.1c-0.1,0-0.1,0-0.2,0c0.1,0.5,0.2,1.1,0.2,1.6c0.1,1.3,0.2,2.6,0.2,3.8c0,3.1,0,6.3,0,9.4c0,2,0,4-0.7,6
		c0,0,0.1,0,0.1,0c1.9,0,3.8,0,5.7-0.3c0.4-0.1,0.7-0.2,1.1-0.3c1.1-0.4,1.8-1.1,2-2.2c0.2-1,0.3-2.1,0.4-3.1c0-0.2,0-0.3,0.1-0.5
		C80,57.3,80,54.6,80,51.8z"/>
	<path class="st0" d="M0,59.9c0,0.6,0.1,1.2,0.1,1.7c0.1,0.6,0.2,1.3,0.3,1.9c0.3,1.2,1.1,2.1,2.4,2.4C3.5,66,4.2,66.1,5,66.3
		c0-0.2,0-0.3,0-0.5c0-2.1,0-4.3,0-6.4c0-5.7,3.8-10.5,9.2-11.9c1-0.3,2.1-0.4,3.2-0.4c0.4,0,0.8,0,1.2,0c-0.1-0.1-0.2-0.1-0.2-0.2
		c-0.6-0.5-1.3-0.9-2-1.4c-0.1-0.1-0.3-0.2-0.4-0.2c-3.2,0-6.4,0-9.7,0.1c-1,0-2,0.1-2.9,0.3c-1.8,0.3-2.7,1.2-3,3
		c-0.2,0.8-0.2,1.7-0.3,2.6c0,0.2,0,0.4-0.1,0.6C0,54.6,0,57.2,0,59.9z"/>
	<path class="st0" d="M6.8,76.8c12.5,0,24.9,0,37.4,0c0-0.1,0-0.2,0-0.4c0-5.6,0-11.3,0-16.9c0-5.2-3.6-9.5-8.7-10.4
		c-0.6-0.1-1.3-0.1-2-0.1c-5.3,0-10.7,0-16,0c-4.9,0-8.6,3-10,6.7c-0.5,1.2-0.7,2.5-0.7,3.7c0,5.7,0,11.4,0,17
		C6.7,76.5,6.7,76.6,6.8,76.8z"/>
	<path class="st0" d="M26.7,20c0.4-1.8,0.8-3.4,1.2-5.2c0.4,0.1,0.8,0.1,1.1,0.2c4.5,0.7,9,0.9,13.5,0.8c2.3,0,4.5,0,6.8,0
		c0.1,0,0.3,0.1,0.4,0.1c1.8,0.8,3.6,1.5,5.4,2.3c0.1,0,0.2,0.1,0.4,0.2c-0.4-1.3-0.8-2.5-1.3-3.7c0.6-0.1,1.2-0.3,1.8-0.4
		c2.5-0.5,4.9-1.2,7.1-2.4c1-0.5,1.9-1,2.6-1.8c1.2-1.3,1.3-2.8,0-4.1c-0.1-0.2-0.3-0.3-0.5-0.5c-1.1-0.9-2.3-1.6-3.6-2.1
		c-2.4-1-5-1.6-7.5-2.1c-5.9-1-11.8-1.3-17.8-1c-3.4,0.2-6.7,0.5-10,1.2c-2.8,0.5-5.5,1.2-8.1,2.5c-0.9,0.4-1.6,1-2.4,1.6
		c-0.3,0.2-0.5,0.5-0.7,0.8c-0.8,1.1-0.8,2.2,0,3.3c0.8,1,1.8,1.7,2.9,2.2c1.3,0.7,2.7,1.3,4,2c0.2,0.1,0.4,0.3,0.5,0.4
		c1.2,1.7,2.5,3.5,3.7,5.2C26.5,19.8,26.6,19.9,26.7,20z"/>
	<path class="st0" d="M25.4,22.9c-6.7,0-12.2,5.5-12.2,12.2c0,6.7,5.5,12.2,12.2,12.1c6.7,0,12.2-5.5,12.2-12.2
		C37.6,28.3,32.2,22.9,25.4,22.9z"/>
	<path class="st0" d="M63.9,68c0.7-0.1,1.4-0.2,2.1-0.3c0.4-0.1,0.7-0.2,1.1-0.3c1.4-0.5,1.9-1.6,2.2-2.9c0.3-1.7,0.3-3.4,0.3-5
		c0-3.4,0-6.8,0-10.2c0-1-0.1-1.9-0.2-2.9c-0.3-2.1-1.3-3.1-3.4-3.3c-1.7-0.2-3.4-0.3-5.1-0.3c-5.7,0-11.4,0-17.2,0
		c-1.4,0-2.7,0.1-4.1,0.2c-2.4,0.3-3.3,1.3-3.6,3.7c-0.1,0.6-0.1,0.6,0.5,0.7c0.7,0.2,1.3,0.4,2,0.6c0.1-0.2,0.1-0.5,0.2-0.8
		c0.3-1.4,1.1-2.2,2.5-2.4c1.1-0.2,2.1-0.3,3.2-0.3c4.4,0,8.7,0,13.1,0c2,0,4.1,0.1,6.1,0.1c0.6,0,1.2,0.2,1.8,0.3
		c0.9,0.3,1.6,0.9,1.8,1.8c0.2,0.9,0.4,1.9,0.4,2.8c0,4.1,0,8.2,0,12.3c0,0.6-0.1,1.2-0.3,1.8c-0.3,1.2-1,2-2.3,2.2
		c-1,0.2-2,0.3-2.9,0.3c-5.2,0-10.4,0-15.6,0c-0.1,0-0.3,0-0.4,0c0,2,0,4,0,6.1c0.1,0,0.2,0,0.3,0c8.9,0,17.8,0,26.7,0
		c0.8,0,1.6,0,2.4-0.1c0.2,0,0.5-0.2,0.7-0.3c-0.2-0.2-0.3-0.4-0.5-0.6c-1.2-0.7-2.5-1.4-3.7-2.2c-1.4-0.9-3-1.3-4.6-1.2
		c-0.9,0-1.7,0-2.6,0C64.4,68.1,64.2,68.1,63.9,68C63.9,68.1,63.9,68,63.9,68z"/>
	<path class="st0" d="M64.3,35c4.3,0,7.8-3.5,7.8-7.8c0-4.3-3.5-7.8-7.8-7.8c-4.3,0-7.8,3.5-7.8,7.8C56.5,31.5,60,35,64.3,35z"/>
	<path class="st0" d="M54.2,41.1c0.2,0,0.3,0,0.5,0c3.1,0,6.2,0,9.4,0.1c1.2,0,2.5,0.2,3.6,0.6c1,0.3,1.8,0.9,2.4,1.8
		c0.1,0.1,0.3,0.2,0.4,0.2c1.6,0.1,3.2,0.1,4.7,0.1c0.3,0,0.5,0,0.8,0.1c-0.1-0.2-0.1-0.3-0.1-0.4c-1.5-4-5.3-6.7-9.7-6.7
		c-1.6,0-3.2-0.1-4.8,0.1c-2.9,0.3-5.3,1.7-7.1,4C54.3,40.9,54.2,41,54.2,41.1z"/>
	<path class="st0" d="M52.6,48.9c3.5,0,7,0,10.5,0c0.2,0,0.5,0,0.7-0.1c0.3-0.1,0.5-0.4,0.6-0.8c0-0.3-0.2-0.6-0.6-0.8
		c-0.2-0.1-0.4-0.1-0.6-0.1c-7,0-14.1,0-21.1,0c-0.2,0-0.5,0.1-0.7,0.1c-0.3,0.1-0.5,0.4-0.5,0.7c0,0.3,0.2,0.6,0.5,0.7
		c0.2,0.1,0.5,0.2,0.8,0.2C45.6,48.9,49.1,48.9,52.6,48.9z"/>
	<path class="st0" d="M43.1,51.6c0.4,0.6,0.7,1.1,1.1,1.6c0.1,0.1,0.2,0.1,0.3,0.1c0.5,0,0.9,0,1.4,0c5.7,0,11.5,0,17.2,0
		c0.3,0,0.6-0.1,0.9-0.2c0.6-0.3,0.6-1,0-1.3c-0.2-0.1-0.6-0.2-0.9-0.2c-3.5,0-6.9,0-10.4,0c-3.1,0-6.1,0-9.2,0
		C43.4,51.6,43.2,51.6,43.1,51.6z"/>
	<path class="st0" d="M45.4,55.9c0.1,0.6,0.2,1.1,0.3,1.6c0,0.1,0.1,0.1,0.2,0.1c0.1,0,0.2,0,0.2,0c5.7,0,11.3,0,17,0
		c0.2,0,0.4,0,0.6-0.1c0.4-0.1,0.6-0.4,0.6-0.8c0-0.4-0.2-0.7-0.6-0.8c-0.2-0.1-0.4-0.1-0.6-0.1c-5.8,0-11.6,0-17.4,0
		C45.6,55.9,45.5,55.9,45.4,55.9z"/>
	<path class="st0" d="M45.9,60.2c0,0.6,0,1.1,0,1.7c0.1,0,0.2,0,0.4,0c5.7,0,11.3,0,17,0c0.1,0,0.2,0,0.2,0c0.5,0,0.9-0.4,0.9-0.8
		c0-0.4-0.3-0.8-0.8-0.9c-0.1,0-0.2,0-0.3,0c-5.6,0-11.3,0-16.9,0C46.1,60.2,46,60.2,45.9,60.2z"/>
	<path class="st0" d="M34.3,45.8c-0.7,0.5-1.3,0.9-2,1.4c0.6,0,1.2,0,1.8,0C34.1,46.7,34.2,46.3,34.3,45.8z"/>
</g>
</svg>
