<?xml version="1.0" encoding="utf-8"?>
<!-- Generator: Adobe Illustrator 25.2.1, SVG Export Plug-In . SVG Version: 6.00 Build 0)  -->
<svg version="1.0" id="Layer_1" xmlns="http://www.w3.org/2000/svg" xmlns:xlink="http://www.w3.org/1999/xlink" x="0px" y="0px"
	 width="50px" height="50px" viewBox="0 0 50 50" style="enable-background:new 0 0 50 50;" xml:space="preserve">
<style type="text/css">
	.st0{fill:none;stroke:#0071BC;stroke-miterlimit:10;}
	.st1{fill:#0071BC;}
</style>
<g>
	<circle class="st0" cx="25" cy="25" r="22.1"/>
	<path class="st1" d="M30.5,30.3c0-0.6-0.1-1.2-0.1-1.9c-0.1-0.7-0.3-1.3-0.7-1.9c-0.7-1.3-1.8-2.1-3.1-2.7
		c-0.2-0.1-0.4-0.1-0.6-0.2c0,1.1,0.1,2.1,0.1,3.2c0.2,0.1,0.3,0.1,0.5,0.2c0.5,0.1,1,0.4,1.4,0.8c0.4,0.4,0.7,0.9,0.7,1.5
		c0,0.5,0,1,0,1.5c0,0.7,0,1.3,0,1.9c-0.3,0.4-0.6,0.6-0.9,0.5c-0.3-0.1-0.5-0.3-0.5-0.7c0.1-0.2,0.2-0.4,0.4-0.6c0-0.8,0-1.5,0-2.3
		c0-0.6-0.3-1.1-0.8-1.4c-1.1-0.7-2.6-0.3-3.2,0.7c0,0.4-0.1,0.9-0.1,1.4c0,0.5,0,1.1,0,1.6c0.1,0.1,0.2,0.2,0.2,0.3
		c0.2,0.3,0.2,0.5,0,0.7c-0.2,0.2-0.5,0.2-0.7,0.2c-0.4-0.1-0.6-0.4-0.6-0.9c0-1,0-2.1,0-3.1c0-0.5,0.2-0.9,0.5-1.3
		c0.4-0.5,0.9-0.8,1.5-1c0.2-0.1,0.3-0.1,0.5-0.2c0-0.7,0-1.4,0-2c0-0.4-0.1-0.8-0.1-1.2c0-0.3-0.2-0.5-0.6-0.6
		c-1,1.3-2.1,2.5-3.2,3.9c-1.1-1.3-2.1-2.6-3.2-3.9c-0.3,0.1-0.5,0.1-0.8,0.2c-0.1,0.5-0.3,0.9-0.3,1.4c0,1.5,0,2.9,0,4.4
		c0,0,0,0.1,0.1,0.1c0.6,0.3,0.9,0.8,1,1.5c-0.3,1-0.8,1.6-1.5,1.6c-0.6,0-1.3-0.4-1.6-1c-0.3-0.7-0.1-1.3,0.9-2.1
		c0-0.3,0.1-0.6,0.1-1c0-1.3,0-2.6,0-3.9c0-0.1,0-0.3,0-0.4c-1.2,0.5-2.2,1.1-3,2.1c-0.8,1-1.2,2.1-1.2,3.3c0,2.2,0,4.3,0,6.5
		c0,0.2,0,0.4,0,0.6c0.7,0.1,14.1,0.1,17.9,0c-0.4-0.7-0.5-1.5-0.5-2.3C28.9,32.6,29.5,31.3,30.5,30.3z"/>
	<path class="st1" d="M20.8,22.1c2.9,0.1,5.5-2.4,5.4-5.3c0.1-2.9-2.4-5.2-5-5.4c-2.9-0.2-5.5,2.2-5.6,5.3
		C15.6,19.7,18.1,22,20.8,22.1z"/>
	<g>
		<path class="st1" d="M33.9,30c2.2,0,4,1.8,4,4s-1.8,4-4,4c-1.5,0-2.9-0.8-3.6-2.2c-0.3-0.6-0.4-1.2-0.4-1.8c0-1.1,0.5-2.2,1.3-2.9
			C32,30.4,32.9,30,33.9,30 M33.9,29.5c-1.2,0-2.3,0.5-3.1,1.2c-0.9,0.8-1.4,2-1.4,3.3c0,0.7,0.2,1.4,0.5,2.1c0.8,1.5,2.3,2.5,4,2.5
			c2.5,0,4.5-2,4.5-4.5C38.5,31.5,36.5,29.5,33.9,29.5L33.9,29.5z"/>
	</g>
	<g>
		<path class="st1" d="M34.4,33.4c0.2,0.3,0.1,0.6,0,0.9c0,0,0.1,0,0.1,0.1c0.2,0.1,0.3,0.3,0.4,0.6c0,0.2,0,0.4-0.1,0.6
			c-0.2,0.4-0.5,0.6-0.9,0.7c-0.3,0.1-0.5,0-0.7-0.2c-0.4-0.3-0.6-0.6-0.7-1.1c-0.1-0.3-0.1-0.6-0.1-0.9c0-0.1,0-0.2,0-0.3
			c0-0.3,0-0.5,0.1-0.8c0.1-0.3,0.2-0.5,0.4-0.7c0,0,0,0,0,0c0.1-0.2,0.2-0.3,0.3-0.4c0.3-0.2,0.6-0.3,0.9-0.3c0.2,0,0.3,0,0.5,0.1
			c0.1,0,0.2,0.1,0.2,0.1c0.3,0.2,0.5,0.5,0.5,0.9c0,0.2,0,0.4-0.1,0.6c-0.1,0.2-0.2,0.3-0.4,0.3C34.7,33.5,34.5,33.5,34.4,33.4
			C34.4,33.4,34.4,33.4,34.4,33.4z M35.1,32.1c0,0,0,0.1,0,0.1c0,0.2,0,0.4-0.1,0.6c-0.1,0.2-0.3,0.4-0.5,0.4c-0.1,0-0.2,0-0.2,0
			c-0.1,0-0.3-0.1-0.4-0.2c-0.2-0.2-0.3-0.4-0.4-0.6c0,0,0,0,0,0c0,0.2,0.1,0.4,0.1,0.6c0,0-0.1,0-0.1,0c0,0-0.1,0-0.1,0
			c0,0-0.1,0-0.1,0c0,0-0.1,0-0.1,0c0,0,0,0,0,0c0.1,0,0.2,0.1,0.3,0.1c0.2,0.1,0.3,0.1,0.4,0.2c0.1,0.1,0.2,0.2,0.3,0.4
			c0,0.2,0,0.4-0.1,0.6c0,0.1-0.1,0.2-0.2,0.2c-0.1,0-0.1,0-0.2,0.1c-0.1,0-0.3,0-0.4,0.1c0,0,0,0-0.1,0c0,0,0,0-0.1,0
			c0.2,0,0.5,0.1,0.7,0c-0.2,0.1-0.3,0.3-0.4,0.4c0,0,0,0,0,0c0.1-0.1,0.3-0.3,0.4-0.3c0.2-0.1,0.3-0.1,0.4,0.1c0,0,0,0,0,0.1
			c0.2,0.2,0.2,0.5,0.1,0.8c-0.1,0.3-0.3,0.5-0.6,0.7c0,0-0.1,0-0.1,0c0,0,0,0,0.1,0c0.3-0.1,0.6-0.3,0.8-0.6
			c0.1-0.2,0.2-0.4,0.1-0.6c0-0.2-0.2-0.4-0.4-0.6c0,0-0.1-0.1-0.1-0.1c0.1-0.3,0.2-0.6,0-0.9c0,0,0,0,0,0c0,0,0,0,0,0
			c0.2,0,0.3,0,0.5,0c0.1-0.1,0.2-0.2,0.3-0.4c0.1-0.2,0.1-0.4,0-0.6C35.1,32.3,35.1,32.2,35.1,32.1z"/>
		<path class="st1" d="M34.7,34.5c0,0,0.1,0,0.1,0c0,0,0.1,0,0.2,0c0,0,0,0,0,0c0.1,0.1,0.1,0.3,0.1,0.5c0.1,0.3,0.1,0.6,0.1,0.8
			c0,0.2,0,0.4,0,0.6c0,0,0,0,0,0.1c-0.1,0.1-0.2,0.1-0.3,0c0,0,0,0,0-0.1c0-0.2,0-0.4,0-0.6c0-0.2,0-0.3-0.1-0.5c0,0,0,0,0,0
			c0.1-0.2,0.1-0.4,0-0.6C34.8,34.7,34.8,34.6,34.7,34.5C34.7,34.5,34.7,34.5,34.7,34.5z M35.2,36.5C35.2,36.5,35.2,36.5,35.2,36.5
			c0,0-0.1,0-0.1,0c0,0,0,0,0,0c0,0,0,0,0,0C35.2,36.6,35.2,36.5,35.2,36.5C35.3,36.5,35.3,36.5,35.2,36.5
			C35.3,36.5,35.3,36.5,35.2,36.5C35.3,36.5,35.2,36.5,35.2,36.5z"/>
		<path class="st1" d="M34.5,33.5c0,0,0.1,0,0.1,0c0.1,0,0.2,0,0.3-0.1c0,0,0,0,0,0c0.2,0,0.4,0,0.5,0c0.1,0,0.1,0,0.1,0
			c0,0.1,0,0.2,0,0.3c0,0,0,0.1-0.1,0.1c-0.2,0.1-0.4,0.1-0.6,0.1c0,0,0,0,0,0c-0.1,0-0.3-0.1-0.4-0.1c0,0,0,0,0,0
			C34.5,33.7,34.5,33.6,34.5,33.5z M35.5,33.6c0,0,0,0.1,0,0.1c0,0,0,0,0,0c0,0,0,0,0,0c0-0.1,0-0.1,0-0.2c0,0,0,0,0,0c0,0,0,0,0,0
			C35.5,33.6,35.5,33.6,35.5,33.6z"/>
		<path class="st1" d="M34.4,34.2c0.1-0.1,0.1-0.3,0.1-0.4c0,0,0,0,0,0c0.2,0.1,0.5,0.2,0.8,0.2c0,0,0.1,0,0.1,0c0,0,0,0,0,0
			c0,0,0,0.1,0,0.1c0,0.1,0,0.1-0.1,0.2c0,0,0,0-0.1,0c-0.2,0-0.5,0-0.7,0c0,0,0,0,0,0C34.6,34.3,34.5,34.3,34.4,34.2z M35.4,34.2
			C35.4,34.2,35.4,34.2,35.4,34.2C35.4,34.2,35.4,34.2,35.4,34.2C35.4,34.1,35.4,34.1,35.4,34.2C35.4,34.1,35.4,34.1,35.4,34.2
			C35.4,34.1,35.4,34.2,35.4,34.2c-0.1,0-0.1,0.1-0.1,0.1c0,0,0,0,0,0c0,0,0,0,0,0c0,0,0,0,0,0C35.4,34.3,35.4,34.2,35.4,34.2z"/>
	</g>
</g>
</svg>
