<?xml version="1.0" encoding="utf-8"?>
<!-- Generator: Adobe Illustrator 25.2.1, SVG Export Plug-In . SVG Version: 6.00 Build 0)  -->
<svg version="1.0" id="Layer_1" xmlns="http://www.w3.org/2000/svg" xmlns:xlink="http://www.w3.org/1999/xlink" x="0px" y="0px"
	 width="50px" height="50px" viewBox="0 0 50 50" style="enable-background:new 0 0 50 50;" xml:space="preserve">
<style type="text/css">
	.st0{fill:none;stroke:#0071BC;stroke-miterlimit:10;}
	.st1{fill:#0071BC;}
</style>
<g>
	<circle class="st0" cx="25" cy="25" r="22.1"/>
	<g>
		<path class="st1" d="M9.8,35.4c0-0.7,0-1.4,0-2.2c0.6,0,1.2,0,1.8,0c0-0.2,0-0.4,0-0.6c0-4,0-8,0-12.1c0-0.1,0-0.2,0-0.3
			c0.1-0.5,0.5-0.9,1-0.9c1.9,0,3.9,0,5.8,0c0,0,0.1,0,0.1,0c0,0.1,0,0.3,0,0.4c0,4.2,0,8.3,0,12.5c0,0.1,0,0.3,0,0.4
			c0,0.6,0.1,0.7,0.7,0.6c0-0.7,0-1.4,0-2c0-5,0-10.1,0-15.1c0-0.2,0-0.4,0-0.6c0.1-0.4,0.4-0.7,0.9-0.8c0.1,0,0.2,0,0.3,0
			c3,0,6,0,9,0c0.5,0,0.9,0.2,1.1,0.7c0.1,0.2,0.1,0.4,0.1,0.6c0,1.3,0,2.7,0,4c0,4,0,8,0,12.1c0,0.4,0,0.8,0,1.2c0.2,0,0.4,0,0.7,0
			c0-0.3,0.1-0.5,0.1-0.8c0-4.2,0-8.4,0-12.6c0-0.1,0-0.3,0-0.4c0.1,0,0.2,0,0.3,0c1.8,0,3.6,0,5.5,0c0.8,0,1.3,0.4,1.3,1.3
			c0,4,0,8.1,0,12.1c0,0.2,0,0.3,0,0.6c0.6,0,1.1,0,1.7,0c0,0.7,0,1.5,0,2.2C30.1,35.4,20,35.4,9.8,35.4z M25,22.7
			c2.1,0,3.8-1.7,3.8-3.8c0-2.1-1.7-3.8-3.8-3.8c-2.1,0-3.8,1.7-3.8,3.8C21.2,21,22.9,22.7,25,22.7z M27.4,33.1c0-1.9,0-3.7,0-5.6
			c-1.5,0-3,0-4.5,0c0,1.9,0,3.7,0,5.6C24.4,33.1,25.9,33.1,27.4,33.1z M14.8,22c-0.5,0-1,0-1.5,0c0,0.5,0,1,0,1.5c0.5,0,1,0,1.5,0
			C14.8,23,14.8,22.5,14.8,22z M15.7,23.5c0.5,0,1,0,1.5,0c0-0.5,0-1,0-1.5c-0.5,0-1,0-1.5,0C15.7,22.5,15.7,23,15.7,23.5z
			 M37.1,23.5c0-0.5,0-1,0-1.5c-0.5,0-1,0-1.5,0c0,0.5,0,1,0,1.5C36.2,23.5,36.6,23.5,37.1,23.5z M34.7,22c-0.5,0-1,0-1.5,0
			c0,0.5,0,1,0,1.5c0.5,0,1,0,1.5,0C34.7,23,34.7,22.5,34.7,22z M14.8,24.6c-0.5,0-1,0-1.5,0c0,0.5,0,1,0,1.5c0.5,0,0.9,0,1.4,0
			c0,0,0.1-0.1,0.1-0.2C14.8,25.5,14.8,25.1,14.8,24.6z M15.7,24.6c0,0.5,0,1,0,1.5c0.5,0,1,0,1.5,0c0-0.5,0-1,0-1.5
			C16.7,24.6,16.2,24.6,15.7,24.6z M35.6,24.6c0,0.5,0,1,0,1.5c0.5,0,1,0,1.5,0c0-0.5,0-1,0-1.5C36.6,24.6,36.1,24.6,35.6,24.6z
			 M14.8,27.3c-0.5,0-1,0-1.5,0c0,0.5,0,1,0,1.5c0.5,0,1,0,1.5,0C14.8,28.3,14.8,27.8,14.8,27.3z M17.2,28.8c0-0.5,0-1,0-1.5
			c-0.5,0-1,0-1.5,0c0,0.5,0,1,0,1.5C16.2,28.8,16.7,28.8,17.2,28.8z M37.1,27.3c-0.5,0-1,0-1.5,0c0,0.5,0,1,0,1.5c0.5,0,1,0,1.5,0
			C37.1,28.3,37.1,27.8,37.1,27.3z M33.2,26.1c0.5,0,1,0,1.5,0c0-0.5,0-1,0-1.5c-0.5,0-1,0-1.5,0C33.2,25.1,33.2,25.6,33.2,26.1z
			 M34.7,28.8c0-0.5,0-1,0-1.5c-0.5,0-1,0-1.5,0c0,0.5,0,1,0,1.5C33.8,28.8,34.2,28.8,34.7,28.8z"/>
		<path class="st1" d="M22.6,17.9c0.5,0,0.9,0,1.4,0c0-0.5,0-1,0-1.4c0.6,0,1.2,0,1.9,0c0,0.5,0,0.9,0,1.4c0.5,0,1,0,1.4,0
			c0,0.6,0,1.2,0,1.9c-0.5,0-0.9,0-1.4,0c0,0.5,0,1,0,1.4c-0.6,0-1.2,0-1.9,0c0-0.5,0-0.9,0-1.4c-0.5,0-0.9,0-1.4,0
			C22.6,19.2,22.6,18.6,22.6,17.9z"/>
	</g>
</g>
</svg>
