<?xml version="1.0" encoding="utf-8"?>
<!-- Generator: Adobe Illustrator 25.2.1, SVG Export Plug-In . SVG Version: 6.00 Build 0)  -->
<svg version="1.0" id="Layer_1" xmlns="http://www.w3.org/2000/svg" xmlns:xlink="http://www.w3.org/1999/xlink" x="0px" y="0px"
	 width="50px" height="50px" viewBox="0 0 50 50" style="enable-background:new 0 0 50 50;" xml:space="preserve">
<style type="text/css">
	.st0{fill:none;stroke:#0071BC;stroke-miterlimit:10;}
	.st1{fill:#0071BC;}
</style>
<g>
	<circle class="st0" cx="25" cy="25" r="22.1"/>
	<g>
		<path class="st1" d="M13.5,38.3c0.3-1.4,0.5-2.6,0.7-3.9c0.9-4.7,1.8-9.5,2.7-14.2c0.1-0.4,0.3-0.6,0.7-0.8c2-0.7,4.1-1.3,6-2.2
			c2.4-1.1,4.5-2.7,6.1-4.8c0.2-0.3,0.4-0.6,0.7-1c0.3,1.1,0.7,2.1,1,3.1c1.1,3.5,2.2,6.9,3.3,10.4c0.1,0.3,0.1,0.6-0.1,0.9
			c-0.7,0.7-1.3,1.6-2,2.2c-3.7,3.4-7.9,5.9-12.5,7.8c-2,0.8-4,1.5-6.1,2.3C14,38.2,13.8,38.2,13.5,38.3z M29.9,15
			c-1.8,1.8-3.8,3.2-6.1,4.1c-1.5,0.6-3.1,1.2-4.7,1.7c-0.4,0.1-0.6,0.3-0.6,0.7c-0.2,1-0.4,2-0.6,3.1c-0.2,1.1-0.4,2.2-0.6,3.4
			c1.2-0.4,2.2-0.7,3.3-1.1C24.4,25.6,28,23.8,31,21c0.5-0.4,0.6-0.8,0.4-1.4C30.9,18.1,30.4,16.6,29.9,15z"/>
		<path class="st1" d="M35.3,31.9c0.4,1,0.7,1.9,1.1,2.9c-5,1.8-10.3,2.3-15.5,2.9C25.9,36.2,30.9,34.8,35.3,31.9z"/>
		<path class="st1" d="M21.5,36.4c4.9-2.2,9.4-4.9,13.1-8.7c0.3,0.8,0.7,1.5,0.9,2.3c0,0.1-0.1,0.3-0.2,0.4
			c-0.9,0.6-1.7,1.2-2.7,1.7c-3.5,1.9-7.2,3.2-10.9,4.3C21.7,36.5,21.7,36.4,21.5,36.4z"/>
		<path class="st1" d="M20.2,38.6c5.2-0.5,10.5-0.9,15.6-2.3c0.1,0.3,0.2,0.6,0.3,1c0.1,0.3,0.2,0.6,0.3,1
			C31,38.4,25.6,38.5,20.2,38.6z"/>
	</g>
</g>
</svg>
