<?xml version="1.0" encoding="utf-8"?>
<!-- Generator: Adobe Illustrator 25.2.1, SVG Export Plug-In . SVG Version: 6.00 Build 0)  -->
<svg version="1.0" id="Layer_1" xmlns="http://www.w3.org/2000/svg" xmlns:xlink="http://www.w3.org/1999/xlink" x="0px" y="0px"
	 width="50px" height="50px" viewBox="0 0 50 50" style="enable-background:new 0 0 50 50;" xml:space="preserve">
<style type="text/css">
	.st0{fill:none;stroke:#0071BC;stroke-miterlimit:10;}
	.st1{fill:#0071BC;}
</style>
<g>
	<circle class="st0" cx="25" cy="25" r="22.1"/>
	<g>
		<path class="st1" d="M30.9,32.3c0-0.1,0-0.2,0-0.3c0-0.7,0-1.4,0-2.1c0-0.2-0.1-0.3-0.3-0.4c-0.6-0.2-1.1-0.3-1.7-0.5
			c-0.1,0.5-0.3,0.9-0.4,1.4c-0.6,2.1-1.2,4.2-1.7,6.2c-0.1,0.5-0.1,1-0.1,1.5c0,0.5-0.1,0.6-0.6,0.6c-0.9,0-1.7,0-2.6,0
			c-0.3,0-0.5-0.1-0.5-0.4c0.1-1.3-0.3-2.6-0.7-3.8c-0.5-1.8-1-3.6-1.5-5.4c0-0.1,0-0.1-0.1-0.2c-0.7,0.2-1.4,0.4-2.1,0.7
			c-0.1,0-0.1,0.1-0.1,0.2c0,0.9,0,1.7,0,2.6c0.3,0,0.5-0.1,0.8-0.1c0.4-0.1,0.7-0.1,1.1-0.2c0.1,0,0.3,0,0.3,0.1
			c0.1,0.1,0,0.2,0,0.3c-0.4,0.7-0.8,1.3-1.2,2c-0.1,0.2-0.1,0.3,0,0.5c0.4,1.1,0.8,2.2,1.3,3.2c0,0.1,0.1,0.2,0.1,0.2
			c0,0.1-0.1,0.3-0.1,0.3c-0.1,0-0.2,0-0.3-0.1c-0.1,0-0.1-0.1-0.1-0.2c-0.4-1.2-0.9-2.3-1.4-3.5c-0.1-0.2-0.1-0.4,0-0.5
			c0.3-0.5,0.7-1.1,1.1-1.7c-0.5,0.1-0.9,0.1-1.3,0.2c-0.1,0-0.2,0-0.2,0c-0.3,0-0.4-0.1-0.4-0.4c0-0.8,0-1.6,0-2.4
			c0-0.5-0.1-1-0.6-1.4c0.6-0.2,1.1-0.4,1.6-0.5c0.5-0.2,1.1-0.3,1.6-0.5c0.1,0,0.3-0.1,0.4-0.1c1-0.4,1.4-1.1,1.1-2.2
			c-0.1-0.3-0.2-0.6-0.5-0.9c-0.9-0.9-1.5-2.1-1.7-3.3c-0.2-1.1-0.4-2.2-0.5-3.4c-0.2-1-0.1-2.1,0.1-3.1c0.4-1.7,1.5-2.8,3.2-3.3
			c1.6-0.5,3.2-0.3,4.7,0.4c0.1,0,0.2,0.1,0.3,0.1c1.3,0.2,2.1,1.1,2.4,2.4c0.2,0.7,0.3,1.4,0.2,2c0,1.1-0.2,2.1-0.3,3.2
			c-0.1,1.2-0.4,2.4-1,3.5c-0.3,0.7-0.8,1.3-1.3,1.8c-0.1,0-0.1,0.1-0.1,0.1c-0.5,0.8-0.1,2.1,0.7,2.5c0.5,0.2,1,0.3,1.5,0.5
			c1.8,0.5,3.5,1.1,5,2.1c0.4,0.3,0.8,0.6,1.1,0.9c0.6,0.6,0.9,1.3,1.1,2.1c0.3,1.7,0.7,3.3,1.1,5c0.1,0.3,0.1,0.5-0.2,0.7
			c-0.2,0.2-0.4,0.2-0.6,0.1c-0.1-0.1-0.3-0.3-0.3-0.4c-0.4-1.8-0.8-3.5-1.2-5.3c-0.1-0.5-0.3-0.9-0.6-1.2c-1-1-2.2-1.5-3.5-2.1
			c0,0.2,0,0.4,0,0.5c0,0.7,0,1.4,0,2.2c0,0.4-0.1,0.5-0.5,0.5c-0.5-0.1-0.9-0.1-1.4-0.2c0.1,0.1,0.1,0.2,0.2,0.3
			c0.3,0.5,0.6,0.9,0.9,1.4c0.1,0.2,0.1,0.3,0.1,0.5c-0.5,1.2-0.9,2.4-1.4,3.6c-0.1,0.2-0.2,0.3-0.4,0.3c-0.2-0.1-0.2-0.3-0.1-0.5
			c0.4-1.1,0.9-2.2,1.3-3.3c0.1-0.2,0.1-0.3,0-0.4c-0.4-0.6-0.8-1.3-1.2-1.9c-0.1-0.1-0.1-0.3-0.1-0.4c0.1-0.1,0.3-0.1,0.4-0.1
			c0.5,0.1,0.9,0.1,1.4,0.2C30.6,32.3,30.7,32.3,30.9,32.3z M24.7,20c-0.4-0.1-0.5,0-0.5,0.2c-0.2,0.6-0.6,1-1.2,1.1
			c-0.6,0.1-1.1-0.1-1.4-0.6c-0.3-0.4-0.4-0.4-0.8-0.3c0.2,1,0.5,2,1.1,2.9c1.3,2,4.4,2,5.6,0c0.4-0.7,0.7-1.4,0.9-2.2
			c0.1-0.2,0.1-0.4,0.1-0.7c-0.2,0-0.4,0-0.6,0c-0.2,0-0.3,0.1-0.4,0.2c-0.3,0.5-0.7,0.8-1.3,0.8C25.5,21.2,25,20.8,24.7,20z
			 M21.4,28.6c0.5,1.2,1.9,1.9,3.5,1.8c1.3-0.1,2.3-0.6,3-1.7c-1.4-0.5-2.1-1.5-2-3.1c-1,0.3-1.9,0.3-2.8,0
			C23.3,27,22.7,28,21.4,28.6z M23.3,18.3c0.3,0.2,0.6,0.4,0.7,0.7c0.2,0.3,0.3,0.4,0.6,0.3c0.1,0,0.2-0.1,0.3-0.2
			c0.3-0.6,0.9-0.9,1.6-0.8c0.6,0.1,1.1,0.4,1.2,1.1c0.1,0.2,0.2,0.2,0.3,0.2c0.7,0,0.8,0,0.4-0.7c-0.4-0.8-0.8-1.6-1.4-2.3
			c-0.4-0.5-0.5-0.5-0.9-0.1C25.2,17.3,24.3,17.9,23.3,18.3z M22.7,18.9c-0.4,0-0.8,0.4-0.8,0.8c0,0.4,0.4,0.8,0.8,0.8
			c0.4,0,0.9-0.4,0.9-0.8C23.6,19.3,23.2,18.9,22.7,18.9z M25.4,19.7c0,0.5,0.4,0.8,0.8,0.8c0.5,0,0.9-0.4,0.9-0.8
			c0-0.4-0.4-0.8-0.8-0.8C25.8,18.9,25.4,19.3,25.4,19.7z M21.6,18.7c-0.4,0-0.7,0-1.1,0c0,0.3,0.1,0.6,0.1,0.9c0.2,0,0.5,0,0.6,0
			C21.3,19.2,21.4,19,21.6,18.7z"/>
		<path class="st1" d="M16.1,30.4c0,0.7,0,1.3,0,2c0,2,0,3.9,0,5.9c0,0.5-0.1,0.6-0.6,0.6c-0.7,0-1.3,0-2,0c-0.4,0-0.6-0.1-0.6-0.6
			c0-2.4,0-4.8,0-7.2c0-0.2,0-0.4,0-0.6c-0.1,0-0.2,0-0.3,0c-0.3,0-0.5-0.3-0.5-0.6c0-0.3,0.2-0.5,0.5-0.5c1.2,0,2.4,0,3.6,0
			c0.3,0,0.5,0.2,0.5,0.5c0,0.3-0.2,0.5-0.5,0.6C16.3,30.3,16.2,30.4,16.1,30.4z M15.2,30.3c-0.4,0-0.8,0-1.2,0
			c-0.2,0-0.3,0.1-0.3,0.3c0,0.6,0,1.2,0,1.8c0,0.5,0.1,0.7,0.6,0.9c0.2,0.1,0.4,0.1,0.6,0.1c0.2,0,0.3-0.1,0.3-0.3
			c0-0.8,0-1.5,0-2.3C15.2,30.7,15.2,30.5,15.2,30.3z"/>
		<path class="st1" d="M33.7,37.4c-1,0-2,0-3.1,0c0,0.3,0,0.5,0,0.8c0,0.1,0,0.2,0,0.3c-0.1,0.1-0.2,0.2-0.3,0.2
			c-0.1,0-0.2-0.1-0.2-0.2c0-0.5,0-1,0-1.4c0-0.2,0.2-0.2,0.4-0.2c0.8,0,1.6,0,2.4,0c0.3,0,0.7,0,1,0c0.3,0,0.4,0.1,0.4,0.4
			c0,0.4,0,0.8,0,1.2c0,0.2,0,0.4-0.3,0.4c-0.2,0-0.3-0.2-0.3-0.3C33.7,38,33.7,37.7,33.7,37.4z"/>
		<path class="st1" d="M14.5,27c0,0.5-0.4,0.9-0.9,0.9c-0.5,0-0.9-0.4-0.9-0.9c0-0.5,0.4-0.9,0.9-0.9C14.1,26.1,14.5,26.5,14.5,27z"
			/>
		<path class="st1" d="M15.4,24.1c0.4,0,0.7,0.3,0.7,0.7c0,0.4-0.3,0.7-0.7,0.7c-0.4,0-0.7-0.3-0.7-0.7C14.7,24.4,15,24.1,15.4,24.1
			z"/>
	</g>
</g>
</svg>
