<?xml version="1.0" encoding="utf-8"?>
<!-- Generator: Adobe Illustrator 25.2.1, SVG Export Plug-In . SVG Version: 6.00 Build 0)  -->
<svg version="1.0" id="Layer_1" xmlns="http://www.w3.org/2000/svg" xmlns:xlink="http://www.w3.org/1999/xlink" x="0px" y="0px"
	 width="98.6px" height="107.2px" viewBox="0 0 98.6 107.2" style="enable-background:new 0 0 98.6 107.2;" xml:space="preserve">
<style type="text/css">
	.st0{fill:#FFFFFF;}
</style>
<g>
	<g>
		<g>
			<g>
				<path class="st0" d="M27.7,15.7c2.3-3.4,5.1-6.2,8.5-8.5c0.9-0.4,1.7-0.9,2.6-1.3c1.9-0.7,3.7-1.3,5.7-1.8
					c0.5,0.1,1-0.1,1.5-0.2c1.4-0.1,2.7-0.2,4.1-0.2c0.4,0,0.9,0.1,1.3,0.1c1.1,0.1,2.2,0.3,3.3,0.4c0.3,0.2,0.7,0.2,1,0.3
					c1,0.3,1.9,0.6,2.9,0.9c0.2,0.2,0.5,0.3,0.8,0.3c0.9,0.4,1.7,0.9,2.6,1.3c0.1,0.2,0.3,0.3,0.5,0.3c0.9,0.6,1.7,1.2,2.6,1.8
					c0.3,0.2,0.5,0.5,0.8,0.7c0.6,0.5,1.2,1.1,1.7,1.6c0.3,0.3,0.5,0.6,0.8,0.9c0.5,0.6,1,1.3,1.6,1.9c0.3,0.4,0.5,0.8,0.8,1.1
					c0.4,0.6,0.7,1.3,1.1,1.9c0.1,0.3,0.3,0.5,0.4,0.8c0.4,0.9,0.7,1.9,1.1,2.8c0.1,0.4,0.2,0.7,0.3,1.1c0.2,1,0.5,2,0.7,3.1
					c0,0.4,0,0.9,0.2,1.3c0,1.2,0.1,2.4,0.1,3.6c0,0.4,0,0.9,0,1.3c-0.3,1.6-0.6,3.1-0.9,4.7c-0.2,0.7-0.4,1.4-0.6,2
					c-1.9,4.5-4.6,8.4-8.6,11.3c-0.7,0.5-1.3,1.1-2,1.3c-1.6,0.6-2,1.8-1.6,3.3c-0.1,0.5-0.1,1,0,1.6c-0.2,1.6-0.2,1.6,2.4,2.1
					c0.3,0.3,0.7,0.3,1,0.4c0.9,0.3,1.7,0.6,2.6,0.9c0.3,0.3,0.7,0.4,1,0.5c0.8,0.4,1.5,0.7,2.3,1.1c0.3,0.3,0.7,0.4,1.1,0.6
					c0.9,0.5,1.7,1,2.6,1.5c0.1,0.1,0.3,0.2,0.4,0.3c0.9,0.6,1.8,1.3,2.7,1.9c0.2,0.1,0.4,0.3,0.5,0.4c0.8,0.6,1.5,1.3,2.3,1.9
					c0.2,0.2,0.3,0.3,0.5,0.5c0.6,0.6,1.2,1.2,1.8,1.8c0.3,0.3,0.5,0.5,0.8,0.8c0.5,0.6,1,1.2,1.6,1.8c0.2,0.3,0.5,0.5,0.7,0.8
					c0.6,0.8,1.2,1.6,1.8,2.4c0.2,0.3,0.3,0.5,0.5,0.8c0.5,0.8,1,1.6,1.5,2.4c0.2,0.3,0.4,0.6,0.6,1c0.4,0.8,0.8,1.6,1.2,2.4
					c0.1,0.2,0.1,0.5,0.3,0.6c0.4,0.9,0.7,1.7,1.1,2.6c0.1,0.4,0.3,0.7,0.4,1.1c0.3,0.9,0.6,1.9,0.9,2.8c0.1,0.3,0.2,0.7,0.3,1
					c0.2,1,0.5,2.1,0.7,3.1c0,0.4,0,0.7,0.2,1c0.1,1.1,0.3,2.3,0.4,3.4c0,0.4,0.1,0.8,0.1,1.3c0,1.2,0.1,2.4,0.1,3.6
					c0,0.5,0,1,0,1.6c-0.1,0.1-0.3,0.2-0.4,0.3c-0.4,0-0.9,0-1.3,0c-1.3,0-2.6,0-3.9,0c-0.4,0-0.9,0-1.3,0c-1.3,0-2.6,0-3.9,0
					c-0.4,0-0.9,0-1.3,0c-1.3,0-2.6,0-3.9,0c-0.4,0-0.9,0-1.3,0c-1.3,0-2.6,0-3.9,0c-0.4,0-0.9,0-1.3,0c-1.3,0-2.6,0-3.9,0
					c-0.4,0-0.9,0-1.3,0c-1.3,0-2.6,0-3.9,0c-0.4,0-0.9,0-1.3,0c-1.3,0-2.6,0-3.9,0c-0.4,0-0.9,0-1.3,0c-1.3,0-2.6,0-3.9,0
					c-0.4,0-0.9,0-1.3,0c-1.3,0-2.6,0-3.9,0c-0.4,0-0.9,0-1.3,0c-1.3,0-2.6,0-3.9,0c-0.4,0-0.9,0-1.3,0c-1.3,0-2.6,0-3.9,0
					c-0.4,0-0.9,0-1.3,0c-1.3,0-2.6,0-3.9,0c-0.4,0-0.9,0-1.3,0c-1.3,0-2.6,0-3.9,0c-0.4,0-0.9,0-1.3,0c-1.3,0-2.6,0-3.9,0
					c-0.4,0-0.9,0-1.3,0c-1.3,0-2.6,0-3.9,0c-0.4,0-0.9,0-1.3,0c-1.3,0-2.6,0-3.9,0c-0.4,0-0.9,0-1.3,0c-1.3,0-2.6,0-3.9,0
					c-0.4,0-0.9,0-1.3,0c-0.9-0.2-1.9,0.3-2.7-0.3c0-0.5,0-1,0-1.5c0-1.3,0.1-2.6,0.1-3.9c0.1-0.5,0.1-1,0.2-1.6
					C3.8,94.9,4,93.4,4.3,92c0.1-0.6,0.3-1.2,0.4-1.8c0.6-1.9,1.2-3.8,1.8-5.7c0.4-0.6,0.7-1.3,0.8-2c1.7-3.4,3.7-6.7,6-9.8
					c2.2-2.6,4.5-5,7.1-7.2c3.1-2.3,6.3-4.3,9.8-6.1c0.8-0.3,1.5-0.7,2.3-1c0.8-0.3,1.5-0.5,2.3-0.8c1-0.4,2.6-0.2,3-1.2
					c0.4-0.9,0.1-2.3,0.1-3.4c0-0.5,0.3-1.1-0.2-1.6c-0.7-0.4-1.5-0.9-2.2-1.3c-0.3-0.2-0.5-0.3-0.8-0.5c-0.7-0.6-1.5-1.2-2.2-1.7
					c-0.2-0.2-0.4-0.4-0.6-0.6c-0.6-0.7-1.3-1.3-1.9-2c-0.2-0.3-0.5-0.6-0.7-0.9c-0.5-0.6-0.9-1.3-1.4-1.9c-0.1-0.3-0.2-0.6-0.5-0.8
					c-0.5-1-1-2-1.5-3c-0.1-0.2-0.2-0.4-0.2-0.6c-0.3-0.9-0.6-1.9-0.9-2.8c-0.1-0.3-0.2-0.7-0.3-1c-0.2-1.1-0.3-2.2-0.5-3.3
					c0-0.4,0-0.9,0-1.3c0.1-1.3,0.1-2.6,0.2-3.9c0.1-0.6,0.2-1.2,0.3-1.8c0.5-1.9,1-3.7,1.8-5.4C26.7,17.6,27.2,16.6,27.7,15.7z
					 M73.8,87.5c-1.1-1.2-2.5-1.3-3.5-0.2c-1,1.1-0.8,2.3,0.4,3.4c1.1,0.9,2.1,0.6,3-0.2C74.5,89.7,74.5,88.6,73.8,87.5z M49.3,99.4
					c4.8,0,9.6,0,14.4,0c8.7,0,17.4,0,26.1,0c0.9,0,1.3-0.2,1.2-1.2c-0.1-1.3-0.3-2.5-0.5-3.8C88.8,84.3,83.9,76,76.2,69.2
					c-0.7-0.6-0.9-0.5-1.1,0.4c-0.9,3.8-1.2,7.7-1.3,11.6c0,1,0.2,1.6,1.2,2c2.6,1.2,4,4.3,3.3,6.9c-0.7,3-3.2,5.1-6.2,5.2
					c-2.7,0.1-5.5-2-6.2-4.7c-0.8-2.8,0.4-5.9,3-7.3c0.8-0.4,1-0.9,1-1.8c-0.1-5,0.2-10,1.9-14.8c0.2-0.7-0.2-0.8-0.6-1.1
					c-2.9-1.8-6-3.2-9.3-4.3c-0.7-0.3-1.1-0.2-1.6,0.6c-2.9,4.6-8.4,6.8-13.7,5.5c-3.4-0.8-6.1-2.7-8-5.7c-0.3-0.5-0.6-0.9-1.3-0.6
					c-3.2,1-6.2,2.3-9.1,4c-0.5,0.3-0.6,0.5-0.4,1c0.5,1.2,0.9,2.4,1.1,3.7c0.1,0.7,0.5,1.1,1.2,1.4c1.9,0.7,3.1,2.1,3.3,4.1
					c0.2,2.8,0.9,5.5,1.5,8.2c0.7,2.8,1.8,5.5,1.6,8.5c-0.2,3.8-2.6,6.2-6.2,6c-1.3-0.1-2-0.9-2.1-2c0-1.2,0.7-1.9,2-2.1
					c2-0.2,2-0.2,2.3-2.2c0.1-0.8,0-1.6-0.2-2.4c-1.2-4.3-2.5-8.6-2.9-13.1c-0.1-1.4-1.2-1.4-2.3-1.4c-1,0-1.6,0.4-1.8,1.6
					c-0.3,2.5-0.9,5-1.4,7.5c-0.6,2.5-1.8,4.9-1.6,7.6c0.1,2,0.2,2.2,2.2,2.4c1.2,0.1,1.9,0.9,2,2c0,1.1-0.7,1.9-1.8,2.1
					c-2.7,0.4-5.1-1-5.9-3.6c-0.7-2-0.7-4.1-0.1-6.2c1.1-4.1,2.5-8.2,2.8-12.5c0.1-1.8,0.9-3.3,2.7-4.1c1-0.4,1-1,0.7-1.8
					c-0.1-0.3-0.2-0.6-0.3-1c-0.2-0.9-0.5-0.8-1.1-0.3c-3.1,2.4-5.7,5.2-8,8.3C10.9,83,8.3,90.1,7.6,97.8c-0.1,1.2,0.1,1.7,1.5,1.7
					C22.5,99.4,35.9,99.4,49.3,99.4z M70.4,28.9c0-0.9,0-2-0.2-3.1c-0.1-1-0.5-1-1.3-1c-7.6,0.7-15-0.1-22-3.4
					c-0.7-0.3-0.9-0.1-1.3,0.4c-0.9,1.4-2,2.7-3.3,3.8c-3.7,3.1-8,4.9-12.6,5.9c-1,0.2-1.4,0.6-1.2,1.7C31,44.7,41.7,51.6,52.4,49.9
					C63.6,48.1,70.5,38.8,70.4,28.9z M64.5,21.1c1,0.1,2.1-0.2,3.1-0.2c1.4,0,1.1-0.6,0.7-1.4c-1.2-2.4-2.9-4.6-4.9-6.4
					c-6.3-5.4-13.3-6.7-21.2-4.2c-1,0.3-1.1,0.8-0.8,1.7c1,2.8,2.9,4.7,5.4,6.1C52.3,20.1,58.3,20.8,64.5,21.1z M56.7,53.2
					c-2.4,0.5-6.4,1.9-14.6,0c0,1.8,0,3.6,0,5.4c0,0.8,0.2,1.3,0.7,1.9c3.3,4.2,9.9,4.3,13.4,0.2c0.3-0.3,0.5-0.7,0.5-1.1
					C56.7,57.5,56.7,55.3,56.7,53.2z M28.2,26.8c0,0.8,0.2,1,1.1,0.7c2.7-0.7,5.4-1.7,7.8-3.1c2-1.2,3.9-2.7,5.1-4.8
					c0.3-0.5,0.5-0.8-0.1-1.3c-2-1.6-3.5-3.7-4.4-6.1c-0.3-0.8-0.6-0.7-1.2-0.3c-1.3,1-2.5,2.1-3.5,3.4
					C30.2,18.6,28.7,22.5,28.2,26.8z"/>
			</g>
		</g>
	</g>
</g>
</svg>
