<?xml version="1.0" encoding="utf-8"?>
<!-- Generator: Adobe Illustrator 25.2.1, SVG Export Plug-In . SVG Version: 6.00 Build 0)  -->
<svg version="1.0" id="Layer_1" xmlns="http://www.w3.org/2000/svg" xmlns:xlink="http://www.w3.org/1999/xlink" x="0px" y="0px"
	 width="122.1px" height="107.2px" viewBox="0 0 122.1 107.2" style="enable-background:new 0 0 122.1 107.2;" xml:space="preserve"
	>
<style type="text/css">
	.st0{fill:#FFFFFF;}
</style>
<g>
	<g>
		<path class="st0" d="M62.8,28.6c0-0.7,0-1.5,0-2.2c0-7.3,0-14.6,0-21.8c0-0.8,0.2-1,1-0.9c1.7,0.2,3.4,0.3,5.1,0.6
			c10.3,1.6,19.3,6,26.7,13.3c12.4,12.2,17.5,27.1,14.7,44.2c-2.5,15.8-11.2,27.6-25,35.6c-0.9,0.5-1.2,0.5-1.7-0.5
			C76.8,82.6,70,68.3,63.2,54.1c-0.3-0.6-0.4-1.2-0.4-1.8C62.8,44.4,62.8,36.5,62.8,28.6C62.8,28.6,62.8,28.6,62.8,28.6z M85,91.1
			c-0.8,0.5-0.2,0.9,0,1.3c0.5,1.2,0.5,1.2,1.6,0.5c3.7-2.4,6.9-5.2,9.8-8.5c0.2-0.2,0.3-0.4,0.5-0.7c0.1,0,0.2-0.1,0.1-0.2
			c0,0-0.2,0-0.2,0.1C92.8,86.1,88.9,88.6,85,91.1z M77.2,44.1c7.6-4.9,15.1-9.9,22.7-14.8c0.8-0.5,0.8-0.9,0.3-1.6
			c-0.8-1-1.4-2-2.1-3c-0.4-0.6-0.7-0.6-1.2-0.2c-6.7,4.4-13.4,8.7-20,13c-3.4,2.2-6.7,4.4-10.1,6.5c-0.6,0.4-0.9,0.9-0.8,1.6
			c0.1,1.8,0,3.7,0,5.7C69.8,48.9,73.5,46.5,77.2,44.1z M101.5,32c-9.4,6.1-18.8,12.2-28.2,18.4c-2,1.3-3.9,2.6-5.9,3.8
			c-0.5,0.3-0.6,0.6-0.3,1.1c0.6,1.1,1.1,2.2,1.6,3.3c0.3,0.7,0.6,0.7,1.2,0.3c7.1-4.7,14.3-9.3,21.4-13.9c4.2-2.7,8.3-5.4,12.5-8.1
			c0.6-0.4,0.8-0.7,0.4-1.4c-0.6-1.1-1-2.2-1.6-3.3c-0.1-0.2-0.2-0.5-0.5-0.5C102,31.7,101.8,31.8,101.5,32z M97.6,44.6
			c-8.7,5.7-17.5,11.4-26.2,17c-0.7,0.5-0.9,0.8-0.4,1.5c0.5,0.8,0.9,1.7,1.3,2.6c0.3,0.7,0.5,0.9,1.3,0.4c6.1-4,12.3-8,18.5-11.9
			c4.8-3.1,9.5-6.2,14.3-9.2c0.6-0.4,0.8-0.7,0.6-1.4c-0.4-1.4-0.7-2.8-1.2-4.3C102.9,41.1,100.3,42.8,97.6,44.6z M107.7,48.8
			c0-0.8-0.3-0.8-0.9-0.4c-2.4,1.6-4.8,3.1-7.3,4.7C91.3,58.4,83.1,63.7,74.8,69c-0.7,0.4-0.8,0.8-0.4,1.4c0.6,1,1.1,2.1,1.5,3.2
			c0.3,0.7,0.6,0.6,1.1,0.3c7-4.6,14-9.2,21-13.8c2.8-1.8,5.5-3.7,8.3-5.4c1.2-0.7,1.9-1.5,1.5-2.5
			C107.8,50.8,107.7,49.8,107.7,48.8z M75.3,34.9c6.5-4.2,12.9-8.4,19.4-12.6c0.7-0.5,0.7-0.7,0.1-1.3c-1-0.9-2-1.9-3-2.9
			c-0.4-0.4-0.7-0.5-1.2-0.1c-6.1,4-12.3,8-18.4,12c-1.8,1.2-3.6,2.3-5.4,3.5c-0.5,0.3-0.7,0.7-0.7,1.3c0,1.9,0,3.9,0,6.1
			C69.2,38.8,72.2,36.9,75.3,34.9z M105.5,59c-9,5.9-17.9,11.8-26.9,17.6c-0.7,0.5-0.9,0.8-0.4,1.5c0.5,0.9,0.9,1.8,1.3,2.7
			c0.3,0.7,0.5,0.9,1.2,0.4c5.3-3.5,10.7-7,16.1-10.4c3-2,6.1-3.9,9.1-5.9c0.3-0.2,0.7-0.3,0.8-0.8c0.5-2.1,0.9-4.3,1-6.7
			C106.9,58.1,106.2,58.6,105.5,59z M88.5,15.6c-1.4-1.1-2.8-1.9-4.2-2.8c-0.3-0.2-0.6,0-0.8,0.1c-5.7,3.7-11.4,7.4-17.1,11.1
			c-0.3,0.2-0.5,0.5-0.5,0.9c0,1.7,0,3.4,0,5.3C73.6,25.3,81,20.5,88.5,15.6z M104.2,69.8c-7.4,4.8-14.8,9.5-22.2,14.3
			c-0.6,0.4-0.8,0.7-0.4,1.4c0.5,0.8,0.8,1.6,1.2,2.4c0.2,0.5,0.4,0.6,0.9,0.3c5.9-3.9,11.9-7.7,17.9-11.6c0.4-0.3,0.6-0.6,0.9-1
			c1-2,1.9-4,2.7-6.1C104.7,69.3,104.5,69.7,104.2,69.8z M80.7,11c-2.1-1-4.2-1.8-6.3-2.4c-0.4-0.1-0.7,0-1.1,0.2
			c-2.2,1.5-4.5,2.9-6.7,4.4c-0.4,0.2-0.6,0.5-0.6,1c0,2,0,4.1,0,6.4C70.9,17.3,75.8,14.2,80.7,11z M69.6,7.5
			c-1.2-0.2-2.2-0.3-3.1-0.4c-0.5-0.1-0.6,0.1-0.6,0.6c0,0.7,0,1.4,0,2.3C67.2,9,68.3,8.3,69.6,7.5z"/>
		<path class="st0" d="M59.7,50.4c0-1.8,0-3.3,0-4.8c0-13.7,0-27.3,0-41c0-0.9-0.2-1.1-1.1-1.1c-14.6,1-26.6,7-36.1,18.1
			c-0.6,0.7-0.7,1,0.2,1.6c12,8.8,24,17.6,36,26.4C59,50,59.2,50.1,59.7,50.4z"/>
		<path class="st0" d="M11.3,48.2c0-0.6,0.2-0.8,1-0.7c6,1,12,1.9,18,2.8c9.7,1.5,19.3,3.1,29,4.6c0.6,0.1,0.9,0.3,1.2,0.9
			C67.2,69.9,74,84.1,80.8,98.3c0.4,0.9,0.2,1.1-0.6,1.5c-11.3,4.5-22.7,5.1-34.3,1.4c-20.9-6.7-34.8-25.8-34.8-48
			C11,51.7,11.2,49.9,11.3,48.2z M76.1,97.9c0.8-0.3,0.8-0.5,0.5-1.2c-6.1-12.7-12.1-25.3-18.2-38c-0.3-0.7-0.7-1-1.4-1.1
			c-9.2-1.4-18.4-2.9-27.6-4.3c-4.6-0.7-9.2-1.5-13.8-2.2c-1.3-0.2-1.3-0.2-1.3,1.1c-0.4,21.4,13,40,33.1,46.1c4.5,1.4,9.1,2,14.6,2
			C66.3,100.4,71.3,99.6,76.1,97.9z"/>
		<path class="st0" d="M54.8,50.8c-3-2.2-5.8-4.3-8.6-6.3c-8.5-6.2-17-12.5-25.5-18.7c-0.6-0.5-0.9-0.5-1.3,0.2
			c-3.5,5.3-5.9,11.1-7.2,17.3c-0.1,0.7,0,0.9,0.7,1.1c7.8,1.2,15.7,2.5,23.5,3.7c5.8,0.9,11.7,1.8,17.5,2.7
			C54,50.9,54.3,50.8,54.8,50.8z"/>
		<path class="st0" d="M96.8,83.7c0.1,0,0.2-0.1,0.1-0.2c0,0-0.2,0-0.2,0.1C96.7,83.6,96.8,83.7,96.8,83.7z"/>
	</g>
</g>
</svg>
