<?xml version="1.0" encoding="utf-8"?>
<!-- Generator: Adobe Illustrator 25.2.1, SVG Export Plug-In . SVG Version: 6.00 Build 0)  -->
<svg version="1.1" id="Layer_1" xmlns="http://www.w3.org/2000/svg" xmlns:xlink="http://www.w3.org/1999/xlink" x="0px" y="0px"
	 viewBox="0 0 427.3 38.3" style="enable-background:new 0 0 427.3 38.3;" xml:space="preserve">
<style type="text/css">
	.st0{fill:#F96731;}
	.st1{fill:#2B9AF3;}
	.st2{fill:#1C96E8;}
</style>
<g>
	<g>
		<path d="M0,34.7V1.4h4.1v19l9.7-9.8h5.3l-9.2,9L20,34.7h-5L7,22.4l-2.9,2.8v9.6L0,34.7L0,34.7z"/>
		<path d="M49.2,34.7V10.6h3.7V14c1.8-2.7,4.3-4,7.7-4c1.5,0,2.8,0.3,4,0.8c1.2,0.5,2.1,1.2,2.7,2.1c0.6,0.8,1,1.9,1.3,3
			c0.2,0.8,0.2,2.1,0.2,4v14.9h-4.1V20.1c0-1.7-0.2-2.9-0.5-3.7c-0.3-0.8-0.9-1.5-1.7-2s-1.8-0.7-2.9-0.7c-1.7,0-3.2,0.6-4.5,1.7
			s-1.9,3.2-1.9,6.3v13.2h-4V34.7z"/>
		<path d="M91.6,27l4.2,0.5c-0.7,2.5-1.9,4.4-3.7,5.8c-1.8,1.4-4.1,2-6.9,2c-3.5,0-6.3-1.1-8.4-3.3s-3.1-5.2-3.1-9.2
			c0-4.1,1-7.2,3.1-9.5C79,11.2,81.7,10,85,10c3.2,0,5.9,1.1,7.9,3.3s3.1,5.3,3.1,9.3c0,0.2,0,0.6,0,1.1H78c0.2,2.7,0.9,4.7,2.3,6.1
			c1.3,1.4,3,2.1,5,2.1c1.5,0,2.8-0.4,3.8-1.2C90.2,30,91,28.7,91.6,27z M78.2,20.3h13.5c-0.2-2-0.7-3.6-1.5-4.6
			c-1.3-1.6-3-2.4-5.1-2.4c-1.9,0-3.5,0.6-4.7,1.9C79,16.6,78.3,18.2,78.2,20.3z"/>
		<path d="M116.8,25.9l4,0.5c-0.4,2.8-1.6,4.9-3.4,6.5c-1.8,1.6-4,2.4-6.7,2.4c-3.3,0-6-1.1-8-3.2c-2-2.2-3-5.3-3-9.3
			c0-2.6,0.4-4.9,1.3-6.8c0.9-2,2.2-3.4,3.9-4.4c1.8-1,3.7-1.5,5.8-1.5c2.6,0,4.8,0.7,6.4,2c1.7,1.3,2.7,3.2,3.2,5.7l-4,0.6
			c-0.4-1.6-1.1-2.8-2-3.7c-1-0.8-2.1-1.2-3.5-1.2c-2.1,0-3.7,0.7-5,2.2s-1.9,3.8-1.9,7s0.6,5.6,1.9,7.1c1.2,1.5,2.9,2.2,4.9,2.2
			c1.6,0,2.9-0.5,4-1.5C115.8,29.5,116.5,27.9,116.8,25.9z"/>
		<path d="M133.2,31.1l0.6,3.6c-1.2,0.2-2.2,0.4-3.1,0.4c-1.5,0-2.6-0.2-3.5-0.7c-0.8-0.5-1.4-1.1-1.7-1.9c-0.3-0.8-0.5-2.4-0.5-4.8
			V13.8h-3v-3.2h3v-6l4.1-2.5v8.4h4.1v3.2h-4.1v14.1c0,1.2,0.1,1.9,0.2,2.3c0.1,0.3,0.4,0.6,0.7,0.8c0.3,0.2,0.8,0.3,1.4,0.3
			C131.9,31.2,132.5,31.2,133.2,31.1z"/>
		<path d="M153,31.8c-1.5,1.3-3,2.2-4.4,2.7s-2.9,0.8-4.5,0.8c-2.7,0-4.7-0.6-6.1-1.9c-1.4-1.3-2.1-3-2.1-5c0-1.2,0.3-2.3,0.8-3.2
			c0.5-1,1.2-1.8,2.1-2.4c0.9-0.6,1.9-1,2.9-1.3c0.8-0.2,2-0.4,3.6-0.6c3.3-0.4,5.7-0.9,7.3-1.4c0-0.6,0-0.9,0-1.1
			c0-1.7-0.4-2.8-1.2-3.5c-1-0.9-2.6-1.4-4.7-1.4c-1.9,0-3.3,0.3-4.3,1c-0.9,0.7-1.6,1.9-2,3.6l-4-0.5c0.4-1.7,1-3.1,1.8-4.2
			s2-1.9,3.6-2.4c1.6-0.6,3.4-0.9,5.5-0.9s3.7,0.2,5,0.7s2.2,1.1,2.8,1.8s1,1.7,1.3,2.8c0.1,0.7,0.2,2,0.2,3.8v5.5
			c0,3.8,0.1,6.2,0.3,7.2s0.5,2,1,2.9h-4.3C153.4,33.9,153.1,32.9,153,31.8z M152.7,22.6c-1.5,0.6-3.7,1.1-6.7,1.5
			c-1.7,0.2-2.9,0.5-3.6,0.8c-0.7,0.3-1.2,0.7-1.6,1.3c-0.4,0.6-0.6,1.2-0.6,1.9c0,1.1,0.4,2,1.2,2.7s2,1.1,3.6,1.1s3-0.3,4.2-1
			s2.1-1.6,2.7-2.8c0.4-0.9,0.7-2.3,0.7-4.1v-1.4H152.7z"/>
		<path d="M163.1,34.7V10.6h3.7v3.7c0.9-1.7,1.8-2.8,2.6-3.4c0.8-0.5,1.7-0.8,2.6-0.8c1.4,0,2.8,0.4,4.2,1.3l-1.4,3.8
			c-1-0.6-2-0.9-3-0.9c-0.9,0-1.7,0.3-2.4,0.8s-1.2,1.3-1.5,2.2c-0.5,1.5-0.7,3-0.7,4.8v12.6C167.2,34.7,163.1,34.7,163.1,34.7z"/>
		<g>
			<circle class="st0" cx="33.1" cy="32.4" r="2.3"/>
			<circle class="st0" cx="33.1" cy="12.3" r="2.3"/>
			<path class="st1" d="M30.8,29.9c-3.2-1-5.6-4-5.6-7.5s2.4-6.6,5.6-7.5c-0.7-0.6-1.1-1.5-1.1-2.5c0-0.6,0.2-1.2,0.5-1.7l0,0
				C24.9,12,21,16.8,21,22.5s3.9,10.5,9.2,11.8l0,0c-0.3-0.5-0.5-1.1-0.5-1.7C29.7,31.4,30.1,30.5,30.8,29.9z"/>
			<path class="st1" d="M36,10.6c0.3,0.5,0.5,1.1,0.5,1.8c0,1-0.4,1.9-1.1,2.5c3.2,1,5.6,4,5.6,7.5s-2.4,6.6-5.6,7.5
				c0.7,0.6,1.1,1.5,1.1,2.5c0,0.6-0.2,1.2-0.5,1.8c5.3-1.3,9.2-6.1,9.2-11.8S41.3,11.9,36,10.6z"/>
		</g>
	</g>
</g>
<g>
	<path d="M185.1,6.3c0,2.5-1.9,4.4-4.5,4.4c-2.5,0-4.5-1.9-4.5-4.4c0-2.4,2-4.3,4.5-4.3C183.1,2,185.1,3.9,185.1,6.3z M177.2,6.3
		c0,1.9,1.4,3.5,3.4,3.5c1.9,0,3.3-1.5,3.3-3.4s-1.4-3.5-3.3-3.5C178.7,2.9,177.2,4.4,177.2,6.3z M179.9,8.6h-1V4.3
		c0.4-0.1,1-0.1,1.7-0.1c0.8,0,1.2,0.1,1.5,0.3c0.2,0.2,0.4,0.5,0.4,1s-0.4,0.8-0.9,1v0.1c0.4,0.2,0.7,0.5,0.8,1.1
		c0.1,0.7,0.2,0.9,0.3,1.1h-1.1c-0.1-0.2-0.2-0.6-0.3-1.1S181,7,180.4,7h-0.5V8.6z M179.9,6.2h0.5c0.6,0,1-0.2,1-0.6
		s-0.3-0.7-0.9-0.7c-0.3,0-0.5,0-0.6,0.1V6.2z"/>
</g>
<g>
	<g>
		<path class="st2" d="M206.7,18c0,1.2-0.2,2.2-0.6,3.2s-0.9,1.7-1.7,2.4c-0.7,0.7-1.6,1.2-2.6,1.5c-1,0.4-2.3,0.5-3.7,0.5h-2.7v8.4
			c0,0.1,0,0.2-0.1,0.3c-0.1,0.1-0.1,0.1-0.3,0.2c-0.1,0-0.3,0.1-0.5,0.1c-0.2,0-0.5,0-0.8,0c-0.3,0-0.6,0-0.8,0s-0.4-0.1-0.5-0.1
			c-0.1,0-0.2-0.1-0.3-0.2c0-0.1-0.1-0.2-0.1-0.3V12.5c0-0.5,0.1-0.8,0.4-1c0.3-0.2,0.5-0.3,0.8-0.3h5c0.5,0,1,0,1.5,0.1
			c0.5,0,1,0.1,1.6,0.3c0.6,0.1,1.3,0.4,1.9,0.8s1.2,0.8,1.7,1.4c0.5,0.6,0.8,1.2,1.1,1.9C206.6,16.3,206.7,17.1,206.7,18z
			 M203.4,18.3c0-1-0.2-1.7-0.5-2.4c-0.4-0.6-0.8-1.1-1.3-1.4c-0.5-0.3-1.1-0.5-1.6-0.6c-0.6-0.1-1.1-0.1-1.6-0.1h-2.9v9.4h2.8
			c0.9,0,1.7-0.1,2.3-0.4c0.6-0.2,1.1-0.6,1.6-1c0.4-0.4,0.7-0.9,1-1.5C203.3,19.6,203.4,19,203.4,18.3z"/>
		<path class="st2" d="M226.3,33.5c0.1,0.3,0.1,0.5,0.2,0.6c0,0.2,0,0.3-0.1,0.4s-0.3,0.1-0.5,0.2c-0.2,0-0.5,0-0.9,0
			c-0.4,0-0.7,0-0.9,0c-0.2,0-0.4,0-0.5-0.1c-0.1,0-0.2-0.1-0.3-0.2c-0.1-0.1-0.1-0.2-0.2-0.3l-2-5.7h-9.7l-1.9,5.6
			c0,0.1-0.1,0.2-0.1,0.3c-0.1,0.1-0.1,0.1-0.3,0.2c-0.1,0.1-0.3,0.1-0.5,0.1c-0.2,0-0.5,0-0.8,0c-0.3,0-0.6,0-0.9,0
			c-0.2,0-0.4-0.1-0.5-0.2c-0.1-0.1-0.1-0.2-0.1-0.4c0-0.2,0.1-0.4,0.2-0.6l7.9-21.8c0-0.1,0.1-0.2,0.2-0.3c0.1-0.1,0.2-0.2,0.3-0.2
			c0.2,0,0.3-0.1,0.6-0.1c0.2,0,0.5,0,0.9,0c0.4,0,0.7,0,1,0c0.3,0,0.5,0.1,0.6,0.1c0.2,0,0.3,0.1,0.4,0.2c0.1,0.1,0.2,0.2,0.2,0.3
			L226.3,33.5z M216.2,14.3L216.2,14.3l-4.1,11.7h8.1L216.2,14.3z"/>
		<path class="st2" d="M233.3,34.1c0,0.1,0,0.2-0.1,0.3c0,0.1-0.1,0.1-0.3,0.2c-0.1,0-0.3,0.1-0.5,0.1c-0.2,0-0.5,0-0.8,0
			c-0.3,0-0.5,0-0.7,0c-0.2,0-0.4-0.1-0.5-0.1c-0.1,0-0.2-0.1-0.3-0.2c0-0.1-0.1-0.2-0.1-0.3V11.6c0-0.1,0-0.2,0.1-0.3
			s0.1-0.1,0.3-0.2c0.1,0,0.3-0.1,0.5-0.1c0.2,0,0.4,0,0.7,0c0.3,0,0.6,0,0.8,0s0.4,0.1,0.5,0.1c0.1,0,0.2,0.1,0.3,0.2
			c0,0.1,0.1,0.2,0.1,0.3L233.3,34.1L233.3,34.1z"/>
		<path class="st2" d="M257.2,33.3c0,0.2,0,0.4-0.1,0.6s-0.2,0.3-0.3,0.4c-0.1,0.1-0.3,0.2-0.4,0.2c-0.2,0-0.3,0.1-0.5,0.1h-1
			c-0.3,0-0.6,0-0.9-0.1c-0.2-0.1-0.5-0.2-0.7-0.4c-0.2-0.2-0.4-0.4-0.7-0.7c-0.2-0.3-0.5-0.7-0.7-1.2L244.8,19
			c-0.4-0.7-0.7-1.4-1.1-2.2c-0.4-0.8-0.7-1.5-1.1-2.2h0c0,0.9,0,1.8,0.1,2.7c0,0.9,0,1.8,0,2.7v14.1c0,0.1,0,0.2-0.1,0.2
			c-0.1,0.1-0.1,0.1-0.3,0.2c-0.1,0-0.3,0.1-0.5,0.1c-0.2,0-0.4,0-0.8,0s-0.6,0-0.8,0c-0.2,0-0.4-0.1-0.5-0.1
			c-0.1,0-0.2-0.1-0.2-0.2c-0.1-0.1-0.1-0.2-0.1-0.2V12.5c0-0.5,0.1-0.8,0.4-1c0.3-0.2,0.6-0.3,0.9-0.3h1.5c0.4,0,0.7,0,0.9,0.1
			c0.2,0.1,0.5,0.2,0.7,0.3c0.2,0.1,0.4,0.3,0.6,0.6c0.2,0.2,0.4,0.6,0.6,0.9l5.5,10.3c0.3,0.6,0.7,1.2,1,1.8
			c0.3,0.6,0.6,1.2,0.9,1.8s0.6,1.1,0.9,1.7c0.3,0.6,0.6,1.1,0.8,1.7h0c0-1,0-1.9,0-3c0-1,0-2,0-3V11.7c0-0.1,0-0.2,0.1-0.2
			c0.1-0.1,0.1-0.1,0.3-0.2c0.1-0.1,0.3-0.1,0.5-0.1c0.2,0,0.5,0,0.8,0c0.3,0,0.5,0,0.7,0c0.2,0,0.4,0.1,0.5,0.1
			c0.1,0.1,0.2,0.1,0.2,0.2c0.1,0.1,0.1,0.2,0.1,0.2L257.2,33.3L257.2,33.3z"/>
		<path class="st2" d="M297.3,34.1c0,0.1,0,0.2-0.1,0.3c-0.1,0.1-0.1,0.1-0.3,0.2c-0.1,0-0.3,0.1-0.5,0.1c-0.2,0-0.4,0-0.8,0
			c-0.3,0-0.5,0-0.7,0c-0.2,0-0.4-0.1-0.5-0.1c-0.1,0-0.2-0.1-0.3-0.2c-0.1-0.1-0.1-0.2-0.1-0.3V13.7h0l-8.3,20.5
			c0,0.1-0.1,0.2-0.2,0.2c-0.1,0.1-0.2,0.1-0.3,0.2s-0.3,0.1-0.5,0.1c-0.2,0-0.4,0-0.6,0c-0.3,0-0.5,0-0.7,0c-0.2,0-0.3-0.1-0.5-0.1
			c-0.1,0-0.2-0.1-0.3-0.2c-0.1-0.1-0.1-0.1-0.1-0.2l-7.9-20.5h0v20.4c0,0.1,0,0.2-0.1,0.3c-0.1,0.1-0.1,0.1-0.3,0.2
			c-0.1,0-0.3,0.1-0.5,0.1c-0.2,0-0.5,0-0.8,0c-0.3,0-0.5,0-0.7,0c-0.2,0-0.4-0.1-0.5-0.1c-0.1,0-0.2-0.1-0.2-0.2
			c0-0.1-0.1-0.2-0.1-0.3V12.6c0-0.5,0.1-0.9,0.4-1.1c0.3-0.2,0.6-0.3,0.9-0.3h1.9c0.4,0,0.7,0,1,0.1c0.3,0.1,0.6,0.2,0.8,0.3
			c0.2,0.2,0.4,0.4,0.6,0.6c0.1,0.2,0.3,0.5,0.4,0.8l6.7,17h0.1l7-16.9c0.1-0.4,0.3-0.7,0.4-0.9c0.2-0.3,0.3-0.5,0.5-0.6
			c0.2-0.2,0.4-0.3,0.6-0.3s0.5-0.1,0.8-0.1h2c0.2,0,0.4,0,0.5,0.1c0.2,0.1,0.3,0.1,0.4,0.3c0.1,0.1,0.2,0.3,0.3,0.4
			c0.1,0.2,0.1,0.4,0.1,0.6L297.3,34.1L297.3,34.1z"/>
		<path class="st2" d="M316.5,33.3c0,0.2,0,0.4,0,0.6c0,0.2-0.1,0.3-0.1,0.4c-0.1,0.1-0.1,0.2-0.2,0.2c-0.1,0-0.2,0.1-0.3,0.1h-11.2
			c-0.3,0-0.5-0.1-0.8-0.3s-0.4-0.5-0.4-1V12.4c0-0.5,0.1-0.8,0.4-1c0.2-0.2,0.5-0.3,0.8-0.3h11.1c0.1,0,0.2,0,0.3,0.1
			c0.1,0,0.1,0.1,0.2,0.2c0,0.1,0.1,0.2,0.1,0.4c0,0.2,0,0.4,0,0.6c0,0.2,0,0.4,0,0.6c0,0.2-0.1,0.3-0.1,0.4c0,0.1-0.1,0.2-0.2,0.2
			c-0.1,0-0.2,0.1-0.3,0.1h-9.2v7.3h7.9c0.1,0,0.2,0,0.3,0.1c0.1,0.1,0.1,0.1,0.2,0.2c0.1,0.1,0.1,0.2,0.1,0.4c0,0.2,0,0.4,0,0.6
			c0,0.2,0,0.4,0,0.6c0,0.2-0.1,0.3-0.1,0.4c-0.1,0.1-0.1,0.2-0.2,0.2c-0.1,0-0.2,0.1-0.3,0.1h-7.9V32h9.3c0.1,0,0.2,0,0.3,0.1
			c0.1,0,0.1,0.1,0.2,0.2c0.1,0.1,0.1,0.2,0.1,0.4C316.5,32.8,316.5,33.1,316.5,33.3z"/>
		<path class="st2" d="M339.6,22.5c0,2-0.3,3.8-0.8,5.3c-0.5,1.5-1.3,2.8-2.3,3.8c-1,1-2.2,1.7-3.7,2.2c-1.4,0.5-3.2,0.7-5.2,0.7h-5
			c-0.3,0-0.5-0.1-0.8-0.3s-0.4-0.5-0.4-1V12.4c0-0.5,0.1-0.8,0.4-1c0.2-0.2,0.5-0.3,0.8-0.3h5.3c2,0,3.7,0.3,5.1,0.8
			c1.4,0.5,2.6,1.3,3.5,2.3c0.9,1,1.7,2.2,2.2,3.6C339.3,19.2,339.6,20.8,339.6,22.5z M336.3,22.7c0-1.3-0.2-2.4-0.5-3.5
			c-0.3-1.1-0.8-2-1.5-2.8c-0.7-0.8-1.5-1.4-2.5-1.9c-1-0.4-2.3-0.7-4-0.7h-3.2V32h3.2c1.5,0,2.8-0.2,3.8-0.6c1-0.4,1.9-0.9,2.6-1.7
			c0.7-0.8,1.2-1.7,1.5-2.9C336.1,25.6,336.3,24.2,336.3,22.7z"/>
		<path class="st2" d="M347.5,34.1c0,0.1,0,0.2-0.1,0.3c0,0.1-0.1,0.1-0.3,0.2s-0.3,0.1-0.5,0.1c-0.2,0-0.5,0-0.8,0
			c-0.3,0-0.5,0-0.7,0c-0.2,0-0.4-0.1-0.5-0.1c-0.1,0-0.2-0.1-0.3-0.2c0-0.1-0.1-0.2-0.1-0.3V11.6c0-0.1,0-0.2,0.1-0.3
			c0.1-0.1,0.1-0.1,0.3-0.2c0.1,0,0.3-0.1,0.5-0.1c0.2,0,0.4,0,0.7,0c0.3,0,0.6,0,0.8,0s0.4,0.1,0.5,0.1c0.1,0,0.2,0.1,0.3,0.2
			c0,0.1,0.1,0.2,0.1,0.3L347.5,34.1L347.5,34.1z"/>
		<path class="st2" d="M369.4,31.3c0,0.2,0,0.4,0,0.5c0,0.1,0,0.3-0.1,0.4c0,0.1-0.1,0.2-0.1,0.3c0,0.1-0.1,0.2-0.3,0.3
			c-0.1,0.1-0.4,0.3-0.8,0.6c-0.4,0.2-0.9,0.5-1.4,0.7c-0.6,0.2-1.2,0.4-2,0.6c-0.7,0.2-1.6,0.2-2.4,0.2c-1.5,0-2.9-0.3-4.1-0.8
			c-1.2-0.5-2.3-1.3-3.1-2.2c-0.9-1-1.5-2.2-2-3.7c-0.5-1.5-0.7-3.1-0.7-5c0-1.9,0.3-3.7,0.8-5.2c0.5-1.5,1.2-2.8,2.1-3.9
			c0.9-1.1,2-1.9,3.2-2.4c1.3-0.6,2.7-0.8,4.2-0.8c0.7,0,1.3,0.1,2,0.2c0.6,0.1,1.2,0.3,1.8,0.5c0.5,0.2,1,0.4,1.4,0.7
			s0.7,0.5,0.9,0.6c0.2,0.2,0.3,0.3,0.3,0.4c0,0.1,0.1,0.2,0.1,0.3c0,0.1,0.1,0.3,0.1,0.4c0,0.2,0,0.3,0,0.6c0,0.2,0,0.4,0,0.6
			c0,0.2-0.1,0.3-0.1,0.4c0,0.1-0.1,0.2-0.2,0.3c-0.1,0.1-0.1,0.1-0.2,0.1c-0.2,0-0.4-0.1-0.7-0.4c-0.3-0.2-0.7-0.5-1.2-0.8
			c-0.5-0.3-1.1-0.5-1.7-0.8c-0.7-0.2-1.5-0.4-2.5-0.4c-1,0-2,0.2-2.8,0.6s-1.6,1-2.2,1.8c-0.6,0.8-1.1,1.8-1.4,3s-0.5,2.5-0.5,4
			c0,1.5,0.2,2.8,0.5,3.9c0.3,1.1,0.8,2.1,1.4,2.9c0.6,0.8,1.3,1.3,2.2,1.7s1.9,0.6,3,0.6c0.9,0,1.7-0.1,2.4-0.3
			c0.7-0.2,1.3-0.5,1.8-0.8c0.5-0.3,0.9-0.5,1.2-0.8c0.3-0.2,0.6-0.3,0.7-0.3c0.1,0,0.2,0,0.2,0.1c0.1,0,0.1,0.1,0.1,0.2
			c0,0.1,0.1,0.2,0.1,0.4C369.3,30.8,369.4,31,369.4,31.3z"/>
		<path class="st2" d="M376.6,34.1c0,0.1,0,0.2-0.1,0.3c0,0.1-0.1,0.1-0.3,0.2s-0.3,0.1-0.5,0.1c-0.2,0-0.5,0-0.8,0
			c-0.3,0-0.5,0-0.7,0c-0.2,0-0.4-0.1-0.5-0.1c-0.1,0-0.2-0.1-0.3-0.2c0-0.1-0.1-0.2-0.1-0.3V11.6c0-0.1,0-0.2,0.1-0.3
			c0.1-0.1,0.1-0.1,0.3-0.2c0.1,0,0.3-0.1,0.5-0.1c0.2,0,0.4,0,0.7,0c0.3,0,0.6,0,0.8,0c0.2,0,0.4,0.1,0.5,0.1
			c0.1,0,0.2,0.1,0.3,0.2c0,0.1,0.1,0.2,0.1,0.3L376.6,34.1L376.6,34.1z"/>
		<path class="st2" d="M400.5,33.3c0,0.2,0,0.4-0.1,0.6s-0.2,0.3-0.3,0.4c-0.1,0.1-0.3,0.2-0.4,0.2c-0.2,0-0.3,0.1-0.5,0.1h-1
			c-0.3,0-0.6,0-0.9-0.1c-0.2-0.1-0.5-0.2-0.7-0.4c-0.2-0.2-0.4-0.4-0.7-0.7c-0.2-0.3-0.5-0.7-0.7-1.2L388.1,19
			c-0.4-0.7-0.7-1.4-1.1-2.2c-0.4-0.8-0.7-1.5-1.1-2.2h0c0,0.9,0,1.8,0.1,2.7c0,0.9,0,1.8,0,2.7v14.1c0,0.1,0,0.2-0.1,0.2
			c-0.1,0.1-0.1,0.1-0.3,0.2c-0.1,0-0.3,0.1-0.5,0.1c-0.2,0-0.4,0-0.8,0c-0.3,0-0.6,0-0.8,0c-0.2,0-0.4-0.1-0.5-0.1
			c-0.1,0-0.2-0.1-0.2-0.2c-0.1-0.1-0.1-0.2-0.1-0.2V12.5c0-0.5,0.1-0.8,0.4-1s0.6-0.3,0.9-0.3h1.5c0.4,0,0.7,0,0.9,0.1
			c0.2,0.1,0.5,0.2,0.7,0.3c0.2,0.1,0.4,0.3,0.6,0.6c0.2,0.2,0.4,0.6,0.6,0.9l5.5,10.3c0.3,0.6,0.7,1.2,1,1.8
			c0.3,0.6,0.6,1.2,0.9,1.8c0.3,0.6,0.6,1.1,0.9,1.7c0.3,0.6,0.6,1.1,0.8,1.7h0c0-1,0-1.9,0-3c0-1,0-2,0-3V11.7c0-0.1,0-0.2,0.1-0.2
			c0.1-0.1,0.1-0.1,0.3-0.2c0.1-0.1,0.3-0.1,0.5-0.1c0.2,0,0.5,0,0.8,0c0.3,0,0.5,0,0.7,0c0.2,0,0.4,0.1,0.5,0.1
			c0.1,0.1,0.2,0.1,0.2,0.2c0.1,0.1,0.1,0.2,0.1,0.2L400.5,33.3L400.5,33.3z"/>
		<path class="st2" d="M419.8,33.3c0,0.2,0,0.4,0,0.6c0,0.2-0.1,0.3-0.1,0.4c-0.1,0.1-0.1,0.2-0.2,0.2c-0.1,0-0.2,0.1-0.3,0.1h-11.2
			c-0.3,0-0.5-0.1-0.8-0.3c-0.2-0.2-0.4-0.5-0.4-1V12.4c0-0.5,0.1-0.8,0.4-1c0.2-0.2,0.5-0.3,0.8-0.3H419c0.1,0,0.2,0,0.3,0.1
			c0.1,0,0.1,0.1,0.2,0.2c0,0.1,0.1,0.2,0.1,0.4c0,0.2,0,0.4,0,0.6c0,0.2,0,0.4,0,0.6c0,0.2-0.1,0.3-0.1,0.4c0,0.1-0.1,0.2-0.2,0.2
			c-0.1,0-0.2,0.1-0.3,0.1h-9.2v7.3h7.9c0.1,0,0.2,0,0.3,0.1c0.1,0.1,0.1,0.1,0.2,0.2c0.1,0.1,0.1,0.2,0.1,0.4c0,0.2,0,0.4,0,0.6
			c0,0.2,0,0.4,0,0.6c0,0.2-0.1,0.3-0.1,0.4c-0.1,0.1-0.1,0.2-0.2,0.2c-0.1,0-0.2,0.1-0.3,0.1h-7.9V32h9.3c0.1,0,0.2,0,0.3,0.1
			c0.1,0,0.1,0.1,0.2,0.2c0.1,0.1,0.1,0.2,0.1,0.4C419.8,32.8,419.8,33.1,419.8,33.3z"/>
	</g>
</g>
</svg>
